<svg xmlns="http://www.w3.org/2000/svg" width="750" height="1250" viewBox="0 0 750 1250">
  <title>The Fool</title>


  <defs>
    <linearGradient id="g" x1="0" y1="0" x2="1" y2="1">
      <stop offset="0%" stop-color="#EAF0FF"/>
      <stop offset="100%" stop-color="#FFF7E6"/>
    </linearGradient>

    <!-- paper texture -->
    <filter id="paper" x="-20%" y="-20%" width="140%" height="140%">
      <feTurbulence type="fractalNoise" baseFrequency="0.019" numOctaves="3" seed="703" result="noise"/>
      <feColorMatrix in="noise" type="matrix"
        values="1 0 0 0 0
                0 1 0 0 0
                0 0 1 0 0
                0 0 0 0.25 0" result="noiseAlpha"/>
      <feComposite in="noiseAlpha" in2="SourceGraphic" operator="over"/>
    </filter>

    <!-- soft glow -->
    <filter id="glow" x="-30%" y="-30%" width="160%" height="160%">
      <feGaussianBlur stdDeviation="10" result="blur"/>
      <feColorMatrix type="matrix" values="
        1 0 0 0 0
        0 1 0 0 0
        0 0 1 0 0
        0 0 0 0.32 0" result="blurAlpha"/>
      <feMerge>
        <feMergeNode in="blurAlpha"/>
        <feMergeNode in="SourceGraphic"/>
      </feMerge>
    </filter>
  </defs>

<rect x="0" y="0" width="750" height="1250" rx="58" ry="58" fill="url(#g)" stroke="none" stroke-width="0" opacity="1"/>
<rect x="0" y="0" width="750" height="1250" fill="#ffffff" opacity="0.08"/>
<line x1="521.4" y1="421.5" x2="179.8" y2="800.5" stroke="#ffffff" stroke-width="2.2" opacity="0.20"/>
<line x1="179.8" y1="800.5" x2="51.2" y2="1099.3" stroke="#ffffff" stroke-width="2.2" opacity="0.11"/>
<line x1="51.2" y1="1099.3" x2="213.0" y2="1088.6" stroke="#ffffff" stroke-width="2.2" opacity="0.14"/>
<line x1="213.0" y1="1088.6" x2="257.3" y2="1143.1" stroke="#ffffff" stroke-width="2.2" opacity="0.16"/>
<line x1="257.3" y1="1143.1" x2="79.2" y2="986.2" stroke="#ffffff" stroke-width="2.2" opacity="0.13"/>
<line x1="79.2" y1="986.2" x2="297.9" y2="403.4" stroke="#ffffff" stroke-width="2.2" opacity="0.18"/>
<line x1="297.9" y1="403.4" x2="110.2" y2="454.5" stroke="#ffffff" stroke-width="2.2" opacity="0.19"/>
<line x1="110.2" y1="454.5" x2="196.5" y2="1005.8" stroke="#ffffff" stroke-width="2.2" opacity="0.14"/>
<line x1="196.5" y1="1005.8" x2="305.8" y2="117.6" stroke="#ffffff" stroke-width="2.2" opacity="0.11"/>
<line x1="305.8" y1="117.6" x2="130.6" y2="259.5" stroke="#ffffff" stroke-width="2.2" opacity="0.14"/>
<line x1="130.6" y1="259.5" x2="309.6" y2="911.8" stroke="#ffffff" stroke-width="2.2" opacity="0.16"/>
<line x1="309.6" y1="911.8" x2="234.0" y2="504.5" stroke="#ffffff" stroke-width="2.2" opacity="0.21"/>
<line x1="234.0" y1="504.5" x2="226.2" y2="979.6" stroke="#ffffff" stroke-width="2.2" opacity="0.15"/>
<line x1="226.2" y1="979.6" x2="578.8" y2="855.8" stroke="#ffffff" stroke-width="2.2" opacity="0.16"/>
<line x1="578.8" y1="855.8" x2="685.7" y2="209.0" stroke="#ffffff" stroke-width="2.2" opacity="0.17"/>
<line x1="685.7" y1="209.0" x2="322.4" y2="126.2" stroke="#ffffff" stroke-width="2.2" opacity="0.21"/>
<line x1="322.4" y1="126.2" x2="669.9" y2="257.6" stroke="#ffffff" stroke-width="2.2" opacity="0.16"/>
<line x1="669.9" y1="257.6" x2="310.2" y2="818.3" stroke="#ffffff" stroke-width="2.2" opacity="0.08"/>
<circle cx="414.6" cy="708.8" r="2.8" fill="#ffffff" opacity="0.3049272746900717"/>
<circle cx="584.8" cy="763.7" r="3.6" fill="#ffffff" opacity="0.8039254822289954"/>
<circle cx="578.8" cy="855.8" r="4.3" fill="#ffffff" opacity="0.511733686694334"/>
<circle cx="703.3" cy="429.3" r="4.4" fill="#ffffff" opacity="0.40997939244513554"/>
<circle cx="530.7" cy="316.3" r="2.0" fill="#ffffff" opacity="0.5740041800033917"/>
<circle cx="119.0" cy="171.2" r="4.4" fill="#ffffff" opacity="0.60300141987469"/>
<circle cx="100.5" cy="658.5" r="4.8" fill="#ffffff" opacity="0.4723671248266903"/>
<circle cx="110.2" cy="454.5" r="3.3" fill="#ffffff" opacity="0.7420320146608952"/>
<circle cx="669.9" cy="257.6" r="4.4" fill="#ffffff" opacity="0.6790650981053139"/>
<circle cx="152.7" cy="612.3" r="3.7" fill="#ffffff" opacity="0.32450905227611976"/>
<circle cx="184.5" cy="405.7" r="2.1" fill="#ffffff" opacity="0.7117445845166795"/>
<circle cx="441.5" cy="325.5" r="3.6" fill="#ffffff" opacity="0.2826422051641688"/>
<circle cx="310.2" cy="818.3" r="4.7" fill="#ffffff" opacity="0.4432616801241186"/>
<circle cx="158.6" cy="599.9" r="3.2" fill="#ffffff" opacity="0.8228245885590856"/>
<circle cx="534.5" cy="65.5" r="4.0" fill="#ffffff" opacity="0.7034689377443089"/>
<circle cx="606.8" cy="1012.8" r="3.4" fill="#ffffff" opacity="0.6339705442007291"/>
<circle cx="213.0" cy="1088.6" r="2.7" fill="#ffffff" opacity="0.5967858662476504"/>
<circle cx="685.7" cy="209.0" r="1.6" fill="#ffffff" opacity="0.4386875112454912"/>
<circle cx="668.9" cy="273.5" r="2.2" fill="#ffffff" opacity="0.6458012427889428"/>
<circle cx="521.4" cy="421.5" r="4.1" fill="#ffffff" opacity="0.8366719500054718"/>
<circle cx="51.2" cy="1099.3" r="4.4" fill="#ffffff" opacity="0.5251193649447345"/>
<circle cx="307.0" cy="804.0" r="3.8" fill="#ffffff" opacity="0.33795692141460015"/>
<circle cx="322.4" cy="126.2" r="3.8" fill="#ffffff" opacity="0.6819351009181602"/>
<circle cx="399.2" cy="252.3" r="4.7" fill="#ffffff" opacity="0.8457077169067175"/>
<circle cx="532.6" cy="920.8" r="4.1" fill="#ffffff" opacity="0.2823836816336146"/>
<circle cx="232.0" cy="1107.7" r="1.9" fill="#ffffff" opacity="0.4482055717887912"/>
<circle cx="652.2" cy="1201.9" r="2.2" fill="#ffffff" opacity="0.631169982840047"/>
<circle cx="257.3" cy="1143.1" r="2.3" fill="#ffffff" opacity="0.4775586595941006"/>
<circle cx="97.0" cy="254.4" r="3.1" fill="#ffffff" opacity="0.6335917467909756"/>
<circle cx="544.0" cy="529.5" r="3.6" fill="#ffffff" opacity="0.7014784590865789"/>
<circle cx="43.8" cy="1172.7" r="4.7" fill="#ffffff" opacity="0.7985894481092344"/>
<circle cx="130.6" cy="259.5" r="4.2" fill="#ffffff" opacity="0.46738466505622794"/>
<circle cx="309.6" cy="911.8" r="2.7" fill="#ffffff" opacity="0.7110330624862813"/>
<circle cx="581.8" cy="538.7" r="1.9" fill="#ffffff" opacity="0.7269408471807"/>
<circle cx="196.5" cy="1005.8" r="2.3" fill="#ffffff" opacity="0.7274043445424421"/>
<circle cx="594.4" cy="435.8" r="4.1" fill="#ffffff" opacity="0.46293879640012375"/>
<circle cx="695.7" cy="1146.1" r="4.4" fill="#ffffff" opacity="0.3540416618329078"/>
<circle cx="155.7" cy="921.5" r="2.8" fill="#ffffff" opacity="0.2684614584318064"/>
<circle cx="138.1" cy="219.1" r="3.8" fill="#ffffff" opacity="0.3628254319414943"/>
<circle cx="688.8" cy="961.8" r="2.1" fill="#ffffff" opacity="0.46749564287099965"/>
<circle cx="79.2" cy="986.2" r="4.6" fill="#ffffff" opacity="0.3734883754658026"/>
<circle cx="74.0" cy="688.2" r="3.4" fill="#ffffff" opacity="0.49934277065513677"/>
<circle cx="576.2" cy="641.9" r="1.8" fill="#ffffff" opacity="0.7536971501304353"/>
<circle cx="297.9" cy="403.4" r="4.4" fill="#ffffff" opacity="0.5347550915217474"/>
<circle cx="226.2" cy="979.6" r="2.4" fill="#ffffff" opacity="0.44735063679715514"/>
<circle cx="245.3" cy="92.4" r="4.2" fill="#ffffff" opacity="0.7879984757536549"/>
<circle cx="179.8" cy="800.5" r="4.7" fill="#ffffff" opacity="0.7188685801813175"/>
<circle cx="234.0" cy="504.5" r="2.3" fill="#ffffff" opacity="0.635529519921352"/>
<circle cx="335.3" cy="360.7" r="3.3" fill="#ffffff" opacity="0.47255267044004745"/>
<circle cx="305.8" cy="117.6" r="2.9" fill="#ffffff" opacity="0.7932157524276049"/>
<g filter="url(#paper)"><rect x="42" y="42" width="666" height="1166" rx="54" ry="54" fill="none" stroke="#1E1B2E" stroke-width="8" opacity="0.95"/>
<rect x="60" y="60" width="630" height="1130" rx="46" ry="46" fill="none" stroke="#5E60CE" stroke-width="3" opacity="0.35"/>

  <g opacity="0.42">
    <circle cx="375.0" cy="560" r="285" fill="none" stroke="#5E60CE" stroke-width="4.2" opacity="0.42"/>
    <circle cx="375.0" cy="560" r="233.7" fill="none" stroke="#5E60CE" stroke-width="2.2" opacity="0.23"/>
    <line x1="642.0" y1="560.0" x2="674.0" y2="560.0" stroke="#5E60CE" stroke-width="3.2" opacity="0.23" stroke-linecap="round"/><line x1="606.2" y1="693.5" x2="633.9" y2="709.5" stroke="#5E60CE" stroke-width="3.2" opacity="0.23" stroke-linecap="round"/><line x1="508.5" y1="791.2" x2="524.5" y2="818.9" stroke="#5E60CE" stroke-width="3.2" opacity="0.23" stroke-linecap="round"/><line x1="375.0" y1="827.0" x2="375.0" y2="859.0" stroke="#5E60CE" stroke-width="3.2" opacity="0.23" stroke-linecap="round"/><line x1="241.5" y1="791.2" x2="225.5" y2="818.9" stroke="#5E60CE" stroke-width="3.2" opacity="0.23" stroke-linecap="round"/><line x1="143.8" y1="693.5" x2="116.1" y2="709.5" stroke="#5E60CE" stroke-width="3.2" opacity="0.23" stroke-linecap="round"/><line x1="108.0" y1="560.0" x2="76.0" y2="560.0" stroke="#5E60CE" stroke-width="3.2" opacity="0.23" stroke-linecap="round"/><line x1="143.8" y1="426.5" x2="116.1" y2="410.5" stroke="#5E60CE" stroke-width="3.2" opacity="0.23" stroke-linecap="round"/><line x1="241.5" y1="328.8" x2="225.5" y2="301.1" stroke="#5E60CE" stroke-width="3.2" opacity="0.23" stroke-linecap="round"/><line x1="375.0" y1="293.0" x2="375.0" y2="261.0" stroke="#5E60CE" stroke-width="3.2" opacity="0.23" stroke-linecap="round"/><line x1="508.5" y1="328.8" x2="524.5" y2="301.1" stroke="#5E60CE" stroke-width="3.2" opacity="0.23" stroke-linecap="round"/><line x1="606.2" y1="426.5" x2="633.9" y2="410.5" stroke="#5E60CE" stroke-width="3.2" opacity="0.23" stroke-linecap="round"/>
    <circle cx="660.0" cy="556.6" r="2.9" fill="#5E60CE" opacity="0.29"/><circle cx="650.6" cy="632.6" r="3.9" fill="#5E60CE" opacity="0.37"/><circle cx="619.5" cy="706.5" r="4.0" fill="#5E60CE" opacity="0.29"/><circle cx="572.5" cy="765.5" r="3.8" fill="#5E60CE" opacity="0.31"/><circle cx="510.0" cy="811.0" r="3.5" fill="#5E60CE" opacity="0.39"/><circle cx="445.9" cy="836.0" r="3.5" fill="#5E60CE" opacity="0.34"/><circle cx="365.8" cy="844.9" r="3.9" fill="#5E60CE" opacity="0.28"/><circle cx="296.5" cy="834.0" r="3.5" fill="#5E60CE" opacity="0.34"/><circle cx="227.4" cy="803.8" r="3.5" fill="#5E60CE" opacity="0.21"/><circle cx="169.8" cy="757.8" r="3.9" fill="#5E60CE" opacity="0.42"/><circle cx="129.3" cy="704.4" r="3.6" fill="#5E60CE" opacity="0.24"/><circle cx="98.2" cy="628.0" r="4.0" fill="#5E60CE" opacity="0.30"/><circle cx="90.2" cy="550.2" r="3.0" fill="#5E60CE" opacity="0.31"/><circle cx="98.1" cy="492.7" r="3.7" fill="#5E60CE" opacity="0.31"/><circle cx="128.6" cy="416.8" r="3.2" fill="#5E60CE" opacity="0.39"/><circle cx="173.1" cy="358.8" r="2.7" fill="#5E60CE" opacity="0.23"/><circle cx="226.3" cy="316.9" r="3.2" fill="#5E60CE" opacity="0.31"/><circle cx="304.1" cy="284.0" r="3.3" fill="#5E60CE" opacity="0.32"/><circle cx="366.7" cy="275.1" r="3.4" fill="#5E60CE" opacity="0.33"/><circle cx="452.3" cy="285.7" r="3.1" fill="#5E60CE" opacity="0.20"/><circle cx="512.8" cy="310.5" r="3.0" fill="#5E60CE" opacity="0.28"/><circle cx="577.3" cy="359.2" r="3.0" fill="#5E60CE" opacity="0.21"/><circle cx="618.3" cy="411.6" r="3.9" fill="#5E60CE" opacity="0.20"/><circle cx="652.5" cy="495.3" r="3.3" fill="#5E60CE" opacity="0.33"/>
  </g>

<g><g transform="translate(50,54)"><path d="M 18.0 140.4 C 39.6 63.0, 99.0 28.8, 154.8 46.8 C 126.0 86.4, 72.0 111.6, 39.6 129.6" fill="none" stroke="#5E60CE" stroke-width="6" opacity="0.55" stroke-linecap="round"/></g><g transform="translate(700,54) scale(-1,1)"><path d="M 18.0 140.4 C 39.6 63.0, 99.0 28.8, 154.8 46.8 C 126.0 86.4, 72.0 111.6, 39.6 129.6" fill="none" stroke="#5E60CE" stroke-width="6" opacity="0.55" stroke-linecap="round"/></g><g transform="translate(50,1196) scale(1,-1)"><path d="M 18.0 140.4 C 39.6 63.0, 99.0 28.8, 154.8 46.8 C 126.0 86.4, 72.0 111.6, 39.6 129.6" fill="none" stroke="#5E60CE" stroke-width="6" opacity="0.55" stroke-linecap="round"/></g><g transform="translate(700,1196) scale(-1,-1)"><path d="M 18.0 140.4 C 39.6 63.0, 99.0 28.8, 154.8 46.8 C 126.0 86.4, 72.0 111.6, 39.6 129.6" fill="none" stroke="#5E60CE" stroke-width="6" opacity="0.55" stroke-linecap="round"/></g></g></g>
<rect x="42" y="60" width="666" height="92" rx="30" fill="#ffffffcc" stroke="#1E1B2E" stroke-width="4" opacity="0.95"/>
<text x="375.0" y="122" font-family="ui-sans-serif, system-ui, -apple-system, Segoe UI, Roboto, Helvetica, Arial" font-size="30" font-weight="800" text-anchor="middle" fill="#1E1B2E" opacity="0.95" letter-spacing="1">MAJOR ARCANA • 0</text>
<rect x="76" y="170" width="598" height="760" rx="52" fill="#ffffff" opacity="0.15"/>

        <line x1="98.9" y1="426.7" x2="352.3" y2="357.2" stroke="#ffffff" stroke-width="2.2" opacity="0.16"/>
<line x1="352.3" y1="357.2" x2="252.8" y2="466.0" stroke="#ffffff" stroke-width="2.2" opacity="0.13"/>
<line x1="252.8" y1="466.0" x2="125.4" y2="375.2" stroke="#ffffff" stroke-width="2.2" opacity="0.14"/>
<line x1="125.4" y1="375.2" x2="130.6" y2="219.3" stroke="#ffffff" stroke-width="2.2" opacity="0.12"/>
<line x1="130.6" y1="219.3" x2="501.7" y2="281.6" stroke="#ffffff" stroke-width="2.2" opacity="0.13"/>
<line x1="501.7" y1="281.6" x2="450.9" y2="344.6" stroke="#ffffff" stroke-width="2.2" opacity="0.13"/>
<line x1="450.9" y1="344.6" x2="667.2" y2="344.0" stroke="#ffffff" stroke-width="2.2" opacity="0.11"/>
<line x1="667.2" y1="344.0" x2="300.3" y2="175.1" stroke="#ffffff" stroke-width="2.2" opacity="0.12"/>
<line x1="300.3" y1="175.1" x2="269.2" y2="519.4" stroke="#ffffff" stroke-width="2.2" opacity="0.12"/>
<line x1="269.2" y1="519.4" x2="262.1" y2="573.3" stroke="#ffffff" stroke-width="2.2" opacity="0.21"/>
<circle cx="501.7" cy="281.6" r="2.9" fill="#ffffff" opacity="0.5842280105196647"/>
<circle cx="495.6" cy="390.5" r="4.1" fill="#ffffff" opacity="0.4798915411393819"/>
<circle cx="269.2" cy="519.4" r="4.3" fill="#ffffff" opacity="0.5027993429736369"/>
<circle cx="438.2" cy="487.3" r="2.8" fill="#ffffff" opacity="0.3726131821661472"/>
<circle cx="98.9" cy="426.7" r="4.5" fill="#ffffff" opacity="0.47513972598585397"/>
<circle cx="540.9" cy="206.0" r="3.0" fill="#ffffff" opacity="0.30470296782185313"/>
<circle cx="422.2" cy="356.5" r="4.2" fill="#ffffff" opacity="0.7511647363057824"/>
<circle cx="580.8" cy="228.2" r="4.1" fill="#ffffff" opacity="0.4829371444206716"/>
<circle cx="92.8" cy="224.7" r="3.9" fill="#ffffff" opacity="0.4071577516716922"/>
<circle cx="471.4" cy="412.5" r="2.3" fill="#ffffff" opacity="0.4134018658110118"/>
<circle cx="142.1" cy="344.0" r="4.0" fill="#ffffff" opacity="0.501226855615259"/>
<circle cx="450.9" cy="344.6" r="2.5" fill="#ffffff" opacity="0.697708989953367"/>
<circle cx="130.6" cy="219.3" r="2.6" fill="#ffffff" opacity="0.3159985456883549"/>
<circle cx="262.1" cy="573.3" r="4.5" fill="#ffffff" opacity="0.5210440867860886"/>
<circle cx="466.9" cy="340.1" r="4.2" fill="#ffffff" opacity="0.4489269624849579"/>
<circle cx="300.3" cy="175.1" r="4.7" fill="#ffffff" opacity="0.6338612539201993"/>
<circle cx="542.9" cy="526.9" r="2.4" fill="#ffffff" opacity="0.696253130522732"/>
<circle cx="545.8" cy="447.3" r="3.6" fill="#ffffff" opacity="0.30403648346242157"/>
<circle cx="667.2" cy="344.0" r="3.7" fill="#ffffff" opacity="0.7743940336116906"/>
<circle cx="125.4" cy="375.2" r="1.7" fill="#ffffff" opacity="0.7648242408102826"/>
<circle cx="488.9" cy="268.8" r="3.4" fill="#ffffff" opacity="0.3524694114278819"/>
<circle cx="487.0" cy="442.7" r="4.4" fill="#ffffff" opacity="0.5666965859159787"/>
<circle cx="609.7" cy="398.5" r="2.5" fill="#ffffff" opacity="0.4616955003974006"/>
<circle cx="255.5" cy="299.0" r="3.2" fill="#ffffff" opacity="0.765174315612837"/>
<circle cx="494.9" cy="257.8" r="2.0" fill="#ffffff" opacity="0.3873693269104588"/>
<circle cx="352.3" cy="357.2" r="3.3" fill="#ffffff" opacity="0.5004978976920893"/>
<circle cx="653.3" cy="391.2" r="3.2" fill="#ffffff" opacity="0.8069779360847358"/>
<circle cx="252.8" cy="466.0" r="3.8" fill="#ffffff" opacity="0.27106621431352584"/>
        <g filter="url(#glow)">
          <polygon points="375.00,355.00 416.14,468.37 536.68,472.47 441.57,546.63 474.92,662.53 375.00,595.00 275.08,662.53 308.43,546.63 213.32,472.47 333.86,468.37" fill="#ffffff" opacity="0.50"/>
        </g>
        <path d="M 225.0 745 Q 375.0 825 525.0 745" fill="none" stroke="#5E60CE" stroke-width="10" opacity="0.55" stroke-linecap="round"/>
        <path d="M 296.1 617.0 Q 354.9 602.6 445.5 480.5 Q 397.9 648.4 348.9 561.4 Q 370.2 560.9 228.9 608.5 Q 380.6 651.7 311.4 575.1 Q 359.7 654.7 332.3 628.7 Q 425.2 633.5 467.0 620.7 " fill="none" stroke="#5E60CE" stroke-width="5.5" opacity="0.33" stroke-linecap="round" stroke-linejoin="round"/>
        
<rect x="42" y="1030" width="666" height="160" rx="30" fill="#ffffffd9" stroke="#1E1B2E" stroke-width="4" opacity="0.95"/>
<text x="375.0" y="1104" font-family="ui-sans-serif, system-ui, -apple-system, Segoe UI, Roboto, Helvetica, Arial" font-size="46" font-weight="900" text-anchor="middle" fill="#1E1B2E" opacity="0.98">The Fool</text>
<text x="375.0" y="1152" font-family="ui-sans-serif, system-ui, -apple-system, Segoe UI, Roboto, Helvetica, Arial" font-size="28" font-weight="700" text-anchor="middle" fill="#1E1B2E" opacity="0.7">Curiosity</text>

    <g opacity="0.55">
      <circle cx="127" cy="1176" r="14" fill="#5E60CE"/>
      <circle cx="623" cy="1176" r="14" fill="#5E60CE"/>
      <path d="M 162 1176 L 588 1176" stroke="#5E60CE" stroke-width="4" opacity="0.45" stroke-linecap="round"/>
    </g>
    
</svg>
