<svg xmlns="http://www.w3.org/2000/svg" width="750" height="1250" viewBox="0 0 750 1250">
  <title>The Magician</title>


  <defs>
    <linearGradient id="g" x1="0" y1="0" x2="1" y2="1">
      <stop offset="0%" stop-color="#DFF7F0"/>
      <stop offset="100%" stop-color="#FFF1D8"/>
    </linearGradient>

    <!-- paper texture -->
    <filter id="paper" x="-20%" y="-20%" width="140%" height="140%">
      <feTurbulence type="fractalNoise" baseFrequency="0.014" numOctaves="3" seed="2272" result="noise"/>
      <feColorMatrix in="noise" type="matrix"
        values="1 0 0 0 0
                0 1 0 0 0
                0 0 1 0 0
                0 0 0 0.25 0" result="noiseAlpha"/>
      <feComposite in="noiseAlpha" in2="SourceGraphic" operator="over"/>
    </filter>

    <!-- soft glow -->
    <filter id="glow" x="-30%" y="-30%" width="160%" height="160%">
      <feGaussianBlur stdDeviation="10" result="blur"/>
      <feColorMatrix type="matrix" values="
        1 0 0 0 0
        0 1 0 0 0
        0 0 1 0 0
        0 0 0 0.32 0" result="blurAlpha"/>
      <feMerge>
        <feMergeNode in="blurAlpha"/>
        <feMergeNode in="SourceGraphic"/>
      </feMerge>
    </filter>
  </defs>

<rect x="0" y="0" width="750" height="1250" rx="58" ry="58" fill="url(#g)" stroke="none" stroke-width="0" opacity="1"/>
<rect x="0" y="0" width="750" height="1250" fill="#ffffff" opacity="0.08"/>
<line x1="476.0" y1="901.3" x2="396.1" y2="200.3" stroke="#ffffff" stroke-width="2.2" opacity="0.16"/>
<line x1="396.1" y1="200.3" x2="42.8" y2="569.1" stroke="#ffffff" stroke-width="2.2" opacity="0.13"/>
<line x1="42.8" y1="569.1" x2="111.9" y2="426.8" stroke="#ffffff" stroke-width="2.2" opacity="0.14"/>
<line x1="111.9" y1="426.8" x2="498.1" y2="346.1" stroke="#ffffff" stroke-width="2.2" opacity="0.08"/>
<line x1="498.1" y1="346.1" x2="328.5" y2="818.7" stroke="#ffffff" stroke-width="2.2" opacity="0.08"/>
<line x1="328.5" y1="818.7" x2="421.3" y2="841.0" stroke="#ffffff" stroke-width="2.2" opacity="0.11"/>
<line x1="421.3" y1="841.0" x2="667.8" y2="373.5" stroke="#ffffff" stroke-width="2.2" opacity="0.16"/>
<line x1="667.8" y1="373.5" x2="670.9" y2="627.3" stroke="#ffffff" stroke-width="2.2" opacity="0.16"/>
<line x1="670.9" y1="627.3" x2="452.0" y2="434.8" stroke="#ffffff" stroke-width="2.2" opacity="0.18"/>
<line x1="452.0" y1="434.8" x2="211.3" y2="908.0" stroke="#ffffff" stroke-width="2.2" opacity="0.14"/>
<line x1="211.3" y1="908.0" x2="402.9" y2="713.2" stroke="#ffffff" stroke-width="2.2" opacity="0.15"/>
<line x1="402.9" y1="713.2" x2="236.1" y2="1194.7" stroke="#ffffff" stroke-width="2.2" opacity="0.22"/>
<line x1="236.1" y1="1194.7" x2="411.8" y2="418.8" stroke="#ffffff" stroke-width="2.2" opacity="0.19"/>
<line x1="411.8" y1="418.8" x2="616.7" y2="720.9" stroke="#ffffff" stroke-width="2.2" opacity="0.14"/>
<line x1="616.7" y1="720.9" x2="659.2" y2="114.0" stroke="#ffffff" stroke-width="2.2" opacity="0.14"/>
<line x1="659.2" y1="114.0" x2="341.4" y2="259.9" stroke="#ffffff" stroke-width="2.2" opacity="0.19"/>
<line x1="341.4" y1="259.9" x2="164.1" y2="262.8" stroke="#ffffff" stroke-width="2.2" opacity="0.12"/>
<line x1="164.1" y1="262.8" x2="77.6" y2="341.2" stroke="#ffffff" stroke-width="2.2" opacity="0.16"/>
<circle cx="443.8" cy="733.5" r="2.0" fill="#ffffff" opacity="0.27820666381842396"/>
<circle cx="447.1" cy="870.6" r="1.6" fill="#ffffff" opacity="0.4637350815856289"/>
<circle cx="215.6" cy="561.6" r="3.0" fill="#ffffff" opacity="0.8115156301844069"/>
<circle cx="417.9" cy="952.1" r="3.7" fill="#ffffff" opacity="0.6247940320418851"/>
<circle cx="424.9" cy="496.8" r="3.2" fill="#ffffff" opacity="0.25827689320605585"/>
<circle cx="83.9" cy="1028.1" r="1.7" fill="#ffffff" opacity="0.542702161805658"/>
<circle cx="450.1" cy="284.5" r="2.4" fill="#ffffff" opacity="0.3490718978711365"/>
<circle cx="630.7" cy="1105.7" r="4.3" fill="#ffffff" opacity="0.31166919579130403"/>
<circle cx="211.3" cy="908.0" r="3.2" fill="#ffffff" opacity="0.6634713226716775"/>
<circle cx="106.4" cy="744.9" r="4.6" fill="#ffffff" opacity="0.6228584559254241"/>
<circle cx="77.6" cy="341.2" r="4.5" fill="#ffffff" opacity="0.4590564997877587"/>
<circle cx="310.6" cy="183.0" r="3.1" fill="#ffffff" opacity="0.47370198924057993"/>
<circle cx="497.3" cy="747.5" r="4.1" fill="#ffffff" opacity="0.834490043215507"/>
<circle cx="372.0" cy="1045.8" r="4.2" fill="#ffffff" opacity="0.6682297839808027"/>
<circle cx="670.9" cy="627.3" r="3.8" fill="#ffffff" opacity="0.6506942799129478"/>
<circle cx="476.0" cy="901.3" r="3.1" fill="#ffffff" opacity="0.3006217611422875"/>
<circle cx="472.8" cy="316.8" r="4.0" fill="#ffffff" opacity="0.8372439988645389"/>
<circle cx="491.2" cy="570.8" r="2.3" fill="#ffffff" opacity="0.6183991293169644"/>
<circle cx="411.1" cy="434.3" r="4.4" fill="#ffffff" opacity="0.5735828202932922"/>
<circle cx="164.1" cy="262.8" r="3.6" fill="#ffffff" opacity="0.8496729177306549"/>
<circle cx="402.9" cy="713.2" r="3.9" fill="#ffffff" opacity="0.4448783170245466"/>
<circle cx="528.0" cy="470.4" r="4.3" fill="#ffffff" opacity="0.6140386747940818"/>
<circle cx="236.1" cy="1194.7" r="4.2" fill="#ffffff" opacity="0.6522452061102229"/>
<circle cx="692.3" cy="882.1" r="1.9" fill="#ffffff" opacity="0.5684062952990097"/>
<circle cx="247.7" cy="614.1" r="1.8" fill="#ffffff" opacity="0.7395953271778095"/>
<circle cx="542.6" cy="643.8" r="2.6" fill="#ffffff" opacity="0.5815259223484501"/>
<circle cx="341.4" cy="259.9" r="1.7" fill="#ffffff" opacity="0.6531741343395958"/>
<circle cx="270.2" cy="243.7" r="3.5" fill="#ffffff" opacity="0.5399146717538958"/>
<circle cx="512.6" cy="825.1" r="2.2" fill="#ffffff" opacity="0.39864945613249947"/>
<circle cx="616.7" cy="720.9" r="2.2" fill="#ffffff" opacity="0.5889640216924098"/>
<circle cx="61.4" cy="1066.1" r="2.3" fill="#ffffff" opacity="0.835114116064526"/>
<circle cx="176.7" cy="893.3" r="3.4" fill="#ffffff" opacity="0.6075629202385799"/>
<circle cx="411.8" cy="418.8" r="3.0" fill="#ffffff" opacity="0.5908837235101487"/>
<circle cx="499.4" cy="1097.6" r="3.3" fill="#ffffff" opacity="0.3044292409909498"/>
<circle cx="492.7" cy="801.0" r="3.9" fill="#ffffff" opacity="0.5364534303533455"/>
<circle cx="421.3" cy="841.0" r="2.8" fill="#ffffff" opacity="0.4654357930263736"/>
<circle cx="119.5" cy="350.0" r="1.7" fill="#ffffff" opacity="0.3111394796699407"/>
<circle cx="667.8" cy="373.5" r="3.5" fill="#ffffff" opacity="0.8364011946156077"/>
<circle cx="145.8" cy="1067.1" r="4.4" fill="#ffffff" opacity="0.7252732132826905"/>
<circle cx="179.5" cy="865.2" r="4.5" fill="#ffffff" opacity="0.8193563846365169"/>
<circle cx="396.1" cy="200.3" r="2.9" fill="#ffffff" opacity="0.2777547107739333"/>
<circle cx="111.9" cy="426.8" r="4.2" fill="#ffffff" opacity="0.6616053391659581"/>
<circle cx="328.5" cy="818.7" r="2.2" fill="#ffffff" opacity="0.8379330633936085"/>
<circle cx="42.8" cy="569.1" r="2.8" fill="#ffffff" opacity="0.318192442671326"/>
<circle cx="141.1" cy="305.0" r="1.9" fill="#ffffff" opacity="0.5607671886904235"/>
<circle cx="659.2" cy="114.0" r="2.4" fill="#ffffff" opacity="0.6210506171251139"/>
<circle cx="452.0" cy="434.8" r="3.9" fill="#ffffff" opacity="0.6167152419356076"/>
<circle cx="498.1" cy="346.1" r="1.8" fill="#ffffff" opacity="0.5313112298051375"/>
<circle cx="428.0" cy="87.0" r="2.7" fill="#ffffff" opacity="0.7790659004574154"/>
<circle cx="484.8" cy="1120.5" r="3.9" fill="#ffffff" opacity="0.4525287598679175"/>
<g filter="url(#paper)"><rect x="42" y="42" width="666" height="1166" rx="54" ry="54" fill="none" stroke="#1E1B2E" stroke-width="8" opacity="0.95"/>
<rect x="60" y="60" width="630" height="1130" rx="46" ry="46" fill="none" stroke="#FF7AA2" stroke-width="3" opacity="0.35"/>

  <g opacity="0.42">
    <circle cx="375.0" cy="560" r="285" fill="none" stroke="#FF7AA2" stroke-width="4.2" opacity="0.42"/>
    <circle cx="375.0" cy="560" r="233.7" fill="none" stroke="#FF7AA2" stroke-width="2.2" opacity="0.23"/>
    <line x1="642.0" y1="560.0" x2="674.0" y2="560.0" stroke="#FF7AA2" stroke-width="3.2" opacity="0.23" stroke-linecap="round"/><line x1="606.2" y1="693.5" x2="633.9" y2="709.5" stroke="#FF7AA2" stroke-width="3.2" opacity="0.23" stroke-linecap="round"/><line x1="508.5" y1="791.2" x2="524.5" y2="818.9" stroke="#FF7AA2" stroke-width="3.2" opacity="0.23" stroke-linecap="round"/><line x1="375.0" y1="827.0" x2="375.0" y2="859.0" stroke="#FF7AA2" stroke-width="3.2" opacity="0.23" stroke-linecap="round"/><line x1="241.5" y1="791.2" x2="225.5" y2="818.9" stroke="#FF7AA2" stroke-width="3.2" opacity="0.23" stroke-linecap="round"/><line x1="143.8" y1="693.5" x2="116.1" y2="709.5" stroke="#FF7AA2" stroke-width="3.2" opacity="0.23" stroke-linecap="round"/><line x1="108.0" y1="560.0" x2="76.0" y2="560.0" stroke="#FF7AA2" stroke-width="3.2" opacity="0.23" stroke-linecap="round"/><line x1="143.8" y1="426.5" x2="116.1" y2="410.5" stroke="#FF7AA2" stroke-width="3.2" opacity="0.23" stroke-linecap="round"/><line x1="241.5" y1="328.8" x2="225.5" y2="301.1" stroke="#FF7AA2" stroke-width="3.2" opacity="0.23" stroke-linecap="round"/><line x1="375.0" y1="293.0" x2="375.0" y2="261.0" stroke="#FF7AA2" stroke-width="3.2" opacity="0.23" stroke-linecap="round"/><line x1="508.5" y1="328.8" x2="524.5" y2="301.1" stroke="#FF7AA2" stroke-width="3.2" opacity="0.23" stroke-linecap="round"/><line x1="606.2" y1="426.5" x2="633.9" y2="410.5" stroke="#FF7AA2" stroke-width="3.2" opacity="0.23" stroke-linecap="round"/>
    <circle cx="659.9" cy="568.5" r="3.2" fill="#FF7AA2" opacity="0.45"/><circle cx="650.0" cy="634.7" r="3.3" fill="#FF7AA2" opacity="0.37"/><circle cx="619.6" cy="706.2" r="3.1" fill="#FF7AA2" opacity="0.31"/><circle cx="572.8" cy="765.2" r="2.7" fill="#FF7AA2" opacity="0.44"/><circle cx="509.3" cy="811.4" r="3.0" fill="#FF7AA2" opacity="0.20"/><circle cx="445.1" cy="836.2" r="2.8" fill="#FF7AA2" opacity="0.30"/><circle cx="370.5" cy="845.0" r="3.2" fill="#FF7AA2" opacity="0.29"/><circle cx="295.6" cy="833.7" r="3.8" fill="#FF7AA2" opacity="0.25"/><circle cx="241.1" cy="811.6" r="3.3" fill="#FF7AA2" opacity="0.25"/><circle cx="175.6" cy="763.6" r="3.5" fill="#FF7AA2" opacity="0.37"/><circle cx="132.7" cy="710.0" r="3.0" fill="#FF7AA2" opacity="0.22"/><circle cx="101.4" cy="639.7" r="2.8" fill="#FF7AA2" opacity="0.23"/><circle cx="90.0" cy="564.1" r="3.2" fill="#FF7AA2" opacity="0.25"/><circle cx="100.0" cy="485.3" r="3.7" fill="#FF7AA2" opacity="0.28"/><circle cx="131.2" cy="412.3" r="3.9" fill="#FF7AA2" opacity="0.39"/><circle cx="167.2" cy="364.9" r="3.6" fill="#FF7AA2" opacity="0.42"/><circle cx="228.8" cy="315.3" r="2.6" fill="#FF7AA2" opacity="0.29"/><circle cx="301.8" cy="284.6" r="4.0" fill="#FF7AA2" opacity="0.30"/><circle cx="381.5" cy="275.1" r="3.2" fill="#FF7AA2" opacity="0.42"/><circle cx="454.3" cy="286.2" r="3.8" fill="#FF7AA2" opacity="0.44"/><circle cx="522.1" cy="315.9" r="2.7" fill="#FF7AA2" opacity="0.34"/><circle cx="577.9" cy="359.9" r="2.8" fill="#FF7AA2" opacity="0.18"/><circle cx="622.9" cy="419.5" r="3.7" fill="#FF7AA2" opacity="0.42"/><circle cx="651.0" cy="489.0" r="3.4" fill="#FF7AA2" opacity="0.32"/>
  </g>

<g><g transform="translate(50,54)"><path d="M 18.0 117.0 C 45.0 45.0, 99.0 27.0, 153.0 54.0" fill="none" stroke="#FF7AA2" stroke-width="6" opacity="0.55" stroke-linecap="round"/></g><g transform="translate(700,54) scale(-1,1)"><path d="M 18.0 117.0 C 45.0 45.0, 99.0 27.0, 153.0 54.0" fill="none" stroke="#FF7AA2" stroke-width="6" opacity="0.55" stroke-linecap="round"/></g><g transform="translate(50,1196) scale(1,-1)"><path d="M 18.0 117.0 C 45.0 45.0, 99.0 27.0, 153.0 54.0" fill="none" stroke="#FF7AA2" stroke-width="6" opacity="0.55" stroke-linecap="round"/></g><g transform="translate(700,1196) scale(-1,-1)"><path d="M 18.0 117.0 C 45.0 45.0, 99.0 27.0, 153.0 54.0" fill="none" stroke="#FF7AA2" stroke-width="6" opacity="0.55" stroke-linecap="round"/></g></g></g>
<rect x="42" y="60" width="666" height="92" rx="30" fill="#ffffffcc" stroke="#1E1B2E" stroke-width="4" opacity="0.95"/>
<text x="375.0" y="122" font-family="ui-sans-serif, system-ui, -apple-system, Segoe UI, Roboto, Helvetica, Arial" font-size="30" font-weight="800" text-anchor="middle" fill="#1E1B2E" opacity="0.95" letter-spacing="1">MAJOR ARCANA • I</text>
<rect x="76" y="170" width="598" height="760" rx="52" fill="#ffffff" opacity="0.15"/>

        <g filter="url(#glow)">
          <path d="M 226.6 515.7 Q 343.7 587.1 595.7 526.8 Q 380.9 515.7 406.6 318.2 Q 324.7 615.5 368.0 610.7 Q 367.0 522.2 348.7 619.0 Q 403.3 540.4 285.8 530.7 Q 425.5 574.7 336.5 662.4 Q 306.9 521.0 305.9 704.4 Q 315.8 616.0 427.4 494.2 Q 404.9 565.2 552.8 601.2 Z" fill="none" stroke="#FF7AA2" stroke-width="5.5" opacity="0.55" stroke-linecap="round" stroke-linejoin="round"/>
          
        <g>
          <line x1="244.5" y1="625.9" x2="505.5" y2="504.1" stroke="#1E1B2E" stroke-width="12.6" stroke-linecap="round"/>
          <line x1="244.5" y1="625.9" x2="505.5" y2="504.1" stroke="#FF7AA2" stroke-width="5.4" stroke-linecap="round" opacity="0.55"/>
          
        <polygon points="505.5,504.1 470.8,496.0 455.7,527.4 489.4,535.9"
                 fill="#ffffff" stroke="#1E1B2E" stroke-width="5" opacity="0.92"/>
        
          <circle cx="244.5" cy="625.9" r="12.6" fill="#fff" stroke="#1E1B2E" stroke-width="5" opacity="0.9"/>
        </g>
        
        </g>
        
  <g opacity="0.35">
    <circle cx="375.0" cy="565" r="250" fill="none" stroke="#FF7AA2" stroke-width="4.2" opacity="0.35"/>
    <circle cx="375.0" cy="565" r="205.0" fill="none" stroke="#FF7AA2" stroke-width="2.2" opacity="0.19"/>
    <line x1="607.0" y1="565.0" x2="639.0" y2="565.0" stroke="#FF7AA2" stroke-width="3.2" opacity="0.19" stroke-linecap="round"/><line x1="575.9" y1="681.0" x2="603.6" y2="697.0" stroke="#FF7AA2" stroke-width="3.2" opacity="0.19" stroke-linecap="round"/><line x1="491.0" y1="765.9" x2="507.0" y2="793.6" stroke="#FF7AA2" stroke-width="3.2" opacity="0.19" stroke-linecap="round"/><line x1="375.0" y1="797.0" x2="375.0" y2="829.0" stroke="#FF7AA2" stroke-width="3.2" opacity="0.19" stroke-linecap="round"/><line x1="259.0" y1="765.9" x2="243.0" y2="793.6" stroke="#FF7AA2" stroke-width="3.2" opacity="0.19" stroke-linecap="round"/><line x1="174.1" y1="681.0" x2="146.4" y2="697.0" stroke="#FF7AA2" stroke-width="3.2" opacity="0.19" stroke-linecap="round"/><line x1="143.0" y1="565.0" x2="111.0" y2="565.0" stroke="#FF7AA2" stroke-width="3.2" opacity="0.19" stroke-linecap="round"/><line x1="174.1" y1="449.0" x2="146.4" y2="433.0" stroke="#FF7AA2" stroke-width="3.2" opacity="0.19" stroke-linecap="round"/><line x1="259.0" y1="364.1" x2="243.0" y2="336.4" stroke="#FF7AA2" stroke-width="3.2" opacity="0.19" stroke-linecap="round"/><line x1="375.0" y1="333.0" x2="375.0" y2="301.0" stroke="#FF7AA2" stroke-width="3.2" opacity="0.19" stroke-linecap="round"/><line x1="491.0" y1="364.1" x2="507.0" y2="336.4" stroke="#FF7AA2" stroke-width="3.2" opacity="0.19" stroke-linecap="round"/><line x1="575.9" y1="449.0" x2="603.6" y2="433.0" stroke="#FF7AA2" stroke-width="3.2" opacity="0.19" stroke-linecap="round"/>
    <circle cx="625.0" cy="560.3" r="2.9" fill="#FF7AA2" opacity="0.23"/><circle cx="618.0" cy="623.9" r="3.8" fill="#FF7AA2" opacity="0.37"/><circle cx="590.0" cy="692.6" r="3.0" fill="#FF7AA2" opacity="0.30"/><circle cx="546.8" cy="746.6" r="2.8" fill="#FF7AA2" opacity="0.43"/><circle cx="495.5" cy="784.0" r="3.0" fill="#FF7AA2" opacity="0.27"/><circle cx="443.8" cy="805.3" r="3.9" fill="#FF7AA2" opacity="0.26"/><circle cx="382.1" cy="814.9" r="4.0" fill="#FF7AA2" opacity="0.22"/><circle cx="303.4" cy="804.5" r="2.8" fill="#FF7AA2" opacity="0.24"/><circle cx="252.9" cy="783.1" r="3.2" fill="#FF7AA2" opacity="0.38"/><circle cx="193.2" cy="736.6" r="2.6" fill="#FF7AA2" opacity="0.24"/><circle cx="154.3" cy="682.5" r="3.8" fill="#FF7AA2" opacity="0.34"/><circle cx="132.4" cy="625.4" r="3.5" fill="#FF7AA2" opacity="0.44"/><circle cx="125.0" cy="560.5" r="3.7" fill="#FF7AA2" opacity="0.41"/><circle cx="133.7" cy="499.7" r="3.9" fill="#FF7AA2" opacity="0.39"/><circle cx="159.6" cy="438.1" r="3.1" fill="#FF7AA2" opacity="0.22"/><circle cx="192.4" cy="394.3" r="3.8" fill="#FF7AA2" opacity="0.42"/><circle cx="243.9" cy="352.1" r="3.6" fill="#FF7AA2" opacity="0.35"/><circle cx="304.7" cy="325.1" r="2.7" fill="#FF7AA2" opacity="0.18"/><circle cx="372.3" cy="315.0" r="2.9" fill="#FF7AA2" opacity="0.35"/><circle cx="445.8" cy="325.2" r="3.5" fill="#FF7AA2" opacity="0.24"/><circle cx="496.9" cy="346.7" r="2.6" fill="#FF7AA2" opacity="0.33"/><circle cx="546.5" cy="383.1" r="3.8" fill="#FF7AA2" opacity="0.26"/><circle cx="593.1" cy="442.8" r="2.7" fill="#FF7AA2" opacity="0.28"/><circle cx="616.3" cy="499.8" r="3.4" fill="#FF7AA2" opacity="0.29"/>
  </g>

        
<rect x="42" y="1030" width="666" height="160" rx="30" fill="#ffffffd9" stroke="#1E1B2E" stroke-width="4" opacity="0.95"/>
<text x="375.0" y="1104" font-family="ui-sans-serif, system-ui, -apple-system, Segoe UI, Roboto, Helvetica, Arial" font-size="46" font-weight="900" text-anchor="middle" fill="#1E1B2E" opacity="0.98">The Magician</text>
<text x="375.0" y="1152" font-family="ui-sans-serif, system-ui, -apple-system, Segoe UI, Roboto, Helvetica, Arial" font-size="28" font-weight="700" text-anchor="middle" fill="#1E1B2E" opacity="0.7">Spark</text>

    <g opacity="0.55">
      <circle cx="127" cy="1176" r="14" fill="#FF7AA2"/>
      <circle cx="623" cy="1176" r="14" fill="#FF7AA2"/>
      <path d="M 162 1176 L 588 1176" stroke="#FF7AA2" stroke-width="4" opacity="0.45" stroke-linecap="round"/>
    </g>
    
</svg>
