<svg xmlns="http://www.w3.org/2000/svg" width="750" height="1250" viewBox="0 0 750 1250">
  <title>The High Priestess</title>


  <defs>
    <linearGradient id="g" x1="0" y1="0" x2="1" y2="1">
      <stop offset="0%" stop-color="#F5FFE6"/>
      <stop offset="100%" stop-color="#E6E9FF"/>
    </linearGradient>

    <!-- paper texture -->
    <filter id="paper" x="-20%" y="-20%" width="140%" height="140%">
      <feTurbulence type="fractalNoise" baseFrequency="0.015" numOctaves="3" seed="1611" result="noise"/>
      <feColorMatrix in="noise" type="matrix"
        values="1 0 0 0 0
                0 1 0 0 0
                0 0 1 0 0
                0 0 0 0.25 0" result="noiseAlpha"/>
      <feComposite in="noiseAlpha" in2="SourceGraphic" operator="over"/>
    </filter>

    <!-- soft glow -->
    <filter id="glow" x="-30%" y="-30%" width="160%" height="160%">
      <feGaussianBlur stdDeviation="10" result="blur"/>
      <feColorMatrix type="matrix" values="
        1 0 0 0 0
        0 1 0 0 0
        0 0 1 0 0
        0 0 0 0.32 0" result="blurAlpha"/>
      <feMerge>
        <feMergeNode in="blurAlpha"/>
        <feMergeNode in="SourceGraphic"/>
      </feMerge>
    </filter>
  </defs>

<rect x="0" y="0" width="750" height="1250" rx="58" ry="58" fill="url(#g)" stroke="none" stroke-width="0" opacity="1"/>
<rect x="0" y="0" width="750" height="1250" fill="#ffffff" opacity="0.08"/>
<line x1="127.4" y1="569.4" x2="179.2" y2="296.8" stroke="#ffffff" stroke-width="2.2" opacity="0.22"/>
<line x1="179.2" y1="296.8" x2="583.3" y2="1087.8" stroke="#ffffff" stroke-width="2.2" opacity="0.14"/>
<line x1="583.3" y1="1087.8" x2="494.2" y2="730.8" stroke="#ffffff" stroke-width="2.2" opacity="0.19"/>
<line x1="494.2" y1="730.8" x2="473.0" y2="817.2" stroke="#ffffff" stroke-width="2.2" opacity="0.14"/>
<line x1="473.0" y1="817.2" x2="315.5" y2="300.8" stroke="#ffffff" stroke-width="2.2" opacity="0.13"/>
<line x1="315.5" y1="300.8" x2="335.7" y2="986.0" stroke="#ffffff" stroke-width="2.2" opacity="0.14"/>
<line x1="335.7" y1="986.0" x2="63.4" y2="185.9" stroke="#ffffff" stroke-width="2.2" opacity="0.19"/>
<line x1="63.4" y1="185.9" x2="199.4" y2="832.1" stroke="#ffffff" stroke-width="2.2" opacity="0.12"/>
<line x1="199.4" y1="832.1" x2="212.9" y2="834.8" stroke="#ffffff" stroke-width="2.2" opacity="0.21"/>
<line x1="212.9" y1="834.8" x2="581.1" y2="993.0" stroke="#ffffff" stroke-width="2.2" opacity="0.21"/>
<line x1="581.1" y1="993.0" x2="333.3" y2="321.0" stroke="#ffffff" stroke-width="2.2" opacity="0.16"/>
<line x1="333.3" y1="321.0" x2="424.3" y2="273.4" stroke="#ffffff" stroke-width="2.2" opacity="0.21"/>
<line x1="424.3" y1="273.4" x2="387.1" y2="818.3" stroke="#ffffff" stroke-width="2.2" opacity="0.15"/>
<line x1="387.1" y1="818.3" x2="77.9" y2="169.3" stroke="#ffffff" stroke-width="2.2" opacity="0.21"/>
<line x1="77.9" y1="169.3" x2="117.9" y2="704.4" stroke="#ffffff" stroke-width="2.2" opacity="0.20"/>
<line x1="117.9" y1="704.4" x2="168.4" y2="114.0" stroke="#ffffff" stroke-width="2.2" opacity="0.13"/>
<line x1="168.4" y1="114.0" x2="639.6" y2="214.0" stroke="#ffffff" stroke-width="2.2" opacity="0.17"/>
<line x1="639.6" y1="214.0" x2="574.3" y2="860.6" stroke="#ffffff" stroke-width="2.2" opacity="0.16"/>
<circle cx="130.3" cy="72.9" r="3.6" fill="#ffffff" opacity="0.7860230895727734"/>
<circle cx="473.0" cy="817.2" r="3.0" fill="#ffffff" opacity="0.36018827135194104"/>
<circle cx="450.8" cy="775.0" r="4.6" fill="#ffffff" opacity="0.5294285725421852"/>
<circle cx="588.5" cy="835.3" r="2.5" fill="#ffffff" opacity="0.5268487109363993"/>
<circle cx="624.5" cy="349.4" r="2.0" fill="#ffffff" opacity="0.8365383921868592"/>
<circle cx="383.1" cy="217.7" r="2.7" fill="#ffffff" opacity="0.4560271485756868"/>
<circle cx="179.2" cy="296.8" r="4.8" fill="#ffffff" opacity="0.5660558483683612"/>
<circle cx="315.5" cy="300.8" r="2.0" fill="#ffffff" opacity="0.5905967666963706"/>
<circle cx="583.3" cy="1087.8" r="2.8" fill="#ffffff" opacity="0.4840056855556692"/>
<circle cx="305.4" cy="381.6" r="4.0" fill="#ffffff" opacity="0.7792530975576827"/>
<circle cx="473.7" cy="1154.9" r="1.7" fill="#ffffff" opacity="0.5601117936554454"/>
<circle cx="351.8" cy="46.8" r="2.2" fill="#ffffff" opacity="0.7905198383930573"/>
<circle cx="370.5" cy="921.8" r="4.2" fill="#ffffff" opacity="0.7158486027863112"/>
<circle cx="212.9" cy="834.8" r="2.1" fill="#ffffff" opacity="0.5132411141635833"/>
<circle cx="177.5" cy="899.3" r="1.8" fill="#ffffff" opacity="0.7211729788847764"/>
<circle cx="103.5" cy="230.5" r="2.4" fill="#ffffff" opacity="0.8358400296804813"/>
<circle cx="520.9" cy="825.5" r="2.3" fill="#ffffff" opacity="0.753146802704726"/>
<circle cx="63.4" cy="185.9" r="2.2" fill="#ffffff" opacity="0.8109258460000683"/>
<circle cx="561.8" cy="183.1" r="3.8" fill="#ffffff" opacity="0.6192110472416918"/>
<circle cx="127.4" cy="569.4" r="2.7" fill="#ffffff" opacity="0.7181596393683968"/>
<circle cx="518.3" cy="943.4" r="3.9" fill="#ffffff" opacity="0.799535307508827"/>
<circle cx="494.2" cy="730.8" r="2.9" fill="#ffffff" opacity="0.7918105758497614"/>
<circle cx="335.7" cy="986.0" r="1.8" fill="#ffffff" opacity="0.7247406224415217"/>
<circle cx="704.3" cy="509.1" r="2.4" fill="#ffffff" opacity="0.655324957106876"/>
<circle cx="268.5" cy="191.4" r="3.8" fill="#ffffff" opacity="0.6637375708768821"/>
<circle cx="639.6" cy="214.0" r="1.8" fill="#ffffff" opacity="0.674328665613646"/>
<circle cx="42.2" cy="517.5" r="1.7" fill="#ffffff" opacity="0.5277835998552453"/>
<circle cx="113.5" cy="534.5" r="3.2" fill="#ffffff" opacity="0.41188675998755514"/>
<circle cx="572.3" cy="1156.7" r="2.8" fill="#ffffff" opacity="0.5848530484623502"/>
<circle cx="424.3" cy="273.4" r="1.8" fill="#ffffff" opacity="0.616061122194755"/>
<circle cx="96.1" cy="748.8" r="1.9" fill="#ffffff" opacity="0.7055542052522168"/>
<circle cx="579.9" cy="516.2" r="2.0" fill="#ffffff" opacity="0.36548000941986525"/>
<circle cx="664.9" cy="387.8" r="3.1" fill="#ffffff" opacity="0.5218699630610724"/>
<circle cx="77.9" cy="169.3" r="2.2" fill="#ffffff" opacity="0.7562485573216844"/>
<circle cx="199.4" cy="832.1" r="3.8" fill="#ffffff" opacity="0.550570502541289"/>
<circle cx="457.8" cy="543.4" r="2.7" fill="#ffffff" opacity="0.6663250863265155"/>
<circle cx="168.4" cy="114.0" r="3.4" fill="#ffffff" opacity="0.2982519895701163"/>
<circle cx="117.9" cy="704.4" r="2.1" fill="#ffffff" opacity="0.6958147850975015"/>
<circle cx="408.1" cy="387.7" r="2.4" fill="#ffffff" opacity="0.7047202864741255"/>
<circle cx="333.3" cy="321.0" r="1.7" fill="#ffffff" opacity="0.8327780012469176"/>
<circle cx="574.3" cy="860.6" r="4.7" fill="#ffffff" opacity="0.8090361201627225"/>
<circle cx="318.4" cy="1130.6" r="1.7" fill="#ffffff" opacity="0.8393528530871232"/>
<circle cx="669.3" cy="478.4" r="1.6" fill="#ffffff" opacity="0.3620722839773646"/>
<circle cx="62.6" cy="749.6" r="2.7" fill="#ffffff" opacity="0.7550149130976407"/>
<circle cx="205.9" cy="428.9" r="3.4" fill="#ffffff" opacity="0.46538672836649875"/>
<circle cx="69.2" cy="750.9" r="3.9" fill="#ffffff" opacity="0.5721357304264438"/>
<circle cx="382.6" cy="409.4" r="2.7" fill="#ffffff" opacity="0.4001891535990749"/>
<circle cx="348.6" cy="472.6" r="2.2" fill="#ffffff" opacity="0.7005588450498775"/>
<circle cx="387.1" cy="818.3" r="3.9" fill="#ffffff" opacity="0.7661254022506774"/>
<circle cx="581.1" cy="993.0" r="4.1" fill="#ffffff" opacity="0.2754089266619417"/>
<g filter="url(#paper)"><rect x="42" y="42" width="666" height="1166" rx="54" ry="54" fill="none" stroke="#1E1B2E" stroke-width="8" opacity="0.95"/>
<rect x="60" y="60" width="630" height="1130" rx="46" ry="46" fill="none" stroke="#2F80ED" stroke-width="3" opacity="0.35"/>

  <g opacity="0.42">
    <circle cx="375.0" cy="560" r="285" fill="none" stroke="#2F80ED" stroke-width="4.2" opacity="0.42"/>
    <circle cx="375.0" cy="560" r="233.7" fill="none" stroke="#2F80ED" stroke-width="2.2" opacity="0.23"/>
    <line x1="642.0" y1="560.0" x2="674.0" y2="560.0" stroke="#2F80ED" stroke-width="3.2" opacity="0.23" stroke-linecap="round"/><line x1="606.2" y1="693.5" x2="633.9" y2="709.5" stroke="#2F80ED" stroke-width="3.2" opacity="0.23" stroke-linecap="round"/><line x1="508.5" y1="791.2" x2="524.5" y2="818.9" stroke="#2F80ED" stroke-width="3.2" opacity="0.23" stroke-linecap="round"/><line x1="375.0" y1="827.0" x2="375.0" y2="859.0" stroke="#2F80ED" stroke-width="3.2" opacity="0.23" stroke-linecap="round"/><line x1="241.5" y1="791.2" x2="225.5" y2="818.9" stroke="#2F80ED" stroke-width="3.2" opacity="0.23" stroke-linecap="round"/><line x1="143.8" y1="693.5" x2="116.1" y2="709.5" stroke="#2F80ED" stroke-width="3.2" opacity="0.23" stroke-linecap="round"/><line x1="108.0" y1="560.0" x2="76.0" y2="560.0" stroke="#2F80ED" stroke-width="3.2" opacity="0.23" stroke-linecap="round"/><line x1="143.8" y1="426.5" x2="116.1" y2="410.5" stroke="#2F80ED" stroke-width="3.2" opacity="0.23" stroke-linecap="round"/><line x1="241.5" y1="328.8" x2="225.5" y2="301.1" stroke="#2F80ED" stroke-width="3.2" opacity="0.23" stroke-linecap="round"/><line x1="375.0" y1="293.0" x2="375.0" y2="261.0" stroke="#2F80ED" stroke-width="3.2" opacity="0.23" stroke-linecap="round"/><line x1="508.5" y1="328.8" x2="524.5" y2="301.1" stroke="#2F80ED" stroke-width="3.2" opacity="0.23" stroke-linecap="round"/><line x1="606.2" y1="426.5" x2="633.9" y2="410.5" stroke="#2F80ED" stroke-width="3.2" opacity="0.23" stroke-linecap="round"/>
    <circle cx="659.9" cy="554.2" r="2.9" fill="#2F80ED" opacity="0.30"/><circle cx="648.8" cy="639.1" r="3.7" fill="#2F80ED" opacity="0.27"/><circle cx="617.9" cy="709.1" r="3.1" fill="#2F80ED" opacity="0.38"/><circle cx="577.5" cy="760.5" r="3.6" fill="#2F80ED" opacity="0.44"/><circle cx="508.8" cy="811.6" r="3.8" fill="#2F80ED" opacity="0.18"/><circle cx="450.2" cy="834.9" r="2.8" fill="#2F80ED" opacity="0.31"/><circle cx="382.3" cy="844.9" r="3.1" fill="#2F80ED" opacity="0.30"/><circle cx="297.0" cy="834.1" r="3.4" fill="#2F80ED" opacity="0.22"/><circle cx="225.7" cy="802.8" r="2.7" fill="#2F80ED" opacity="0.26"/><circle cx="166.7" cy="754.5" r="3.3" fill="#2F80ED" opacity="0.29"/><circle cx="123.7" cy="694.5" r="2.9" fill="#2F80ED" opacity="0.43"/><circle cx="99.3" cy="632.2" r="2.9" fill="#2F80ED" opacity="0.23"/><circle cx="90.0" cy="559.0" r="3.9" fill="#2F80ED" opacity="0.25"/><circle cx="97.6" cy="494.7" r="3.6" fill="#2F80ED" opacity="0.44"/><circle cx="123.5" cy="425.9" r="3.0" fill="#2F80ED" opacity="0.32"/><circle cx="175.3" cy="356.7" r="3.9" fill="#2F80ED" opacity="0.18"/><circle cx="236.6" cy="310.8" r="2.6" fill="#2F80ED" opacity="0.19"/><circle cx="308.7" cy="282.8" r="3.3" fill="#2F80ED" opacity="0.25"/><circle cx="384.4" cy="275.2" r="2.6" fill="#2F80ED" opacity="0.42"/><circle cx="453.2" cy="285.9" r="3.5" fill="#2F80ED" opacity="0.31"/><circle cx="521.8" cy="315.7" r="3.9" fill="#2F80ED" opacity="0.41"/><circle cx="575.7" cy="357.6" r="3.5" fill="#2F80ED" opacity="0.19"/><circle cx="625.7" cy="424.5" r="4.0" fill="#2F80ED" opacity="0.37"/><circle cx="651.1" cy="489.2" r="2.9" fill="#2F80ED" opacity="0.42"/>
  </g>

<g><g transform="translate(50,54)"><path d="M 32.4 126.0 C 63.0 54.0, 111.6 32.4, 158.4 39.6" fill="none" stroke="#2F80ED" stroke-width="6" opacity="0.55" stroke-linecap="round"/></g><g transform="translate(700,54) scale(-1,1)"><path d="M 32.4 126.0 C 63.0 54.0, 111.6 32.4, 158.4 39.6" fill="none" stroke="#2F80ED" stroke-width="6" opacity="0.55" stroke-linecap="round"/></g><g transform="translate(50,1196) scale(1,-1)"><path d="M 32.4 126.0 C 63.0 54.0, 111.6 32.4, 158.4 39.6" fill="none" stroke="#2F80ED" stroke-width="6" opacity="0.55" stroke-linecap="round"/></g><g transform="translate(700,1196) scale(-1,-1)"><path d="M 32.4 126.0 C 63.0 54.0, 111.6 32.4, 158.4 39.6" fill="none" stroke="#2F80ED" stroke-width="6" opacity="0.55" stroke-linecap="round"/></g></g></g>
<rect x="42" y="60" width="666" height="92" rx="30" fill="#ffffffcc" stroke="#1E1B2E" stroke-width="4" opacity="0.95"/>
<text x="375.0" y="122" font-family="ui-sans-serif, system-ui, -apple-system, Segoe UI, Roboto, Helvetica, Arial" font-size="30" font-weight="800" text-anchor="middle" fill="#1E1B2E" opacity="0.95" letter-spacing="1">MAJOR ARCANA • II</text>
<rect x="76" y="170" width="598" height="760" rx="52" fill="#ffffff" opacity="0.15"/>

        <g opacity='0.9'><circle cx="165.0" cy="375" r="18" fill="none" stroke="#2F80ED" stroke-width="4" opacity="0.30"/><circle cx="151.0" cy="375" r="16.6" fill="#2F80ED" opacity="0.16"/><circle cx="235.0" cy="375" r="18" fill="none" stroke="#2F80ED" stroke-width="4" opacity="0.30"/><circle cx="225.7" cy="375" r="16.6" fill="#2F80ED" opacity="0.13"/><circle cx="305.0" cy="375" r="18" fill="none" stroke="#2F80ED" stroke-width="4" opacity="0.30"/><circle cx="300.3" cy="375" r="16.6" fill="#2F80ED" opacity="0.09"/><circle cx="375.0" cy="375" r="18" fill="none" stroke="#2F80ED" stroke-width="4" opacity="0.30"/><circle cx="375.0" cy="375" r="16.6" fill="#2F80ED" opacity="0.06"/><circle cx="445.0" cy="375" r="18" fill="none" stroke="#2F80ED" stroke-width="4" opacity="0.30"/><circle cx="449.7" cy="375" r="16.6" fill="#2F80ED" opacity="0.09"/><circle cx="515.0" cy="375" r="18" fill="none" stroke="#2F80ED" stroke-width="4" opacity="0.30"/><circle cx="524.3" cy="375" r="16.6" fill="#2F80ED" opacity="0.13"/><circle cx="585.0" cy="375" r="18" fill="none" stroke="#2F80ED" stroke-width="4" opacity="0.30"/><circle cx="599.0" cy="375" r="16.6" fill="#2F80ED" opacity="0.16"/></g>
        <g filter="url(#glow)">
          <path d="M 505.0 335 A 190 190 0 1 0 505.0 795 A 130 130 0 1 1 505.0 335 Z"
                fill="#ffffff" opacity="0.62" stroke="#2F80ED" stroke-width="6"/>
        </g>
        <rect x="165.0" y="725" width="420" height="130" rx="34" fill="#ffffff" opacity="0.55" stroke="#1E1B2E" stroke-width="6"/>
        <path d="M 246.8 746.5 Q 419.5 600.2 391.1 684.8 Q 387.8 640.1 342.9 733.0 Q 338.6 591.7 472.5 687.9 Q 389.6 675.6 302.4 440.3 Q 413.1 609.8 420.1 730.8 Q 327.5 655.9 421.7 795.1 Q 316.1 615.6 264.2 673.3 Q 347.1 664.0 389.4 574.0 " fill="none" stroke="#2F80ED" stroke-width="5.5" opacity="0.40" stroke-linecap="round" stroke-linejoin="round"/>
        
<rect x="42" y="1030" width="666" height="160" rx="30" fill="#ffffffd9" stroke="#1E1B2E" stroke-width="4" opacity="0.95"/>
<text x="375.0" y="1104" font-family="ui-sans-serif, system-ui, -apple-system, Segoe UI, Roboto, Helvetica, Arial" font-size="46" font-weight="900" text-anchor="middle" fill="#1E1B2E" opacity="0.98">The High Priestess</text>
<text x="375.0" y="1152" font-family="ui-sans-serif, system-ui, -apple-system, Segoe UI, Roboto, Helvetica, Arial" font-size="28" font-weight="700" text-anchor="middle" fill="#1E1B2E" opacity="0.7">Intuition</text>

    <g opacity="0.55">
      <circle cx="127" cy="1176" r="14" fill="#2F80ED"/>
      <circle cx="623" cy="1176" r="14" fill="#2F80ED"/>
      <path d="M 162 1176 L 588 1176" stroke="#2F80ED" stroke-width="4" opacity="0.45" stroke-linecap="round"/>
    </g>
    
</svg>
