<svg xmlns="http://www.w3.org/2000/svg" width="750" height="1250" viewBox="0 0 750 1250">
  <title>The Empress</title>


  <defs>
    <linearGradient id="g" x1="0" y1="0" x2="1" y2="1">
      <stop offset="0%" stop-color="#FFF7CC"/>
      <stop offset="100%" stop-color="#E6FBFF"/>
    </linearGradient>

    <!-- paper texture -->
    <filter id="paper" x="-20%" y="-20%" width="140%" height="140%">
      <feTurbulence type="fractalNoise" baseFrequency="0.019" numOctaves="3" seed="8175" result="noise"/>
      <feColorMatrix in="noise" type="matrix"
        values="1 0 0 0 0
                0 1 0 0 0
                0 0 1 0 0
                0 0 0 0.25 0" result="noiseAlpha"/>
      <feComposite in="noiseAlpha" in2="SourceGraphic" operator="over"/>
    </filter>

    <!-- soft glow -->
    <filter id="glow" x="-30%" y="-30%" width="160%" height="160%">
      <feGaussianBlur stdDeviation="10" result="blur"/>
      <feColorMatrix type="matrix" values="
        1 0 0 0 0
        0 1 0 0 0
        0 0 1 0 0
        0 0 0 0.32 0" result="blurAlpha"/>
      <feMerge>
        <feMergeNode in="blurAlpha"/>
        <feMergeNode in="SourceGraphic"/>
      </feMerge>
    </filter>
  </defs>

<rect x="0" y="0" width="750" height="1250" rx="58" ry="58" fill="url(#g)" stroke="none" stroke-width="0" opacity="1"/>
<rect x="0" y="0" width="750" height="1250" fill="#ffffff" opacity="0.08"/>
<line x1="145.6" y1="1206.5" x2="95.1" y2="851.1" stroke="#ffffff" stroke-width="2.2" opacity="0.08"/>
<line x1="95.1" y1="851.1" x2="528.7" y2="1130.9" stroke="#ffffff" stroke-width="2.2" opacity="0.11"/>
<line x1="528.7" y1="1130.9" x2="421.4" y2="858.0" stroke="#ffffff" stroke-width="2.2" opacity="0.13"/>
<line x1="421.4" y1="858.0" x2="268.1" y2="371.1" stroke="#ffffff" stroke-width="2.2" opacity="0.15"/>
<line x1="268.1" y1="371.1" x2="558.7" y2="44.6" stroke="#ffffff" stroke-width="2.2" opacity="0.14"/>
<line x1="558.7" y1="44.6" x2="243.7" y2="192.8" stroke="#ffffff" stroke-width="2.2" opacity="0.22"/>
<line x1="243.7" y1="192.8" x2="293.2" y2="344.3" stroke="#ffffff" stroke-width="2.2" opacity="0.13"/>
<line x1="293.2" y1="344.3" x2="191.7" y2="547.6" stroke="#ffffff" stroke-width="2.2" opacity="0.14"/>
<line x1="191.7" y1="547.6" x2="165.4" y2="698.9" stroke="#ffffff" stroke-width="2.2" opacity="0.16"/>
<line x1="165.4" y1="698.9" x2="367.9" y2="461.1" stroke="#ffffff" stroke-width="2.2" opacity="0.12"/>
<line x1="367.9" y1="461.1" x2="488.6" y2="592.7" stroke="#ffffff" stroke-width="2.2" opacity="0.13"/>
<line x1="488.6" y1="592.7" x2="382.8" y2="550.5" stroke="#ffffff" stroke-width="2.2" opacity="0.09"/>
<line x1="382.8" y1="550.5" x2="499.2" y2="686.2" stroke="#ffffff" stroke-width="2.2" opacity="0.11"/>
<line x1="499.2" y1="686.2" x2="331.4" y2="430.5" stroke="#ffffff" stroke-width="2.2" opacity="0.10"/>
<line x1="331.4" y1="430.5" x2="689.1" y2="666.6" stroke="#ffffff" stroke-width="2.2" opacity="0.10"/>
<line x1="689.1" y1="666.6" x2="640.9" y2="519.4" stroke="#ffffff" stroke-width="2.2" opacity="0.15"/>
<line x1="640.9" y1="519.4" x2="68.8" y2="210.6" stroke="#ffffff" stroke-width="2.2" opacity="0.09"/>
<line x1="68.8" y1="210.6" x2="147.8" y2="1179.2" stroke="#ffffff" stroke-width="2.2" opacity="0.15"/>
<circle cx="230.1" cy="1204.4" r="4.1" fill="#ffffff" opacity="0.521197693011065"/>
<circle cx="558.7" cy="44.6" r="4.0" fill="#ffffff" opacity="0.751412229915588"/>
<circle cx="235.5" cy="637.1" r="2.9" fill="#ffffff" opacity="0.3756885262880967"/>
<circle cx="623.8" cy="327.1" r="4.1" fill="#ffffff" opacity="0.2759769413046793"/>
<circle cx="539.4" cy="905.3" r="3.7" fill="#ffffff" opacity="0.5947458230136948"/>
<circle cx="191.7" cy="547.6" r="4.4" fill="#ffffff" opacity="0.2711605757583145"/>
<circle cx="568.3" cy="820.5" r="2.1" fill="#ffffff" opacity="0.6805075927841326"/>
<circle cx="431.1" cy="466.5" r="4.6" fill="#ffffff" opacity="0.4869353059449991"/>
<circle cx="97.7" cy="189.7" r="2.5" fill="#ffffff" opacity="0.2578976698036124"/>
<circle cx="293.2" cy="344.3" r="3.0" fill="#ffffff" opacity="0.7493941279125399"/>
<circle cx="421.4" cy="858.0" r="2.7" fill="#ffffff" opacity="0.2739115184054271"/>
<circle cx="341.8" cy="1006.1" r="3.6" fill="#ffffff" opacity="0.6797585888342249"/>
<circle cx="165.4" cy="698.9" r="2.4" fill="#ffffff" opacity="0.7386345193309378"/>
<circle cx="152.6" cy="805.3" r="3.3" fill="#ffffff" opacity="0.7433430020483904"/>
<circle cx="640.9" cy="519.4" r="2.8" fill="#ffffff" opacity="0.30349598608454514"/>
<circle cx="247.6" cy="578.4" r="3.4" fill="#ffffff" opacity="0.49532317385699487"/>
<circle cx="247.7" cy="778.9" r="1.8" fill="#ffffff" opacity="0.7447056488388895"/>
<circle cx="274.6" cy="972.7" r="4.2" fill="#ffffff" opacity="0.6265487325454537"/>
<circle cx="246.6" cy="668.7" r="4.2" fill="#ffffff" opacity="0.27177396491287503"/>
<circle cx="68.8" cy="210.6" r="2.1" fill="#ffffff" opacity="0.6369864565619361"/>
<circle cx="447.7" cy="1184.1" r="2.6" fill="#ffffff" opacity="0.8099870242441312"/>
<circle cx="298.4" cy="794.5" r="4.6" fill="#ffffff" opacity="0.2750949872187845"/>
<circle cx="305.3" cy="535.5" r="2.0" fill="#ffffff" opacity="0.2830609007874145"/>
<circle cx="556.9" cy="859.6" r="3.1" fill="#ffffff" opacity="0.3710286330615884"/>
<circle cx="595.9" cy="197.2" r="4.2" fill="#ffffff" opacity="0.5635352264721694"/>
<circle cx="488.6" cy="592.7" r="4.8" fill="#ffffff" opacity="0.36420200241394746"/>
<circle cx="367.9" cy="461.1" r="4.4" fill="#ffffff" opacity="0.5687836902906092"/>
<circle cx="528.7" cy="1130.9" r="2.0" fill="#ffffff" opacity="0.29659509397194744"/>
<circle cx="243.7" cy="192.8" r="4.2" fill="#ffffff" opacity="0.6865173882094826"/>
<circle cx="689.1" cy="666.6" r="3.3" fill="#ffffff" opacity="0.693470626783888"/>
<circle cx="382.6" cy="731.3" r="2.2" fill="#ffffff" opacity="0.45671736651115324"/>
<circle cx="147.8" cy="1179.2" r="3.2" fill="#ffffff" opacity="0.7008450458025475"/>
<circle cx="321.8" cy="1185.1" r="3.5" fill="#ffffff" opacity="0.47928377203184136"/>
<circle cx="135.5" cy="913.2" r="3.4" fill="#ffffff" opacity="0.643623024853737"/>
<circle cx="331.4" cy="430.5" r="3.0" fill="#ffffff" opacity="0.2543100203512303"/>
<circle cx="164.1" cy="868.6" r="1.7" fill="#ffffff" opacity="0.797003477921291"/>
<circle cx="637.7" cy="64.4" r="2.0" fill="#ffffff" opacity="0.39873179552732635"/>
<circle cx="603.9" cy="370.7" r="3.0" fill="#ffffff" opacity="0.3461633350776181"/>
<circle cx="145.6" cy="1206.5" r="3.9" fill="#ffffff" opacity="0.6165045465674989"/>
<circle cx="539.7" cy="613.1" r="4.2" fill="#ffffff" opacity="0.2954184815231509"/>
<circle cx="587.6" cy="868.4" r="1.9" fill="#ffffff" opacity="0.6269452847334489"/>
<circle cx="226.1" cy="392.4" r="2.5" fill="#ffffff" opacity="0.7846776348943069"/>
<circle cx="268.1" cy="371.1" r="3.5" fill="#ffffff" opacity="0.7473289165933754"/>
<circle cx="619.6" cy="613.4" r="3.8" fill="#ffffff" opacity="0.7679781492009508"/>
<circle cx="382.8" cy="550.5" r="2.9" fill="#ffffff" opacity="0.27430293312064813"/>
<circle cx="691.1" cy="620.2" r="4.3" fill="#ffffff" opacity="0.6217077254229646"/>
<circle cx="499.2" cy="686.2" r="4.8" fill="#ffffff" opacity="0.2802800995483725"/>
<circle cx="228.9" cy="809.6" r="3.0" fill="#ffffff" opacity="0.7196136642458997"/>
<circle cx="95.1" cy="851.1" r="1.9" fill="#ffffff" opacity="0.5800520804912352"/>
<circle cx="355.6" cy="789.7" r="4.0" fill="#ffffff" opacity="0.31225669004807066"/>
<g filter="url(#paper)"><rect x="42" y="42" width="666" height="1166" rx="54" ry="54" fill="none" stroke="#1E1B2E" stroke-width="8" opacity="0.95"/>
<rect x="60" y="60" width="630" height="1130" rx="46" ry="46" fill="none" stroke="#F25F4C" stroke-width="3" opacity="0.35"/>

  <g opacity="0.42">
    <circle cx="375.0" cy="560" r="285" fill="none" stroke="#F25F4C" stroke-width="4.2" opacity="0.42"/>
    <circle cx="375.0" cy="560" r="233.7" fill="none" stroke="#F25F4C" stroke-width="2.2" opacity="0.23"/>
    <line x1="642.0" y1="560.0" x2="674.0" y2="560.0" stroke="#F25F4C" stroke-width="3.2" opacity="0.23" stroke-linecap="round"/><line x1="606.2" y1="693.5" x2="633.9" y2="709.5" stroke="#F25F4C" stroke-width="3.2" opacity="0.23" stroke-linecap="round"/><line x1="508.5" y1="791.2" x2="524.5" y2="818.9" stroke="#F25F4C" stroke-width="3.2" opacity="0.23" stroke-linecap="round"/><line x1="375.0" y1="827.0" x2="375.0" y2="859.0" stroke="#F25F4C" stroke-width="3.2" opacity="0.23" stroke-linecap="round"/><line x1="241.5" y1="791.2" x2="225.5" y2="818.9" stroke="#F25F4C" stroke-width="3.2" opacity="0.23" stroke-linecap="round"/><line x1="143.8" y1="693.5" x2="116.1" y2="709.5" stroke="#F25F4C" stroke-width="3.2" opacity="0.23" stroke-linecap="round"/><line x1="108.0" y1="560.0" x2="76.0" y2="560.0" stroke="#F25F4C" stroke-width="3.2" opacity="0.23" stroke-linecap="round"/><line x1="143.8" y1="426.5" x2="116.1" y2="410.5" stroke="#F25F4C" stroke-width="3.2" opacity="0.23" stroke-linecap="round"/><line x1="241.5" y1="328.8" x2="225.5" y2="301.1" stroke="#F25F4C" stroke-width="3.2" opacity="0.23" stroke-linecap="round"/><line x1="375.0" y1="293.0" x2="375.0" y2="261.0" stroke="#F25F4C" stroke-width="3.2" opacity="0.23" stroke-linecap="round"/><line x1="508.5" y1="328.8" x2="524.5" y2="301.1" stroke="#F25F4C" stroke-width="3.2" opacity="0.23" stroke-linecap="round"/><line x1="606.2" y1="426.5" x2="633.9" y2="410.5" stroke="#F25F4C" stroke-width="3.2" opacity="0.23" stroke-linecap="round"/>
    <circle cx="660.0" cy="559.9" r="3.2" fill="#F25F4C" opacity="0.35"/><circle cx="650.8" cy="631.7" r="3.1" fill="#F25F4C" opacity="0.29"/><circle cx="622.0" cy="702.3" r="3.6" fill="#F25F4C" opacity="0.43"/><circle cx="574.8" cy="763.2" r="2.9" fill="#F25F4C" opacity="0.29"/><circle cx="512.1" cy="809.9" r="3.3" fill="#F25F4C" opacity="0.20"/><circle cx="458.1" cy="832.6" r="3.0" fill="#F25F4C" opacity="0.42"/><circle cx="371.3" cy="845.0" r="3.3" fill="#F25F4C" opacity="0.20"/><circle cx="305.5" cy="836.4" r="2.9" fill="#F25F4C" opacity="0.37"/><circle cx="225.9" cy="802.9" r="3.8" fill="#F25F4C" opacity="0.25"/><circle cx="174.7" cy="762.8" r="3.0" fill="#F25F4C" opacity="0.33"/><circle cx="125.0" cy="696.8" r="3.8" fill="#F25F4C" opacity="0.43"/><circle cx="101.9" cy="641.4" r="2.7" fill="#F25F4C" opacity="0.43"/><circle cx="90.0" cy="565.3" r="2.8" fill="#F25F4C" opacity="0.35"/><circle cx="101.5" cy="479.9" r="2.6" fill="#F25F4C" opacity="0.27"/><circle cx="125.4" cy="422.4" r="2.7" fill="#F25F4C" opacity="0.22"/><circle cx="176.7" cy="355.3" r="2.8" fill="#F25F4C" opacity="0.35"/><circle cx="225.1" cy="317.6" r="3.0" fill="#F25F4C" opacity="0.39"/><circle cx="304.3" cy="283.9" r="3.7" fill="#F25F4C" opacity="0.32"/><circle cx="381.7" cy="275.1" r="3.8" fill="#F25F4C" opacity="0.26"/><circle cx="449.3" cy="284.9" r="2.9" fill="#F25F4C" opacity="0.31"/><circle cx="524.1" cy="317.1" r="2.7" fill="#F25F4C" opacity="0.43"/><circle cx="581.5" cy="363.6" r="3.6" fill="#F25F4C" opacity="0.20"/><circle cx="621.8" cy="417.4" r="3.6" fill="#F25F4C" opacity="0.26"/><circle cx="650.0" cy="485.2" r="3.9" fill="#F25F4C" opacity="0.21"/>
  </g>

<g><g transform="translate(50,54)"><path d="M 32.4 126.0 C 63.0 54.0, 111.6 32.4, 158.4 39.6" fill="none" stroke="#F25F4C" stroke-width="6" opacity="0.55" stroke-linecap="round"/></g><g transform="translate(700,54) scale(-1,1)"><path d="M 32.4 126.0 C 63.0 54.0, 111.6 32.4, 158.4 39.6" fill="none" stroke="#F25F4C" stroke-width="6" opacity="0.55" stroke-linecap="round"/></g><g transform="translate(50,1196) scale(1,-1)"><path d="M 32.4 126.0 C 63.0 54.0, 111.6 32.4, 158.4 39.6" fill="none" stroke="#F25F4C" stroke-width="6" opacity="0.55" stroke-linecap="round"/></g><g transform="translate(700,1196) scale(-1,-1)"><path d="M 32.4 126.0 C 63.0 54.0, 111.6 32.4, 158.4 39.6" fill="none" stroke="#F25F4C" stroke-width="6" opacity="0.55" stroke-linecap="round"/></g></g></g>
<rect x="42" y="60" width="666" height="92" rx="30" fill="#ffffffcc" stroke="#1E1B2E" stroke-width="4" opacity="0.95"/>
<text x="375.0" y="122" font-family="ui-sans-serif, system-ui, -apple-system, Segoe UI, Roboto, Helvetica, Arial" font-size="30" font-weight="800" text-anchor="middle" fill="#1E1B2E" opacity="0.95" letter-spacing="1">MAJOR ARCANA • III</text>
<rect x="76" y="170" width="598" height="760" rx="52" fill="#ffffff" opacity="0.15"/>

        <g filter="url(#glow)">
          <path d="M 375.0 735
                   C 135.0 585, 205.0 345, 375.0 445
                   C 545.0 345, 615.0 585, 375.0 735 Z"
                fill="#ffffff" opacity="0.58" stroke="#F25F4C" stroke-width="6"/>
        </g>
        <g><path d="M 112.0 880 C 152.0 690 82.0 450 142.0 230" fill="none" stroke="#F25F4C" stroke-width="4" opacity="0.10" stroke-linecap="round"/><circle cx="132.0" cy="450.0" r="9" fill="#F25F4C" opacity="0.08"/><path d="M 202.0 880 C 242.0 690 172.0 450 232.0 230" fill="none" stroke="#F25F4C" stroke-width="4" opacity="0.10" stroke-linecap="round"/><circle cx="222.0" cy="450.0" r="9" fill="#F25F4C" opacity="0.08"/><path d="M 292.0 880 C 332.0 690 262.0 450 322.0 230" fill="none" stroke="#F25F4C" stroke-width="4" opacity="0.10" stroke-linecap="round"/><circle cx="312.0" cy="450.0" r="9" fill="#F25F4C" opacity="0.08"/><path d="M 382.0 880 C 422.0 690 352.0 450 412.0 230" fill="none" stroke="#F25F4C" stroke-width="4" opacity="0.10" stroke-linecap="round"/><circle cx="402.0" cy="450.0" r="9" fill="#F25F4C" opacity="0.08"/><path d="M 472.0 880 C 512.0 690 442.0 450 502.0 230" fill="none" stroke="#F25F4C" stroke-width="4" opacity="0.10" stroke-linecap="round"/><circle cx="492.0" cy="450.0" r="9" fill="#F25F4C" opacity="0.08"/><path d="M 562.0 880 C 602.0 690 532.0 450 592.0 230" fill="none" stroke="#F25F4C" stroke-width="4" opacity="0.10" stroke-linecap="round"/><circle cx="582.0" cy="450.0" r="9" fill="#F25F4C" opacity="0.08"/><path d="M 652.0 880 C 692.0 690 622.0 450 682.0 230" fill="none" stroke="#F25F4C" stroke-width="4" opacity="0.10" stroke-linecap="round"/><circle cx="672.0" cy="450.0" r="9" fill="#F25F4C" opacity="0.08"/></g>
        
  <g opacity="0.28">
    <circle cx="375.0" cy="565" r="250" fill="none" stroke="#F25F4C" stroke-width="4.2" opacity="0.28"/>
    <circle cx="375.0" cy="565" r="205.0" fill="none" stroke="#F25F4C" stroke-width="2.2" opacity="0.15"/>
    <line x1="607.0" y1="565.0" x2="639.0" y2="565.0" stroke="#F25F4C" stroke-width="3.2" opacity="0.15" stroke-linecap="round"/><line x1="575.9" y1="681.0" x2="603.6" y2="697.0" stroke="#F25F4C" stroke-width="3.2" opacity="0.15" stroke-linecap="round"/><line x1="491.0" y1="765.9" x2="507.0" y2="793.6" stroke="#F25F4C" stroke-width="3.2" opacity="0.15" stroke-linecap="round"/><line x1="375.0" y1="797.0" x2="375.0" y2="829.0" stroke="#F25F4C" stroke-width="3.2" opacity="0.15" stroke-linecap="round"/><line x1="259.0" y1="765.9" x2="243.0" y2="793.6" stroke="#F25F4C" stroke-width="3.2" opacity="0.15" stroke-linecap="round"/><line x1="174.1" y1="681.0" x2="146.4" y2="697.0" stroke="#F25F4C" stroke-width="3.2" opacity="0.15" stroke-linecap="round"/><line x1="143.0" y1="565.0" x2="111.0" y2="565.0" stroke="#F25F4C" stroke-width="3.2" opacity="0.15" stroke-linecap="round"/><line x1="174.1" y1="449.0" x2="146.4" y2="433.0" stroke="#F25F4C" stroke-width="3.2" opacity="0.15" stroke-linecap="round"/><line x1="259.0" y1="364.1" x2="243.0" y2="336.4" stroke="#F25F4C" stroke-width="3.2" opacity="0.15" stroke-linecap="round"/><line x1="375.0" y1="333.0" x2="375.0" y2="301.0" stroke="#F25F4C" stroke-width="3.2" opacity="0.15" stroke-linecap="round"/><line x1="491.0" y1="364.1" x2="507.0" y2="336.4" stroke="#F25F4C" stroke-width="3.2" opacity="0.15" stroke-linecap="round"/><line x1="575.9" y1="449.0" x2="603.6" y2="433.0" stroke="#F25F4C" stroke-width="3.2" opacity="0.15" stroke-linecap="round"/>
    <circle cx="625.0" cy="567.2" r="2.7" fill="#F25F4C" opacity="0.21"/><circle cx="618.1" cy="623.5" r="2.6" fill="#F25F4C" opacity="0.37"/><circle cx="587.6" cy="696.6" r="3.7" fill="#F25F4C" opacity="0.20"/><circle cx="552.0" cy="741.5" r="4.0" fill="#F25F4C" opacity="0.26"/><circle cx="507.2" cy="777.2" r="3.0" fill="#F25F4C" opacity="0.27"/><circle cx="446.1" cy="804.7" r="3.2" fill="#F25F4C" opacity="0.25"/><circle cx="381.0" cy="814.9" r="3.1" fill="#F25F4C" opacity="0.33"/><circle cx="318.6" cy="808.6" r="2.8" fill="#F25F4C" opacity="0.40"/><circle cx="249.2" cy="781.0" r="3.9" fill="#F25F4C" opacity="0.22"/><circle cx="204.2" cy="747.5" r="3.7" fill="#F25F4C" opacity="0.29"/><circle cx="154.7" cy="683.2" r="3.5" fill="#F25F4C" opacity="0.18"/><circle cx="133.0" cy="627.6" r="2.8" fill="#F25F4C" opacity="0.30"/><circle cx="125.2" cy="573.7" r="3.6" fill="#F25F4C" opacity="0.18"/><circle cx="131.6" cy="507.8" r="2.9" fill="#F25F4C" opacity="0.18"/><circle cx="159.6" cy="438.1" r="3.7" fill="#F25F4C" opacity="0.21"/><circle cx="201.2" cy="385.3" r="2.7" fill="#F25F4C" opacity="0.22"/><circle cx="247.1" cy="350.2" r="3.7" fill="#F25F4C" opacity="0.44"/><circle cx="315.1" cy="322.3" r="3.6" fill="#F25F4C" opacity="0.42"/><circle cx="372.0" cy="315.0" r="2.7" fill="#F25F4C" opacity="0.25"/><circle cx="445.2" cy="325.1" r="3.1" fill="#F25F4C" opacity="0.30"/><circle cx="507.5" cy="353.0" r="3.1" fill="#F25F4C" opacity="0.27"/><circle cx="550.6" cy="387.0" r="3.3" fill="#F25F4C" opacity="0.38"/><circle cx="593.0" cy="442.6" r="2.7" fill="#F25F4C" opacity="0.26"/><circle cx="614.1" cy="492.1" r="3.9" fill="#F25F4C" opacity="0.26"/>
  </g>

        
<rect x="42" y="1030" width="666" height="160" rx="30" fill="#ffffffd9" stroke="#1E1B2E" stroke-width="4" opacity="0.95"/>
<text x="375.0" y="1104" font-family="ui-sans-serif, system-ui, -apple-system, Segoe UI, Roboto, Helvetica, Arial" font-size="46" font-weight="900" text-anchor="middle" fill="#1E1B2E" opacity="0.98">The Empress</text>
<text x="375.0" y="1152" font-family="ui-sans-serif, system-ui, -apple-system, Segoe UI, Roboto, Helvetica, Arial" font-size="28" font-weight="700" text-anchor="middle" fill="#1E1B2E" opacity="0.7">Nurture</text>

    <g opacity="0.55">
      <circle cx="127" cy="1176" r="14" fill="#F25F4C"/>
      <circle cx="623" cy="1176" r="14" fill="#F25F4C"/>
      <path d="M 162 1176 L 588 1176" stroke="#F25F4C" stroke-width="4" opacity="0.45" stroke-linecap="round"/>
    </g>
    
</svg>
