<svg xmlns="http://www.w3.org/2000/svg" width="750" height="1250" viewBox="0 0 750 1250">
  <title>The Emperor</title>


  <defs>
    <linearGradient id="g" x1="0" y1="0" x2="1" y2="1">
      <stop offset="0%" stop-color="#FFE6F2"/>
      <stop offset="100%" stop-color="#E6F7FF"/>
    </linearGradient>

    <!-- paper texture -->
    <filter id="paper" x="-20%" y="-20%" width="140%" height="140%">
      <feTurbulence type="fractalNoise" baseFrequency="0.017" numOctaves="3" seed="5600" result="noise"/>
      <feColorMatrix in="noise" type="matrix"
        values="1 0 0 0 0
                0 1 0 0 0
                0 0 1 0 0
                0 0 0 0.25 0" result="noiseAlpha"/>
      <feComposite in="noiseAlpha" in2="SourceGraphic" operator="over"/>
    </filter>

    <!-- soft glow -->
    <filter id="glow" x="-30%" y="-30%" width="160%" height="160%">
      <feGaussianBlur stdDeviation="10" result="blur"/>
      <feColorMatrix type="matrix" values="
        1 0 0 0 0
        0 1 0 0 0
        0 0 1 0 0
        0 0 0 0.32 0" result="blurAlpha"/>
      <feMerge>
        <feMergeNode in="blurAlpha"/>
        <feMergeNode in="SourceGraphic"/>
      </feMerge>
    </filter>
  </defs>

<rect x="0" y="0" width="750" height="1250" rx="58" ry="58" fill="url(#g)" stroke="none" stroke-width="0" opacity="1"/>
<rect x="0" y="0" width="750" height="1250" fill="#ffffff" opacity="0.08"/>
<line x1="268.0" y1="297.3" x2="383.4" y2="885.7" stroke="#ffffff" stroke-width="2.2" opacity="0.19"/>
<line x1="383.4" y1="885.7" x2="676.5" y2="838.7" stroke="#ffffff" stroke-width="2.2" opacity="0.16"/>
<line x1="676.5" y1="838.7" x2="159.1" y2="1198.8" stroke="#ffffff" stroke-width="2.2" opacity="0.10"/>
<line x1="159.1" y1="1198.8" x2="677.4" y2="661.9" stroke="#ffffff" stroke-width="2.2" opacity="0.20"/>
<line x1="677.4" y1="661.9" x2="458.0" y2="425.4" stroke="#ffffff" stroke-width="2.2" opacity="0.15"/>
<line x1="458.0" y1="425.4" x2="268.2" y2="347.9" stroke="#ffffff" stroke-width="2.2" opacity="0.13"/>
<line x1="268.2" y1="347.9" x2="464.4" y2="133.2" stroke="#ffffff" stroke-width="2.2" opacity="0.12"/>
<line x1="464.4" y1="133.2" x2="344.1" y2="823.8" stroke="#ffffff" stroke-width="2.2" opacity="0.10"/>
<line x1="344.1" y1="823.8" x2="358.8" y2="428.1" stroke="#ffffff" stroke-width="2.2" opacity="0.13"/>
<line x1="358.8" y1="428.1" x2="412.8" y2="479.7" stroke="#ffffff" stroke-width="2.2" opacity="0.15"/>
<line x1="412.8" y1="479.7" x2="498.8" y2="127.1" stroke="#ffffff" stroke-width="2.2" opacity="0.13"/>
<line x1="498.8" y1="127.1" x2="455.3" y2="154.5" stroke="#ffffff" stroke-width="2.2" opacity="0.15"/>
<line x1="455.3" y1="154.5" x2="583.7" y2="665.5" stroke="#ffffff" stroke-width="2.2" opacity="0.08"/>
<line x1="583.7" y1="665.5" x2="637.1" y2="247.1" stroke="#ffffff" stroke-width="2.2" opacity="0.13"/>
<line x1="637.1" y1="247.1" x2="610.4" y2="1089.8" stroke="#ffffff" stroke-width="2.2" opacity="0.13"/>
<line x1="610.4" y1="1089.8" x2="625.1" y2="900.9" stroke="#ffffff" stroke-width="2.2" opacity="0.09"/>
<line x1="625.1" y1="900.9" x2="316.9" y2="859.0" stroke="#ffffff" stroke-width="2.2" opacity="0.11"/>
<line x1="316.9" y1="859.0" x2="689.9" y2="584.5" stroke="#ffffff" stroke-width="2.2" opacity="0.14"/>
<circle cx="108.8" cy="510.1" r="3.0" fill="#ffffff" opacity="0.285821632639918"/>
<circle cx="149.0" cy="212.3" r="4.0" fill="#ffffff" opacity="0.403573873520067"/>
<circle cx="272.0" cy="362.0" r="4.4" fill="#ffffff" opacity="0.6788262405697036"/>
<circle cx="265.8" cy="219.7" r="3.7" fill="#ffffff" opacity="0.4331961968201169"/>
<circle cx="268.2" cy="347.9" r="2.3" fill="#ffffff" opacity="0.31107104984276035"/>
<circle cx="563.6" cy="1048.3" r="2.1" fill="#ffffff" opacity="0.7426189995464574"/>
<circle cx="425.3" cy="594.3" r="2.6" fill="#ffffff" opacity="0.5011384316180046"/>
<circle cx="637.1" cy="247.1" r="3.9" fill="#ffffff" opacity="0.782532861376825"/>
<circle cx="186.2" cy="1176.1" r="1.9" fill="#ffffff" opacity="0.3331504192342168"/>
<circle cx="587.8" cy="1167.2" r="3.2" fill="#ffffff" opacity="0.2950187000751231"/>
<circle cx="200.4" cy="348.7" r="4.7" fill="#ffffff" opacity="0.7069393454456937"/>
<circle cx="245.0" cy="1179.7" r="2.3" fill="#ffffff" opacity="0.28394021583732176"/>
<circle cx="686.0" cy="196.6" r="3.1" fill="#ffffff" opacity="0.6844403163423749"/>
<circle cx="102.7" cy="389.2" r="4.0" fill="#ffffff" opacity="0.4441399647273835"/>
<circle cx="455.3" cy="154.5" r="3.7" fill="#ffffff" opacity="0.5104638134430707"/>
<circle cx="677.4" cy="661.9" r="3.1" fill="#ffffff" opacity="0.5197351824598915"/>
<circle cx="597.1" cy="266.7" r="4.5" fill="#ffffff" opacity="0.7255919653378623"/>
<circle cx="358.8" cy="428.1" r="2.5" fill="#ffffff" opacity="0.392166482589111"/>
<circle cx="167.3" cy="64.9" r="2.3" fill="#ffffff" opacity="0.41055176606821236"/>
<circle cx="412.8" cy="479.7" r="2.6" fill="#ffffff" opacity="0.8355151570770399"/>
<circle cx="344.1" cy="823.8" r="3.9" fill="#ffffff" opacity="0.7690332257896987"/>
<circle cx="434.3" cy="624.5" r="3.2" fill="#ffffff" opacity="0.7902351001701291"/>
<circle cx="244.4" cy="1157.6" r="2.9" fill="#ffffff" opacity="0.6950130197067124"/>
<circle cx="689.9" cy="584.5" r="1.9" fill="#ffffff" opacity="0.4952720999141226"/>
<circle cx="625.1" cy="900.9" r="4.4" fill="#ffffff" opacity="0.42032916900451606"/>
<circle cx="282.9" cy="248.5" r="3.5" fill="#ffffff" opacity="0.6873401843160865"/>
<circle cx="519.1" cy="644.3" r="3.2" fill="#ffffff" opacity="0.5967561230179397"/>
<circle cx="498.8" cy="127.1" r="2.7" fill="#ffffff" opacity="0.6292701768196529"/>
<circle cx="214.8" cy="830.0" r="2.4" fill="#ffffff" opacity="0.5666863076636934"/>
<circle cx="610.4" cy="1089.8" r="4.7" fill="#ffffff" opacity="0.4013142915845615"/>
<circle cx="449.9" cy="654.9" r="3.1" fill="#ffffff" opacity="0.5140566414313585"/>
<circle cx="458.0" cy="425.4" r="2.0" fill="#ffffff" opacity="0.7126126808848177"/>
<circle cx="300.6" cy="697.1" r="2.1" fill="#ffffff" opacity="0.3717585698010288"/>
<circle cx="289.6" cy="640.3" r="3.3" fill="#ffffff" opacity="0.34860383298061276"/>
<circle cx="383.4" cy="885.7" r="3.2" fill="#ffffff" opacity="0.2782242861237076"/>
<circle cx="397.3" cy="206.0" r="2.4" fill="#ffffff" opacity="0.28830957294126647"/>
<circle cx="676.5" cy="838.7" r="4.0" fill="#ffffff" opacity="0.7113346420175957"/>
<circle cx="159.1" cy="1198.8" r="1.8" fill="#ffffff" opacity="0.28444822734613073"/>
<circle cx="583.7" cy="665.5" r="4.0" fill="#ffffff" opacity="0.3505057609612522"/>
<circle cx="268.0" cy="297.3" r="2.7" fill="#ffffff" opacity="0.33816088159247926"/>
<circle cx="228.7" cy="205.3" r="3.6" fill="#ffffff" opacity="0.6297989477734072"/>
<circle cx="475.1" cy="1050.2" r="3.0" fill="#ffffff" opacity="0.7905111214115932"/>
<circle cx="316.9" cy="859.0" r="4.2" fill="#ffffff" opacity="0.6185636289505296"/>
<circle cx="464.4" cy="133.2" r="3.1" fill="#ffffff" opacity="0.5489318858661801"/>
<circle cx="384.2" cy="436.7" r="2.8" fill="#ffffff" opacity="0.5251729992754524"/>
<circle cx="351.6" cy="764.4" r="4.8" fill="#ffffff" opacity="0.2596689506668708"/>
<circle cx="664.6" cy="768.3" r="3.9" fill="#ffffff" opacity="0.36041876924337524"/>
<circle cx="174.1" cy="851.7" r="1.7" fill="#ffffff" opacity="0.7709245590421998"/>
<circle cx="200.6" cy="1081.8" r="2.0" fill="#ffffff" opacity="0.3386622096987576"/>
<circle cx="614.9" cy="665.6" r="2.3" fill="#ffffff" opacity="0.74404487286578"/>
<g filter="url(#paper)"><rect x="42" y="42" width="666" height="1166" rx="54" ry="54" fill="none" stroke="#1E1B2E" stroke-width="8" opacity="0.95"/>
<rect x="60" y="60" width="630" height="1130" rx="46" ry="46" fill="none" stroke="#FF4D6D" stroke-width="3" opacity="0.35"/>

  <g opacity="0.42">
    <circle cx="375.0" cy="560" r="285" fill="none" stroke="#FF4D6D" stroke-width="4.2" opacity="0.42"/>
    <circle cx="375.0" cy="560" r="233.7" fill="none" stroke="#FF4D6D" stroke-width="2.2" opacity="0.23"/>
    <line x1="642.0" y1="560.0" x2="674.0" y2="560.0" stroke="#FF4D6D" stroke-width="3.2" opacity="0.23" stroke-linecap="round"/><line x1="606.2" y1="693.5" x2="633.9" y2="709.5" stroke="#FF4D6D" stroke-width="3.2" opacity="0.23" stroke-linecap="round"/><line x1="508.5" y1="791.2" x2="524.5" y2="818.9" stroke="#FF4D6D" stroke-width="3.2" opacity="0.23" stroke-linecap="round"/><line x1="375.0" y1="827.0" x2="375.0" y2="859.0" stroke="#FF4D6D" stroke-width="3.2" opacity="0.23" stroke-linecap="round"/><line x1="241.5" y1="791.2" x2="225.5" y2="818.9" stroke="#FF4D6D" stroke-width="3.2" opacity="0.23" stroke-linecap="round"/><line x1="143.8" y1="693.5" x2="116.1" y2="709.5" stroke="#FF4D6D" stroke-width="3.2" opacity="0.23" stroke-linecap="round"/><line x1="108.0" y1="560.0" x2="76.0" y2="560.0" stroke="#FF4D6D" stroke-width="3.2" opacity="0.23" stroke-linecap="round"/><line x1="143.8" y1="426.5" x2="116.1" y2="410.5" stroke="#FF4D6D" stroke-width="3.2" opacity="0.23" stroke-linecap="round"/><line x1="241.5" y1="328.8" x2="225.5" y2="301.1" stroke="#FF4D6D" stroke-width="3.2" opacity="0.23" stroke-linecap="round"/><line x1="375.0" y1="293.0" x2="375.0" y2="261.0" stroke="#FF4D6D" stroke-width="3.2" opacity="0.23" stroke-linecap="round"/><line x1="508.5" y1="328.8" x2="524.5" y2="301.1" stroke="#FF4D6D" stroke-width="3.2" opacity="0.23" stroke-linecap="round"/><line x1="606.2" y1="426.5" x2="633.9" y2="410.5" stroke="#FF4D6D" stroke-width="3.2" opacity="0.23" stroke-linecap="round"/>
    <circle cx="659.9" cy="567.0" r="3.3" fill="#FF4D6D" opacity="0.42"/><circle cx="651.7" cy="628.2" r="3.4" fill="#FF4D6D" opacity="0.18"/><circle cx="619.3" cy="706.7" r="3.1" fill="#FF4D6D" opacity="0.24"/><circle cx="569.8" cy="768.0" r="3.5" fill="#FF4D6D" opacity="0.40"/><circle cx="517.3" cy="806.9" r="3.1" fill="#FF4D6D" opacity="0.26"/><circle cx="439.6" cy="837.6" r="2.9" fill="#FF4D6D" opacity="0.38"/><circle cx="374.7" cy="845.0" r="3.4" fill="#FF4D6D" opacity="0.25"/><circle cx="299.7" cy="834.9" r="2.8" fill="#FF4D6D" opacity="0.39"/><circle cx="240.0" cy="811.0" r="2.9" fill="#FF4D6D" opacity="0.19"/><circle cx="169.4" cy="757.4" r="3.1" fill="#FF4D6D" opacity="0.20"/><circle cx="128.7" cy="703.4" r="3.2" fill="#FF4D6D" opacity="0.25"/><circle cx="101.1" cy="638.9" r="3.7" fill="#FF4D6D" opacity="0.38"/><circle cx="90.1" cy="567.8" r="3.6" fill="#FF4D6D" opacity="0.24"/><circle cx="97.3" cy="495.9" r="4.0" fill="#FF4D6D" opacity="0.28"/><circle cx="131.8" cy="411.4" r="4.0" fill="#FF4D6D" opacity="0.27"/><circle cx="176.2" cy="355.8" r="3.5" fill="#FF4D6D" opacity="0.38"/><circle cx="235.4" cy="311.5" r="4.0" fill="#FF4D6D" opacity="0.28"/><circle cx="308.9" cy="282.8" r="3.7" fill="#FF4D6D" opacity="0.32"/><circle cx="366.0" cy="275.1" r="2.7" fill="#FF4D6D" opacity="0.44"/><circle cx="439.7" cy="282.5" r="3.6" fill="#FF4D6D" opacity="0.38"/><circle cx="520.3" cy="314.8" r="3.0" fill="#FF4D6D" opacity="0.19"/><circle cx="569.7" cy="351.9" r="2.7" fill="#FF4D6D" opacity="0.37"/><circle cx="622.0" cy="417.8" r="3.4" fill="#FF4D6D" opacity="0.43"/><circle cx="652.1" cy="493.2" r="3.5" fill="#FF4D6D" opacity="0.25"/>
  </g>

<g><g transform="translate(50,54)"><path d="M 21.6 126.0 Q 50.4 54.0 99.0 39.6 Q 144.0 28.8 162.0 72.0" fill="none" stroke="#FF4D6D" stroke-width="6" opacity="0.55" stroke-linecap="round"/></g><g transform="translate(700,54) scale(-1,1)"><path d="M 21.6 126.0 Q 50.4 54.0 99.0 39.6 Q 144.0 28.8 162.0 72.0" fill="none" stroke="#FF4D6D" stroke-width="6" opacity="0.55" stroke-linecap="round"/></g><g transform="translate(50,1196) scale(1,-1)"><path d="M 21.6 126.0 Q 50.4 54.0 99.0 39.6 Q 144.0 28.8 162.0 72.0" fill="none" stroke="#FF4D6D" stroke-width="6" opacity="0.55" stroke-linecap="round"/></g><g transform="translate(700,1196) scale(-1,-1)"><path d="M 21.6 126.0 Q 50.4 54.0 99.0 39.6 Q 144.0 28.8 162.0 72.0" fill="none" stroke="#FF4D6D" stroke-width="6" opacity="0.55" stroke-linecap="round"/></g></g></g>
<rect x="42" y="60" width="666" height="92" rx="30" fill="#ffffffcc" stroke="#1E1B2E" stroke-width="4" opacity="0.95"/>
<text x="375.0" y="122" font-family="ui-sans-serif, system-ui, -apple-system, Segoe UI, Roboto, Helvetica, Arial" font-size="30" font-weight="800" text-anchor="middle" fill="#1E1B2E" opacity="0.95" letter-spacing="1">MAJOR ARCANA • IV</text>
<rect x="76" y="170" width="598" height="760" rx="52" fill="#ffffff" opacity="0.15"/>

        <g filter="url(#glow)">
          <polygon points="155.0,805 375.0,365 595.0,805" fill="#ffffff" opacity="0.58" stroke="#FF4D6D" stroke-width="7"/>
          <rect x="225.0" y="445" width="300" height="70" rx="22" fill="#FF4D6D" opacity="0.25" stroke="#1E1B2E" stroke-width="6"/>
        </g>
        <path d="M 504.0 431.1 Q 327.2 657.7 492.7 632.1 Q 413.2 662.3 294.0 527.2 Q 381.0 555.2 234.2 712.8 Q 336.0 657.9 407.5 493.7 Q 315.6 664.8 577.4 633.7 Q 314.5 653.7 473.8 533.7 Q 360.4 552.1 385.4 796.5 " fill="none" stroke="#FF4D6D" stroke-width="5.5" opacity="0.37" stroke-linecap="round" stroke-linejoin="round"/>
        
<rect x="42" y="1030" width="666" height="160" rx="30" fill="#ffffffd9" stroke="#1E1B2E" stroke-width="4" opacity="0.95"/>
<text x="375.0" y="1104" font-family="ui-sans-serif, system-ui, -apple-system, Segoe UI, Roboto, Helvetica, Arial" font-size="46" font-weight="900" text-anchor="middle" fill="#1E1B2E" opacity="0.98">The Emperor</text>
<text x="375.0" y="1152" font-family="ui-sans-serif, system-ui, -apple-system, Segoe UI, Roboto, Helvetica, Arial" font-size="28" font-weight="700" text-anchor="middle" fill="#1E1B2E" opacity="0.7">Steady</text>

    <g opacity="0.55">
      <circle cx="127" cy="1176" r="14" fill="#FF4D6D"/>
      <circle cx="623" cy="1176" r="14" fill="#FF4D6D"/>
      <path d="M 162 1176 L 588 1176" stroke="#FF4D6D" stroke-width="4" opacity="0.45" stroke-linecap="round"/>
    </g>
    
</svg>
