<svg xmlns="http://www.w3.org/2000/svg" width="750" height="1250" viewBox="0 0 750 1250">
  <title>The Lovers</title>


  <defs>
    <linearGradient id="g" x1="0" y1="0" x2="1" y2="1">
      <stop offset="0%" stop-color="#F0FFEA"/>
      <stop offset="100%" stop-color="#EDE7FF"/>
    </linearGradient>

    <!-- paper texture -->
    <filter id="paper" x="-20%" y="-20%" width="140%" height="140%">
      <feTurbulence type="fractalNoise" baseFrequency="0.016" numOctaves="3" seed="2118" result="noise"/>
      <feColorMatrix in="noise" type="matrix"
        values="1 0 0 0 0
                0 1 0 0 0
                0 0 1 0 0
                0 0 0 0.25 0" result="noiseAlpha"/>
      <feComposite in="noiseAlpha" in2="SourceGraphic" operator="over"/>
    </filter>

    <!-- soft glow -->
    <filter id="glow" x="-30%" y="-30%" width="160%" height="160%">
      <feGaussianBlur stdDeviation="10" result="blur"/>
      <feColorMatrix type="matrix" values="
        1 0 0 0 0
        0 1 0 0 0
        0 0 1 0 0
        0 0 0 0.32 0" result="blurAlpha"/>
      <feMerge>
        <feMergeNode in="blurAlpha"/>
        <feMergeNode in="SourceGraphic"/>
      </feMerge>
    </filter>
  </defs>

<rect x="0" y="0" width="750" height="1250" rx="58" ry="58" fill="url(#g)" stroke="none" stroke-width="0" opacity="1"/>
<rect x="0" y="0" width="750" height="1250" fill="#ffffff" opacity="0.08"/>
<line x1="269.6" y1="126.1" x2="395.0" y2="523.4" stroke="#ffffff" stroke-width="2.2" opacity="0.15"/>
<line x1="395.0" y1="523.4" x2="269.7" y2="949.4" stroke="#ffffff" stroke-width="2.2" opacity="0.13"/>
<line x1="269.7" y1="949.4" x2="240.0" y2="1148.0" stroke="#ffffff" stroke-width="2.2" opacity="0.09"/>
<line x1="240.0" y1="1148.0" x2="97.2" y2="302.2" stroke="#ffffff" stroke-width="2.2" opacity="0.21"/>
<line x1="97.2" y1="302.2" x2="522.2" y2="345.4" stroke="#ffffff" stroke-width="2.2" opacity="0.09"/>
<line x1="522.2" y1="345.4" x2="168.7" y2="46.9" stroke="#ffffff" stroke-width="2.2" opacity="0.11"/>
<line x1="168.7" y1="46.9" x2="256.6" y2="318.3" stroke="#ffffff" stroke-width="2.2" opacity="0.13"/>
<line x1="256.6" y1="318.3" x2="694.1" y2="79.8" stroke="#ffffff" stroke-width="2.2" opacity="0.19"/>
<line x1="694.1" y1="79.8" x2="90.1" y2="143.9" stroke="#ffffff" stroke-width="2.2" opacity="0.09"/>
<line x1="90.1" y1="143.9" x2="448.4" y2="805.0" stroke="#ffffff" stroke-width="2.2" opacity="0.19"/>
<line x1="448.4" y1="805.0" x2="536.0" y2="895.0" stroke="#ffffff" stroke-width="2.2" opacity="0.10"/>
<line x1="536.0" y1="895.0" x2="706.1" y2="732.8" stroke="#ffffff" stroke-width="2.2" opacity="0.15"/>
<line x1="706.1" y1="732.8" x2="656.3" y2="869.3" stroke="#ffffff" stroke-width="2.2" opacity="0.11"/>
<line x1="656.3" y1="869.3" x2="102.7" y2="953.9" stroke="#ffffff" stroke-width="2.2" opacity="0.11"/>
<line x1="102.7" y1="953.9" x2="131.2" y2="1144.5" stroke="#ffffff" stroke-width="2.2" opacity="0.20"/>
<line x1="131.2" y1="1144.5" x2="518.3" y2="1019.9" stroke="#ffffff" stroke-width="2.2" opacity="0.16"/>
<line x1="518.3" y1="1019.9" x2="141.8" y2="214.0" stroke="#ffffff" stroke-width="2.2" opacity="0.16"/>
<line x1="141.8" y1="214.0" x2="451.0" y2="860.1" stroke="#ffffff" stroke-width="2.2" opacity="0.14"/>
<circle cx="438.1" cy="436.3" r="4.2" fill="#ffffff" opacity="0.6783430933497937"/>
<circle cx="395.0" cy="523.4" r="3.8" fill="#ffffff" opacity="0.6108196892832576"/>
<circle cx="685.8" cy="1133.3" r="3.7" fill="#ffffff" opacity="0.6255470037178077"/>
<circle cx="131.2" cy="1144.5" r="3.8" fill="#ffffff" opacity="0.508394383611871"/>
<circle cx="87.8" cy="510.5" r="2.0" fill="#ffffff" opacity="0.6957560195289558"/>
<circle cx="281.4" cy="392.0" r="1.9" fill="#ffffff" opacity="0.796884061006321"/>
<circle cx="269.6" cy="126.1" r="2.2" fill="#ffffff" opacity="0.3468261760647646"/>
<circle cx="284.2" cy="699.0" r="3.8" fill="#ffffff" opacity="0.5189301607198828"/>
<circle cx="579.7" cy="947.7" r="3.8" fill="#ffffff" opacity="0.3555360570198044"/>
<circle cx="119.3" cy="1056.8" r="3.3" fill="#ffffff" opacity="0.8115646071985119"/>
<circle cx="213.6" cy="211.2" r="4.8" fill="#ffffff" opacity="0.41737924353239275"/>
<circle cx="249.7" cy="252.3" r="2.4" fill="#ffffff" opacity="0.5722550503345609"/>
<circle cx="318.8" cy="1162.0" r="1.7" fill="#ffffff" opacity="0.6949886441681191"/>
<circle cx="67.3" cy="640.6" r="3.9" fill="#ffffff" opacity="0.3031343121253958"/>
<circle cx="113.6" cy="1161.0" r="3.1" fill="#ffffff" opacity="0.2789744162716973"/>
<circle cx="213.0" cy="909.4" r="2.1" fill="#ffffff" opacity="0.5526238921119289"/>
<circle cx="245.4" cy="514.7" r="3.9" fill="#ffffff" opacity="0.3699503024380407"/>
<circle cx="414.0" cy="372.5" r="3.1" fill="#ffffff" opacity="0.4223391585107764"/>
<circle cx="103.4" cy="295.0" r="4.6" fill="#ffffff" opacity="0.8004713695469476"/>
<circle cx="258.8" cy="308.0" r="4.0" fill="#ffffff" opacity="0.7356093458160559"/>
<circle cx="341.7" cy="297.6" r="4.4" fill="#ffffff" opacity="0.4329955353022339"/>
<circle cx="153.4" cy="927.2" r="3.7" fill="#ffffff" opacity="0.7042752105490707"/>
<circle cx="630.3" cy="213.1" r="4.8" fill="#ffffff" opacity="0.38357487851911215"/>
<circle cx="97.2" cy="302.2" r="4.2" fill="#ffffff" opacity="0.718762888510302"/>
<circle cx="102.7" cy="953.9" r="2.7" fill="#ffffff" opacity="0.506066795363154"/>
<circle cx="357.6" cy="1001.1" r="2.2" fill="#ffffff" opacity="0.2951777167506675"/>
<circle cx="141.8" cy="214.0" r="3.9" fill="#ffffff" opacity="0.8269057446508528"/>
<circle cx="386.2" cy="329.9" r="1.7" fill="#ffffff" opacity="0.5950686126658"/>
<circle cx="168.7" cy="46.9" r="3.5" fill="#ffffff" opacity="0.8240068367405569"/>
<circle cx="599.2" cy="957.4" r="3.1" fill="#ffffff" opacity="0.8089064151974129"/>
<circle cx="269.7" cy="949.4" r="4.4" fill="#ffffff" opacity="0.7645399009203393"/>
<circle cx="655.2" cy="183.6" r="4.1" fill="#ffffff" opacity="0.3761881275972789"/>
<circle cx="706.1" cy="732.8" r="1.9" fill="#ffffff" opacity="0.5903626170892777"/>
<circle cx="209.8" cy="728.7" r="4.0" fill="#ffffff" opacity="0.48526406440711656"/>
<circle cx="256.6" cy="318.3" r="4.4" fill="#ffffff" opacity="0.8028702592913557"/>
<circle cx="249.3" cy="509.7" r="4.1" fill="#ffffff" opacity="0.7848199905025435"/>
<circle cx="620.2" cy="538.2" r="2.9" fill="#ffffff" opacity="0.8082462386370837"/>
<circle cx="518.3" cy="1019.9" r="4.1" fill="#ffffff" opacity="0.7143706145937758"/>
<circle cx="422.2" cy="454.3" r="3.9" fill="#ffffff" opacity="0.8345100343880794"/>
<circle cx="421.9" cy="314.6" r="3.2" fill="#ffffff" opacity="0.814625882742416"/>
<circle cx="539.0" cy="1190.2" r="2.0" fill="#ffffff" opacity="0.42317611803815836"/>
<circle cx="694.1" cy="79.8" r="3.4" fill="#ffffff" opacity="0.43515781791686003"/>
<circle cx="438.8" cy="518.7" r="4.3" fill="#ffffff" opacity="0.5528806843670793"/>
<circle cx="536.0" cy="895.0" r="3.0" fill="#ffffff" opacity="0.3184880534265232"/>
<circle cx="240.0" cy="1148.0" r="2.8" fill="#ffffff" opacity="0.4417010002757171"/>
<circle cx="90.1" cy="143.9" r="2.1" fill="#ffffff" opacity="0.3117609272344446"/>
<circle cx="451.0" cy="860.1" r="1.9" fill="#ffffff" opacity="0.2655680698502621"/>
<circle cx="656.3" cy="869.3" r="2.7" fill="#ffffff" opacity="0.4936206984592707"/>
<circle cx="522.2" cy="345.4" r="3.9" fill="#ffffff" opacity="0.4540717985923882"/>
<circle cx="448.4" cy="805.0" r="4.5" fill="#ffffff" opacity="0.7332689172628892"/>
<g filter="url(#paper)"><rect x="42" y="42" width="666" height="1166" rx="54" ry="54" fill="none" stroke="#1E1B2E" stroke-width="8" opacity="0.95"/>
<rect x="60" y="60" width="630" height="1130" rx="46" ry="46" fill="none" stroke="#3A86FF" stroke-width="3" opacity="0.35"/>

  <g opacity="0.42">
    <circle cx="375.0" cy="560" r="285" fill="none" stroke="#3A86FF" stroke-width="4.2" opacity="0.42"/>
    <circle cx="375.0" cy="560" r="233.7" fill="none" stroke="#3A86FF" stroke-width="2.2" opacity="0.23"/>
    <line x1="642.0" y1="560.0" x2="674.0" y2="560.0" stroke="#3A86FF" stroke-width="3.2" opacity="0.23" stroke-linecap="round"/><line x1="606.2" y1="693.5" x2="633.9" y2="709.5" stroke="#3A86FF" stroke-width="3.2" opacity="0.23" stroke-linecap="round"/><line x1="508.5" y1="791.2" x2="524.5" y2="818.9" stroke="#3A86FF" stroke-width="3.2" opacity="0.23" stroke-linecap="round"/><line x1="375.0" y1="827.0" x2="375.0" y2="859.0" stroke="#3A86FF" stroke-width="3.2" opacity="0.23" stroke-linecap="round"/><line x1="241.5" y1="791.2" x2="225.5" y2="818.9" stroke="#3A86FF" stroke-width="3.2" opacity="0.23" stroke-linecap="round"/><line x1="143.8" y1="693.5" x2="116.1" y2="709.5" stroke="#3A86FF" stroke-width="3.2" opacity="0.23" stroke-linecap="round"/><line x1="108.0" y1="560.0" x2="76.0" y2="560.0" stroke="#3A86FF" stroke-width="3.2" opacity="0.23" stroke-linecap="round"/><line x1="143.8" y1="426.5" x2="116.1" y2="410.5" stroke="#3A86FF" stroke-width="3.2" opacity="0.23" stroke-linecap="round"/><line x1="241.5" y1="328.8" x2="225.5" y2="301.1" stroke="#3A86FF" stroke-width="3.2" opacity="0.23" stroke-linecap="round"/><line x1="375.0" y1="293.0" x2="375.0" y2="261.0" stroke="#3A86FF" stroke-width="3.2" opacity="0.23" stroke-linecap="round"/><line x1="508.5" y1="328.8" x2="524.5" y2="301.1" stroke="#3A86FF" stroke-width="3.2" opacity="0.23" stroke-linecap="round"/><line x1="606.2" y1="426.5" x2="633.9" y2="410.5" stroke="#3A86FF" stroke-width="3.2" opacity="0.23" stroke-linecap="round"/>
    <circle cx="659.9" cy="566.5" r="3.7" fill="#3A86FF" opacity="0.20"/><circle cx="649.5" cy="636.8" r="3.5" fill="#3A86FF" opacity="0.34"/><circle cx="617.9" cy="709.2" r="2.8" fill="#3A86FF" opacity="0.40"/><circle cx="571.5" cy="766.4" r="3.5" fill="#3A86FF" opacity="0.20"/><circle cx="510.0" cy="811.0" r="2.8" fill="#3A86FF" opacity="0.37"/><circle cx="440.7" cy="837.3" r="3.4" fill="#3A86FF" opacity="0.43"/><circle cx="367.8" cy="844.9" r="3.0" fill="#3A86FF" opacity="0.34"/><circle cx="309.0" cy="837.3" r="3.2" fill="#3A86FF" opacity="0.24"/><circle cx="234.7" cy="808.1" r="2.8" fill="#3A86FF" opacity="0.43"/><circle cx="169.7" cy="757.6" r="2.9" fill="#3A86FF" opacity="0.22"/><circle cx="128.8" cy="703.5" r="2.6" fill="#3A86FF" opacity="0.42"/><circle cx="101.0" cy="638.4" r="4.0" fill="#3A86FF" opacity="0.32"/><circle cx="90.1" cy="568.1" r="3.2" fill="#3A86FF" opacity="0.21"/><circle cx="98.2" cy="491.9" r="3.7" fill="#3A86FF" opacity="0.20"/><circle cx="129.0" cy="416.0" r="2.8" fill="#3A86FF" opacity="0.20"/><circle cx="180.4" cy="351.8" r="2.6" fill="#3A86FF" opacity="0.26"/><circle cx="239.3" cy="309.4" r="3.5" fill="#3A86FF" opacity="0.19"/><circle cx="305.8" cy="283.5" r="2.9" fill="#3A86FF" opacity="0.37"/><circle cx="366.8" cy="275.1" r="3.7" fill="#3A86FF" opacity="0.36"/><circle cx="441.4" cy="282.8" r="3.0" fill="#3A86FF" opacity="0.22"/><circle cx="520.7" cy="315.1" r="2.9" fill="#3A86FF" opacity="0.44"/><circle cx="576.4" cy="358.3" r="3.6" fill="#3A86FF" opacity="0.44"/><circle cx="623.9" cy="421.2" r="3.4" fill="#3A86FF" opacity="0.33"/><circle cx="651.5" cy="490.9" r="3.2" fill="#3A86FF" opacity="0.43"/>
  </g>

<g><g transform="translate(50,54)"><path d="M 21.6 140.4 Q 75.6 36.0 165.6 68.4 Q 93.6 79.2 72.0 126.0" fill="none" stroke="#3A86FF" stroke-width="6" opacity="0.55" stroke-linecap="round"/></g><g transform="translate(700,54) scale(-1,1)"><path d="M 21.6 140.4 Q 75.6 36.0 165.6 68.4 Q 93.6 79.2 72.0 126.0" fill="none" stroke="#3A86FF" stroke-width="6" opacity="0.55" stroke-linecap="round"/></g><g transform="translate(50,1196) scale(1,-1)"><path d="M 21.6 140.4 Q 75.6 36.0 165.6 68.4 Q 93.6 79.2 72.0 126.0" fill="none" stroke="#3A86FF" stroke-width="6" opacity="0.55" stroke-linecap="round"/></g><g transform="translate(700,1196) scale(-1,-1)"><path d="M 21.6 140.4 Q 75.6 36.0 165.6 68.4 Q 93.6 79.2 72.0 126.0" fill="none" stroke="#3A86FF" stroke-width="6" opacity="0.55" stroke-linecap="round"/></g></g></g>
<rect x="42" y="60" width="666" height="92" rx="30" fill="#ffffffcc" stroke="#1E1B2E" stroke-width="4" opacity="0.95"/>
<text x="375.0" y="122" font-family="ui-sans-serif, system-ui, -apple-system, Segoe UI, Roboto, Helvetica, Arial" font-size="30" font-weight="800" text-anchor="middle" fill="#1E1B2E" opacity="0.95" letter-spacing="1">MAJOR ARCANA • VI</text>
<rect x="76" y="170" width="598" height="760" rx="52" fill="#ffffff" opacity="0.15"/>

        <g filter="url(#glow)">
          <path d="M 225.0 565
                   C 105.0 445, 165.0 305, 305.0 375
                   C 375.0 415, 365.0 525, 225.0 565 Z"
                fill="#ffffff" opacity="0.55" stroke="#3A86FF" stroke-width="6"/>
          <path d="M 525.0 565
                   C 645.0 445, 585.0 305, 445.0 375
                   C 375.0 415, 385.0 525, 525.0 565 Z"
                fill="#ffffff" opacity="0.55" stroke="#3A86FF" stroke-width="6"/>
          <circle cx="375.0" cy="585" r="18" fill="#3A86FF" opacity="0.5"/>
        </g>
        
  <g opacity="0.25">
    <circle cx="375.0" cy="565" r="260" fill="none" stroke="#3A86FF" stroke-width="4.2" opacity="0.25"/>
    <circle cx="375.0" cy="565" r="213.2" fill="none" stroke="#3A86FF" stroke-width="2.2" opacity="0.14"/>
    <line x1="617.0" y1="565.0" x2="649.0" y2="565.0" stroke="#3A86FF" stroke-width="3.2" opacity="0.14" stroke-linecap="round"/><line x1="584.6" y1="686.0" x2="612.3" y2="702.0" stroke="#3A86FF" stroke-width="3.2" opacity="0.14" stroke-linecap="round"/><line x1="496.0" y1="774.6" x2="512.0" y2="802.3" stroke="#3A86FF" stroke-width="3.2" opacity="0.14" stroke-linecap="round"/><line x1="375.0" y1="807.0" x2="375.0" y2="839.0" stroke="#3A86FF" stroke-width="3.2" opacity="0.14" stroke-linecap="round"/><line x1="254.0" y1="774.6" x2="238.0" y2="802.3" stroke="#3A86FF" stroke-width="3.2" opacity="0.14" stroke-linecap="round"/><line x1="165.4" y1="686.0" x2="137.7" y2="702.0" stroke="#3A86FF" stroke-width="3.2" opacity="0.14" stroke-linecap="round"/><line x1="133.0" y1="565.0" x2="101.0" y2="565.0" stroke="#3A86FF" stroke-width="3.2" opacity="0.14" stroke-linecap="round"/><line x1="165.4" y1="444.0" x2="137.7" y2="428.0" stroke="#3A86FF" stroke-width="3.2" opacity="0.14" stroke-linecap="round"/><line x1="254.0" y1="355.4" x2="238.0" y2="327.7" stroke="#3A86FF" stroke-width="3.2" opacity="0.14" stroke-linecap="round"/><line x1="375.0" y1="323.0" x2="375.0" y2="291.0" stroke="#3A86FF" stroke-width="3.2" opacity="0.14" stroke-linecap="round"/><line x1="496.0" y1="355.4" x2="512.0" y2="327.7" stroke="#3A86FF" stroke-width="3.2" opacity="0.14" stroke-linecap="round"/><line x1="584.6" y1="444.0" x2="612.3" y2="428.0" stroke="#3A86FF" stroke-width="3.2" opacity="0.14" stroke-linecap="round"/>
    <circle cx="635.0" cy="569.4" r="3.1" fill="#3A86FF" opacity="0.31"/><circle cx="626.4" cy="631.2" r="2.8" fill="#3A86FF" opacity="0.31"/><circle cx="602.4" cy="691.0" r="3.3" fill="#3A86FF" opacity="0.43"/><circle cx="552.7" cy="754.8" r="3.1" fill="#3A86FF" opacity="0.36"/><circle cx="500.6" cy="792.6" r="3.3" fill="#3A86FF" opacity="0.22"/><circle cx="437.4" cy="817.4" r="2.9" fill="#3A86FF" opacity="0.34"/><circle cx="366.7" cy="824.9" r="2.8" fill="#3A86FF" opacity="0.20"/><circle cx="315.5" cy="818.1" r="2.9" fill="#3A86FF" opacity="0.42"/><circle cx="238.6" cy="786.4" r="3.6" fill="#3A86FF" opacity="0.33"/><circle cx="187.8" cy="745.5" r="3.4" fill="#3A86FF" opacity="0.22"/><circle cx="151.3" cy="697.5" r="2.7" fill="#3A86FF" opacity="0.32"/><circle cx="123.5" cy="631.1" r="3.6" fill="#3A86FF" opacity="0.42"/><circle cx="115.1" cy="573.2" r="2.9" fill="#3A86FF" opacity="0.45"/><circle cx="121.8" cy="506.1" r="3.2" fill="#3A86FF" opacity="0.28"/><circle cx="146.5" cy="440.9" r="2.6" fill="#3A86FF" opacity="0.22"/><circle cx="192.0" cy="380.4" r="3.1" fill="#3A86FF" opacity="0.43"/><circle cx="252.8" cy="335.5" r="2.7" fill="#3A86FF" opacity="0.36"/><circle cx="313.1" cy="312.5" r="3.2" fill="#3A86FF" opacity="0.39"/><circle cx="380.0" cy="305.0" r="3.8" fill="#3A86FF" opacity="0.22"/><circle cx="445.4" cy="314.7" r="3.9" fill="#3A86FF" opacity="0.25"/><circle cx="502.8" cy="338.6" r="3.3" fill="#3A86FF" opacity="0.30"/><circle cx="565.1" cy="387.6" r="2.6" fill="#3A86FF" opacity="0.43"/><circle cx="595.9" cy="427.9" r="3.1" fill="#3A86FF" opacity="0.38"/><circle cx="626.8" cy="500.0" r="3.8" fill="#3A86FF" opacity="0.37"/>
  </g>

        
<rect x="42" y="1030" width="666" height="160" rx="30" fill="#ffffffd9" stroke="#1E1B2E" stroke-width="4" opacity="0.95"/>
<text x="375.0" y="1104" font-family="ui-sans-serif, system-ui, -apple-system, Segoe UI, Roboto, Helvetica, Arial" font-size="46" font-weight="900" text-anchor="middle" fill="#1E1B2E" opacity="0.98">The Lovers</text>
<text x="375.0" y="1152" font-family="ui-sans-serif, system-ui, -apple-system, Segoe UI, Roboto, Helvetica, Arial" font-size="28" font-weight="700" text-anchor="middle" fill="#1E1B2E" opacity="0.7">Harmony</text>

    <g opacity="0.55">
      <circle cx="127" cy="1176" r="14" fill="#3A86FF"/>
      <circle cx="623" cy="1176" r="14" fill="#3A86FF"/>
      <path d="M 162 1176 L 588 1176" stroke="#3A86FF" stroke-width="4" opacity="0.45" stroke-linecap="round"/>
    </g>
    
</svg>
