<svg xmlns="http://www.w3.org/2000/svg" width="750" height="1250" viewBox="0 0 750 1250">
  <title>The Chariot</title>


  <defs>
    <linearGradient id="g" x1="0" y1="0" x2="1" y2="1">
      <stop offset="0%" stop-color="#FDE2FF"/>
      <stop offset="100%" stop-color="#D6F5FF"/>
    </linearGradient>

    <!-- paper texture -->
    <filter id="paper" x="-20%" y="-20%" width="140%" height="140%">
      <feTurbulence type="fractalNoise" baseFrequency="0.017" numOctaves="3" seed="1217" result="noise"/>
      <feColorMatrix in="noise" type="matrix"
        values="1 0 0 0 0
                0 1 0 0 0
                0 0 1 0 0
                0 0 0 0.25 0" result="noiseAlpha"/>
      <feComposite in="noiseAlpha" in2="SourceGraphic" operator="over"/>
    </filter>

    <!-- soft glow -->
    <filter id="glow" x="-30%" y="-30%" width="160%" height="160%">
      <feGaussianBlur stdDeviation="10" result="blur"/>
      <feColorMatrix type="matrix" values="
        1 0 0 0 0
        0 1 0 0 0
        0 0 1 0 0
        0 0 0 0.32 0" result="blurAlpha"/>
      <feMerge>
        <feMergeNode in="blurAlpha"/>
        <feMergeNode in="SourceGraphic"/>
      </feMerge>
    </filter>
  </defs>

<rect x="0" y="0" width="750" height="1250" rx="58" ry="58" fill="url(#g)" stroke="none" stroke-width="0" opacity="1"/>
<rect x="0" y="0" width="750" height="1250" fill="#ffffff" opacity="0.08"/>
<line x1="364.2" y1="858.5" x2="552.5" y2="1201.6" stroke="#ffffff" stroke-width="2.2" opacity="0.11"/>
<line x1="552.5" y1="1201.6" x2="381.2" y2="470.8" stroke="#ffffff" stroke-width="2.2" opacity="0.21"/>
<line x1="381.2" y1="470.8" x2="517.1" y2="666.6" stroke="#ffffff" stroke-width="2.2" opacity="0.21"/>
<line x1="517.1" y1="666.6" x2="92.0" y2="870.7" stroke="#ffffff" stroke-width="2.2" opacity="0.13"/>
<line x1="92.0" y1="870.7" x2="60.1" y2="631.8" stroke="#ffffff" stroke-width="2.2" opacity="0.16"/>
<line x1="60.1" y1="631.8" x2="360.3" y2="500.2" stroke="#ffffff" stroke-width="2.2" opacity="0.21"/>
<line x1="360.3" y1="500.2" x2="346.9" y2="1112.7" stroke="#ffffff" stroke-width="2.2" opacity="0.19"/>
<line x1="346.9" y1="1112.7" x2="516.6" y2="263.1" stroke="#ffffff" stroke-width="2.2" opacity="0.15"/>
<line x1="516.6" y1="263.1" x2="179.4" y2="206.8" stroke="#ffffff" stroke-width="2.2" opacity="0.14"/>
<line x1="179.4" y1="206.8" x2="607.6" y2="941.7" stroke="#ffffff" stroke-width="2.2" opacity="0.17"/>
<line x1="607.6" y1="941.7" x2="601.3" y2="1008.1" stroke="#ffffff" stroke-width="2.2" opacity="0.14"/>
<line x1="601.3" y1="1008.1" x2="45.5" y2="98.3" stroke="#ffffff" stroke-width="2.2" opacity="0.22"/>
<line x1="45.5" y1="98.3" x2="496.9" y2="1188.3" stroke="#ffffff" stroke-width="2.2" opacity="0.17"/>
<line x1="496.9" y1="1188.3" x2="174.9" y2="489.5" stroke="#ffffff" stroke-width="2.2" opacity="0.09"/>
<line x1="174.9" y1="489.5" x2="62.6" y2="584.2" stroke="#ffffff" stroke-width="2.2" opacity="0.16"/>
<line x1="62.6" y1="584.2" x2="485.8" y2="937.3" stroke="#ffffff" stroke-width="2.2" opacity="0.15"/>
<line x1="485.8" y1="937.3" x2="359.9" y2="1027.1" stroke="#ffffff" stroke-width="2.2" opacity="0.11"/>
<line x1="359.9" y1="1027.1" x2="391.1" y2="811.4" stroke="#ffffff" stroke-width="2.2" opacity="0.18"/>
<circle cx="517.1" cy="666.6" r="4.2" fill="#ffffff" opacity="0.8068494248829337"/>
<circle cx="516.6" cy="263.1" r="3.4" fill="#ffffff" opacity="0.6981237432004981"/>
<circle cx="343.8" cy="434.3" r="2.9" fill="#ffffff" opacity="0.5597584723223412"/>
<circle cx="623.5" cy="999.8" r="2.0" fill="#ffffff" opacity="0.6999593909758577"/>
<circle cx="575.5" cy="692.2" r="2.0" fill="#ffffff" opacity="0.3898407159487529"/>
<circle cx="83.8" cy="907.3" r="1.7" fill="#ffffff" opacity="0.642518852101177"/>
<circle cx="407.8" cy="719.1" r="3.4" fill="#ffffff" opacity="0.7066750937093081"/>
<circle cx="470.9" cy="177.1" r="4.4" fill="#ffffff" opacity="0.6991001377103393"/>
<circle cx="346.9" cy="1112.7" r="2.9" fill="#ffffff" opacity="0.3281361074453094"/>
<circle cx="601.3" cy="1008.1" r="2.9" fill="#ffffff" opacity="0.6634674551972133"/>
<circle cx="470.3" cy="665.7" r="1.6" fill="#ffffff" opacity="0.7708921377454544"/>
<circle cx="450.9" cy="431.1" r="2.4" fill="#ffffff" opacity="0.262271332178855"/>
<circle cx="45.5" cy="98.3" r="2.4" fill="#ffffff" opacity="0.7396352767156804"/>
<circle cx="572.4" cy="60.3" r="3.0" fill="#ffffff" opacity="0.7197215900087045"/>
<circle cx="72.2" cy="334.9" r="2.7" fill="#ffffff" opacity="0.7175698742537123"/>
<circle cx="67.6" cy="1070.9" r="2.8" fill="#ffffff" opacity="0.5798717757716958"/>
<circle cx="359.9" cy="1027.1" r="4.7" fill="#ffffff" opacity="0.5022715900098049"/>
<circle cx="179.4" cy="206.8" r="4.2" fill="#ffffff" opacity="0.255277909883736"/>
<circle cx="472.3" cy="1205.4" r="4.0" fill="#ffffff" opacity="0.582110548616267"/>
<circle cx="552.5" cy="1201.6" r="2.2" fill="#ffffff" opacity="0.5936968054412488"/>
<circle cx="174.9" cy="489.5" r="3.3" fill="#ffffff" opacity="0.25972228182528945"/>
<circle cx="391.1" cy="811.4" r="4.8" fill="#ffffff" opacity="0.8276579662929616"/>
<circle cx="313.3" cy="1030.1" r="3.7" fill="#ffffff" opacity="0.7547512765699397"/>
<circle cx="96.8" cy="363.8" r="2.7" fill="#ffffff" opacity="0.5379068725624775"/>
<circle cx="360.3" cy="500.2" r="3.7" fill="#ffffff" opacity="0.5951834781283949"/>
<circle cx="689.8" cy="940.2" r="3.2" fill="#ffffff" opacity="0.6701075608838527"/>
<circle cx="519.0" cy="247.1" r="2.8" fill="#ffffff" opacity="0.4563663019642489"/>
<circle cx="623.0" cy="1178.6" r="3.5" fill="#ffffff" opacity="0.6838149034406028"/>
<circle cx="382.7" cy="152.5" r="2.1" fill="#ffffff" opacity="0.6705116933896973"/>
<circle cx="341.1" cy="1056.3" r="2.2" fill="#ffffff" opacity="0.8274883626696864"/>
<circle cx="290.5" cy="400.9" r="2.4" fill="#ffffff" opacity="0.6094211457981347"/>
<circle cx="188.7" cy="973.3" r="4.4" fill="#ffffff" opacity="0.7384018556725378"/>
<circle cx="330.8" cy="658.9" r="2.9" fill="#ffffff" opacity="0.7182681077015871"/>
<circle cx="566.3" cy="607.2" r="4.3" fill="#ffffff" opacity="0.49391029834031297"/>
<circle cx="607.6" cy="941.7" r="1.6" fill="#ffffff" opacity="0.50999846230223"/>
<circle cx="259.2" cy="189.6" r="2.7" fill="#ffffff" opacity="0.6314283143185444"/>
<circle cx="640.4" cy="631.6" r="2.3" fill="#ffffff" opacity="0.6317349391945135"/>
<circle cx="381.2" cy="470.8" r="1.7" fill="#ffffff" opacity="0.4861841700782994"/>
<circle cx="496.9" cy="1188.3" r="4.3" fill="#ffffff" opacity="0.3261335667525409"/>
<circle cx="325.2" cy="1012.8" r="3.5" fill="#ffffff" opacity="0.595507225098626"/>
<circle cx="419.5" cy="556.9" r="4.0" fill="#ffffff" opacity="0.7564142719449458"/>
<circle cx="60.1" cy="631.8" r="3.5" fill="#ffffff" opacity="0.2611720031797617"/>
<circle cx="543.1" cy="727.7" r="2.9" fill="#ffffff" opacity="0.3571406815200499"/>
<circle cx="268.6" cy="191.6" r="2.0" fill="#ffffff" opacity="0.6132016595247685"/>
<circle cx="485.8" cy="937.3" r="4.4" fill="#ffffff" opacity="0.4034361649441385"/>
<circle cx="62.6" cy="584.2" r="3.5" fill="#ffffff" opacity="0.8316900214720336"/>
<circle cx="364.2" cy="858.5" r="4.1" fill="#ffffff" opacity="0.38456528248824046"/>
<circle cx="203.7" cy="354.4" r="1.8" fill="#ffffff" opacity="0.334289523012369"/>
<circle cx="644.1" cy="744.1" r="2.8" fill="#ffffff" opacity="0.4099327759352438"/>
<circle cx="92.0" cy="870.7" r="3.0" fill="#ffffff" opacity="0.3734888858104608"/>
<g filter="url(#paper)"><rect x="42" y="42" width="666" height="1166" rx="54" ry="54" fill="none" stroke="#1E1B2E" stroke-width="8" opacity="0.95"/>
<rect x="60" y="60" width="630" height="1130" rx="46" ry="46" fill="none" stroke="#7A5CFF" stroke-width="3" opacity="0.35"/>

  <g opacity="0.42">
    <circle cx="375.0" cy="560" r="285" fill="none" stroke="#7A5CFF" stroke-width="4.2" opacity="0.42"/>
    <circle cx="375.0" cy="560" r="233.7" fill="none" stroke="#7A5CFF" stroke-width="2.2" opacity="0.23"/>
    <line x1="642.0" y1="560.0" x2="674.0" y2="560.0" stroke="#7A5CFF" stroke-width="3.2" opacity="0.23" stroke-linecap="round"/><line x1="606.2" y1="693.5" x2="633.9" y2="709.5" stroke="#7A5CFF" stroke-width="3.2" opacity="0.23" stroke-linecap="round"/><line x1="508.5" y1="791.2" x2="524.5" y2="818.9" stroke="#7A5CFF" stroke-width="3.2" opacity="0.23" stroke-linecap="round"/><line x1="375.0" y1="827.0" x2="375.0" y2="859.0" stroke="#7A5CFF" stroke-width="3.2" opacity="0.23" stroke-linecap="round"/><line x1="241.5" y1="791.2" x2="225.5" y2="818.9" stroke="#7A5CFF" stroke-width="3.2" opacity="0.23" stroke-linecap="round"/><line x1="143.8" y1="693.5" x2="116.1" y2="709.5" stroke="#7A5CFF" stroke-width="3.2" opacity="0.23" stroke-linecap="round"/><line x1="108.0" y1="560.0" x2="76.0" y2="560.0" stroke="#7A5CFF" stroke-width="3.2" opacity="0.23" stroke-linecap="round"/><line x1="143.8" y1="426.5" x2="116.1" y2="410.5" stroke="#7A5CFF" stroke-width="3.2" opacity="0.23" stroke-linecap="round"/><line x1="241.5" y1="328.8" x2="225.5" y2="301.1" stroke="#7A5CFF" stroke-width="3.2" opacity="0.23" stroke-linecap="round"/><line x1="375.0" y1="293.0" x2="375.0" y2="261.0" stroke="#7A5CFF" stroke-width="3.2" opacity="0.23" stroke-linecap="round"/><line x1="508.5" y1="328.8" x2="524.5" y2="301.1" stroke="#7A5CFF" stroke-width="3.2" opacity="0.23" stroke-linecap="round"/><line x1="606.2" y1="426.5" x2="633.9" y2="410.5" stroke="#7A5CFF" stroke-width="3.2" opacity="0.23" stroke-linecap="round"/>
    <circle cx="659.9" cy="565.7" r="3.9" fill="#7A5CFF" opacity="0.39"/><circle cx="651.4" cy="629.5" r="2.8" fill="#7A5CFF" opacity="0.30"/><circle cx="619.9" cy="705.8" r="3.3" fill="#7A5CFF" opacity="0.36"/><circle cx="577.2" cy="760.8" r="3.7" fill="#7A5CFF" opacity="0.38"/><circle cx="521.5" cy="804.5" r="3.6" fill="#7A5CFF" opacity="0.20"/><circle cx="456.1" cy="833.2" r="3.0" fill="#7A5CFF" opacity="0.40"/><circle cx="376.9" cy="845.0" r="3.9" fill="#7A5CFF" opacity="0.32"/><circle cx="293.8" cy="833.2" r="3.9" fill="#7A5CFF" opacity="0.21"/><circle cx="233.9" cy="807.6" r="3.6" fill="#7A5CFF" opacity="0.23"/><circle cx="178.1" cy="766.1" r="3.7" fill="#7A5CFF" opacity="0.21"/><circle cx="132.3" cy="709.4" r="3.5" fill="#7A5CFF" opacity="0.31"/><circle cx="100.0" cy="634.8" r="3.0" fill="#7A5CFF" opacity="0.26"/><circle cx="90.0" cy="559.7" r="3.0" fill="#7A5CFF" opacity="0.36"/><circle cx="100.4" cy="483.8" r="4.0" fill="#7A5CFF" opacity="0.26"/><circle cx="125.9" cy="421.5" r="3.9" fill="#7A5CFF" opacity="0.25"/><circle cx="179.0" cy="353.1" r="2.9" fill="#7A5CFF" opacity="0.38"/><circle cx="227.5" cy="316.1" r="3.3" fill="#7A5CFF" opacity="0.32"/><circle cx="300.9" cy="284.8" r="2.9" fill="#7A5CFF" opacity="0.22"/><circle cx="377.9" cy="275.0" r="2.7" fill="#7A5CFF" opacity="0.21"/><circle cx="449.3" cy="284.8" r="2.8" fill="#7A5CFF" opacity="0.19"/><circle cx="519.7" cy="314.5" r="3.9" fill="#7A5CFF" opacity="0.27"/><circle cx="571.1" cy="353.2" r="2.8" fill="#7A5CFF" opacity="0.40"/><circle cx="625.7" cy="424.4" r="3.6" fill="#7A5CFF" opacity="0.34"/><circle cx="651.3" cy="490.1" r="3.9" fill="#7A5CFF" opacity="0.25"/>
  </g>

<g><g transform="translate(50,54)"><path d="M 14.4 117.0 C 54.0 14.4, 126.0 14.4, 165.6 117.0" fill="none" stroke="#7A5CFF" stroke-width="6" opacity="0.55" stroke-linecap="round"/></g><g transform="translate(700,54) scale(-1,1)"><path d="M 14.4 117.0 C 54.0 14.4, 126.0 14.4, 165.6 117.0" fill="none" stroke="#7A5CFF" stroke-width="6" opacity="0.55" stroke-linecap="round"/></g><g transform="translate(50,1196) scale(1,-1)"><path d="M 14.4 117.0 C 54.0 14.4, 126.0 14.4, 165.6 117.0" fill="none" stroke="#7A5CFF" stroke-width="6" opacity="0.55" stroke-linecap="round"/></g><g transform="translate(700,1196) scale(-1,-1)"><path d="M 14.4 117.0 C 54.0 14.4, 126.0 14.4, 165.6 117.0" fill="none" stroke="#7A5CFF" stroke-width="6" opacity="0.55" stroke-linecap="round"/></g></g></g>
<rect x="42" y="60" width="666" height="92" rx="30" fill="#ffffffcc" stroke="#1E1B2E" stroke-width="4" opacity="0.95"/>
<text x="375.0" y="122" font-family="ui-sans-serif, system-ui, -apple-system, Segoe UI, Roboto, Helvetica, Arial" font-size="30" font-weight="800" text-anchor="middle" fill="#1E1B2E" opacity="0.95" letter-spacing="1">MAJOR ARCANA • VII</text>
<rect x="76" y="170" width="598" height="760" rx="52" fill="#ffffff" opacity="0.15"/>

        <line x1="110.5" y1="277.2" x2="449.9" y2="381.1" stroke="#ffffff" stroke-width="2.2" opacity="0.17"/>
<line x1="449.9" y1="381.1" x2="136.1" y2="271.9" stroke="#ffffff" stroke-width="2.2" opacity="0.12"/>
<line x1="136.1" y1="271.9" x2="238.8" y2="202.4" stroke="#ffffff" stroke-width="2.2" opacity="0.10"/>
<line x1="238.8" y1="202.4" x2="185.9" y2="297.9" stroke="#ffffff" stroke-width="2.2" opacity="0.14"/>
<line x1="185.9" y1="297.9" x2="523.9" y2="334.9" stroke="#ffffff" stroke-width="2.2" opacity="0.19"/>
<line x1="523.9" y1="334.9" x2="356.9" y2="543.4" stroke="#ffffff" stroke-width="2.2" opacity="0.14"/>
<line x1="356.9" y1="543.4" x2="407.4" y2="400.5" stroke="#ffffff" stroke-width="2.2" opacity="0.10"/>
<line x1="407.4" y1="400.5" x2="381.1" y2="359.3" stroke="#ffffff" stroke-width="2.2" opacity="0.18"/>
<line x1="381.1" y1="359.3" x2="614.2" y2="451.5" stroke="#ffffff" stroke-width="2.2" opacity="0.20"/>
<circle cx="431.3" cy="284.7" r="3.7" fill="#ffffff" opacity="0.3729311884635427"/>
<circle cx="523.9" cy="334.9" r="4.6" fill="#ffffff" opacity="0.6257530021444293"/>
<circle cx="185.9" cy="297.9" r="3.6" fill="#ffffff" opacity="0.7135389889863557"/>
<circle cx="135.6" cy="296.2" r="3.0" fill="#ffffff" opacity="0.469884848071892"/>
<circle cx="356.9" cy="543.4" r="4.6" fill="#ffffff" opacity="0.28232551397194455"/>
<circle cx="365.0" cy="480.4" r="4.0" fill="#ffffff" opacity="0.6946432284378514"/>
<circle cx="612.2" cy="283.4" r="2.5" fill="#ffffff" opacity="0.8259957849333032"/>
<circle cx="387.7" cy="210.8" r="3.3" fill="#ffffff" opacity="0.5339130990242946"/>
<circle cx="614.2" cy="451.5" r="1.7" fill="#ffffff" opacity="0.4431243943822779"/>
<circle cx="110.5" cy="277.2" r="2.1" fill="#ffffff" opacity="0.6299922996785914"/>
<circle cx="510.6" cy="526.3" r="4.0" fill="#ffffff" opacity="0.4999573846518983"/>
<circle cx="185.3" cy="301.2" r="2.1" fill="#ffffff" opacity="0.4102669198154736"/>
<circle cx="638.8" cy="562.0" r="3.0" fill="#ffffff" opacity="0.6135904766108133"/>
<circle cx="314.3" cy="322.0" r="2.8" fill="#ffffff" opacity="0.43577902356345755"/>
<circle cx="238.8" cy="202.4" r="4.0" fill="#ffffff" opacity="0.4892463355494743"/>
<circle cx="136.1" cy="271.9" r="4.6" fill="#ffffff" opacity="0.26632473287653013"/>
<circle cx="449.9" cy="381.1" r="4.3" fill="#ffffff" opacity="0.834957680113502"/>
<circle cx="501.8" cy="527.2" r="4.7" fill="#ffffff" opacity="0.3821757600394242"/>
<circle cx="407.4" cy="400.5" r="3.2" fill="#ffffff" opacity="0.31822594962371725"/>
<circle cx="381.1" cy="359.3" r="2.3" fill="#ffffff" opacity="0.7505078719766833"/>
<circle cx="537.9" cy="212.1" r="2.5" fill="#ffffff" opacity="0.37539157140429785"/>
<circle cx="356.1" cy="377.2" r="3.4" fill="#ffffff" opacity="0.7030954978865765"/>
        <g filter="url(#glow)">
          <rect x="125.0" y="525" width="500" height="240" rx="70" fill="#ffffff" opacity="0.52" stroke="#7A5CFF" stroke-width="7"/>
          <circle cx="235.0" cy="785" r="58" fill="#ffffff" opacity="0.65" stroke="#1E1B2E" stroke-width="7"/>
          <circle cx="515.0" cy="785" r="58" fill="#ffffff" opacity="0.65" stroke="#1E1B2E" stroke-width="7"/>
          <path d="M 295.0 525 Q 375.0 425 455.0 525" fill="none" stroke="#7A5CFF" stroke-width="10" opacity="0.55" stroke-linecap="round"/>
        </g>
        
<rect x="42" y="1030" width="666" height="160" rx="30" fill="#ffffffd9" stroke="#1E1B2E" stroke-width="4" opacity="0.95"/>
<text x="375.0" y="1104" font-family="ui-sans-serif, system-ui, -apple-system, Segoe UI, Roboto, Helvetica, Arial" font-size="46" font-weight="900" text-anchor="middle" fill="#1E1B2E" opacity="0.98">The Chariot</text>
<text x="375.0" y="1152" font-family="ui-sans-serif, system-ui, -apple-system, Segoe UI, Roboto, Helvetica, Arial" font-size="28" font-weight="700" text-anchor="middle" fill="#1E1B2E" opacity="0.7">Momentum</text>

    <g opacity="0.55">
      <circle cx="127" cy="1176" r="14" fill="#7A5CFF"/>
      <circle cx="623" cy="1176" r="14" fill="#7A5CFF"/>
      <path d="M 162 1176 L 588 1176" stroke="#7A5CFF" stroke-width="4" opacity="0.45" stroke-linecap="round"/>
    </g>
    
</svg>
