<svg xmlns="http://www.w3.org/2000/svg" width="750" height="1250" viewBox="0 0 750 1250">
  <title>Strength</title>


  <defs>
    <linearGradient id="g" x1="0" y1="0" x2="1" y2="1">
      <stop offset="0%" stop-color="#DFF7F0"/>
      <stop offset="100%" stop-color="#FFF1D8"/>
    </linearGradient>

    <!-- paper texture -->
    <filter id="paper" x="-20%" y="-20%" width="140%" height="140%">
      <feTurbulence type="fractalNoise" baseFrequency="0.017" numOctaves="3" seed="735" result="noise"/>
      <feColorMatrix in="noise" type="matrix"
        values="1 0 0 0 0
                0 1 0 0 0
                0 0 1 0 0
                0 0 0 0.25 0" result="noiseAlpha"/>
      <feComposite in="noiseAlpha" in2="SourceGraphic" operator="over"/>
    </filter>

    <!-- soft glow -->
    <filter id="glow" x="-30%" y="-30%" width="160%" height="160%">
      <feGaussianBlur stdDeviation="10" result="blur"/>
      <feColorMatrix type="matrix" values="
        1 0 0 0 0
        0 1 0 0 0
        0 0 1 0 0
        0 0 0 0.32 0" result="blurAlpha"/>
      <feMerge>
        <feMergeNode in="blurAlpha"/>
        <feMergeNode in="SourceGraphic"/>
      </feMerge>
    </filter>
  </defs>

<rect x="0" y="0" width="750" height="1250" rx="58" ry="58" fill="url(#g)" stroke="none" stroke-width="0" opacity="1"/>
<rect x="0" y="0" width="750" height="1250" fill="#ffffff" opacity="0.08"/>
<line x1="373.1" y1="789.3" x2="540.1" y2="738.9" stroke="#ffffff" stroke-width="2.2" opacity="0.20"/>
<line x1="540.1" y1="738.9" x2="693.3" y2="1073.7" stroke="#ffffff" stroke-width="2.2" opacity="0.11"/>
<line x1="693.3" y1="1073.7" x2="621.2" y2="1174.7" stroke="#ffffff" stroke-width="2.2" opacity="0.16"/>
<line x1="621.2" y1="1174.7" x2="501.8" y2="450.7" stroke="#ffffff" stroke-width="2.2" opacity="0.15"/>
<line x1="501.8" y1="450.7" x2="471.4" y2="795.7" stroke="#ffffff" stroke-width="2.2" opacity="0.15"/>
<line x1="471.4" y1="795.7" x2="560.8" y2="349.1" stroke="#ffffff" stroke-width="2.2" opacity="0.22"/>
<line x1="560.8" y1="349.1" x2="213.7" y2="609.2" stroke="#ffffff" stroke-width="2.2" opacity="0.18"/>
<line x1="213.7" y1="609.2" x2="227.0" y2="180.5" stroke="#ffffff" stroke-width="2.2" opacity="0.20"/>
<line x1="227.0" y1="180.5" x2="324.8" y2="602.6" stroke="#ffffff" stroke-width="2.2" opacity="0.17"/>
<line x1="324.8" y1="602.6" x2="432.5" y2="889.4" stroke="#ffffff" stroke-width="2.2" opacity="0.18"/>
<line x1="432.5" y1="889.4" x2="468.0" y2="442.2" stroke="#ffffff" stroke-width="2.2" opacity="0.18"/>
<line x1="468.0" y1="442.2" x2="661.7" y2="785.0" stroke="#ffffff" stroke-width="2.2" opacity="0.09"/>
<line x1="661.7" y1="785.0" x2="167.4" y2="682.2" stroke="#ffffff" stroke-width="2.2" opacity="0.19"/>
<line x1="167.4" y1="682.2" x2="126.9" y2="967.8" stroke="#ffffff" stroke-width="2.2" opacity="0.10"/>
<line x1="126.9" y1="967.8" x2="175.7" y2="606.1" stroke="#ffffff" stroke-width="2.2" opacity="0.17"/>
<line x1="175.7" y1="606.1" x2="687.0" y2="316.0" stroke="#ffffff" stroke-width="2.2" opacity="0.18"/>
<line x1="687.0" y1="316.0" x2="531.0" y2="1035.9" stroke="#ffffff" stroke-width="2.2" opacity="0.13"/>
<line x1="531.0" y1="1035.9" x2="483.6" y2="638.6" stroke="#ffffff" stroke-width="2.2" opacity="0.15"/>
<circle cx="471.0" cy="1064.0" r="3.7" fill="#ffffff" opacity="0.41233450117867965"/>
<circle cx="661.7" cy="785.0" r="4.6" fill="#ffffff" opacity="0.7010009171115961"/>
<circle cx="67.8" cy="451.9" r="2.3" fill="#ffffff" opacity="0.652155305498604"/>
<circle cx="175.7" cy="606.1" r="4.3" fill="#ffffff" opacity="0.414635192152772"/>
<circle cx="373.1" cy="789.3" r="3.3" fill="#ffffff" opacity="0.30634078672463594"/>
<circle cx="595.6" cy="572.5" r="4.1" fill="#ffffff" opacity="0.8245198300442944"/>
<circle cx="565.0" cy="1164.5" r="2.2" fill="#ffffff" opacity="0.2751807304570683"/>
<circle cx="324.8" cy="602.6" r="4.3" fill="#ffffff" opacity="0.6466486827178883"/>
<circle cx="167.4" cy="682.2" r="3.5" fill="#ffffff" opacity="0.5961193840129815"/>
<circle cx="468.0" cy="442.2" r="3.7" fill="#ffffff" opacity="0.2839153193387496"/>
<circle cx="531.0" cy="1035.9" r="3.4" fill="#ffffff" opacity="0.34215602567431297"/>
<circle cx="267.3" cy="915.9" r="4.5" fill="#ffffff" opacity="0.31149272779847187"/>
<circle cx="395.6" cy="280.9" r="3.0" fill="#ffffff" opacity="0.7404174989770111"/>
<circle cx="227.0" cy="180.5" r="1.7" fill="#ffffff" opacity="0.42714165877386306"/>
<circle cx="126.9" cy="967.8" r="2.1" fill="#ffffff" opacity="0.3539061293030157"/>
<circle cx="689.6" cy="91.3" r="3.9" fill="#ffffff" opacity="0.45002082772231145"/>
<circle cx="590.5" cy="1099.4" r="1.9" fill="#ffffff" opacity="0.700100806457165"/>
<circle cx="426.4" cy="666.2" r="4.4" fill="#ffffff" opacity="0.357295440137564"/>
<circle cx="471.4" cy="795.7" r="2.3" fill="#ffffff" opacity="0.640123182037619"/>
<circle cx="45.4" cy="773.2" r="2.6" fill="#ffffff" opacity="0.6233539091696316"/>
<circle cx="333.9" cy="820.1" r="4.5" fill="#ffffff" opacity="0.6308286148285034"/>
<circle cx="432.5" cy="889.4" r="3.0" fill="#ffffff" opacity="0.5437391324741734"/>
<circle cx="693.3" cy="1073.7" r="4.0" fill="#ffffff" opacity="0.7079241658113453"/>
<circle cx="274.0" cy="522.1" r="4.5" fill="#ffffff" opacity="0.41863492141507747"/>
<circle cx="687.0" cy="316.0" r="3.2" fill="#ffffff" opacity="0.6399561484598122"/>
<circle cx="435.0" cy="265.2" r="3.4" fill="#ffffff" opacity="0.604393149163053"/>
<circle cx="443.5" cy="442.6" r="3.8" fill="#ffffff" opacity="0.2760609593088002"/>
<circle cx="371.6" cy="114.1" r="1.8" fill="#ffffff" opacity="0.5637751166932232"/>
<circle cx="493.8" cy="857.2" r="3.2" fill="#ffffff" opacity="0.2531337542673189"/>
<circle cx="136.8" cy="783.0" r="3.7" fill="#ffffff" opacity="0.6762272314940474"/>
<circle cx="635.2" cy="541.0" r="3.5" fill="#ffffff" opacity="0.4300715097361153"/>
<circle cx="501.8" cy="450.7" r="4.7" fill="#ffffff" opacity="0.8325565214808041"/>
<circle cx="137.1" cy="682.0" r="2.7" fill="#ffffff" opacity="0.7969384709318525"/>
<circle cx="533.9" cy="1065.4" r="4.3" fill="#ffffff" opacity="0.6429527736682152"/>
<circle cx="386.8" cy="367.5" r="4.6" fill="#ffffff" opacity="0.3416119827546844"/>
<circle cx="540.1" cy="738.9" r="2.6" fill="#ffffff" opacity="0.6873631697702933"/>
<circle cx="572.3" cy="825.6" r="2.6" fill="#ffffff" opacity="0.4862033197446367"/>
<circle cx="230.7" cy="1121.8" r="2.8" fill="#ffffff" opacity="0.488618020667706"/>
<circle cx="504.8" cy="429.9" r="2.8" fill="#ffffff" opacity="0.6084973670090494"/>
<circle cx="213.7" cy="609.2" r="2.6" fill="#ffffff" opacity="0.40570355345578935"/>
<circle cx="560.8" cy="349.1" r="3.3" fill="#ffffff" opacity="0.6098113310597555"/>
<circle cx="621.2" cy="1174.7" r="3.1" fill="#ffffff" opacity="0.42194666932147185"/>
<circle cx="129.1" cy="705.3" r="2.7" fill="#ffffff" opacity="0.5133018740614517"/>
<circle cx="561.4" cy="991.5" r="2.7" fill="#ffffff" opacity="0.2745252855967121"/>
<circle cx="332.7" cy="118.9" r="4.8" fill="#ffffff" opacity="0.7143264710286599"/>
<circle cx="359.4" cy="605.7" r="2.0" fill="#ffffff" opacity="0.7673474945064627"/>
<circle cx="316.4" cy="733.8" r="3.1" fill="#ffffff" opacity="0.2872130935694077"/>
<circle cx="180.3" cy="503.2" r="2.4" fill="#ffffff" opacity="0.49200475122582743"/>
<circle cx="692.2" cy="504.5" r="4.4" fill="#ffffff" opacity="0.7513174050846352"/>
<circle cx="483.6" cy="638.6" r="1.8" fill="#ffffff" opacity="0.8401832685840033"/>
<g filter="url(#paper)"><rect x="42" y="42" width="666" height="1166" rx="54" ry="54" fill="none" stroke="#1E1B2E" stroke-width="8" opacity="0.95"/>
<rect x="60" y="60" width="630" height="1130" rx="46" ry="46" fill="none" stroke="#FF7AA2" stroke-width="3" opacity="0.35"/>

  <g opacity="0.42">
    <circle cx="375.0" cy="560" r="285" fill="none" stroke="#FF7AA2" stroke-width="4.2" opacity="0.42"/>
    <circle cx="375.0" cy="560" r="233.7" fill="none" stroke="#FF7AA2" stroke-width="2.2" opacity="0.23"/>
    <line x1="642.0" y1="560.0" x2="674.0" y2="560.0" stroke="#FF7AA2" stroke-width="3.2" opacity="0.23" stroke-linecap="round"/><line x1="606.2" y1="693.5" x2="633.9" y2="709.5" stroke="#FF7AA2" stroke-width="3.2" opacity="0.23" stroke-linecap="round"/><line x1="508.5" y1="791.2" x2="524.5" y2="818.9" stroke="#FF7AA2" stroke-width="3.2" opacity="0.23" stroke-linecap="round"/><line x1="375.0" y1="827.0" x2="375.0" y2="859.0" stroke="#FF7AA2" stroke-width="3.2" opacity="0.23" stroke-linecap="round"/><line x1="241.5" y1="791.2" x2="225.5" y2="818.9" stroke="#FF7AA2" stroke-width="3.2" opacity="0.23" stroke-linecap="round"/><line x1="143.8" y1="693.5" x2="116.1" y2="709.5" stroke="#FF7AA2" stroke-width="3.2" opacity="0.23" stroke-linecap="round"/><line x1="108.0" y1="560.0" x2="76.0" y2="560.0" stroke="#FF7AA2" stroke-width="3.2" opacity="0.23" stroke-linecap="round"/><line x1="143.8" y1="426.5" x2="116.1" y2="410.5" stroke="#FF7AA2" stroke-width="3.2" opacity="0.23" stroke-linecap="round"/><line x1="241.5" y1="328.8" x2="225.5" y2="301.1" stroke="#FF7AA2" stroke-width="3.2" opacity="0.23" stroke-linecap="round"/><line x1="375.0" y1="293.0" x2="375.0" y2="261.0" stroke="#FF7AA2" stroke-width="3.2" opacity="0.23" stroke-linecap="round"/><line x1="508.5" y1="328.8" x2="524.5" y2="301.1" stroke="#FF7AA2" stroke-width="3.2" opacity="0.23" stroke-linecap="round"/><line x1="606.2" y1="426.5" x2="633.9" y2="410.5" stroke="#FF7AA2" stroke-width="3.2" opacity="0.23" stroke-linecap="round"/>
    <circle cx="660.0" cy="555.8" r="3.3" fill="#FF7AA2" opacity="0.19"/><circle cx="650.3" cy="633.5" r="4.0" fill="#FF7AA2" opacity="0.19"/><circle cx="618.5" cy="708.1" r="3.5" fill="#FF7AA2" opacity="0.44"/><circle cx="581.5" cy="756.4" r="2.8" fill="#FF7AA2" opacity="0.21"/><circle cx="525.5" cy="802.0" r="3.9" fill="#FF7AA2" opacity="0.35"/><circle cx="457.5" cy="832.8" r="3.4" fill="#FF7AA2" opacity="0.36"/><circle cx="365.7" cy="844.8" r="2.9" fill="#FF7AA2" opacity="0.37"/><circle cx="298.7" cy="834.6" r="2.9" fill="#FF7AA2" opacity="0.32"/><circle cx="239.0" cy="810.4" r="3.3" fill="#FF7AA2" opacity="0.42"/><circle cx="176.2" cy="764.2" r="2.8" fill="#FF7AA2" opacity="0.22"/><circle cx="131.2" cy="707.5" r="3.1" fill="#FF7AA2" opacity="0.24"/><circle cx="100.3" cy="635.9" r="3.2" fill="#FF7AA2" opacity="0.36"/><circle cx="90.0" cy="563.2" r="3.3" fill="#FF7AA2" opacity="0.34"/><circle cx="99.2" cy="488.2" r="3.8" fill="#FF7AA2" opacity="0.19"/><circle cx="126.4" cy="420.6" r="3.5" fill="#FF7AA2" opacity="0.31"/><circle cx="175.5" cy="356.5" r="3.5" fill="#FF7AA2" opacity="0.37"/><circle cx="233.4" cy="312.7" r="3.1" fill="#FF7AA2" opacity="0.34"/><circle cx="298.4" cy="285.5" r="3.2" fill="#FF7AA2" opacity="0.29"/><circle cx="380.4" cy="275.1" r="2.9" fill="#FF7AA2" opacity="0.22"/><circle cx="453.7" cy="286.1" r="3.0" fill="#FF7AA2" opacity="0.38"/><circle cx="514.3" cy="311.4" r="3.7" fill="#FF7AA2" opacity="0.22"/><circle cx="580.4" cy="362.4" r="3.9" fill="#FF7AA2" opacity="0.44"/><circle cx="622.2" cy="418.1" r="3.9" fill="#FF7AA2" opacity="0.32"/><circle cx="651.4" cy="490.7" r="2.8" fill="#FF7AA2" opacity="0.20"/>
  </g>

<g><g transform="translate(50,54)"><path d="M 18.0 140.4 C 39.6 63.0, 99.0 28.8, 154.8 46.8 C 126.0 86.4, 72.0 111.6, 39.6 129.6" fill="none" stroke="#FF7AA2" stroke-width="6" opacity="0.55" stroke-linecap="round"/></g><g transform="translate(700,54) scale(-1,1)"><path d="M 18.0 140.4 C 39.6 63.0, 99.0 28.8, 154.8 46.8 C 126.0 86.4, 72.0 111.6, 39.6 129.6" fill="none" stroke="#FF7AA2" stroke-width="6" opacity="0.55" stroke-linecap="round"/></g><g transform="translate(50,1196) scale(1,-1)"><path d="M 18.0 140.4 C 39.6 63.0, 99.0 28.8, 154.8 46.8 C 126.0 86.4, 72.0 111.6, 39.6 129.6" fill="none" stroke="#FF7AA2" stroke-width="6" opacity="0.55" stroke-linecap="round"/></g><g transform="translate(700,1196) scale(-1,-1)"><path d="M 18.0 140.4 C 39.6 63.0, 99.0 28.8, 154.8 46.8 C 126.0 86.4, 72.0 111.6, 39.6 129.6" fill="none" stroke="#FF7AA2" stroke-width="6" opacity="0.55" stroke-linecap="round"/></g></g></g>
<rect x="42" y="60" width="666" height="92" rx="30" fill="#ffffffcc" stroke="#1E1B2E" stroke-width="4" opacity="0.95"/>
<text x="375.0" y="122" font-family="ui-sans-serif, system-ui, -apple-system, Segoe UI, Roboto, Helvetica, Arial" font-size="30" font-weight="800" text-anchor="middle" fill="#1E1B2E" opacity="0.95" letter-spacing="1">MAJOR ARCANA • VIII</text>
<rect x="76" y="170" width="598" height="760" rx="52" fill="#ffffff" opacity="0.15"/>

        <g filter="url(#glow)">
          <circle cx="375.0" cy="545" r="170" fill="#ffffff" opacity="0.52" stroke="#FF7AA2" stroke-width="7"/>
          <path d="M 280.0 515 Q 375.0 605 470.0 515" fill="none" stroke="#1E1B2E" stroke-width="10" opacity="0.9" stroke-linecap="round"/>
          <circle cx="315.0" cy="475" r="14" fill="#1E1B2E" opacity="0.9"/>
          <circle cx="435.0" cy="475" r="14" fill="#1E1B2E" opacity="0.9"/>
          <path d="M 235.0 375 Q 375.0 305 515.0 375" fill="none" stroke="#FF7AA2" stroke-width="9" opacity="0.55" stroke-linecap="round"/>
        </g>
        <path d="M 427.7 461.7 Q 380.7 661.2 394.2 787.3 Q 421.8 667.5 384.5 568.6 Q 387.5 577.9 322.7 514.4 Q 420.6 618.7 456.7 767.1 Q 353.9 642.5 514.2 586.4 Q 342.7 674.6 430.0 617.7 Q 332.9 602.9 514.2 771.8 " fill="none" stroke="#FF7AA2" stroke-width="5.5" opacity="0.29" stroke-linecap="round" stroke-linejoin="round"/>
        
<rect x="42" y="1030" width="666" height="160" rx="30" fill="#ffffffd9" stroke="#1E1B2E" stroke-width="4" opacity="0.95"/>
<text x="375.0" y="1104" font-family="ui-sans-serif, system-ui, -apple-system, Segoe UI, Roboto, Helvetica, Arial" font-size="46" font-weight="900" text-anchor="middle" fill="#1E1B2E" opacity="0.98">Strength</text>
<text x="375.0" y="1152" font-family="ui-sans-serif, system-ui, -apple-system, Segoe UI, Roboto, Helvetica, Arial" font-size="28" font-weight="700" text-anchor="middle" fill="#1E1B2E" opacity="0.7">Bravery</text>

    <g opacity="0.55">
      <circle cx="127" cy="1176" r="14" fill="#FF7AA2"/>
      <circle cx="623" cy="1176" r="14" fill="#FF7AA2"/>
      <path d="M 162 1176 L 588 1176" stroke="#FF7AA2" stroke-width="4" opacity="0.45" stroke-linecap="round"/>
    </g>
    
</svg>
