<svg xmlns="http://www.w3.org/2000/svg" width="750" height="1250" viewBox="0 0 750 1250">
  <title>The Hermit</title>


  <defs>
    <linearGradient id="g" x1="0" y1="0" x2="1" y2="1">
      <stop offset="0%" stop-color="#E6E9FF"/>
      <stop offset="100%" stop-color="#F9E7FF"/>
    </linearGradient>

    <!-- paper texture -->
    <filter id="paper" x="-20%" y="-20%" width="140%" height="140%">
      <feTurbulence type="fractalNoise" baseFrequency="0.016" numOctaves="3" seed="9117" result="noise"/>
      <feColorMatrix in="noise" type="matrix"
        values="1 0 0 0 0
                0 1 0 0 0
                0 0 1 0 0
                0 0 0 0.25 0" result="noiseAlpha"/>
      <feComposite in="noiseAlpha" in2="SourceGraphic" operator="over"/>
    </filter>

    <!-- soft glow -->
    <filter id="glow" x="-30%" y="-30%" width="160%" height="160%">
      <feGaussianBlur stdDeviation="10" result="blur"/>
      <feColorMatrix type="matrix" values="
        1 0 0 0 0
        0 1 0 0 0
        0 0 1 0 0
        0 0 0 0.32 0" result="blurAlpha"/>
      <feMerge>
        <feMergeNode in="blurAlpha"/>
        <feMergeNode in="SourceGraphic"/>
      </feMerge>
    </filter>
  </defs>

<rect x="0" y="0" width="750" height="1250" rx="58" ry="58" fill="url(#g)" stroke="none" stroke-width="0" opacity="1"/>
<rect x="0" y="0" width="750" height="1250" fill="#ffffff" opacity="0.08"/>
<line x1="225.7" y1="66.4" x2="503.6" y2="630.3" stroke="#ffffff" stroke-width="2.2" opacity="0.19"/>
<line x1="503.6" y1="630.3" x2="309.6" y2="296.7" stroke="#ffffff" stroke-width="2.2" opacity="0.16"/>
<line x1="309.6" y1="296.7" x2="196.3" y2="538.8" stroke="#ffffff" stroke-width="2.2" opacity="0.16"/>
<line x1="196.3" y1="538.8" x2="448.4" y2="965.9" stroke="#ffffff" stroke-width="2.2" opacity="0.19"/>
<line x1="448.4" y1="965.9" x2="254.7" y2="1070.6" stroke="#ffffff" stroke-width="2.2" opacity="0.20"/>
<line x1="254.7" y1="1070.6" x2="521.3" y2="1089.5" stroke="#ffffff" stroke-width="2.2" opacity="0.08"/>
<line x1="521.3" y1="1089.5" x2="507.7" y2="150.1" stroke="#ffffff" stroke-width="2.2" opacity="0.14"/>
<line x1="507.7" y1="150.1" x2="562.4" y2="67.6" stroke="#ffffff" stroke-width="2.2" opacity="0.20"/>
<line x1="562.4" y1="67.6" x2="336.2" y2="710.9" stroke="#ffffff" stroke-width="2.2" opacity="0.15"/>
<line x1="336.2" y1="710.9" x2="70.2" y2="379.3" stroke="#ffffff" stroke-width="2.2" opacity="0.10"/>
<line x1="70.2" y1="379.3" x2="236.1" y2="587.2" stroke="#ffffff" stroke-width="2.2" opacity="0.15"/>
<line x1="236.1" y1="587.2" x2="174.6" y2="803.6" stroke="#ffffff" stroke-width="2.2" opacity="0.08"/>
<line x1="174.6" y1="803.6" x2="158.3" y2="943.6" stroke="#ffffff" stroke-width="2.2" opacity="0.11"/>
<line x1="158.3" y1="943.6" x2="70.8" y2="728.7" stroke="#ffffff" stroke-width="2.2" opacity="0.11"/>
<line x1="70.8" y1="728.7" x2="385.3" y2="903.2" stroke="#ffffff" stroke-width="2.2" opacity="0.18"/>
<line x1="385.3" y1="903.2" x2="585.9" y2="1206.3" stroke="#ffffff" stroke-width="2.2" opacity="0.08"/>
<line x1="585.9" y1="1206.3" x2="193.9" y2="704.4" stroke="#ffffff" stroke-width="2.2" opacity="0.19"/>
<line x1="193.9" y1="704.4" x2="208.0" y2="490.4" stroke="#ffffff" stroke-width="2.2" opacity="0.20"/>
<circle cx="208.0" cy="490.4" r="4.0" fill="#ffffff" opacity="0.6822776975243663"/>
<circle cx="177.9" cy="60.6" r="3.2" fill="#ffffff" opacity="0.5471311353898216"/>
<circle cx="115.7" cy="1001.3" r="3.5" fill="#ffffff" opacity="0.689689161783986"/>
<circle cx="250.7" cy="735.8" r="2.5" fill="#ffffff" opacity="0.3211073264389337"/>
<circle cx="544.1" cy="172.8" r="4.0" fill="#ffffff" opacity="0.5653881923419832"/>
<circle cx="462.8" cy="180.7" r="1.7" fill="#ffffff" opacity="0.5793281767021602"/>
<circle cx="276.6" cy="934.6" r="3.5" fill="#ffffff" opacity="0.7032718543668304"/>
<circle cx="196.3" cy="538.8" r="3.2" fill="#ffffff" opacity="0.6215725126670242"/>
<circle cx="146.2" cy="1169.9" r="2.2" fill="#ffffff" opacity="0.8243814960059148"/>
<circle cx="116.2" cy="1205.6" r="4.3" fill="#ffffff" opacity="0.7264142724940077"/>
<circle cx="70.2" cy="379.3" r="3.0" fill="#ffffff" opacity="0.30059393148690194"/>
<circle cx="428.9" cy="268.8" r="3.9" fill="#ffffff" opacity="0.48433475300093565"/>
<circle cx="225.7" cy="66.4" r="2.8" fill="#ffffff" opacity="0.839589016566989"/>
<circle cx="116.6" cy="142.2" r="2.9" fill="#ffffff" opacity="0.4123456589698087"/>
<circle cx="174.6" cy="803.6" r="1.8" fill="#ffffff" opacity="0.3007248361676844"/>
<circle cx="85.2" cy="437.1" r="4.0" fill="#ffffff" opacity="0.7908845277971605"/>
<circle cx="521.3" cy="1089.5" r="4.6" fill="#ffffff" opacity="0.6558136643671365"/>
<circle cx="485.1" cy="232.3" r="3.7" fill="#ffffff" opacity="0.8315326174422945"/>
<circle cx="235.8" cy="637.7" r="2.8" fill="#ffffff" opacity="0.6304420678173941"/>
<circle cx="309.6" cy="296.7" r="2.8" fill="#ffffff" opacity="0.797268035273091"/>
<circle cx="310.0" cy="212.5" r="2.6" fill="#ffffff" opacity="0.5811179991854059"/>
<circle cx="254.7" cy="1070.6" r="2.5" fill="#ffffff" opacity="0.8254179023293382"/>
<circle cx="503.6" cy="630.3" r="2.6" fill="#ffffff" opacity="0.4224135574938433"/>
<circle cx="672.3" cy="975.2" r="3.0" fill="#ffffff" opacity="0.4465745408618973"/>
<circle cx="333.7" cy="966.3" r="3.1" fill="#ffffff" opacity="0.2813447033003226"/>
<circle cx="158.3" cy="943.6" r="3.1" fill="#ffffff" opacity="0.442873079862663"/>
<circle cx="101.7" cy="484.5" r="3.3" fill="#ffffff" opacity="0.5836347781204172"/>
<circle cx="645.6" cy="289.4" r="1.9" fill="#ffffff" opacity="0.30086864603778307"/>
<circle cx="222.1" cy="485.6" r="2.2" fill="#ffffff" opacity="0.7655587389806848"/>
<circle cx="434.7" cy="1016.2" r="3.3" fill="#ffffff" opacity="0.39506148660249674"/>
<circle cx="507.7" cy="150.1" r="2.6" fill="#ffffff" opacity="0.689006247167032"/>
<circle cx="236.1" cy="587.2" r="2.7" fill="#ffffff" opacity="0.35079087971228196"/>
<circle cx="69.7" cy="871.0" r="4.6" fill="#ffffff" opacity="0.843404615795921"/>
<circle cx="220.9" cy="351.4" r="2.2" fill="#ffffff" opacity="0.7813674886292674"/>
<circle cx="359.9" cy="210.9" r="3.4" fill="#ffffff" opacity="0.32393190682869993"/>
<circle cx="417.3" cy="295.9" r="1.9" fill="#ffffff" opacity="0.6203306594085214"/>
<circle cx="585.9" cy="1206.3" r="2.4" fill="#ffffff" opacity="0.44980193433005"/>
<circle cx="193.9" cy="704.4" r="3.5" fill="#ffffff" opacity="0.4538150149345508"/>
<circle cx="499.0" cy="267.9" r="4.2" fill="#ffffff" opacity="0.5972487472686758"/>
<circle cx="57.0" cy="878.8" r="3.4" fill="#ffffff" opacity="0.34436474331381217"/>
<circle cx="336.2" cy="710.9" r="2.3" fill="#ffffff" opacity="0.4695314850660046"/>
<circle cx="70.8" cy="728.7" r="1.7" fill="#ffffff" opacity="0.3392342867674251"/>
<circle cx="680.5" cy="820.7" r="4.2" fill="#ffffff" opacity="0.7898318089375591"/>
<circle cx="562.4" cy="67.6" r="4.1" fill="#ffffff" opacity="0.810570266058309"/>
<circle cx="448.4" cy="965.9" r="4.7" fill="#ffffff" opacity="0.5510876384392221"/>
<circle cx="370.1" cy="877.5" r="3.3" fill="#ffffff" opacity="0.2877114157984214"/>
<circle cx="78.5" cy="75.6" r="4.8" fill="#ffffff" opacity="0.4743120654664784"/>
<circle cx="202.7" cy="800.0" r="3.7" fill="#ffffff" opacity="0.6148074780195961"/>
<circle cx="85.5" cy="259.4" r="4.2" fill="#ffffff" opacity="0.49802908557736214"/>
<circle cx="385.3" cy="903.2" r="3.6" fill="#ffffff" opacity="0.34868272291236185"/>
<g filter="url(#paper)"><rect x="42" y="42" width="666" height="1166" rx="54" ry="54" fill="none" stroke="#1E1B2E" stroke-width="8" opacity="0.95"/>
<rect x="60" y="60" width="630" height="1130" rx="46" ry="46" fill="none" stroke="#3E7BFF" stroke-width="3" opacity="0.35"/>

  <g opacity="0.42">
    <circle cx="375.0" cy="560" r="285" fill="none" stroke="#3E7BFF" stroke-width="4.2" opacity="0.42"/>
    <circle cx="375.0" cy="560" r="233.7" fill="none" stroke="#3E7BFF" stroke-width="2.2" opacity="0.23"/>
    <line x1="642.0" y1="560.0" x2="674.0" y2="560.0" stroke="#3E7BFF" stroke-width="3.2" opacity="0.23" stroke-linecap="round"/><line x1="606.2" y1="693.5" x2="633.9" y2="709.5" stroke="#3E7BFF" stroke-width="3.2" opacity="0.23" stroke-linecap="round"/><line x1="508.5" y1="791.2" x2="524.5" y2="818.9" stroke="#3E7BFF" stroke-width="3.2" opacity="0.23" stroke-linecap="round"/><line x1="375.0" y1="827.0" x2="375.0" y2="859.0" stroke="#3E7BFF" stroke-width="3.2" opacity="0.23" stroke-linecap="round"/><line x1="241.5" y1="791.2" x2="225.5" y2="818.9" stroke="#3E7BFF" stroke-width="3.2" opacity="0.23" stroke-linecap="round"/><line x1="143.8" y1="693.5" x2="116.1" y2="709.5" stroke="#3E7BFF" stroke-width="3.2" opacity="0.23" stroke-linecap="round"/><line x1="108.0" y1="560.0" x2="76.0" y2="560.0" stroke="#3E7BFF" stroke-width="3.2" opacity="0.23" stroke-linecap="round"/><line x1="143.8" y1="426.5" x2="116.1" y2="410.5" stroke="#3E7BFF" stroke-width="3.2" opacity="0.23" stroke-linecap="round"/><line x1="241.5" y1="328.8" x2="225.5" y2="301.1" stroke="#3E7BFF" stroke-width="3.2" opacity="0.23" stroke-linecap="round"/><line x1="375.0" y1="293.0" x2="375.0" y2="261.0" stroke="#3E7BFF" stroke-width="3.2" opacity="0.23" stroke-linecap="round"/><line x1="508.5" y1="328.8" x2="524.5" y2="301.1" stroke="#3E7BFF" stroke-width="3.2" opacity="0.23" stroke-linecap="round"/><line x1="606.2" y1="426.5" x2="633.9" y2="410.5" stroke="#3E7BFF" stroke-width="3.2" opacity="0.23" stroke-linecap="round"/>
    <circle cx="660.0" cy="557.8" r="3.6" fill="#3E7BFF" opacity="0.40"/><circle cx="652.0" cy="627.2" r="4.0" fill="#3E7BFF" opacity="0.19"/><circle cx="626.3" cy="694.4" r="3.6" fill="#3E7BFF" opacity="0.28"/><circle cx="573.8" cy="764.2" r="2.8" fill="#3E7BFF" opacity="0.42"/><circle cx="513.4" cy="809.1" r="3.5" fill="#3E7BFF" opacity="0.28"/><circle cx="448.8" cy="835.3" r="3.8" fill="#3E7BFF" opacity="0.34"/><circle cx="369.8" cy="845.0" r="3.8" fill="#3E7BFF" opacity="0.38"/><circle cx="309.6" cy="837.4" r="3.6" fill="#3E7BFF" opacity="0.37"/><circle cx="231.1" cy="806.0" r="3.2" fill="#3E7BFF" opacity="0.34"/><circle cx="177.2" cy="765.2" r="3.6" fill="#3E7BFF" opacity="0.20"/><circle cx="124.8" cy="696.4" r="3.3" fill="#3E7BFF" opacity="0.24"/><circle cx="99.6" cy="633.4" r="3.5" fill="#3E7BFF" opacity="0.33"/><circle cx="90.1" cy="568.9" r="3.4" fill="#3E7BFF" opacity="0.25"/><circle cx="98.4" cy="491.4" r="3.4" fill="#3E7BFF" opacity="0.35"/><circle cx="128.2" cy="417.5" r="3.7" fill="#3E7BFF" opacity="0.21"/><circle cx="174.2" cy="357.7" r="3.4" fill="#3E7BFF" opacity="0.22"/><circle cx="231.5" cy="313.8" r="3.3" fill="#3E7BFF" opacity="0.20"/><circle cx="300.0" cy="285.0" r="2.6" fill="#3E7BFF" opacity="0.18"/><circle cx="384.9" cy="275.2" r="3.6" fill="#3E7BFF" opacity="0.39"/><circle cx="455.2" cy="286.5" r="3.9" fill="#3E7BFF" opacity="0.34"/><circle cx="513.1" cy="310.7" r="3.2" fill="#3E7BFF" opacity="0.40"/><circle cx="576.2" cy="358.2" r="3.9" fill="#3E7BFF" opacity="0.35"/><circle cx="625.8" cy="424.6" r="2.9" fill="#3E7BFF" opacity="0.26"/><circle cx="648.4" cy="479.4" r="3.8" fill="#3E7BFF" opacity="0.29"/>
  </g>

<g><g transform="translate(50,54)"><path d="M 18.0 117.0 C 45.0 45.0, 99.0 27.0, 153.0 54.0" fill="none" stroke="#3E7BFF" stroke-width="6" opacity="0.55" stroke-linecap="round"/></g><g transform="translate(700,54) scale(-1,1)"><path d="M 18.0 117.0 C 45.0 45.0, 99.0 27.0, 153.0 54.0" fill="none" stroke="#3E7BFF" stroke-width="6" opacity="0.55" stroke-linecap="round"/></g><g transform="translate(50,1196) scale(1,-1)"><path d="M 18.0 117.0 C 45.0 45.0, 99.0 27.0, 153.0 54.0" fill="none" stroke="#3E7BFF" stroke-width="6" opacity="0.55" stroke-linecap="round"/></g><g transform="translate(700,1196) scale(-1,-1)"><path d="M 18.0 117.0 C 45.0 45.0, 99.0 27.0, 153.0 54.0" fill="none" stroke="#3E7BFF" stroke-width="6" opacity="0.55" stroke-linecap="round"/></g></g></g>
<rect x="42" y="60" width="666" height="92" rx="30" fill="#ffffffcc" stroke="#1E1B2E" stroke-width="4" opacity="0.95"/>
<text x="375.0" y="122" font-family="ui-sans-serif, system-ui, -apple-system, Segoe UI, Roboto, Helvetica, Arial" font-size="30" font-weight="800" text-anchor="middle" fill="#1E1B2E" opacity="0.95" letter-spacing="1">MAJOR ARCANA • IX</text>
<rect x="76" y="170" width="598" height="760" rx="52" fill="#ffffff" opacity="0.15"/>

        <g filter="url(#glow)">
          <path d="M 315.0 345 L 435.0 345 L 415.0 805 L 335.0 805 Z"
                fill="#ffffff" opacity="0.5" stroke="#3E7BFF" stroke-width="7"/>
          <circle cx="375.0" cy="305" r="62" fill="#F6D36B" opacity="0.65" stroke="#1E1B2E" stroke-width="7"/>
        </g>
        <line x1="518.1" y1="531.1" x2="457.8" y2="266.8" stroke="#ffffff" stroke-width="2.2" opacity="0.18"/>
<line x1="457.8" y1="266.8" x2="145.2" y2="442.3" stroke="#ffffff" stroke-width="2.2" opacity="0.13"/>
<line x1="145.2" y1="442.3" x2="607.9" y2="360.2" stroke="#ffffff" stroke-width="2.2" opacity="0.10"/>
<line x1="607.9" y1="360.2" x2="489.7" y2="460.9" stroke="#ffffff" stroke-width="2.2" opacity="0.21"/>
<line x1="489.7" y1="460.9" x2="479.4" y2="358.6" stroke="#ffffff" stroke-width="2.2" opacity="0.20"/>
<line x1="479.4" y1="358.6" x2="266.8" y2="440.9" stroke="#ffffff" stroke-width="2.2" opacity="0.09"/>
<line x1="266.8" y1="440.9" x2="193.4" y2="225.2" stroke="#ffffff" stroke-width="2.2" opacity="0.09"/>
<line x1="193.4" y1="225.2" x2="289.8" y2="257.8" stroke="#ffffff" stroke-width="2.2" opacity="0.10"/>
<circle cx="145.2" cy="442.3" r="2.8" fill="#ffffff" opacity="0.7985921010387347"/>
<circle cx="321.2" cy="599.0" r="2.0" fill="#ffffff" opacity="0.7337142724449011"/>
<circle cx="536.0" cy="280.5" r="3.7" fill="#ffffff" opacity="0.7701300840413766"/>
<circle cx="376.2" cy="542.0" r="4.3" fill="#ffffff" opacity="0.6564463155591939"/>
<circle cx="436.2" cy="253.2" r="3.5" fill="#ffffff" opacity="0.7526592947907044"/>
<circle cx="479.4" cy="358.6" r="4.5" fill="#ffffff" opacity="0.4724251830950838"/>
<circle cx="173.9" cy="462.3" r="4.7" fill="#ffffff" opacity="0.7779646255586596"/>
<circle cx="489.7" cy="460.9" r="3.5" fill="#ffffff" opacity="0.4419281177166001"/>
<circle cx="193.4" cy="225.2" r="3.2" fill="#ffffff" opacity="0.7358263363566884"/>
<circle cx="157.4" cy="582.2" r="2.7" fill="#ffffff" opacity="0.6285897908655282"/>
<circle cx="457.8" cy="266.8" r="1.9" fill="#ffffff" opacity="0.4004762391935904"/>
<circle cx="289.8" cy="257.8" r="2.3" fill="#ffffff" opacity="0.40806804355500825"/>
<circle cx="518.1" cy="531.1" r="1.8" fill="#ffffff" opacity="0.7320900882081942"/>
<circle cx="266.8" cy="440.9" r="4.5" fill="#ffffff" opacity="0.3955856954378462"/>
<circle cx="626.8" cy="210.4" r="3.9" fill="#ffffff" opacity="0.8081509890341654"/>
<circle cx="607.9" cy="360.2" r="2.9" fill="#ffffff" opacity="0.7031904477639772"/>
<circle cx="343.9" cy="493.6" r="3.1" fill="#ffffff" opacity="0.4510230781374606"/>
<circle cx="395.6" cy="495.0" r="2.5" fill="#ffffff" opacity="0.4206597930595812"/>
        
<rect x="42" y="1030" width="666" height="160" rx="30" fill="#ffffffd9" stroke="#1E1B2E" stroke-width="4" opacity="0.95"/>
<text x="375.0" y="1104" font-family="ui-sans-serif, system-ui, -apple-system, Segoe UI, Roboto, Helvetica, Arial" font-size="46" font-weight="900" text-anchor="middle" fill="#1E1B2E" opacity="0.98">The Hermit</text>
<text x="375.0" y="1152" font-family="ui-sans-serif, system-ui, -apple-system, Segoe UI, Roboto, Helvetica, Arial" font-size="28" font-weight="700" text-anchor="middle" fill="#1E1B2E" opacity="0.7">Guidance</text>

    <g opacity="0.55">
      <circle cx="127" cy="1176" r="14" fill="#3E7BFF"/>
      <circle cx="623" cy="1176" r="14" fill="#3E7BFF"/>
      <path d="M 162 1176 L 588 1176" stroke="#3E7BFF" stroke-width="4" opacity="0.45" stroke-linecap="round"/>
    </g>
    
</svg>
