<svg xmlns="http://www.w3.org/2000/svg" width="750" height="1250" viewBox="0 0 750 1250">
  <title>Wheel of Fortune</title>


  <defs>
    <linearGradient id="g" x1="0" y1="0" x2="1" y2="1">
      <stop offset="0%" stop-color="#EAF0FF"/>
      <stop offset="100%" stop-color="#FFF7E6"/>
    </linearGradient>

    <!-- paper texture -->
    <filter id="paper" x="-20%" y="-20%" width="140%" height="140%">
      <feTurbulence type="fractalNoise" baseFrequency="0.017" numOctaves="3" seed="669" result="noise"/>
      <feColorMatrix in="noise" type="matrix"
        values="1 0 0 0 0
                0 1 0 0 0
                0 0 1 0 0
                0 0 0 0.25 0" result="noiseAlpha"/>
      <feComposite in="noiseAlpha" in2="SourceGraphic" operator="over"/>
    </filter>

    <!-- soft glow -->
    <filter id="glow" x="-30%" y="-30%" width="160%" height="160%">
      <feGaussianBlur stdDeviation="10" result="blur"/>
      <feColorMatrix type="matrix" values="
        1 0 0 0 0
        0 1 0 0 0
        0 0 1 0 0
        0 0 0 0.32 0" result="blurAlpha"/>
      <feMerge>
        <feMergeNode in="blurAlpha"/>
        <feMergeNode in="SourceGraphic"/>
      </feMerge>
    </filter>
  </defs>

<rect x="0" y="0" width="750" height="1250" rx="58" ry="58" fill="url(#g)" stroke="none" stroke-width="0" opacity="1"/>
<rect x="0" y="0" width="750" height="1250" fill="#ffffff" opacity="0.08"/>
<line x1="213.8" y1="233.2" x2="599.2" y2="1072.5" stroke="#ffffff" stroke-width="2.2" opacity="0.17"/>
<line x1="599.2" y1="1072.5" x2="181.3" y2="985.1" stroke="#ffffff" stroke-width="2.2" opacity="0.17"/>
<line x1="181.3" y1="985.1" x2="668.4" y2="1174.7" stroke="#ffffff" stroke-width="2.2" opacity="0.10"/>
<line x1="668.4" y1="1174.7" x2="389.7" y2="634.7" stroke="#ffffff" stroke-width="2.2" opacity="0.19"/>
<line x1="389.7" y1="634.7" x2="229.2" y2="915.9" stroke="#ffffff" stroke-width="2.2" opacity="0.19"/>
<line x1="229.2" y1="915.9" x2="502.2" y2="81.2" stroke="#ffffff" stroke-width="2.2" opacity="0.12"/>
<line x1="502.2" y1="81.2" x2="499.1" y2="171.9" stroke="#ffffff" stroke-width="2.2" opacity="0.09"/>
<line x1="499.1" y1="171.9" x2="359.0" y2="337.9" stroke="#ffffff" stroke-width="2.2" opacity="0.15"/>
<line x1="359.0" y1="337.9" x2="150.9" y2="323.8" stroke="#ffffff" stroke-width="2.2" opacity="0.10"/>
<line x1="150.9" y1="323.8" x2="163.8" y2="953.7" stroke="#ffffff" stroke-width="2.2" opacity="0.17"/>
<line x1="163.8" y1="953.7" x2="209.1" y2="891.3" stroke="#ffffff" stroke-width="2.2" opacity="0.15"/>
<line x1="209.1" y1="891.3" x2="418.2" y2="695.3" stroke="#ffffff" stroke-width="2.2" opacity="0.12"/>
<line x1="418.2" y1="695.3" x2="466.3" y2="114.3" stroke="#ffffff" stroke-width="2.2" opacity="0.21"/>
<line x1="466.3" y1="114.3" x2="120.6" y2="764.1" stroke="#ffffff" stroke-width="2.2" opacity="0.20"/>
<line x1="120.6" y1="764.1" x2="691.8" y2="594.6" stroke="#ffffff" stroke-width="2.2" opacity="0.15"/>
<line x1="691.8" y1="594.6" x2="233.0" y2="905.3" stroke="#ffffff" stroke-width="2.2" opacity="0.18"/>
<line x1="233.0" y1="905.3" x2="277.2" y2="992.4" stroke="#ffffff" stroke-width="2.2" opacity="0.10"/>
<line x1="277.2" y1="992.4" x2="481.5" y2="547.2" stroke="#ffffff" stroke-width="2.2" opacity="0.18"/>
<circle cx="490.4" cy="192.3" r="4.4" fill="#ffffff" opacity="0.4760872298405724"/>
<circle cx="184.0" cy="994.6" r="3.1" fill="#ffffff" opacity="0.6907439009800134"/>
<circle cx="270.9" cy="112.2" r="2.2" fill="#ffffff" opacity="0.3633245652833579"/>
<circle cx="58.6" cy="403.5" r="3.9" fill="#ffffff" opacity="0.5163315733142915"/>
<circle cx="567.4" cy="387.0" r="2.9" fill="#ffffff" opacity="0.3383527146792677"/>
<circle cx="55.7" cy="361.6" r="4.3" fill="#ffffff" opacity="0.7256982899159854"/>
<circle cx="147.2" cy="1158.7" r="2.8" fill="#ffffff" opacity="0.3969883464828231"/>
<circle cx="640.5" cy="575.5" r="2.8" fill="#ffffff" opacity="0.6185152520192609"/>
<circle cx="513.3" cy="480.6" r="2.2" fill="#ffffff" opacity="0.2502440468078394"/>
<circle cx="215.3" cy="737.6" r="2.6" fill="#ffffff" opacity="0.5535285041360809"/>
<circle cx="499.1" cy="171.9" r="2.5" fill="#ffffff" opacity="0.6452592336661872"/>
<circle cx="481.5" cy="547.2" r="4.6" fill="#ffffff" opacity="0.6512346471928692"/>
<circle cx="75.6" cy="428.4" r="2.5" fill="#ffffff" opacity="0.7040114997918172"/>
<circle cx="369.6" cy="536.3" r="3.5" fill="#ffffff" opacity="0.8394146791203926"/>
<circle cx="209.1" cy="891.3" r="4.1" fill="#ffffff" opacity="0.3083382362110715"/>
<circle cx="120.6" cy="764.1" r="3.8" fill="#ffffff" opacity="0.5152899715933241"/>
<circle cx="553.4" cy="957.5" r="3.9" fill="#ffffff" opacity="0.6890696838678317"/>
<circle cx="359.0" cy="337.9" r="3.2" fill="#ffffff" opacity="0.7323909945156188"/>
<circle cx="389.7" cy="634.7" r="2.7" fill="#ffffff" opacity="0.743984736696216"/>
<circle cx="305.5" cy="308.2" r="2.0" fill="#ffffff" opacity="0.2626890178394527"/>
<circle cx="326.5" cy="804.8" r="3.2" fill="#ffffff" opacity="0.8348355852716086"/>
<circle cx="244.2" cy="229.2" r="4.6" fill="#ffffff" opacity="0.8192203266849731"/>
<circle cx="259.1" cy="1092.6" r="2.0" fill="#ffffff" opacity="0.6891942758062921"/>
<circle cx="699.4" cy="457.3" r="4.1" fill="#ffffff" opacity="0.4136346550676181"/>
<circle cx="649.3" cy="265.1" r="2.8" fill="#ffffff" opacity="0.8100974344060385"/>
<circle cx="691.8" cy="594.6" r="2.7" fill="#ffffff" opacity="0.669221696219493"/>
<circle cx="380.8" cy="537.3" r="2.3" fill="#ffffff" opacity="0.37612002834285735"/>
<circle cx="624.4" cy="251.4" r="2.1" fill="#ffffff" opacity="0.7204222738952524"/>
<circle cx="233.0" cy="905.3" r="3.7" fill="#ffffff" opacity="0.4940522968159409"/>
<circle cx="146.9" cy="1032.6" r="3.9" fill="#ffffff" opacity="0.8256470282675007"/>
<circle cx="466.3" cy="114.3" r="3.5" fill="#ffffff" opacity="0.32947970927898784"/>
<circle cx="452.4" cy="381.7" r="3.5" fill="#ffffff" opacity="0.38199291513261874"/>
<circle cx="181.3" cy="985.1" r="3.1" fill="#ffffff" opacity="0.465067598594939"/>
<circle cx="213.8" cy="233.2" r="1.8" fill="#ffffff" opacity="0.26140389171552547"/>
<circle cx="137.7" cy="926.3" r="2.6" fill="#ffffff" opacity="0.49518771076841894"/>
<circle cx="418.2" cy="695.3" r="2.9" fill="#ffffff" opacity="0.34732796202130056"/>
<circle cx="161.8" cy="929.5" r="2.3" fill="#ffffff" opacity="0.5966444606917514"/>
<circle cx="163.8" cy="953.7" r="3.1" fill="#ffffff" opacity="0.45329339727012985"/>
<circle cx="592.6" cy="1040.9" r="2.3" fill="#ffffff" opacity="0.8027098989208101"/>
<circle cx="150.9" cy="323.8" r="3.9" fill="#ffffff" opacity="0.36767639097353144"/>
<circle cx="229.2" cy="915.9" r="1.6" fill="#ffffff" opacity="0.7926421714246561"/>
<circle cx="299.8" cy="1032.0" r="4.8" fill="#ffffff" opacity="0.4956494372270048"/>
<circle cx="298.8" cy="140.2" r="2.6" fill="#ffffff" opacity="0.7037646799005002"/>
<circle cx="599.2" cy="1072.5" r="4.1" fill="#ffffff" opacity="0.4330853417434599"/>
<circle cx="277.2" cy="992.4" r="2.5" fill="#ffffff" opacity="0.6655629573237458"/>
<circle cx="116.5" cy="388.5" r="1.7" fill="#ffffff" opacity="0.6847162678933152"/>
<circle cx="502.2" cy="81.2" r="2.8" fill="#ffffff" opacity="0.36636871090139017"/>
<circle cx="188.6" cy="427.1" r="2.8" fill="#ffffff" opacity="0.5942796454733608"/>
<circle cx="668.4" cy="1174.7" r="4.7" fill="#ffffff" opacity="0.3937649811537619"/>
<circle cx="96.5" cy="501.9" r="4.6" fill="#ffffff" opacity="0.5638578488198522"/>
<g filter="url(#paper)"><rect x="42" y="42" width="666" height="1166" rx="54" ry="54" fill="none" stroke="#1E1B2E" stroke-width="8" opacity="0.95"/>
<rect x="60" y="60" width="630" height="1130" rx="46" ry="46" fill="none" stroke="#5E60CE" stroke-width="3" opacity="0.35"/>

  <g opacity="0.42">
    <circle cx="375.0" cy="560" r="285" fill="none" stroke="#5E60CE" stroke-width="4.2" opacity="0.42"/>
    <circle cx="375.0" cy="560" r="233.7" fill="none" stroke="#5E60CE" stroke-width="2.2" opacity="0.23"/>
    <line x1="642.0" y1="560.0" x2="674.0" y2="560.0" stroke="#5E60CE" stroke-width="3.2" opacity="0.23" stroke-linecap="round"/><line x1="606.2" y1="693.5" x2="633.9" y2="709.5" stroke="#5E60CE" stroke-width="3.2" opacity="0.23" stroke-linecap="round"/><line x1="508.5" y1="791.2" x2="524.5" y2="818.9" stroke="#5E60CE" stroke-width="3.2" opacity="0.23" stroke-linecap="round"/><line x1="375.0" y1="827.0" x2="375.0" y2="859.0" stroke="#5E60CE" stroke-width="3.2" opacity="0.23" stroke-linecap="round"/><line x1="241.5" y1="791.2" x2="225.5" y2="818.9" stroke="#5E60CE" stroke-width="3.2" opacity="0.23" stroke-linecap="round"/><line x1="143.8" y1="693.5" x2="116.1" y2="709.5" stroke="#5E60CE" stroke-width="3.2" opacity="0.23" stroke-linecap="round"/><line x1="108.0" y1="560.0" x2="76.0" y2="560.0" stroke="#5E60CE" stroke-width="3.2" opacity="0.23" stroke-linecap="round"/><line x1="143.8" y1="426.5" x2="116.1" y2="410.5" stroke="#5E60CE" stroke-width="3.2" opacity="0.23" stroke-linecap="round"/><line x1="241.5" y1="328.8" x2="225.5" y2="301.1" stroke="#5E60CE" stroke-width="3.2" opacity="0.23" stroke-linecap="round"/><line x1="375.0" y1="293.0" x2="375.0" y2="261.0" stroke="#5E60CE" stroke-width="3.2" opacity="0.23" stroke-linecap="round"/><line x1="508.5" y1="328.8" x2="524.5" y2="301.1" stroke="#5E60CE" stroke-width="3.2" opacity="0.23" stroke-linecap="round"/><line x1="606.2" y1="426.5" x2="633.9" y2="410.5" stroke="#5E60CE" stroke-width="3.2" opacity="0.23" stroke-linecap="round"/>
    <circle cx="659.9" cy="552.0" r="2.8" fill="#5E60CE" opacity="0.34"/><circle cx="651.2" cy="630.3" r="3.6" fill="#5E60CE" opacity="0.26"/><circle cx="619.0" cy="707.2" r="3.0" fill="#5E60CE" opacity="0.23"/><circle cx="577.0" cy="761.0" r="4.0" fill="#5E60CE" opacity="0.32"/><circle cx="509.6" cy="811.2" r="3.4" fill="#5E60CE" opacity="0.37"/><circle cx="444.0" cy="836.5" r="3.5" fill="#5E60CE" opacity="0.45"/><circle cx="380.2" cy="845.0" r="2.6" fill="#5E60CE" opacity="0.42"/><circle cx="308.1" cy="837.0" r="2.7" fill="#5E60CE" opacity="0.39"/><circle cx="227.7" cy="804.0" r="2.9" fill="#5E60CE" opacity="0.21"/><circle cx="175.7" cy="763.8" r="3.8" fill="#5E60CE" opacity="0.42"/><circle cx="129.1" cy="704.1" r="3.5" fill="#5E60CE" opacity="0.40"/><circle cx="98.7" cy="630.0" r="3.5" fill="#5E60CE" opacity="0.27"/><circle cx="90.1" cy="554.5" r="3.5" fill="#5E60CE" opacity="0.33"/><circle cx="101.0" cy="481.4" r="3.1" fill="#5E60CE" opacity="0.37"/><circle cx="130.1" cy="414.2" r="2.9" fill="#5E60CE" opacity="0.40"/><circle cx="180.6" cy="351.6" r="3.6" fill="#5E60CE" opacity="0.22"/><circle cx="233.2" cy="312.8" r="3.0" fill="#5E60CE" opacity="0.26"/><circle cx="293.9" cy="286.8" r="2.8" fill="#5E60CE" opacity="0.42"/><circle cx="368.6" cy="275.1" r="3.2" fill="#5E60CE" opacity="0.21"/><circle cx="444.8" cy="283.7" r="3.7" fill="#5E60CE" opacity="0.19"/><circle cx="524.6" cy="317.4" r="3.6" fill="#5E60CE" opacity="0.41"/><circle cx="572.7" cy="354.8" r="3.4" fill="#5E60CE" opacity="0.33"/><circle cx="625.8" cy="424.6" r="3.0" fill="#5E60CE" opacity="0.37"/><circle cx="649.8" cy="484.5" r="3.1" fill="#5E60CE" opacity="0.23"/>
  </g>

<g><g transform="translate(50,54)"><path d="M 18.0 140.4 C 39.6 63.0, 99.0 28.8, 154.8 46.8 C 126.0 86.4, 72.0 111.6, 39.6 129.6" fill="none" stroke="#5E60CE" stroke-width="6" opacity="0.55" stroke-linecap="round"/></g><g transform="translate(700,54) scale(-1,1)"><path d="M 18.0 140.4 C 39.6 63.0, 99.0 28.8, 154.8 46.8 C 126.0 86.4, 72.0 111.6, 39.6 129.6" fill="none" stroke="#5E60CE" stroke-width="6" opacity="0.55" stroke-linecap="round"/></g><g transform="translate(50,1196) scale(1,-1)"><path d="M 18.0 140.4 C 39.6 63.0, 99.0 28.8, 154.8 46.8 C 126.0 86.4, 72.0 111.6, 39.6 129.6" fill="none" stroke="#5E60CE" stroke-width="6" opacity="0.55" stroke-linecap="round"/></g><g transform="translate(700,1196) scale(-1,-1)"><path d="M 18.0 140.4 C 39.6 63.0, 99.0 28.8, 154.8 46.8 C 126.0 86.4, 72.0 111.6, 39.6 129.6" fill="none" stroke="#5E60CE" stroke-width="6" opacity="0.55" stroke-linecap="round"/></g></g></g>
<rect x="42" y="60" width="666" height="92" rx="30" fill="#ffffffcc" stroke="#1E1B2E" stroke-width="4" opacity="0.95"/>
<text x="375.0" y="122" font-family="ui-sans-serif, system-ui, -apple-system, Segoe UI, Roboto, Helvetica, Arial" font-size="30" font-weight="800" text-anchor="middle" fill="#1E1B2E" opacity="0.95" letter-spacing="1">MAJOR ARCANA • X</text>
<rect x="76" y="170" width="598" height="760" rx="52" fill="#ffffff" opacity="0.15"/>

        <g filter="url(#glow)">
          <circle cx="375.0" cy="565" r="235" fill="#ffffff" opacity="0.45" stroke="#5E60CE" stroke-width="7"/>
          <circle cx="375.0" cy="565" r="125" fill="none" stroke="#1E1B2E" stroke-width="8" opacity="0.7"/>
          <line x1="140.0" y1="565" x2="610.0" y2="565" stroke="#5E60CE" stroke-width="7" opacity="0.35"/>
          <line x1="375.0" y1="330" x2="375.0" y2="800" stroke="#5E60CE" stroke-width="7" opacity="0.35"/>
          <path d="M 229.3 593.5 Q 346.7 544.1 448.6 582.4 Q 343.9 564.1 387.7 434.8 Q 365.1 611.5 401.0 499.4 Q 361.6 595.8 317.0 441.7 Q 381.2 589.8 406.0 477.3 " fill="none" stroke="#5E60CE" stroke-width="5.5" opacity="0.30" stroke-linecap="round" stroke-linejoin="round"/>
        </g>
        
<rect x="42" y="1030" width="666" height="160" rx="30" fill="#ffffffd9" stroke="#1E1B2E" stroke-width="4" opacity="0.95"/>
<text x="375.0" y="1104" font-family="ui-sans-serif, system-ui, -apple-system, Segoe UI, Roboto, Helvetica, Arial" font-size="46" font-weight="900" text-anchor="middle" fill="#1E1B2E" opacity="0.98">Wheel of Fortune</text>
<text x="375.0" y="1152" font-family="ui-sans-serif, system-ui, -apple-system, Segoe UI, Roboto, Helvetica, Arial" font-size="28" font-weight="700" text-anchor="middle" fill="#1E1B2E" opacity="0.7">Flow</text>

    <g opacity="0.55">
      <circle cx="127" cy="1176" r="14" fill="#5E60CE"/>
      <circle cx="623" cy="1176" r="14" fill="#5E60CE"/>
      <path d="M 162 1176 L 588 1176" stroke="#5E60CE" stroke-width="4" opacity="0.45" stroke-linecap="round"/>
    </g>
    
</svg>
