<svg xmlns="http://www.w3.org/2000/svg" width="750" height="1250" viewBox="0 0 750 1250">
  <title>Justice</title>


  <defs>
    <linearGradient id="g" x1="0" y1="0" x2="1" y2="1">
      <stop offset="0%" stop-color="#F5FFE6"/>
      <stop offset="100%" stop-color="#E6E9FF"/>
    </linearGradient>

    <!-- paper texture -->
    <filter id="paper" x="-20%" y="-20%" width="140%" height="140%">
      <feTurbulence type="fractalNoise" baseFrequency="0.017" numOctaves="3" seed="9295" result="noise"/>
      <feColorMatrix in="noise" type="matrix"
        values="1 0 0 0 0
                0 1 0 0 0
                0 0 1 0 0
                0 0 0 0.25 0" result="noiseAlpha"/>
      <feComposite in="noiseAlpha" in2="SourceGraphic" operator="over"/>
    </filter>

    <!-- soft glow -->
    <filter id="glow" x="-30%" y="-30%" width="160%" height="160%">
      <feGaussianBlur stdDeviation="10" result="blur"/>
      <feColorMatrix type="matrix" values="
        1 0 0 0 0
        0 1 0 0 0
        0 0 1 0 0
        0 0 0 0.32 0" result="blurAlpha"/>
      <feMerge>
        <feMergeNode in="blurAlpha"/>
        <feMergeNode in="SourceGraphic"/>
      </feMerge>
    </filter>
  </defs>

<rect x="0" y="0" width="750" height="1250" rx="58" ry="58" fill="url(#g)" stroke="none" stroke-width="0" opacity="1"/>
<rect x="0" y="0" width="750" height="1250" fill="#ffffff" opacity="0.08"/>
<line x1="404.4" y1="450.9" x2="440.3" y2="882.7" stroke="#ffffff" stroke-width="2.2" opacity="0.19"/>
<line x1="440.3" y1="882.7" x2="422.3" y2="343.7" stroke="#ffffff" stroke-width="2.2" opacity="0.12"/>
<line x1="422.3" y1="343.7" x2="581.0" y2="650.7" stroke="#ffffff" stroke-width="2.2" opacity="0.21"/>
<line x1="581.0" y1="650.7" x2="72.7" y2="294.3" stroke="#ffffff" stroke-width="2.2" opacity="0.16"/>
<line x1="72.7" y1="294.3" x2="696.1" y2="1038.1" stroke="#ffffff" stroke-width="2.2" opacity="0.14"/>
<line x1="696.1" y1="1038.1" x2="672.1" y2="476.9" stroke="#ffffff" stroke-width="2.2" opacity="0.13"/>
<line x1="672.1" y1="476.9" x2="681.8" y2="337.4" stroke="#ffffff" stroke-width="2.2" opacity="0.10"/>
<line x1="681.8" y1="337.4" x2="112.2" y2="361.4" stroke="#ffffff" stroke-width="2.2" opacity="0.11"/>
<line x1="112.2" y1="361.4" x2="124.1" y2="278.6" stroke="#ffffff" stroke-width="2.2" opacity="0.18"/>
<line x1="124.1" y1="278.6" x2="448.0" y2="492.9" stroke="#ffffff" stroke-width="2.2" opacity="0.22"/>
<line x1="448.0" y1="492.9" x2="557.0" y2="168.9" stroke="#ffffff" stroke-width="2.2" opacity="0.19"/>
<line x1="557.0" y1="168.9" x2="100.3" y2="902.8" stroke="#ffffff" stroke-width="2.2" opacity="0.08"/>
<line x1="100.3" y1="902.8" x2="498.7" y2="846.9" stroke="#ffffff" stroke-width="2.2" opacity="0.11"/>
<line x1="498.7" y1="846.9" x2="236.6" y2="773.4" stroke="#ffffff" stroke-width="2.2" opacity="0.21"/>
<line x1="236.6" y1="773.4" x2="122.1" y2="408.7" stroke="#ffffff" stroke-width="2.2" opacity="0.18"/>
<line x1="122.1" y1="408.7" x2="68.7" y2="55.2" stroke="#ffffff" stroke-width="2.2" opacity="0.19"/>
<line x1="68.7" y1="55.2" x2="361.5" y2="1058.7" stroke="#ffffff" stroke-width="2.2" opacity="0.15"/>
<line x1="361.5" y1="1058.7" x2="203.7" y2="97.5" stroke="#ffffff" stroke-width="2.2" opacity="0.21"/>
<circle cx="361.5" cy="1058.7" r="2.2" fill="#ffffff" opacity="0.33045886502037003"/>
<circle cx="681.8" cy="337.4" r="3.6" fill="#ffffff" opacity="0.5385704231719348"/>
<circle cx="464.9" cy="860.9" r="3.3" fill="#ffffff" opacity="0.27823346640987984"/>
<circle cx="112.2" cy="361.4" r="2.7" fill="#ffffff" opacity="0.4824066977734681"/>
<circle cx="672.1" cy="476.9" r="1.7" fill="#ffffff" opacity="0.7291030701168896"/>
<circle cx="96.1" cy="560.8" r="2.9" fill="#ffffff" opacity="0.669900380003237"/>
<circle cx="461.9" cy="167.4" r="1.6" fill="#ffffff" opacity="0.8192320926970267"/>
<circle cx="210.7" cy="662.8" r="2.6" fill="#ffffff" opacity="0.4892480211118161"/>
<circle cx="177.4" cy="225.4" r="3.6" fill="#ffffff" opacity="0.28061695072361803"/>
<circle cx="353.5" cy="683.1" r="1.7" fill="#ffffff" opacity="0.43141500119218246"/>
<circle cx="404.4" cy="450.9" r="1.9" fill="#ffffff" opacity="0.30171131391093853"/>
<circle cx="410.1" cy="982.9" r="2.9" fill="#ffffff" opacity="0.7340145489393092"/>
<circle cx="186.5" cy="821.3" r="1.8" fill="#ffffff" opacity="0.5683365680207784"/>
<circle cx="609.6" cy="833.0" r="2.6" fill="#ffffff" opacity="0.6909996503649478"/>
<circle cx="440.3" cy="882.7" r="4.1" fill="#ffffff" opacity="0.3356006059293013"/>
<circle cx="174.7" cy="246.3" r="2.4" fill="#ffffff" opacity="0.6213114406023239"/>
<circle cx="72.7" cy="294.3" r="4.3" fill="#ffffff" opacity="0.4893130824756826"/>
<circle cx="592.7" cy="786.5" r="3.4" fill="#ffffff" opacity="0.44728099151631573"/>
<circle cx="682.9" cy="612.3" r="3.6" fill="#ffffff" opacity="0.497496527545238"/>
<circle cx="122.1" cy="408.7" r="2.6" fill="#ffffff" opacity="0.36363753774536517"/>
<circle cx="68.7" cy="55.2" r="3.6" fill="#ffffff" opacity="0.4457940700229166"/>
<circle cx="422.3" cy="343.7" r="3.8" fill="#ffffff" opacity="0.48228021777703006"/>
<circle cx="487.1" cy="472.0" r="4.3" fill="#ffffff" opacity="0.7752145159180237"/>
<circle cx="372.5" cy="1197.2" r="4.0" fill="#ffffff" opacity="0.7749951548985574"/>
<circle cx="293.5" cy="50.2" r="4.7" fill="#ffffff" opacity="0.6284687008227484"/>
<circle cx="404.3" cy="356.8" r="3.7" fill="#ffffff" opacity="0.7839177604918066"/>
<circle cx="124.1" cy="278.6" r="4.0" fill="#ffffff" opacity="0.7163861752134255"/>
<circle cx="371.4" cy="707.2" r="1.7" fill="#ffffff" opacity="0.6249985562120363"/>
<circle cx="581.0" cy="650.7" r="4.7" fill="#ffffff" opacity="0.8420527854196309"/>
<circle cx="389.7" cy="565.2" r="3.8" fill="#ffffff" opacity="0.4517428847890699"/>
<circle cx="594.4" cy="1007.6" r="4.0" fill="#ffffff" opacity="0.40470622153651503"/>
<circle cx="227.8" cy="275.2" r="2.1" fill="#ffffff" opacity="0.6227206922943374"/>
<circle cx="439.5" cy="223.8" r="4.2" fill="#ffffff" opacity="0.4245943758402132"/>
<circle cx="236.5" cy="756.2" r="2.2" fill="#ffffff" opacity="0.6941191251921834"/>
<circle cx="100.3" cy="902.8" r="2.7" fill="#ffffff" opacity="0.6436971720059179"/>
<circle cx="597.7" cy="1107.3" r="4.5" fill="#ffffff" opacity="0.7029046276076671"/>
<circle cx="696.1" cy="1038.1" r="1.7" fill="#ffffff" opacity="0.7588586948206799"/>
<circle cx="209.9" cy="781.0" r="2.8" fill="#ffffff" opacity="0.6468804192806223"/>
<circle cx="190.1" cy="1105.9" r="3.9" fill="#ffffff" opacity="0.717859242877263"/>
<circle cx="601.3" cy="216.4" r="3.7" fill="#ffffff" opacity="0.3509379855833563"/>
<circle cx="498.7" cy="846.9" r="4.4" fill="#ffffff" opacity="0.8210992397138239"/>
<circle cx="208.7" cy="656.4" r="4.4" fill="#ffffff" opacity="0.5182199293405758"/>
<circle cx="236.6" cy="773.4" r="3.0" fill="#ffffff" opacity="0.5560097923372317"/>
<circle cx="557.0" cy="168.9" r="3.1" fill="#ffffff" opacity="0.7431932073623814"/>
<circle cx="448.0" cy="492.9" r="2.5" fill="#ffffff" opacity="0.33004233426952"/>
<circle cx="251.5" cy="76.6" r="1.6" fill="#ffffff" opacity="0.5109337539255321"/>
<circle cx="685.8" cy="139.7" r="3.8" fill="#ffffff" opacity="0.7888279035385717"/>
<circle cx="146.4" cy="966.0" r="3.6" fill="#ffffff" opacity="0.693924011214363"/>
<circle cx="203.7" cy="97.5" r="3.8" fill="#ffffff" opacity="0.28657014239852246"/>
<circle cx="533.4" cy="383.5" r="4.1" fill="#ffffff" opacity="0.2897735087203484"/>
<g filter="url(#paper)"><rect x="42" y="42" width="666" height="1166" rx="54" ry="54" fill="none" stroke="#1E1B2E" stroke-width="8" opacity="0.95"/>
<rect x="60" y="60" width="630" height="1130" rx="46" ry="46" fill="none" stroke="#2F80ED" stroke-width="3" opacity="0.35"/>

  <g opacity="0.42">
    <circle cx="375.0" cy="560" r="285" fill="none" stroke="#2F80ED" stroke-width="4.2" opacity="0.42"/>
    <circle cx="375.0" cy="560" r="233.7" fill="none" stroke="#2F80ED" stroke-width="2.2" opacity="0.23"/>
    <line x1="642.0" y1="560.0" x2="674.0" y2="560.0" stroke="#2F80ED" stroke-width="3.2" opacity="0.23" stroke-linecap="round"/><line x1="606.2" y1="693.5" x2="633.9" y2="709.5" stroke="#2F80ED" stroke-width="3.2" opacity="0.23" stroke-linecap="round"/><line x1="508.5" y1="791.2" x2="524.5" y2="818.9" stroke="#2F80ED" stroke-width="3.2" opacity="0.23" stroke-linecap="round"/><line x1="375.0" y1="827.0" x2="375.0" y2="859.0" stroke="#2F80ED" stroke-width="3.2" opacity="0.23" stroke-linecap="round"/><line x1="241.5" y1="791.2" x2="225.5" y2="818.9" stroke="#2F80ED" stroke-width="3.2" opacity="0.23" stroke-linecap="round"/><line x1="143.8" y1="693.5" x2="116.1" y2="709.5" stroke="#2F80ED" stroke-width="3.2" opacity="0.23" stroke-linecap="round"/><line x1="108.0" y1="560.0" x2="76.0" y2="560.0" stroke="#2F80ED" stroke-width="3.2" opacity="0.23" stroke-linecap="round"/><line x1="143.8" y1="426.5" x2="116.1" y2="410.5" stroke="#2F80ED" stroke-width="3.2" opacity="0.23" stroke-linecap="round"/><line x1="241.5" y1="328.8" x2="225.5" y2="301.1" stroke="#2F80ED" stroke-width="3.2" opacity="0.23" stroke-linecap="round"/><line x1="375.0" y1="293.0" x2="375.0" y2="261.0" stroke="#2F80ED" stroke-width="3.2" opacity="0.23" stroke-linecap="round"/><line x1="508.5" y1="328.8" x2="524.5" y2="301.1" stroke="#2F80ED" stroke-width="3.2" opacity="0.23" stroke-linecap="round"/><line x1="606.2" y1="426.5" x2="633.9" y2="410.5" stroke="#2F80ED" stroke-width="3.2" opacity="0.23" stroke-linecap="round"/>
    <circle cx="660.0" cy="564.3" r="2.7" fill="#2F80ED" opacity="0.43"/><circle cx="651.6" cy="628.5" r="3.3" fill="#2F80ED" opacity="0.31"/><circle cx="626.4" cy="694.3" r="3.4" fill="#2F80ED" opacity="0.25"/><circle cx="569.9" cy="767.9" r="3.0" fill="#2F80ED" opacity="0.19"/><circle cx="520.2" cy="805.2" r="2.7" fill="#2F80ED" opacity="0.41"/><circle cx="458.3" cy="832.6" r="3.9" fill="#2F80ED" opacity="0.24"/><circle cx="380.8" cy="844.9" r="3.8" fill="#2F80ED" opacity="0.40"/><circle cx="307.4" cy="836.9" r="2.7" fill="#2F80ED" opacity="0.35"/><circle cx="229.0" cy="804.7" r="3.7" fill="#2F80ED" opacity="0.44"/><circle cx="174.6" cy="762.7" r="2.9" fill="#2F80ED" opacity="0.21"/><circle cx="128.8" cy="703.5" r="3.9" fill="#2F80ED" opacity="0.35"/><circle cx="99.8" cy="634.1" r="3.4" fill="#2F80ED" opacity="0.30"/><circle cx="90.1" cy="568.5" r="2.7" fill="#2F80ED" opacity="0.24"/><circle cx="100.1" cy="484.7" r="3.8" fill="#2F80ED" opacity="0.39"/><circle cx="129.5" cy="415.2" r="3.2" fill="#2F80ED" opacity="0.31"/><circle cx="175.7" cy="356.3" r="2.7" fill="#2F80ED" opacity="0.19"/><circle cx="227.0" cy="316.4" r="3.7" fill="#2F80ED" opacity="0.44"/><circle cx="300.6" cy="284.9" r="3.7" fill="#2F80ED" opacity="0.29"/><circle cx="382.2" cy="275.1" r="3.4" fill="#2F80ED" opacity="0.35"/><circle cx="454.3" cy="286.2" r="3.8" fill="#2F80ED" opacity="0.35"/><circle cx="517.7" cy="313.3" r="3.2" fill="#2F80ED" opacity="0.30"/><circle cx="579.4" cy="361.4" r="3.7" fill="#2F80ED" opacity="0.18"/><circle cx="623.8" cy="420.9" r="3.6" fill="#2F80ED" opacity="0.37"/><circle cx="652.6" cy="495.4" r="4.0" fill="#2F80ED" opacity="0.38"/>
  </g>

<g><g transform="translate(50,54)"><path d="M 14.4 117.0 C 54.0 14.4, 126.0 14.4, 165.6 117.0" fill="none" stroke="#2F80ED" stroke-width="6" opacity="0.55" stroke-linecap="round"/></g><g transform="translate(700,54) scale(-1,1)"><path d="M 14.4 117.0 C 54.0 14.4, 126.0 14.4, 165.6 117.0" fill="none" stroke="#2F80ED" stroke-width="6" opacity="0.55" stroke-linecap="round"/></g><g transform="translate(50,1196) scale(1,-1)"><path d="M 14.4 117.0 C 54.0 14.4, 126.0 14.4, 165.6 117.0" fill="none" stroke="#2F80ED" stroke-width="6" opacity="0.55" stroke-linecap="round"/></g><g transform="translate(700,1196) scale(-1,-1)"><path d="M 14.4 117.0 C 54.0 14.4, 126.0 14.4, 165.6 117.0" fill="none" stroke="#2F80ED" stroke-width="6" opacity="0.55" stroke-linecap="round"/></g></g></g>
<rect x="42" y="60" width="666" height="92" rx="30" fill="#ffffffcc" stroke="#1E1B2E" stroke-width="4" opacity="0.95"/>
<text x="375.0" y="122" font-family="ui-sans-serif, system-ui, -apple-system, Segoe UI, Roboto, Helvetica, Arial" font-size="30" font-weight="800" text-anchor="middle" fill="#1E1B2E" opacity="0.95" letter-spacing="1">MAJOR ARCANA • XI</text>
<rect x="76" y="170" width="598" height="760" rx="52" fill="#ffffff" opacity="0.15"/>

        <g filter="url(#glow)">
          <line x1="375.0" y1="325" x2="375.0" y2="815" stroke="#1E1B2E" stroke-width="12" stroke-linecap="round" opacity="0.9"/>
          <line x1="135.0" y1="425" x2="615.0" y2="425" stroke="#2F80ED" stroke-width="10" stroke-linecap="round" opacity="0.45"/>
          <path d="M 195.0 425 L 235.0 575 L 155.0 575 Z" fill="#ffffff" opacity="0.55" stroke="#1E1B2E" stroke-width="7"/>
          <path d="M 555.0 425 L 515.0 575 L 595.0 575 Z" fill="#ffffff" opacity="0.55" stroke="#1E1B2E" stroke-width="7"/>
        </g>
        
  <g opacity="0.2">
    <circle cx="375.0" cy="565" r="250" fill="none" stroke="#2F80ED" stroke-width="4.2" opacity="0.2"/>
    <circle cx="375.0" cy="565" r="205.0" fill="none" stroke="#2F80ED" stroke-width="2.2" opacity="0.11"/>
    <line x1="607.0" y1="565.0" x2="639.0" y2="565.0" stroke="#2F80ED" stroke-width="3.2" opacity="0.11" stroke-linecap="round"/><line x1="575.9" y1="681.0" x2="603.6" y2="697.0" stroke="#2F80ED" stroke-width="3.2" opacity="0.11" stroke-linecap="round"/><line x1="491.0" y1="765.9" x2="507.0" y2="793.6" stroke="#2F80ED" stroke-width="3.2" opacity="0.11" stroke-linecap="round"/><line x1="375.0" y1="797.0" x2="375.0" y2="829.0" stroke="#2F80ED" stroke-width="3.2" opacity="0.11" stroke-linecap="round"/><line x1="259.0" y1="765.9" x2="243.0" y2="793.6" stroke="#2F80ED" stroke-width="3.2" opacity="0.11" stroke-linecap="round"/><line x1="174.1" y1="681.0" x2="146.4" y2="697.0" stroke="#2F80ED" stroke-width="3.2" opacity="0.11" stroke-linecap="round"/><line x1="143.0" y1="565.0" x2="111.0" y2="565.0" stroke="#2F80ED" stroke-width="3.2" opacity="0.11" stroke-linecap="round"/><line x1="174.1" y1="449.0" x2="146.4" y2="433.0" stroke="#2F80ED" stroke-width="3.2" opacity="0.11" stroke-linecap="round"/><line x1="259.0" y1="364.1" x2="243.0" y2="336.4" stroke="#2F80ED" stroke-width="3.2" opacity="0.11" stroke-linecap="round"/><line x1="375.0" y1="333.0" x2="375.0" y2="301.0" stroke="#2F80ED" stroke-width="3.2" opacity="0.11" stroke-linecap="round"/><line x1="491.0" y1="364.1" x2="507.0" y2="336.4" stroke="#2F80ED" stroke-width="3.2" opacity="0.11" stroke-linecap="round"/><line x1="575.9" y1="449.0" x2="603.6" y2="433.0" stroke="#2F80ED" stroke-width="3.2" opacity="0.11" stroke-linecap="round"/>
    <circle cx="625.0" cy="564.8" r="3.0" fill="#2F80ED" opacity="0.42"/><circle cx="614.8" cy="635.6" r="3.6" fill="#2F80ED" opacity="0.32"/><circle cx="592.6" cy="688.1" r="3.9" fill="#2F80ED" opacity="0.31"/><circle cx="553.3" cy="740.2" r="2.9" fill="#2F80ED" opacity="0.31"/><circle cx="492.5" cy="785.7" r="3.2" fill="#2F80ED" opacity="0.24"/><circle cx="440.1" cy="806.4" r="3.3" fill="#2F80ED" opacity="0.36"/><circle cx="371.8" cy="815.0" r="3.1" fill="#2F80ED" opacity="0.21"/><circle cx="303.1" cy="804.4" r="2.8" fill="#2F80ED" opacity="0.42"/><circle cx="256.0" cy="784.9" r="3.8" fill="#2F80ED" opacity="0.42"/><circle cx="193.2" cy="736.6" r="3.4" fill="#2F80ED" opacity="0.27"/><circle cx="159.0" cy="690.8" r="3.6" fill="#2F80ED" opacity="0.42"/><circle cx="134.7" cy="634.0" r="4.0" fill="#2F80ED" opacity="0.30"/><circle cx="125.0" cy="564.4" r="2.8" fill="#2F80ED" opacity="0.36"/><circle cx="132.5" cy="504.3" r="2.9" fill="#2F80ED" opacity="0.26"/><circle cx="154.6" cy="446.9" r="3.1" fill="#2F80ED" opacity="0.35"/><circle cx="200.9" cy="385.6" r="3.8" fill="#2F80ED" opacity="0.33"/><circle cx="243.2" cy="352.6" r="3.2" fill="#2F80ED" opacity="0.20"/><circle cx="309.4" cy="323.7" r="3.3" fill="#2F80ED" opacity="0.40"/><circle cx="380.7" cy="315.1" r="2.9" fill="#2F80ED" opacity="0.36"/><circle cx="437.7" cy="323.0" r="2.6" fill="#2F80ED" opacity="0.31"/><circle cx="500.0" cy="348.5" r="2.9" fill="#2F80ED" opacity="0.38"/><circle cx="556.2" cy="392.7" r="3.8" fill="#2F80ED" opacity="0.18"/><circle cx="589.9" cy="437.3" r="3.7" fill="#2F80ED" opacity="0.36"/><circle cx="618.2" cy="507.2" r="3.4" fill="#2F80ED" opacity="0.22"/>
  </g>

        
<rect x="42" y="1030" width="666" height="160" rx="30" fill="#ffffffd9" stroke="#1E1B2E" stroke-width="4" opacity="0.95"/>
<text x="375.0" y="1104" font-family="ui-sans-serif, system-ui, -apple-system, Segoe UI, Roboto, Helvetica, Arial" font-size="46" font-weight="900" text-anchor="middle" fill="#1E1B2E" opacity="0.98">Justice</text>
<text x="375.0" y="1152" font-family="ui-sans-serif, system-ui, -apple-system, Segoe UI, Roboto, Helvetica, Arial" font-size="28" font-weight="700" text-anchor="middle" fill="#1E1B2E" opacity="0.7">Balance</text>

    <g opacity="0.55">
      <circle cx="127" cy="1176" r="14" fill="#2F80ED"/>
      <circle cx="623" cy="1176" r="14" fill="#2F80ED"/>
      <path d="M 162 1176 L 588 1176" stroke="#2F80ED" stroke-width="4" opacity="0.45" stroke-linecap="round"/>
    </g>
    
</svg>
