<svg xmlns="http://www.w3.org/2000/svg" width="750" height="1250" viewBox="0 0 750 1250">
  <title>Death</title>


  <defs>
    <linearGradient id="g" x1="0" y1="0" x2="1" y2="1">
      <stop offset="0%" stop-color="#FDE2FF"/>
      <stop offset="100%" stop-color="#D6F5FF"/>
    </linearGradient>

    <!-- paper texture -->
    <filter id="paper" x="-20%" y="-20%" width="140%" height="140%">
      <feTurbulence type="fractalNoise" baseFrequency="0.020" numOctaves="3" seed="7857" result="noise"/>
      <feColorMatrix in="noise" type="matrix"
        values="1 0 0 0 0
                0 1 0 0 0
                0 0 1 0 0
                0 0 0 0.25 0" result="noiseAlpha"/>
      <feComposite in="noiseAlpha" in2="SourceGraphic" operator="over"/>
    </filter>

    <!-- soft glow -->
    <filter id="glow" x="-30%" y="-30%" width="160%" height="160%">
      <feGaussianBlur stdDeviation="10" result="blur"/>
      <feColorMatrix type="matrix" values="
        1 0 0 0 0
        0 1 0 0 0
        0 0 1 0 0
        0 0 0 0.32 0" result="blurAlpha"/>
      <feMerge>
        <feMergeNode in="blurAlpha"/>
        <feMergeNode in="SourceGraphic"/>
      </feMerge>
    </filter>
  </defs>

<rect x="0" y="0" width="750" height="1250" rx="58" ry="58" fill="url(#g)" stroke="none" stroke-width="0" opacity="1"/>
<rect x="0" y="0" width="750" height="1250" fill="#ffffff" opacity="0.08"/>
<line x1="254.3" y1="514.8" x2="476.6" y2="114.5" stroke="#ffffff" stroke-width="2.2" opacity="0.18"/>
<line x1="476.6" y1="114.5" x2="399.8" y2="486.3" stroke="#ffffff" stroke-width="2.2" opacity="0.12"/>
<line x1="399.8" y1="486.3" x2="425.0" y2="1072.5" stroke="#ffffff" stroke-width="2.2" opacity="0.17"/>
<line x1="425.0" y1="1072.5" x2="669.6" y2="1172.9" stroke="#ffffff" stroke-width="2.2" opacity="0.13"/>
<line x1="669.6" y1="1172.9" x2="241.1" y2="920.4" stroke="#ffffff" stroke-width="2.2" opacity="0.08"/>
<line x1="241.1" y1="920.4" x2="507.0" y2="253.8" stroke="#ffffff" stroke-width="2.2" opacity="0.13"/>
<line x1="507.0" y1="253.8" x2="534.6" y2="971.9" stroke="#ffffff" stroke-width="2.2" opacity="0.11"/>
<line x1="534.6" y1="971.9" x2="583.6" y2="1105.8" stroke="#ffffff" stroke-width="2.2" opacity="0.18"/>
<line x1="583.6" y1="1105.8" x2="75.7" y2="162.2" stroke="#ffffff" stroke-width="2.2" opacity="0.10"/>
<line x1="75.7" y1="162.2" x2="131.2" y2="1171.8" stroke="#ffffff" stroke-width="2.2" opacity="0.09"/>
<line x1="131.2" y1="1171.8" x2="667.4" y2="639.2" stroke="#ffffff" stroke-width="2.2" opacity="0.08"/>
<line x1="667.4" y1="639.2" x2="438.8" y2="884.4" stroke="#ffffff" stroke-width="2.2" opacity="0.15"/>
<line x1="438.8" y1="884.4" x2="191.7" y2="111.1" stroke="#ffffff" stroke-width="2.2" opacity="0.19"/>
<line x1="191.7" y1="111.1" x2="104.5" y2="725.6" stroke="#ffffff" stroke-width="2.2" opacity="0.11"/>
<line x1="104.5" y1="725.6" x2="482.3" y2="1202.1" stroke="#ffffff" stroke-width="2.2" opacity="0.15"/>
<line x1="482.3" y1="1202.1" x2="283.7" y2="105.4" stroke="#ffffff" stroke-width="2.2" opacity="0.12"/>
<line x1="283.7" y1="105.4" x2="57.8" y2="1169.9" stroke="#ffffff" stroke-width="2.2" opacity="0.12"/>
<line x1="57.8" y1="1169.9" x2="700.9" y2="584.1" stroke="#ffffff" stroke-width="2.2" opacity="0.09"/>
<circle cx="283.7" cy="105.4" r="2.5" fill="#ffffff" opacity="0.7878615172028095"/>
<circle cx="700.9" cy="584.1" r="2.8" fill="#ffffff" opacity="0.4518304703272884"/>
<circle cx="334.4" cy="566.5" r="4.3" fill="#ffffff" opacity="0.3472855780094265"/>
<circle cx="516.0" cy="409.5" r="2.7" fill="#ffffff" opacity="0.7119543927944934"/>
<circle cx="522.1" cy="1148.9" r="3.3" fill="#ffffff" opacity="0.6685963782495714"/>
<circle cx="210.3" cy="184.0" r="3.5" fill="#ffffff" opacity="0.6802164324697741"/>
<circle cx="474.3" cy="219.9" r="2.0" fill="#ffffff" opacity="0.4811036593028861"/>
<circle cx="667.4" cy="639.2" r="1.7" fill="#ffffff" opacity="0.32410433613630496"/>
<circle cx="294.1" cy="553.9" r="3.6" fill="#ffffff" opacity="0.7349113667596611"/>
<circle cx="534.6" cy="971.9" r="4.3" fill="#ffffff" opacity="0.6681429906765115"/>
<circle cx="643.8" cy="150.3" r="3.1" fill="#ffffff" opacity="0.3377556329757519"/>
<circle cx="57.8" cy="1169.9" r="4.5" fill="#ffffff" opacity="0.27135321508938837"/>
<circle cx="85.1" cy="1188.5" r="2.1" fill="#ffffff" opacity="0.7238732641614803"/>
<circle cx="328.3" cy="929.2" r="4.0" fill="#ffffff" opacity="0.5257453228317055"/>
<circle cx="329.2" cy="908.1" r="4.0" fill="#ffffff" opacity="0.5306624728775569"/>
<circle cx="669.6" cy="1172.9" r="2.7" fill="#ffffff" opacity="0.3127428125419403"/>
<circle cx="127.2" cy="759.3" r="3.5" fill="#ffffff" opacity="0.3216102240341074"/>
<circle cx="366.0" cy="127.1" r="3.7" fill="#ffffff" opacity="0.7334423197807183"/>
<circle cx="53.2" cy="354.9" r="2.2" fill="#ffffff" opacity="0.46570367225102427"/>
<circle cx="104.5" cy="725.6" r="1.8" fill="#ffffff" opacity="0.7592888627106421"/>
<circle cx="583.6" cy="150.5" r="2.1" fill="#ffffff" opacity="0.37176266126485125"/>
<circle cx="143.1" cy="279.0" r="1.7" fill="#ffffff" opacity="0.8222348935714532"/>
<circle cx="425.0" cy="1072.5" r="3.6" fill="#ffffff" opacity="0.2855410230894819"/>
<circle cx="507.0" cy="253.8" r="4.6" fill="#ffffff" opacity="0.7436994791448469"/>
<circle cx="129.9" cy="253.9" r="4.5" fill="#ffffff" opacity="0.6164283003036182"/>
<circle cx="254.3" cy="514.8" r="4.4" fill="#ffffff" opacity="0.5193871668370544"/>
<circle cx="508.3" cy="258.5" r="2.9" fill="#ffffff" opacity="0.26175931946623004"/>
<circle cx="602.6" cy="469.5" r="4.4" fill="#ffffff" opacity="0.5556180763443398"/>
<circle cx="65.8" cy="59.0" r="2.6" fill="#ffffff" opacity="0.623644137308391"/>
<circle cx="438.8" cy="884.4" r="3.5" fill="#ffffff" opacity="0.795653985016955"/>
<circle cx="510.7" cy="1122.8" r="2.5" fill="#ffffff" opacity="0.5129600430904206"/>
<circle cx="147.7" cy="826.5" r="1.9" fill="#ffffff" opacity="0.6733655407334245"/>
<circle cx="667.0" cy="1098.7" r="1.9" fill="#ffffff" opacity="0.664531960803602"/>
<circle cx="75.7" cy="162.2" r="2.6" fill="#ffffff" opacity="0.3967060413820772"/>
<circle cx="476.6" cy="114.5" r="1.8" fill="#ffffff" opacity="0.5612356048810085"/>
<circle cx="294.8" cy="549.8" r="3.2" fill="#ffffff" opacity="0.6097665456425415"/>
<circle cx="399.8" cy="486.3" r="4.0" fill="#ffffff" opacity="0.7566299080524298"/>
<circle cx="581.5" cy="529.2" r="1.9" fill="#ffffff" opacity="0.26118249030427915"/>
<circle cx="583.6" cy="1105.8" r="2.9" fill="#ffffff" opacity="0.38896591792925844"/>
<circle cx="376.2" cy="746.3" r="1.9" fill="#ffffff" opacity="0.7979980479996415"/>
<circle cx="131.2" cy="1171.8" r="1.9" fill="#ffffff" opacity="0.7300339962280962"/>
<circle cx="241.1" cy="920.4" r="4.5" fill="#ffffff" opacity="0.310434797183065"/>
<circle cx="699.0" cy="580.4" r="4.2" fill="#ffffff" opacity="0.3277396038914418"/>
<circle cx="105.3" cy="335.6" r="3.8" fill="#ffffff" opacity="0.33156826695341"/>
<circle cx="482.3" cy="1202.1" r="3.6" fill="#ffffff" opacity="0.748328394071734"/>
<circle cx="191.7" cy="111.1" r="2.3" fill="#ffffff" opacity="0.6980687764700957"/>
<circle cx="471.6" cy="1070.0" r="3.8" fill="#ffffff" opacity="0.8410930439202012"/>
<circle cx="701.4" cy="474.0" r="2.7" fill="#ffffff" opacity="0.25423008327997226"/>
<circle cx="241.1" cy="535.1" r="3.8" fill="#ffffff" opacity="0.6099469319974395"/>
<circle cx="612.4" cy="894.1" r="4.6" fill="#ffffff" opacity="0.3017259225716921"/>
<g filter="url(#paper)"><rect x="42" y="42" width="666" height="1166" rx="54" ry="54" fill="none" stroke="#1E1B2E" stroke-width="8" opacity="0.95"/>
<rect x="60" y="60" width="630" height="1130" rx="46" ry="46" fill="none" stroke="#7A5CFF" stroke-width="3" opacity="0.35"/>

  <g opacity="0.42">
    <circle cx="375.0" cy="560" r="285" fill="none" stroke="#7A5CFF" stroke-width="4.2" opacity="0.42"/>
    <circle cx="375.0" cy="560" r="233.7" fill="none" stroke="#7A5CFF" stroke-width="2.2" opacity="0.23"/>
    <line x1="642.0" y1="560.0" x2="674.0" y2="560.0" stroke="#7A5CFF" stroke-width="3.2" opacity="0.23" stroke-linecap="round"/><line x1="606.2" y1="693.5" x2="633.9" y2="709.5" stroke="#7A5CFF" stroke-width="3.2" opacity="0.23" stroke-linecap="round"/><line x1="508.5" y1="791.2" x2="524.5" y2="818.9" stroke="#7A5CFF" stroke-width="3.2" opacity="0.23" stroke-linecap="round"/><line x1="375.0" y1="827.0" x2="375.0" y2="859.0" stroke="#7A5CFF" stroke-width="3.2" opacity="0.23" stroke-linecap="round"/><line x1="241.5" y1="791.2" x2="225.5" y2="818.9" stroke="#7A5CFF" stroke-width="3.2" opacity="0.23" stroke-linecap="round"/><line x1="143.8" y1="693.5" x2="116.1" y2="709.5" stroke="#7A5CFF" stroke-width="3.2" opacity="0.23" stroke-linecap="round"/><line x1="108.0" y1="560.0" x2="76.0" y2="560.0" stroke="#7A5CFF" stroke-width="3.2" opacity="0.23" stroke-linecap="round"/><line x1="143.8" y1="426.5" x2="116.1" y2="410.5" stroke="#7A5CFF" stroke-width="3.2" opacity="0.23" stroke-linecap="round"/><line x1="241.5" y1="328.8" x2="225.5" y2="301.1" stroke="#7A5CFF" stroke-width="3.2" opacity="0.23" stroke-linecap="round"/><line x1="375.0" y1="293.0" x2="375.0" y2="261.0" stroke="#7A5CFF" stroke-width="3.2" opacity="0.23" stroke-linecap="round"/><line x1="508.5" y1="328.8" x2="524.5" y2="301.1" stroke="#7A5CFF" stroke-width="3.2" opacity="0.23" stroke-linecap="round"/><line x1="606.2" y1="426.5" x2="633.9" y2="410.5" stroke="#7A5CFF" stroke-width="3.2" opacity="0.23" stroke-linecap="round"/>
    <circle cx="659.9" cy="567.4" r="2.7" fill="#7A5CFF" opacity="0.40"/><circle cx="651.6" cy="628.6" r="2.6" fill="#7A5CFF" opacity="0.26"/><circle cx="621.9" cy="702.4" r="3.4" fill="#7A5CFF" opacity="0.24"/><circle cx="578.7" cy="759.3" r="3.9" fill="#7A5CFF" opacity="0.18"/><circle cx="519.0" cy="806.0" r="3.7" fill="#7A5CFF" opacity="0.39"/><circle cx="456.2" cy="833.2" r="2.8" fill="#7A5CFF" opacity="0.29"/><circle cx="379.2" cy="845.0" r="3.0" fill="#7A5CFF" opacity="0.43"/><circle cx="306.4" cy="836.6" r="3.4" fill="#7A5CFF" opacity="0.39"/><circle cx="225.2" cy="802.5" r="4.0" fill="#7A5CFF" opacity="0.19"/><circle cx="176.5" cy="764.5" r="3.5" fill="#7A5CFF" opacity="0.25"/><circle cx="124.0" cy="695.0" r="3.8" fill="#7A5CFF" opacity="0.38"/><circle cx="100.8" cy="637.7" r="3.1" fill="#7A5CFF" opacity="0.22"/><circle cx="90.0" cy="559.2" r="2.8" fill="#7A5CFF" opacity="0.42"/><circle cx="99.1" cy="488.5" r="3.3" fill="#7A5CFF" opacity="0.21"/><circle cx="132.5" cy="410.2" r="3.1" fill="#7A5CFF" opacity="0.32"/><circle cx="176.5" cy="355.5" r="3.8" fill="#7A5CFF" opacity="0.28"/><circle cx="224.6" cy="317.9" r="3.4" fill="#7A5CFF" opacity="0.38"/><circle cx="310.7" cy="282.4" r="3.1" fill="#7A5CFF" opacity="0.28"/><circle cx="370.7" cy="275.0" r="4.0" fill="#7A5CFF" opacity="0.34"/><circle cx="452.0" cy="285.6" r="2.9" fill="#7A5CFF" opacity="0.25"/><circle cx="514.9" cy="311.7" r="3.2" fill="#7A5CFF" opacity="0.36"/><circle cx="578.9" cy="360.9" r="3.4" fill="#7A5CFF" opacity="0.37"/><circle cx="620.5" cy="415.2" r="4.0" fill="#7A5CFF" opacity="0.35"/><circle cx="652.3" cy="494.3" r="3.7" fill="#7A5CFF" opacity="0.41"/>
  </g>

<g><g transform="translate(50,54)"><path d="M 18.0 140.4 C 39.6 63.0, 99.0 28.8, 154.8 46.8 C 126.0 86.4, 72.0 111.6, 39.6 129.6" fill="none" stroke="#7A5CFF" stroke-width="6" opacity="0.55" stroke-linecap="round"/></g><g transform="translate(700,54) scale(-1,1)"><path d="M 18.0 140.4 C 39.6 63.0, 99.0 28.8, 154.8 46.8 C 126.0 86.4, 72.0 111.6, 39.6 129.6" fill="none" stroke="#7A5CFF" stroke-width="6" opacity="0.55" stroke-linecap="round"/></g><g transform="translate(50,1196) scale(1,-1)"><path d="M 18.0 140.4 C 39.6 63.0, 99.0 28.8, 154.8 46.8 C 126.0 86.4, 72.0 111.6, 39.6 129.6" fill="none" stroke="#7A5CFF" stroke-width="6" opacity="0.55" stroke-linecap="round"/></g><g transform="translate(700,1196) scale(-1,-1)"><path d="M 18.0 140.4 C 39.6 63.0, 99.0 28.8, 154.8 46.8 C 126.0 86.4, 72.0 111.6, 39.6 129.6" fill="none" stroke="#7A5CFF" stroke-width="6" opacity="0.55" stroke-linecap="round"/></g></g></g>
<rect x="42" y="60" width="666" height="92" rx="30" fill="#ffffffcc" stroke="#1E1B2E" stroke-width="4" opacity="0.95"/>
<text x="375.0" y="122" font-family="ui-sans-serif, system-ui, -apple-system, Segoe UI, Roboto, Helvetica, Arial" font-size="30" font-weight="800" text-anchor="middle" fill="#1E1B2E" opacity="0.95" letter-spacing="1">MAJOR ARCANA • XIII</text>
<rect x="76" y="170" width="598" height="760" rx="52" fill="#ffffff" opacity="0.15"/>

        <g filter="url(#glow)">
          <circle cx="375.0" cy="565" r="70" fill="#ffffff" opacity="0.65" stroke="#1E1B2E" stroke-width="7"/>
          <path d="M 305.0 550 Q 115.0 385 165.0 595 Q 205.0 765 305.0 605 Z"
                fill="#ffffff" opacity="0.42" stroke="#7A5CFF" stroke-width="7"/>
          <path d="M 445.0 550 Q 635.0 385 585.0 595 Q 545.0 765 445.0 605 Z"
                fill="#ffffff" opacity="0.42" stroke="#7A5CFF" stroke-width="7"/>
        </g>
        <line x1="369.5" y1="497.8" x2="343.8" y2="463.1" stroke="#ffffff" stroke-width="2.2" opacity="0.08"/>
<line x1="343.8" y1="463.1" x2="647.1" y2="438.1" stroke="#ffffff" stroke-width="2.2" opacity="0.08"/>
<line x1="647.1" y1="438.1" x2="423.6" y2="204.4" stroke="#ffffff" stroke-width="2.2" opacity="0.17"/>
<line x1="423.6" y1="204.4" x2="556.7" y2="357.7" stroke="#ffffff" stroke-width="2.2" opacity="0.22"/>
<line x1="556.7" y1="357.7" x2="515.6" y2="238.0" stroke="#ffffff" stroke-width="2.2" opacity="0.16"/>
<line x1="515.6" y1="238.0" x2="434.7" y2="214.5" stroke="#ffffff" stroke-width="2.2" opacity="0.14"/>
<line x1="434.7" y1="214.5" x2="604.9" y2="563.2" stroke="#ffffff" stroke-width="2.2" opacity="0.17"/>
<line x1="604.9" y1="563.2" x2="199.5" y2="577.3" stroke="#ffffff" stroke-width="2.2" opacity="0.16"/>
<line x1="199.5" y1="577.3" x2="422.7" y2="440.9" stroke="#ffffff" stroke-width="2.2" opacity="0.14"/>
<circle cx="343.8" cy="463.1" r="2.8" fill="#ffffff" opacity="0.7905195924233389"/>
<circle cx="636.9" cy="595.5" r="2.6" fill="#ffffff" opacity="0.39730726134417527"/>
<circle cx="434.7" cy="214.5" r="3.4" fill="#ffffff" opacity="0.5544728651740717"/>
<circle cx="636.8" cy="320.8" r="3.3" fill="#ffffff" opacity="0.7999423768130102"/>
<circle cx="369.5" cy="497.8" r="2.7" fill="#ffffff" opacity="0.6601647742454511"/>
<circle cx="486.2" cy="592.8" r="3.5" fill="#ffffff" opacity="0.32243777042928434"/>
<circle cx="270.8" cy="430.6" r="4.5" fill="#ffffff" opacity="0.6833792677579644"/>
<circle cx="627.2" cy="454.6" r="4.7" fill="#ffffff" opacity="0.40676565382851687"/>
<circle cx="248.6" cy="270.6" r="2.2" fill="#ffffff" opacity="0.591689653717584"/>
<circle cx="647.1" cy="438.1" r="3.3" fill="#ffffff" opacity="0.5515274538651846"/>
<circle cx="423.3" cy="463.3" r="4.5" fill="#ffffff" opacity="0.7448331838290597"/>
<circle cx="199.5" cy="577.3" r="3.7" fill="#ffffff" opacity="0.4379094957724347"/>
<circle cx="463.6" cy="214.5" r="3.7" fill="#ffffff" opacity="0.6140364966934643"/>
<circle cx="556.7" cy="357.7" r="3.8" fill="#ffffff" opacity="0.26902294424352236"/>
<circle cx="363.7" cy="194.5" r="1.9" fill="#ffffff" opacity="0.7832423286886109"/>
<circle cx="590.7" cy="552.7" r="2.1" fill="#ffffff" opacity="0.7158189912024497"/>
<circle cx="597.2" cy="500.8" r="4.6" fill="#ffffff" opacity="0.3532689204515883"/>
<circle cx="422.7" cy="440.9" r="2.6" fill="#ffffff" opacity="0.30388946905096337"/>
<circle cx="198.0" cy="312.2" r="3.0" fill="#ffffff" opacity="0.6105883700998396"/>
<circle cx="255.5" cy="425.0" r="3.5" fill="#ffffff" opacity="0.2967703458534311"/>
<circle cx="423.6" cy="204.4" r="1.7" fill="#ffffff" opacity="0.3850402883980808"/>
<circle cx="515.6" cy="238.0" r="2.6" fill="#ffffff" opacity="0.66738222322806"/>
<circle cx="255.1" cy="201.6" r="2.8" fill="#ffffff" opacity="0.6849219242988842"/>
<circle cx="604.9" cy="563.2" r="3.8" fill="#ffffff" opacity="0.4947638662691456"/>
        
<rect x="42" y="1030" width="666" height="160" rx="30" fill="#ffffffd9" stroke="#1E1B2E" stroke-width="4" opacity="0.95"/>
<text x="375.0" y="1104" font-family="ui-sans-serif, system-ui, -apple-system, Segoe UI, Roboto, Helvetica, Arial" font-size="46" font-weight="900" text-anchor="middle" fill="#1E1B2E" opacity="0.98">Death</text>
<text x="375.0" y="1152" font-family="ui-sans-serif, system-ui, -apple-system, Segoe UI, Roboto, Helvetica, Arial" font-size="28" font-weight="700" text-anchor="middle" fill="#1E1B2E" opacity="0.7">Renewal</text>

    <g opacity="0.55">
      <circle cx="127" cy="1176" r="14" fill="#7A5CFF"/>
      <circle cx="623" cy="1176" r="14" fill="#7A5CFF"/>
      <path d="M 162 1176 L 588 1176" stroke="#7A5CFF" stroke-width="4" opacity="0.45" stroke-linecap="round"/>
    </g>
    
</svg>
