<svg xmlns="http://www.w3.org/2000/svg" width="750" height="1250" viewBox="0 0 750 1250">
  <title>Temperance</title>


  <defs>
    <linearGradient id="g" x1="0" y1="0" x2="1" y2="1">
      <stop offset="0%" stop-color="#E7FFFB"/>
      <stop offset="100%" stop-color="#FCEBFF"/>
    </linearGradient>

    <!-- paper texture -->
    <filter id="paper" x="-20%" y="-20%" width="140%" height="140%">
      <feTurbulence type="fractalNoise" baseFrequency="0.019" numOctaves="3" seed="4964" result="noise"/>
      <feColorMatrix in="noise" type="matrix"
        values="1 0 0 0 0
                0 1 0 0 0
                0 0 1 0 0
                0 0 0 0.25 0" result="noiseAlpha"/>
      <feComposite in="noiseAlpha" in2="SourceGraphic" operator="over"/>
    </filter>

    <!-- soft glow -->
    <filter id="glow" x="-30%" y="-30%" width="160%" height="160%">
      <feGaussianBlur stdDeviation="10" result="blur"/>
      <feColorMatrix type="matrix" values="
        1 0 0 0 0
        0 1 0 0 0
        0 0 1 0 0
        0 0 0 0.32 0" result="blurAlpha"/>
      <feMerge>
        <feMergeNode in="blurAlpha"/>
        <feMergeNode in="SourceGraphic"/>
      </feMerge>
    </filter>
  </defs>

<rect x="0" y="0" width="750" height="1250" rx="58" ry="58" fill="url(#g)" stroke="none" stroke-width="0" opacity="1"/>
<rect x="0" y="0" width="750" height="1250" fill="#ffffff" opacity="0.08"/>
<line x1="167.2" y1="304.9" x2="682.4" y2="401.5" stroke="#ffffff" stroke-width="2.2" opacity="0.16"/>
<line x1="682.4" y1="401.5" x2="105.8" y2="1021.5" stroke="#ffffff" stroke-width="2.2" opacity="0.16"/>
<line x1="105.8" y1="1021.5" x2="305.9" y2="300.8" stroke="#ffffff" stroke-width="2.2" opacity="0.22"/>
<line x1="305.9" y1="300.8" x2="678.2" y2="613.8" stroke="#ffffff" stroke-width="2.2" opacity="0.09"/>
<line x1="678.2" y1="613.8" x2="677.9" y2="58.3" stroke="#ffffff" stroke-width="2.2" opacity="0.09"/>
<line x1="677.9" y1="58.3" x2="419.1" y2="1174.8" stroke="#ffffff" stroke-width="2.2" opacity="0.10"/>
<line x1="419.1" y1="1174.8" x2="234.3" y2="769.0" stroke="#ffffff" stroke-width="2.2" opacity="0.18"/>
<line x1="234.3" y1="769.0" x2="140.9" y2="627.0" stroke="#ffffff" stroke-width="2.2" opacity="0.16"/>
<line x1="140.9" y1="627.0" x2="281.3" y2="683.7" stroke="#ffffff" stroke-width="2.2" opacity="0.12"/>
<line x1="281.3" y1="683.7" x2="334.9" y2="954.8" stroke="#ffffff" stroke-width="2.2" opacity="0.15"/>
<line x1="334.9" y1="954.8" x2="506.8" y2="943.7" stroke="#ffffff" stroke-width="2.2" opacity="0.10"/>
<line x1="506.8" y1="943.7" x2="198.2" y2="684.7" stroke="#ffffff" stroke-width="2.2" opacity="0.09"/>
<line x1="198.2" y1="684.7" x2="172.4" y2="754.1" stroke="#ffffff" stroke-width="2.2" opacity="0.16"/>
<line x1="172.4" y1="754.1" x2="143.1" y2="1187.1" stroke="#ffffff" stroke-width="2.2" opacity="0.16"/>
<line x1="143.1" y1="1187.1" x2="316.4" y2="1099.0" stroke="#ffffff" stroke-width="2.2" opacity="0.21"/>
<line x1="316.4" y1="1099.0" x2="85.5" y2="504.5" stroke="#ffffff" stroke-width="2.2" opacity="0.19"/>
<line x1="85.5" y1="504.5" x2="560.1" y2="1136.4" stroke="#ffffff" stroke-width="2.2" opacity="0.16"/>
<line x1="560.1" y1="1136.4" x2="560.5" y2="529.6" stroke="#ffffff" stroke-width="2.2" opacity="0.11"/>
<circle cx="634.9" cy="142.9" r="2.3" fill="#ffffff" opacity="0.8257154827154679"/>
<circle cx="137.0" cy="423.5" r="4.4" fill="#ffffff" opacity="0.5956436082640362"/>
<circle cx="439.9" cy="509.4" r="4.2" fill="#ffffff" opacity="0.75585744690095"/>
<circle cx="561.3" cy="654.4" r="4.4" fill="#ffffff" opacity="0.39087072139776236"/>
<circle cx="546.9" cy="271.3" r="2.5" fill="#ffffff" opacity="0.5321960194169102"/>
<circle cx="560.1" cy="1136.4" r="3.2" fill="#ffffff" opacity="0.4121609982361808"/>
<circle cx="260.3" cy="686.6" r="3.5" fill="#ffffff" opacity="0.7197285674534131"/>
<circle cx="453.9" cy="458.6" r="2.5" fill="#ffffff" opacity="0.393571679348786"/>
<circle cx="172.4" cy="754.1" r="3.0" fill="#ffffff" opacity="0.5675490438380877"/>
<circle cx="677.9" cy="58.3" r="1.8" fill="#ffffff" opacity="0.25746326529377234"/>
<circle cx="327.7" cy="748.5" r="2.0" fill="#ffffff" opacity="0.8347891077249531"/>
<circle cx="143.1" cy="1187.1" r="1.9" fill="#ffffff" opacity="0.5063620811075302"/>
<circle cx="440.9" cy="1083.6" r="2.9" fill="#ffffff" opacity="0.5447865157546599"/>
<circle cx="682.4" cy="401.5" r="1.7" fill="#ffffff" opacity="0.25408505570489825"/>
<circle cx="334.9" cy="954.8" r="3.0" fill="#ffffff" opacity="0.40639012791538837"/>
<circle cx="661.0" cy="888.6" r="4.4" fill="#ffffff" opacity="0.3760726861490842"/>
<circle cx="474.0" cy="908.0" r="3.8" fill="#ffffff" opacity="0.48180740307398917"/>
<circle cx="140.9" cy="627.0" r="2.8" fill="#ffffff" opacity="0.6937002853316994"/>
<circle cx="142.9" cy="496.1" r="2.3" fill="#ffffff" opacity="0.5864044273786343"/>
<circle cx="537.1" cy="57.9" r="2.0" fill="#ffffff" opacity="0.2622515590082128"/>
<circle cx="506.8" cy="943.7" r="4.0" fill="#ffffff" opacity="0.4712483768210639"/>
<circle cx="632.9" cy="403.4" r="4.5" fill="#ffffff" opacity="0.8373246384206379"/>
<circle cx="167.2" cy="304.9" r="2.4" fill="#ffffff" opacity="0.3110481986459836"/>
<circle cx="560.5" cy="529.6" r="3.5" fill="#ffffff" opacity="0.6566304450664022"/>
<circle cx="505.4" cy="1057.1" r="4.3" fill="#ffffff" opacity="0.6746931016679387"/>
<circle cx="419.1" cy="1174.8" r="2.5" fill="#ffffff" opacity="0.4726397658635239"/>
<circle cx="281.3" cy="683.7" r="2.8" fill="#ffffff" opacity="0.2896863842443538"/>
<circle cx="234.3" cy="769.0" r="3.8" fill="#ffffff" opacity="0.714514966038611"/>
<circle cx="57.2" cy="692.2" r="3.3" fill="#ffffff" opacity="0.29221601116906887"/>
<circle cx="189.9" cy="307.3" r="3.0" fill="#ffffff" opacity="0.6099562039067464"/>
<circle cx="198.2" cy="684.7" r="3.6" fill="#ffffff" opacity="0.3628673907404899"/>
<circle cx="42.3" cy="420.0" r="4.8" fill="#ffffff" opacity="0.2850077701359264"/>
<circle cx="327.1" cy="211.8" r="3.2" fill="#ffffff" opacity="0.6373662651235856"/>
<circle cx="350.4" cy="837.2" r="3.5" fill="#ffffff" opacity="0.7410281782257694"/>
<circle cx="631.4" cy="452.1" r="2.7" fill="#ffffff" opacity="0.48546098647709035"/>
<circle cx="678.2" cy="613.8" r="3.1" fill="#ffffff" opacity="0.5889328654175858"/>
<circle cx="306.6" cy="912.8" r="4.6" fill="#ffffff" opacity="0.6921897727242654"/>
<circle cx="100.0" cy="813.9" r="2.9" fill="#ffffff" opacity="0.5423424842731419"/>
<circle cx="544.2" cy="920.5" r="4.3" fill="#ffffff" opacity="0.7591709926624257"/>
<circle cx="316.4" cy="1099.0" r="4.8" fill="#ffffff" opacity="0.8454079924801555"/>
<circle cx="436.2" cy="586.3" r="3.8" fill="#ffffff" opacity="0.7981510575954988"/>
<circle cx="644.0" cy="319.6" r="2.1" fill="#ffffff" opacity="0.4633615718522901"/>
<circle cx="305.9" cy="300.8" r="4.0" fill="#ffffff" opacity="0.5040153182435663"/>
<circle cx="105.8" cy="1021.5" r="3.9" fill="#ffffff" opacity="0.3812768406846282"/>
<circle cx="625.7" cy="383.4" r="2.5" fill="#ffffff" opacity="0.711358512324021"/>
<circle cx="665.9" cy="583.3" r="4.3" fill="#ffffff" opacity="0.44863231933292747"/>
<circle cx="294.1" cy="930.9" r="3.9" fill="#ffffff" opacity="0.7756533352967763"/>
<circle cx="85.5" cy="504.5" r="1.6" fill="#ffffff" opacity="0.4158294653076892"/>
<circle cx="151.0" cy="973.3" r="3.4" fill="#ffffff" opacity="0.7653738349696834"/>
<circle cx="349.7" cy="50.5" r="3.0" fill="#ffffff" opacity="0.5330721732613961"/>
<g filter="url(#paper)"><rect x="42" y="42" width="666" height="1166" rx="54" ry="54" fill="none" stroke="#1E1B2E" stroke-width="8" opacity="0.95"/>
<rect x="60" y="60" width="630" height="1130" rx="46" ry="46" fill="none" stroke="#4EA8DE" stroke-width="3" opacity="0.35"/>

  <g opacity="0.42">
    <circle cx="375.0" cy="560" r="285" fill="none" stroke="#4EA8DE" stroke-width="4.2" opacity="0.42"/>
    <circle cx="375.0" cy="560" r="233.7" fill="none" stroke="#4EA8DE" stroke-width="2.2" opacity="0.23"/>
    <line x1="642.0" y1="560.0" x2="674.0" y2="560.0" stroke="#4EA8DE" stroke-width="3.2" opacity="0.23" stroke-linecap="round"/><line x1="606.2" y1="693.5" x2="633.9" y2="709.5" stroke="#4EA8DE" stroke-width="3.2" opacity="0.23" stroke-linecap="round"/><line x1="508.5" y1="791.2" x2="524.5" y2="818.9" stroke="#4EA8DE" stroke-width="3.2" opacity="0.23" stroke-linecap="round"/><line x1="375.0" y1="827.0" x2="375.0" y2="859.0" stroke="#4EA8DE" stroke-width="3.2" opacity="0.23" stroke-linecap="round"/><line x1="241.5" y1="791.2" x2="225.5" y2="818.9" stroke="#4EA8DE" stroke-width="3.2" opacity="0.23" stroke-linecap="round"/><line x1="143.8" y1="693.5" x2="116.1" y2="709.5" stroke="#4EA8DE" stroke-width="3.2" opacity="0.23" stroke-linecap="round"/><line x1="108.0" y1="560.0" x2="76.0" y2="560.0" stroke="#4EA8DE" stroke-width="3.2" opacity="0.23" stroke-linecap="round"/><line x1="143.8" y1="426.5" x2="116.1" y2="410.5" stroke="#4EA8DE" stroke-width="3.2" opacity="0.23" stroke-linecap="round"/><line x1="241.5" y1="328.8" x2="225.5" y2="301.1" stroke="#4EA8DE" stroke-width="3.2" opacity="0.23" stroke-linecap="round"/><line x1="375.0" y1="293.0" x2="375.0" y2="261.0" stroke="#4EA8DE" stroke-width="3.2" opacity="0.23" stroke-linecap="round"/><line x1="508.5" y1="328.8" x2="524.5" y2="301.1" stroke="#4EA8DE" stroke-width="3.2" opacity="0.23" stroke-linecap="round"/><line x1="606.2" y1="426.5" x2="633.9" y2="410.5" stroke="#4EA8DE" stroke-width="3.2" opacity="0.23" stroke-linecap="round"/>
    <circle cx="659.9" cy="552.7" r="2.8" fill="#4EA8DE" opacity="0.30"/><circle cx="648.6" cy="639.8" r="3.2" fill="#4EA8DE" opacity="0.19"/><circle cx="621.6" cy="702.8" r="3.8" fill="#4EA8DE" opacity="0.29"/><circle cx="574.7" cy="763.3" r="3.7" fill="#4EA8DE" opacity="0.34"/><circle cx="509.0" cy="811.6" r="3.5" fill="#4EA8DE" opacity="0.41"/><circle cx="452.5" cy="834.3" r="3.8" fill="#4EA8DE" opacity="0.19"/><circle cx="378.0" cy="845.0" r="3.9" fill="#4EA8DE" opacity="0.38"/><circle cx="292.4" cy="832.8" r="3.0" fill="#4EA8DE" opacity="0.23"/><circle cx="229.4" cy="805.0" r="3.1" fill="#4EA8DE" opacity="0.39"/><circle cx="176.2" cy="764.2" r="3.4" fill="#4EA8DE" opacity="0.40"/><circle cx="127.3" cy="700.9" r="3.6" fill="#4EA8DE" opacity="0.39"/><circle cx="98.6" cy="629.4" r="2.9" fill="#4EA8DE" opacity="0.29"/><circle cx="90.0" cy="555.3" r="3.5" fill="#4EA8DE" opacity="0.39"/><circle cx="98.3" cy="491.6" r="2.8" fill="#4EA8DE" opacity="0.35"/><circle cx="124.1" cy="424.8" r="2.9" fill="#4EA8DE" opacity="0.36"/><circle cx="167.4" cy="364.8" r="3.7" fill="#4EA8DE" opacity="0.33"/><circle cx="234.6" cy="312.0" r="3.3" fill="#4EA8DE" opacity="0.25"/><circle cx="309.8" cy="282.6" r="3.7" fill="#4EA8DE" opacity="0.21"/><circle cx="370.0" cy="275.0" r="3.6" fill="#4EA8DE" opacity="0.42"/><circle cx="451.2" cy="285.4" r="2.6" fill="#4EA8DE" opacity="0.31"/><circle cx="519.4" cy="314.3" r="3.7" fill="#4EA8DE" opacity="0.23"/><circle cx="573.5" cy="355.5" r="3.8" fill="#4EA8DE" opacity="0.22"/><circle cx="620.1" cy="414.6" r="3.9" fill="#4EA8DE" opacity="0.31"/><circle cx="648.9" cy="481.1" r="3.4" fill="#4EA8DE" opacity="0.20"/>
  </g>

<g><g transform="translate(50,54)"><path d="M 21.6 126.0 Q 50.4 54.0 99.0 39.6 Q 144.0 28.8 162.0 72.0" fill="none" stroke="#4EA8DE" stroke-width="6" opacity="0.55" stroke-linecap="round"/></g><g transform="translate(700,54) scale(-1,1)"><path d="M 21.6 126.0 Q 50.4 54.0 99.0 39.6 Q 144.0 28.8 162.0 72.0" fill="none" stroke="#4EA8DE" stroke-width="6" opacity="0.55" stroke-linecap="round"/></g><g transform="translate(50,1196) scale(1,-1)"><path d="M 21.6 126.0 Q 50.4 54.0 99.0 39.6 Q 144.0 28.8 162.0 72.0" fill="none" stroke="#4EA8DE" stroke-width="6" opacity="0.55" stroke-linecap="round"/></g><g transform="translate(700,1196) scale(-1,-1)"><path d="M 21.6 126.0 Q 50.4 54.0 99.0 39.6 Q 144.0 28.8 162.0 72.0" fill="none" stroke="#4EA8DE" stroke-width="6" opacity="0.55" stroke-linecap="round"/></g></g></g>
<rect x="42" y="60" width="666" height="92" rx="30" fill="#ffffffcc" stroke="#1E1B2E" stroke-width="4" opacity="0.95"/>
<text x="375.0" y="122" font-family="ui-sans-serif, system-ui, -apple-system, Segoe UI, Roboto, Helvetica, Arial" font-size="30" font-weight="800" text-anchor="middle" fill="#1E1B2E" opacity="0.95" letter-spacing="1">MAJOR ARCANA • XIV</text>
<rect x="76" y="170" width="598" height="760" rx="52" fill="#ffffff" opacity="0.15"/>

        <g filter="url(#glow)">
          
        <g>
          <path d="M 157.0 553.0
                   L 313.0 553.0
                   L 294.8 631.0
                   Q 235.0 676.5 175.2 631.0
                   Z" fill="#ffffff" stroke="#1E1B2E" stroke-width="7"/>
          <path d="M 311.7 575.8
                   Q 358.5 605.0 311.7 634.2" fill="none" stroke="#1E1B2E" stroke-width="10" stroke-linecap="round" opacity="0.9"/>
          <rect x="203.8" y="676.5" width="62.4" height="39.0" rx="13.0" fill="#4EA8DE" opacity="0.45" stroke="#1E1B2E" stroke-width="6"/>
          <circle cx="235.0" cy="536.8" r="14.3" fill="#4EA8DE" opacity="0.55"/>
          <path d="M 205.8 536.8 Q 235.0 510.8 264.2 536.8" fill="none" stroke="#4EA8DE" stroke-width="7" opacity="0.55" stroke-linecap="round"/>
        </g>
        
          
        <g>
          <path d="M 437.0 553.0
                   L 593.0 553.0
                   L 574.8 631.0
                   Q 515.0 676.5 455.2 631.0
                   Z" fill="#ffffff" stroke="#1E1B2E" stroke-width="7"/>
          <path d="M 591.7 575.8
                   Q 638.5 605.0 591.7 634.2" fill="none" stroke="#1E1B2E" stroke-width="10" stroke-linecap="round" opacity="0.9"/>
          <rect x="483.8" y="676.5" width="62.4" height="39.0" rx="13.0" fill="#4EA8DE" opacity="0.45" stroke="#1E1B2E" stroke-width="6"/>
          <circle cx="515.0" cy="536.8" r="14.3" fill="#4EA8DE" opacity="0.55"/>
          <path d="M 485.8 536.8 Q 515.0 510.8 544.2 536.8" fill="none" stroke="#4EA8DE" stroke-width="7" opacity="0.55" stroke-linecap="round"/>
        </g>
        
          <path d="M 305.0 555 Q 375.0 605 445.0 555" fill="none" stroke="#4EA8DE" stroke-width="10" opacity="0.55" stroke-linecap="round"/>
        </g>
        
  <g opacity="0.25">
    <circle cx="375.0" cy="565" r="260" fill="none" stroke="#4EA8DE" stroke-width="4.2" opacity="0.25"/>
    <circle cx="375.0" cy="565" r="213.2" fill="none" stroke="#4EA8DE" stroke-width="2.2" opacity="0.14"/>
    <line x1="617.0" y1="565.0" x2="649.0" y2="565.0" stroke="#4EA8DE" stroke-width="3.2" opacity="0.14" stroke-linecap="round"/><line x1="584.6" y1="686.0" x2="612.3" y2="702.0" stroke="#4EA8DE" stroke-width="3.2" opacity="0.14" stroke-linecap="round"/><line x1="496.0" y1="774.6" x2="512.0" y2="802.3" stroke="#4EA8DE" stroke-width="3.2" opacity="0.14" stroke-linecap="round"/><line x1="375.0" y1="807.0" x2="375.0" y2="839.0" stroke="#4EA8DE" stroke-width="3.2" opacity="0.14" stroke-linecap="round"/><line x1="254.0" y1="774.6" x2="238.0" y2="802.3" stroke="#4EA8DE" stroke-width="3.2" opacity="0.14" stroke-linecap="round"/><line x1="165.4" y1="686.0" x2="137.7" y2="702.0" stroke="#4EA8DE" stroke-width="3.2" opacity="0.14" stroke-linecap="round"/><line x1="133.0" y1="565.0" x2="101.0" y2="565.0" stroke="#4EA8DE" stroke-width="3.2" opacity="0.14" stroke-linecap="round"/><line x1="165.4" y1="444.0" x2="137.7" y2="428.0" stroke="#4EA8DE" stroke-width="3.2" opacity="0.14" stroke-linecap="round"/><line x1="254.0" y1="355.4" x2="238.0" y2="327.7" stroke="#4EA8DE" stroke-width="3.2" opacity="0.14" stroke-linecap="round"/><line x1="375.0" y1="323.0" x2="375.0" y2="291.0" stroke="#4EA8DE" stroke-width="3.2" opacity="0.14" stroke-linecap="round"/><line x1="496.0" y1="355.4" x2="512.0" y2="327.7" stroke="#4EA8DE" stroke-width="3.2" opacity="0.14" stroke-linecap="round"/><line x1="584.6" y1="444.0" x2="612.3" y2="428.0" stroke="#4EA8DE" stroke-width="3.2" opacity="0.14" stroke-linecap="round"/>
    <circle cx="635.0" cy="562.9" r="2.7" fill="#4EA8DE" opacity="0.40"/><circle cx="627.0" cy="629.1" r="3.1" fill="#4EA8DE" opacity="0.24"/><circle cx="596.2" cy="701.7" r="3.1" fill="#4EA8DE" opacity="0.20"/><circle cx="555.6" cy="752.1" r="3.7" fill="#4EA8DE" opacity="0.28"/><circle cx="510.7" cy="786.8" r="3.9" fill="#4EA8DE" opacity="0.23"/><circle cx="438.4" cy="817.1" r="4.0" fill="#4EA8DE" opacity="0.24"/><circle cx="366.7" cy="824.9" r="3.7" fill="#4EA8DE" opacity="0.23"/><circle cx="313.7" cy="817.7" r="2.8" fill="#4EA8DE" opacity="0.30"/><circle cx="243.0" cy="789.0" r="3.0" fill="#4EA8DE" opacity="0.34"/><circle cx="187.8" cy="745.4" r="3.3" fill="#4EA8DE" opacity="0.35"/><circle cx="148.7" cy="693.1" r="2.7" fill="#4EA8DE" opacity="0.45"/><circle cx="125.9" cy="639.6" r="3.8" fill="#4EA8DE" opacity="0.29"/><circle cx="115.1" cy="572.1" r="3.9" fill="#4EA8DE" opacity="0.36"/><circle cx="123.7" cy="498.4" r="3.0" fill="#4EA8DE" opacity="0.25"/><circle cx="145.9" cy="442.0" r="2.6" fill="#4EA8DE" opacity="0.31"/><circle cx="190.4" cy="381.9" r="3.2" fill="#4EA8DE" opacity="0.29"/><circle cx="243.2" cy="340.9" r="2.7" fill="#4EA8DE" opacity="0.26"/><circle cx="306.0" cy="314.3" r="2.9" fill="#4EA8DE" opacity="0.19"/><circle cx="370.3" cy="305.0" r="3.7" fill="#4EA8DE" opacity="0.26"/><circle cx="443.2" cy="314.1" r="3.0" fill="#4EA8DE" opacity="0.23"/><circle cx="500.3" cy="337.2" r="3.3" fill="#4EA8DE" opacity="0.44"/><circle cx="561.5" cy="383.9" r="2.7" fill="#4EA8DE" opacity="0.39"/><circle cx="602.7" cy="439.5" r="3.6" fill="#4EA8DE" opacity="0.44"/><circle cx="624.0" cy="490.3" r="2.9" fill="#4EA8DE" opacity="0.26"/>
  </g>

        
<rect x="42" y="1030" width="666" height="160" rx="30" fill="#ffffffd9" stroke="#1E1B2E" stroke-width="4" opacity="0.95"/>
<text x="375.0" y="1104" font-family="ui-sans-serif, system-ui, -apple-system, Segoe UI, Roboto, Helvetica, Arial" font-size="46" font-weight="900" text-anchor="middle" fill="#1E1B2E" opacity="0.98">Temperance</text>
<text x="375.0" y="1152" font-family="ui-sans-serif, system-ui, -apple-system, Segoe UI, Roboto, Helvetica, Arial" font-size="28" font-weight="700" text-anchor="middle" fill="#1E1B2E" opacity="0.7">Ease</text>

    <g opacity="0.55">
      <circle cx="127" cy="1176" r="14" fill="#4EA8DE"/>
      <circle cx="623" cy="1176" r="14" fill="#4EA8DE"/>
      <path d="M 162 1176 L 588 1176" stroke="#4EA8DE" stroke-width="4" opacity="0.45" stroke-linecap="round"/>
    </g>
    
</svg>
