<svg xmlns="http://www.w3.org/2000/svg" width="750" height="1250" viewBox="0 0 750 1250">
  <title>The Devil</title>


  <defs>
    <linearGradient id="g" x1="0" y1="0" x2="1" y2="1">
      <stop offset="0%" stop-color="#E8FFF1"/>
      <stop offset="100%" stop-color="#F2E9FF"/>
    </linearGradient>

    <!-- paper texture -->
    <filter id="paper" x="-20%" y="-20%" width="140%" height="140%">
      <feTurbulence type="fractalNoise" baseFrequency="0.016" numOctaves="3" seed="9690" result="noise"/>
      <feColorMatrix in="noise" type="matrix"
        values="1 0 0 0 0
                0 1 0 0 0
                0 0 1 0 0
                0 0 0 0.25 0" result="noiseAlpha"/>
      <feComposite in="noiseAlpha" in2="SourceGraphic" operator="over"/>
    </filter>

    <!-- soft glow -->
    <filter id="glow" x="-30%" y="-30%" width="160%" height="160%">
      <feGaussianBlur stdDeviation="10" result="blur"/>
      <feColorMatrix type="matrix" values="
        1 0 0 0 0
        0 1 0 0 0
        0 0 1 0 0
        0 0 0 0.32 0" result="blurAlpha"/>
      <feMerge>
        <feMergeNode in="blurAlpha"/>
        <feMergeNode in="SourceGraphic"/>
      </feMerge>
    </filter>
  </defs>

<rect x="0" y="0" width="750" height="1250" rx="58" ry="58" fill="url(#g)" stroke="none" stroke-width="0" opacity="1"/>
<rect x="0" y="0" width="750" height="1250" fill="#ffffff" opacity="0.08"/>
<line x1="297.0" y1="642.2" x2="637.2" y2="103.0" stroke="#ffffff" stroke-width="2.2" opacity="0.13"/>
<line x1="637.2" y1="103.0" x2="239.6" y2="935.9" stroke="#ffffff" stroke-width="2.2" opacity="0.14"/>
<line x1="239.6" y1="935.9" x2="233.1" y2="947.3" stroke="#ffffff" stroke-width="2.2" opacity="0.14"/>
<line x1="233.1" y1="947.3" x2="700.4" y2="402.6" stroke="#ffffff" stroke-width="2.2" opacity="0.13"/>
<line x1="700.4" y1="402.6" x2="177.9" y2="240.1" stroke="#ffffff" stroke-width="2.2" opacity="0.17"/>
<line x1="177.9" y1="240.1" x2="311.2" y2="1188.3" stroke="#ffffff" stroke-width="2.2" opacity="0.20"/>
<line x1="311.2" y1="1188.3" x2="253.1" y2="1006.6" stroke="#ffffff" stroke-width="2.2" opacity="0.20"/>
<line x1="253.1" y1="1006.6" x2="407.4" y2="300.2" stroke="#ffffff" stroke-width="2.2" opacity="0.20"/>
<line x1="407.4" y1="300.2" x2="302.3" y2="363.3" stroke="#ffffff" stroke-width="2.2" opacity="0.20"/>
<line x1="302.3" y1="363.3" x2="223.8" y2="484.9" stroke="#ffffff" stroke-width="2.2" opacity="0.08"/>
<line x1="223.8" y1="484.9" x2="373.9" y2="763.4" stroke="#ffffff" stroke-width="2.2" opacity="0.20"/>
<line x1="373.9" y1="763.4" x2="637.7" y2="934.1" stroke="#ffffff" stroke-width="2.2" opacity="0.19"/>
<line x1="637.7" y1="934.1" x2="668.7" y2="160.2" stroke="#ffffff" stroke-width="2.2" opacity="0.22"/>
<line x1="668.7" y1="160.2" x2="173.0" y2="498.0" stroke="#ffffff" stroke-width="2.2" opacity="0.20"/>
<line x1="173.0" y1="498.0" x2="293.3" y2="633.2" stroke="#ffffff" stroke-width="2.2" opacity="0.09"/>
<line x1="293.3" y1="633.2" x2="199.0" y2="317.8" stroke="#ffffff" stroke-width="2.2" opacity="0.14"/>
<line x1="199.0" y1="317.8" x2="345.8" y2="595.3" stroke="#ffffff" stroke-width="2.2" opacity="0.19"/>
<line x1="345.8" y1="595.3" x2="223.3" y2="324.7" stroke="#ffffff" stroke-width="2.2" opacity="0.20"/>
<circle cx="223.8" cy="484.9" r="3.5" fill="#ffffff" opacity="0.6586516917626224"/>
<circle cx="637.2" cy="103.0" r="3.1" fill="#ffffff" opacity="0.6453716217012582"/>
<circle cx="301.6" cy="1143.7" r="3.6" fill="#ffffff" opacity="0.2796739144249673"/>
<circle cx="297.0" cy="642.2" r="4.0" fill="#ffffff" opacity="0.4753634339211722"/>
<circle cx="555.3" cy="1115.1" r="2.9" fill="#ffffff" opacity="0.3771913808696363"/>
<circle cx="435.9" cy="1040.2" r="3.3" fill="#ffffff" opacity="0.6215141171884215"/>
<circle cx="681.2" cy="112.3" r="4.4" fill="#ffffff" opacity="0.36326979940048076"/>
<circle cx="258.2" cy="252.1" r="4.3" fill="#ffffff" opacity="0.7478067706543334"/>
<circle cx="271.9" cy="202.3" r="3.4" fill="#ffffff" opacity="0.34364418548003123"/>
<circle cx="303.2" cy="235.8" r="4.0" fill="#ffffff" opacity="0.3174228184735562"/>
<circle cx="173.0" cy="498.0" r="4.0" fill="#ffffff" opacity="0.4339257341868759"/>
<circle cx="555.5" cy="708.8" r="2.4" fill="#ffffff" opacity="0.7159082696472061"/>
<circle cx="293.3" cy="633.2" r="2.3" fill="#ffffff" opacity="0.8340548150091499"/>
<circle cx="233.1" cy="947.3" r="4.6" fill="#ffffff" opacity="0.3190757910952226"/>
<circle cx="373.9" cy="763.4" r="2.2" fill="#ffffff" opacity="0.3879000403590423"/>
<circle cx="223.3" cy="324.7" r="3.1" fill="#ffffff" opacity="0.25881436015141945"/>
<circle cx="239.6" cy="935.9" r="3.1" fill="#ffffff" opacity="0.4701919332642314"/>
<circle cx="398.3" cy="1124.2" r="3.5" fill="#ffffff" opacity="0.4960911019702769"/>
<circle cx="606.4" cy="83.8" r="2.1" fill="#ffffff" opacity="0.5429259182548332"/>
<circle cx="98.6" cy="1019.6" r="4.8" fill="#ffffff" opacity="0.3144533563533113"/>
<circle cx="177.9" cy="240.1" r="3.0" fill="#ffffff" opacity="0.5662814637886028"/>
<circle cx="481.3" cy="242.0" r="2.7" fill="#ffffff" opacity="0.7275405215596386"/>
<circle cx="608.9" cy="800.3" r="3.5" fill="#ffffff" opacity="0.6184789235500725"/>
<circle cx="424.8" cy="283.1" r="3.7" fill="#ffffff" opacity="0.644840275510018"/>
<circle cx="245.0" cy="1127.7" r="2.7" fill="#ffffff" opacity="0.2983972287334195"/>
<circle cx="700.4" cy="402.6" r="3.6" fill="#ffffff" opacity="0.7841835967421679"/>
<circle cx="576.2" cy="1018.7" r="1.6" fill="#ffffff" opacity="0.4894142951215205"/>
<circle cx="512.0" cy="216.1" r="2.1" fill="#ffffff" opacity="0.30367345626364106"/>
<circle cx="633.2" cy="405.2" r="2.1" fill="#ffffff" opacity="0.33151042097419586"/>
<circle cx="455.6" cy="694.6" r="4.3" fill="#ffffff" opacity="0.353507111056816"/>
<circle cx="253.1" cy="1006.6" r="3.8" fill="#ffffff" opacity="0.8025167366760184"/>
<circle cx="235.1" cy="682.8" r="3.3" fill="#ffffff" opacity="0.8109995676757136"/>
<circle cx="508.2" cy="209.8" r="3.1" fill="#ffffff" opacity="0.5256019707230635"/>
<circle cx="584.3" cy="410.3" r="2.6" fill="#ffffff" opacity="0.5585737293132588"/>
<circle cx="407.4" cy="300.2" r="3.3" fill="#ffffff" opacity="0.35003164717653024"/>
<circle cx="637.7" cy="934.1" r="2.9" fill="#ffffff" opacity="0.5648392024032005"/>
<circle cx="126.3" cy="1088.7" r="4.0" fill="#ffffff" opacity="0.809077650459928"/>
<circle cx="550.3" cy="340.7" r="4.2" fill="#ffffff" opacity="0.5761430094182798"/>
<circle cx="311.2" cy="1188.3" r="4.8" fill="#ffffff" opacity="0.7204851374170922"/>
<circle cx="307.0" cy="1004.0" r="2.6" fill="#ffffff" opacity="0.7294792718186502"/>
<circle cx="338.3" cy="1100.4" r="4.5" fill="#ffffff" opacity="0.26804388175258836"/>
<circle cx="199.0" cy="317.8" r="3.6" fill="#ffffff" opacity="0.8250308073049082"/>
<circle cx="222.3" cy="612.4" r="3.0" fill="#ffffff" opacity="0.5998435993731122"/>
<circle cx="389.0" cy="143.2" r="1.7" fill="#ffffff" opacity="0.583815939446882"/>
<circle cx="428.1" cy="968.2" r="2.0" fill="#ffffff" opacity="0.8116969628749492"/>
<circle cx="514.9" cy="692.6" r="2.9" fill="#ffffff" opacity="0.4983793031507202"/>
<circle cx="345.8" cy="595.3" r="1.6" fill="#ffffff" opacity="0.3063248764124908"/>
<circle cx="489.6" cy="481.5" r="3.7" fill="#ffffff" opacity="0.7314777630412048"/>
<circle cx="668.7" cy="160.2" r="1.8" fill="#ffffff" opacity="0.29250376740313017"/>
<circle cx="302.3" cy="363.3" r="4.1" fill="#ffffff" opacity="0.33052114337106314"/>
<g filter="url(#paper)"><rect x="42" y="42" width="666" height="1166" rx="54" ry="54" fill="none" stroke="#1E1B2E" stroke-width="8" opacity="0.95"/>
<rect x="60" y="60" width="630" height="1130" rx="46" ry="46" fill="none" stroke="#24B39B" stroke-width="3" opacity="0.35"/>

  <g opacity="0.42">
    <circle cx="375.0" cy="560" r="285" fill="none" stroke="#24B39B" stroke-width="4.2" opacity="0.42"/>
    <circle cx="375.0" cy="560" r="233.7" fill="none" stroke="#24B39B" stroke-width="2.2" opacity="0.23"/>
    <line x1="642.0" y1="560.0" x2="674.0" y2="560.0" stroke="#24B39B" stroke-width="3.2" opacity="0.23" stroke-linecap="round"/><line x1="606.2" y1="693.5" x2="633.9" y2="709.5" stroke="#24B39B" stroke-width="3.2" opacity="0.23" stroke-linecap="round"/><line x1="508.5" y1="791.2" x2="524.5" y2="818.9" stroke="#24B39B" stroke-width="3.2" opacity="0.23" stroke-linecap="round"/><line x1="375.0" y1="827.0" x2="375.0" y2="859.0" stroke="#24B39B" stroke-width="3.2" opacity="0.23" stroke-linecap="round"/><line x1="241.5" y1="791.2" x2="225.5" y2="818.9" stroke="#24B39B" stroke-width="3.2" opacity="0.23" stroke-linecap="round"/><line x1="143.8" y1="693.5" x2="116.1" y2="709.5" stroke="#24B39B" stroke-width="3.2" opacity="0.23" stroke-linecap="round"/><line x1="108.0" y1="560.0" x2="76.0" y2="560.0" stroke="#24B39B" stroke-width="3.2" opacity="0.23" stroke-linecap="round"/><line x1="143.8" y1="426.5" x2="116.1" y2="410.5" stroke="#24B39B" stroke-width="3.2" opacity="0.23" stroke-linecap="round"/><line x1="241.5" y1="328.8" x2="225.5" y2="301.1" stroke="#24B39B" stroke-width="3.2" opacity="0.23" stroke-linecap="round"/><line x1="375.0" y1="293.0" x2="375.0" y2="261.0" stroke="#24B39B" stroke-width="3.2" opacity="0.23" stroke-linecap="round"/><line x1="508.5" y1="328.8" x2="524.5" y2="301.1" stroke="#24B39B" stroke-width="3.2" opacity="0.23" stroke-linecap="round"/><line x1="606.2" y1="426.5" x2="633.9" y2="410.5" stroke="#24B39B" stroke-width="3.2" opacity="0.23" stroke-linecap="round"/>
    <circle cx="660.0" cy="560.3" r="3.3" fill="#24B39B" opacity="0.23"/><circle cx="648.5" cy="640.1" r="2.9" fill="#24B39B" opacity="0.38"/><circle cx="623.9" cy="698.8" r="2.6" fill="#24B39B" opacity="0.33"/><circle cx="578.3" cy="759.7" r="3.1" fill="#24B39B" opacity="0.37"/><circle cx="513.3" cy="809.2" r="3.0" fill="#24B39B" opacity="0.41"/><circle cx="456.1" cy="833.2" r="3.9" fill="#24B39B" opacity="0.23"/><circle cx="369.1" cy="844.9" r="2.6" fill="#24B39B" opacity="0.21"/><circle cx="296.2" cy="833.9" r="3.3" fill="#24B39B" opacity="0.29"/><circle cx="227.5" cy="803.9" r="3.6" fill="#24B39B" opacity="0.40"/><circle cx="173.3" cy="761.4" r="3.0" fill="#24B39B" opacity="0.42"/><circle cx="129.3" cy="704.5" r="3.8" fill="#24B39B" opacity="0.18"/><circle cx="100.4" cy="636.2" r="3.5" fill="#24B39B" opacity="0.33"/><circle cx="90.1" cy="566.1" r="3.5" fill="#24B39B" opacity="0.32"/><circle cx="100.5" cy="483.2" r="2.8" fill="#24B39B" opacity="0.35"/><circle cx="127.1" cy="419.3" r="3.9" fill="#24B39B" opacity="0.24"/><circle cx="170.6" cy="361.4" r="4.0" fill="#24B39B" opacity="0.30"/><circle cx="229.5" cy="314.9" r="3.3" fill="#24B39B" opacity="0.21"/><circle cx="297.7" cy="285.7" r="3.9" fill="#24B39B" opacity="0.30"/><circle cx="367.1" cy="275.1" r="2.7" fill="#24B39B" opacity="0.22"/><circle cx="444.1" cy="283.5" r="3.8" fill="#24B39B" opacity="0.35"/><circle cx="524.1" cy="317.1" r="3.1" fill="#24B39B" opacity="0.23"/><circle cx="572.9" cy="354.9" r="3.1" fill="#24B39B" opacity="0.24"/><circle cx="619.9" cy="414.2" r="3.8" fill="#24B39B" opacity="0.35"/><circle cx="648.5" cy="479.7" r="3.9" fill="#24B39B" opacity="0.31"/>
  </g>

<g><g transform="translate(50,54)"><path d="M 14.4 117.0 C 54.0 14.4, 126.0 14.4, 165.6 117.0" fill="none" stroke="#24B39B" stroke-width="6" opacity="0.55" stroke-linecap="round"/></g><g transform="translate(700,54) scale(-1,1)"><path d="M 14.4 117.0 C 54.0 14.4, 126.0 14.4, 165.6 117.0" fill="none" stroke="#24B39B" stroke-width="6" opacity="0.55" stroke-linecap="round"/></g><g transform="translate(50,1196) scale(1,-1)"><path d="M 14.4 117.0 C 54.0 14.4, 126.0 14.4, 165.6 117.0" fill="none" stroke="#24B39B" stroke-width="6" opacity="0.55" stroke-linecap="round"/></g><g transform="translate(700,1196) scale(-1,-1)"><path d="M 14.4 117.0 C 54.0 14.4, 126.0 14.4, 165.6 117.0" fill="none" stroke="#24B39B" stroke-width="6" opacity="0.55" stroke-linecap="round"/></g></g></g>
<rect x="42" y="60" width="666" height="92" rx="30" fill="#ffffffcc" stroke="#1E1B2E" stroke-width="4" opacity="0.95"/>
<text x="375.0" y="122" font-family="ui-sans-serif, system-ui, -apple-system, Segoe UI, Roboto, Helvetica, Arial" font-size="30" font-weight="800" text-anchor="middle" fill="#1E1B2E" opacity="0.95" letter-spacing="1">MAJOR ARCANA • XV</text>
<rect x="76" y="170" width="598" height="760" rx="52" fill="#ffffff" opacity="0.15"/>

        <g filter="url(#glow)">
          <circle cx="255.0" cy="565" r="170" fill="#ffffff" opacity="0.36" stroke="#24B39B" stroke-width="7"/>
          <circle cx="495.0" cy="565" r="170" fill="#ffffff" opacity="0.36" stroke="#24B39B" stroke-width="7"/>
          <path d="M 215.0 565 Q 375.0 660 535.0 565" fill="none" stroke="#1E1B2E" stroke-width="10" opacity="0.7" stroke-linecap="round"/>
          <circle cx="375.0" cy="595" r="18" fill="#24B39B" opacity="0.5"/>
        </g>
        <path d="M 434.0 348.8 Q 439.2 500.3 536.7 557.1 Q 376.3 498.6 429.2 470.5 Q 428.3 573.5 558.0 545.3 Q 422.9 457.2 384.3 571.0 Q 368.8 491.8 416.6 702.5 " fill="none" stroke="#24B39B" stroke-width="5.5" opacity="0.34" stroke-linecap="round" stroke-linejoin="round"/>
        
<rect x="42" y="1030" width="666" height="160" rx="30" fill="#ffffffd9" stroke="#1E1B2E" stroke-width="4" opacity="0.95"/>
<text x="375.0" y="1104" font-family="ui-sans-serif, system-ui, -apple-system, Segoe UI, Roboto, Helvetica, Arial" font-size="46" font-weight="900" text-anchor="middle" fill="#1E1B2E" opacity="0.98">The Devil</text>
<text x="375.0" y="1152" font-family="ui-sans-serif, system-ui, -apple-system, Segoe UI, Roboto, Helvetica, Arial" font-size="28" font-weight="700" text-anchor="middle" fill="#1E1B2E" opacity="0.7">Liberation</text>

    <g opacity="0.55">
      <circle cx="127" cy="1176" r="14" fill="#24B39B"/>
      <circle cx="623" cy="1176" r="14" fill="#24B39B"/>
      <path d="M 162 1176 L 588 1176" stroke="#24B39B" stroke-width="4" opacity="0.45" stroke-linecap="round"/>
    </g>
    
</svg>
