<svg xmlns="http://www.w3.org/2000/svg" width="750" height="1250" viewBox="0 0 750 1250">
  <title>The Tower</title>


  <defs>
    <linearGradient id="g" x1="0" y1="0" x2="1" y2="1">
      <stop offset="0%" stop-color="#FFF0F3"/>
      <stop offset="100%" stop-color="#E6FFF5"/>
    </linearGradient>

    <!-- paper texture -->
    <filter id="paper" x="-20%" y="-20%" width="140%" height="140%">
      <feTurbulence type="fractalNoise" baseFrequency="0.017" numOctaves="3" seed="2542" result="noise"/>
      <feColorMatrix in="noise" type="matrix"
        values="1 0 0 0 0
                0 1 0 0 0
                0 0 1 0 0
                0 0 0 0.25 0" result="noiseAlpha"/>
      <feComposite in="noiseAlpha" in2="SourceGraphic" operator="over"/>
    </filter>

    <!-- soft glow -->
    <filter id="glow" x="-30%" y="-30%" width="160%" height="160%">
      <feGaussianBlur stdDeviation="10" result="blur"/>
      <feColorMatrix type="matrix" values="
        1 0 0 0 0
        0 1 0 0 0
        0 0 1 0 0
        0 0 0 0.32 0" result="blurAlpha"/>
      <feMerge>
        <feMergeNode in="blurAlpha"/>
        <feMergeNode in="SourceGraphic"/>
      </feMerge>
    </filter>
  </defs>

<rect x="0" y="0" width="750" height="1250" rx="58" ry="58" fill="url(#g)" stroke="none" stroke-width="0" opacity="1"/>
<rect x="0" y="0" width="750" height="1250" fill="#ffffff" opacity="0.08"/>
<line x1="285.0" y1="1205.3" x2="58.7" y2="308.3" stroke="#ffffff" stroke-width="2.2" opacity="0.09"/>
<line x1="58.7" y1="308.3" x2="639.0" y2="717.6" stroke="#ffffff" stroke-width="2.2" opacity="0.20"/>
<line x1="639.0" y1="717.6" x2="42.9" y2="140.9" stroke="#ffffff" stroke-width="2.2" opacity="0.10"/>
<line x1="42.9" y1="140.9" x2="703.1" y2="678.4" stroke="#ffffff" stroke-width="2.2" opacity="0.15"/>
<line x1="703.1" y1="678.4" x2="325.5" y2="1198.9" stroke="#ffffff" stroke-width="2.2" opacity="0.17"/>
<line x1="325.5" y1="1198.9" x2="622.1" y2="303.5" stroke="#ffffff" stroke-width="2.2" opacity="0.17"/>
<line x1="622.1" y1="303.5" x2="248.5" y2="967.6" stroke="#ffffff" stroke-width="2.2" opacity="0.12"/>
<line x1="248.5" y1="967.6" x2="162.2" y2="947.5" stroke="#ffffff" stroke-width="2.2" opacity="0.20"/>
<line x1="162.2" y1="947.5" x2="102.7" y2="49.3" stroke="#ffffff" stroke-width="2.2" opacity="0.08"/>
<line x1="102.7" y1="49.3" x2="189.0" y2="498.2" stroke="#ffffff" stroke-width="2.2" opacity="0.12"/>
<line x1="189.0" y1="498.2" x2="442.2" y2="276.2" stroke="#ffffff" stroke-width="2.2" opacity="0.20"/>
<line x1="442.2" y1="276.2" x2="618.2" y2="662.9" stroke="#ffffff" stroke-width="2.2" opacity="0.14"/>
<line x1="618.2" y1="662.9" x2="248.0" y2="483.5" stroke="#ffffff" stroke-width="2.2" opacity="0.21"/>
<line x1="248.0" y1="483.5" x2="219.8" y2="257.0" stroke="#ffffff" stroke-width="2.2" opacity="0.15"/>
<line x1="219.8" y1="257.0" x2="583.7" y2="1053.4" stroke="#ffffff" stroke-width="2.2" opacity="0.16"/>
<line x1="583.7" y1="1053.4" x2="554.2" y2="783.2" stroke="#ffffff" stroke-width="2.2" opacity="0.08"/>
<line x1="554.2" y1="783.2" x2="218.7" y2="197.3" stroke="#ffffff" stroke-width="2.2" opacity="0.20"/>
<line x1="218.7" y1="197.3" x2="329.0" y2="1177.2" stroke="#ffffff" stroke-width="2.2" opacity="0.12"/>
<circle cx="75.4" cy="188.4" r="4.3" fill="#ffffff" opacity="0.6438514827429318"/>
<circle cx="361.1" cy="894.8" r="2.9" fill="#ffffff" opacity="0.4938160612908352"/>
<circle cx="102.7" cy="49.3" r="3.2" fill="#ffffff" opacity="0.35957602596012256"/>
<circle cx="154.2" cy="880.0" r="4.6" fill="#ffffff" opacity="0.32449801188100097"/>
<circle cx="318.3" cy="1185.8" r="3.6" fill="#ffffff" opacity="0.5653861298739413"/>
<circle cx="703.1" cy="678.4" r="2.1" fill="#ffffff" opacity="0.25355916348829655"/>
<circle cx="209.8" cy="1024.9" r="2.5" fill="#ffffff" opacity="0.44516157864312145"/>
<circle cx="119.5" cy="1031.0" r="2.8" fill="#ffffff" opacity="0.47955818317283083"/>
<circle cx="189.0" cy="498.2" r="3.3" fill="#ffffff" opacity="0.6144300670187772"/>
<circle cx="219.8" cy="257.0" r="3.8" fill="#ffffff" opacity="0.49626953643924854"/>
<circle cx="554.2" cy="783.2" r="3.5" fill="#ffffff" opacity="0.5452555868867597"/>
<circle cx="285.0" cy="1205.3" r="4.7" fill="#ffffff" opacity="0.3593782939622059"/>
<circle cx="426.8" cy="726.4" r="3.2" fill="#ffffff" opacity="0.3507054792306475"/>
<circle cx="45.4" cy="548.7" r="1.9" fill="#ffffff" opacity="0.2917542676655608"/>
<circle cx="541.0" cy="48.6" r="3.3" fill="#ffffff" opacity="0.5095606059220211"/>
<circle cx="484.5" cy="270.3" r="2.2" fill="#ffffff" opacity="0.7760767816850999"/>
<circle cx="329.0" cy="1177.2" r="4.1" fill="#ffffff" opacity="0.2681811502119382"/>
<circle cx="668.9" cy="698.7" r="2.2" fill="#ffffff" opacity="0.38095215821822725"/>
<circle cx="653.8" cy="729.5" r="2.5" fill="#ffffff" opacity="0.548114134503303"/>
<circle cx="465.5" cy="1008.8" r="4.4" fill="#ffffff" opacity="0.5417731212491246"/>
<circle cx="248.0" cy="483.5" r="4.6" fill="#ffffff" opacity="0.7550710268031379"/>
<circle cx="42.9" cy="140.9" r="3.1" fill="#ffffff" opacity="0.5720129624553796"/>
<circle cx="480.2" cy="1132.2" r="1.8" fill="#ffffff" opacity="0.8378144304928845"/>
<circle cx="162.2" cy="947.5" r="1.8" fill="#ffffff" opacity="0.7954358121258512"/>
<circle cx="58.7" cy="308.3" r="3.0" fill="#ffffff" opacity="0.6626740231890312"/>
<circle cx="271.6" cy="90.5" r="4.1" fill="#ffffff" opacity="0.8212308786875696"/>
<circle cx="325.5" cy="1198.9" r="3.8" fill="#ffffff" opacity="0.5848962846022385"/>
<circle cx="622.1" cy="303.5" r="4.4" fill="#ffffff" opacity="0.8242745867361752"/>
<circle cx="124.8" cy="490.1" r="3.2" fill="#ffffff" opacity="0.32108151969298576"/>
<circle cx="125.0" cy="323.6" r="4.7" fill="#ffffff" opacity="0.5883300620031098"/>
<circle cx="435.0" cy="309.0" r="1.7" fill="#ffffff" opacity="0.6244230254132641"/>
<circle cx="162.5" cy="1187.3" r="3.0" fill="#ffffff" opacity="0.6820961704075417"/>
<circle cx="600.5" cy="941.4" r="3.6" fill="#ffffff" opacity="0.38334286938009987"/>
<circle cx="248.5" cy="967.6" r="4.4" fill="#ffffff" opacity="0.6646407213939302"/>
<circle cx="583.7" cy="1053.4" r="1.8" fill="#ffffff" opacity="0.48342317442312965"/>
<circle cx="218.3" cy="762.7" r="4.7" fill="#ffffff" opacity="0.5591455067934595"/>
<circle cx="225.4" cy="552.4" r="4.4" fill="#ffffff" opacity="0.7553536004314324"/>
<circle cx="533.6" cy="273.8" r="4.8" fill="#ffffff" opacity="0.544769064120048"/>
<circle cx="251.4" cy="927.7" r="2.7" fill="#ffffff" opacity="0.5019458955137088"/>
<circle cx="674.3" cy="648.6" r="3.1" fill="#ffffff" opacity="0.5052618201882058"/>
<circle cx="620.5" cy="842.3" r="1.8" fill="#ffffff" opacity="0.4124885526413866"/>
<circle cx="412.6" cy="595.4" r="2.1" fill="#ffffff" opacity="0.5490170196439264"/>
<circle cx="218.7" cy="197.3" r="3.9" fill="#ffffff" opacity="0.7472568348263222"/>
<circle cx="66.8" cy="1035.4" r="3.0" fill="#ffffff" opacity="0.6430662395447413"/>
<circle cx="618.2" cy="662.9" r="3.6" fill="#ffffff" opacity="0.27478271826492817"/>
<circle cx="639.0" cy="717.6" r="3.2" fill="#ffffff" opacity="0.7186037289422345"/>
<circle cx="623.7" cy="710.4" r="1.7" fill="#ffffff" opacity="0.308025593908271"/>
<circle cx="340.2" cy="839.0" r="4.0" fill="#ffffff" opacity="0.7152803800707697"/>
<circle cx="440.6" cy="620.9" r="3.8" fill="#ffffff" opacity="0.4828102022908919"/>
<circle cx="442.2" cy="276.2" r="2.2" fill="#ffffff" opacity="0.45923649796586924"/>
<g filter="url(#paper)"><rect x="42" y="42" width="666" height="1166" rx="54" ry="54" fill="none" stroke="#1E1B2E" stroke-width="8" opacity="0.95"/>
<rect x="60" y="60" width="630" height="1130" rx="46" ry="46" fill="none" stroke="#06D6A0" stroke-width="3" opacity="0.35"/>

  <g opacity="0.42">
    <circle cx="375.0" cy="560" r="285" fill="none" stroke="#06D6A0" stroke-width="4.2" opacity="0.42"/>
    <circle cx="375.0" cy="560" r="233.7" fill="none" stroke="#06D6A0" stroke-width="2.2" opacity="0.23"/>
    <line x1="642.0" y1="560.0" x2="674.0" y2="560.0" stroke="#06D6A0" stroke-width="3.2" opacity="0.23" stroke-linecap="round"/><line x1="606.2" y1="693.5" x2="633.9" y2="709.5" stroke="#06D6A0" stroke-width="3.2" opacity="0.23" stroke-linecap="round"/><line x1="508.5" y1="791.2" x2="524.5" y2="818.9" stroke="#06D6A0" stroke-width="3.2" opacity="0.23" stroke-linecap="round"/><line x1="375.0" y1="827.0" x2="375.0" y2="859.0" stroke="#06D6A0" stroke-width="3.2" opacity="0.23" stroke-linecap="round"/><line x1="241.5" y1="791.2" x2="225.5" y2="818.9" stroke="#06D6A0" stroke-width="3.2" opacity="0.23" stroke-linecap="round"/><line x1="143.8" y1="693.5" x2="116.1" y2="709.5" stroke="#06D6A0" stroke-width="3.2" opacity="0.23" stroke-linecap="round"/><line x1="108.0" y1="560.0" x2="76.0" y2="560.0" stroke="#06D6A0" stroke-width="3.2" opacity="0.23" stroke-linecap="round"/><line x1="143.8" y1="426.5" x2="116.1" y2="410.5" stroke="#06D6A0" stroke-width="3.2" opacity="0.23" stroke-linecap="round"/><line x1="241.5" y1="328.8" x2="225.5" y2="301.1" stroke="#06D6A0" stroke-width="3.2" opacity="0.23" stroke-linecap="round"/><line x1="375.0" y1="293.0" x2="375.0" y2="261.0" stroke="#06D6A0" stroke-width="3.2" opacity="0.23" stroke-linecap="round"/><line x1="508.5" y1="328.8" x2="524.5" y2="301.1" stroke="#06D6A0" stroke-width="3.2" opacity="0.23" stroke-linecap="round"/><line x1="606.2" y1="426.5" x2="633.9" y2="410.5" stroke="#06D6A0" stroke-width="3.2" opacity="0.23" stroke-linecap="round"/>
    <circle cx="659.9" cy="566.7" r="2.8" fill="#06D6A0" opacity="0.18"/><circle cx="648.1" cy="641.6" r="3.1" fill="#06D6A0" opacity="0.32"/><circle cx="621.7" cy="702.7" r="3.3" fill="#06D6A0" opacity="0.39"/><circle cx="574.1" cy="763.9" r="3.9" fill="#06D6A0" opacity="0.22"/><circle cx="517.1" cy="807.1" r="3.3" fill="#06D6A0" opacity="0.42"/><circle cx="452.6" cy="834.2" r="3.0" fill="#06D6A0" opacity="0.35"/><circle cx="373.2" cy="845.0" r="3.7" fill="#06D6A0" opacity="0.33"/><circle cx="309.3" cy="837.3" r="2.9" fill="#06D6A0" opacity="0.26"/><circle cx="233.4" cy="807.3" r="3.9" fill="#06D6A0" opacity="0.43"/><circle cx="180.0" cy="767.9" r="2.8" fill="#06D6A0" opacity="0.20"/><circle cx="125.1" cy="697.0" r="3.7" fill="#06D6A0" opacity="0.20"/><circle cx="99.1" cy="631.5" r="3.6" fill="#06D6A0" opacity="0.42"/><circle cx="90.0" cy="562.0" r="3.8" fill="#06D6A0" opacity="0.28"/><circle cx="100.6" cy="482.9" r="3.8" fill="#06D6A0" opacity="0.22"/><circle cx="126.8" cy="420.0" r="2.6" fill="#06D6A0" opacity="0.35"/><circle cx="180.2" cy="351.9" r="2.9" fill="#06D6A0" opacity="0.19"/><circle cx="239.5" cy="309.3" r="4.0" fill="#06D6A0" opacity="0.27"/><circle cx="306.3" cy="283.4" r="3.6" fill="#06D6A0" opacity="0.20"/><circle cx="377.4" cy="275.0" r="3.7" fill="#06D6A0" opacity="0.24"/><circle cx="443.6" cy="283.4" r="2.8" fill="#06D6A0" opacity="0.32"/><circle cx="525.8" cy="318.2" r="2.6" fill="#06D6A0" opacity="0.44"/><circle cx="571.1" cy="353.2" r="3.9" fill="#06D6A0" opacity="0.23"/><circle cx="626.5" cy="426.0" r="3.9" fill="#06D6A0" opacity="0.34"/><circle cx="647.7" cy="477.1" r="3.6" fill="#06D6A0" opacity="0.20"/>
  </g>

<g><g transform="translate(50,54)"><path d="M 21.6 140.4 Q 75.6 36.0 165.6 68.4 Q 93.6 79.2 72.0 126.0" fill="none" stroke="#06D6A0" stroke-width="6" opacity="0.55" stroke-linecap="round"/></g><g transform="translate(700,54) scale(-1,1)"><path d="M 21.6 140.4 Q 75.6 36.0 165.6 68.4 Q 93.6 79.2 72.0 126.0" fill="none" stroke="#06D6A0" stroke-width="6" opacity="0.55" stroke-linecap="round"/></g><g transform="translate(50,1196) scale(1,-1)"><path d="M 21.6 140.4 Q 75.6 36.0 165.6 68.4 Q 93.6 79.2 72.0 126.0" fill="none" stroke="#06D6A0" stroke-width="6" opacity="0.55" stroke-linecap="round"/></g><g transform="translate(700,1196) scale(-1,-1)"><path d="M 21.6 140.4 Q 75.6 36.0 165.6 68.4 Q 93.6 79.2 72.0 126.0" fill="none" stroke="#06D6A0" stroke-width="6" opacity="0.55" stroke-linecap="round"/></g></g></g>
<rect x="42" y="60" width="666" height="92" rx="30" fill="#ffffffcc" stroke="#1E1B2E" stroke-width="4" opacity="0.95"/>
<text x="375.0" y="122" font-family="ui-sans-serif, system-ui, -apple-system, Segoe UI, Roboto, Helvetica, Arial" font-size="30" font-weight="800" text-anchor="middle" fill="#1E1B2E" opacity="0.95" letter-spacing="1">MAJOR ARCANA • XVI</text>
<rect x="76" y="170" width="598" height="760" rx="52" fill="#ffffff" opacity="0.15"/>

        <g filter="url(#glow)">
          <rect x="255.0" y="325" width="240" height="480" rx="52" fill="#ffffff" opacity="0.48" stroke="#1E1B2E" stroke-width="7"/>
          <rect x="215.0" y="265" width="320" height="80" rx="34" fill="#ffffff" opacity="0.45" stroke="#06D6A0" stroke-width="7"/>
        </g>
        <line x1="447.7" y1="332.7" x2="362.8" y2="226.4" stroke="#ffffff" stroke-width="2.2" opacity="0.11"/>
<line x1="362.8" y1="226.4" x2="409.3" y2="433.8" stroke="#ffffff" stroke-width="2.2" opacity="0.18"/>
<line x1="409.3" y1="433.8" x2="187.6" y2="437.7" stroke="#ffffff" stroke-width="2.2" opacity="0.09"/>
<line x1="187.6" y1="437.7" x2="458.1" y2="448.5" stroke="#ffffff" stroke-width="2.2" opacity="0.17"/>
<line x1="458.1" y1="448.5" x2="267.2" y2="524.5" stroke="#ffffff" stroke-width="2.2" opacity="0.13"/>
<line x1="267.2" y1="524.5" x2="527.3" y2="530.5" stroke="#ffffff" stroke-width="2.2" opacity="0.21"/>
<line x1="527.3" y1="530.5" x2="577.1" y2="256.8" stroke="#ffffff" stroke-width="2.2" opacity="0.10"/>
<line x1="577.1" y1="256.8" x2="342.1" y2="242.3" stroke="#ffffff" stroke-width="2.2" opacity="0.09"/>
<line x1="342.1" y1="242.3" x2="269.7" y2="574.0" stroke="#ffffff" stroke-width="2.2" opacity="0.13"/>
<line x1="269.7" y1="574.0" x2="110.6" y2="534.0" stroke="#ffffff" stroke-width="2.2" opacity="0.18"/>
<line x1="110.6" y1="534.0" x2="416.8" y2="552.3" stroke="#ffffff" stroke-width="2.2" opacity="0.17"/>
<line x1="416.8" y1="552.3" x2="352.2" y2="483.2" stroke="#ffffff" stroke-width="2.2" opacity="0.08"/>
<line x1="352.2" y1="483.2" x2="398.8" y2="175.7" stroke="#ffffff" stroke-width="2.2" opacity="0.13"/>
<line x1="398.8" y1="175.7" x2="557.4" y2="165.3" stroke="#ffffff" stroke-width="2.2" opacity="0.11"/>
<circle cx="577.1" cy="256.8" r="2.4" fill="#ffffff" opacity="0.29815905280337673"/>
<circle cx="283.9" cy="346.0" r="4.6" fill="#ffffff" opacity="0.6217847330206745"/>
<circle cx="416.8" cy="552.3" r="2.0" fill="#ffffff" opacity="0.3723967217151106"/>
<circle cx="352.2" cy="483.2" r="2.6" fill="#ffffff" opacity="0.6175456608237277"/>
<circle cx="572.6" cy="208.7" r="3.6" fill="#ffffff" opacity="0.35800664607827937"/>
<circle cx="447.7" cy="332.7" r="2.5" fill="#ffffff" opacity="0.5976245069137871"/>
<circle cx="269.7" cy="574.0" r="1.6" fill="#ffffff" opacity="0.6561025383382106"/>
<circle cx="235.6" cy="554.2" r="4.6" fill="#ffffff" opacity="0.7203495825823075"/>
<circle cx="479.6" cy="251.6" r="4.3" fill="#ffffff" opacity="0.5518042640743868"/>
<circle cx="217.4" cy="332.6" r="2.8" fill="#ffffff" opacity="0.793824641444824"/>
<circle cx="267.2" cy="524.5" r="2.1" fill="#ffffff" opacity="0.7982911144820112"/>
<circle cx="187.6" cy="437.7" r="1.7" fill="#ffffff" opacity="0.32505189495467046"/>
<circle cx="590.2" cy="351.0" r="3.2" fill="#ffffff" opacity="0.3679267126145006"/>
<circle cx="625.2" cy="361.8" r="4.2" fill="#ffffff" opacity="0.3890931877200511"/>
<circle cx="433.4" cy="344.6" r="4.6" fill="#ffffff" opacity="0.456775361917092"/>
<circle cx="250.8" cy="315.4" r="3.0" fill="#ffffff" opacity="0.43650515710441384"/>
<circle cx="557.4" cy="165.3" r="4.0" fill="#ffffff" opacity="0.8397434659824119"/>
<circle cx="389.4" cy="356.0" r="2.5" fill="#ffffff" opacity="0.5078010202224518"/>
<circle cx="558.3" cy="586.3" r="3.3" fill="#ffffff" opacity="0.8149475207799608"/>
<circle cx="342.1" cy="242.3" r="3.6" fill="#ffffff" opacity="0.7633676029906996"/>
<circle cx="110.6" cy="534.0" r="3.1" fill="#ffffff" opacity="0.382885251980825"/>
<circle cx="183.2" cy="589.6" r="4.6" fill="#ffffff" opacity="0.47615045405419354"/>
<circle cx="158.7" cy="282.1" r="4.4" fill="#ffffff" opacity="0.4919191689726996"/>
<circle cx="347.1" cy="259.5" r="3.5" fill="#ffffff" opacity="0.792159564858322"/>
<circle cx="507.9" cy="183.8" r="3.9" fill="#ffffff" opacity="0.3705650082299278"/>
<circle cx="380.9" cy="342.8" r="4.1" fill="#ffffff" opacity="0.5996389623239762"/>
<circle cx="527.3" cy="530.5" r="4.7" fill="#ffffff" opacity="0.25378440500865274"/>
<circle cx="458.1" cy="448.5" r="2.8" fill="#ffffff" opacity="0.8057200382650925"/>
<circle cx="409.3" cy="433.8" r="2.0" fill="#ffffff" opacity="0.6996453670721705"/>
<circle cx="260.1" cy="550.7" r="2.8" fill="#ffffff" opacity="0.6517461460648871"/>
<circle cx="291.6" cy="374.8" r="3.4" fill="#ffffff" opacity="0.480867629417997"/>
<circle cx="398.8" cy="175.7" r="3.5" fill="#ffffff" opacity="0.479331744486969"/>
<circle cx="553.4" cy="358.0" r="3.0" fill="#ffffff" opacity="0.5819494674249603"/>
<circle cx="362.8" cy="226.4" r="4.5" fill="#ffffff" opacity="0.4828677563124629"/>
        
<rect x="42" y="1030" width="666" height="160" rx="30" fill="#ffffffd9" stroke="#1E1B2E" stroke-width="4" opacity="0.95"/>
<text x="375.0" y="1104" font-family="ui-sans-serif, system-ui, -apple-system, Segoe UI, Roboto, Helvetica, Arial" font-size="46" font-weight="900" text-anchor="middle" fill="#1E1B2E" opacity="0.98">The Tower</text>
<text x="375.0" y="1152" font-family="ui-sans-serif, system-ui, -apple-system, Segoe UI, Roboto, Helvetica, Arial" font-size="28" font-weight="700" text-anchor="middle" fill="#1E1B2E" opacity="0.7">Breakthrough</text>

    <g opacity="0.55">
      <circle cx="127" cy="1176" r="14" fill="#06D6A0"/>
      <circle cx="623" cy="1176" r="14" fill="#06D6A0"/>
      <path d="M 162 1176 L 588 1176" stroke="#06D6A0" stroke-width="4" opacity="0.45" stroke-linecap="round"/>
    </g>
    
</svg>
