<svg xmlns="http://www.w3.org/2000/svg" width="750" height="1250" viewBox="0 0 750 1250">
  <title>The Moon</title>


  <defs>
    <linearGradient id="g" x1="0" y1="0" x2="1" y2="1">
      <stop offset="0%" stop-color="#FFE6F2"/>
      <stop offset="100%" stop-color="#E6F7FF"/>
    </linearGradient>

    <!-- paper texture -->
    <filter id="paper" x="-20%" y="-20%" width="140%" height="140%">
      <feTurbulence type="fractalNoise" baseFrequency="0.017" numOctaves="3" seed="3567" result="noise"/>
      <feColorMatrix in="noise" type="matrix"
        values="1 0 0 0 0
                0 1 0 0 0
                0 0 1 0 0
                0 0 0 0.25 0" result="noiseAlpha"/>
      <feComposite in="noiseAlpha" in2="SourceGraphic" operator="over"/>
    </filter>

    <!-- soft glow -->
    <filter id="glow" x="-30%" y="-30%" width="160%" height="160%">
      <feGaussianBlur stdDeviation="10" result="blur"/>
      <feColorMatrix type="matrix" values="
        1 0 0 0 0
        0 1 0 0 0
        0 0 1 0 0
        0 0 0 0.32 0" result="blurAlpha"/>
      <feMerge>
        <feMergeNode in="blurAlpha"/>
        <feMergeNode in="SourceGraphic"/>
      </feMerge>
    </filter>
  </defs>

<rect x="0" y="0" width="750" height="1250" rx="58" ry="58" fill="url(#g)" stroke="none" stroke-width="0" opacity="1"/>
<rect x="0" y="0" width="750" height="1250" fill="#ffffff" opacity="0.08"/>
<line x1="43.3" y1="496.7" x2="552.5" y2="1177.8" stroke="#ffffff" stroke-width="2.2" opacity="0.13"/>
<line x1="552.5" y1="1177.8" x2="466.6" y2="492.3" stroke="#ffffff" stroke-width="2.2" opacity="0.19"/>
<line x1="466.6" y1="492.3" x2="689.6" y2="626.6" stroke="#ffffff" stroke-width="2.2" opacity="0.19"/>
<line x1="689.6" y1="626.6" x2="377.8" y2="695.4" stroke="#ffffff" stroke-width="2.2" opacity="0.11"/>
<line x1="377.8" y1="695.4" x2="514.3" y2="841.3" stroke="#ffffff" stroke-width="2.2" opacity="0.18"/>
<line x1="514.3" y1="841.3" x2="669.1" y2="1046.3" stroke="#ffffff" stroke-width="2.2" opacity="0.11"/>
<line x1="669.1" y1="1046.3" x2="615.8" y2="626.0" stroke="#ffffff" stroke-width="2.2" opacity="0.16"/>
<line x1="615.8" y1="626.0" x2="382.3" y2="244.0" stroke="#ffffff" stroke-width="2.2" opacity="0.10"/>
<line x1="382.3" y1="244.0" x2="386.5" y2="180.2" stroke="#ffffff" stroke-width="2.2" opacity="0.19"/>
<line x1="386.5" y1="180.2" x2="394.9" y2="156.5" stroke="#ffffff" stroke-width="2.2" opacity="0.14"/>
<line x1="394.9" y1="156.5" x2="298.5" y2="1029.0" stroke="#ffffff" stroke-width="2.2" opacity="0.16"/>
<line x1="298.5" y1="1029.0" x2="330.3" y2="684.2" stroke="#ffffff" stroke-width="2.2" opacity="0.13"/>
<line x1="330.3" y1="684.2" x2="291.9" y2="936.7" stroke="#ffffff" stroke-width="2.2" opacity="0.21"/>
<line x1="291.9" y1="936.7" x2="271.7" y2="922.6" stroke="#ffffff" stroke-width="2.2" opacity="0.13"/>
<line x1="271.7" y1="922.6" x2="434.2" y2="333.9" stroke="#ffffff" stroke-width="2.2" opacity="0.16"/>
<line x1="434.2" y1="333.9" x2="333.6" y2="470.2" stroke="#ffffff" stroke-width="2.2" opacity="0.17"/>
<line x1="333.6" y1="470.2" x2="116.6" y2="747.5" stroke="#ffffff" stroke-width="2.2" opacity="0.17"/>
<line x1="116.6" y1="747.5" x2="567.5" y2="131.9" stroke="#ffffff" stroke-width="2.2" opacity="0.12"/>
<circle cx="298.5" cy="1029.0" r="2.9" fill="#ffffff" opacity="0.7193647996452794"/>
<circle cx="116.6" cy="747.5" r="2.7" fill="#ffffff" opacity="0.7198247096863795"/>
<circle cx="343.2" cy="265.6" r="3.4" fill="#ffffff" opacity="0.6571777859231707"/>
<circle cx="466.6" cy="492.3" r="1.9" fill="#ffffff" opacity="0.6126299686809263"/>
<circle cx="510.7" cy="100.5" r="4.6" fill="#ffffff" opacity="0.5632784463868623"/>
<circle cx="415.7" cy="1078.6" r="4.0" fill="#ffffff" opacity="0.3541322726387075"/>
<circle cx="333.6" cy="470.2" r="2.0" fill="#ffffff" opacity="0.39486571882968413"/>
<circle cx="567.5" cy="131.9" r="4.2" fill="#ffffff" opacity="0.6448908707901084"/>
<circle cx="203.8" cy="1071.8" r="4.3" fill="#ffffff" opacity="0.3512136059276445"/>
<circle cx="633.6" cy="115.3" r="4.0" fill="#ffffff" opacity="0.5499559269005134"/>
<circle cx="374.8" cy="527.7" r="4.8" fill="#ffffff" opacity="0.7493100914358923"/>
<circle cx="535.3" cy="368.9" r="3.1" fill="#ffffff" opacity="0.6064083932316653"/>
<circle cx="382.3" cy="244.0" r="4.6" fill="#ffffff" opacity="0.46061000402976626"/>
<circle cx="552.5" cy="1177.8" r="4.1" fill="#ffffff" opacity="0.7240336966619266"/>
<circle cx="169.8" cy="436.3" r="3.2" fill="#ffffff" opacity="0.6955849643384118"/>
<circle cx="451.8" cy="1018.1" r="3.0" fill="#ffffff" opacity="0.6327183496262311"/>
<circle cx="330.3" cy="684.2" r="2.3" fill="#ffffff" opacity="0.32959897850198183"/>
<circle cx="394.9" cy="156.5" r="2.8" fill="#ffffff" opacity="0.7239184571200998"/>
<circle cx="429.8" cy="794.7" r="3.8" fill="#ffffff" opacity="0.4342429434909645"/>
<circle cx="306.5" cy="815.9" r="3.3" fill="#ffffff" opacity="0.8042411521451905"/>
<circle cx="271.7" cy="922.6" r="3.6" fill="#ffffff" opacity="0.7249162052281743"/>
<circle cx="662.0" cy="484.4" r="3.3" fill="#ffffff" opacity="0.2632908425111176"/>
<circle cx="634.6" cy="344.1" r="2.5" fill="#ffffff" opacity="0.3135418227787249"/>
<circle cx="406.8" cy="1055.6" r="3.6" fill="#ffffff" opacity="0.2744077358340646"/>
<circle cx="649.6" cy="1175.5" r="2.8" fill="#ffffff" opacity="0.4204920546062184"/>
<circle cx="43.3" cy="496.7" r="1.9" fill="#ffffff" opacity="0.7009806821980267"/>
<circle cx="259.6" cy="1145.2" r="2.5" fill="#ffffff" opacity="0.7139767571130126"/>
<circle cx="689.6" cy="626.6" r="3.7" fill="#ffffff" opacity="0.6857184047153131"/>
<circle cx="434.2" cy="333.9" r="1.8" fill="#ffffff" opacity="0.49682899221726745"/>
<circle cx="633.1" cy="551.6" r="3.9" fill="#ffffff" opacity="0.288390752223288"/>
<circle cx="486.5" cy="280.5" r="2.8" fill="#ffffff" opacity="0.47497173424159805"/>
<circle cx="377.8" cy="695.4" r="2.2" fill="#ffffff" opacity="0.5880373433818643"/>
<circle cx="189.6" cy="540.1" r="2.9" fill="#ffffff" opacity="0.6877008434576874"/>
<circle cx="196.4" cy="523.3" r="3.6" fill="#ffffff" opacity="0.4631455377764241"/>
<circle cx="386.5" cy="180.2" r="3.0" fill="#ffffff" opacity="0.4751735371584395"/>
<circle cx="606.7" cy="785.8" r="4.6" fill="#ffffff" opacity="0.6872735162962376"/>
<circle cx="161.9" cy="496.2" r="1.8" fill="#ffffff" opacity="0.38970342123587676"/>
<circle cx="319.5" cy="964.9" r="4.5" fill="#ffffff" opacity="0.3358146990448293"/>
<circle cx="615.8" cy="626.0" r="3.9" fill="#ffffff" opacity="0.7134368085149727"/>
<circle cx="669.1" cy="1046.3" r="3.9" fill="#ffffff" opacity="0.2809954295399528"/>
<circle cx="636.3" cy="807.7" r="2.3" fill="#ffffff" opacity="0.2776442790313378"/>
<circle cx="247.5" cy="1128.0" r="3.7" fill="#ffffff" opacity="0.587216962162445"/>
<circle cx="452.6" cy="986.8" r="2.1" fill="#ffffff" opacity="0.7826198883254534"/>
<circle cx="646.4" cy="241.2" r="2.4" fill="#ffffff" opacity="0.29490390668929434"/>
<circle cx="335.2" cy="204.1" r="2.9" fill="#ffffff" opacity="0.8049203896116629"/>
<circle cx="276.3" cy="512.1" r="4.0" fill="#ffffff" opacity="0.845874701525707"/>
<circle cx="514.3" cy="841.3" r="1.7" fill="#ffffff" opacity="0.40279594419672415"/>
<circle cx="647.7" cy="266.5" r="4.5" fill="#ffffff" opacity="0.6252981961901912"/>
<circle cx="291.9" cy="936.7" r="2.3" fill="#ffffff" opacity="0.6747078634932304"/>
<circle cx="387.4" cy="105.4" r="4.5" fill="#ffffff" opacity="0.7928400428450635"/>
<g filter="url(#paper)"><rect x="42" y="42" width="666" height="1166" rx="54" ry="54" fill="none" stroke="#1E1B2E" stroke-width="8" opacity="0.95"/>
<rect x="60" y="60" width="630" height="1130" rx="46" ry="46" fill="none" stroke="#FF4D6D" stroke-width="3" opacity="0.35"/>

  <g opacity="0.42">
    <circle cx="375.0" cy="560" r="285" fill="none" stroke="#FF4D6D" stroke-width="4.2" opacity="0.42"/>
    <circle cx="375.0" cy="560" r="233.7" fill="none" stroke="#FF4D6D" stroke-width="2.2" opacity="0.23"/>
    <line x1="642.0" y1="560.0" x2="674.0" y2="560.0" stroke="#FF4D6D" stroke-width="3.2" opacity="0.23" stroke-linecap="round"/><line x1="606.2" y1="693.5" x2="633.9" y2="709.5" stroke="#FF4D6D" stroke-width="3.2" opacity="0.23" stroke-linecap="round"/><line x1="508.5" y1="791.2" x2="524.5" y2="818.9" stroke="#FF4D6D" stroke-width="3.2" opacity="0.23" stroke-linecap="round"/><line x1="375.0" y1="827.0" x2="375.0" y2="859.0" stroke="#FF4D6D" stroke-width="3.2" opacity="0.23" stroke-linecap="round"/><line x1="241.5" y1="791.2" x2="225.5" y2="818.9" stroke="#FF4D6D" stroke-width="3.2" opacity="0.23" stroke-linecap="round"/><line x1="143.8" y1="693.5" x2="116.1" y2="709.5" stroke="#FF4D6D" stroke-width="3.2" opacity="0.23" stroke-linecap="round"/><line x1="108.0" y1="560.0" x2="76.0" y2="560.0" stroke="#FF4D6D" stroke-width="3.2" opacity="0.23" stroke-linecap="round"/><line x1="143.8" y1="426.5" x2="116.1" y2="410.5" stroke="#FF4D6D" stroke-width="3.2" opacity="0.23" stroke-linecap="round"/><line x1="241.5" y1="328.8" x2="225.5" y2="301.1" stroke="#FF4D6D" stroke-width="3.2" opacity="0.23" stroke-linecap="round"/><line x1="375.0" y1="293.0" x2="375.0" y2="261.0" stroke="#FF4D6D" stroke-width="3.2" opacity="0.23" stroke-linecap="round"/><line x1="508.5" y1="328.8" x2="524.5" y2="301.1" stroke="#FF4D6D" stroke-width="3.2" opacity="0.23" stroke-linecap="round"/><line x1="606.2" y1="426.5" x2="633.9" y2="410.5" stroke="#FF4D6D" stroke-width="3.2" opacity="0.23" stroke-linecap="round"/>
    <circle cx="659.9" cy="566.0" r="2.6" fill="#FF4D6D" opacity="0.40"/><circle cx="648.0" cy="641.8" r="3.1" fill="#FF4D6D" opacity="0.43"/><circle cx="623.8" cy="699.0" r="3.6" fill="#FF4D6D" opacity="0.33"/><circle cx="570.2" cy="767.6" r="3.3" fill="#FF4D6D" opacity="0.20"/><circle cx="524.8" cy="802.4" r="3.0" fill="#FF4D6D" opacity="0.39"/><circle cx="454.4" cy="833.7" r="3.2" fill="#FF4D6D" opacity="0.29"/><circle cx="373.0" cy="845.0" r="3.8" fill="#FF4D6D" opacity="0.44"/><circle cx="298.0" cy="834.4" r="2.9" fill="#FF4D6D" opacity="0.28"/><circle cx="231.6" cy="806.3" r="3.4" fill="#FF4D6D" opacity="0.35"/><circle cx="175.7" cy="763.7" r="3.0" fill="#FF4D6D" opacity="0.39"/><circle cx="131.3" cy="707.8" r="3.9" fill="#FF4D6D" opacity="0.22"/><circle cx="100.5" cy="636.5" r="3.9" fill="#FF4D6D" opacity="0.43"/><circle cx="90.1" cy="551.0" r="2.8" fill="#FF4D6D" opacity="0.18"/><circle cx="100.1" cy="484.8" r="2.8" fill="#FF4D6D" opacity="0.28"/><circle cx="130.7" cy="413.2" r="3.6" fill="#FF4D6D" opacity="0.27"/><circle cx="167.7" cy="364.4" r="3.9" fill="#FF4D6D" opacity="0.20"/><circle cx="237.0" cy="310.7" r="3.9" fill="#FF4D6D" opacity="0.32"/><circle cx="297.7" cy="285.7" r="3.8" fill="#FF4D6D" opacity="0.36"/><circle cx="384.1" cy="275.1" r="2.6" fill="#FF4D6D" opacity="0.21"/><circle cx="443.5" cy="283.3" r="3.1" fill="#FF4D6D" opacity="0.29"/><circle cx="515.0" cy="311.7" r="3.8" fill="#FF4D6D" opacity="0.22"/><circle cx="583.3" cy="365.5" r="3.0" fill="#FF4D6D" opacity="0.34"/><circle cx="626.3" cy="425.6" r="2.8" fill="#FF4D6D" opacity="0.31"/><circle cx="651.5" cy="490.8" r="4.0" fill="#FF4D6D" opacity="0.38"/>
  </g>

<g><g transform="translate(50,54)"><path d="M 18.0 117.0 C 45.0 45.0, 99.0 27.0, 153.0 54.0" fill="none" stroke="#FF4D6D" stroke-width="6" opacity="0.55" stroke-linecap="round"/></g><g transform="translate(700,54) scale(-1,1)"><path d="M 18.0 117.0 C 45.0 45.0, 99.0 27.0, 153.0 54.0" fill="none" stroke="#FF4D6D" stroke-width="6" opacity="0.55" stroke-linecap="round"/></g><g transform="translate(50,1196) scale(1,-1)"><path d="M 18.0 117.0 C 45.0 45.0, 99.0 27.0, 153.0 54.0" fill="none" stroke="#FF4D6D" stroke-width="6" opacity="0.55" stroke-linecap="round"/></g><g transform="translate(700,1196) scale(-1,-1)"><path d="M 18.0 117.0 C 45.0 45.0, 99.0 27.0, 153.0 54.0" fill="none" stroke="#FF4D6D" stroke-width="6" opacity="0.55" stroke-linecap="round"/></g></g></g>
<rect x="42" y="60" width="666" height="92" rx="30" fill="#ffffffcc" stroke="#1E1B2E" stroke-width="4" opacity="0.95"/>
<text x="375.0" y="122" font-family="ui-sans-serif, system-ui, -apple-system, Segoe UI, Roboto, Helvetica, Arial" font-size="30" font-weight="800" text-anchor="middle" fill="#1E1B2E" opacity="0.95" letter-spacing="1">MAJOR ARCANA • XVIII</text>
<rect x="76" y="170" width="598" height="760" rx="52" fill="#ffffff" opacity="0.15"/>

        <g opacity='0.9'><circle cx="165.0" cy="325" r="16" fill="none" stroke="#FF4D6D" stroke-width="4" opacity="0.30"/><circle cx="151.0" cy="325" r="14.7" fill="#FF4D6D" opacity="0.16"/><circle cx="235.0" cy="325" r="16" fill="none" stroke="#FF4D6D" stroke-width="4" opacity="0.30"/><circle cx="225.7" cy="325" r="14.7" fill="#FF4D6D" opacity="0.13"/><circle cx="305.0" cy="325" r="16" fill="none" stroke="#FF4D6D" stroke-width="4" opacity="0.30"/><circle cx="300.3" cy="325" r="14.7" fill="#FF4D6D" opacity="0.09"/><circle cx="375.0" cy="325" r="16" fill="none" stroke="#FF4D6D" stroke-width="4" opacity="0.30"/><circle cx="375.0" cy="325" r="14.7" fill="#FF4D6D" opacity="0.06"/><circle cx="445.0" cy="325" r="16" fill="none" stroke="#FF4D6D" stroke-width="4" opacity="0.30"/><circle cx="449.7" cy="325" r="14.7" fill="#FF4D6D" opacity="0.09"/><circle cx="515.0" cy="325" r="16" fill="none" stroke="#FF4D6D" stroke-width="4" opacity="0.30"/><circle cx="524.3" cy="325" r="14.7" fill="#FF4D6D" opacity="0.13"/><circle cx="585.0" cy="325" r="16" fill="none" stroke="#FF4D6D" stroke-width="4" opacity="0.30"/><circle cx="599.0" cy="325" r="14.7" fill="#FF4D6D" opacity="0.16"/></g>
        <g filter="url(#glow)">
          <path d="M 515.0 325 A 210 210 0 1 0 515.0 805 A 150 150 0 1 1 515.0 325 Z"
                fill="#ffffff" opacity="0.55" stroke="#FF4D6D" stroke-width="6"/>
        </g>
        <line x1="207.8" y1="617.9" x2="439.1" y2="572.0" stroke="#ffffff" stroke-width="2.2" opacity="0.15"/>
<line x1="439.1" y1="572.0" x2="144.7" y2="571.5" stroke="#ffffff" stroke-width="2.2" opacity="0.20"/>
<line x1="144.7" y1="571.5" x2="136.4" y2="505.7" stroke="#ffffff" stroke-width="2.2" opacity="0.20"/>
<line x1="136.4" y1="505.7" x2="447.8" y2="364.6" stroke="#ffffff" stroke-width="2.2" opacity="0.15"/>
<line x1="447.8" y1="364.6" x2="407.3" y2="607.6" stroke="#ffffff" stroke-width="2.2" opacity="0.15"/>
<line x1="407.3" y1="607.6" x2="370.5" y2="585.2" stroke="#ffffff" stroke-width="2.2" opacity="0.20"/>
<line x1="370.5" y1="585.2" x2="133.8" y2="387.9" stroke="#ffffff" stroke-width="2.2" opacity="0.19"/>
<circle cx="124.6" cy="378.7" r="2.6" fill="#ffffff" opacity="0.2674459420531265"/>
<circle cx="142.5" cy="314.7" r="4.3" fill="#ffffff" opacity="0.5042996764247621"/>
<circle cx="614.5" cy="452.2" r="2.8" fill="#ffffff" opacity="0.3395397059083836"/>
<circle cx="136.4" cy="505.7" r="3.4" fill="#ffffff" opacity="0.27307872532056904"/>
<circle cx="244.2" cy="529.8" r="2.5" fill="#ffffff" opacity="0.8206642355282835"/>
<circle cx="280.1" cy="263.4" r="2.2" fill="#ffffff" opacity="0.728474442604176"/>
<circle cx="483.7" cy="386.4" r="1.8" fill="#ffffff" opacity="0.6271138640686419"/>
<circle cx="267.7" cy="581.4" r="3.1" fill="#ffffff" opacity="0.37250908370546276"/>
<circle cx="207.8" cy="617.9" r="4.7" fill="#ffffff" opacity="0.39874536266221583"/>
<circle cx="144.7" cy="571.5" r="3.9" fill="#ffffff" opacity="0.8466180564707072"/>
<circle cx="447.8" cy="364.6" r="4.5" fill="#ffffff" opacity="0.5616194762568048"/>
<circle cx="370.5" cy="585.2" r="4.6" fill="#ffffff" opacity="0.7836191757965804"/>
<circle cx="407.3" cy="607.6" r="2.0" fill="#ffffff" opacity="0.8362128949189492"/>
<circle cx="439.1" cy="572.0" r="3.3" fill="#ffffff" opacity="0.6474625293448462"/>
<circle cx="147.9" cy="524.2" r="3.1" fill="#ffffff" opacity="0.5235257959131137"/>
<circle cx="251.2" cy="549.4" r="2.2" fill="#ffffff" opacity="0.28652718989641135"/>
<circle cx="295.2" cy="265.3" r="2.5" fill="#ffffff" opacity="0.3055308593342194"/>
<circle cx="133.8" cy="387.9" r="2.8" fill="#ffffff" opacity="0.5707352944728319"/>
        <path d="M 380.8 446.3 Q 374.2 638.9 270.5 720.1 Q 332.5 670.8 462.6 403.4 Q 357.2 654.8 382.7 750.9 Q 363.7 663.2 584.6 588.1 Q 392.7 643.4 369.8 547.0 Q 352.2 641.1 386.0 524.5 Q 377.4 544.1 420.8 550.5 Q 312.8 616.3 236.2 462.0 Z" fill="none" stroke="#FF4D6D" stroke-width="5.5" opacity="0.43" stroke-linecap="round" stroke-linejoin="round"/>
        
<rect x="42" y="1030" width="666" height="160" rx="30" fill="#ffffffd9" stroke="#1E1B2E" stroke-width="4" opacity="0.95"/>
<text x="375.0" y="1104" font-family="ui-sans-serif, system-ui, -apple-system, Segoe UI, Roboto, Helvetica, Arial" font-size="46" font-weight="900" text-anchor="middle" fill="#1E1B2E" opacity="0.98">The Moon</text>
<text x="375.0" y="1152" font-family="ui-sans-serif, system-ui, -apple-system, Segoe UI, Roboto, Helvetica, Arial" font-size="28" font-weight="700" text-anchor="middle" fill="#1E1B2E" opacity="0.7">Dreams</text>

    <g opacity="0.55">
      <circle cx="127" cy="1176" r="14" fill="#FF4D6D"/>
      <circle cx="623" cy="1176" r="14" fill="#FF4D6D"/>
      <path d="M 162 1176 L 588 1176" stroke="#FF4D6D" stroke-width="4" opacity="0.45" stroke-linecap="round"/>
    </g>
    
</svg>
