<svg xmlns="http://www.w3.org/2000/svg" width="750" height="1250" viewBox="0 0 750 1250">
  <title>Judgement</title>


  <defs>
    <linearGradient id="g" x1="0" y1="0" x2="1" y2="1">
      <stop offset="0%" stop-color="#FFF7CC"/>
      <stop offset="100%" stop-color="#E6FBFF"/>
    </linearGradient>

    <!-- paper texture -->
    <filter id="paper" x="-20%" y="-20%" width="140%" height="140%">
      <feTurbulence type="fractalNoise" baseFrequency="0.020" numOctaves="3" seed="7549" result="noise"/>
      <feColorMatrix in="noise" type="matrix"
        values="1 0 0 0 0
                0 1 0 0 0
                0 0 1 0 0
                0 0 0 0.25 0" result="noiseAlpha"/>
      <feComposite in="noiseAlpha" in2="SourceGraphic" operator="over"/>
    </filter>

    <!-- soft glow -->
    <filter id="glow" x="-30%" y="-30%" width="160%" height="160%">
      <feGaussianBlur stdDeviation="10" result="blur"/>
      <feColorMatrix type="matrix" values="
        1 0 0 0 0
        0 1 0 0 0
        0 0 1 0 0
        0 0 0 0.32 0" result="blurAlpha"/>
      <feMerge>
        <feMergeNode in="blurAlpha"/>
        <feMergeNode in="SourceGraphic"/>
      </feMerge>
    </filter>
  </defs>

<rect x="0" y="0" width="750" height="1250" rx="58" ry="58" fill="url(#g)" stroke="none" stroke-width="0" opacity="1"/>
<rect x="0" y="0" width="750" height="1250" fill="#ffffff" opacity="0.08"/>
<line x1="297.5" y1="982.2" x2="417.4" y2="972.1" stroke="#ffffff" stroke-width="2.2" opacity="0.20"/>
<line x1="417.4" y1="972.1" x2="703.3" y2="499.5" stroke="#ffffff" stroke-width="2.2" opacity="0.13"/>
<line x1="703.3" y1="499.5" x2="690.2" y2="757.4" stroke="#ffffff" stroke-width="2.2" opacity="0.09"/>
<line x1="690.2" y1="757.4" x2="463.7" y2="524.4" stroke="#ffffff" stroke-width="2.2" opacity="0.22"/>
<line x1="463.7" y1="524.4" x2="246.0" y2="180.0" stroke="#ffffff" stroke-width="2.2" opacity="0.21"/>
<line x1="246.0" y1="180.0" x2="484.0" y2="1027.5" stroke="#ffffff" stroke-width="2.2" opacity="0.11"/>
<line x1="484.0" y1="1027.5" x2="264.6" y2="618.1" stroke="#ffffff" stroke-width="2.2" opacity="0.16"/>
<line x1="264.6" y1="618.1" x2="618.9" y2="866.6" stroke="#ffffff" stroke-width="2.2" opacity="0.17"/>
<line x1="618.9" y1="866.6" x2="340.3" y2="1025.4" stroke="#ffffff" stroke-width="2.2" opacity="0.18"/>
<line x1="340.3" y1="1025.4" x2="267.2" y2="93.7" stroke="#ffffff" stroke-width="2.2" opacity="0.16"/>
<line x1="267.2" y1="93.7" x2="589.4" y2="948.2" stroke="#ffffff" stroke-width="2.2" opacity="0.21"/>
<line x1="589.4" y1="948.2" x2="118.5" y2="360.4" stroke="#ffffff" stroke-width="2.2" opacity="0.20"/>
<line x1="118.5" y1="360.4" x2="577.6" y2="283.8" stroke="#ffffff" stroke-width="2.2" opacity="0.14"/>
<line x1="577.6" y1="283.8" x2="427.1" y2="503.0" stroke="#ffffff" stroke-width="2.2" opacity="0.17"/>
<line x1="427.1" y1="503.0" x2="193.1" y2="1020.9" stroke="#ffffff" stroke-width="2.2" opacity="0.16"/>
<line x1="193.1" y1="1020.9" x2="634.6" y2="481.7" stroke="#ffffff" stroke-width="2.2" opacity="0.09"/>
<line x1="634.6" y1="481.7" x2="465.0" y2="207.0" stroke="#ffffff" stroke-width="2.2" opacity="0.16"/>
<line x1="465.0" y1="207.0" x2="352.6" y2="214.6" stroke="#ffffff" stroke-width="2.2" opacity="0.20"/>
<circle cx="371.0" cy="391.9" r="4.5" fill="#ffffff" opacity="0.2890472348520672"/>
<circle cx="297.5" cy="982.2" r="3.7" fill="#ffffff" opacity="0.6784448501703786"/>
<circle cx="340.3" cy="1025.4" r="4.4" fill="#ffffff" opacity="0.6933714212936533"/>
<circle cx="628.2" cy="371.8" r="2.8" fill="#ffffff" opacity="0.6643842452430488"/>
<circle cx="172.9" cy="808.1" r="3.2" fill="#ffffff" opacity="0.45431061596108435"/>
<circle cx="300.1" cy="962.1" r="4.1" fill="#ffffff" opacity="0.6283484630995821"/>
<circle cx="223.3" cy="805.6" r="2.6" fill="#ffffff" opacity="0.5731448229912588"/>
<circle cx="118.5" cy="360.4" r="4.8" fill="#ffffff" opacity="0.3718724868339759"/>
<circle cx="193.1" cy="1020.9" r="2.9" fill="#ffffff" opacity="0.4984112744610408"/>
<circle cx="106.3" cy="176.0" r="3.7" fill="#ffffff" opacity="0.7226514438720258"/>
<circle cx="264.6" cy="618.1" r="4.2" fill="#ffffff" opacity="0.45406654150733583"/>
<circle cx="427.1" cy="503.0" r="2.1" fill="#ffffff" opacity="0.498384015225431"/>
<circle cx="267.2" cy="93.7" r="4.0" fill="#ffffff" opacity="0.3194307420535308"/>
<circle cx="577.6" cy="283.8" r="3.1" fill="#ffffff" opacity="0.5524758635022384"/>
<circle cx="537.6" cy="168.7" r="2.3" fill="#ffffff" opacity="0.6812960279348417"/>
<circle cx="246.0" cy="180.0" r="2.0" fill="#ffffff" opacity="0.45595532867039645"/>
<circle cx="265.3" cy="794.2" r="3.3" fill="#ffffff" opacity="0.5922224021902598"/>
<circle cx="137.3" cy="1063.3" r="1.8" fill="#ffffff" opacity="0.3837839151977668"/>
<circle cx="654.9" cy="599.5" r="3.5" fill="#ffffff" opacity="0.6363261251495935"/>
<circle cx="182.3" cy="1175.5" r="2.3" fill="#ffffff" opacity="0.6281172499257621"/>
<circle cx="417.4" cy="972.1" r="3.6" fill="#ffffff" opacity="0.600768363002813"/>
<circle cx="532.9" cy="293.0" r="3.6" fill="#ffffff" opacity="0.7891251114150599"/>
<circle cx="434.2" cy="623.7" r="3.6" fill="#ffffff" opacity="0.8493954902070482"/>
<circle cx="72.7" cy="748.8" r="2.4" fill="#ffffff" opacity="0.4602388636639628"/>
<circle cx="79.6" cy="818.2" r="2.6" fill="#ffffff" opacity="0.3110235569058059"/>
<circle cx="465.0" cy="207.0" r="2.4" fill="#ffffff" opacity="0.5297705484532165"/>
<circle cx="593.5" cy="813.1" r="1.9" fill="#ffffff" opacity="0.5917977759355766"/>
<circle cx="310.7" cy="304.5" r="4.5" fill="#ffffff" opacity="0.3982507605717801"/>
<circle cx="618.9" cy="866.6" r="4.7" fill="#ffffff" opacity="0.6122499207842118"/>
<circle cx="397.9" cy="451.3" r="1.6" fill="#ffffff" opacity="0.34346780733558274"/>
<circle cx="326.0" cy="478.9" r="2.5" fill="#ffffff" opacity="0.48267878422315846"/>
<circle cx="634.6" cy="481.7" r="4.5" fill="#ffffff" opacity="0.7589351444254193"/>
<circle cx="589.4" cy="948.2" r="4.0" fill="#ffffff" opacity="0.48944410355664214"/>
<circle cx="385.0" cy="77.0" r="2.0" fill="#ffffff" opacity="0.2786539867100529"/>
<circle cx="484.0" cy="1027.5" r="3.9" fill="#ffffff" opacity="0.5200731230508742"/>
<circle cx="688.0" cy="735.3" r="3.0" fill="#ffffff" opacity="0.6915544893426813"/>
<circle cx="171.3" cy="497.6" r="1.7" fill="#ffffff" opacity="0.28752393461381587"/>
<circle cx="574.9" cy="1114.0" r="3.4" fill="#ffffff" opacity="0.8299001157265634"/>
<circle cx="690.2" cy="757.4" r="4.2" fill="#ffffff" opacity="0.25868578053996916"/>
<circle cx="703.9" cy="467.4" r="3.9" fill="#ffffff" opacity="0.6981166339193763"/>
<circle cx="505.1" cy="438.6" r="2.6" fill="#ffffff" opacity="0.3238878232733103"/>
<circle cx="420.5" cy="706.2" r="2.8" fill="#ffffff" opacity="0.34570001288631913"/>
<circle cx="352.6" cy="214.6" r="2.2" fill="#ffffff" opacity="0.286273479926712"/>
<circle cx="463.7" cy="524.4" r="4.0" fill="#ffffff" opacity="0.5720539865301189"/>
<circle cx="538.3" cy="392.7" r="4.1" fill="#ffffff" opacity="0.4281741559098944"/>
<circle cx="703.3" cy="499.5" r="4.2" fill="#ffffff" opacity="0.7912732261105279"/>
<circle cx="350.7" cy="1173.9" r="4.2" fill="#ffffff" opacity="0.5728535789462568"/>
<circle cx="699.6" cy="938.8" r="3.3" fill="#ffffff" opacity="0.49285279934584547"/>
<circle cx="496.5" cy="861.9" r="3.7" fill="#ffffff" opacity="0.835884183190731"/>
<circle cx="667.4" cy="93.3" r="4.5" fill="#ffffff" opacity="0.7972320948074619"/>
<g filter="url(#paper)"><rect x="42" y="42" width="666" height="1166" rx="54" ry="54" fill="none" stroke="#1E1B2E" stroke-width="8" opacity="0.95"/>
<rect x="60" y="60" width="630" height="1130" rx="46" ry="46" fill="none" stroke="#F25F4C" stroke-width="3" opacity="0.35"/>

  <g opacity="0.42">
    <circle cx="375.0" cy="560" r="285" fill="none" stroke="#F25F4C" stroke-width="4.2" opacity="0.42"/>
    <circle cx="375.0" cy="560" r="233.7" fill="none" stroke="#F25F4C" stroke-width="2.2" opacity="0.23"/>
    <line x1="642.0" y1="560.0" x2="674.0" y2="560.0" stroke="#F25F4C" stroke-width="3.2" opacity="0.23" stroke-linecap="round"/><line x1="606.2" y1="693.5" x2="633.9" y2="709.5" stroke="#F25F4C" stroke-width="3.2" opacity="0.23" stroke-linecap="round"/><line x1="508.5" y1="791.2" x2="524.5" y2="818.9" stroke="#F25F4C" stroke-width="3.2" opacity="0.23" stroke-linecap="round"/><line x1="375.0" y1="827.0" x2="375.0" y2="859.0" stroke="#F25F4C" stroke-width="3.2" opacity="0.23" stroke-linecap="round"/><line x1="241.5" y1="791.2" x2="225.5" y2="818.9" stroke="#F25F4C" stroke-width="3.2" opacity="0.23" stroke-linecap="round"/><line x1="143.8" y1="693.5" x2="116.1" y2="709.5" stroke="#F25F4C" stroke-width="3.2" opacity="0.23" stroke-linecap="round"/><line x1="108.0" y1="560.0" x2="76.0" y2="560.0" stroke="#F25F4C" stroke-width="3.2" opacity="0.23" stroke-linecap="round"/><line x1="143.8" y1="426.5" x2="116.1" y2="410.5" stroke="#F25F4C" stroke-width="3.2" opacity="0.23" stroke-linecap="round"/><line x1="241.5" y1="328.8" x2="225.5" y2="301.1" stroke="#F25F4C" stroke-width="3.2" opacity="0.23" stroke-linecap="round"/><line x1="375.0" y1="293.0" x2="375.0" y2="261.0" stroke="#F25F4C" stroke-width="3.2" opacity="0.23" stroke-linecap="round"/><line x1="508.5" y1="328.8" x2="524.5" y2="301.1" stroke="#F25F4C" stroke-width="3.2" opacity="0.23" stroke-linecap="round"/><line x1="606.2" y1="426.5" x2="633.9" y2="410.5" stroke="#F25F4C" stroke-width="3.2" opacity="0.23" stroke-linecap="round"/>
    <circle cx="659.9" cy="567.8" r="3.5" fill="#F25F4C" opacity="0.41"/><circle cx="651.7" cy="628.1" r="3.4" fill="#F25F4C" opacity="0.27"/><circle cx="616.8" cy="710.8" r="3.0" fill="#F25F4C" opacity="0.43"/><circle cx="581.4" cy="756.5" r="3.0" fill="#F25F4C" opacity="0.41"/><circle cx="518.0" cy="806.5" r="3.3" fill="#F25F4C" opacity="0.35"/><circle cx="450.4" cy="834.9" r="2.7" fill="#F25F4C" opacity="0.27"/><circle cx="378.2" cy="845.0" r="2.8" fill="#F25F4C" opacity="0.23"/><circle cx="294.2" cy="833.3" r="3.2" fill="#F25F4C" opacity="0.33"/><circle cx="225.7" cy="802.7" r="3.5" fill="#F25F4C" opacity="0.28"/><circle cx="169.9" cy="757.9" r="3.2" fill="#F25F4C" opacity="0.27"/><circle cx="128.4" cy="702.8" r="3.8" fill="#F25F4C" opacity="0.44"/><circle cx="101.9" cy="641.6" r="3.4" fill="#F25F4C" opacity="0.18"/><circle cx="90.0" cy="559.4" r="3.0" fill="#F25F4C" opacity="0.44"/><circle cx="101.0" cy="481.5" r="2.7" fill="#F25F4C" opacity="0.30"/><circle cx="133.2" cy="409.1" r="3.7" fill="#F25F4C" opacity="0.29"/><circle cx="170.1" cy="361.9" r="3.7" fill="#F25F4C" opacity="0.35"/><circle cx="233.3" cy="312.7" r="2.7" fill="#F25F4C" opacity="0.32"/><circle cx="306.5" cy="283.4" r="2.8" fill="#F25F4C" opacity="0.22"/><circle cx="371.2" cy="275.0" r="3.0" fill="#F25F4C" opacity="0.23"/><circle cx="445.3" cy="283.8" r="3.2" fill="#F25F4C" opacity="0.39"/><circle cx="525.4" cy="317.9" r="2.7" fill="#F25F4C" opacity="0.38"/><circle cx="573.7" cy="355.7" r="3.7" fill="#F25F4C" opacity="0.20"/><circle cx="618.5" cy="411.9" r="3.0" fill="#F25F4C" opacity="0.19"/><circle cx="651.3" cy="490.1" r="3.2" fill="#F25F4C" opacity="0.24"/>
  </g>

<g><g transform="translate(50,54)"><path d="M 32.4 126.0 C 63.0 54.0, 111.6 32.4, 158.4 39.6" fill="none" stroke="#F25F4C" stroke-width="6" opacity="0.55" stroke-linecap="round"/></g><g transform="translate(700,54) scale(-1,1)"><path d="M 32.4 126.0 C 63.0 54.0, 111.6 32.4, 158.4 39.6" fill="none" stroke="#F25F4C" stroke-width="6" opacity="0.55" stroke-linecap="round"/></g><g transform="translate(50,1196) scale(1,-1)"><path d="M 32.4 126.0 C 63.0 54.0, 111.6 32.4, 158.4 39.6" fill="none" stroke="#F25F4C" stroke-width="6" opacity="0.55" stroke-linecap="round"/></g><g transform="translate(700,1196) scale(-1,-1)"><path d="M 32.4 126.0 C 63.0 54.0, 111.6 32.4, 158.4 39.6" fill="none" stroke="#F25F4C" stroke-width="6" opacity="0.55" stroke-linecap="round"/></g></g></g>
<rect x="42" y="60" width="666" height="92" rx="30" fill="#ffffffcc" stroke="#1E1B2E" stroke-width="4" opacity="0.95"/>
<text x="375.0" y="122" font-family="ui-sans-serif, system-ui, -apple-system, Segoe UI, Roboto, Helvetica, Arial" font-size="30" font-weight="800" text-anchor="middle" fill="#1E1B2E" opacity="0.95" letter-spacing="1">MAJOR ARCANA • XX</text>
<rect x="76" y="170" width="598" height="760" rx="52" fill="#ffffff" opacity="0.15"/>

        <g filter="url(#glow)">
          <path d="M 185.0 345 Q 365.0 265 565.0 375
                   Q 465.0 525 335.0 475
                   Q 265.0 445 185.0 345 Z"
                fill="#ffffff" opacity="0.52" stroke="#F25F4C" stroke-width="7"/>
          <circle cx="355.0" cy="405" r="18" fill="#F25F4C" opacity="0.55"/>
          <circle cx="405.0" cy="390" r="12" fill="#F25F4C" opacity="0.45"/>
          <polygon points="375.00,585.00 403.21,666.17 489.13,667.92 420.65,719.83 445.53,802.08 375.00,753.00 304.47,802.08 329.35,719.83 260.87,667.92 346.79,666.17" fill="#F25F4C" opacity="0.20"/>
        </g>
        <path d="M 333.0 387.4 Q 309.8 552.7 462.6 634.9 Q 324.5 650.2 308.9 658.4 Q 379.6 655.2 524.1 710.9 Q 351.1 538.5 212.2 733.4 Q 330.3 560.5 563.5 596.9 " fill="none" stroke="#F25F4C" stroke-width="5.5" opacity="0.26" stroke-linecap="round" stroke-linejoin="round"/>
        
<rect x="42" y="1030" width="666" height="160" rx="30" fill="#ffffffd9" stroke="#1E1B2E" stroke-width="4" opacity="0.95"/>
<text x="375.0" y="1104" font-family="ui-sans-serif, system-ui, -apple-system, Segoe UI, Roboto, Helvetica, Arial" font-size="46" font-weight="900" text-anchor="middle" fill="#1E1B2E" opacity="0.98">Judgement</text>
<text x="375.0" y="1152" font-family="ui-sans-serif, system-ui, -apple-system, Segoe UI, Roboto, Helvetica, Arial" font-size="28" font-weight="700" text-anchor="middle" fill="#1E1B2E" opacity="0.7">Awakening</text>

    <g opacity="0.55">
      <circle cx="127" cy="1176" r="14" fill="#F25F4C"/>
      <circle cx="623" cy="1176" r="14" fill="#F25F4C"/>
      <path d="M 162 1176 L 588 1176" stroke="#F25F4C" stroke-width="4" opacity="0.45" stroke-linecap="round"/>
    </g>
    
</svg>
