<svg xmlns="http://www.w3.org/2000/svg" width="750" height="1250" viewBox="0 0 750 1250">
  <title>Ace of Wands</title>


  <defs>
    <linearGradient id="g" x1="0" y1="0" x2="1" y2="1">
      <stop offset="0%" stop-color="#FFF6E5"/>
      <stop offset="100%" stop-color="#E5FFF6"/>
    </linearGradient>

    <!-- paper texture -->
    <filter id="paper" x="-20%" y="-20%" width="140%" height="140%">
      <feTurbulence type="fractalNoise" baseFrequency="0.018" numOctaves="3" seed="5576" result="noise"/>
      <feColorMatrix in="noise" type="matrix"
        values="1 0 0 0 0
                0 1 0 0 0
                0 0 1 0 0
                0 0 0 0.25 0" result="noiseAlpha"/>
      <feComposite in="noiseAlpha" in2="SourceGraphic" operator="over"/>
    </filter>

    <!-- soft glow -->
    <filter id="glow" x="-30%" y="-30%" width="160%" height="160%">
      <feGaussianBlur stdDeviation="10" result="blur"/>
      <feColorMatrix type="matrix" values="
        1 0 0 0 0
        0 1 0 0 0
        0 0 1 0 0
        0 0 0 0.32 0" result="blurAlpha"/>
      <feMerge>
        <feMergeNode in="blurAlpha"/>
        <feMergeNode in="SourceGraphic"/>
      </feMerge>
    </filter>
  </defs>

<rect x="0" y="0" width="750" height="1250" rx="58" ry="58" fill="url(#g)" stroke="none" stroke-width="0" opacity="1"/>
<rect x="0" y="0" width="750" height="1250" fill="#ffffff" opacity="0.08"/>
<line x1="298.9" y1="1032.0" x2="538.6" y2="1066.6" stroke="#ffffff" stroke-width="2.2" opacity="0.14"/>
<line x1="538.6" y1="1066.6" x2="695.4" y2="729.9" stroke="#ffffff" stroke-width="2.2" opacity="0.20"/>
<line x1="695.4" y1="729.9" x2="43.1" y2="99.1" stroke="#ffffff" stroke-width="2.2" opacity="0.14"/>
<line x1="43.1" y1="99.1" x2="363.4" y2="670.7" stroke="#ffffff" stroke-width="2.2" opacity="0.09"/>
<line x1="363.4" y1="670.7" x2="404.0" y2="272.1" stroke="#ffffff" stroke-width="2.2" opacity="0.16"/>
<line x1="404.0" y1="272.1" x2="567.9" y2="496.6" stroke="#ffffff" stroke-width="2.2" opacity="0.18"/>
<line x1="567.9" y1="496.6" x2="72.0" y2="626.8" stroke="#ffffff" stroke-width="2.2" opacity="0.19"/>
<line x1="72.0" y1="626.8" x2="135.6" y2="720.7" stroke="#ffffff" stroke-width="2.2" opacity="0.19"/>
<line x1="135.6" y1="720.7" x2="166.3" y2="1168.7" stroke="#ffffff" stroke-width="2.2" opacity="0.19"/>
<line x1="166.3" y1="1168.7" x2="285.9" y2="606.8" stroke="#ffffff" stroke-width="2.2" opacity="0.18"/>
<line x1="285.9" y1="606.8" x2="55.9" y2="186.4" stroke="#ffffff" stroke-width="2.2" opacity="0.20"/>
<line x1="55.9" y1="186.4" x2="688.2" y2="1161.2" stroke="#ffffff" stroke-width="2.2" opacity="0.13"/>
<line x1="688.2" y1="1161.2" x2="490.2" y2="987.1" stroke="#ffffff" stroke-width="2.2" opacity="0.16"/>
<line x1="490.2" y1="987.1" x2="237.3" y2="347.5" stroke="#ffffff" stroke-width="2.2" opacity="0.15"/>
<line x1="237.3" y1="347.5" x2="362.1" y2="1015.5" stroke="#ffffff" stroke-width="2.2" opacity="0.09"/>
<line x1="362.1" y1="1015.5" x2="606.6" y2="295.2" stroke="#ffffff" stroke-width="2.2" opacity="0.15"/>
<line x1="606.6" y1="295.2" x2="666.4" y2="537.5" stroke="#ffffff" stroke-width="2.2" opacity="0.08"/>
<line x1="666.4" y1="537.5" x2="347.8" y2="746.4" stroke="#ffffff" stroke-width="2.2" opacity="0.15"/>
<circle cx="256.9" cy="640.6" r="2.1" fill="#ffffff" opacity="0.7505975470897126"/>
<circle cx="72.0" cy="626.8" r="4.2" fill="#ffffff" opacity="0.33794778536452164"/>
<circle cx="556.3" cy="495.1" r="2.5" fill="#ffffff" opacity="0.5229290472536674"/>
<circle cx="688.2" cy="1161.2" r="1.6" fill="#ffffff" opacity="0.6773995357796325"/>
<circle cx="484.5" cy="727.9" r="4.4" fill="#ffffff" opacity="0.2610542464398363"/>
<circle cx="363.4" cy="670.7" r="3.0" fill="#ffffff" opacity="0.3940331047075404"/>
<circle cx="696.0" cy="942.1" r="4.0" fill="#ffffff" opacity="0.638994002068216"/>
<circle cx="650.8" cy="469.5" r="4.5" fill="#ffffff" opacity="0.4279986854245228"/>
<circle cx="185.2" cy="55.5" r="3.4" fill="#ffffff" opacity="0.6074366982622338"/>
<circle cx="55.9" cy="186.4" r="4.6" fill="#ffffff" opacity="0.6380117900084735"/>
<circle cx="447.7" cy="475.3" r="3.5" fill="#ffffff" opacity="0.5396313312385914"/>
<circle cx="695.4" cy="729.9" r="3.7" fill="#ffffff" opacity="0.3090342339204289"/>
<circle cx="489.6" cy="537.3" r="4.6" fill="#ffffff" opacity="0.8226618474939114"/>
<circle cx="505.4" cy="80.0" r="2.4" fill="#ffffff" opacity="0.5111867368935346"/>
<circle cx="666.4" cy="537.5" r="3.2" fill="#ffffff" opacity="0.6874944413165278"/>
<circle cx="237.3" cy="347.5" r="3.7" fill="#ffffff" opacity="0.46141188270865896"/>
<circle cx="660.8" cy="233.8" r="2.1" fill="#ffffff" opacity="0.7041608475593741"/>
<circle cx="343.9" cy="483.1" r="4.3" fill="#ffffff" opacity="0.39440566690106504"/>
<circle cx="135.6" cy="720.7" r="2.9" fill="#ffffff" opacity="0.5886841859526879"/>
<circle cx="571.5" cy="184.4" r="3.8" fill="#ffffff" opacity="0.4402192182300261"/>
<circle cx="384.4" cy="1036.3" r="2.9" fill="#ffffff" opacity="0.6959170741942853"/>
<circle cx="226.1" cy="540.7" r="4.2" fill="#ffffff" opacity="0.5200691129956078"/>
<circle cx="490.2" cy="987.1" r="3.5" fill="#ffffff" opacity="0.39862309925040246"/>
<circle cx="312.4" cy="628.1" r="2.8" fill="#ffffff" opacity="0.6773483605324803"/>
<circle cx="681.3" cy="781.9" r="3.2" fill="#ffffff" opacity="0.520743803982666"/>
<circle cx="80.0" cy="65.9" r="4.0" fill="#ffffff" opacity="0.31355210713549786"/>
<circle cx="538.6" cy="1066.6" r="2.4" fill="#ffffff" opacity="0.6197004548234645"/>
<circle cx="567.9" cy="496.6" r="2.2" fill="#ffffff" opacity="0.36475378460841346"/>
<circle cx="640.6" cy="959.6" r="4.4" fill="#ffffff" opacity="0.2830801481859097"/>
<circle cx="309.9" cy="633.4" r="1.9" fill="#ffffff" opacity="0.6696622673197683"/>
<circle cx="65.8" cy="925.1" r="2.2" fill="#ffffff" opacity="0.6263975310054362"/>
<circle cx="705.4" cy="1040.8" r="3.3" fill="#ffffff" opacity="0.5188879570264298"/>
<circle cx="132.3" cy="237.0" r="4.3" fill="#ffffff" opacity="0.7544606150010857"/>
<circle cx="426.5" cy="1076.8" r="4.6" fill="#ffffff" opacity="0.30117812959264184"/>
<circle cx="183.1" cy="608.0" r="2.4" fill="#ffffff" opacity="0.7447573742891027"/>
<circle cx="589.5" cy="102.9" r="3.8" fill="#ffffff" opacity="0.3582104078909992"/>
<circle cx="166.3" cy="1168.7" r="4.5" fill="#ffffff" opacity="0.5323483607136337"/>
<circle cx="298.9" cy="1032.0" r="4.0" fill="#ffffff" opacity="0.6115876901362418"/>
<circle cx="43.1" cy="99.1" r="2.3" fill="#ffffff" opacity="0.7788108429050039"/>
<circle cx="347.8" cy="746.4" r="4.7" fill="#ffffff" opacity="0.545940098093881"/>
<circle cx="362.1" cy="1015.5" r="1.8" fill="#ffffff" opacity="0.4681332299805503"/>
<circle cx="606.6" cy="295.2" r="3.5" fill="#ffffff" opacity="0.8199518878666533"/>
<circle cx="563.6" cy="488.3" r="4.7" fill="#ffffff" opacity="0.7550616233977812"/>
<circle cx="285.9" cy="606.8" r="4.2" fill="#ffffff" opacity="0.8390673727614751"/>
<circle cx="510.6" cy="497.1" r="3.1" fill="#ffffff" opacity="0.3326458760944578"/>
<circle cx="404.0" cy="272.1" r="3.2" fill="#ffffff" opacity="0.8279575949088168"/>
<circle cx="641.7" cy="649.7" r="4.3" fill="#ffffff" opacity="0.5037137848394775"/>
<circle cx="631.4" cy="876.8" r="1.9" fill="#ffffff" opacity="0.6887958404540203"/>
<circle cx="596.6" cy="113.9" r="3.0" fill="#ffffff" opacity="0.6453288797836516"/>
<circle cx="532.4" cy="442.5" r="4.2" fill="#ffffff" opacity="0.5194127927364279"/>
<g filter="url(#paper)"><rect x="42" y="42" width="666" height="1166" rx="54" ry="54" fill="none" stroke="#1E1B2E" stroke-width="8" opacity="0.95"/>
<rect x="60" y="60" width="630" height="1130" rx="46" ry="46" fill="none" stroke="#FF8FAB" stroke-width="3" opacity="0.35"/>

  <g opacity="0.42">
    <circle cx="375.0" cy="560" r="285" fill="none" stroke="#FF8FAB" stroke-width="4.2" opacity="0.42"/>
    <circle cx="375.0" cy="560" r="233.7" fill="none" stroke="#FF8FAB" stroke-width="2.2" opacity="0.23"/>
    <line x1="642.0" y1="560.0" x2="674.0" y2="560.0" stroke="#FF8FAB" stroke-width="3.2" opacity="0.23" stroke-linecap="round"/><line x1="606.2" y1="693.5" x2="633.9" y2="709.5" stroke="#FF8FAB" stroke-width="3.2" opacity="0.23" stroke-linecap="round"/><line x1="508.5" y1="791.2" x2="524.5" y2="818.9" stroke="#FF8FAB" stroke-width="3.2" opacity="0.23" stroke-linecap="round"/><line x1="375.0" y1="827.0" x2="375.0" y2="859.0" stroke="#FF8FAB" stroke-width="3.2" opacity="0.23" stroke-linecap="round"/><line x1="241.5" y1="791.2" x2="225.5" y2="818.9" stroke="#FF8FAB" stroke-width="3.2" opacity="0.23" stroke-linecap="round"/><line x1="143.8" y1="693.5" x2="116.1" y2="709.5" stroke="#FF8FAB" stroke-width="3.2" opacity="0.23" stroke-linecap="round"/><line x1="108.0" y1="560.0" x2="76.0" y2="560.0" stroke="#FF8FAB" stroke-width="3.2" opacity="0.23" stroke-linecap="round"/><line x1="143.8" y1="426.5" x2="116.1" y2="410.5" stroke="#FF8FAB" stroke-width="3.2" opacity="0.23" stroke-linecap="round"/><line x1="241.5" y1="328.8" x2="225.5" y2="301.1" stroke="#FF8FAB" stroke-width="3.2" opacity="0.23" stroke-linecap="round"/><line x1="375.0" y1="293.0" x2="375.0" y2="261.0" stroke="#FF8FAB" stroke-width="3.2" opacity="0.23" stroke-linecap="round"/><line x1="508.5" y1="328.8" x2="524.5" y2="301.1" stroke="#FF8FAB" stroke-width="3.2" opacity="0.23" stroke-linecap="round"/><line x1="606.2" y1="426.5" x2="633.9" y2="410.5" stroke="#FF8FAB" stroke-width="3.2" opacity="0.23" stroke-linecap="round"/>
    <circle cx="659.9" cy="566.8" r="3.7" fill="#FF8FAB" opacity="0.22"/><circle cx="648.1" cy="641.4" r="3.0" fill="#FF8FAB" opacity="0.42"/><circle cx="622.5" cy="701.3" r="2.6" fill="#FF8FAB" opacity="0.39"/><circle cx="570.7" cy="767.2" r="3.3" fill="#FF8FAB" opacity="0.28"/><circle cx="510.4" cy="810.8" r="2.9" fill="#FF8FAB" opacity="0.34"/><circle cx="440.7" cy="837.3" r="4.0" fill="#FF8FAB" opacity="0.24"/><circle cx="382.0" cy="844.9" r="3.2" fill="#FF8FAB" opacity="0.31"/><circle cx="305.1" cy="836.3" r="3.1" fill="#FF8FAB" opacity="0.20"/><circle cx="225.2" cy="802.5" r="2.7" fill="#FF8FAB" opacity="0.24"/><circle cx="172.5" cy="760.5" r="3.5" fill="#FF8FAB" opacity="0.30"/><circle cx="125.1" cy="697.1" r="2.6" fill="#FF8FAB" opacity="0.27"/><circle cx="99.7" cy="633.6" r="3.2" fill="#FF8FAB" opacity="0.26"/><circle cx="90.0" cy="555.0" r="3.1" fill="#FF8FAB" opacity="0.28"/><circle cx="98.4" cy="491.3" r="3.9" fill="#FF8FAB" opacity="0.40"/><circle cx="124.9" cy="423.3" r="3.4" fill="#FF8FAB" opacity="0.33"/><circle cx="180.5" cy="351.7" r="3.3" fill="#FF8FAB" opacity="0.34"/><circle cx="235.3" cy="311.6" r="3.2" fill="#FF8FAB" opacity="0.19"/><circle cx="302.5" cy="284.4" r="3.5" fill="#FF8FAB" opacity="0.38"/><circle cx="371.3" cy="275.0" r="3.5" fill="#FF8FAB" opacity="0.38"/><circle cx="448.5" cy="284.7" r="3.2" fill="#FF8FAB" opacity="0.38"/><circle cx="525.9" cy="318.2" r="3.1" fill="#FF8FAB" opacity="0.41"/><circle cx="582.2" cy="364.4" r="2.6" fill="#FF8FAB" opacity="0.33"/><circle cx="623.7" cy="420.9" r="3.1" fill="#FF8FAB" opacity="0.42"/><circle cx="652.3" cy="494.2" r="2.6" fill="#FF8FAB" opacity="0.39"/>
  </g>

<g><g transform="translate(50,54)"><path d="M 14.4 117.0 C 54.0 14.4, 126.0 14.4, 165.6 117.0" fill="none" stroke="#FF8FAB" stroke-width="6" opacity="0.55" stroke-linecap="round"/></g><g transform="translate(700,54) scale(-1,1)"><path d="M 14.4 117.0 C 54.0 14.4, 126.0 14.4, 165.6 117.0" fill="none" stroke="#FF8FAB" stroke-width="6" opacity="0.55" stroke-linecap="round"/></g><g transform="translate(50,1196) scale(1,-1)"><path d="M 14.4 117.0 C 54.0 14.4, 126.0 14.4, 165.6 117.0" fill="none" stroke="#FF8FAB" stroke-width="6" opacity="0.55" stroke-linecap="round"/></g><g transform="translate(700,1196) scale(-1,-1)"><path d="M 14.4 117.0 C 54.0 14.4, 126.0 14.4, 165.6 117.0" fill="none" stroke="#FF8FAB" stroke-width="6" opacity="0.55" stroke-linecap="round"/></g></g></g>
<rect x="42" y="60" width="666" height="92" rx="30" fill="#ffffffcc" stroke="#1E1B2E" stroke-width="4" opacity="0.95"/>
<text x="375.0" y="122" font-family="ui-sans-serif, system-ui, -apple-system, Segoe UI, Roboto, Helvetica, Arial" font-size="30" font-weight="800" text-anchor="middle" fill="#1E1B2E" opacity="0.95" letter-spacing="1">MINOR ARCANA • WANDS</text>
<rect x="76" y="170" width="598" height="760" rx="52" fill="#ffffff" opacity="0.15"/>
<g><path d="M 112.0 880 C 152.0 690 82.0 450 142.0 230" fill="none" stroke="#FF8FAB" stroke-width="4" opacity="0.10" stroke-linecap="round"/><circle cx="132.0" cy="450.0" r="9" fill="#FF8FAB" opacity="0.08"/><path d="M 202.0 880 C 242.0 690 172.0 450 232.0 230" fill="none" stroke="#FF8FAB" stroke-width="4" opacity="0.10" stroke-linecap="round"/><circle cx="222.0" cy="450.0" r="9" fill="#FF8FAB" opacity="0.08"/><path d="M 292.0 880 C 332.0 690 262.0 450 322.0 230" fill="none" stroke="#FF8FAB" stroke-width="4" opacity="0.10" stroke-linecap="round"/><circle cx="312.0" cy="450.0" r="9" fill="#FF8FAB" opacity="0.08"/><path d="M 382.0 880 C 422.0 690 352.0 450 412.0 230" fill="none" stroke="#FF8FAB" stroke-width="4" opacity="0.10" stroke-linecap="round"/><circle cx="402.0" cy="450.0" r="9" fill="#FF8FAB" opacity="0.08"/><path d="M 472.0 880 C 512.0 690 442.0 450 502.0 230" fill="none" stroke="#FF8FAB" stroke-width="4" opacity="0.10" stroke-linecap="round"/><circle cx="492.0" cy="450.0" r="9" fill="#FF8FAB" opacity="0.08"/><path d="M 562.0 880 C 602.0 690 532.0 450 592.0 230" fill="none" stroke="#FF8FAB" stroke-width="4" opacity="0.10" stroke-linecap="round"/><circle cx="582.0" cy="450.0" r="9" fill="#FF8FAB" opacity="0.08"/><path d="M 652.0 880 C 692.0 690 622.0 450 682.0 230" fill="none" stroke="#FF8FAB" stroke-width="4" opacity="0.10" stroke-linecap="round"/><circle cx="672.0" cy="450.0" r="9" fill="#FF8FAB" opacity="0.08"/></g>
        <g>
          <line x1="230.0" y1="647.6" x2="520.0" y2="512.4" stroke="#1E1B2E" stroke-width="14.0" stroke-linecap="round"/>
          <line x1="230.0" y1="647.6" x2="520.0" y2="512.4" stroke="#FF8FAB" stroke-width="6.0" stroke-linecap="round" opacity="0.55"/>
          
        <polygon points="520.0,512.4 485.3,504.3 470.2,535.6 503.9,544.2"
                 fill="#ffffff" stroke="#1E1B2E" stroke-width="5" opacity="0.92"/>
        
          <circle cx="230.0" cy="647.6" r="14.0" fill="#fff" stroke="#1E1B2E" stroke-width="5" opacity="0.9"/>
        </g>
        <line x1="529.4" y1="453.6" x2="339.1" y2="585.4" stroke="#ffffff" stroke-width="2.2" opacity="0.11"/>
<line x1="339.1" y1="585.4" x2="370.7" y2="423.3" stroke="#ffffff" stroke-width="2.2" opacity="0.10"/>
<line x1="370.7" y1="423.3" x2="517.7" y2="348.4" stroke="#ffffff" stroke-width="2.2" opacity="0.17"/>
<line x1="517.7" y1="348.4" x2="568.4" y2="667.1" stroke="#ffffff" stroke-width="2.2" opacity="0.14"/>
<line x1="568.4" y1="667.1" x2="285.2" y2="285.7" stroke="#ffffff" stroke-width="2.2" opacity="0.18"/>
<line x1="285.2" y1="285.7" x2="241.4" y2="421.6" stroke="#ffffff" stroke-width="2.2" opacity="0.21"/>
<circle cx="599.4" cy="399.9" r="2.5" fill="#ffffff" opacity="0.6619201305150975"/>
<circle cx="370.7" cy="423.3" r="3.7" fill="#ffffff" opacity="0.7395247114090115"/>
<circle cx="154.2" cy="327.2" r="2.0" fill="#ffffff" opacity="0.3132011049054764"/>
<circle cx="241.4" cy="421.6" r="1.8" fill="#ffffff" opacity="0.4324772410063311"/>
<circle cx="285.2" cy="285.7" r="2.8" fill="#ffffff" opacity="0.7751786042016225"/>
<circle cx="339.1" cy="585.4" r="3.8" fill="#ffffff" opacity="0.4548192726865248"/>
<circle cx="165.5" cy="639.9" r="4.3" fill="#ffffff" opacity="0.55371042096489"/>
<circle cx="568.4" cy="667.1" r="1.8" fill="#ffffff" opacity="0.7881205623583837"/>
<circle cx="417.4" cy="454.0" r="4.3" fill="#ffffff" opacity="0.4981891053590498"/>
<circle cx="529.4" cy="453.6" r="4.5" fill="#ffffff" opacity="0.3981425013170864"/>
<circle cx="517.7" cy="348.4" r="2.2" fill="#ffffff" opacity="0.2837059415161255"/>
<circle cx="383.9" cy="279.6" r="4.8" fill="#ffffff" opacity="0.8207831117158128"/>
<circle cx="544.1" cy="388.0" r="3.4" fill="#ffffff" opacity="0.4355601274902853"/>
<circle cx="230.1" cy="509.4" r="4.2" fill="#ffffff" opacity="0.6893624577561613"/>
<rect x="42" y="1030" width="666" height="160" rx="30" fill="#ffffffd9" stroke="#1E1B2E" stroke-width="4" opacity="0.95"/>
<text x="375.0" y="1104" font-family="ui-sans-serif, system-ui, -apple-system, Segoe UI, Roboto, Helvetica, Arial" font-size="46" font-weight="900" text-anchor="middle" fill="#1E1B2E" opacity="0.98">Ace of Wands</text>
<text x="375.0" y="1152" font-family="ui-sans-serif, system-ui, -apple-system, Segoe UI, Roboto, Helvetica, Arial" font-size="28" font-weight="700" text-anchor="middle" fill="#1E1B2E" opacity="0.7">New start</text>

    <g opacity="0.55">
      <circle cx="127" cy="1176" r="14" fill="#FF8FAB"/>
      <circle cx="623" cy="1176" r="14" fill="#FF8FAB"/>
      <path d="M 162 1176 L 588 1176" stroke="#FF8FAB" stroke-width="4" opacity="0.45" stroke-linecap="round"/>
    </g>
    
</svg>
