<svg xmlns="http://www.w3.org/2000/svg" width="750" height="1250" viewBox="0 0 750 1250">
  <title>2 of Wands</title>


  <defs>
    <linearGradient id="g" x1="0" y1="0" x2="1" y2="1">
      <stop offset="0%" stop-color="#EAF7FF"/>
      <stop offset="100%" stop-color="#F3E6FF"/>
    </linearGradient>

    <!-- paper texture -->
    <filter id="paper" x="-20%" y="-20%" width="140%" height="140%">
      <feTurbulence type="fractalNoise" baseFrequency="0.017" numOctaves="3" seed="955" result="noise"/>
      <feColorMatrix in="noise" type="matrix"
        values="1 0 0 0 0
                0 1 0 0 0
                0 0 1 0 0
                0 0 0 0.25 0" result="noiseAlpha"/>
      <feComposite in="noiseAlpha" in2="SourceGraphic" operator="over"/>
    </filter>

    <!-- soft glow -->
    <filter id="glow" x="-30%" y="-30%" width="160%" height="160%">
      <feGaussianBlur stdDeviation="10" result="blur"/>
      <feColorMatrix type="matrix" values="
        1 0 0 0 0
        0 1 0 0 0
        0 0 1 0 0
        0 0 0 0.32 0" result="blurAlpha"/>
      <feMerge>
        <feMergeNode in="blurAlpha"/>
        <feMergeNode in="SourceGraphic"/>
      </feMerge>
    </filter>
  </defs>

<rect x="0" y="0" width="750" height="1250" rx="58" ry="58" fill="url(#g)" stroke="none" stroke-width="0" opacity="1"/>
<rect x="0" y="0" width="750" height="1250" fill="#ffffff" opacity="0.08"/>
<line x1="506.4" y1="482.7" x2="699.0" y2="622.5" stroke="#ffffff" stroke-width="2.2" opacity="0.10"/>
<line x1="699.0" y1="622.5" x2="668.1" y2="65.6" stroke="#ffffff" stroke-width="2.2" opacity="0.18"/>
<line x1="668.1" y1="65.6" x2="208.9" y2="258.7" stroke="#ffffff" stroke-width="2.2" opacity="0.12"/>
<line x1="208.9" y1="258.7" x2="461.9" y2="605.2" stroke="#ffffff" stroke-width="2.2" opacity="0.15"/>
<line x1="461.9" y1="605.2" x2="275.0" y2="308.3" stroke="#ffffff" stroke-width="2.2" opacity="0.13"/>
<line x1="275.0" y1="308.3" x2="125.8" y2="99.8" stroke="#ffffff" stroke-width="2.2" opacity="0.20"/>
<line x1="125.8" y1="99.8" x2="407.9" y2="760.8" stroke="#ffffff" stroke-width="2.2" opacity="0.14"/>
<line x1="407.9" y1="760.8" x2="664.5" y2="1151.4" stroke="#ffffff" stroke-width="2.2" opacity="0.17"/>
<line x1="664.5" y1="1151.4" x2="561.2" y2="739.3" stroke="#ffffff" stroke-width="2.2" opacity="0.22"/>
<line x1="561.2" y1="739.3" x2="551.8" y2="443.8" stroke="#ffffff" stroke-width="2.2" opacity="0.17"/>
<line x1="551.8" y1="443.8" x2="473.1" y2="1017.5" stroke="#ffffff" stroke-width="2.2" opacity="0.19"/>
<line x1="473.1" y1="1017.5" x2="693.2" y2="502.3" stroke="#ffffff" stroke-width="2.2" opacity="0.18"/>
<line x1="693.2" y1="502.3" x2="284.5" y2="175.5" stroke="#ffffff" stroke-width="2.2" opacity="0.20"/>
<line x1="284.5" y1="175.5" x2="671.9" y2="331.7" stroke="#ffffff" stroke-width="2.2" opacity="0.11"/>
<line x1="671.9" y1="331.7" x2="584.2" y2="602.5" stroke="#ffffff" stroke-width="2.2" opacity="0.22"/>
<line x1="584.2" y1="602.5" x2="359.1" y2="261.0" stroke="#ffffff" stroke-width="2.2" opacity="0.20"/>
<line x1="359.1" y1="261.0" x2="317.6" y2="1174.8" stroke="#ffffff" stroke-width="2.2" opacity="0.16"/>
<line x1="317.6" y1="1174.8" x2="103.4" y2="517.8" stroke="#ffffff" stroke-width="2.2" opacity="0.12"/>
<circle cx="664.5" cy="1151.4" r="4.5" fill="#ffffff" opacity="0.46748048950638776"/>
<circle cx="359.1" cy="261.0" r="4.5" fill="#ffffff" opacity="0.4252440228327008"/>
<circle cx="45.7" cy="546.4" r="2.2" fill="#ffffff" opacity="0.7778867778956224"/>
<circle cx="213.2" cy="962.9" r="4.3" fill="#ffffff" opacity="0.28079557416785683"/>
<circle cx="671.9" cy="331.7" r="2.5" fill="#ffffff" opacity="0.7966639190084961"/>
<circle cx="549.1" cy="683.5" r="4.0" fill="#ffffff" opacity="0.7603861026538317"/>
<circle cx="673.2" cy="1196.3" r="2.8" fill="#ffffff" opacity="0.6837924707375529"/>
<circle cx="693.2" cy="502.3" r="4.2" fill="#ffffff" opacity="0.3181424753580406"/>
<circle cx="582.4" cy="305.4" r="2.4" fill="#ffffff" opacity="0.5056823397465455"/>
<circle cx="125.8" cy="99.8" r="3.9" fill="#ffffff" opacity="0.41785800951689295"/>
<circle cx="461.9" cy="605.2" r="3.9" fill="#ffffff" opacity="0.4706454350781263"/>
<circle cx="551.8" cy="443.8" r="2.7" fill="#ffffff" opacity="0.8373298353203533"/>
<circle cx="172.4" cy="1171.4" r="4.1" fill="#ffffff" opacity="0.37067687571934765"/>
<circle cx="668.1" cy="65.6" r="3.2" fill="#ffffff" opacity="0.7940605501501908"/>
<circle cx="174.6" cy="1183.2" r="4.5" fill="#ffffff" opacity="0.5784001859219079"/>
<circle cx="699.0" cy="622.5" r="2.6" fill="#ffffff" opacity="0.5232915756897781"/>
<circle cx="506.4" cy="482.7" r="2.9" fill="#ffffff" opacity="0.30286958043521683"/>
<circle cx="561.2" cy="739.3" r="1.9" fill="#ffffff" opacity="0.7943433003461217"/>
<circle cx="199.7" cy="168.0" r="2.4" fill="#ffffff" opacity="0.3861288240016727"/>
<circle cx="473.1" cy="1017.5" r="2.8" fill="#ffffff" opacity="0.5109057666816612"/>
<circle cx="471.2" cy="397.2" r="1.8" fill="#ffffff" opacity="0.827917778546402"/>
<circle cx="501.7" cy="1028.9" r="4.5" fill="#ffffff" opacity="0.49393798336232975"/>
<circle cx="614.9" cy="974.2" r="2.7" fill="#ffffff" opacity="0.26907932067385676"/>
<circle cx="131.9" cy="1051.7" r="4.6" fill="#ffffff" opacity="0.2551461181776568"/>
<circle cx="275.0" cy="308.3" r="3.5" fill="#ffffff" opacity="0.6072661247911033"/>
<circle cx="209.3" cy="986.5" r="3.3" fill="#ffffff" opacity="0.3876785757559008"/>
<circle cx="103.4" cy="517.8" r="4.1" fill="#ffffff" opacity="0.4372638480020933"/>
<circle cx="584.2" cy="602.5" r="2.1" fill="#ffffff" opacity="0.624477548378222"/>
<circle cx="212.1" cy="776.2" r="4.1" fill="#ffffff" opacity="0.291904783910784"/>
<circle cx="208.9" cy="258.7" r="3.3" fill="#ffffff" opacity="0.8481347273063695"/>
<circle cx="187.3" cy="126.5" r="3.6" fill="#ffffff" opacity="0.6442693182300563"/>
<circle cx="180.4" cy="675.8" r="3.4" fill="#ffffff" opacity="0.6063816278515556"/>
<circle cx="464.6" cy="236.9" r="2.9" fill="#ffffff" opacity="0.4512705125939981"/>
<circle cx="407.9" cy="760.8" r="3.8" fill="#ffffff" opacity="0.6683368835280084"/>
<circle cx="324.5" cy="879.4" r="1.9" fill="#ffffff" opacity="0.8253245660490675"/>
<circle cx="284.5" cy="175.5" r="4.1" fill="#ffffff" opacity="0.5168145527634913"/>
<circle cx="382.6" cy="571.8" r="3.0" fill="#ffffff" opacity="0.28301559611743743"/>
<circle cx="521.4" cy="126.5" r="4.0" fill="#ffffff" opacity="0.7999045878677397"/>
<circle cx="155.4" cy="175.3" r="4.6" fill="#ffffff" opacity="0.6041776905410985"/>
<circle cx="656.6" cy="773.5" r="4.8" fill="#ffffff" opacity="0.7680260606552657"/>
<circle cx="336.9" cy="714.4" r="4.7" fill="#ffffff" opacity="0.5596907736868234"/>
<circle cx="75.1" cy="60.7" r="3.1" fill="#ffffff" opacity="0.7616433197698003"/>
<circle cx="497.2" cy="645.9" r="1.6" fill="#ffffff" opacity="0.5688588281504314"/>
<circle cx="554.0" cy="459.0" r="2.3" fill="#ffffff" opacity="0.3815444423700183"/>
<circle cx="701.0" cy="346.8" r="3.0" fill="#ffffff" opacity="0.4928544745463066"/>
<circle cx="614.7" cy="1001.2" r="2.4" fill="#ffffff" opacity="0.8357170398396084"/>
<circle cx="317.6" cy="1174.8" r="1.8" fill="#ffffff" opacity="0.5840880007157823"/>
<circle cx="388.4" cy="329.0" r="3.5" fill="#ffffff" opacity="0.6560630866693811"/>
<circle cx="622.8" cy="754.9" r="4.7" fill="#ffffff" opacity="0.6921016014657242"/>
<circle cx="274.4" cy="1012.5" r="4.0" fill="#ffffff" opacity="0.3823758636959256"/>
<g filter="url(#paper)"><rect x="42" y="42" width="666" height="1166" rx="54" ry="54" fill="none" stroke="#1E1B2E" stroke-width="8" opacity="0.95"/>
<rect x="60" y="60" width="630" height="1130" rx="46" ry="46" fill="none" stroke="#FF8FAB" stroke-width="3" opacity="0.35"/>

  <g opacity="0.42">
    <circle cx="375.0" cy="560" r="285" fill="none" stroke="#FF8FAB" stroke-width="4.2" opacity="0.42"/>
    <circle cx="375.0" cy="560" r="233.7" fill="none" stroke="#FF8FAB" stroke-width="2.2" opacity="0.23"/>
    <line x1="642.0" y1="560.0" x2="674.0" y2="560.0" stroke="#FF8FAB" stroke-width="3.2" opacity="0.23" stroke-linecap="round"/><line x1="606.2" y1="693.5" x2="633.9" y2="709.5" stroke="#FF8FAB" stroke-width="3.2" opacity="0.23" stroke-linecap="round"/><line x1="508.5" y1="791.2" x2="524.5" y2="818.9" stroke="#FF8FAB" stroke-width="3.2" opacity="0.23" stroke-linecap="round"/><line x1="375.0" y1="827.0" x2="375.0" y2="859.0" stroke="#FF8FAB" stroke-width="3.2" opacity="0.23" stroke-linecap="round"/><line x1="241.5" y1="791.2" x2="225.5" y2="818.9" stroke="#FF8FAB" stroke-width="3.2" opacity="0.23" stroke-linecap="round"/><line x1="143.8" y1="693.5" x2="116.1" y2="709.5" stroke="#FF8FAB" stroke-width="3.2" opacity="0.23" stroke-linecap="round"/><line x1="108.0" y1="560.0" x2="76.0" y2="560.0" stroke="#FF8FAB" stroke-width="3.2" opacity="0.23" stroke-linecap="round"/><line x1="143.8" y1="426.5" x2="116.1" y2="410.5" stroke="#FF8FAB" stroke-width="3.2" opacity="0.23" stroke-linecap="round"/><line x1="241.5" y1="328.8" x2="225.5" y2="301.1" stroke="#FF8FAB" stroke-width="3.2" opacity="0.23" stroke-linecap="round"/><line x1="375.0" y1="293.0" x2="375.0" y2="261.0" stroke="#FF8FAB" stroke-width="3.2" opacity="0.23" stroke-linecap="round"/><line x1="508.5" y1="328.8" x2="524.5" y2="301.1" stroke="#FF8FAB" stroke-width="3.2" opacity="0.23" stroke-linecap="round"/><line x1="606.2" y1="426.5" x2="633.9" y2="410.5" stroke="#FF8FAB" stroke-width="3.2" opacity="0.23" stroke-linecap="round"/>
    <circle cx="660.0" cy="557.4" r="3.1" fill="#FF8FAB" opacity="0.24"/><circle cx="649.9" cy="635.2" r="3.2" fill="#FF8FAB" opacity="0.21"/><circle cx="623.3" cy="700.0" r="2.9" fill="#FF8FAB" opacity="0.30"/><circle cx="575.6" cy="762.5" r="3.4" fill="#FF8FAB" opacity="0.33"/><circle cx="509.7" cy="811.2" r="3.7" fill="#FF8FAB" opacity="0.33"/><circle cx="449.8" cy="835.0" r="3.0" fill="#FF8FAB" opacity="0.27"/><circle cx="380.8" cy="844.9" r="2.8" fill="#FF8FAB" opacity="0.19"/><circle cx="305.9" cy="836.5" r="3.0" fill="#FF8FAB" opacity="0.40"/><circle cx="229.3" cy="804.9" r="3.6" fill="#FF8FAB" opacity="0.39"/><circle cx="172.0" cy="760.0" r="2.8" fill="#FF8FAB" opacity="0.31"/><circle cx="126.2" cy="699.1" r="3.2" fill="#FF8FAB" opacity="0.21"/><circle cx="101.3" cy="639.4" r="3.2" fill="#FF8FAB" opacity="0.31"/><circle cx="90.0" cy="560.7" r="3.7" fill="#FF8FAB" opacity="0.38"/><circle cx="101.2" cy="480.7" r="3.7" fill="#FF8FAB" opacity="0.31"/><circle cx="129.0" cy="416.1" r="3.2" fill="#FF8FAB" opacity="0.44"/><circle cx="169.4" cy="362.7" r="3.5" fill="#FF8FAB" opacity="0.40"/><circle cx="229.0" cy="315.2" r="3.2" fill="#FF8FAB" opacity="0.33"/><circle cx="292.9" cy="287.1" r="2.7" fill="#FF8FAB" opacity="0.28"/><circle cx="373.8" cy="275.0" r="3.5" fill="#FF8FAB" opacity="0.20"/><circle cx="451.9" cy="285.6" r="3.0" fill="#FF8FAB" opacity="0.29"/><circle cx="520.8" cy="315.1" r="4.0" fill="#FF8FAB" opacity="0.35"/><circle cx="583.2" cy="365.4" r="3.9" fill="#FF8FAB" opacity="0.31"/><circle cx="620.9" cy="416.0" r="2.7" fill="#FF8FAB" opacity="0.31"/><circle cx="651.5" cy="491.1" r="2.8" fill="#FF8FAB" opacity="0.19"/>
  </g>

<g><g transform="translate(50,54)"><path d="M 14.4 117.0 C 54.0 14.4, 126.0 14.4, 165.6 117.0" fill="none" stroke="#FF8FAB" stroke-width="6" opacity="0.55" stroke-linecap="round"/></g><g transform="translate(700,54) scale(-1,1)"><path d="M 14.4 117.0 C 54.0 14.4, 126.0 14.4, 165.6 117.0" fill="none" stroke="#FF8FAB" stroke-width="6" opacity="0.55" stroke-linecap="round"/></g><g transform="translate(50,1196) scale(1,-1)"><path d="M 14.4 117.0 C 54.0 14.4, 126.0 14.4, 165.6 117.0" fill="none" stroke="#FF8FAB" stroke-width="6" opacity="0.55" stroke-linecap="round"/></g><g transform="translate(700,1196) scale(-1,-1)"><path d="M 14.4 117.0 C 54.0 14.4, 126.0 14.4, 165.6 117.0" fill="none" stroke="#FF8FAB" stroke-width="6" opacity="0.55" stroke-linecap="round"/></g></g></g>
<rect x="42" y="60" width="666" height="92" rx="30" fill="#ffffffcc" stroke="#1E1B2E" stroke-width="4" opacity="0.95"/>
<text x="375.0" y="122" font-family="ui-sans-serif, system-ui, -apple-system, Segoe UI, Roboto, Helvetica, Arial" font-size="30" font-weight="800" text-anchor="middle" fill="#1E1B2E" opacity="0.95" letter-spacing="1">MINOR ARCANA • WANDS</text>
<rect x="76" y="170" width="598" height="760" rx="52" fill="#ffffff" opacity="0.15"/>
<g><path d="M 112.0 880 C 152.0 690 82.0 450 142.0 230" fill="none" stroke="#FF8FAB" stroke-width="4" opacity="0.10" stroke-linecap="round"/><circle cx="132.0" cy="450.0" r="9" fill="#FF8FAB" opacity="0.08"/><path d="M 202.0 880 C 242.0 690 172.0 450 232.0 230" fill="none" stroke="#FF8FAB" stroke-width="4" opacity="0.10" stroke-linecap="round"/><circle cx="222.0" cy="450.0" r="9" fill="#FF8FAB" opacity="0.08"/><path d="M 292.0 880 C 332.0 690 262.0 450 322.0 230" fill="none" stroke="#FF8FAB" stroke-width="4" opacity="0.10" stroke-linecap="round"/><circle cx="312.0" cy="450.0" r="9" fill="#FF8FAB" opacity="0.08"/><path d="M 382.0 880 C 422.0 690 352.0 450 412.0 230" fill="none" stroke="#FF8FAB" stroke-width="4" opacity="0.10" stroke-linecap="round"/><circle cx="402.0" cy="450.0" r="9" fill="#FF8FAB" opacity="0.08"/><path d="M 472.0 880 C 512.0 690 442.0 450 502.0 230" fill="none" stroke="#FF8FAB" stroke-width="4" opacity="0.10" stroke-linecap="round"/><circle cx="492.0" cy="450.0" r="9" fill="#FF8FAB" opacity="0.08"/><path d="M 562.0 880 C 602.0 690 532.0 450 592.0 230" fill="none" stroke="#FF8FAB" stroke-width="4" opacity="0.10" stroke-linecap="round"/><circle cx="582.0" cy="450.0" r="9" fill="#FF8FAB" opacity="0.08"/><path d="M 652.0 880 C 692.0 690 622.0 450 682.0 230" fill="none" stroke="#FF8FAB" stroke-width="4" opacity="0.10" stroke-linecap="round"/><circle cx="672.0" cy="450.0" r="9" fill="#FF8FAB" opacity="0.08"/></g><g><g opacity="0.55">
        <g>
          <line x1="327.0" y1="429.1" x2="408.2" y2="391.2" stroke="#1E1B2E" stroke-width="3.9" stroke-linecap="round"/>
          <line x1="327.0" y1="429.1" x2="408.2" y2="391.2" stroke="#FF8FAB" stroke-width="1.7" stroke-linecap="round" opacity="0.55"/>
          
        <polygon points="408.2,391.2 373.5,383.1 358.4,414.4 392.1,423.0"
                 fill="#ffffff" stroke="#1E1B2E" stroke-width="5" opacity="0.92"/>
        
          <circle cx="327.0" cy="429.1" r="3.9" fill="#fff" stroke="#1E1B2E" stroke-width="5" opacity="0.9"/>
        </g>
        </g><g opacity="0.55">
        <g>
          <line x1="339.2" y1="848.9" x2="420.4" y2="811.0" stroke="#1E1B2E" stroke-width="3.9" stroke-linecap="round"/>
          <line x1="339.2" y1="848.9" x2="420.4" y2="811.0" stroke="#FF8FAB" stroke-width="1.7" stroke-linecap="round" opacity="0.55"/>
          
        <polygon points="420.4,811.0 385.8,802.9 370.6,834.3 404.3,842.8"
                 fill="#ffffff" stroke="#1E1B2E" stroke-width="5" opacity="0.92"/>
        
          <circle cx="339.2" cy="848.9" r="3.9" fill="#fff" stroke="#1E1B2E" stroke-width="5" opacity="0.9"/>
        </g>
        </g></g><g opacity="0.9"><g opacity='0.9'><circle cx="165.0" cy="330" r="14" fill="none" stroke="#FF8FAB" stroke-width="4" opacity="0.30"/><circle cx="151.0" cy="330" r="12.9" fill="#FF8FAB" opacity="0.16"/><circle cx="235.0" cy="330" r="14" fill="none" stroke="#FF8FAB" stroke-width="4" opacity="0.30"/><circle cx="225.7" cy="330" r="12.9" fill="#FF8FAB" opacity="0.13"/><circle cx="305.0" cy="330" r="14" fill="none" stroke="#FF8FAB" stroke-width="4" opacity="0.30"/><circle cx="300.3" cy="330" r="12.9" fill="#FF8FAB" opacity="0.09"/><circle cx="375.0" cy="330" r="14" fill="none" stroke="#FF8FAB" stroke-width="4" opacity="0.30"/><circle cx="375.0" cy="330" r="12.9" fill="#FF8FAB" opacity="0.06"/><circle cx="445.0" cy="330" r="14" fill="none" stroke="#FF8FAB" stroke-width="4" opacity="0.30"/><circle cx="449.7" cy="330" r="12.9" fill="#FF8FAB" opacity="0.09"/><circle cx="515.0" cy="330" r="14" fill="none" stroke="#FF8FAB" stroke-width="4" opacity="0.30"/><circle cx="524.3" cy="330" r="12.9" fill="#FF8FAB" opacity="0.13"/><circle cx="585.0" cy="330" r="14" fill="none" stroke="#FF8FAB" stroke-width="4" opacity="0.30"/><circle cx="599.0" cy="330" r="12.9" fill="#FF8FAB" opacity="0.16"/></g></g>
        <g filter="url(#glow)">
          <circle cx="375.0" cy="630" r="170" fill="#ffffff" opacity="0.40" stroke="#FF8FAB" stroke-width="7"/>
          
        <g>
          <line x1="270.6" y1="678.7" x2="479.4" y2="581.3" stroke="#1E1B2E" stroke-width="10.1" stroke-linecap="round"/>
          <line x1="270.6" y1="678.7" x2="479.4" y2="581.3" stroke="#FF8FAB" stroke-width="4.3" stroke-linecap="round" opacity="0.55"/>
          
        <polygon points="479.4,581.3 444.7,573.2 429.6,604.6 463.3,613.1"
                 fill="#ffffff" stroke="#1E1B2E" stroke-width="5" opacity="0.92"/>
        
          <circle cx="270.6" cy="678.7" r="10.1" fill="#fff" stroke="#1E1B2E" stroke-width="5" opacity="0.9"/>
        </g>
        
        </g>
        <line x1="296.9" y1="332.3" x2="563.8" y2="348.9" stroke="#ffffff" stroke-width="2.2" opacity="0.16"/>
<line x1="563.8" y1="348.9" x2="549.8" y2="458.8" stroke="#ffffff" stroke-width="2.2" opacity="0.22"/>
<line x1="549.8" y1="458.8" x2="160.1" y2="530.8" stroke="#ffffff" stroke-width="2.2" opacity="0.15"/>
<line x1="160.1" y1="530.8" x2="393.6" y2="628.3" stroke="#ffffff" stroke-width="2.2" opacity="0.09"/>
<line x1="393.6" y1="628.3" x2="289.1" y2="636.4" stroke="#ffffff" stroke-width="2.2" opacity="0.22"/>
<line x1="289.1" y1="636.4" x2="287.1" y2="518.5" stroke="#ffffff" stroke-width="2.2" opacity="0.16"/>
<circle cx="556.3" cy="326.1" r="1.6" fill="#ffffff" opacity="0.4545198217312194"/>
<circle cx="313.4" cy="399.5" r="2.4" fill="#ffffff" opacity="0.4022786426039211"/>
<circle cx="393.6" cy="628.3" r="2.3" fill="#ffffff" opacity="0.4440659731389832"/>
<circle cx="296.9" cy="332.3" r="2.2" fill="#ffffff" opacity="0.6008973261779287"/>
<circle cx="289.1" cy="636.4" r="2.8" fill="#ffffff" opacity="0.35053154659394475"/>
<circle cx="207.6" cy="531.5" r="3.3" fill="#ffffff" opacity="0.6258372505287891"/>
<circle cx="549.8" cy="458.8" r="2.1" fill="#ffffff" opacity="0.3608584625292214"/>
<circle cx="160.1" cy="530.8" r="3.9" fill="#ffffff" opacity="0.4217217218148013"/>
<circle cx="210.6" cy="543.2" r="2.7" fill="#ffffff" opacity="0.3618653576101009"/>
<circle cx="287.1" cy="518.5" r="4.1" fill="#ffffff" opacity="0.6507825774072586"/>
<circle cx="456.6" cy="435.0" r="4.2" fill="#ffffff" opacity="0.372429025985731"/>
<circle cx="252.3" cy="260.3" r="1.9" fill="#ffffff" opacity="0.6935540502740674"/>
<circle cx="563.8" cy="348.9" r="1.8" fill="#ffffff" opacity="0.5100129600174628"/>
<circle cx="447.3" cy="336.3" r="2.2" fill="#ffffff" opacity="0.5676325328618792"/>
<rect x="42" y="1030" width="666" height="160" rx="30" fill="#ffffffd9" stroke="#1E1B2E" stroke-width="4" opacity="0.95"/>
<text x="375.0" y="1104" font-family="ui-sans-serif, system-ui, -apple-system, Segoe UI, Roboto, Helvetica, Arial" font-size="46" font-weight="900" text-anchor="middle" fill="#1E1B2E" opacity="0.98">2 of Wands</text>
<text x="375.0" y="1152" font-family="ui-sans-serif, system-ui, -apple-system, Segoe UI, Roboto, Helvetica, Arial" font-size="28" font-weight="700" text-anchor="middle" fill="#1E1B2E" opacity="0.7">Choices</text>

    <g opacity="0.55">
      <circle cx="127" cy="1176" r="14" fill="#FF8FAB"/>
      <circle cx="623" cy="1176" r="14" fill="#FF8FAB"/>
      <path d="M 162 1176 L 588 1176" stroke="#FF8FAB" stroke-width="4" opacity="0.45" stroke-linecap="round"/>
    </g>
    
</svg>
