<svg xmlns="http://www.w3.org/2000/svg" width="750" height="1250" viewBox="0 0 750 1250">
  <title>3 of Wands</title>


  <defs>
    <linearGradient id="g" x1="0" y1="0" x2="1" y2="1">
      <stop offset="0%" stop-color="#FFF7E8"/>
      <stop offset="100%" stop-color="#E8F7FF"/>
    </linearGradient>

    <!-- paper texture -->
    <filter id="paper" x="-20%" y="-20%" width="140%" height="140%">
      <feTurbulence type="fractalNoise" baseFrequency="0.018" numOctaves="3" seed="2075" result="noise"/>
      <feColorMatrix in="noise" type="matrix"
        values="1 0 0 0 0
                0 1 0 0 0
                0 0 1 0 0
                0 0 0 0.25 0" result="noiseAlpha"/>
      <feComposite in="noiseAlpha" in2="SourceGraphic" operator="over"/>
    </filter>

    <!-- soft glow -->
    <filter id="glow" x="-30%" y="-30%" width="160%" height="160%">
      <feGaussianBlur stdDeviation="10" result="blur"/>
      <feColorMatrix type="matrix" values="
        1 0 0 0 0
        0 1 0 0 0
        0 0 1 0 0
        0 0 0 0.32 0" result="blurAlpha"/>
      <feMerge>
        <feMergeNode in="blurAlpha"/>
        <feMergeNode in="SourceGraphic"/>
      </feMerge>
    </filter>
  </defs>

<rect x="0" y="0" width="750" height="1250" rx="58" ry="58" fill="url(#g)" stroke="none" stroke-width="0" opacity="1"/>
<rect x="0" y="0" width="750" height="1250" fill="#ffffff" opacity="0.08"/>
<line x1="69.6" y1="693.7" x2="194.8" y2="688.8" stroke="#ffffff" stroke-width="2.2" opacity="0.21"/>
<line x1="194.8" y1="688.8" x2="354.6" y2="426.0" stroke="#ffffff" stroke-width="2.2" opacity="0.19"/>
<line x1="354.6" y1="426.0" x2="691.6" y2="1102.4" stroke="#ffffff" stroke-width="2.2" opacity="0.10"/>
<line x1="691.6" y1="1102.4" x2="593.7" y2="397.7" stroke="#ffffff" stroke-width="2.2" opacity="0.08"/>
<line x1="593.7" y1="397.7" x2="615.6" y2="930.4" stroke="#ffffff" stroke-width="2.2" opacity="0.18"/>
<line x1="615.6" y1="930.4" x2="592.9" y2="1155.7" stroke="#ffffff" stroke-width="2.2" opacity="0.09"/>
<line x1="592.9" y1="1155.7" x2="588.6" y2="827.5" stroke="#ffffff" stroke-width="2.2" opacity="0.20"/>
<line x1="588.6" y1="827.5" x2="549.4" y2="881.3" stroke="#ffffff" stroke-width="2.2" opacity="0.12"/>
<line x1="549.4" y1="881.3" x2="586.6" y2="978.5" stroke="#ffffff" stroke-width="2.2" opacity="0.09"/>
<line x1="586.6" y1="978.5" x2="350.4" y2="872.1" stroke="#ffffff" stroke-width="2.2" opacity="0.15"/>
<line x1="350.4" y1="872.1" x2="202.2" y2="823.6" stroke="#ffffff" stroke-width="2.2" opacity="0.08"/>
<line x1="202.2" y1="823.6" x2="164.4" y2="1065.9" stroke="#ffffff" stroke-width="2.2" opacity="0.14"/>
<line x1="164.4" y1="1065.9" x2="51.0" y2="1054.7" stroke="#ffffff" stroke-width="2.2" opacity="0.13"/>
<line x1="51.0" y1="1054.7" x2="699.6" y2="347.8" stroke="#ffffff" stroke-width="2.2" opacity="0.21"/>
<line x1="699.6" y1="347.8" x2="482.5" y2="798.5" stroke="#ffffff" stroke-width="2.2" opacity="0.11"/>
<line x1="482.5" y1="798.5" x2="115.0" y2="559.6" stroke="#ffffff" stroke-width="2.2" opacity="0.14"/>
<line x1="115.0" y1="559.6" x2="43.7" y2="957.5" stroke="#ffffff" stroke-width="2.2" opacity="0.16"/>
<line x1="43.7" y1="957.5" x2="455.8" y2="555.9" stroke="#ffffff" stroke-width="2.2" opacity="0.17"/>
<circle cx="194.8" cy="688.8" r="4.5" fill="#ffffff" opacity="0.715339185668117"/>
<circle cx="157.6" cy="400.1" r="2.2" fill="#ffffff" opacity="0.7092624848826452"/>
<circle cx="334.2" cy="1098.0" r="2.3" fill="#ffffff" opacity="0.787990303249416"/>
<circle cx="350.4" cy="872.1" r="3.7" fill="#ffffff" opacity="0.4710327098713979"/>
<circle cx="474.6" cy="779.8" r="3.3" fill="#ffffff" opacity="0.4677400493034813"/>
<circle cx="488.3" cy="1159.4" r="2.9" fill="#ffffff" opacity="0.674581490349929"/>
<circle cx="476.3" cy="135.9" r="2.7" fill="#ffffff" opacity="0.2790067740631839"/>
<circle cx="43.7" cy="957.5" r="3.8" fill="#ffffff" opacity="0.5564316986400651"/>
<circle cx="318.2" cy="989.1" r="2.6" fill="#ffffff" opacity="0.803680385135516"/>
<circle cx="455.8" cy="555.9" r="4.1" fill="#ffffff" opacity="0.6581393604101679"/>
<circle cx="260.5" cy="1150.5" r="2.4" fill="#ffffff" opacity="0.34060614948888307"/>
<circle cx="586.6" cy="978.5" r="2.0" fill="#ffffff" opacity="0.7774302133759382"/>
<circle cx="115.0" cy="559.6" r="2.7" fill="#ffffff" opacity="0.8436480339057064"/>
<circle cx="499.3" cy="289.5" r="2.2" fill="#ffffff" opacity="0.48890878286730555"/>
<circle cx="416.9" cy="1200.9" r="3.9" fill="#ffffff" opacity="0.7005911537042595"/>
<circle cx="386.4" cy="883.6" r="2.7" fill="#ffffff" opacity="0.4973995177716092"/>
<circle cx="476.8" cy="213.1" r="3.8" fill="#ffffff" opacity="0.4675528023245199"/>
<circle cx="667.0" cy="1128.0" r="1.6" fill="#ffffff" opacity="0.41146621952907847"/>
<circle cx="264.8" cy="280.5" r="1.9" fill="#ffffff" opacity="0.26966585530022197"/>
<circle cx="549.4" cy="881.3" r="2.8" fill="#ffffff" opacity="0.5853637947825414"/>
<circle cx="666.3" cy="1031.4" r="4.0" fill="#ffffff" opacity="0.3844191216500277"/>
<circle cx="88.2" cy="335.8" r="4.4" fill="#ffffff" opacity="0.6071779966033961"/>
<circle cx="699.6" cy="347.8" r="2.4" fill="#ffffff" opacity="0.48249098997590656"/>
<circle cx="422.9" cy="676.6" r="3.9" fill="#ffffff" opacity="0.7925883263645866"/>
<circle cx="691.6" cy="1102.4" r="1.9" fill="#ffffff" opacity="0.770427661565102"/>
<circle cx="588.6" cy="827.5" r="4.3" fill="#ffffff" opacity="0.3914114249771248"/>
<circle cx="464.8" cy="962.6" r="2.1" fill="#ffffff" opacity="0.5423017016742582"/>
<circle cx="633.3" cy="880.0" r="3.0" fill="#ffffff" opacity="0.5208338161915499"/>
<circle cx="274.8" cy="157.7" r="4.1" fill="#ffffff" opacity="0.45536786864296386"/>
<circle cx="558.1" cy="1041.7" r="2.6" fill="#ffffff" opacity="0.5825161774929146"/>
<circle cx="593.7" cy="397.7" r="4.7" fill="#ffffff" opacity="0.28965271537780757"/>
<circle cx="123.2" cy="259.2" r="4.7" fill="#ffffff" opacity="0.4350705518621507"/>
<circle cx="625.3" cy="507.3" r="3.7" fill="#ffffff" opacity="0.6426712629395233"/>
<circle cx="680.0" cy="398.8" r="2.1" fill="#ffffff" opacity="0.732230657619618"/>
<circle cx="680.0" cy="246.4" r="2.5" fill="#ffffff" opacity="0.3280063193706185"/>
<circle cx="202.2" cy="823.6" r="2.4" fill="#ffffff" opacity="0.5428333729282839"/>
<circle cx="388.1" cy="53.1" r="2.8" fill="#ffffff" opacity="0.47802561912270913"/>
<circle cx="51.0" cy="1054.7" r="2.2" fill="#ffffff" opacity="0.42187420645377716"/>
<circle cx="477.9" cy="793.9" r="2.3" fill="#ffffff" opacity="0.44347434198558267"/>
<circle cx="354.6" cy="426.0" r="1.8" fill="#ffffff" opacity="0.7757282515881558"/>
<circle cx="615.6" cy="930.4" r="2.7" fill="#ffffff" opacity="0.6721395158227488"/>
<circle cx="335.1" cy="646.6" r="4.1" fill="#ffffff" opacity="0.6011348004386352"/>
<circle cx="315.5" cy="573.5" r="2.4" fill="#ffffff" opacity="0.3677782767296838"/>
<circle cx="616.1" cy="794.9" r="2.2" fill="#ffffff" opacity="0.3734828118003988"/>
<circle cx="164.4" cy="1065.9" r="4.8" fill="#ffffff" opacity="0.3707199986217807"/>
<circle cx="661.5" cy="482.7" r="2.9" fill="#ffffff" opacity="0.4212078695714029"/>
<circle cx="69.6" cy="693.7" r="1.7" fill="#ffffff" opacity="0.5100126849585851"/>
<circle cx="592.9" cy="1155.7" r="2.5" fill="#ffffff" opacity="0.8444332369838892"/>
<circle cx="482.5" cy="798.5" r="4.6" fill="#ffffff" opacity="0.36383807727352324"/>
<circle cx="69.9" cy="1076.7" r="3.3" fill="#ffffff" opacity="0.7910752879260492"/>
<g filter="url(#paper)"><rect x="42" y="42" width="666" height="1166" rx="54" ry="54" fill="none" stroke="#1E1B2E" stroke-width="8" opacity="0.95"/>
<rect x="60" y="60" width="630" height="1130" rx="46" ry="46" fill="none" stroke="#FF8FAB" stroke-width="3" opacity="0.35"/>

  <g opacity="0.42">
    <circle cx="375.0" cy="560" r="285" fill="none" stroke="#FF8FAB" stroke-width="4.2" opacity="0.42"/>
    <circle cx="375.0" cy="560" r="233.7" fill="none" stroke="#FF8FAB" stroke-width="2.2" opacity="0.23"/>
    <line x1="642.0" y1="560.0" x2="674.0" y2="560.0" stroke="#FF8FAB" stroke-width="3.2" opacity="0.23" stroke-linecap="round"/><line x1="606.2" y1="693.5" x2="633.9" y2="709.5" stroke="#FF8FAB" stroke-width="3.2" opacity="0.23" stroke-linecap="round"/><line x1="508.5" y1="791.2" x2="524.5" y2="818.9" stroke="#FF8FAB" stroke-width="3.2" opacity="0.23" stroke-linecap="round"/><line x1="375.0" y1="827.0" x2="375.0" y2="859.0" stroke="#FF8FAB" stroke-width="3.2" opacity="0.23" stroke-linecap="round"/><line x1="241.5" y1="791.2" x2="225.5" y2="818.9" stroke="#FF8FAB" stroke-width="3.2" opacity="0.23" stroke-linecap="round"/><line x1="143.8" y1="693.5" x2="116.1" y2="709.5" stroke="#FF8FAB" stroke-width="3.2" opacity="0.23" stroke-linecap="round"/><line x1="108.0" y1="560.0" x2="76.0" y2="560.0" stroke="#FF8FAB" stroke-width="3.2" opacity="0.23" stroke-linecap="round"/><line x1="143.8" y1="426.5" x2="116.1" y2="410.5" stroke="#FF8FAB" stroke-width="3.2" opacity="0.23" stroke-linecap="round"/><line x1="241.5" y1="328.8" x2="225.5" y2="301.1" stroke="#FF8FAB" stroke-width="3.2" opacity="0.23" stroke-linecap="round"/><line x1="375.0" y1="293.0" x2="375.0" y2="261.0" stroke="#FF8FAB" stroke-width="3.2" opacity="0.23" stroke-linecap="round"/><line x1="508.5" y1="328.8" x2="524.5" y2="301.1" stroke="#FF8FAB" stroke-width="3.2" opacity="0.23" stroke-linecap="round"/><line x1="606.2" y1="426.5" x2="633.9" y2="410.5" stroke="#FF8FAB" stroke-width="3.2" opacity="0.23" stroke-linecap="round"/>
    <circle cx="659.9" cy="551.2" r="3.4" fill="#FF8FAB" opacity="0.33"/><circle cx="650.2" cy="634.1" r="2.7" fill="#FF8FAB" opacity="0.39"/><circle cx="622.7" cy="701.0" r="3.4" fill="#FF8FAB" opacity="0.33"/><circle cx="579.0" cy="759.1" r="3.5" fill="#FF8FAB" opacity="0.32"/><circle cx="513.1" cy="809.3" r="3.3" fill="#FF8FAB" opacity="0.32"/><circle cx="442.4" cy="836.9" r="2.7" fill="#FF8FAB" opacity="0.44"/><circle cx="380.7" cy="844.9" r="2.9" fill="#FF8FAB" opacity="0.40"/><circle cx="307.7" cy="836.9" r="4.0" fill="#FF8FAB" opacity="0.37"/><circle cx="231.8" cy="806.4" r="3.0" fill="#FF8FAB" opacity="0.39"/><circle cx="175.4" cy="763.4" r="3.2" fill="#FF8FAB" opacity="0.22"/><circle cx="133.0" cy="710.5" r="3.4" fill="#FF8FAB" opacity="0.25"/><circle cx="99.6" cy="633.4" r="3.4" fill="#FF8FAB" opacity="0.19"/><circle cx="90.1" cy="553.3" r="2.7" fill="#FF8FAB" opacity="0.23"/><circle cx="98.7" cy="489.9" r="2.6" fill="#FF8FAB" opacity="0.42"/><circle cx="132.1" cy="410.9" r="3.2" fill="#FF8FAB" opacity="0.33"/><circle cx="168.2" cy="363.9" r="3.7" fill="#FF8FAB" opacity="0.23"/><circle cx="226.7" cy="316.6" r="2.7" fill="#FF8FAB" opacity="0.30"/><circle cx="298.1" cy="285.6" r="2.6" fill="#FF8FAB" opacity="0.32"/><circle cx="373.9" cy="275.0" r="3.0" fill="#FF8FAB" opacity="0.25"/><circle cx="454.8" cy="286.4" r="3.6" fill="#FF8FAB" opacity="0.23"/><circle cx="512.9" cy="310.6" r="3.4" fill="#FF8FAB" opacity="0.29"/><circle cx="573.5" cy="355.5" r="3.6" fill="#FF8FAB" opacity="0.45"/><circle cx="616.9" cy="409.2" r="3.6" fill="#FF8FAB" opacity="0.31"/><circle cx="650.7" cy="487.9" r="3.3" fill="#FF8FAB" opacity="0.28"/>
  </g>

<g><g transform="translate(50,54)"><path d="M 21.6 140.4 Q 75.6 36.0 165.6 68.4 Q 93.6 79.2 72.0 126.0" fill="none" stroke="#FF8FAB" stroke-width="6" opacity="0.55" stroke-linecap="round"/></g><g transform="translate(700,54) scale(-1,1)"><path d="M 21.6 140.4 Q 75.6 36.0 165.6 68.4 Q 93.6 79.2 72.0 126.0" fill="none" stroke="#FF8FAB" stroke-width="6" opacity="0.55" stroke-linecap="round"/></g><g transform="translate(50,1196) scale(1,-1)"><path d="M 21.6 140.4 Q 75.6 36.0 165.6 68.4 Q 93.6 79.2 72.0 126.0" fill="none" stroke="#FF8FAB" stroke-width="6" opacity="0.55" stroke-linecap="round"/></g><g transform="translate(700,1196) scale(-1,-1)"><path d="M 21.6 140.4 Q 75.6 36.0 165.6 68.4 Q 93.6 79.2 72.0 126.0" fill="none" stroke="#FF8FAB" stroke-width="6" opacity="0.55" stroke-linecap="round"/></g></g></g>
<rect x="42" y="60" width="666" height="92" rx="30" fill="#ffffffcc" stroke="#1E1B2E" stroke-width="4" opacity="0.95"/>
<text x="375.0" y="122" font-family="ui-sans-serif, system-ui, -apple-system, Segoe UI, Roboto, Helvetica, Arial" font-size="30" font-weight="800" text-anchor="middle" fill="#1E1B2E" opacity="0.95" letter-spacing="1">MINOR ARCANA • WANDS</text>
<rect x="76" y="170" width="598" height="760" rx="52" fill="#ffffff" opacity="0.15"/>
<g><path d="M 112.0 880 C 152.0 690 82.0 450 142.0 230" fill="none" stroke="#FF8FAB" stroke-width="4" opacity="0.10" stroke-linecap="round"/><circle cx="132.0" cy="450.0" r="9" fill="#FF8FAB" opacity="0.08"/><path d="M 202.0 880 C 242.0 690 172.0 450 232.0 230" fill="none" stroke="#FF8FAB" stroke-width="4" opacity="0.10" stroke-linecap="round"/><circle cx="222.0" cy="450.0" r="9" fill="#FF8FAB" opacity="0.08"/><path d="M 292.0 880 C 332.0 690 262.0 450 322.0 230" fill="none" stroke="#FF8FAB" stroke-width="4" opacity="0.10" stroke-linecap="round"/><circle cx="312.0" cy="450.0" r="9" fill="#FF8FAB" opacity="0.08"/><path d="M 382.0 880 C 422.0 690 352.0 450 412.0 230" fill="none" stroke="#FF8FAB" stroke-width="4" opacity="0.10" stroke-linecap="round"/><circle cx="402.0" cy="450.0" r="9" fill="#FF8FAB" opacity="0.08"/><path d="M 472.0 880 C 512.0 690 442.0 450 502.0 230" fill="none" stroke="#FF8FAB" stroke-width="4" opacity="0.10" stroke-linecap="round"/><circle cx="492.0" cy="450.0" r="9" fill="#FF8FAB" opacity="0.08"/><path d="M 562.0 880 C 602.0 690 532.0 450 592.0 230" fill="none" stroke="#FF8FAB" stroke-width="4" opacity="0.10" stroke-linecap="round"/><circle cx="582.0" cy="450.0" r="9" fill="#FF8FAB" opacity="0.08"/><path d="M 652.0 880 C 692.0 690 622.0 450 682.0 230" fill="none" stroke="#FF8FAB" stroke-width="4" opacity="0.10" stroke-linecap="round"/><circle cx="672.0" cy="450.0" r="9" fill="#FF8FAB" opacity="0.08"/></g><g><g opacity="0.55">
        <g>
          <line x1="320.2" y1="429.4" x2="401.5" y2="391.5" stroke="#1E1B2E" stroke-width="3.9" stroke-linecap="round"/>
          <line x1="320.2" y1="429.4" x2="401.5" y2="391.5" stroke="#FF8FAB" stroke-width="1.7" stroke-linecap="round" opacity="0.55"/>
          
        <polygon points="401.5,391.5 366.8,383.4 351.6,414.8 385.4,423.3"
                 fill="#ffffff" stroke="#1E1B2E" stroke-width="5" opacity="0.92"/>
        
          <circle cx="320.2" cy="429.4" r="3.9" fill="#fff" stroke="#1E1B2E" stroke-width="5" opacity="0.9"/>
        </g>
        </g><g opacity="0.55">
        <g>
          <line x1="508.2" y1="756.8" x2="589.4" y2="718.9" stroke="#1E1B2E" stroke-width="3.9" stroke-linecap="round"/>
          <line x1="508.2" y1="756.8" x2="589.4" y2="718.9" stroke="#FF8FAB" stroke-width="1.7" stroke-linecap="round" opacity="0.55"/>
          
        <polygon points="589.4,718.9 554.8,710.8 539.6,742.1 573.3,750.7"
                 fill="#ffffff" stroke="#1E1B2E" stroke-width="5" opacity="0.92"/>
        
          <circle cx="508.2" cy="756.8" r="3.9" fill="#fff" stroke="#1E1B2E" stroke-width="5" opacity="0.9"/>
        </g>
        </g><g opacity="0.55">
        <g>
          <line x1="156.2" y1="750.1" x2="237.4" y2="712.2" stroke="#1E1B2E" stroke-width="3.9" stroke-linecap="round"/>
          <line x1="156.2" y1="750.1" x2="237.4" y2="712.2" stroke="#FF8FAB" stroke-width="1.7" stroke-linecap="round" opacity="0.55"/>
          
        <polygon points="237.4,712.2 202.8,704.1 187.6,735.5 221.4,744.0"
                 fill="#ffffff" stroke="#1E1B2E" stroke-width="5" opacity="0.92"/>
        
          <circle cx="156.2" cy="750.1" r="3.9" fill="#fff" stroke="#1E1B2E" stroke-width="5" opacity="0.9"/>
        </g>
        </g></g>
        <g opacity="0.55" filter="url(#glow)">
          <polygon points="255.00,350.00 271.46,397.35 321.57,398.37 281.63,428.65 296.14,476.63 255.00,448.00 213.86,476.63 228.37,428.65 188.43,398.37 238.54,397.35" fill="#ffffff"/>
          <polygon points="495.00,350.00 511.46,397.35 561.57,398.37 521.63,428.65 536.14,476.63 495.00,448.00 453.86,476.63 468.37,428.65 428.43,398.37 478.54,397.35" fill="#ffffff"/>
          <polygon points="375.00,405.00 394.98,462.49 455.84,463.73 407.34,500.51 424.96,558.77 375.00,524.00 325.04,558.77 342.66,500.51 294.16,463.73 355.02,462.49" fill="#FF8FAB" opacity="0.35"/>
        </g>
        
        <g filter="url(#glow)">
          <circle cx="375.0" cy="630" r="170" fill="#ffffff" opacity="0.40" stroke="#FF8FAB" stroke-width="7"/>
          
        <g>
          <line x1="270.6" y1="678.7" x2="479.4" y2="581.3" stroke="#1E1B2E" stroke-width="10.1" stroke-linecap="round"/>
          <line x1="270.6" y1="678.7" x2="479.4" y2="581.3" stroke="#FF8FAB" stroke-width="4.3" stroke-linecap="round" opacity="0.55"/>
          
        <polygon points="479.4,581.3 444.7,573.2 429.6,604.6 463.3,613.1"
                 fill="#ffffff" stroke="#1E1B2E" stroke-width="5" opacity="0.92"/>
        
          <circle cx="270.6" cy="678.7" r="10.1" fill="#fff" stroke="#1E1B2E" stroke-width="5" opacity="0.9"/>
        </g>
        
        </g>
        <line x1="252.3" y1="405.4" x2="170.3" y2="295.3" stroke="#ffffff" stroke-width="2.2" opacity="0.21"/>
<line x1="170.3" y1="295.3" x2="150.2" y2="310.9" stroke="#ffffff" stroke-width="2.2" opacity="0.18"/>
<line x1="150.2" y1="310.9" x2="439.2" y2="360.5" stroke="#ffffff" stroke-width="2.2" opacity="0.17"/>
<line x1="439.2" y1="360.5" x2="178.7" y2="429.0" stroke="#ffffff" stroke-width="2.2" opacity="0.15"/>
<line x1="178.7" y1="429.0" x2="374.8" y2="517.5" stroke="#ffffff" stroke-width="2.2" opacity="0.21"/>
<line x1="374.8" y1="517.5" x2="313.8" y2="231.5" stroke="#ffffff" stroke-width="2.2" opacity="0.21"/>
<circle cx="150.7" cy="444.8" r="4.6" fill="#ffffff" opacity="0.5131968634886314"/>
<circle cx="252.3" cy="405.4" r="2.3" fill="#ffffff" opacity="0.2657006479320172"/>
<circle cx="386.9" cy="484.6" r="2.0" fill="#ffffff" opacity="0.5979087837840005"/>
<circle cx="178.7" cy="429.0" r="1.8" fill="#ffffff" opacity="0.7414328825261873"/>
<circle cx="446.2" cy="687.9" r="4.5" fill="#ffffff" opacity="0.42162162945551684"/>
<circle cx="366.7" cy="612.2" r="2.3" fill="#ffffff" opacity="0.43152265201235324"/>
<circle cx="468.8" cy="289.3" r="4.2" fill="#ffffff" opacity="0.35041910383196256"/>
<circle cx="150.2" cy="310.9" r="1.7" fill="#ffffff" opacity="0.4131429861481125"/>
<circle cx="474.5" cy="359.3" r="1.7" fill="#ffffff" opacity="0.3416099024410546"/>
<circle cx="525.0" cy="397.9" r="4.4" fill="#ffffff" opacity="0.4336314613595444"/>
<circle cx="313.8" cy="231.5" r="4.0" fill="#ffffff" opacity="0.7711407160357249"/>
<circle cx="374.8" cy="517.5" r="3.2" fill="#ffffff" opacity="0.6368123366441599"/>
<circle cx="170.3" cy="295.3" r="2.3" fill="#ffffff" opacity="0.7158686912421405"/>
<circle cx="439.2" cy="360.5" r="2.9" fill="#ffffff" opacity="0.5381246638682057"/>
<rect x="42" y="1030" width="666" height="160" rx="30" fill="#ffffffd9" stroke="#1E1B2E" stroke-width="4" opacity="0.95"/>
<text x="375.0" y="1104" font-family="ui-sans-serif, system-ui, -apple-system, Segoe UI, Roboto, Helvetica, Arial" font-size="46" font-weight="900" text-anchor="middle" fill="#1E1B2E" opacity="0.98">3 of Wands</text>
<text x="375.0" y="1152" font-family="ui-sans-serif, system-ui, -apple-system, Segoe UI, Roboto, Helvetica, Arial" font-size="28" font-weight="700" text-anchor="middle" fill="#1E1B2E" opacity="0.7">Growth</text>

    <g opacity="0.55">
      <circle cx="127" cy="1176" r="14" fill="#FF8FAB"/>
      <circle cx="623" cy="1176" r="14" fill="#FF8FAB"/>
      <path d="M 162 1176 L 588 1176" stroke="#FF8FAB" stroke-width="4" opacity="0.45" stroke-linecap="round"/>
    </g>
    
</svg>
