<svg xmlns="http://www.w3.org/2000/svg" width="750" height="1250" viewBox="0 0 750 1250">
  <title>4 of Wands</title>


  <defs>
    <linearGradient id="g" x1="0" y1="0" x2="1" y2="1">
      <stop offset="0%" stop-color="#E6F0FF"/>
      <stop offset="100%" stop-color="#FFF0F6"/>
    </linearGradient>

    <!-- paper texture -->
    <filter id="paper" x="-20%" y="-20%" width="140%" height="140%">
      <feTurbulence type="fractalNoise" baseFrequency="0.013" numOctaves="3" seed="4334" result="noise"/>
      <feColorMatrix in="noise" type="matrix"
        values="1 0 0 0 0
                0 1 0 0 0
                0 0 1 0 0
                0 0 0 0.25 0" result="noiseAlpha"/>
      <feComposite in="noiseAlpha" in2="SourceGraphic" operator="over"/>
    </filter>

    <!-- soft glow -->
    <filter id="glow" x="-30%" y="-30%" width="160%" height="160%">
      <feGaussianBlur stdDeviation="10" result="blur"/>
      <feColorMatrix type="matrix" values="
        1 0 0 0 0
        0 1 0 0 0
        0 0 1 0 0
        0 0 0 0.32 0" result="blurAlpha"/>
      <feMerge>
        <feMergeNode in="blurAlpha"/>
        <feMergeNode in="SourceGraphic"/>
      </feMerge>
    </filter>
  </defs>

<rect x="0" y="0" width="750" height="1250" rx="58" ry="58" fill="url(#g)" stroke="none" stroke-width="0" opacity="1"/>
<rect x="0" y="0" width="750" height="1250" fill="#ffffff" opacity="0.08"/>
<line x1="336.6" y1="866.5" x2="586.1" y2="1005.7" stroke="#ffffff" stroke-width="2.2" opacity="0.15"/>
<line x1="586.1" y1="1005.7" x2="664.5" y2="232.3" stroke="#ffffff" stroke-width="2.2" opacity="0.17"/>
<line x1="664.5" y1="232.3" x2="218.4" y2="757.8" stroke="#ffffff" stroke-width="2.2" opacity="0.13"/>
<line x1="218.4" y1="757.8" x2="382.6" y2="300.3" stroke="#ffffff" stroke-width="2.2" opacity="0.13"/>
<line x1="382.6" y1="300.3" x2="697.1" y2="379.3" stroke="#ffffff" stroke-width="2.2" opacity="0.12"/>
<line x1="697.1" y1="379.3" x2="442.4" y2="757.6" stroke="#ffffff" stroke-width="2.2" opacity="0.13"/>
<line x1="442.4" y1="757.6" x2="707.4" y2="743.7" stroke="#ffffff" stroke-width="2.2" opacity="0.18"/>
<line x1="707.4" y1="743.7" x2="331.1" y2="1168.3" stroke="#ffffff" stroke-width="2.2" opacity="0.14"/>
<line x1="331.1" y1="1168.3" x2="546.2" y2="149.4" stroke="#ffffff" stroke-width="2.2" opacity="0.19"/>
<line x1="546.2" y1="149.4" x2="691.0" y2="606.8" stroke="#ffffff" stroke-width="2.2" opacity="0.13"/>
<line x1="691.0" y1="606.8" x2="80.1" y2="135.9" stroke="#ffffff" stroke-width="2.2" opacity="0.15"/>
<line x1="80.1" y1="135.9" x2="528.2" y2="991.0" stroke="#ffffff" stroke-width="2.2" opacity="0.09"/>
<line x1="528.2" y1="991.0" x2="611.5" y2="222.1" stroke="#ffffff" stroke-width="2.2" opacity="0.21"/>
<line x1="611.5" y1="222.1" x2="229.7" y2="536.7" stroke="#ffffff" stroke-width="2.2" opacity="0.17"/>
<line x1="229.7" y1="536.7" x2="610.5" y2="565.7" stroke="#ffffff" stroke-width="2.2" opacity="0.12"/>
<line x1="610.5" y1="565.7" x2="696.9" y2="1130.2" stroke="#ffffff" stroke-width="2.2" opacity="0.12"/>
<line x1="696.9" y1="1130.2" x2="644.0" y2="568.2" stroke="#ffffff" stroke-width="2.2" opacity="0.11"/>
<line x1="644.0" y1="568.2" x2="431.7" y2="282.1" stroke="#ffffff" stroke-width="2.2" opacity="0.19"/>
<circle cx="375.1" cy="117.4" r="4.6" fill="#ffffff" opacity="0.32376733724307927"/>
<circle cx="535.5" cy="1108.9" r="1.7" fill="#ffffff" opacity="0.6199710926632753"/>
<circle cx="431.7" cy="282.1" r="1.8" fill="#ffffff" opacity="0.667749940057256"/>
<circle cx="403.2" cy="592.1" r="3.0" fill="#ffffff" opacity="0.37300251508792215"/>
<circle cx="382.6" cy="300.3" r="3.6" fill="#ffffff" opacity="0.7451210065037319"/>
<circle cx="130.2" cy="1086.9" r="3.6" fill="#ffffff" opacity="0.3506920836106198"/>
<circle cx="557.5" cy="447.8" r="3.9" fill="#ffffff" opacity="0.5688913865870044"/>
<circle cx="494.2" cy="260.1" r="4.3" fill="#ffffff" opacity="0.7270364472129092"/>
<circle cx="76.9" cy="979.7" r="1.7" fill="#ffffff" opacity="0.6629024818981629"/>
<circle cx="611.5" cy="222.1" r="2.0" fill="#ffffff" opacity="0.43493222173896995"/>
<circle cx="430.8" cy="671.4" r="4.8" fill="#ffffff" opacity="0.8394499296009971"/>
<circle cx="186.1" cy="656.9" r="2.7" fill="#ffffff" opacity="0.77701728576314"/>
<circle cx="442.4" cy="757.6" r="2.1" fill="#ffffff" opacity="0.3665831663066665"/>
<circle cx="586.1" cy="1005.7" r="3.2" fill="#ffffff" opacity="0.3247454010057977"/>
<circle cx="321.8" cy="180.7" r="2.7" fill="#ffffff" opacity="0.5540472642370068"/>
<circle cx="542.6" cy="1088.8" r="3.3" fill="#ffffff" opacity="0.3208107919949589"/>
<circle cx="331.1" cy="1168.3" r="3.7" fill="#ffffff" opacity="0.6480111830705338"/>
<circle cx="229.7" cy="536.7" r="3.0" fill="#ffffff" opacity="0.7175619748968189"/>
<circle cx="470.9" cy="124.9" r="4.4" fill="#ffffff" opacity="0.3288304068464988"/>
<circle cx="664.5" cy="232.3" r="2.0" fill="#ffffff" opacity="0.7753464857852195"/>
<circle cx="544.5" cy="685.8" r="4.4" fill="#ffffff" opacity="0.562530370695935"/>
<circle cx="609.7" cy="544.9" r="4.4" fill="#ffffff" opacity="0.3942393637928636"/>
<circle cx="610.5" cy="565.7" r="4.6" fill="#ffffff" opacity="0.7047284352960919"/>
<circle cx="466.5" cy="917.6" r="4.6" fill="#ffffff" opacity="0.49345728603455397"/>
<circle cx="277.4" cy="557.6" r="4.4" fill="#ffffff" opacity="0.6634760074629469"/>
<circle cx="336.6" cy="866.5" r="2.0" fill="#ffffff" opacity="0.7053062043599534"/>
<circle cx="562.8" cy="444.4" r="2.7" fill="#ffffff" opacity="0.4125025211678305"/>
<circle cx="397.2" cy="529.4" r="3.2" fill="#ffffff" opacity="0.3404271830754605"/>
<circle cx="474.7" cy="1059.8" r="1.8" fill="#ffffff" opacity="0.6947856836765745"/>
<circle cx="697.1" cy="379.3" r="2.3" fill="#ffffff" opacity="0.6977706479545955"/>
<circle cx="123.3" cy="85.9" r="4.7" fill="#ffffff" opacity="0.8226453689612641"/>
<circle cx="546.2" cy="149.4" r="4.1" fill="#ffffff" opacity="0.7469304817499851"/>
<circle cx="644.0" cy="568.2" r="1.6" fill="#ffffff" opacity="0.3486920923011267"/>
<circle cx="310.0" cy="976.4" r="3.9" fill="#ffffff" opacity="0.39265114509797944"/>
<circle cx="696.9" cy="1130.2" r="2.1" fill="#ffffff" opacity="0.8052195599754909"/>
<circle cx="207.5" cy="1033.9" r="2.9" fill="#ffffff" opacity="0.6556721601445166"/>
<circle cx="218.4" cy="757.8" r="4.3" fill="#ffffff" opacity="0.47514703926396007"/>
<circle cx="707.4" cy="743.7" r="2.7" fill="#ffffff" opacity="0.7033023140664632"/>
<circle cx="371.2" cy="823.2" r="3.0" fill="#ffffff" opacity="0.8349758992809436"/>
<circle cx="80.1" cy="135.9" r="3.0" fill="#ffffff" opacity="0.43855723396059454"/>
<circle cx="453.6" cy="667.0" r="1.6" fill="#ffffff" opacity="0.5437502293033672"/>
<circle cx="169.6" cy="757.7" r="4.0" fill="#ffffff" opacity="0.5194492344208247"/>
<circle cx="374.3" cy="387.8" r="3.3" fill="#ffffff" opacity="0.43813581949328245"/>
<circle cx="482.7" cy="138.1" r="2.4" fill="#ffffff" opacity="0.7088307469781452"/>
<circle cx="691.0" cy="606.8" r="2.4" fill="#ffffff" opacity="0.4088666816483846"/>
<circle cx="634.9" cy="597.9" r="2.7" fill="#ffffff" opacity="0.5679045491688199"/>
<circle cx="443.4" cy="669.3" r="2.6" fill="#ffffff" opacity="0.6231598214705525"/>
<circle cx="111.1" cy="1205.3" r="4.5" fill="#ffffff" opacity="0.7053459377524743"/>
<circle cx="209.0" cy="154.5" r="4.6" fill="#ffffff" opacity="0.7291421238060785"/>
<circle cx="528.2" cy="991.0" r="1.8" fill="#ffffff" opacity="0.8310851628334965"/>
<g filter="url(#paper)"><rect x="42" y="42" width="666" height="1166" rx="54" ry="54" fill="none" stroke="#1E1B2E" stroke-width="8" opacity="0.95"/>
<rect x="60" y="60" width="630" height="1130" rx="46" ry="46" fill="none" stroke="#FF8FAB" stroke-width="3" opacity="0.35"/>

  <g opacity="0.42">
    <circle cx="375.0" cy="560" r="285" fill="none" stroke="#FF8FAB" stroke-width="4.2" opacity="0.42"/>
    <circle cx="375.0" cy="560" r="233.7" fill="none" stroke="#FF8FAB" stroke-width="2.2" opacity="0.23"/>
    <line x1="642.0" y1="560.0" x2="674.0" y2="560.0" stroke="#FF8FAB" stroke-width="3.2" opacity="0.23" stroke-linecap="round"/><line x1="606.2" y1="693.5" x2="633.9" y2="709.5" stroke="#FF8FAB" stroke-width="3.2" opacity="0.23" stroke-linecap="round"/><line x1="508.5" y1="791.2" x2="524.5" y2="818.9" stroke="#FF8FAB" stroke-width="3.2" opacity="0.23" stroke-linecap="round"/><line x1="375.0" y1="827.0" x2="375.0" y2="859.0" stroke="#FF8FAB" stroke-width="3.2" opacity="0.23" stroke-linecap="round"/><line x1="241.5" y1="791.2" x2="225.5" y2="818.9" stroke="#FF8FAB" stroke-width="3.2" opacity="0.23" stroke-linecap="round"/><line x1="143.8" y1="693.5" x2="116.1" y2="709.5" stroke="#FF8FAB" stroke-width="3.2" opacity="0.23" stroke-linecap="round"/><line x1="108.0" y1="560.0" x2="76.0" y2="560.0" stroke="#FF8FAB" stroke-width="3.2" opacity="0.23" stroke-linecap="round"/><line x1="143.8" y1="426.5" x2="116.1" y2="410.5" stroke="#FF8FAB" stroke-width="3.2" opacity="0.23" stroke-linecap="round"/><line x1="241.5" y1="328.8" x2="225.5" y2="301.1" stroke="#FF8FAB" stroke-width="3.2" opacity="0.23" stroke-linecap="round"/><line x1="375.0" y1="293.0" x2="375.0" y2="261.0" stroke="#FF8FAB" stroke-width="3.2" opacity="0.23" stroke-linecap="round"/><line x1="508.5" y1="328.8" x2="524.5" y2="301.1" stroke="#FF8FAB" stroke-width="3.2" opacity="0.23" stroke-linecap="round"/><line x1="606.2" y1="426.5" x2="633.9" y2="410.5" stroke="#FF8FAB" stroke-width="3.2" opacity="0.23" stroke-linecap="round"/>
    <circle cx="659.9" cy="565.9" r="3.2" fill="#FF8FAB" opacity="0.41"/><circle cx="652.6" cy="624.3" r="3.2" fill="#FF8FAB" opacity="0.21"/><circle cx="624.8" cy="697.2" r="2.7" fill="#FF8FAB" opacity="0.21"/><circle cx="582.0" cy="755.9" r="3.3" fill="#FF8FAB" opacity="0.34"/><circle cx="514.2" cy="808.7" r="3.9" fill="#FF8FAB" opacity="0.36"/><circle cx="440.3" cy="837.4" r="3.3" fill="#FF8FAB" opacity="0.39"/><circle cx="365.8" cy="844.9" r="2.9" fill="#FF8FAB" opacity="0.24"/><circle cx="301.8" cy="835.4" r="2.7" fill="#FF8FAB" opacity="0.27"/><circle cx="230.7" cy="805.8" r="3.5" fill="#FF8FAB" opacity="0.37"/><circle cx="169.9" cy="757.9" r="3.5" fill="#FF8FAB" opacity="0.36"/><circle cx="125.8" cy="698.2" r="3.3" fill="#FF8FAB" opacity="0.27"/><circle cx="101.7" cy="640.7" r="3.4" fill="#FF8FAB" opacity="0.23"/><circle cx="90.1" cy="566.4" r="3.0" fill="#FF8FAB" opacity="0.28"/><circle cx="100.7" cy="482.6" r="2.8" fill="#FF8FAB" opacity="0.34"/><circle cx="125.6" cy="422.0" r="3.6" fill="#FF8FAB" opacity="0.24"/><circle cx="169.8" cy="362.2" r="3.3" fill="#FF8FAB" opacity="0.20"/><circle cx="239.7" cy="309.2" r="3.4" fill="#FF8FAB" opacity="0.41"/><circle cx="302.5" cy="284.4" r="3.8" fill="#FF8FAB" opacity="0.19"/><circle cx="367.2" cy="275.1" r="2.6" fill="#FF8FAB" opacity="0.39"/><circle cx="446.8" cy="284.2" r="2.6" fill="#FF8FAB" opacity="0.34"/><circle cx="518.9" cy="314.0" r="3.2" fill="#FF8FAB" opacity="0.44"/><circle cx="571.3" cy="353.3" r="3.5" fill="#FF8FAB" opacity="0.32"/><circle cx="617.9" cy="410.9" r="3.4" fill="#FF8FAB" opacity="0.31"/><circle cx="648.5" cy="480.0" r="3.5" fill="#FF8FAB" opacity="0.39"/>
  </g>

<g><g transform="translate(50,54)"><path d="M 32.4 126.0 C 63.0 54.0, 111.6 32.4, 158.4 39.6" fill="none" stroke="#FF8FAB" stroke-width="6" opacity="0.55" stroke-linecap="round"/></g><g transform="translate(700,54) scale(-1,1)"><path d="M 32.4 126.0 C 63.0 54.0, 111.6 32.4, 158.4 39.6" fill="none" stroke="#FF8FAB" stroke-width="6" opacity="0.55" stroke-linecap="round"/></g><g transform="translate(50,1196) scale(1,-1)"><path d="M 32.4 126.0 C 63.0 54.0, 111.6 32.4, 158.4 39.6" fill="none" stroke="#FF8FAB" stroke-width="6" opacity="0.55" stroke-linecap="round"/></g><g transform="translate(700,1196) scale(-1,-1)"><path d="M 32.4 126.0 C 63.0 54.0, 111.6 32.4, 158.4 39.6" fill="none" stroke="#FF8FAB" stroke-width="6" opacity="0.55" stroke-linecap="round"/></g></g></g>
<rect x="42" y="60" width="666" height="92" rx="30" fill="#ffffffcc" stroke="#1E1B2E" stroke-width="4" opacity="0.95"/>
<text x="375.0" y="122" font-family="ui-sans-serif, system-ui, -apple-system, Segoe UI, Roboto, Helvetica, Arial" font-size="30" font-weight="800" text-anchor="middle" fill="#1E1B2E" opacity="0.95" letter-spacing="1">MINOR ARCANA • WANDS</text>
<rect x="76" y="170" width="598" height="760" rx="52" fill="#ffffff" opacity="0.15"/>
<g><path d="M 112.0 880 C 152.0 690 82.0 450 142.0 230" fill="none" stroke="#FF8FAB" stroke-width="4" opacity="0.10" stroke-linecap="round"/><circle cx="132.0" cy="450.0" r="9" fill="#FF8FAB" opacity="0.08"/><path d="M 202.0 880 C 242.0 690 172.0 450 232.0 230" fill="none" stroke="#FF8FAB" stroke-width="4" opacity="0.10" stroke-linecap="round"/><circle cx="222.0" cy="450.0" r="9" fill="#FF8FAB" opacity="0.08"/><path d="M 292.0 880 C 332.0 690 262.0 450 322.0 230" fill="none" stroke="#FF8FAB" stroke-width="4" opacity="0.10" stroke-linecap="round"/><circle cx="312.0" cy="450.0" r="9" fill="#FF8FAB" opacity="0.08"/><path d="M 382.0 880 C 422.0 690 352.0 450 412.0 230" fill="none" stroke="#FF8FAB" stroke-width="4" opacity="0.10" stroke-linecap="round"/><circle cx="402.0" cy="450.0" r="9" fill="#FF8FAB" opacity="0.08"/><path d="M 472.0 880 C 512.0 690 442.0 450 502.0 230" fill="none" stroke="#FF8FAB" stroke-width="4" opacity="0.10" stroke-linecap="round"/><circle cx="492.0" cy="450.0" r="9" fill="#FF8FAB" opacity="0.08"/><path d="M 562.0 880 C 602.0 690 532.0 450 592.0 230" fill="none" stroke="#FF8FAB" stroke-width="4" opacity="0.10" stroke-linecap="round"/><circle cx="582.0" cy="450.0" r="9" fill="#FF8FAB" opacity="0.08"/><path d="M 652.0 880 C 692.0 690 622.0 450 682.0 230" fill="none" stroke="#FF8FAB" stroke-width="4" opacity="0.10" stroke-linecap="round"/><circle cx="672.0" cy="450.0" r="9" fill="#FF8FAB" opacity="0.08"/></g><g><g opacity="0.55">
        <g>
          <line x1="326.1" y1="429.1" x2="407.3" y2="391.2" stroke="#1E1B2E" stroke-width="3.9" stroke-linecap="round"/>
          <line x1="326.1" y1="429.1" x2="407.3" y2="391.2" stroke="#FF8FAB" stroke-width="1.7" stroke-linecap="round" opacity="0.55"/>
          
        <polygon points="407.3,391.2 372.7,383.1 357.5,414.5 391.3,423.0"
                 fill="#ffffff" stroke="#1E1B2E" stroke-width="5" opacity="0.92"/>
        
          <circle cx="326.1" cy="429.1" r="3.9" fill="#fff" stroke="#1E1B2E" stroke-width="5" opacity="0.9"/>
        </g>
        </g><g opacity="0.55">
        <g>
          <line x1="543.3" y1="617.6" x2="624.5" y2="579.8" stroke="#1E1B2E" stroke-width="3.9" stroke-linecap="round"/>
          <line x1="543.3" y1="617.6" x2="624.5" y2="579.8" stroke="#FF8FAB" stroke-width="1.7" stroke-linecap="round" opacity="0.55"/>
          
        <polygon points="624.5,579.8 589.8,571.7 574.7,603.0 608.4,611.5"
                 fill="#ffffff" stroke="#1E1B2E" stroke-width="5" opacity="0.92"/>
        
          <circle cx="543.3" cy="617.6" r="3.9" fill="#fff" stroke="#1E1B2E" stroke-width="5" opacity="0.9"/>
        </g>
        </g><g opacity="0.55">
        <g>
          <line x1="325.3" y1="848.7" x2="406.5" y2="810.9" stroke="#1E1B2E" stroke-width="3.9" stroke-linecap="round"/>
          <line x1="325.3" y1="848.7" x2="406.5" y2="810.9" stroke="#FF8FAB" stroke-width="1.7" stroke-linecap="round" opacity="0.55"/>
          
        <polygon points="406.5,810.9 371.8,802.8 356.6,834.1 390.4,842.6"
                 fill="#ffffff" stroke="#1E1B2E" stroke-width="5" opacity="0.92"/>
        
          <circle cx="325.3" cy="848.7" r="3.9" fill="#fff" stroke="#1E1B2E" stroke-width="5" opacity="0.9"/>
        </g>
        </g><g opacity="0.55">
        <g>
          <line x1="124.7" y1="627.8" x2="205.9" y2="589.9" stroke="#1E1B2E" stroke-width="3.9" stroke-linecap="round"/>
          <line x1="124.7" y1="627.8" x2="205.9" y2="589.9" stroke="#FF8FAB" stroke-width="1.7" stroke-linecap="round" opacity="0.55"/>
          
        <polygon points="205.9,589.9 171.2,581.8 156.1,613.2 189.8,621.7"
                 fill="#ffffff" stroke="#1E1B2E" stroke-width="5" opacity="0.92"/>
        
          <circle cx="124.7" cy="627.8" r="3.9" fill="#fff" stroke="#1E1B2E" stroke-width="5" opacity="0.9"/>
        </g>
        </g></g>
  <g opacity="0.22">
    <circle cx="375.0" cy="560" r="270" fill="none" stroke="#FF8FAB" stroke-width="4.2" opacity="0.22"/>
    <circle cx="375.0" cy="560" r="221.4" fill="none" stroke="#FF8FAB" stroke-width="2.2" opacity="0.12"/>
    <line x1="627.0" y1="560.0" x2="659.0" y2="560.0" stroke="#FF8FAB" stroke-width="3.2" opacity="0.12" stroke-linecap="round"/><line x1="593.2" y1="686.0" x2="621.0" y2="702.0" stroke="#FF8FAB" stroke-width="3.2" opacity="0.12" stroke-linecap="round"/><line x1="501.0" y1="778.2" x2="517.0" y2="806.0" stroke="#FF8FAB" stroke-width="3.2" opacity="0.12" stroke-linecap="round"/><line x1="375.0" y1="812.0" x2="375.0" y2="844.0" stroke="#FF8FAB" stroke-width="3.2" opacity="0.12" stroke-linecap="round"/><line x1="249.0" y1="778.2" x2="233.0" y2="806.0" stroke="#FF8FAB" stroke-width="3.2" opacity="0.12" stroke-linecap="round"/><line x1="156.8" y1="686.0" x2="129.0" y2="702.0" stroke="#FF8FAB" stroke-width="3.2" opacity="0.12" stroke-linecap="round"/><line x1="123.0" y1="560.0" x2="91.0" y2="560.0" stroke="#FF8FAB" stroke-width="3.2" opacity="0.12" stroke-linecap="round"/><line x1="156.8" y1="434.0" x2="129.0" y2="418.0" stroke="#FF8FAB" stroke-width="3.2" opacity="0.12" stroke-linecap="round"/><line x1="249.0" y1="341.8" x2="233.0" y2="314.0" stroke="#FF8FAB" stroke-width="3.2" opacity="0.12" stroke-linecap="round"/><line x1="375.0" y1="308.0" x2="375.0" y2="276.0" stroke="#FF8FAB" stroke-width="3.2" opacity="0.12" stroke-linecap="round"/><line x1="501.0" y1="341.8" x2="517.0" y2="314.0" stroke="#FF8FAB" stroke-width="3.2" opacity="0.12" stroke-linecap="round"/><line x1="593.2" y1="434.0" x2="621.0" y2="418.0" stroke="#FF8FAB" stroke-width="3.2" opacity="0.12" stroke-linecap="round"/>
    <circle cx="645.0" cy="563.4" r="3.4" fill="#FF8FAB" opacity="0.44"/><circle cx="636.2" cy="628.2" r="3.4" fill="#FF8FAB" opacity="0.32"/><circle cx="613.0" cy="687.6" r="3.7" fill="#FF8FAB" opacity="0.41"/><circle cx="571.6" cy="745.0" r="3.0" fill="#FF8FAB" opacity="0.31"/><circle cx="502.4" cy="798.1" r="2.7" fill="#FF8FAB" opacity="0.39"/><circle cx="453.1" cy="818.4" r="3.1" fill="#FF8FAB" opacity="0.25"/><circle cx="376.4" cy="830.0" r="3.1" fill="#FF8FAB" opacity="0.29"/><circle cx="304.0" cy="820.5" r="3.2" fill="#FF8FAB" opacity="0.20"/><circle cx="232.6" cy="789.4" r="2.8" fill="#FF8FAB" opacity="0.27"/><circle cx="182.6" cy="749.4" r="3.4" fill="#FF8FAB" opacity="0.44"/><circle cx="145.1" cy="701.6" r="3.1" fill="#FF8FAB" opacity="0.43"/><circle cx="114.2" cy="630.1" r="3.9" fill="#FF8FAB" opacity="0.25"/><circle cx="105.0" cy="564.8" r="3.3" fill="#FF8FAB" opacity="0.34"/><circle cx="112.2" cy="498.2" r="2.9" fill="#FF8FAB" opacity="0.40"/><circle cx="139.7" cy="427.6" r="3.4" fill="#FF8FAB" opacity="0.27"/><circle cx="184.8" cy="368.4" r="3.3" fill="#FF8FAB" opacity="0.32"/><circle cx="246.3" cy="322.7" r="2.7" fill="#FF8FAB" opacity="0.26"/><circle cx="304.0" cy="299.5" r="2.8" fill="#FF8FAB" opacity="0.44"/><circle cx="373.8" cy="290.0" r="3.7" fill="#FF8FAB" opacity="0.20"/><circle cx="444.2" cy="299.0" r="2.9" fill="#FF8FAB" opacity="0.43"/><circle cx="517.6" cy="330.8" r="3.6" fill="#FF8FAB" opacity="0.19"/><circle cx="562.3" cy="365.5" r="3.2" fill="#FF8FAB" opacity="0.44"/><circle cx="611.2" cy="429.2" r="3.8" fill="#FF8FAB" opacity="0.43"/><circle cx="633.6" cy="482.3" r="3.3" fill="#FF8FAB" opacity="0.25"/>
  </g>

        <g filter="url(#glow)">
          <circle cx="375.0" cy="630" r="170" fill="#ffffff" opacity="0.40" stroke="#FF8FAB" stroke-width="7"/>
          
        <g>
          <line x1="270.6" y1="678.7" x2="479.4" y2="581.3" stroke="#1E1B2E" stroke-width="10.1" stroke-linecap="round"/>
          <line x1="270.6" y1="678.7" x2="479.4" y2="581.3" stroke="#FF8FAB" stroke-width="4.3" stroke-linecap="round" opacity="0.55"/>
          
        <polygon points="479.4,581.3 444.7,573.2 429.6,604.6 463.3,613.1"
                 fill="#ffffff" stroke="#1E1B2E" stroke-width="5" opacity="0.92"/>
        
          <circle cx="270.6" cy="678.7" r="10.1" fill="#fff" stroke="#1E1B2E" stroke-width="5" opacity="0.9"/>
        </g>
        
        </g>
        <line x1="412.1" y1="582.2" x2="296.0" y2="645.7" stroke="#ffffff" stroke-width="2.2" opacity="0.11"/>
<line x1="296.0" y1="645.7" x2="415.7" y2="508.0" stroke="#ffffff" stroke-width="2.2" opacity="0.20"/>
<line x1="415.7" y1="508.0" x2="407.3" y2="481.1" stroke="#ffffff" stroke-width="2.2" opacity="0.18"/>
<line x1="407.3" y1="481.1" x2="402.9" y2="536.7" stroke="#ffffff" stroke-width="2.2" opacity="0.08"/>
<line x1="402.9" y1="536.7" x2="375.7" y2="237.7" stroke="#ffffff" stroke-width="2.2" opacity="0.22"/>
<line x1="375.7" y1="237.7" x2="335.6" y2="547.4" stroke="#ffffff" stroke-width="2.2" opacity="0.12"/>
<circle cx="542.5" cy="416.0" r="4.1" fill="#ffffff" opacity="0.6126668685082349"/>
<circle cx="133.8" cy="385.6" r="3.3" fill="#ffffff" opacity="0.6954527165988509"/>
<circle cx="415.7" cy="508.0" r="4.3" fill="#ffffff" opacity="0.45537562767721795"/>
<circle cx="407.3" cy="481.1" r="3.8" fill="#ffffff" opacity="0.3395216430522269"/>
<circle cx="296.0" cy="645.7" r="3.0" fill="#ffffff" opacity="0.7920071482073123"/>
<circle cx="402.9" cy="536.7" r="3.3" fill="#ffffff" opacity="0.5183828110381896"/>
<circle cx="412.1" cy="582.2" r="2.8" fill="#ffffff" opacity="0.31498975077389635"/>
<circle cx="335.6" cy="547.4" r="2.3" fill="#ffffff" opacity="0.3827894660404298"/>
<circle cx="152.0" cy="247.0" r="3.1" fill="#ffffff" opacity="0.3473909598354691"/>
<circle cx="375.7" cy="237.7" r="2.2" fill="#ffffff" opacity="0.3036615123513384"/>
<circle cx="595.7" cy="270.4" r="2.5" fill="#ffffff" opacity="0.752755513689065"/>
<circle cx="488.4" cy="341.8" r="3.0" fill="#ffffff" opacity="0.7206289262431913"/>
<circle cx="346.2" cy="303.0" r="4.5" fill="#ffffff" opacity="0.42584728788524495"/>
<circle cx="478.5" cy="652.9" r="4.5" fill="#ffffff" opacity="0.7323188549067081"/>
<rect x="42" y="1030" width="666" height="160" rx="30" fill="#ffffffd9" stroke="#1E1B2E" stroke-width="4" opacity="0.95"/>
<text x="375.0" y="1104" font-family="ui-sans-serif, system-ui, -apple-system, Segoe UI, Roboto, Helvetica, Arial" font-size="46" font-weight="900" text-anchor="middle" fill="#1E1B2E" opacity="0.98">4 of Wands</text>
<text x="375.0" y="1152" font-family="ui-sans-serif, system-ui, -apple-system, Segoe UI, Roboto, Helvetica, Arial" font-size="28" font-weight="700" text-anchor="middle" fill="#1E1B2E" opacity="0.7">Rest</text>

    <g opacity="0.55">
      <circle cx="127" cy="1176" r="14" fill="#FF8FAB"/>
      <circle cx="623" cy="1176" r="14" fill="#FF8FAB"/>
      <path d="M 162 1176 L 588 1176" stroke="#FF8FAB" stroke-width="4" opacity="0.45" stroke-linecap="round"/>
    </g>
    
</svg>
