<svg xmlns="http://www.w3.org/2000/svg" width="750" height="1250" viewBox="0 0 750 1250">
  <title>5 of Wands</title>


  <defs>
    <linearGradient id="g" x1="0" y1="0" x2="1" y2="1">
      <stop offset="0%" stop-color="#F1F7FF"/>
      <stop offset="100%" stop-color="#FFF0D6"/>
    </linearGradient>

    <!-- paper texture -->
    <filter id="paper" x="-20%" y="-20%" width="140%" height="140%">
      <feTurbulence type="fractalNoise" baseFrequency="0.017" numOctaves="3" seed="5834" result="noise"/>
      <feColorMatrix in="noise" type="matrix"
        values="1 0 0 0 0
                0 1 0 0 0
                0 0 1 0 0
                0 0 0 0.25 0" result="noiseAlpha"/>
      <feComposite in="noiseAlpha" in2="SourceGraphic" operator="over"/>
    </filter>

    <!-- soft glow -->
    <filter id="glow" x="-30%" y="-30%" width="160%" height="160%">
      <feGaussianBlur stdDeviation="10" result="blur"/>
      <feColorMatrix type="matrix" values="
        1 0 0 0 0
        0 1 0 0 0
        0 0 1 0 0
        0 0 0 0.32 0" result="blurAlpha"/>
      <feMerge>
        <feMergeNode in="blurAlpha"/>
        <feMergeNode in="SourceGraphic"/>
      </feMerge>
    </filter>
  </defs>

<rect x="0" y="0" width="750" height="1250" rx="58" ry="58" fill="url(#g)" stroke="none" stroke-width="0" opacity="1"/>
<rect x="0" y="0" width="750" height="1250" fill="#ffffff" opacity="0.08"/>
<line x1="403.2" y1="788.0" x2="699.5" y2="529.2" stroke="#ffffff" stroke-width="2.2" opacity="0.20"/>
<line x1="699.5" y1="529.2" x2="558.2" y2="337.1" stroke="#ffffff" stroke-width="2.2" opacity="0.12"/>
<line x1="558.2" y1="337.1" x2="457.5" y2="1019.5" stroke="#ffffff" stroke-width="2.2" opacity="0.09"/>
<line x1="457.5" y1="1019.5" x2="330.6" y2="900.4" stroke="#ffffff" stroke-width="2.2" opacity="0.19"/>
<line x1="330.6" y1="900.4" x2="251.5" y2="501.3" stroke="#ffffff" stroke-width="2.2" opacity="0.14"/>
<line x1="251.5" y1="501.3" x2="126.6" y2="1122.4" stroke="#ffffff" stroke-width="2.2" opacity="0.09"/>
<line x1="126.6" y1="1122.4" x2="101.3" y2="916.9" stroke="#ffffff" stroke-width="2.2" opacity="0.19"/>
<line x1="101.3" y1="916.9" x2="666.8" y2="74.6" stroke="#ffffff" stroke-width="2.2" opacity="0.18"/>
<line x1="666.8" y1="74.6" x2="213.6" y2="263.4" stroke="#ffffff" stroke-width="2.2" opacity="0.12"/>
<line x1="213.6" y1="263.4" x2="690.4" y2="215.3" stroke="#ffffff" stroke-width="2.2" opacity="0.21"/>
<line x1="690.4" y1="215.3" x2="694.1" y2="236.0" stroke="#ffffff" stroke-width="2.2" opacity="0.08"/>
<line x1="694.1" y1="236.0" x2="353.7" y2="295.2" stroke="#ffffff" stroke-width="2.2" opacity="0.13"/>
<line x1="353.7" y1="295.2" x2="225.6" y2="1033.1" stroke="#ffffff" stroke-width="2.2" opacity="0.18"/>
<line x1="225.6" y1="1033.1" x2="599.4" y2="1076.7" stroke="#ffffff" stroke-width="2.2" opacity="0.16"/>
<line x1="599.4" y1="1076.7" x2="360.8" y2="621.4" stroke="#ffffff" stroke-width="2.2" opacity="0.13"/>
<line x1="360.8" y1="621.4" x2="464.9" y2="680.3" stroke="#ffffff" stroke-width="2.2" opacity="0.14"/>
<line x1="464.9" y1="680.3" x2="470.0" y2="506.6" stroke="#ffffff" stroke-width="2.2" opacity="0.19"/>
<line x1="470.0" y1="506.6" x2="78.6" y2="902.1" stroke="#ffffff" stroke-width="2.2" opacity="0.19"/>
<circle cx="706.1" cy="744.7" r="2.6" fill="#ffffff" opacity="0.4129021116344201"/>
<circle cx="78.6" cy="902.1" r="2.5" fill="#ffffff" opacity="0.5473962016771723"/>
<circle cx="350.0" cy="1079.1" r="3.5" fill="#ffffff" opacity="0.7624930788593727"/>
<circle cx="213.6" cy="263.4" r="3.1" fill="#ffffff" opacity="0.6503679358067337"/>
<circle cx="262.9" cy="1162.7" r="1.9" fill="#ffffff" opacity="0.7328561380679137"/>
<circle cx="457.5" cy="1019.5" r="3.0" fill="#ffffff" opacity="0.8377751295458905"/>
<circle cx="220.8" cy="292.7" r="4.5" fill="#ffffff" opacity="0.6211176423045937"/>
<circle cx="126.6" cy="1122.4" r="3.2" fill="#ffffff" opacity="0.7794008324315003"/>
<circle cx="403.2" cy="788.0" r="2.2" fill="#ffffff" opacity="0.6718122320710592"/>
<circle cx="330.6" cy="900.4" r="2.3" fill="#ffffff" opacity="0.5354802822635787"/>
<circle cx="450.2" cy="306.4" r="2.3" fill="#ffffff" opacity="0.29399542234671244"/>
<circle cx="328.2" cy="1009.5" r="3.3" fill="#ffffff" opacity="0.44834318540363616"/>
<circle cx="361.7" cy="329.7" r="3.0" fill="#ffffff" opacity="0.5263808123684237"/>
<circle cx="74.6" cy="782.2" r="3.3" fill="#ffffff" opacity="0.5590703117098133"/>
<circle cx="480.8" cy="595.2" r="1.6" fill="#ffffff" opacity="0.5034374934695651"/>
<circle cx="694.1" cy="236.0" r="1.6" fill="#ffffff" opacity="0.7079611711221128"/>
<circle cx="594.0" cy="405.7" r="1.9" fill="#ffffff" opacity="0.2934332643740159"/>
<circle cx="470.0" cy="506.6" r="1.8" fill="#ffffff" opacity="0.39403724746427604"/>
<circle cx="165.1" cy="236.4" r="4.7" fill="#ffffff" opacity="0.6030846874271627"/>
<circle cx="690.4" cy="215.3" r="3.5" fill="#ffffff" opacity="0.5751610212843921"/>
<circle cx="618.4" cy="243.6" r="3.7" fill="#ffffff" opacity="0.7333969887883751"/>
<circle cx="179.7" cy="689.5" r="2.5" fill="#ffffff" opacity="0.2852371034982132"/>
<circle cx="519.5" cy="308.0" r="2.8" fill="#ffffff" opacity="0.5536861045171242"/>
<circle cx="604.4" cy="388.5" r="2.3" fill="#ffffff" opacity="0.4820718188855494"/>
<circle cx="101.3" cy="916.9" r="2.6" fill="#ffffff" opacity="0.4841839063749461"/>
<circle cx="463.2" cy="277.5" r="2.6" fill="#ffffff" opacity="0.3007655069378715"/>
<circle cx="117.3" cy="465.3" r="4.4" fill="#ffffff" opacity="0.6788401018288841"/>
<circle cx="696.1" cy="69.1" r="4.3" fill="#ffffff" opacity="0.7387592596518953"/>
<circle cx="83.2" cy="371.3" r="3.5" fill="#ffffff" opacity="0.40278800488670424"/>
<circle cx="633.6" cy="877.4" r="4.1" fill="#ffffff" opacity="0.34610560249131217"/>
<circle cx="384.3" cy="63.5" r="2.4" fill="#ffffff" opacity="0.49158813769392884"/>
<circle cx="251.5" cy="501.3" r="4.4" fill="#ffffff" opacity="0.2760701485015087"/>
<circle cx="464.9" cy="680.3" r="3.8" fill="#ffffff" opacity="0.8146305843617789"/>
<circle cx="699.5" cy="529.2" r="3.8" fill="#ffffff" opacity="0.4795078217565296"/>
<circle cx="223.8" cy="741.6" r="1.6" fill="#ffffff" opacity="0.34564263662855843"/>
<circle cx="198.6" cy="200.8" r="4.1" fill="#ffffff" opacity="0.348399630252487"/>
<circle cx="612.9" cy="756.6" r="3.8" fill="#ffffff" opacity="0.5505028161055268"/>
<circle cx="599.4" cy="1076.7" r="4.7" fill="#ffffff" opacity="0.3364726116693926"/>
<circle cx="301.3" cy="668.6" r="4.1" fill="#ffffff" opacity="0.6206902487719723"/>
<circle cx="360.8" cy="621.4" r="4.8" fill="#ffffff" opacity="0.31273299724063525"/>
<circle cx="459.0" cy="164.7" r="3.4" fill="#ffffff" opacity="0.7976811856948727"/>
<circle cx="547.9" cy="485.7" r="2.6" fill="#ffffff" opacity="0.3480648095632387"/>
<circle cx="666.8" cy="74.6" r="3.5" fill="#ffffff" opacity="0.8221591828145863"/>
<circle cx="176.8" cy="719.6" r="2.5" fill="#ffffff" opacity="0.6903689168776017"/>
<circle cx="488.9" cy="887.5" r="3.6" fill="#ffffff" opacity="0.5613817135489716"/>
<circle cx="225.6" cy="1033.1" r="4.0" fill="#ffffff" opacity="0.4369863339473183"/>
<circle cx="246.4" cy="306.4" r="3.0" fill="#ffffff" opacity="0.8209531683960525"/>
<circle cx="200.4" cy="809.7" r="4.7" fill="#ffffff" opacity="0.5678707688391325"/>
<circle cx="353.7" cy="295.2" r="4.7" fill="#ffffff" opacity="0.2722205055300323"/>
<circle cx="558.2" cy="337.1" r="3.1" fill="#ffffff" opacity="0.715323876676518"/>
<g filter="url(#paper)"><rect x="42" y="42" width="666" height="1166" rx="54" ry="54" fill="none" stroke="#1E1B2E" stroke-width="8" opacity="0.95"/>
<rect x="60" y="60" width="630" height="1130" rx="46" ry="46" fill="none" stroke="#FF8FAB" stroke-width="3" opacity="0.35"/>

  <g opacity="0.42">
    <circle cx="375.0" cy="560" r="285" fill="none" stroke="#FF8FAB" stroke-width="4.2" opacity="0.42"/>
    <circle cx="375.0" cy="560" r="233.7" fill="none" stroke="#FF8FAB" stroke-width="2.2" opacity="0.23"/>
    <line x1="642.0" y1="560.0" x2="674.0" y2="560.0" stroke="#FF8FAB" stroke-width="3.2" opacity="0.23" stroke-linecap="round"/><line x1="606.2" y1="693.5" x2="633.9" y2="709.5" stroke="#FF8FAB" stroke-width="3.2" opacity="0.23" stroke-linecap="round"/><line x1="508.5" y1="791.2" x2="524.5" y2="818.9" stroke="#FF8FAB" stroke-width="3.2" opacity="0.23" stroke-linecap="round"/><line x1="375.0" y1="827.0" x2="375.0" y2="859.0" stroke="#FF8FAB" stroke-width="3.2" opacity="0.23" stroke-linecap="round"/><line x1="241.5" y1="791.2" x2="225.5" y2="818.9" stroke="#FF8FAB" stroke-width="3.2" opacity="0.23" stroke-linecap="round"/><line x1="143.8" y1="693.5" x2="116.1" y2="709.5" stroke="#FF8FAB" stroke-width="3.2" opacity="0.23" stroke-linecap="round"/><line x1="108.0" y1="560.0" x2="76.0" y2="560.0" stroke="#FF8FAB" stroke-width="3.2" opacity="0.23" stroke-linecap="round"/><line x1="143.8" y1="426.5" x2="116.1" y2="410.5" stroke="#FF8FAB" stroke-width="3.2" opacity="0.23" stroke-linecap="round"/><line x1="241.5" y1="328.8" x2="225.5" y2="301.1" stroke="#FF8FAB" stroke-width="3.2" opacity="0.23" stroke-linecap="round"/><line x1="375.0" y1="293.0" x2="375.0" y2="261.0" stroke="#FF8FAB" stroke-width="3.2" opacity="0.23" stroke-linecap="round"/><line x1="508.5" y1="328.8" x2="524.5" y2="301.1" stroke="#FF8FAB" stroke-width="3.2" opacity="0.23" stroke-linecap="round"/><line x1="606.2" y1="426.5" x2="633.9" y2="410.5" stroke="#FF8FAB" stroke-width="3.2" opacity="0.23" stroke-linecap="round"/>
    <circle cx="660.0" cy="563.6" r="3.8" fill="#FF8FAB" opacity="0.36"/><circle cx="648.1" cy="641.3" r="3.1" fill="#FF8FAB" opacity="0.25"/><circle cx="620.9" cy="704.1" r="3.4" fill="#FF8FAB" opacity="0.26"/><circle cx="579.6" cy="758.4" r="3.9" fill="#FF8FAB" opacity="0.42"/><circle cx="512.1" cy="809.9" r="3.3" fill="#FF8FAB" opacity="0.29"/><circle cx="456.5" cy="833.1" r="3.0" fill="#FF8FAB" opacity="0.34"/><circle cx="376.9" cy="845.0" r="3.9" fill="#FF8FAB" opacity="0.38"/><circle cx="310.2" cy="837.5" r="2.6" fill="#FF8FAB" opacity="0.22"/><circle cx="225.1" cy="802.4" r="3.6" fill="#FF8FAB" opacity="0.40"/><circle cx="172.3" cy="760.4" r="3.3" fill="#FF8FAB" opacity="0.22"/><circle cx="127.3" cy="701.0" r="3.7" fill="#FF8FAB" opacity="0.41"/><circle cx="101.1" cy="638.9" r="3.0" fill="#FF8FAB" opacity="0.33"/><circle cx="90.1" cy="551.9" r="2.6" fill="#FF8FAB" opacity="0.32"/><circle cx="99.8" cy="485.8" r="3.6" fill="#FF8FAB" opacity="0.44"/><circle cx="132.4" cy="410.4" r="3.4" fill="#FF8FAB" opacity="0.30"/><circle cx="178.8" cy="353.3" r="3.5" fill="#FF8FAB" opacity="0.26"/><circle cx="226.2" cy="317.0" r="3.2" fill="#FF8FAB" opacity="0.43"/><circle cx="301.7" cy="284.6" r="3.0" fill="#FF8FAB" opacity="0.36"/><circle cx="372.8" cy="275.0" r="2.7" fill="#FF8FAB" opacity="0.43"/><circle cx="457.7" cy="287.3" r="2.8" fill="#FF8FAB" opacity="0.32"/><circle cx="512.3" cy="310.2" r="3.0" fill="#FF8FAB" opacity="0.22"/><circle cx="576.7" cy="358.6" r="3.8" fill="#FF8FAB" opacity="0.31"/><circle cx="626.1" cy="425.2" r="3.7" fill="#FF8FAB" opacity="0.36"/><circle cx="651.1" cy="489.2" r="3.7" fill="#FF8FAB" opacity="0.25"/>
  </g>

<g><g transform="translate(50,54)"><path d="M 14.4 117.0 C 54.0 14.4, 126.0 14.4, 165.6 117.0" fill="none" stroke="#FF8FAB" stroke-width="6" opacity="0.55" stroke-linecap="round"/></g><g transform="translate(700,54) scale(-1,1)"><path d="M 14.4 117.0 C 54.0 14.4, 126.0 14.4, 165.6 117.0" fill="none" stroke="#FF8FAB" stroke-width="6" opacity="0.55" stroke-linecap="round"/></g><g transform="translate(50,1196) scale(1,-1)"><path d="M 14.4 117.0 C 54.0 14.4, 126.0 14.4, 165.6 117.0" fill="none" stroke="#FF8FAB" stroke-width="6" opacity="0.55" stroke-linecap="round"/></g><g transform="translate(700,1196) scale(-1,-1)"><path d="M 14.4 117.0 C 54.0 14.4, 126.0 14.4, 165.6 117.0" fill="none" stroke="#FF8FAB" stroke-width="6" opacity="0.55" stroke-linecap="round"/></g></g></g>
<rect x="42" y="60" width="666" height="92" rx="30" fill="#ffffffcc" stroke="#1E1B2E" stroke-width="4" opacity="0.95"/>
<text x="375.0" y="122" font-family="ui-sans-serif, system-ui, -apple-system, Segoe UI, Roboto, Helvetica, Arial" font-size="30" font-weight="800" text-anchor="middle" fill="#1E1B2E" opacity="0.95" letter-spacing="1">MINOR ARCANA • WANDS</text>
<rect x="76" y="170" width="598" height="760" rx="52" fill="#ffffff" opacity="0.15"/>
<g><path d="M 112.0 880 C 152.0 690 82.0 450 142.0 230" fill="none" stroke="#FF8FAB" stroke-width="4" opacity="0.10" stroke-linecap="round"/><circle cx="132.0" cy="450.0" r="9" fill="#FF8FAB" opacity="0.08"/><path d="M 202.0 880 C 242.0 690 172.0 450 232.0 230" fill="none" stroke="#FF8FAB" stroke-width="4" opacity="0.10" stroke-linecap="round"/><circle cx="222.0" cy="450.0" r="9" fill="#FF8FAB" opacity="0.08"/><path d="M 292.0 880 C 332.0 690 262.0 450 322.0 230" fill="none" stroke="#FF8FAB" stroke-width="4" opacity="0.10" stroke-linecap="round"/><circle cx="312.0" cy="450.0" r="9" fill="#FF8FAB" opacity="0.08"/><path d="M 382.0 880 C 422.0 690 352.0 450 412.0 230" fill="none" stroke="#FF8FAB" stroke-width="4" opacity="0.10" stroke-linecap="round"/><circle cx="402.0" cy="450.0" r="9" fill="#FF8FAB" opacity="0.08"/><path d="M 472.0 880 C 512.0 690 442.0 450 502.0 230" fill="none" stroke="#FF8FAB" stroke-width="4" opacity="0.10" stroke-linecap="round"/><circle cx="492.0" cy="450.0" r="9" fill="#FF8FAB" opacity="0.08"/><path d="M 562.0 880 C 602.0 690 532.0 450 592.0 230" fill="none" stroke="#FF8FAB" stroke-width="4" opacity="0.10" stroke-linecap="round"/><circle cx="582.0" cy="450.0" r="9" fill="#FF8FAB" opacity="0.08"/><path d="M 652.0 880 C 692.0 690 622.0 450 682.0 230" fill="none" stroke="#FF8FAB" stroke-width="4" opacity="0.10" stroke-linecap="round"/><circle cx="672.0" cy="450.0" r="9" fill="#FF8FAB" opacity="0.08"/></g><g><g opacity="0.55">
        <g>
          <line x1="315.7" y1="429.8" x2="396.9" y2="391.9" stroke="#1E1B2E" stroke-width="3.9" stroke-linecap="round"/>
          <line x1="315.7" y1="429.8" x2="396.9" y2="391.9" stroke="#FF8FAB" stroke-width="1.7" stroke-linecap="round" opacity="0.55"/>
          
        <polygon points="396.9,391.9 362.2,383.8 347.0,415.1 380.8,423.7"
                 fill="#ffffff" stroke="#1E1B2E" stroke-width="5" opacity="0.92"/>
        
          <circle cx="315.7" cy="429.8" r="3.9" fill="#fff" stroke="#1E1B2E" stroke-width="5" opacity="0.9"/>
        </g>
        </g><g opacity="0.55">
        <g>
          <line x1="530.5" y1="563.8" x2="611.7" y2="526.0" stroke="#1E1B2E" stroke-width="3.9" stroke-linecap="round"/>
          <line x1="530.5" y1="563.8" x2="611.7" y2="526.0" stroke="#FF8FAB" stroke-width="1.7" stroke-linecap="round" opacity="0.55"/>
          
        <polygon points="611.7,526.0 577.0,517.9 561.9,549.2 595.6,557.7"
                 fill="#ffffff" stroke="#1E1B2E" stroke-width="5" opacity="0.92"/>
        
          <circle cx="530.5" cy="563.8" r="3.9" fill="#fff" stroke="#1E1B2E" stroke-width="5" opacity="0.9"/>
        </g>
        </g><g opacity="0.55">
        <g>
          <line x1="465.7" y1="802.8" x2="546.9" y2="764.9" stroke="#1E1B2E" stroke-width="3.9" stroke-linecap="round"/>
          <line x1="465.7" y1="802.8" x2="546.9" y2="764.9" stroke="#FF8FAB" stroke-width="1.7" stroke-linecap="round" opacity="0.55"/>
          
        <polygon points="546.9,764.9 512.2,756.8 497.1,788.2 530.8,796.7"
                 fill="#ffffff" stroke="#1E1B2E" stroke-width="5" opacity="0.92"/>
        
          <circle cx="465.7" cy="802.8" r="3.9" fill="#fff" stroke="#1E1B2E" stroke-width="5" opacity="0.9"/>
        </g>
        </g><g opacity="0.55">
        <g>
          <line x1="194.0" y1="795.1" x2="275.2" y2="757.2" stroke="#1E1B2E" stroke-width="3.9" stroke-linecap="round"/>
          <line x1="194.0" y1="795.1" x2="275.2" y2="757.2" stroke="#FF8FAB" stroke-width="1.7" stroke-linecap="round" opacity="0.55"/>
          
        <polygon points="275.2,757.2 240.5,749.1 225.4,780.5 259.1,789.0"
                 fill="#ffffff" stroke="#1E1B2E" stroke-width="5" opacity="0.92"/>
        
          <circle cx="194.0" cy="795.1" r="3.9" fill="#fff" stroke="#1E1B2E" stroke-width="5" opacity="0.9"/>
        </g>
        </g><g opacity="0.55">
        <g>
          <line x1="142.3" y1="554.1" x2="223.5" y2="516.3" stroke="#1E1B2E" stroke-width="3.9" stroke-linecap="round"/>
          <line x1="142.3" y1="554.1" x2="223.5" y2="516.3" stroke="#FF8FAB" stroke-width="1.7" stroke-linecap="round" opacity="0.55"/>
          
        <polygon points="223.5,516.3 188.8,508.2 173.6,539.5 207.4,548.0"
                 fill="#ffffff" stroke="#1E1B2E" stroke-width="5" opacity="0.92"/>
        
          <circle cx="142.3" cy="554.1" r="3.9" fill="#fff" stroke="#1E1B2E" stroke-width="5" opacity="0.9"/>
        </g>
        </g></g><path d="M 175.0 740 Q 375.0 680 575.0 740" fill="none" stroke="#FF8FAB" stroke-width="10" opacity="0.25" stroke-linecap="round"/>
        <g filter="url(#glow)">
          <circle cx="375.0" cy="630" r="170" fill="#ffffff" opacity="0.40" stroke="#FF8FAB" stroke-width="7"/>
          
        <g>
          <line x1="270.6" y1="678.7" x2="479.4" y2="581.3" stroke="#1E1B2E" stroke-width="10.1" stroke-linecap="round"/>
          <line x1="270.6" y1="678.7" x2="479.4" y2="581.3" stroke="#FF8FAB" stroke-width="4.3" stroke-linecap="round" opacity="0.55"/>
          
        <polygon points="479.4,581.3 444.7,573.2 429.6,604.6 463.3,613.1"
                 fill="#ffffff" stroke="#1E1B2E" stroke-width="5" opacity="0.92"/>
        
          <circle cx="270.6" cy="678.7" r="10.1" fill="#fff" stroke="#1E1B2E" stroke-width="5" opacity="0.9"/>
        </g>
        
        </g>
        <line x1="174.9" y1="323.8" x2="273.6" y2="555.2" stroke="#ffffff" stroke-width="2.2" opacity="0.09"/>
<line x1="273.6" y1="555.2" x2="351.3" y2="548.3" stroke="#ffffff" stroke-width="2.2" opacity="0.18"/>
<line x1="351.3" y1="548.3" x2="264.7" y2="636.8" stroke="#ffffff" stroke-width="2.2" opacity="0.11"/>
<line x1="264.7" y1="636.8" x2="457.4" y2="463.0" stroke="#ffffff" stroke-width="2.2" opacity="0.20"/>
<line x1="457.4" y1="463.0" x2="562.4" y2="593.4" stroke="#ffffff" stroke-width="2.2" opacity="0.13"/>
<line x1="562.4" y1="593.4" x2="248.6" y2="361.7" stroke="#ffffff" stroke-width="2.2" opacity="0.16"/>
<circle cx="221.2" cy="674.7" r="4.1" fill="#ffffff" opacity="0.5112710243840375"/>
<circle cx="443.5" cy="251.9" r="4.4" fill="#ffffff" opacity="0.47132512594284093"/>
<circle cx="305.1" cy="445.8" r="1.8" fill="#ffffff" opacity="0.7200401874857069"/>
<circle cx="617.1" cy="480.8" r="1.7" fill="#ffffff" opacity="0.8138706149142497"/>
<circle cx="529.3" cy="231.2" r="3.2" fill="#ffffff" opacity="0.5718453610243992"/>
<circle cx="457.4" cy="463.0" r="2.0" fill="#ffffff" opacity="0.5545148590964164"/>
<circle cx="351.3" cy="548.3" r="2.7" fill="#ffffff" opacity="0.32342313988342275"/>
<circle cx="264.7" cy="636.8" r="1.7" fill="#ffffff" opacity="0.3292182731557149"/>
<circle cx="605.6" cy="305.6" r="4.5" fill="#ffffff" opacity="0.586422757317836"/>
<circle cx="297.0" cy="568.3" r="3.1" fill="#ffffff" opacity="0.30900429778029087"/>
<circle cx="174.9" cy="323.8" r="3.0" fill="#ffffff" opacity="0.3797075482506689"/>
<circle cx="248.6" cy="361.7" r="3.7" fill="#ffffff" opacity="0.7434598802049668"/>
<circle cx="562.4" cy="593.4" r="3.7" fill="#ffffff" opacity="0.31533625183656105"/>
<circle cx="273.6" cy="555.2" r="2.7" fill="#ffffff" opacity="0.4945361021524478"/>
<rect x="42" y="1030" width="666" height="160" rx="30" fill="#ffffffd9" stroke="#1E1B2E" stroke-width="4" opacity="0.95"/>
<text x="375.0" y="1104" font-family="ui-sans-serif, system-ui, -apple-system, Segoe UI, Roboto, Helvetica, Arial" font-size="46" font-weight="900" text-anchor="middle" fill="#1E1B2E" opacity="0.98">5 of Wands</text>
<text x="375.0" y="1152" font-family="ui-sans-serif, system-ui, -apple-system, Segoe UI, Roboto, Helvetica, Arial" font-size="28" font-weight="700" text-anchor="middle" fill="#1E1B2E" opacity="0.7">Learning</text>

    <g opacity="0.55">
      <circle cx="127" cy="1176" r="14" fill="#FF8FAB"/>
      <circle cx="623" cy="1176" r="14" fill="#FF8FAB"/>
      <path d="M 162 1176 L 588 1176" stroke="#FF8FAB" stroke-width="4" opacity="0.45" stroke-linecap="round"/>
    </g>
    
</svg>
