<svg xmlns="http://www.w3.org/2000/svg" width="750" height="1250" viewBox="0 0 750 1250">
  <title>6 of Wands</title>


  <defs>
    <linearGradient id="g" x1="0" y1="0" x2="1" y2="1">
      <stop offset="0%" stop-color="#E8FFF1"/>
      <stop offset="100%" stop-color="#F2E9FF"/>
    </linearGradient>

    <!-- paper texture -->
    <filter id="paper" x="-20%" y="-20%" width="140%" height="140%">
      <feTurbulence type="fractalNoise" baseFrequency="0.013" numOctaves="3" seed="930" result="noise"/>
      <feColorMatrix in="noise" type="matrix"
        values="1 0 0 0 0
                0 1 0 0 0
                0 0 1 0 0
                0 0 0 0.25 0" result="noiseAlpha"/>
      <feComposite in="noiseAlpha" in2="SourceGraphic" operator="over"/>
    </filter>

    <!-- soft glow -->
    <filter id="glow" x="-30%" y="-30%" width="160%" height="160%">
      <feGaussianBlur stdDeviation="10" result="blur"/>
      <feColorMatrix type="matrix" values="
        1 0 0 0 0
        0 1 0 0 0
        0 0 1 0 0
        0 0 0 0.32 0" result="blurAlpha"/>
      <feMerge>
        <feMergeNode in="blurAlpha"/>
        <feMergeNode in="SourceGraphic"/>
      </feMerge>
    </filter>
  </defs>

<rect x="0" y="0" width="750" height="1250" rx="58" ry="58" fill="url(#g)" stroke="none" stroke-width="0" opacity="1"/>
<rect x="0" y="0" width="750" height="1250" fill="#ffffff" opacity="0.08"/>
<line x1="110.4" y1="556.3" x2="364.3" y2="1100.1" stroke="#ffffff" stroke-width="2.2" opacity="0.21"/>
<line x1="364.3" y1="1100.1" x2="666.6" y2="499.5" stroke="#ffffff" stroke-width="2.2" opacity="0.11"/>
<line x1="666.6" y1="499.5" x2="89.2" y2="1115.7" stroke="#ffffff" stroke-width="2.2" opacity="0.11"/>
<line x1="89.2" y1="1115.7" x2="550.1" y2="742.2" stroke="#ffffff" stroke-width="2.2" opacity="0.18"/>
<line x1="550.1" y1="742.2" x2="98.6" y2="497.9" stroke="#ffffff" stroke-width="2.2" opacity="0.16"/>
<line x1="98.6" y1="497.9" x2="184.9" y2="416.5" stroke="#ffffff" stroke-width="2.2" opacity="0.10"/>
<line x1="184.9" y1="416.5" x2="430.5" y2="581.4" stroke="#ffffff" stroke-width="2.2" opacity="0.08"/>
<line x1="430.5" y1="581.4" x2="447.3" y2="161.6" stroke="#ffffff" stroke-width="2.2" opacity="0.08"/>
<line x1="447.3" y1="161.6" x2="396.8" y2="650.5" stroke="#ffffff" stroke-width="2.2" opacity="0.20"/>
<line x1="396.8" y1="650.5" x2="231.9" y2="128.6" stroke="#ffffff" stroke-width="2.2" opacity="0.17"/>
<line x1="231.9" y1="128.6" x2="115.2" y2="500.5" stroke="#ffffff" stroke-width="2.2" opacity="0.10"/>
<line x1="115.2" y1="500.5" x2="420.5" y2="621.3" stroke="#ffffff" stroke-width="2.2" opacity="0.09"/>
<line x1="420.5" y1="621.3" x2="529.2" y2="482.1" stroke="#ffffff" stroke-width="2.2" opacity="0.11"/>
<line x1="529.2" y1="482.1" x2="636.7" y2="772.6" stroke="#ffffff" stroke-width="2.2" opacity="0.20"/>
<line x1="636.7" y1="772.6" x2="385.1" y2="815.3" stroke="#ffffff" stroke-width="2.2" opacity="0.15"/>
<line x1="385.1" y1="815.3" x2="556.8" y2="1193.5" stroke="#ffffff" stroke-width="2.2" opacity="0.16"/>
<line x1="556.8" y1="1193.5" x2="586.8" y2="585.2" stroke="#ffffff" stroke-width="2.2" opacity="0.11"/>
<line x1="586.8" y1="585.2" x2="248.8" y2="500.5" stroke="#ffffff" stroke-width="2.2" opacity="0.09"/>
<circle cx="277.4" cy="947.0" r="1.7" fill="#ffffff" opacity="0.6465690248577382"/>
<circle cx="384.9" cy="620.8" r="2.6" fill="#ffffff" opacity="0.7432287535408681"/>
<circle cx="529.2" cy="482.1" r="2.5" fill="#ffffff" opacity="0.5239415397266031"/>
<circle cx="586.8" cy="585.2" r="2.4" fill="#ffffff" opacity="0.2719815783919625"/>
<circle cx="604.5" cy="1189.6" r="4.7" fill="#ffffff" opacity="0.4880992103702466"/>
<circle cx="649.4" cy="779.6" r="2.9" fill="#ffffff" opacity="0.5642492318673527"/>
<circle cx="612.4" cy="992.7" r="1.7" fill="#ffffff" opacity="0.7894172159323913"/>
<circle cx="590.7" cy="682.8" r="3.9" fill="#ffffff" opacity="0.6847763461845162"/>
<circle cx="636.7" cy="772.6" r="2.4" fill="#ffffff" opacity="0.5236476122235111"/>
<circle cx="358.3" cy="184.1" r="4.3" fill="#ffffff" opacity="0.7321954171323519"/>
<circle cx="488.7" cy="471.4" r="4.2" fill="#ffffff" opacity="0.8415076006495497"/>
<circle cx="101.9" cy="1079.1" r="3.6" fill="#ffffff" opacity="0.7148286521428252"/>
<circle cx="110.4" cy="556.3" r="4.8" fill="#ffffff" opacity="0.644168158616879"/>
<circle cx="89.2" cy="1115.7" r="2.2" fill="#ffffff" opacity="0.6046821022492148"/>
<circle cx="447.3" cy="161.6" r="2.6" fill="#ffffff" opacity="0.8375685579182488"/>
<circle cx="430.5" cy="581.4" r="2.6" fill="#ffffff" opacity="0.8061701719250853"/>
<circle cx="396.8" cy="650.5" r="3.6" fill="#ffffff" opacity="0.2690205823250388"/>
<circle cx="666.6" cy="499.5" r="4.4" fill="#ffffff" opacity="0.517109660934639"/>
<circle cx="594.4" cy="868.7" r="3.5" fill="#ffffff" opacity="0.264994622631034"/>
<circle cx="319.8" cy="69.4" r="4.5" fill="#ffffff" opacity="0.37398620167529345"/>
<circle cx="203.0" cy="414.3" r="2.4" fill="#ffffff" opacity="0.5081679506296334"/>
<circle cx="308.9" cy="769.1" r="1.7" fill="#ffffff" opacity="0.5384848036737628"/>
<circle cx="44.2" cy="146.2" r="4.7" fill="#ffffff" opacity="0.6874341149999088"/>
<circle cx="510.8" cy="807.1" r="2.0" fill="#ffffff" opacity="0.49842658760601943"/>
<circle cx="620.5" cy="42.6" r="2.7" fill="#ffffff" opacity="0.4438511645759873"/>
<circle cx="182.4" cy="960.1" r="3.3" fill="#ffffff" opacity="0.26813885241953705"/>
<circle cx="231.9" cy="128.6" r="4.3" fill="#ffffff" opacity="0.28535220558237284"/>
<circle cx="299.2" cy="451.7" r="1.6" fill="#ffffff" opacity="0.5665483266538809"/>
<circle cx="364.3" cy="1100.1" r="2.5" fill="#ffffff" opacity="0.6143791456503637"/>
<circle cx="666.2" cy="624.0" r="3.8" fill="#ffffff" opacity="0.4310141773614176"/>
<circle cx="119.3" cy="423.9" r="3.8" fill="#ffffff" opacity="0.7617736268711888"/>
<circle cx="98.6" cy="497.9" r="3.8" fill="#ffffff" opacity="0.6803012507701871"/>
<circle cx="184.9" cy="416.5" r="3.4" fill="#ffffff" opacity="0.549846688222194"/>
<circle cx="128.2" cy="682.2" r="3.4" fill="#ffffff" opacity="0.4785678167010772"/>
<circle cx="385.1" cy="815.3" r="3.0" fill="#ffffff" opacity="0.8383132833932381"/>
<circle cx="622.2" cy="330.1" r="4.7" fill="#ffffff" opacity="0.6083141960784176"/>
<circle cx="556.8" cy="1193.5" r="4.6" fill="#ffffff" opacity="0.8060319896102264"/>
<circle cx="632.8" cy="58.4" r="3.2" fill="#ffffff" opacity="0.8234646268395192"/>
<circle cx="415.6" cy="521.0" r="3.3" fill="#ffffff" opacity="0.7601481900191157"/>
<circle cx="493.6" cy="550.1" r="2.6" fill="#ffffff" opacity="0.3698290464305518"/>
<circle cx="420.5" cy="621.3" r="4.2" fill="#ffffff" opacity="0.45182864896009856"/>
<circle cx="56.5" cy="201.4" r="2.6" fill="#ffffff" opacity="0.45187890649942875"/>
<circle cx="527.1" cy="206.7" r="2.3" fill="#ffffff" opacity="0.4074179983885038"/>
<circle cx="582.1" cy="1020.6" r="4.1" fill="#ffffff" opacity="0.5490913234926842"/>
<circle cx="115.2" cy="500.5" r="2.2" fill="#ffffff" opacity="0.7024653484685759"/>
<circle cx="482.8" cy="324.4" r="2.2" fill="#ffffff" opacity="0.3096485119732753"/>
<circle cx="248.8" cy="500.5" r="2.3" fill="#ffffff" opacity="0.5031843291384528"/>
<circle cx="81.7" cy="158.7" r="2.6" fill="#ffffff" opacity="0.5828250892704123"/>
<circle cx="370.9" cy="592.4" r="1.6" fill="#ffffff" opacity="0.2546586001898169"/>
<circle cx="550.1" cy="742.2" r="2.4" fill="#ffffff" opacity="0.5933850329345045"/>
<g filter="url(#paper)"><rect x="42" y="42" width="666" height="1166" rx="54" ry="54" fill="none" stroke="#1E1B2E" stroke-width="8" opacity="0.95"/>
<rect x="60" y="60" width="630" height="1130" rx="46" ry="46" fill="none" stroke="#FF8FAB" stroke-width="3" opacity="0.35"/>

  <g opacity="0.42">
    <circle cx="375.0" cy="560" r="285" fill="none" stroke="#FF8FAB" stroke-width="4.2" opacity="0.42"/>
    <circle cx="375.0" cy="560" r="233.7" fill="none" stroke="#FF8FAB" stroke-width="2.2" opacity="0.23"/>
    <line x1="642.0" y1="560.0" x2="674.0" y2="560.0" stroke="#FF8FAB" stroke-width="3.2" opacity="0.23" stroke-linecap="round"/><line x1="606.2" y1="693.5" x2="633.9" y2="709.5" stroke="#FF8FAB" stroke-width="3.2" opacity="0.23" stroke-linecap="round"/><line x1="508.5" y1="791.2" x2="524.5" y2="818.9" stroke="#FF8FAB" stroke-width="3.2" opacity="0.23" stroke-linecap="round"/><line x1="375.0" y1="827.0" x2="375.0" y2="859.0" stroke="#FF8FAB" stroke-width="3.2" opacity="0.23" stroke-linecap="round"/><line x1="241.5" y1="791.2" x2="225.5" y2="818.9" stroke="#FF8FAB" stroke-width="3.2" opacity="0.23" stroke-linecap="round"/><line x1="143.8" y1="693.5" x2="116.1" y2="709.5" stroke="#FF8FAB" stroke-width="3.2" opacity="0.23" stroke-linecap="round"/><line x1="108.0" y1="560.0" x2="76.0" y2="560.0" stroke="#FF8FAB" stroke-width="3.2" opacity="0.23" stroke-linecap="round"/><line x1="143.8" y1="426.5" x2="116.1" y2="410.5" stroke="#FF8FAB" stroke-width="3.2" opacity="0.23" stroke-linecap="round"/><line x1="241.5" y1="328.8" x2="225.5" y2="301.1" stroke="#FF8FAB" stroke-width="3.2" opacity="0.23" stroke-linecap="round"/><line x1="375.0" y1="293.0" x2="375.0" y2="261.0" stroke="#FF8FAB" stroke-width="3.2" opacity="0.23" stroke-linecap="round"/><line x1="508.5" y1="328.8" x2="524.5" y2="301.1" stroke="#FF8FAB" stroke-width="3.2" opacity="0.23" stroke-linecap="round"/><line x1="606.2" y1="426.5" x2="633.9" y2="410.5" stroke="#FF8FAB" stroke-width="3.2" opacity="0.23" stroke-linecap="round"/>
    <circle cx="659.9" cy="554.5" r="4.0" fill="#FF8FAB" opacity="0.21"/><circle cx="651.4" cy="629.3" r="3.9" fill="#FF8FAB" opacity="0.37"/><circle cx="623.8" cy="699.1" r="3.1" fill="#FF8FAB" opacity="0.25"/><circle cx="569.7" cy="768.1" r="3.1" fill="#FF8FAB" opacity="0.30"/><circle cx="516.3" cy="807.5" r="4.0" fill="#FF8FAB" opacity="0.35"/><circle cx="444.7" cy="836.3" r="3.8" fill="#FF8FAB" opacity="0.45"/><circle cx="377.4" cy="845.0" r="3.4" fill="#FF8FAB" opacity="0.23"/><circle cx="294.4" cy="833.4" r="3.5" fill="#FF8FAB" opacity="0.22"/><circle cx="225.3" cy="802.5" r="2.6" fill="#FF8FAB" opacity="0.32"/><circle cx="176.2" cy="764.2" r="2.8" fill="#FF8FAB" opacity="0.28"/><circle cx="125.7" cy="698.1" r="3.7" fill="#FF8FAB" opacity="0.41"/><circle cx="99.2" cy="631.9" r="3.4" fill="#FF8FAB" opacity="0.27"/><circle cx="90.0" cy="558.3" r="3.1" fill="#FF8FAB" opacity="0.39"/><circle cx="100.8" cy="482.2" r="3.7" fill="#FF8FAB" opacity="0.21"/><circle cx="133.1" cy="409.4" r="3.4" fill="#FF8FAB" opacity="0.25"/><circle cx="179.4" cy="352.7" r="3.2" fill="#FF8FAB" opacity="0.21"/><circle cx="224.8" cy="317.8" r="2.8" fill="#FF8FAB" opacity="0.25"/><circle cx="310.1" cy="282.5" r="3.4" fill="#FF8FAB" opacity="0.23"/><circle cx="383.0" cy="275.1" r="2.9" fill="#FF8FAB" opacity="0.42"/><circle cx="452.7" cy="285.8" r="3.7" fill="#FF8FAB" opacity="0.27"/><circle cx="514.6" cy="311.5" r="3.9" fill="#FF8FAB" opacity="0.25"/><circle cx="575.0" cy="357.0" r="2.9" fill="#FF8FAB" opacity="0.24"/><circle cx="626.5" cy="425.8" r="3.4" fill="#FF8FAB" opacity="0.30"/><circle cx="652.2" cy="494.0" r="2.7" fill="#FF8FAB" opacity="0.35"/>
  </g>

<g><g transform="translate(50,54)"><path d="M 14.4 117.0 C 54.0 14.4, 126.0 14.4, 165.6 117.0" fill="none" stroke="#FF8FAB" stroke-width="6" opacity="0.55" stroke-linecap="round"/></g><g transform="translate(700,54) scale(-1,1)"><path d="M 14.4 117.0 C 54.0 14.4, 126.0 14.4, 165.6 117.0" fill="none" stroke="#FF8FAB" stroke-width="6" opacity="0.55" stroke-linecap="round"/></g><g transform="translate(50,1196) scale(1,-1)"><path d="M 14.4 117.0 C 54.0 14.4, 126.0 14.4, 165.6 117.0" fill="none" stroke="#FF8FAB" stroke-width="6" opacity="0.55" stroke-linecap="round"/></g><g transform="translate(700,1196) scale(-1,-1)"><path d="M 14.4 117.0 C 54.0 14.4, 126.0 14.4, 165.6 117.0" fill="none" stroke="#FF8FAB" stroke-width="6" opacity="0.55" stroke-linecap="round"/></g></g></g>
<rect x="42" y="60" width="666" height="92" rx="30" fill="#ffffffcc" stroke="#1E1B2E" stroke-width="4" opacity="0.95"/>
<text x="375.0" y="122" font-family="ui-sans-serif, system-ui, -apple-system, Segoe UI, Roboto, Helvetica, Arial" font-size="30" font-weight="800" text-anchor="middle" fill="#1E1B2E" opacity="0.95" letter-spacing="1">MINOR ARCANA • WANDS</text>
<rect x="76" y="170" width="598" height="760" rx="52" fill="#ffffff" opacity="0.15"/>
<g><path d="M 112.0 880 C 152.0 690 82.0 450 142.0 230" fill="none" stroke="#FF8FAB" stroke-width="4" opacity="0.10" stroke-linecap="round"/><circle cx="132.0" cy="450.0" r="9" fill="#FF8FAB" opacity="0.08"/><path d="M 202.0 880 C 242.0 690 172.0 450 232.0 230" fill="none" stroke="#FF8FAB" stroke-width="4" opacity="0.10" stroke-linecap="round"/><circle cx="222.0" cy="450.0" r="9" fill="#FF8FAB" opacity="0.08"/><path d="M 292.0 880 C 332.0 690 262.0 450 322.0 230" fill="none" stroke="#FF8FAB" stroke-width="4" opacity="0.10" stroke-linecap="round"/><circle cx="312.0" cy="450.0" r="9" fill="#FF8FAB" opacity="0.08"/><path d="M 382.0 880 C 422.0 690 352.0 450 412.0 230" fill="none" stroke="#FF8FAB" stroke-width="4" opacity="0.10" stroke-linecap="round"/><circle cx="402.0" cy="450.0" r="9" fill="#FF8FAB" opacity="0.08"/><path d="M 472.0 880 C 512.0 690 442.0 450 502.0 230" fill="none" stroke="#FF8FAB" stroke-width="4" opacity="0.10" stroke-linecap="round"/><circle cx="492.0" cy="450.0" r="9" fill="#FF8FAB" opacity="0.08"/><path d="M 562.0 880 C 602.0 690 532.0 450 592.0 230" fill="none" stroke="#FF8FAB" stroke-width="4" opacity="0.10" stroke-linecap="round"/><circle cx="582.0" cy="450.0" r="9" fill="#FF8FAB" opacity="0.08"/><path d="M 652.0 880 C 692.0 690 622.0 450 682.0 230" fill="none" stroke="#FF8FAB" stroke-width="4" opacity="0.10" stroke-linecap="round"/><circle cx="672.0" cy="450.0" r="9" fill="#FF8FAB" opacity="0.08"/></g><g><g opacity="0.55">
        <g>
          <line x1="346.0" y1="429.3" x2="427.2" y2="391.4" stroke="#1E1B2E" stroke-width="3.9" stroke-linecap="round"/>
          <line x1="346.0" y1="429.3" x2="427.2" y2="391.4" stroke="#FF8FAB" stroke-width="1.7" stroke-linecap="round" opacity="0.55"/>
          
        <polygon points="427.2,391.4 392.6,383.3 377.4,414.6 411.2,423.2"
                 fill="#ffffff" stroke="#1E1B2E" stroke-width="5" opacity="0.92"/>
        
          <circle cx="346.0" cy="429.3" r="3.9" fill="#fff" stroke="#1E1B2E" stroke-width="5" opacity="0.9"/>
        </g>
        </g><g opacity="0.55">
        <g>
          <line x1="514.4" y1="530.8" x2="595.6" y2="492.9" stroke="#1E1B2E" stroke-width="3.9" stroke-linecap="round"/>
          <line x1="514.4" y1="530.8" x2="595.6" y2="492.9" stroke="#FF8FAB" stroke-width="1.7" stroke-linecap="round" opacity="0.55"/>
          
        <polygon points="595.6,492.9 560.9,484.8 545.8,516.1 579.5,524.7"
                 fill="#ffffff" stroke="#1E1B2E" stroke-width="5" opacity="0.92"/>
        
          <circle cx="514.4" cy="530.8" r="3.9" fill="#fff" stroke="#1E1B2E" stroke-width="5" opacity="0.9"/>
        </g>
        </g><g opacity="0.55">
        <g>
          <line x1="504.3" y1="762.4" x2="585.5" y2="724.5" stroke="#1E1B2E" stroke-width="3.9" stroke-linecap="round"/>
          <line x1="504.3" y1="762.4" x2="585.5" y2="724.5" stroke="#FF8FAB" stroke-width="1.7" stroke-linecap="round" opacity="0.55"/>
          
        <polygon points="585.5,724.5 550.8,716.4 535.7,747.7 569.4,756.3"
                 fill="#ffffff" stroke="#1E1B2E" stroke-width="5" opacity="0.92"/>
        
          <circle cx="504.3" cy="762.4" r="3.9" fill="#fff" stroke="#1E1B2E" stroke-width="5" opacity="0.9"/>
        </g>
        </g><g opacity="0.55">
        <g>
          <line x1="331.9" y1="848.9" x2="413.1" y2="811.1" stroke="#1E1B2E" stroke-width="3.9" stroke-linecap="round"/>
          <line x1="331.9" y1="848.9" x2="413.1" y2="811.1" stroke="#FF8FAB" stroke-width="1.7" stroke-linecap="round" opacity="0.55"/>
          
        <polygon points="413.1,811.1 378.4,802.9 363.2,834.3 397.0,842.8"
                 fill="#ffffff" stroke="#1E1B2E" stroke-width="5" opacity="0.92"/>
        
          <circle cx="331.9" cy="848.9" r="3.9" fill="#fff" stroke="#1E1B2E" stroke-width="5" opacity="0.9"/>
        </g>
        </g><g opacity="0.55">
        <g>
          <line x1="151.1" y1="741.5" x2="232.3" y2="703.6" stroke="#1E1B2E" stroke-width="3.9" stroke-linecap="round"/>
          <line x1="151.1" y1="741.5" x2="232.3" y2="703.6" stroke="#FF8FAB" stroke-width="1.7" stroke-linecap="round" opacity="0.55"/>
          
        <polygon points="232.3,703.6 197.7,695.5 182.5,726.9 216.3,735.4"
                 fill="#ffffff" stroke="#1E1B2E" stroke-width="5" opacity="0.92"/>
        
          <circle cx="151.1" cy="741.5" r="3.9" fill="#fff" stroke="#1E1B2E" stroke-width="5" opacity="0.9"/>
        </g>
        </g><g opacity="0.55">
        <g>
          <line x1="153.1" y1="533.0" x2="234.3" y2="495.2" stroke="#1E1B2E" stroke-width="3.9" stroke-linecap="round"/>
          <line x1="153.1" y1="533.0" x2="234.3" y2="495.2" stroke="#FF8FAB" stroke-width="1.7" stroke-linecap="round" opacity="0.55"/>
          
        <polygon points="234.3,495.2 199.6,487.0 184.4,518.4 218.2,526.9"
                 fill="#ffffff" stroke="#1E1B2E" stroke-width="5" opacity="0.92"/>
        
          <circle cx="153.1" cy="533.0" r="3.9" fill="#fff" stroke="#1E1B2E" stroke-width="5" opacity="0.9"/>
        </g>
        </g></g><line x1="200.3" y1="290.4" x2="200.3" y2="275.9" stroke="#ffffff" stroke-width="2.2" opacity="0.13"/>
<line x1="200.3" y1="275.9" x2="342.3" y2="558.9" stroke="#ffffff" stroke-width="2.2" opacity="0.10"/>
<line x1="342.3" y1="558.9" x2="204.3" y2="483.3" stroke="#ffffff" stroke-width="2.2" opacity="0.09"/>
<line x1="204.3" y1="483.3" x2="185.5" y2="537.5" stroke="#ffffff" stroke-width="2.2" opacity="0.18"/>
<line x1="185.5" y1="537.5" x2="456.1" y2="493.0" stroke="#ffffff" stroke-width="2.2" opacity="0.20"/>
<line x1="456.1" y1="493.0" x2="231.4" y2="394.5" stroke="#ffffff" stroke-width="2.2" opacity="0.14"/>
<line x1="231.4" y1="394.5" x2="191.6" y2="438.2" stroke="#ffffff" stroke-width="2.2" opacity="0.08"/>
<circle cx="283.8" cy="408.0" r="1.9" fill="#ffffff" opacity="0.25965171490172945"/>
<circle cx="200.3" cy="275.9" r="1.7" fill="#ffffff" opacity="0.39481881650317685"/>
<circle cx="186.6" cy="317.7" r="4.2" fill="#ffffff" opacity="0.7467944393119356"/>
<circle cx="200.3" cy="290.4" r="1.6" fill="#ffffff" opacity="0.38471030102122716"/>
<circle cx="231.4" cy="394.5" r="3.1" fill="#ffffff" opacity="0.5971951221458478"/>
<circle cx="185.5" cy="537.5" r="3.8" fill="#ffffff" opacity="0.5623046390447123"/>
<circle cx="342.3" cy="558.9" r="1.9" fill="#ffffff" opacity="0.6800465357355607"/>
<circle cx="204.3" cy="483.3" r="3.9" fill="#ffffff" opacity="0.7289655803316845"/>
<circle cx="191.6" cy="438.2" r="4.6" fill="#ffffff" opacity="0.8492566386175965"/>
<circle cx="532.8" cy="300.0" r="3.5" fill="#ffffff" opacity="0.2598139848406176"/>
<circle cx="411.0" cy="561.2" r="4.4" fill="#ffffff" opacity="0.7784706149794784"/>
<circle cx="533.8" cy="439.3" r="2.2" fill="#ffffff" opacity="0.8479751426775687"/>
<circle cx="246.9" cy="526.4" r="2.3" fill="#ffffff" opacity="0.7220580196989825"/>
<circle cx="365.8" cy="392.1" r="3.0" fill="#ffffff" opacity="0.38541178787789865"/>
<circle cx="150.3" cy="446.1" r="1.9" fill="#ffffff" opacity="0.3736373066844547"/>
<circle cx="456.1" cy="493.0" r="3.7" fill="#ffffff" opacity="0.5172509931155547"/>
<circle cx="132.2" cy="356.5" r="4.7" fill="#ffffff" opacity="0.6426524455197341"/>
<circle cx="325.9" cy="547.9" r="2.4" fill="#ffffff" opacity="0.5763191696545282"/>
        <g filter="url(#glow)">
          <circle cx="375.0" cy="630" r="170" fill="#ffffff" opacity="0.40" stroke="#FF8FAB" stroke-width="7"/>
          
        <g>
          <line x1="270.6" y1="678.7" x2="479.4" y2="581.3" stroke="#1E1B2E" stroke-width="10.1" stroke-linecap="round"/>
          <line x1="270.6" y1="678.7" x2="479.4" y2="581.3" stroke="#FF8FAB" stroke-width="4.3" stroke-linecap="round" opacity="0.55"/>
          
        <polygon points="479.4,581.3 444.7,573.2 429.6,604.6 463.3,613.1"
                 fill="#ffffff" stroke="#1E1B2E" stroke-width="5" opacity="0.92"/>
        
          <circle cx="270.6" cy="678.7" r="10.1" fill="#fff" stroke="#1E1B2E" stroke-width="5" opacity="0.9"/>
        </g>
        
        </g>
        <line x1="451.3" y1="339.2" x2="590.9" y2="254.3" stroke="#ffffff" stroke-width="2.2" opacity="0.11"/>
<line x1="590.9" y1="254.3" x2="198.8" y2="550.4" stroke="#ffffff" stroke-width="2.2" opacity="0.08"/>
<line x1="198.8" y1="550.4" x2="452.7" y2="619.9" stroke="#ffffff" stroke-width="2.2" opacity="0.13"/>
<line x1="452.7" y1="619.9" x2="567.3" y2="492.7" stroke="#ffffff" stroke-width="2.2" opacity="0.11"/>
<line x1="567.3" y1="492.7" x2="261.8" y2="396.7" stroke="#ffffff" stroke-width="2.2" opacity="0.11"/>
<line x1="261.8" y1="396.7" x2="532.3" y2="371.2" stroke="#ffffff" stroke-width="2.2" opacity="0.21"/>
<circle cx="234.1" cy="499.9" r="2.9" fill="#ffffff" opacity="0.5532676204844742"/>
<circle cx="373.4" cy="663.4" r="4.2" fill="#ffffff" opacity="0.5917315073099085"/>
<circle cx="452.7" cy="619.9" r="3.2" fill="#ffffff" opacity="0.5083785335847395"/>
<circle cx="532.3" cy="371.2" r="3.6" fill="#ffffff" opacity="0.46659112110001777"/>
<circle cx="567.3" cy="492.7" r="4.4" fill="#ffffff" opacity="0.7358236799638049"/>
<circle cx="307.1" cy="238.6" r="3.4" fill="#ffffff" opacity="0.36713782272379764"/>
<circle cx="137.9" cy="511.9" r="4.7" fill="#ffffff" opacity="0.4041929531179034"/>
<circle cx="590.9" cy="254.3" r="2.2" fill="#ffffff" opacity="0.2807190597339909"/>
<circle cx="198.8" cy="550.4" r="2.7" fill="#ffffff" opacity="0.2680547689841625"/>
<circle cx="261.8" cy="396.7" r="3.0" fill="#ffffff" opacity="0.4006043799543809"/>
<circle cx="212.3" cy="458.5" r="2.2" fill="#ffffff" opacity="0.7078873792978653"/>
<circle cx="159.2" cy="230.4" r="1.8" fill="#ffffff" opacity="0.707054688803413"/>
<circle cx="451.3" cy="339.2" r="2.1" fill="#ffffff" opacity="0.7601264448479739"/>
<circle cx="353.4" cy="282.7" r="4.5" fill="#ffffff" opacity="0.7089790284412005"/>
<rect x="42" y="1030" width="666" height="160" rx="30" fill="#ffffffd9" stroke="#1E1B2E" stroke-width="4" opacity="0.95"/>
<text x="375.0" y="1104" font-family="ui-sans-serif, system-ui, -apple-system, Segoe UI, Roboto, Helvetica, Arial" font-size="46" font-weight="900" text-anchor="middle" fill="#1E1B2E" opacity="0.98">6 of Wands</text>
<text x="375.0" y="1152" font-family="ui-sans-serif, system-ui, -apple-system, Segoe UI, Roboto, Helvetica, Arial" font-size="28" font-weight="700" text-anchor="middle" fill="#1E1B2E" opacity="0.7">Support</text>

    <g opacity="0.55">
      <circle cx="127" cy="1176" r="14" fill="#FF8FAB"/>
      <circle cx="623" cy="1176" r="14" fill="#FF8FAB"/>
      <path d="M 162 1176 L 588 1176" stroke="#FF8FAB" stroke-width="4" opacity="0.45" stroke-linecap="round"/>
    </g>
    
</svg>
