<svg xmlns="http://www.w3.org/2000/svg" width="750" height="1250" viewBox="0 0 750 1250">
  <title>7 of Wands</title>


  <defs>
    <linearGradient id="g" x1="0" y1="0" x2="1" y2="1">
      <stop offset="0%" stop-color="#FFF6E5"/>
      <stop offset="100%" stop-color="#E5FFF6"/>
    </linearGradient>

    <!-- paper texture -->
    <filter id="paper" x="-20%" y="-20%" width="140%" height="140%">
      <feTurbulence type="fractalNoise" baseFrequency="0.017" numOctaves="3" seed="4088" result="noise"/>
      <feColorMatrix in="noise" type="matrix"
        values="1 0 0 0 0
                0 1 0 0 0
                0 0 1 0 0
                0 0 0 0.25 0" result="noiseAlpha"/>
      <feComposite in="noiseAlpha" in2="SourceGraphic" operator="over"/>
    </filter>

    <!-- soft glow -->
    <filter id="glow" x="-30%" y="-30%" width="160%" height="160%">
      <feGaussianBlur stdDeviation="10" result="blur"/>
      <feColorMatrix type="matrix" values="
        1 0 0 0 0
        0 1 0 0 0
        0 0 1 0 0
        0 0 0 0.32 0" result="blurAlpha"/>
      <feMerge>
        <feMergeNode in="blurAlpha"/>
        <feMergeNode in="SourceGraphic"/>
      </feMerge>
    </filter>
  </defs>

<rect x="0" y="0" width="750" height="1250" rx="58" ry="58" fill="url(#g)" stroke="none" stroke-width="0" opacity="1"/>
<rect x="0" y="0" width="750" height="1250" fill="#ffffff" opacity="0.08"/>
<line x1="107.3" y1="924.9" x2="475.2" y2="481.3" stroke="#ffffff" stroke-width="2.2" opacity="0.16"/>
<line x1="475.2" y1="481.3" x2="181.4" y2="450.4" stroke="#ffffff" stroke-width="2.2" opacity="0.10"/>
<line x1="181.4" y1="450.4" x2="494.8" y2="242.4" stroke="#ffffff" stroke-width="2.2" opacity="0.14"/>
<line x1="494.8" y1="242.4" x2="700.6" y2="1090.2" stroke="#ffffff" stroke-width="2.2" opacity="0.17"/>
<line x1="700.6" y1="1090.2" x2="122.7" y2="418.7" stroke="#ffffff" stroke-width="2.2" opacity="0.14"/>
<line x1="122.7" y1="418.7" x2="399.1" y2="1083.2" stroke="#ffffff" stroke-width="2.2" opacity="0.12"/>
<line x1="399.1" y1="1083.2" x2="704.0" y2="991.6" stroke="#ffffff" stroke-width="2.2" opacity="0.19"/>
<line x1="704.0" y1="991.6" x2="533.0" y2="291.0" stroke="#ffffff" stroke-width="2.2" opacity="0.15"/>
<line x1="533.0" y1="291.0" x2="523.8" y2="465.8" stroke="#ffffff" stroke-width="2.2" opacity="0.20"/>
<line x1="523.8" y1="465.8" x2="664.1" y2="1040.2" stroke="#ffffff" stroke-width="2.2" opacity="0.11"/>
<line x1="664.1" y1="1040.2" x2="382.3" y2="105.7" stroke="#ffffff" stroke-width="2.2" opacity="0.13"/>
<line x1="382.3" y1="105.7" x2="66.7" y2="1040.1" stroke="#ffffff" stroke-width="2.2" opacity="0.10"/>
<line x1="66.7" y1="1040.1" x2="698.5" y2="1125.4" stroke="#ffffff" stroke-width="2.2" opacity="0.10"/>
<line x1="698.5" y1="1125.4" x2="298.1" y2="814.4" stroke="#ffffff" stroke-width="2.2" opacity="0.17"/>
<line x1="298.1" y1="814.4" x2="535.7" y2="75.8" stroke="#ffffff" stroke-width="2.2" opacity="0.09"/>
<line x1="535.7" y1="75.8" x2="580.9" y2="182.7" stroke="#ffffff" stroke-width="2.2" opacity="0.16"/>
<line x1="580.9" y1="182.7" x2="337.0" y2="684.8" stroke="#ffffff" stroke-width="2.2" opacity="0.19"/>
<line x1="337.0" y1="684.8" x2="138.5" y2="192.9" stroke="#ffffff" stroke-width="2.2" opacity="0.11"/>
<circle cx="122.7" cy="418.7" r="3.3" fill="#ffffff" opacity="0.6671147036801715"/>
<circle cx="337.0" cy="684.8" r="3.0" fill="#ffffff" opacity="0.5421183019036184"/>
<circle cx="673.1" cy="112.6" r="3.5" fill="#ffffff" opacity="0.5304654377141897"/>
<circle cx="237.5" cy="581.7" r="3.3" fill="#ffffff" opacity="0.5850372286575067"/>
<circle cx="475.2" cy="481.3" r="3.8" fill="#ffffff" opacity="0.4123514071993447"/>
<circle cx="101.4" cy="1062.0" r="3.8" fill="#ffffff" opacity="0.3889601318776361"/>
<circle cx="141.1" cy="598.7" r="1.9" fill="#ffffff" opacity="0.5219517999389442"/>
<circle cx="152.0" cy="868.1" r="2.4" fill="#ffffff" opacity="0.40573739154517474"/>
<circle cx="130.1" cy="651.9" r="4.2" fill="#ffffff" opacity="0.7006650721991872"/>
<circle cx="66.7" cy="1040.1" r="2.7" fill="#ffffff" opacity="0.39046578693131245"/>
<circle cx="418.4" cy="170.6" r="1.7" fill="#ffffff" opacity="0.4196648418565454"/>
<circle cx="399.1" cy="1083.2" r="2.7" fill="#ffffff" opacity="0.4269101214977339"/>
<circle cx="366.8" cy="670.3" r="1.6" fill="#ffffff" opacity="0.29596590544731477"/>
<circle cx="704.0" cy="991.6" r="1.6" fill="#ffffff" opacity="0.26945880106017683"/>
<circle cx="351.9" cy="985.5" r="4.1" fill="#ffffff" opacity="0.8208787528467296"/>
<circle cx="310.1" cy="101.1" r="2.1" fill="#ffffff" opacity="0.4402072829874454"/>
<circle cx="178.2" cy="1001.0" r="3.3" fill="#ffffff" opacity="0.37064345800336274"/>
<circle cx="473.5" cy="881.4" r="4.0" fill="#ffffff" opacity="0.8356593191625414"/>
<circle cx="494.8" cy="242.4" r="4.5" fill="#ffffff" opacity="0.6099542941258063"/>
<circle cx="153.6" cy="897.7" r="3.7" fill="#ffffff" opacity="0.6813181331268272"/>
<circle cx="291.0" cy="288.6" r="4.2" fill="#ffffff" opacity="0.5955286450564681"/>
<circle cx="131.9" cy="796.4" r="4.6" fill="#ffffff" opacity="0.31760416101631606"/>
<circle cx="138.5" cy="192.9" r="3.3" fill="#ffffff" opacity="0.2866418820026896"/>
<circle cx="475.0" cy="167.1" r="4.8" fill="#ffffff" opacity="0.6200922636364035"/>
<circle cx="384.3" cy="198.0" r="3.0" fill="#ffffff" opacity="0.5072007343983455"/>
<circle cx="240.3" cy="697.5" r="1.8" fill="#ffffff" opacity="0.34388390558673254"/>
<circle cx="68.6" cy="170.0" r="4.6" fill="#ffffff" opacity="0.673814987604795"/>
<circle cx="700.6" cy="1090.2" r="1.7" fill="#ffffff" opacity="0.4886755720999976"/>
<circle cx="678.2" cy="376.9" r="1.8" fill="#ffffff" opacity="0.648049297102371"/>
<circle cx="298.1" cy="814.4" r="2.6" fill="#ffffff" opacity="0.40713452931617866"/>
<circle cx="702.9" cy="410.9" r="1.9" fill="#ffffff" opacity="0.35674321126479597"/>
<circle cx="664.1" cy="1040.2" r="3.7" fill="#ffffff" opacity="0.472767390798425"/>
<circle cx="128.4" cy="308.6" r="3.0" fill="#ffffff" opacity="0.8305434039894485"/>
<circle cx="539.9" cy="1090.2" r="3.7" fill="#ffffff" opacity="0.5290234085693082"/>
<circle cx="181.4" cy="450.4" r="3.1" fill="#ffffff" opacity="0.6751921673256305"/>
<circle cx="698.5" cy="1125.4" r="3.9" fill="#ffffff" opacity="0.5334833031673594"/>
<circle cx="634.5" cy="803.2" r="4.0" fill="#ffffff" opacity="0.2662190121653872"/>
<circle cx="84.0" cy="427.5" r="4.4" fill="#ffffff" opacity="0.6681196894749084"/>
<circle cx="535.7" cy="75.8" r="3.5" fill="#ffffff" opacity="0.36570059274460803"/>
<circle cx="352.0" cy="217.3" r="2.2" fill="#ffffff" opacity="0.8058819676459456"/>
<circle cx="523.8" cy="465.8" r="4.1" fill="#ffffff" opacity="0.811515734734021"/>
<circle cx="382.3" cy="105.7" r="3.7" fill="#ffffff" opacity="0.46159085792776733"/>
<circle cx="350.9" cy="973.8" r="2.6" fill="#ffffff" opacity="0.34481560689594615"/>
<circle cx="533.0" cy="291.0" r="3.5" fill="#ffffff" opacity="0.3862007926396266"/>
<circle cx="290.5" cy="405.6" r="4.2" fill="#ffffff" opacity="0.5751203187178531"/>
<circle cx="588.7" cy="125.6" r="3.8" fill="#ffffff" opacity="0.36003760140645463"/>
<circle cx="107.3" cy="924.9" r="3.6" fill="#ffffff" opacity="0.6106034496555022"/>
<circle cx="580.9" cy="182.7" r="2.8" fill="#ffffff" opacity="0.4493566124358756"/>
<circle cx="251.4" cy="1181.3" r="1.9" fill="#ffffff" opacity="0.2732670790507261"/>
<circle cx="271.0" cy="736.6" r="2.2" fill="#ffffff" opacity="0.7895930335073487"/>
<g filter="url(#paper)"><rect x="42" y="42" width="666" height="1166" rx="54" ry="54" fill="none" stroke="#1E1B2E" stroke-width="8" opacity="0.95"/>
<rect x="60" y="60" width="630" height="1130" rx="46" ry="46" fill="none" stroke="#FF8FAB" stroke-width="3" opacity="0.35"/>

  <g opacity="0.42">
    <circle cx="375.0" cy="560" r="285" fill="none" stroke="#FF8FAB" stroke-width="4.2" opacity="0.42"/>
    <circle cx="375.0" cy="560" r="233.7" fill="none" stroke="#FF8FAB" stroke-width="2.2" opacity="0.23"/>
    <line x1="642.0" y1="560.0" x2="674.0" y2="560.0" stroke="#FF8FAB" stroke-width="3.2" opacity="0.23" stroke-linecap="round"/><line x1="606.2" y1="693.5" x2="633.9" y2="709.5" stroke="#FF8FAB" stroke-width="3.2" opacity="0.23" stroke-linecap="round"/><line x1="508.5" y1="791.2" x2="524.5" y2="818.9" stroke="#FF8FAB" stroke-width="3.2" opacity="0.23" stroke-linecap="round"/><line x1="375.0" y1="827.0" x2="375.0" y2="859.0" stroke="#FF8FAB" stroke-width="3.2" opacity="0.23" stroke-linecap="round"/><line x1="241.5" y1="791.2" x2="225.5" y2="818.9" stroke="#FF8FAB" stroke-width="3.2" opacity="0.23" stroke-linecap="round"/><line x1="143.8" y1="693.5" x2="116.1" y2="709.5" stroke="#FF8FAB" stroke-width="3.2" opacity="0.23" stroke-linecap="round"/><line x1="108.0" y1="560.0" x2="76.0" y2="560.0" stroke="#FF8FAB" stroke-width="3.2" opacity="0.23" stroke-linecap="round"/><line x1="143.8" y1="426.5" x2="116.1" y2="410.5" stroke="#FF8FAB" stroke-width="3.2" opacity="0.23" stroke-linecap="round"/><line x1="241.5" y1="328.8" x2="225.5" y2="301.1" stroke="#FF8FAB" stroke-width="3.2" opacity="0.23" stroke-linecap="round"/><line x1="375.0" y1="293.0" x2="375.0" y2="261.0" stroke="#FF8FAB" stroke-width="3.2" opacity="0.23" stroke-linecap="round"/><line x1="508.5" y1="328.8" x2="524.5" y2="301.1" stroke="#FF8FAB" stroke-width="3.2" opacity="0.23" stroke-linecap="round"/><line x1="606.2" y1="426.5" x2="633.9" y2="410.5" stroke="#FF8FAB" stroke-width="3.2" opacity="0.23" stroke-linecap="round"/>
    <circle cx="659.9" cy="552.7" r="3.8" fill="#FF8FAB" opacity="0.32"/><circle cx="650.7" cy="632.2" r="2.6" fill="#FF8FAB" opacity="0.44"/><circle cx="618.5" cy="708.0" r="2.8" fill="#FF8FAB" opacity="0.27"/><circle cx="579.8" cy="758.2" r="3.9" fill="#FF8FAB" opacity="0.20"/><circle cx="511.6" cy="810.2" r="3.9" fill="#FF8FAB" opacity="0.34"/><circle cx="448.5" cy="835.4" r="3.7" fill="#FF8FAB" opacity="0.41"/><circle cx="378.3" cy="845.0" r="3.8" fill="#FF8FAB" opacity="0.28"/><circle cx="296.7" cy="834.0" r="3.8" fill="#FF8FAB" opacity="0.33"/><circle cx="240.6" cy="811.3" r="3.7" fill="#FF8FAB" opacity="0.38"/><circle cx="176.2" cy="764.2" r="3.7" fill="#FF8FAB" opacity="0.39"/><circle cx="124.5" cy="696.0" r="2.7" fill="#FF8FAB" opacity="0.25"/><circle cx="100.2" cy="635.5" r="2.8" fill="#FF8FAB" opacity="0.34"/><circle cx="90.0" cy="555.2" r="2.8" fill="#FF8FAB" opacity="0.40"/><circle cx="99.8" cy="486.0" r="3.9" fill="#FF8FAB" opacity="0.33"/><circle cx="130.2" cy="414.1" r="2.7" fill="#FF8FAB" opacity="0.21"/><circle cx="179.6" cy="352.5" r="2.7" fill="#FF8FAB" opacity="0.26"/><circle cx="232.4" cy="313.2" r="3.7" fill="#FF8FAB" opacity="0.30"/><circle cx="308.4" cy="282.9" r="3.8" fill="#FF8FAB" opacity="0.41"/><circle cx="383.4" cy="275.1" r="3.1" fill="#FF8FAB" opacity="0.41"/><circle cx="443.2" cy="283.3" r="2.7" fill="#FF8FAB" opacity="0.20"/><circle cx="517.7" cy="313.3" r="2.6" fill="#FF8FAB" opacity="0.22"/><circle cx="581.8" cy="363.9" r="3.3" fill="#FF8FAB" opacity="0.31"/><circle cx="625.9" cy="424.8" r="3.3" fill="#FF8FAB" opacity="0.19"/><circle cx="648.1" cy="478.4" r="3.5" fill="#FF8FAB" opacity="0.31"/>
  </g>

<g><g transform="translate(50,54)"><path d="M 32.4 126.0 C 63.0 54.0, 111.6 32.4, 158.4 39.6" fill="none" stroke="#FF8FAB" stroke-width="6" opacity="0.55" stroke-linecap="round"/></g><g transform="translate(700,54) scale(-1,1)"><path d="M 32.4 126.0 C 63.0 54.0, 111.6 32.4, 158.4 39.6" fill="none" stroke="#FF8FAB" stroke-width="6" opacity="0.55" stroke-linecap="round"/></g><g transform="translate(50,1196) scale(1,-1)"><path d="M 32.4 126.0 C 63.0 54.0, 111.6 32.4, 158.4 39.6" fill="none" stroke="#FF8FAB" stroke-width="6" opacity="0.55" stroke-linecap="round"/></g><g transform="translate(700,1196) scale(-1,-1)"><path d="M 32.4 126.0 C 63.0 54.0, 111.6 32.4, 158.4 39.6" fill="none" stroke="#FF8FAB" stroke-width="6" opacity="0.55" stroke-linecap="round"/></g></g></g>
<rect x="42" y="60" width="666" height="92" rx="30" fill="#ffffffcc" stroke="#1E1B2E" stroke-width="4" opacity="0.95"/>
<text x="375.0" y="122" font-family="ui-sans-serif, system-ui, -apple-system, Segoe UI, Roboto, Helvetica, Arial" font-size="30" font-weight="800" text-anchor="middle" fill="#1E1B2E" opacity="0.95" letter-spacing="1">MINOR ARCANA • WANDS</text>
<rect x="76" y="170" width="598" height="760" rx="52" fill="#ffffff" opacity="0.15"/>
<g><path d="M 112.0 880 C 152.0 690 82.0 450 142.0 230" fill="none" stroke="#FF8FAB" stroke-width="4" opacity="0.10" stroke-linecap="round"/><circle cx="132.0" cy="450.0" r="9" fill="#FF8FAB" opacity="0.08"/><path d="M 202.0 880 C 242.0 690 172.0 450 232.0 230" fill="none" stroke="#FF8FAB" stroke-width="4" opacity="0.10" stroke-linecap="round"/><circle cx="222.0" cy="450.0" r="9" fill="#FF8FAB" opacity="0.08"/><path d="M 292.0 880 C 332.0 690 262.0 450 322.0 230" fill="none" stroke="#FF8FAB" stroke-width="4" opacity="0.10" stroke-linecap="round"/><circle cx="312.0" cy="450.0" r="9" fill="#FF8FAB" opacity="0.08"/><path d="M 382.0 880 C 422.0 690 352.0 450 412.0 230" fill="none" stroke="#FF8FAB" stroke-width="4" opacity="0.10" stroke-linecap="round"/><circle cx="402.0" cy="450.0" r="9" fill="#FF8FAB" opacity="0.08"/><path d="M 472.0 880 C 512.0 690 442.0 450 502.0 230" fill="none" stroke="#FF8FAB" stroke-width="4" opacity="0.10" stroke-linecap="round"/><circle cx="492.0" cy="450.0" r="9" fill="#FF8FAB" opacity="0.08"/><path d="M 562.0 880 C 602.0 690 532.0 450 592.0 230" fill="none" stroke="#FF8FAB" stroke-width="4" opacity="0.10" stroke-linecap="round"/><circle cx="582.0" cy="450.0" r="9" fill="#FF8FAB" opacity="0.08"/><path d="M 652.0 880 C 692.0 690 622.0 450 682.0 230" fill="none" stroke="#FF8FAB" stroke-width="4" opacity="0.10" stroke-linecap="round"/><circle cx="672.0" cy="450.0" r="9" fill="#FF8FAB" opacity="0.08"/></g><g><g opacity="0.55">
        <g>
          <line x1="337.5" y1="419.0" x2="418.7" y2="381.1" stroke="#1E1B2E" stroke-width="3.9" stroke-linecap="round"/>
          <line x1="337.5" y1="419.0" x2="418.7" y2="381.1" stroke="#FF8FAB" stroke-width="1.7" stroke-linecap="round" opacity="0.55"/>
          
        <polygon points="418.7,381.1 384.0,373.0 368.8,404.3 402.6,412.9"
                 fill="#ffffff" stroke="#1E1B2E" stroke-width="5" opacity="0.92"/>
        
          <circle cx="337.5" cy="419.0" r="3.9" fill="#fff" stroke="#1E1B2E" stroke-width="5" opacity="0.9"/>
        </g>
        </g><g opacity="0.55">
        <g>
          <line x1="541.8" y1="529.3" x2="623.0" y2="491.5" stroke="#1E1B2E" stroke-width="3.9" stroke-linecap="round"/>
          <line x1="541.8" y1="529.3" x2="623.0" y2="491.5" stroke="#FF8FAB" stroke-width="1.7" stroke-linecap="round" opacity="0.55"/>
          
        <polygon points="623.0,491.5 588.3,483.3 573.1,514.7 606.9,523.2"
                 fill="#ffffff" stroke="#1E1B2E" stroke-width="5" opacity="0.92"/>
        
          <circle cx="541.8" cy="529.3" r="3.9" fill="#fff" stroke="#1E1B2E" stroke-width="5" opacity="0.9"/>
        </g>
        </g><g opacity="0.55">
        <g>
          <line x1="573.1" y1="743.2" x2="654.3" y2="705.3" stroke="#1E1B2E" stroke-width="3.9" stroke-linecap="round"/>
          <line x1="573.1" y1="743.2" x2="654.3" y2="705.3" stroke="#FF8FAB" stroke-width="1.7" stroke-linecap="round" opacity="0.55"/>
          
        <polygon points="654.3,705.3 619.6,697.2 604.5,728.6 638.2,737.1"
                 fill="#ffffff" stroke="#1E1B2E" stroke-width="5" opacity="0.92"/>
        
          <circle cx="573.1" cy="743.2" r="3.9" fill="#fff" stroke="#1E1B2E" stroke-width="5" opacity="0.9"/>
        </g>
        </g><g opacity="0.55">
        <g>
          <line x1="430.2" y1="899.9" x2="511.4" y2="862.0" stroke="#1E1B2E" stroke-width="3.9" stroke-linecap="round"/>
          <line x1="430.2" y1="899.9" x2="511.4" y2="862.0" stroke="#FF8FAB" stroke-width="1.7" stroke-linecap="round" opacity="0.55"/>
          
        <polygon points="511.4,862.0 476.7,853.9 461.5,885.2 495.3,893.8"
                 fill="#ffffff" stroke="#1E1B2E" stroke-width="5" opacity="0.92"/>
        
          <circle cx="430.2" cy="899.9" r="3.9" fill="#fff" stroke="#1E1B2E" stroke-width="5" opacity="0.9"/>
        </g>
        </g><g opacity="0.55">
        <g>
          <line x1="207.2" y1="884.1" x2="288.4" y2="846.3" stroke="#1E1B2E" stroke-width="3.9" stroke-linecap="round"/>
          <line x1="207.2" y1="884.1" x2="288.4" y2="846.3" stroke="#FF8FAB" stroke-width="1.7" stroke-linecap="round" opacity="0.55"/>
          
        <polygon points="288.4,846.3 253.7,838.2 238.5,869.5 272.3,878.0"
                 fill="#ffffff" stroke="#1E1B2E" stroke-width="5" opacity="0.92"/>
        
          <circle cx="207.2" cy="884.1" r="3.9" fill="#fff" stroke="#1E1B2E" stroke-width="5" opacity="0.9"/>
        </g>
        </g><g opacity="0.55">
        <g>
          <line x1="91.5" y1="727.9" x2="172.7" y2="690.0" stroke="#1E1B2E" stroke-width="3.9" stroke-linecap="round"/>
          <line x1="91.5" y1="727.9" x2="172.7" y2="690.0" stroke="#FF8FAB" stroke-width="1.7" stroke-linecap="round" opacity="0.55"/>
          
        <polygon points="172.7,690.0 138.0,681.9 122.8,713.3 156.6,721.8"
                 fill="#ffffff" stroke="#1E1B2E" stroke-width="5" opacity="0.92"/>
        
          <circle cx="91.5" cy="727.9" r="3.9" fill="#fff" stroke="#1E1B2E" stroke-width="5" opacity="0.9"/>
        </g>
        </g><g opacity="0.55">
        <g>
          <line x1="131.8" y1="522.5" x2="213.0" y2="484.6" stroke="#1E1B2E" stroke-width="3.9" stroke-linecap="round"/>
          <line x1="131.8" y1="522.5" x2="213.0" y2="484.6" stroke="#FF8FAB" stroke-width="1.7" stroke-linecap="round" opacity="0.55"/>
          
        <polygon points="213.0,484.6 178.3,476.5 163.1,507.9 196.9,516.4"
                 fill="#ffffff" stroke="#1E1B2E" stroke-width="5" opacity="0.92"/>
        
          <circle cx="131.8" cy="522.5" r="3.9" fill="#fff" stroke="#1E1B2E" stroke-width="5" opacity="0.9"/>
        </g>
        </g></g><path d="M 389.0 466.7 Q 387.0 547.9 447.3 583.8 Q 385.8 637.3 471.5 631.6 Q 342.6 629.4 294.6 650.3 Q 371.3 583.7 222.3 463.4 Q 363.9 637.7 327.1 758.8 Q 363.3 560.3 325.9 512.1 Q 312.8 570.6 342.0 662.4 Q 424.9 542.4 470.3 610.9 Q 367.3 648.7 255.5 615.2 " fill="none" stroke="#FF8FAB" stroke-width="5.5" opacity="0.47" stroke-linecap="round" stroke-linejoin="round"/>
        <g filter="url(#glow)">
          <circle cx="375.0" cy="630" r="170" fill="#ffffff" opacity="0.40" stroke="#FF8FAB" stroke-width="7"/>
          
        <g>
          <line x1="270.6" y1="678.7" x2="479.4" y2="581.3" stroke="#1E1B2E" stroke-width="10.1" stroke-linecap="round"/>
          <line x1="270.6" y1="678.7" x2="479.4" y2="581.3" stroke="#FF8FAB" stroke-width="4.3" stroke-linecap="round" opacity="0.55"/>
          
        <polygon points="479.4,581.3 444.7,573.2 429.6,604.6 463.3,613.1"
                 fill="#ffffff" stroke="#1E1B2E" stroke-width="5" opacity="0.92"/>
        
          <circle cx="270.6" cy="678.7" r="10.1" fill="#fff" stroke="#1E1B2E" stroke-width="5" opacity="0.9"/>
        </g>
        
        </g>
        <line x1="284.7" y1="629.6" x2="504.6" y2="381.5" stroke="#ffffff" stroke-width="2.2" opacity="0.22"/>
<line x1="504.6" y1="381.5" x2="254.7" y2="348.9" stroke="#ffffff" stroke-width="2.2" opacity="0.20"/>
<line x1="254.7" y1="348.9" x2="255.7" y2="535.5" stroke="#ffffff" stroke-width="2.2" opacity="0.19"/>
<line x1="255.7" y1="535.5" x2="156.5" y2="393.5" stroke="#ffffff" stroke-width="2.2" opacity="0.22"/>
<line x1="156.5" y1="393.5" x2="607.7" y2="666.2" stroke="#ffffff" stroke-width="2.2" opacity="0.08"/>
<line x1="607.7" y1="666.2" x2="498.8" y2="424.9" stroke="#ffffff" stroke-width="2.2" opacity="0.16"/>
<circle cx="156.5" cy="393.5" r="1.7" fill="#ffffff" opacity="0.5731186638032989"/>
<circle cx="163.9" cy="658.5" r="2.2" fill="#ffffff" opacity="0.37361067046109453"/>
<circle cx="284.7" cy="629.6" r="2.1" fill="#ffffff" opacity="0.8414103527389343"/>
<circle cx="516.8" cy="512.0" r="3.9" fill="#ffffff" opacity="0.8362247984354608"/>
<circle cx="255.7" cy="535.5" r="3.2" fill="#ffffff" opacity="0.7595711632183466"/>
<circle cx="498.8" cy="424.9" r="3.7" fill="#ffffff" opacity="0.6779167002931726"/>
<circle cx="537.8" cy="298.9" r="2.4" fill="#ffffff" opacity="0.7944242787688252"/>
<circle cx="254.7" cy="348.9" r="1.9" fill="#ffffff" opacity="0.6085732770813543"/>
<circle cx="496.3" cy="558.9" r="1.7" fill="#ffffff" opacity="0.5116416606357506"/>
<circle cx="294.1" cy="556.9" r="2.0" fill="#ffffff" opacity="0.7406408990828879"/>
<circle cx="607.7" cy="666.2" r="2.8" fill="#ffffff" opacity="0.684659847215165"/>
<circle cx="305.4" cy="607.0" r="4.1" fill="#ffffff" opacity="0.5935949114905333"/>
<circle cx="504.6" cy="381.5" r="1.8" fill="#ffffff" opacity="0.7191425303936909"/>
<circle cx="164.6" cy="552.9" r="3.2" fill="#ffffff" opacity="0.5678767972715998"/>
<rect x="42" y="1030" width="666" height="160" rx="30" fill="#ffffffd9" stroke="#1E1B2E" stroke-width="4" opacity="0.95"/>
<text x="375.0" y="1104" font-family="ui-sans-serif, system-ui, -apple-system, Segoe UI, Roboto, Helvetica, Arial" font-size="46" font-weight="900" text-anchor="middle" fill="#1E1B2E" opacity="0.98">7 of Wands</text>
<text x="375.0" y="1152" font-family="ui-sans-serif, system-ui, -apple-system, Segoe UI, Roboto, Helvetica, Arial" font-size="28" font-weight="700" text-anchor="middle" fill="#1E1B2E" opacity="0.7">Trust</text>

    <g opacity="0.55">
      <circle cx="127" cy="1176" r="14" fill="#FF8FAB"/>
      <circle cx="623" cy="1176" r="14" fill="#FF8FAB"/>
      <path d="M 162 1176 L 588 1176" stroke="#FF8FAB" stroke-width="4" opacity="0.45" stroke-linecap="round"/>
    </g>
    
</svg>
