<svg xmlns="http://www.w3.org/2000/svg" width="750" height="1250" viewBox="0 0 750 1250">
  <title>8 of Wands</title>


  <defs>
    <linearGradient id="g" x1="0" y1="0" x2="1" y2="1">
      <stop offset="0%" stop-color="#FCEFEF"/>
      <stop offset="100%" stop-color="#E6FFFA"/>
    </linearGradient>

    <!-- paper texture -->
    <filter id="paper" x="-20%" y="-20%" width="140%" height="140%">
      <feTurbulence type="fractalNoise" baseFrequency="0.018" numOctaves="3" seed="8524" result="noise"/>
      <feColorMatrix in="noise" type="matrix"
        values="1 0 0 0 0
                0 1 0 0 0
                0 0 1 0 0
                0 0 0 0.25 0" result="noiseAlpha"/>
      <feComposite in="noiseAlpha" in2="SourceGraphic" operator="over"/>
    </filter>

    <!-- soft glow -->
    <filter id="glow" x="-30%" y="-30%" width="160%" height="160%">
      <feGaussianBlur stdDeviation="10" result="blur"/>
      <feColorMatrix type="matrix" values="
        1 0 0 0 0
        0 1 0 0 0
        0 0 1 0 0
        0 0 0 0.32 0" result="blurAlpha"/>
      <feMerge>
        <feMergeNode in="blurAlpha"/>
        <feMergeNode in="SourceGraphic"/>
      </feMerge>
    </filter>
  </defs>

<rect x="0" y="0" width="750" height="1250" rx="58" ry="58" fill="url(#g)" stroke="none" stroke-width="0" opacity="1"/>
<rect x="0" y="0" width="750" height="1250" fill="#ffffff" opacity="0.08"/>
<line x1="415.0" y1="237.4" x2="385.2" y2="181.7" stroke="#ffffff" stroke-width="2.2" opacity="0.20"/>
<line x1="385.2" y1="181.7" x2="665.8" y2="437.3" stroke="#ffffff" stroke-width="2.2" opacity="0.16"/>
<line x1="665.8" y1="437.3" x2="96.4" y2="458.0" stroke="#ffffff" stroke-width="2.2" opacity="0.08"/>
<line x1="96.4" y1="458.0" x2="674.5" y2="1038.6" stroke="#ffffff" stroke-width="2.2" opacity="0.08"/>
<line x1="674.5" y1="1038.6" x2="202.2" y2="797.4" stroke="#ffffff" stroke-width="2.2" opacity="0.19"/>
<line x1="202.2" y1="797.4" x2="411.8" y2="318.6" stroke="#ffffff" stroke-width="2.2" opacity="0.13"/>
<line x1="411.8" y1="318.6" x2="401.4" y2="713.8" stroke="#ffffff" stroke-width="2.2" opacity="0.11"/>
<line x1="401.4" y1="713.8" x2="392.9" y2="1098.4" stroke="#ffffff" stroke-width="2.2" opacity="0.15"/>
<line x1="392.9" y1="1098.4" x2="637.1" y2="575.9" stroke="#ffffff" stroke-width="2.2" opacity="0.21"/>
<line x1="637.1" y1="575.9" x2="414.4" y2="221.5" stroke="#ffffff" stroke-width="2.2" opacity="0.16"/>
<line x1="414.4" y1="221.5" x2="591.4" y2="576.9" stroke="#ffffff" stroke-width="2.2" opacity="0.14"/>
<line x1="591.4" y1="576.9" x2="332.1" y2="930.3" stroke="#ffffff" stroke-width="2.2" opacity="0.20"/>
<line x1="332.1" y1="930.3" x2="144.9" y2="339.3" stroke="#ffffff" stroke-width="2.2" opacity="0.14"/>
<line x1="144.9" y1="339.3" x2="606.5" y2="298.5" stroke="#ffffff" stroke-width="2.2" opacity="0.15"/>
<line x1="606.5" y1="298.5" x2="319.5" y2="651.6" stroke="#ffffff" stroke-width="2.2" opacity="0.21"/>
<line x1="319.5" y1="651.6" x2="609.8" y2="890.5" stroke="#ffffff" stroke-width="2.2" opacity="0.15"/>
<line x1="609.8" y1="890.5" x2="536.2" y2="193.8" stroke="#ffffff" stroke-width="2.2" opacity="0.18"/>
<line x1="536.2" y1="193.8" x2="358.4" y2="1151.4" stroke="#ffffff" stroke-width="2.2" opacity="0.15"/>
<circle cx="411.8" cy="318.6" r="3.0" fill="#ffffff" opacity="0.6908147216013022"/>
<circle cx="231.4" cy="126.6" r="4.0" fill="#ffffff" opacity="0.4255398445241605"/>
<circle cx="526.0" cy="1099.7" r="3.5" fill="#ffffff" opacity="0.7533098614003365"/>
<circle cx="233.9" cy="1057.4" r="3.1" fill="#ffffff" opacity="0.7697090691800074"/>
<circle cx="352.1" cy="202.8" r="3.2" fill="#ffffff" opacity="0.41349875716092976"/>
<circle cx="287.2" cy="160.5" r="1.8" fill="#ffffff" opacity="0.5735129223151919"/>
<circle cx="319.5" cy="651.6" r="4.8" fill="#ffffff" opacity="0.6247796134575092"/>
<circle cx="516.7" cy="973.8" r="3.9" fill="#ffffff" opacity="0.8327156485272232"/>
<circle cx="64.7" cy="438.6" r="1.6" fill="#ffffff" opacity="0.3137395543323759"/>
<circle cx="602.5" cy="1068.8" r="4.0" fill="#ffffff" opacity="0.616385890316602"/>
<circle cx="609.8" cy="890.5" r="4.5" fill="#ffffff" opacity="0.7745729547862862"/>
<circle cx="539.6" cy="623.1" r="4.3" fill="#ffffff" opacity="0.5328417508799078"/>
<circle cx="49.4" cy="1095.8" r="2.2" fill="#ffffff" opacity="0.552238313605717"/>
<circle cx="202.2" cy="797.4" r="3.2" fill="#ffffff" opacity="0.7488010203072515"/>
<circle cx="358.4" cy="1151.4" r="3.5" fill="#ffffff" opacity="0.4957871353461859"/>
<circle cx="591.4" cy="576.9" r="1.8" fill="#ffffff" opacity="0.6356494019209532"/>
<circle cx="652.3" cy="953.9" r="2.0" fill="#ffffff" opacity="0.4778609883178708"/>
<circle cx="529.5" cy="958.1" r="3.2" fill="#ffffff" opacity="0.7827545497155665"/>
<circle cx="415.0" cy="237.4" r="4.4" fill="#ffffff" opacity="0.7686773686237961"/>
<circle cx="341.4" cy="1126.7" r="4.6" fill="#ffffff" opacity="0.8260318983582545"/>
<circle cx="637.1" cy="575.9" r="2.3" fill="#ffffff" opacity="0.2612981276587929"/>
<circle cx="340.6" cy="54.4" r="4.4" fill="#ffffff" opacity="0.6618206303156229"/>
<circle cx="688.6" cy="176.8" r="4.6" fill="#ffffff" opacity="0.5553651336305561"/>
<circle cx="391.0" cy="1123.4" r="2.1" fill="#ffffff" opacity="0.40592259850525914"/>
<circle cx="346.4" cy="1106.2" r="2.7" fill="#ffffff" opacity="0.45774365600645694"/>
<circle cx="385.2" cy="181.7" r="3.0" fill="#ffffff" opacity="0.4067388381050323"/>
<circle cx="453.2" cy="1112.2" r="3.8" fill="#ffffff" opacity="0.7410031589696702"/>
<circle cx="401.4" cy="713.8" r="3.7" fill="#ffffff" opacity="0.7665097305320372"/>
<circle cx="543.8" cy="754.7" r="4.0" fill="#ffffff" opacity="0.6864550803365677"/>
<circle cx="313.3" cy="1193.7" r="4.2" fill="#ffffff" opacity="0.4356030715167665"/>
<circle cx="572.8" cy="158.1" r="2.9" fill="#ffffff" opacity="0.7038797522359614"/>
<circle cx="97.8" cy="938.7" r="4.8" fill="#ffffff" opacity="0.49526900006378166"/>
<circle cx="509.8" cy="201.7" r="2.5" fill="#ffffff" opacity="0.3437301802067737"/>
<circle cx="332.1" cy="930.3" r="4.6" fill="#ffffff" opacity="0.47081140277712524"/>
<circle cx="249.9" cy="350.7" r="4.3" fill="#ffffff" opacity="0.45677162733323873"/>
<circle cx="146.9" cy="539.3" r="3.1" fill="#ffffff" opacity="0.4980935287362567"/>
<circle cx="470.6" cy="1125.0" r="1.7" fill="#ffffff" opacity="0.5834821483464692"/>
<circle cx="96.4" cy="458.0" r="2.7" fill="#ffffff" opacity="0.5190985592807495"/>
<circle cx="582.2" cy="648.8" r="4.2" fill="#ffffff" opacity="0.6437429065550782"/>
<circle cx="138.4" cy="1113.5" r="4.7" fill="#ffffff" opacity="0.49311431790318233"/>
<circle cx="674.5" cy="1038.6" r="2.9" fill="#ffffff" opacity="0.3629916549040557"/>
<circle cx="414.4" cy="221.5" r="3.1" fill="#ffffff" opacity="0.6593719802329239"/>
<circle cx="392.9" cy="1098.4" r="2.2" fill="#ffffff" opacity="0.6642600873535265"/>
<circle cx="144.9" cy="339.3" r="4.8" fill="#ffffff" opacity="0.4789512110888938"/>
<circle cx="316.1" cy="1044.1" r="2.5" fill="#ffffff" opacity="0.7346965152058533"/>
<circle cx="536.2" cy="193.8" r="2.6" fill="#ffffff" opacity="0.8476548892947693"/>
<circle cx="606.5" cy="298.5" r="3.3" fill="#ffffff" opacity="0.4909271933459246"/>
<circle cx="435.9" cy="999.5" r="3.1" fill="#ffffff" opacity="0.2915706228988976"/>
<circle cx="665.8" cy="437.3" r="4.6" fill="#ffffff" opacity="0.6928168237439832"/>
<circle cx="386.9" cy="1015.4" r="3.8" fill="#ffffff" opacity="0.3713654960523655"/>
<g filter="url(#paper)"><rect x="42" y="42" width="666" height="1166" rx="54" ry="54" fill="none" stroke="#1E1B2E" stroke-width="8" opacity="0.95"/>
<rect x="60" y="60" width="630" height="1130" rx="46" ry="46" fill="none" stroke="#FF8FAB" stroke-width="3" opacity="0.35"/>

  <g opacity="0.42">
    <circle cx="375.0" cy="560" r="285" fill="none" stroke="#FF8FAB" stroke-width="4.2" opacity="0.42"/>
    <circle cx="375.0" cy="560" r="233.7" fill="none" stroke="#FF8FAB" stroke-width="2.2" opacity="0.23"/>
    <line x1="642.0" y1="560.0" x2="674.0" y2="560.0" stroke="#FF8FAB" stroke-width="3.2" opacity="0.23" stroke-linecap="round"/><line x1="606.2" y1="693.5" x2="633.9" y2="709.5" stroke="#FF8FAB" stroke-width="3.2" opacity="0.23" stroke-linecap="round"/><line x1="508.5" y1="791.2" x2="524.5" y2="818.9" stroke="#FF8FAB" stroke-width="3.2" opacity="0.23" stroke-linecap="round"/><line x1="375.0" y1="827.0" x2="375.0" y2="859.0" stroke="#FF8FAB" stroke-width="3.2" opacity="0.23" stroke-linecap="round"/><line x1="241.5" y1="791.2" x2="225.5" y2="818.9" stroke="#FF8FAB" stroke-width="3.2" opacity="0.23" stroke-linecap="round"/><line x1="143.8" y1="693.5" x2="116.1" y2="709.5" stroke="#FF8FAB" stroke-width="3.2" opacity="0.23" stroke-linecap="round"/><line x1="108.0" y1="560.0" x2="76.0" y2="560.0" stroke="#FF8FAB" stroke-width="3.2" opacity="0.23" stroke-linecap="round"/><line x1="143.8" y1="426.5" x2="116.1" y2="410.5" stroke="#FF8FAB" stroke-width="3.2" opacity="0.23" stroke-linecap="round"/><line x1="241.5" y1="328.8" x2="225.5" y2="301.1" stroke="#FF8FAB" stroke-width="3.2" opacity="0.23" stroke-linecap="round"/><line x1="375.0" y1="293.0" x2="375.0" y2="261.0" stroke="#FF8FAB" stroke-width="3.2" opacity="0.23" stroke-linecap="round"/><line x1="508.5" y1="328.8" x2="524.5" y2="301.1" stroke="#FF8FAB" stroke-width="3.2" opacity="0.23" stroke-linecap="round"/><line x1="606.2" y1="426.5" x2="633.9" y2="410.5" stroke="#FF8FAB" stroke-width="3.2" opacity="0.23" stroke-linecap="round"/>
    <circle cx="660.0" cy="557.9" r="2.9" fill="#FF8FAB" opacity="0.20"/><circle cx="648.5" cy="640.3" r="3.3" fill="#FF8FAB" opacity="0.37"/><circle cx="617.7" cy="709.4" r="2.8" fill="#FF8FAB" opacity="0.38"/><circle cx="577.7" cy="760.3" r="3.5" fill="#FF8FAB" opacity="0.31"/><circle cx="522.6" cy="803.8" r="3.9" fill="#FF8FAB" opacity="0.34"/><circle cx="455.5" cy="833.4" r="3.1" fill="#FF8FAB" opacity="0.37"/><circle cx="373.2" cy="845.0" r="3.0" fill="#FF8FAB" opacity="0.44"/><circle cx="298.4" cy="834.5" r="3.1" fill="#FF8FAB" opacity="0.28"/><circle cx="229.5" cy="805.1" r="3.7" fill="#FF8FAB" opacity="0.27"/><circle cx="166.8" cy="754.6" r="2.8" fill="#FF8FAB" opacity="0.39"/><circle cx="125.5" cy="697.8" r="2.9" fill="#FF8FAB" opacity="0.22"/><circle cx="97.7" cy="625.9" r="3.1" fill="#FF8FAB" opacity="0.27"/><circle cx="90.1" cy="566.9" r="3.6" fill="#FF8FAB" opacity="0.33"/><circle cx="98.4" cy="491.3" r="4.0" fill="#FF8FAB" opacity="0.36"/><circle cx="132.0" cy="411.2" r="3.6" fill="#FF8FAB" opacity="0.20"/><circle cx="166.8" cy="365.4" r="3.4" fill="#FF8FAB" opacity="0.41"/><circle cx="224.8" cy="317.8" r="2.9" fill="#FF8FAB" opacity="0.18"/><circle cx="305.9" cy="283.5" r="2.6" fill="#FF8FAB" opacity="0.31"/><circle cx="377.6" cy="275.0" r="3.7" fill="#FF8FAB" opacity="0.42"/><circle cx="451.4" cy="285.4" r="3.6" fill="#FF8FAB" opacity="0.24"/><circle cx="516.5" cy="312.6" r="3.7" fill="#FF8FAB" opacity="0.22"/><circle cx="576.4" cy="358.3" r="2.8" fill="#FF8FAB" opacity="0.28"/><circle cx="617.2" cy="409.8" r="3.6" fill="#FF8FAB" opacity="0.40"/><circle cx="651.1" cy="489.5" r="3.6" fill="#FF8FAB" opacity="0.40"/>
  </g>

<g><g transform="translate(50,54)"><path d="M 18.0 140.4 C 39.6 63.0, 99.0 28.8, 154.8 46.8 C 126.0 86.4, 72.0 111.6, 39.6 129.6" fill="none" stroke="#FF8FAB" stroke-width="6" opacity="0.55" stroke-linecap="round"/></g><g transform="translate(700,54) scale(-1,1)"><path d="M 18.0 140.4 C 39.6 63.0, 99.0 28.8, 154.8 46.8 C 126.0 86.4, 72.0 111.6, 39.6 129.6" fill="none" stroke="#FF8FAB" stroke-width="6" opacity="0.55" stroke-linecap="round"/></g><g transform="translate(50,1196) scale(1,-1)"><path d="M 18.0 140.4 C 39.6 63.0, 99.0 28.8, 154.8 46.8 C 126.0 86.4, 72.0 111.6, 39.6 129.6" fill="none" stroke="#FF8FAB" stroke-width="6" opacity="0.55" stroke-linecap="round"/></g><g transform="translate(700,1196) scale(-1,-1)"><path d="M 18.0 140.4 C 39.6 63.0, 99.0 28.8, 154.8 46.8 C 126.0 86.4, 72.0 111.6, 39.6 129.6" fill="none" stroke="#FF8FAB" stroke-width="6" opacity="0.55" stroke-linecap="round"/></g></g></g>
<rect x="42" y="60" width="666" height="92" rx="30" fill="#ffffffcc" stroke="#1E1B2E" stroke-width="4" opacity="0.95"/>
<text x="375.0" y="122" font-family="ui-sans-serif, system-ui, -apple-system, Segoe UI, Roboto, Helvetica, Arial" font-size="30" font-weight="800" text-anchor="middle" fill="#1E1B2E" opacity="0.95" letter-spacing="1">MINOR ARCANA • WANDS</text>
<rect x="76" y="170" width="598" height="760" rx="52" fill="#ffffff" opacity="0.15"/>
<g><path d="M 112.0 880 C 152.0 690 82.0 450 142.0 230" fill="none" stroke="#FF8FAB" stroke-width="4" opacity="0.10" stroke-linecap="round"/><circle cx="132.0" cy="450.0" r="9" fill="#FF8FAB" opacity="0.08"/><path d="M 202.0 880 C 242.0 690 172.0 450 232.0 230" fill="none" stroke="#FF8FAB" stroke-width="4" opacity="0.10" stroke-linecap="round"/><circle cx="222.0" cy="450.0" r="9" fill="#FF8FAB" opacity="0.08"/><path d="M 292.0 880 C 332.0 690 262.0 450 322.0 230" fill="none" stroke="#FF8FAB" stroke-width="4" opacity="0.10" stroke-linecap="round"/><circle cx="312.0" cy="450.0" r="9" fill="#FF8FAB" opacity="0.08"/><path d="M 382.0 880 C 422.0 690 352.0 450 412.0 230" fill="none" stroke="#FF8FAB" stroke-width="4" opacity="0.10" stroke-linecap="round"/><circle cx="402.0" cy="450.0" r="9" fill="#FF8FAB" opacity="0.08"/><path d="M 472.0 880 C 512.0 690 442.0 450 502.0 230" fill="none" stroke="#FF8FAB" stroke-width="4" opacity="0.10" stroke-linecap="round"/><circle cx="492.0" cy="450.0" r="9" fill="#FF8FAB" opacity="0.08"/><path d="M 562.0 880 C 602.0 690 532.0 450 592.0 230" fill="none" stroke="#FF8FAB" stroke-width="4" opacity="0.10" stroke-linecap="round"/><circle cx="582.0" cy="450.0" r="9" fill="#FF8FAB" opacity="0.08"/><path d="M 652.0 880 C 692.0 690 622.0 450 682.0 230" fill="none" stroke="#FF8FAB" stroke-width="4" opacity="0.10" stroke-linecap="round"/><circle cx="672.0" cy="450.0" r="9" fill="#FF8FAB" opacity="0.08"/></g><g><g opacity="0.55">
        <g>
          <line x1="340.6" y1="419.0" x2="421.8" y2="381.1" stroke="#1E1B2E" stroke-width="3.9" stroke-linecap="round"/>
          <line x1="340.6" y1="419.0" x2="421.8" y2="381.1" stroke="#FF8FAB" stroke-width="1.7" stroke-linecap="round" opacity="0.55"/>
          
        <polygon points="421.8,381.1 387.1,373.0 372.0,404.4 405.7,412.9"
                 fill="#ffffff" stroke="#1E1B2E" stroke-width="5" opacity="0.92"/>
        
          <circle cx="340.6" cy="419.0" r="3.9" fill="#fff" stroke="#1E1B2E" stroke-width="5" opacity="0.9"/>
        </g>
        </g><g opacity="0.55">
        <g>
          <line x1="519.9" y1="501.3" x2="601.1" y2="463.5" stroke="#1E1B2E" stroke-width="3.9" stroke-linecap="round"/>
          <line x1="519.9" y1="501.3" x2="601.1" y2="463.5" stroke="#FF8FAB" stroke-width="1.7" stroke-linecap="round" opacity="0.55"/>
          
        <polygon points="601.1,463.5 566.4,455.4 551.3,486.7 585.0,495.2"
                 fill="#ffffff" stroke="#1E1B2E" stroke-width="5" opacity="0.92"/>
        
          <circle cx="519.9" cy="501.3" r="3.9" fill="#fff" stroke="#1E1B2E" stroke-width="5" opacity="0.9"/>
        </g>
        </g><g opacity="0.55">
        <g>
          <line x1="584.2" y1="678.4" x2="665.4" y2="640.5" stroke="#1E1B2E" stroke-width="3.9" stroke-linecap="round"/>
          <line x1="584.2" y1="678.4" x2="665.4" y2="640.5" stroke="#FF8FAB" stroke-width="1.7" stroke-linecap="round" opacity="0.55"/>
          
        <polygon points="665.4,640.5 630.8,632.4 615.6,663.7 649.3,672.3"
                 fill="#ffffff" stroke="#1E1B2E" stroke-width="5" opacity="0.92"/>
        
          <circle cx="584.2" cy="678.4" r="3.9" fill="#fff" stroke="#1E1B2E" stroke-width="5" opacity="0.9"/>
        </g>
        </g><g opacity="0.55">
        <g>
          <line x1="508.0" y1="848.8" x2="589.2" y2="810.9" stroke="#1E1B2E" stroke-width="3.9" stroke-linecap="round"/>
          <line x1="508.0" y1="848.8" x2="589.2" y2="810.9" stroke="#FF8FAB" stroke-width="1.7" stroke-linecap="round" opacity="0.55"/>
          
        <polygon points="589.2,810.9 554.6,802.8 539.4,834.2 573.2,842.7"
                 fill="#ffffff" stroke="#1E1B2E" stroke-width="5" opacity="0.92"/>
        
          <circle cx="508.0" cy="848.8" r="3.9" fill="#fff" stroke="#1E1B2E" stroke-width="5" opacity="0.9"/>
        </g>
        </g><g opacity="0.55">
        <g>
          <line x1="321.5" y1="918.6" x2="402.7" y2="880.7" stroke="#1E1B2E" stroke-width="3.9" stroke-linecap="round"/>
          <line x1="321.5" y1="918.6" x2="402.7" y2="880.7" stroke="#FF8FAB" stroke-width="1.7" stroke-linecap="round" opacity="0.55"/>
          
        <polygon points="402.7,880.7 368.0,872.6 352.9,904.0 386.6,912.5"
                 fill="#ffffff" stroke="#1E1B2E" stroke-width="5" opacity="0.92"/>
        
          <circle cx="321.5" cy="918.6" r="3.9" fill="#fff" stroke="#1E1B2E" stroke-width="5" opacity="0.9"/>
        </g>
        </g><g opacity="0.55">
        <g>
          <line x1="153.7" y1="841.7" x2="234.9" y2="803.9" stroke="#1E1B2E" stroke-width="3.9" stroke-linecap="round"/>
          <line x1="153.7" y1="841.7" x2="234.9" y2="803.9" stroke="#FF8FAB" stroke-width="1.7" stroke-linecap="round" opacity="0.55"/>
          
        <polygon points="234.9,803.9 200.3,795.8 185.1,827.1 218.9,835.6"
                 fill="#ffffff" stroke="#1E1B2E" stroke-width="5" opacity="0.92"/>
        
          <circle cx="153.7" cy="841.7" r="3.9" fill="#fff" stroke="#1E1B2E" stroke-width="5" opacity="0.9"/>
        </g>
        </g><g opacity="0.55">
        <g>
          <line x1="84.4" y1="671.2" x2="165.6" y2="633.3" stroke="#1E1B2E" stroke-width="3.9" stroke-linecap="round"/>
          <line x1="84.4" y1="671.2" x2="165.6" y2="633.3" stroke="#FF8FAB" stroke-width="1.7" stroke-linecap="round" opacity="0.55"/>
          
        <polygon points="165.6,633.3 130.9,625.2 115.8,656.6 149.5,665.1"
                 fill="#ffffff" stroke="#1E1B2E" stroke-width="5" opacity="0.92"/>
        
          <circle cx="84.4" cy="671.2" r="3.9" fill="#fff" stroke="#1E1B2E" stroke-width="5" opacity="0.9"/>
        </g>
        </g><g opacity="0.55">
        <g>
          <line x1="151.8" y1="498.2" x2="233.0" y2="460.3" stroke="#1E1B2E" stroke-width="3.9" stroke-linecap="round"/>
          <line x1="151.8" y1="498.2" x2="233.0" y2="460.3" stroke="#FF8FAB" stroke-width="1.7" stroke-linecap="round" opacity="0.55"/>
          
        <polygon points="233.0,460.3 198.3,452.2 183.2,483.6 216.9,492.1"
                 fill="#ffffff" stroke="#1E1B2E" stroke-width="5" opacity="0.92"/>
        
          <circle cx="151.8" cy="498.2" r="3.9" fill="#fff" stroke="#1E1B2E" stroke-width="5" opacity="0.9"/>
        </g>
        </g></g><g opacity="0.18"><g><path d="M 112.0 880 C 152.0 690 82.0 450 142.0 230" fill="none" stroke="#FF8FAB" stroke-width="4" opacity="0.10" stroke-linecap="round"/><circle cx="132.0" cy="450.0" r="9" fill="#FF8FAB" opacity="0.08"/><path d="M 202.0 880 C 242.0 690 172.0 450 232.0 230" fill="none" stroke="#FF8FAB" stroke-width="4" opacity="0.10" stroke-linecap="round"/><circle cx="222.0" cy="450.0" r="9" fill="#FF8FAB" opacity="0.08"/><path d="M 292.0 880 C 332.0 690 262.0 450 322.0 230" fill="none" stroke="#FF8FAB" stroke-width="4" opacity="0.10" stroke-linecap="round"/><circle cx="312.0" cy="450.0" r="9" fill="#FF8FAB" opacity="0.08"/><path d="M 382.0 880 C 422.0 690 352.0 450 412.0 230" fill="none" stroke="#FF8FAB" stroke-width="4" opacity="0.10" stroke-linecap="round"/><circle cx="402.0" cy="450.0" r="9" fill="#FF8FAB" opacity="0.08"/><path d="M 472.0 880 C 512.0 690 442.0 450 502.0 230" fill="none" stroke="#FF8FAB" stroke-width="4" opacity="0.10" stroke-linecap="round"/><circle cx="492.0" cy="450.0" r="9" fill="#FF8FAB" opacity="0.08"/><path d="M 562.0 880 C 602.0 690 532.0 450 592.0 230" fill="none" stroke="#FF8FAB" stroke-width="4" opacity="0.10" stroke-linecap="round"/><circle cx="582.0" cy="450.0" r="9" fill="#FF8FAB" opacity="0.08"/><path d="M 652.0 880 C 692.0 690 622.0 450 682.0 230" fill="none" stroke="#FF8FAB" stroke-width="4" opacity="0.10" stroke-linecap="round"/><circle cx="672.0" cy="450.0" r="9" fill="#FF8FAB" opacity="0.08"/></g></g>
        <g filter="url(#glow)">
          <circle cx="375.0" cy="630" r="170" fill="#ffffff" opacity="0.40" stroke="#FF8FAB" stroke-width="7"/>
          
        <g>
          <line x1="270.6" y1="678.7" x2="479.4" y2="581.3" stroke="#1E1B2E" stroke-width="10.1" stroke-linecap="round"/>
          <line x1="270.6" y1="678.7" x2="479.4" y2="581.3" stroke="#FF8FAB" stroke-width="4.3" stroke-linecap="round" opacity="0.55"/>
          
        <polygon points="479.4,581.3 444.7,573.2 429.6,604.6 463.3,613.1"
                 fill="#ffffff" stroke="#1E1B2E" stroke-width="5" opacity="0.92"/>
        
          <circle cx="270.6" cy="678.7" r="10.1" fill="#fff" stroke="#1E1B2E" stroke-width="5" opacity="0.9"/>
        </g>
        
        </g>
        <line x1="254.3" y1="601.9" x2="490.9" y2="653.7" stroke="#ffffff" stroke-width="2.2" opacity="0.13"/>
<line x1="490.9" y1="653.7" x2="228.9" y2="490.3" stroke="#ffffff" stroke-width="2.2" opacity="0.08"/>
<line x1="228.9" y1="490.3" x2="169.8" y2="369.1" stroke="#ffffff" stroke-width="2.2" opacity="0.16"/>
<line x1="169.8" y1="369.1" x2="438.1" y2="430.5" stroke="#ffffff" stroke-width="2.2" opacity="0.17"/>
<line x1="438.1" y1="430.5" x2="196.7" y2="299.9" stroke="#ffffff" stroke-width="2.2" opacity="0.09"/>
<line x1="196.7" y1="299.9" x2="203.4" y2="310.0" stroke="#ffffff" stroke-width="2.2" opacity="0.09"/>
<circle cx="484.3" cy="377.1" r="3.7" fill="#ffffff" opacity="0.362561046248722"/>
<circle cx="228.9" cy="490.3" r="4.5" fill="#ffffff" opacity="0.3999621016394085"/>
<circle cx="169.8" cy="369.1" r="1.7" fill="#ffffff" opacity="0.603237239805839"/>
<circle cx="254.3" cy="601.9" r="1.9" fill="#ffffff" opacity="0.25857669473209066"/>
<circle cx="438.1" cy="430.5" r="4.7" fill="#ffffff" opacity="0.343689515194173"/>
<circle cx="490.9" cy="653.7" r="2.5" fill="#ffffff" opacity="0.597554507938288"/>
<circle cx="357.9" cy="517.9" r="2.8" fill="#ffffff" opacity="0.8083568951269972"/>
<circle cx="394.2" cy="255.7" r="2.1" fill="#ffffff" opacity="0.6706941000875062"/>
<circle cx="503.7" cy="599.3" r="2.2" fill="#ffffff" opacity="0.5976092499280934"/>
<circle cx="606.9" cy="371.3" r="2.9" fill="#ffffff" opacity="0.8422796419751873"/>
<circle cx="196.7" cy="299.9" r="4.0" fill="#ffffff" opacity="0.3540939318372402"/>
<circle cx="555.1" cy="513.2" r="3.4" fill="#ffffff" opacity="0.3432546536279738"/>
<circle cx="229.8" cy="574.2" r="2.2" fill="#ffffff" opacity="0.3563579207201779"/>
<circle cx="203.4" cy="310.0" r="1.9" fill="#ffffff" opacity="0.46969061854873984"/>
<rect x="42" y="1030" width="666" height="160" rx="30" fill="#ffffffd9" stroke="#1E1B2E" stroke-width="4" opacity="0.95"/>
<text x="375.0" y="1104" font-family="ui-sans-serif, system-ui, -apple-system, Segoe UI, Roboto, Helvetica, Arial" font-size="46" font-weight="900" text-anchor="middle" fill="#1E1B2E" opacity="0.98">8 of Wands</text>
<text x="375.0" y="1152" font-family="ui-sans-serif, system-ui, -apple-system, Segoe UI, Roboto, Helvetica, Arial" font-size="28" font-weight="700" text-anchor="middle" fill="#1E1B2E" opacity="0.7">Motion</text>

    <g opacity="0.55">
      <circle cx="127" cy="1176" r="14" fill="#FF8FAB"/>
      <circle cx="623" cy="1176" r="14" fill="#FF8FAB"/>
      <path d="M 162 1176 L 588 1176" stroke="#FF8FAB" stroke-width="4" opacity="0.45" stroke-linecap="round"/>
    </g>
    
</svg>
