<svg xmlns="http://www.w3.org/2000/svg" width="750" height="1250" viewBox="0 0 750 1250">
  <title>9 of Wands</title>


  <defs>
    <linearGradient id="g" x1="0" y1="0" x2="1" y2="1">
      <stop offset="0%" stop-color="#E6FFF7"/>
      <stop offset="100%" stop-color="#FFF0E6"/>
    </linearGradient>

    <!-- paper texture -->
    <filter id="paper" x="-20%" y="-20%" width="140%" height="140%">
      <feTurbulence type="fractalNoise" baseFrequency="0.015" numOctaves="3" seed="6875" result="noise"/>
      <feColorMatrix in="noise" type="matrix"
        values="1 0 0 0 0
                0 1 0 0 0
                0 0 1 0 0
                0 0 0 0.25 0" result="noiseAlpha"/>
      <feComposite in="noiseAlpha" in2="SourceGraphic" operator="over"/>
    </filter>

    <!-- soft glow -->
    <filter id="glow" x="-30%" y="-30%" width="160%" height="160%">
      <feGaussianBlur stdDeviation="10" result="blur"/>
      <feColorMatrix type="matrix" values="
        1 0 0 0 0
        0 1 0 0 0
        0 0 1 0 0
        0 0 0 0.32 0" result="blurAlpha"/>
      <feMerge>
        <feMergeNode in="blurAlpha"/>
        <feMergeNode in="SourceGraphic"/>
      </feMerge>
    </filter>
  </defs>

<rect x="0" y="0" width="750" height="1250" rx="58" ry="58" fill="url(#g)" stroke="none" stroke-width="0" opacity="1"/>
<rect x="0" y="0" width="750" height="1250" fill="#ffffff" opacity="0.08"/>
<line x1="559.0" y1="373.3" x2="261.7" y2="229.5" stroke="#ffffff" stroke-width="2.2" opacity="0.21"/>
<line x1="261.7" y1="229.5" x2="438.4" y2="181.6" stroke="#ffffff" stroke-width="2.2" opacity="0.21"/>
<line x1="438.4" y1="181.6" x2="432.1" y2="154.3" stroke="#ffffff" stroke-width="2.2" opacity="0.19"/>
<line x1="432.1" y1="154.3" x2="385.5" y2="895.2" stroke="#ffffff" stroke-width="2.2" opacity="0.08"/>
<line x1="385.5" y1="895.2" x2="43.6" y2="964.6" stroke="#ffffff" stroke-width="2.2" opacity="0.21"/>
<line x1="43.6" y1="964.6" x2="630.0" y2="830.6" stroke="#ffffff" stroke-width="2.2" opacity="0.14"/>
<line x1="630.0" y1="830.6" x2="443.5" y2="822.3" stroke="#ffffff" stroke-width="2.2" opacity="0.09"/>
<line x1="443.5" y1="822.3" x2="591.4" y2="221.3" stroke="#ffffff" stroke-width="2.2" opacity="0.10"/>
<line x1="591.4" y1="221.3" x2="285.8" y2="264.6" stroke="#ffffff" stroke-width="2.2" opacity="0.19"/>
<line x1="285.8" y1="264.6" x2="665.9" y2="325.7" stroke="#ffffff" stroke-width="2.2" opacity="0.11"/>
<line x1="665.9" y1="325.7" x2="489.6" y2="1010.6" stroke="#ffffff" stroke-width="2.2" opacity="0.20"/>
<line x1="489.6" y1="1010.6" x2="374.2" y2="176.7" stroke="#ffffff" stroke-width="2.2" opacity="0.20"/>
<line x1="374.2" y1="176.7" x2="304.9" y2="436.1" stroke="#ffffff" stroke-width="2.2" opacity="0.11"/>
<line x1="304.9" y1="436.1" x2="147.1" y2="392.5" stroke="#ffffff" stroke-width="2.2" opacity="0.16"/>
<line x1="147.1" y1="392.5" x2="452.0" y2="350.4" stroke="#ffffff" stroke-width="2.2" opacity="0.18"/>
<line x1="452.0" y1="350.4" x2="307.0" y2="403.1" stroke="#ffffff" stroke-width="2.2" opacity="0.14"/>
<line x1="307.0" y1="403.1" x2="555.8" y2="738.7" stroke="#ffffff" stroke-width="2.2" opacity="0.11"/>
<line x1="555.8" y1="738.7" x2="522.0" y2="226.1" stroke="#ffffff" stroke-width="2.2" opacity="0.10"/>
<circle cx="485.5" cy="275.0" r="2.1" fill="#ffffff" opacity="0.6116545303532368"/>
<circle cx="381.8" cy="1118.6" r="2.3" fill="#ffffff" opacity="0.3975405237757691"/>
<circle cx="686.8" cy="117.9" r="4.6" fill="#ffffff" opacity="0.3463089799046304"/>
<circle cx="580.7" cy="1115.5" r="1.8" fill="#ffffff" opacity="0.4001107192326017"/>
<circle cx="460.7" cy="757.8" r="2.8" fill="#ffffff" opacity="0.7442781281732209"/>
<circle cx="374.2" cy="176.7" r="2.1" fill="#ffffff" opacity="0.7193393219447404"/>
<circle cx="518.8" cy="517.3" r="2.1" fill="#ffffff" opacity="0.4034170843737695"/>
<circle cx="432.1" cy="154.3" r="4.4" fill="#ffffff" opacity="0.4271109140729696"/>
<circle cx="307.7" cy="847.5" r="1.8" fill="#ffffff" opacity="0.8438500563798497"/>
<circle cx="260.4" cy="694.7" r="4.5" fill="#ffffff" opacity="0.5433399937009202"/>
<circle cx="154.9" cy="44.4" r="1.9" fill="#ffffff" opacity="0.655776010071073"/>
<circle cx="186.8" cy="418.1" r="3.4" fill="#ffffff" opacity="0.2985397748137246"/>
<circle cx="615.4" cy="573.7" r="4.4" fill="#ffffff" opacity="0.8468687560942876"/>
<circle cx="147.1" cy="392.5" r="2.3" fill="#ffffff" opacity="0.7527497719714469"/>
<circle cx="254.9" cy="866.6" r="4.0" fill="#ffffff" opacity="0.49783873609837725"/>
<circle cx="443.5" cy="822.3" r="2.7" fill="#ffffff" opacity="0.6896575382260187"/>
<circle cx="304.9" cy="436.1" r="2.6" fill="#ffffff" opacity="0.32684187924563857"/>
<circle cx="191.7" cy="1183.0" r="3.7" fill="#ffffff" opacity="0.6915791712559234"/>
<circle cx="364.1" cy="343.2" r="3.2" fill="#ffffff" opacity="0.4521949409393604"/>
<circle cx="261.7" cy="229.5" r="2.2" fill="#ffffff" opacity="0.7988031197197283"/>
<circle cx="78.3" cy="708.7" r="2.6" fill="#ffffff" opacity="0.7523292069607819"/>
<circle cx="385.5" cy="895.2" r="3.6" fill="#ffffff" opacity="0.6726266274943926"/>
<circle cx="375.8" cy="631.6" r="2.0" fill="#ffffff" opacity="0.7813228456079732"/>
<circle cx="49.3" cy="893.2" r="4.5" fill="#ffffff" opacity="0.71582494566503"/>
<circle cx="395.9" cy="66.2" r="3.7" fill="#ffffff" opacity="0.7374278845983362"/>
<circle cx="433.7" cy="384.4" r="4.3" fill="#ffffff" opacity="0.5256351691645629"/>
<circle cx="559.0" cy="373.3" r="3.4" fill="#ffffff" opacity="0.3200950207049407"/>
<circle cx="218.7" cy="147.6" r="3.1" fill="#ffffff" opacity="0.5130368434825572"/>
<circle cx="43.6" cy="964.6" r="1.9" fill="#ffffff" opacity="0.6155358714178545"/>
<circle cx="285.8" cy="264.6" r="4.5" fill="#ffffff" opacity="0.5661932699181387"/>
<circle cx="504.2" cy="489.7" r="4.4" fill="#ffffff" opacity="0.2817817976580306"/>
<circle cx="335.2" cy="1026.6" r="4.2" fill="#ffffff" opacity="0.5776574610818657"/>
<circle cx="438.4" cy="181.6" r="4.5" fill="#ffffff" opacity="0.6468648248493445"/>
<circle cx="452.0" cy="350.4" r="3.5" fill="#ffffff" opacity="0.4655348102608464"/>
<circle cx="421.0" cy="485.3" r="4.2" fill="#ffffff" opacity="0.7373159661742569"/>
<circle cx="429.0" cy="743.5" r="3.8" fill="#ffffff" opacity="0.5492955769485064"/>
<circle cx="683.2" cy="219.6" r="4.5" fill="#ffffff" opacity="0.658516231052722"/>
<circle cx="270.3" cy="589.4" r="2.8" fill="#ffffff" opacity="0.6320254860040888"/>
<circle cx="665.9" cy="325.7" r="2.6" fill="#ffffff" opacity="0.5392318753705859"/>
<circle cx="675.5" cy="335.5" r="2.7" fill="#ffffff" opacity="0.7325334839701447"/>
<circle cx="567.7" cy="177.9" r="3.0" fill="#ffffff" opacity="0.5894313540191829"/>
<circle cx="489.6" cy="1010.6" r="4.6" fill="#ffffff" opacity="0.6618965523333189"/>
<circle cx="130.5" cy="1062.6" r="2.0" fill="#ffffff" opacity="0.37083027768771193"/>
<circle cx="591.4" cy="221.3" r="4.3" fill="#ffffff" opacity="0.8167616328188788"/>
<circle cx="555.8" cy="738.7" r="2.5" fill="#ffffff" opacity="0.38119033401172664"/>
<circle cx="192.8" cy="403.7" r="3.9" fill="#ffffff" opacity="0.32759964021440524"/>
<circle cx="630.0" cy="830.6" r="2.4" fill="#ffffff" opacity="0.36006289718491785"/>
<circle cx="522.0" cy="226.1" r="4.3" fill="#ffffff" opacity="0.4954333403756298"/>
<circle cx="307.0" cy="403.1" r="2.9" fill="#ffffff" opacity="0.6002017583976209"/>
<circle cx="354.4" cy="928.4" r="2.5" fill="#ffffff" opacity="0.6192694247129495"/>
<g filter="url(#paper)"><rect x="42" y="42" width="666" height="1166" rx="54" ry="54" fill="none" stroke="#1E1B2E" stroke-width="8" opacity="0.95"/>
<rect x="60" y="60" width="630" height="1130" rx="46" ry="46" fill="none" stroke="#FF8FAB" stroke-width="3" opacity="0.35"/>

  <g opacity="0.42">
    <circle cx="375.0" cy="560" r="285" fill="none" stroke="#FF8FAB" stroke-width="4.2" opacity="0.42"/>
    <circle cx="375.0" cy="560" r="233.7" fill="none" stroke="#FF8FAB" stroke-width="2.2" opacity="0.23"/>
    <line x1="642.0" y1="560.0" x2="674.0" y2="560.0" stroke="#FF8FAB" stroke-width="3.2" opacity="0.23" stroke-linecap="round"/><line x1="606.2" y1="693.5" x2="633.9" y2="709.5" stroke="#FF8FAB" stroke-width="3.2" opacity="0.23" stroke-linecap="round"/><line x1="508.5" y1="791.2" x2="524.5" y2="818.9" stroke="#FF8FAB" stroke-width="3.2" opacity="0.23" stroke-linecap="round"/><line x1="375.0" y1="827.0" x2="375.0" y2="859.0" stroke="#FF8FAB" stroke-width="3.2" opacity="0.23" stroke-linecap="round"/><line x1="241.5" y1="791.2" x2="225.5" y2="818.9" stroke="#FF8FAB" stroke-width="3.2" opacity="0.23" stroke-linecap="round"/><line x1="143.8" y1="693.5" x2="116.1" y2="709.5" stroke="#FF8FAB" stroke-width="3.2" opacity="0.23" stroke-linecap="round"/><line x1="108.0" y1="560.0" x2="76.0" y2="560.0" stroke="#FF8FAB" stroke-width="3.2" opacity="0.23" stroke-linecap="round"/><line x1="143.8" y1="426.5" x2="116.1" y2="410.5" stroke="#FF8FAB" stroke-width="3.2" opacity="0.23" stroke-linecap="round"/><line x1="241.5" y1="328.8" x2="225.5" y2="301.1" stroke="#FF8FAB" stroke-width="3.2" opacity="0.23" stroke-linecap="round"/><line x1="375.0" y1="293.0" x2="375.0" y2="261.0" stroke="#FF8FAB" stroke-width="3.2" opacity="0.23" stroke-linecap="round"/><line x1="508.5" y1="328.8" x2="524.5" y2="301.1" stroke="#FF8FAB" stroke-width="3.2" opacity="0.23" stroke-linecap="round"/><line x1="606.2" y1="426.5" x2="633.9" y2="410.5" stroke="#FF8FAB" stroke-width="3.2" opacity="0.23" stroke-linecap="round"/>
    <circle cx="660.0" cy="561.2" r="3.6" fill="#FF8FAB" opacity="0.38"/><circle cx="648.7" cy="639.5" r="2.9" fill="#FF8FAB" opacity="0.44"/><circle cx="626.1" cy="694.8" r="3.3" fill="#FF8FAB" opacity="0.34"/><circle cx="580.5" cy="757.5" r="2.8" fill="#FF8FAB" opacity="0.33"/><circle cx="513.4" cy="809.2" r="3.8" fill="#FF8FAB" opacity="0.26"/><circle cx="439.6" cy="837.6" r="3.1" fill="#FF8FAB" opacity="0.21"/><circle cx="367.0" cy="844.9" r="2.9" fill="#FF8FAB" opacity="0.19"/><circle cx="309.2" cy="837.3" r="3.5" fill="#FF8FAB" opacity="0.37"/><circle cx="239.9" cy="811.0" r="3.6" fill="#FF8FAB" opacity="0.35"/><circle cx="176.2" cy="764.2" r="3.7" fill="#FF8FAB" opacity="0.44"/><circle cx="123.9" cy="694.8" r="3.8" fill="#FF8FAB" opacity="0.31"/><circle cx="97.9" cy="626.5" r="3.8" fill="#FF8FAB" opacity="0.30"/><circle cx="90.0" cy="561.7" r="2.8" fill="#FF8FAB" opacity="0.30"/><circle cx="99.2" cy="488.1" r="3.9" fill="#FF8FAB" opacity="0.42"/><circle cx="125.4" cy="422.4" r="3.0" fill="#FF8FAB" opacity="0.39"/><circle cx="169.3" cy="362.7" r="3.9" fill="#FF8FAB" opacity="0.43"/><circle cx="228.0" cy="315.8" r="2.9" fill="#FF8FAB" opacity="0.32"/><circle cx="307.5" cy="283.1" r="2.9" fill="#FF8FAB" opacity="0.26"/><circle cx="373.9" cy="275.0" r="3.4" fill="#FF8FAB" opacity="0.35"/><circle cx="443.6" cy="283.4" r="3.6" fill="#FF8FAB" opacity="0.39"/><circle cx="520.3" cy="314.8" r="2.6" fill="#FF8FAB" opacity="0.37"/><circle cx="577.8" cy="359.7" r="3.8" fill="#FF8FAB" opacity="0.22"/><circle cx="622.2" cy="418.1" r="3.2" fill="#FF8FAB" opacity="0.30"/><circle cx="651.5" cy="490.8" r="3.4" fill="#FF8FAB" opacity="0.23"/>
  </g>

<g><g transform="translate(50,54)"><path d="M 18.0 117.0 C 45.0 45.0, 99.0 27.0, 153.0 54.0" fill="none" stroke="#FF8FAB" stroke-width="6" opacity="0.55" stroke-linecap="round"/></g><g transform="translate(700,54) scale(-1,1)"><path d="M 18.0 117.0 C 45.0 45.0, 99.0 27.0, 153.0 54.0" fill="none" stroke="#FF8FAB" stroke-width="6" opacity="0.55" stroke-linecap="round"/></g><g transform="translate(50,1196) scale(1,-1)"><path d="M 18.0 117.0 C 45.0 45.0, 99.0 27.0, 153.0 54.0" fill="none" stroke="#FF8FAB" stroke-width="6" opacity="0.55" stroke-linecap="round"/></g><g transform="translate(700,1196) scale(-1,-1)"><path d="M 18.0 117.0 C 45.0 45.0, 99.0 27.0, 153.0 54.0" fill="none" stroke="#FF8FAB" stroke-width="6" opacity="0.55" stroke-linecap="round"/></g></g></g>
<rect x="42" y="60" width="666" height="92" rx="30" fill="#ffffffcc" stroke="#1E1B2E" stroke-width="4" opacity="0.95"/>
<text x="375.0" y="122" font-family="ui-sans-serif, system-ui, -apple-system, Segoe UI, Roboto, Helvetica, Arial" font-size="30" font-weight="800" text-anchor="middle" fill="#1E1B2E" opacity="0.95" letter-spacing="1">MINOR ARCANA • WANDS</text>
<rect x="76" y="170" width="598" height="760" rx="52" fill="#ffffff" opacity="0.15"/>
<g><path d="M 112.0 880 C 152.0 690 82.0 450 142.0 230" fill="none" stroke="#FF8FAB" stroke-width="4" opacity="0.10" stroke-linecap="round"/><circle cx="132.0" cy="450.0" r="9" fill="#FF8FAB" opacity="0.08"/><path d="M 202.0 880 C 242.0 690 172.0 450 232.0 230" fill="none" stroke="#FF8FAB" stroke-width="4" opacity="0.10" stroke-linecap="round"/><circle cx="222.0" cy="450.0" r="9" fill="#FF8FAB" opacity="0.08"/><path d="M 292.0 880 C 332.0 690 262.0 450 322.0 230" fill="none" stroke="#FF8FAB" stroke-width="4" opacity="0.10" stroke-linecap="round"/><circle cx="312.0" cy="450.0" r="9" fill="#FF8FAB" opacity="0.08"/><path d="M 382.0 880 C 422.0 690 352.0 450 412.0 230" fill="none" stroke="#FF8FAB" stroke-width="4" opacity="0.10" stroke-linecap="round"/><circle cx="402.0" cy="450.0" r="9" fill="#FF8FAB" opacity="0.08"/><path d="M 472.0 880 C 512.0 690 442.0 450 502.0 230" fill="none" stroke="#FF8FAB" stroke-width="4" opacity="0.10" stroke-linecap="round"/><circle cx="492.0" cy="450.0" r="9" fill="#FF8FAB" opacity="0.08"/><path d="M 562.0 880 C 602.0 690 532.0 450 592.0 230" fill="none" stroke="#FF8FAB" stroke-width="4" opacity="0.10" stroke-linecap="round"/><circle cx="582.0" cy="450.0" r="9" fill="#FF8FAB" opacity="0.08"/><path d="M 652.0 880 C 692.0 690 622.0 450 682.0 230" fill="none" stroke="#FF8FAB" stroke-width="4" opacity="0.10" stroke-linecap="round"/><circle cx="672.0" cy="450.0" r="9" fill="#FF8FAB" opacity="0.08"/></g><g><g opacity="0.55">
        <g>
          <line x1="337.0" y1="418.9" x2="418.2" y2="381.1" stroke="#1E1B2E" stroke-width="3.9" stroke-linecap="round"/>
          <line x1="337.0" y1="418.9" x2="418.2" y2="381.1" stroke="#FF8FAB" stroke-width="1.7" stroke-linecap="round" opacity="0.55"/>
          
        <polygon points="418.2,381.1 383.5,373.0 368.3,404.3 402.1,412.9"
                 fill="#ffffff" stroke="#1E1B2E" stroke-width="5" opacity="0.92"/>
        
          <circle cx="337.0" cy="418.9" r="3.9" fill="#fff" stroke="#1E1B2E" stroke-width="5" opacity="0.9"/>
        </g>
        </g><g opacity="0.55">
        <g>
          <line x1="500.9" y1="482.4" x2="582.1" y2="444.6" stroke="#1E1B2E" stroke-width="3.9" stroke-linecap="round"/>
          <line x1="500.9" y1="482.4" x2="582.1" y2="444.6" stroke="#FF8FAB" stroke-width="1.7" stroke-linecap="round" opacity="0.55"/>
          
        <polygon points="582.1,444.6 547.4,436.5 532.3,467.8 566.0,476.4"
                 fill="#ffffff" stroke="#1E1B2E" stroke-width="5" opacity="0.92"/>
        
          <circle cx="500.9" cy="482.4" r="3.9" fill="#fff" stroke="#1E1B2E" stroke-width="5" opacity="0.9"/>
        </g>
        </g><g opacity="0.55">
        <g>
          <line x1="580.8" y1="626.5" x2="662.0" y2="588.6" stroke="#1E1B2E" stroke-width="3.9" stroke-linecap="round"/>
          <line x1="580.8" y1="626.5" x2="662.0" y2="588.6" stroke="#FF8FAB" stroke-width="1.7" stroke-linecap="round" opacity="0.55"/>
          
        <polygon points="662.0,588.6 627.3,580.5 612.1,611.9 645.9,620.4"
                 fill="#ffffff" stroke="#1E1B2E" stroke-width="5" opacity="0.92"/>
        
          <circle cx="580.8" cy="626.5" r="3.9" fill="#fff" stroke="#1E1B2E" stroke-width="5" opacity="0.9"/>
        </g>
        </g><g opacity="0.55">
        <g>
          <line x1="560.4" y1="775.9" x2="641.6" y2="738.0" stroke="#1E1B2E" stroke-width="3.9" stroke-linecap="round"/>
          <line x1="560.4" y1="775.9" x2="641.6" y2="738.0" stroke="#FF8FAB" stroke-width="1.7" stroke-linecap="round" opacity="0.55"/>
          
        <polygon points="641.6,738.0 606.9,729.9 591.7,761.2 625.5,769.8"
                 fill="#ffffff" stroke="#1E1B2E" stroke-width="5" opacity="0.92"/>
        
          <circle cx="560.4" cy="775.9" r="3.9" fill="#fff" stroke="#1E1B2E" stroke-width="5" opacity="0.9"/>
        </g>
        </g><g opacity="0.55">
        <g>
          <line x1="404.5" y1="908.9" x2="485.7" y2="871.0" stroke="#1E1B2E" stroke-width="3.9" stroke-linecap="round"/>
          <line x1="404.5" y1="908.9" x2="485.7" y2="871.0" stroke="#FF8FAB" stroke-width="1.7" stroke-linecap="round" opacity="0.55"/>
          
        <polygon points="485.7,871.0 451.0,862.9 435.9,894.3 469.6,902.8"
                 fill="#ffffff" stroke="#1E1B2E" stroke-width="5" opacity="0.92"/>
        
          <circle cx="404.5" cy="908.9" r="3.9" fill="#fff" stroke="#1E1B2E" stroke-width="5" opacity="0.9"/>
        </g>
        </g><g opacity="0.55">
        <g>
          <line x1="246.8" y1="903.1" x2="328.0" y2="865.2" stroke="#1E1B2E" stroke-width="3.9" stroke-linecap="round"/>
          <line x1="246.8" y1="903.1" x2="328.0" y2="865.2" stroke="#FF8FAB" stroke-width="1.7" stroke-linecap="round" opacity="0.55"/>
          
        <polygon points="328.0,865.2 293.4,857.1 278.2,888.5 312.0,897.0"
                 fill="#ffffff" stroke="#1E1B2E" stroke-width="5" opacity="0.92"/>
        
          <circle cx="246.8" cy="903.1" r="3.9" fill="#fff" stroke="#1E1B2E" stroke-width="5" opacity="0.9"/>
        </g>
        </g><g opacity="0.55">
        <g>
          <line x1="114.4" y1="787.8" x2="195.7" y2="749.9" stroke="#1E1B2E" stroke-width="3.9" stroke-linecap="round"/>
          <line x1="114.4" y1="787.8" x2="195.7" y2="749.9" stroke="#FF8FAB" stroke-width="1.7" stroke-linecap="round" opacity="0.55"/>
          
        <polygon points="195.7,749.9 161.0,741.8 145.8,773.1 179.6,781.7"
                 fill="#ffffff" stroke="#1E1B2E" stroke-width="5" opacity="0.92"/>
        
          <circle cx="114.4" cy="787.8" r="3.9" fill="#fff" stroke="#1E1B2E" stroke-width="5" opacity="0.9"/>
        </g>
        </g><g opacity="0.55">
        <g>
          <line x1="88.8" y1="622.4" x2="170.0" y2="584.6" stroke="#1E1B2E" stroke-width="3.9" stroke-linecap="round"/>
          <line x1="88.8" y1="622.4" x2="170.0" y2="584.6" stroke="#FF8FAB" stroke-width="1.7" stroke-linecap="round" opacity="0.55"/>
          
        <polygon points="170.0,584.6 135.3,576.5 120.1,607.8 153.9,616.3"
                 fill="#ffffff" stroke="#1E1B2E" stroke-width="5" opacity="0.92"/>
        
          <circle cx="88.8" cy="622.4" r="3.9" fill="#fff" stroke="#1E1B2E" stroke-width="5" opacity="0.9"/>
        </g>
        </g><g opacity="0.55">
        <g>
          <line x1="178.4" y1="473.6" x2="259.6" y2="435.7" stroke="#1E1B2E" stroke-width="3.9" stroke-linecap="round"/>
          <line x1="178.4" y1="473.6" x2="259.6" y2="435.7" stroke="#FF8FAB" stroke-width="1.7" stroke-linecap="round" opacity="0.55"/>
          
        <polygon points="259.6,435.7 224.9,427.6 209.8,458.9 243.5,467.5"
                 fill="#ffffff" stroke="#1E1B2E" stroke-width="5" opacity="0.92"/>
        
          <circle cx="178.4" cy="473.6" r="3.9" fill="#fff" stroke="#1E1B2E" stroke-width="5" opacity="0.9"/>
        </g>
        </g></g><circle cx="375.0" cy="520" r="260" fill="#FF8FAB" opacity="0.10"/>
        <g filter="url(#glow)">
          <circle cx="375.0" cy="630" r="170" fill="#ffffff" opacity="0.40" stroke="#FF8FAB" stroke-width="7"/>
          
        <g>
          <line x1="270.6" y1="678.7" x2="479.4" y2="581.3" stroke="#1E1B2E" stroke-width="10.1" stroke-linecap="round"/>
          <line x1="270.6" y1="678.7" x2="479.4" y2="581.3" stroke="#FF8FAB" stroke-width="4.3" stroke-linecap="round" opacity="0.55"/>
          
        <polygon points="479.4,581.3 444.7,573.2 429.6,604.6 463.3,613.1"
                 fill="#ffffff" stroke="#1E1B2E" stroke-width="5" opacity="0.92"/>
        
          <circle cx="270.6" cy="678.7" r="10.1" fill="#fff" stroke="#1E1B2E" stroke-width="5" opacity="0.9"/>
        </g>
        
        </g>
        <line x1="463.8" y1="245.3" x2="475.5" y2="382.7" stroke="#ffffff" stroke-width="2.2" opacity="0.15"/>
<line x1="475.5" y1="382.7" x2="314.7" y2="616.7" stroke="#ffffff" stroke-width="2.2" opacity="0.19"/>
<line x1="314.7" y1="616.7" x2="440.4" y2="353.0" stroke="#ffffff" stroke-width="2.2" opacity="0.12"/>
<line x1="440.4" y1="353.0" x2="324.3" y2="416.7" stroke="#ffffff" stroke-width="2.2" opacity="0.14"/>
<line x1="324.3" y1="416.7" x2="144.7" y2="243.8" stroke="#ffffff" stroke-width="2.2" opacity="0.17"/>
<line x1="144.7" y1="243.8" x2="508.4" y2="270.5" stroke="#ffffff" stroke-width="2.2" opacity="0.17"/>
<circle cx="161.1" cy="553.0" r="2.2" fill="#ffffff" opacity="0.3183384889972313"/>
<circle cx="508.4" cy="270.5" r="3.7" fill="#ffffff" opacity="0.6022390147209378"/>
<circle cx="314.7" cy="616.7" r="2.8" fill="#ffffff" opacity="0.6680612001396109"/>
<circle cx="475.5" cy="382.7" r="2.2" fill="#ffffff" opacity="0.6515011710159176"/>
<circle cx="144.7" cy="243.8" r="1.8" fill="#ffffff" opacity="0.5631293965715676"/>
<circle cx="440.4" cy="353.0" r="3.3" fill="#ffffff" opacity="0.43969265749843334"/>
<circle cx="500.6" cy="253.2" r="4.7" fill="#ffffff" opacity="0.4453299052130262"/>
<circle cx="324.1" cy="269.4" r="1.8" fill="#ffffff" opacity="0.8266784146228192"/>
<circle cx="463.8" cy="245.3" r="3.9" fill="#ffffff" opacity="0.5472629240232085"/>
<circle cx="146.3" cy="391.1" r="4.4" fill="#ffffff" opacity="0.8015767814632203"/>
<circle cx="243.1" cy="454.2" r="4.1" fill="#ffffff" opacity="0.6771590048136257"/>
<circle cx="476.8" cy="371.3" r="2.5" fill="#ffffff" opacity="0.8440907391712063"/>
<circle cx="324.3" cy="416.7" r="1.8" fill="#ffffff" opacity="0.36106958353683233"/>
<circle cx="291.7" cy="372.2" r="3.7" fill="#ffffff" opacity="0.4706207443778664"/>
<rect x="42" y="1030" width="666" height="160" rx="30" fill="#ffffffd9" stroke="#1E1B2E" stroke-width="4" opacity="0.95"/>
<text x="375.0" y="1104" font-family="ui-sans-serif, system-ui, -apple-system, Segoe UI, Roboto, Helvetica, Arial" font-size="46" font-weight="900" text-anchor="middle" fill="#1E1B2E" opacity="0.98">9 of Wands</text>
<text x="375.0" y="1152" font-family="ui-sans-serif, system-ui, -apple-system, Segoe UI, Roboto, Helvetica, Arial" font-size="28" font-weight="700" text-anchor="middle" fill="#1E1B2E" opacity="0.7">Resilience</text>

    <g opacity="0.55">
      <circle cx="127" cy="1176" r="14" fill="#FF8FAB"/>
      <circle cx="623" cy="1176" r="14" fill="#FF8FAB"/>
      <path d="M 162 1176 L 588 1176" stroke="#FF8FAB" stroke-width="4" opacity="0.45" stroke-linecap="round"/>
    </g>
    
</svg>
