<svg xmlns="http://www.w3.org/2000/svg" width="750" height="1250" viewBox="0 0 750 1250">
  <title>Page of Wands</title>


  <defs>
    <linearGradient id="g" x1="0" y1="0" x2="1" y2="1">
      <stop offset="0%" stop-color="#F1F7FF"/>
      <stop offset="100%" stop-color="#FFF0D6"/>
    </linearGradient>

    <!-- paper texture -->
    <filter id="paper" x="-20%" y="-20%" width="140%" height="140%">
      <feTurbulence type="fractalNoise" baseFrequency="0.019" numOctaves="3" seed="8441" result="noise"/>
      <feColorMatrix in="noise" type="matrix"
        values="1 0 0 0 0
                0 1 0 0 0
                0 0 1 0 0
                0 0 0 0.25 0" result="noiseAlpha"/>
      <feComposite in="noiseAlpha" in2="SourceGraphic" operator="over"/>
    </filter>

    <!-- soft glow -->
    <filter id="glow" x="-30%" y="-30%" width="160%" height="160%">
      <feGaussianBlur stdDeviation="10" result="blur"/>
      <feColorMatrix type="matrix" values="
        1 0 0 0 0
        0 1 0 0 0
        0 0 1 0 0
        0 0 0 0.32 0" result="blurAlpha"/>
      <feMerge>
        <feMergeNode in="blurAlpha"/>
        <feMergeNode in="SourceGraphic"/>
      </feMerge>
    </filter>
  </defs>

<rect x="0" y="0" width="750" height="1250" rx="58" ry="58" fill="url(#g)" stroke="none" stroke-width="0" opacity="1"/>
<rect x="0" y="0" width="750" height="1250" fill="#ffffff" opacity="0.08"/>
<line x1="607.3" y1="762.0" x2="461.5" y2="1073.3" stroke="#ffffff" stroke-width="2.2" opacity="0.16"/>
<line x1="461.5" y1="1073.3" x2="523.7" y2="922.5" stroke="#ffffff" stroke-width="2.2" opacity="0.11"/>
<line x1="523.7" y1="922.5" x2="615.7" y2="124.6" stroke="#ffffff" stroke-width="2.2" opacity="0.11"/>
<line x1="615.7" y1="124.6" x2="522.3" y2="600.5" stroke="#ffffff" stroke-width="2.2" opacity="0.22"/>
<line x1="522.3" y1="600.5" x2="415.0" y2="418.0" stroke="#ffffff" stroke-width="2.2" opacity="0.15"/>
<line x1="415.0" y1="418.0" x2="237.1" y2="583.0" stroke="#ffffff" stroke-width="2.2" opacity="0.22"/>
<line x1="237.1" y1="583.0" x2="566.5" y2="479.7" stroke="#ffffff" stroke-width="2.2" opacity="0.19"/>
<line x1="566.5" y1="479.7" x2="635.0" y2="1187.4" stroke="#ffffff" stroke-width="2.2" opacity="0.13"/>
<line x1="635.0" y1="1187.4" x2="562.1" y2="921.9" stroke="#ffffff" stroke-width="2.2" opacity="0.11"/>
<line x1="562.1" y1="921.9" x2="611.9" y2="219.8" stroke="#ffffff" stroke-width="2.2" opacity="0.15"/>
<line x1="611.9" y1="219.8" x2="617.8" y2="497.6" stroke="#ffffff" stroke-width="2.2" opacity="0.09"/>
<line x1="617.8" y1="497.6" x2="465.0" y2="761.5" stroke="#ffffff" stroke-width="2.2" opacity="0.15"/>
<line x1="465.0" y1="761.5" x2="244.4" y2="1091.6" stroke="#ffffff" stroke-width="2.2" opacity="0.11"/>
<line x1="244.4" y1="1091.6" x2="309.9" y2="737.4" stroke="#ffffff" stroke-width="2.2" opacity="0.15"/>
<line x1="309.9" y1="737.4" x2="288.4" y2="1098.1" stroke="#ffffff" stroke-width="2.2" opacity="0.13"/>
<line x1="288.4" y1="1098.1" x2="326.4" y2="581.6" stroke="#ffffff" stroke-width="2.2" opacity="0.12"/>
<line x1="326.4" y1="581.6" x2="124.6" y2="88.3" stroke="#ffffff" stroke-width="2.2" opacity="0.15"/>
<line x1="124.6" y1="88.3" x2="357.6" y2="457.6" stroke="#ffffff" stroke-width="2.2" opacity="0.16"/>
<circle cx="64.7" cy="221.6" r="3.6" fill="#ffffff" opacity="0.5766966990241575"/>
<circle cx="607.3" cy="762.0" r="1.7" fill="#ffffff" opacity="0.39399400303492915"/>
<circle cx="414.2" cy="432.9" r="3.0" fill="#ffffff" opacity="0.6170946520910459"/>
<circle cx="309.9" cy="737.4" r="2.9" fill="#ffffff" opacity="0.5440957606128606"/>
<circle cx="364.6" cy="1014.3" r="2.5" fill="#ffffff" opacity="0.7781330598791366"/>
<circle cx="266.0" cy="165.3" r="2.9" fill="#ffffff" opacity="0.35940966022499454"/>
<circle cx="461.5" cy="1073.3" r="2.5" fill="#ffffff" opacity="0.4012336061986189"/>
<circle cx="566.5" cy="479.7" r="4.2" fill="#ffffff" opacity="0.592505571417949"/>
<circle cx="663.0" cy="1086.5" r="3.9" fill="#ffffff" opacity="0.6059756037210959"/>
<circle cx="617.8" cy="497.6" r="1.9" fill="#ffffff" opacity="0.5260606653359746"/>
<circle cx="491.8" cy="195.0" r="2.5" fill="#ffffff" opacity="0.6339489964370661"/>
<circle cx="140.1" cy="561.8" r="3.1" fill="#ffffff" opacity="0.615679821477605"/>
<circle cx="207.9" cy="1151.0" r="2.1" fill="#ffffff" opacity="0.34586632462080497"/>
<circle cx="124.6" cy="88.3" r="2.8" fill="#ffffff" opacity="0.8445744985462671"/>
<circle cx="237.1" cy="583.0" r="2.5" fill="#ffffff" opacity="0.7675698999456155"/>
<circle cx="150.9" cy="1154.8" r="4.1" fill="#ffffff" opacity="0.4552763185193437"/>
<circle cx="258.4" cy="1106.9" r="3.5" fill="#ffffff" opacity="0.6002987588965729"/>
<circle cx="169.6" cy="1051.2" r="2.7" fill="#ffffff" opacity="0.4133765337274401"/>
<circle cx="635.0" cy="1187.4" r="4.5" fill="#ffffff" opacity="0.7063380177869221"/>
<circle cx="326.4" cy="581.6" r="2.8" fill="#ffffff" opacity="0.40553643476303836"/>
<circle cx="523.7" cy="922.5" r="2.0" fill="#ffffff" opacity="0.4933503486640685"/>
<circle cx="643.0" cy="54.5" r="4.2" fill="#ffffff" opacity="0.6707819192174862"/>
<circle cx="704.0" cy="163.5" r="1.7" fill="#ffffff" opacity="0.43941870826797563"/>
<circle cx="562.1" cy="921.9" r="2.8" fill="#ffffff" opacity="0.8171063294310483"/>
<circle cx="615.7" cy="124.6" r="3.3" fill="#ffffff" opacity="0.4977947511485349"/>
<circle cx="588.8" cy="237.4" r="3.9" fill="#ffffff" opacity="0.27772903515191044"/>
<circle cx="598.4" cy="847.9" r="3.1" fill="#ffffff" opacity="0.4339244598348829"/>
<circle cx="465.0" cy="761.5" r="2.8" fill="#ffffff" opacity="0.5360705992998942"/>
<circle cx="415.0" cy="418.0" r="2.4" fill="#ffffff" opacity="0.38561277502282254"/>
<circle cx="665.2" cy="492.4" r="3.1" fill="#ffffff" opacity="0.7172685840233006"/>
<circle cx="443.6" cy="748.4" r="1.6" fill="#ffffff" opacity="0.3271405268275673"/>
<circle cx="173.7" cy="659.2" r="2.4" fill="#ffffff" opacity="0.28914994414613804"/>
<circle cx="44.8" cy="817.0" r="3.7" fill="#ffffff" opacity="0.7617201762472556"/>
<circle cx="525.6" cy="924.5" r="2.5" fill="#ffffff" opacity="0.5808144062466642"/>
<circle cx="302.8" cy="632.2" r="3.2" fill="#ffffff" opacity="0.5994836579774077"/>
<circle cx="412.7" cy="119.5" r="3.2" fill="#ffffff" opacity="0.7831558246669602"/>
<circle cx="357.6" cy="457.6" r="3.2" fill="#ffffff" opacity="0.3949896443888473"/>
<circle cx="611.9" cy="219.8" r="3.8" fill="#ffffff" opacity="0.42896287841544756"/>
<circle cx="46.7" cy="726.0" r="3.3" fill="#ffffff" opacity="0.6213089309733989"/>
<circle cx="244.4" cy="1091.6" r="4.0" fill="#ffffff" opacity="0.2926096438478872"/>
<circle cx="340.2" cy="340.2" r="4.4" fill="#ffffff" opacity="0.7091451084767295"/>
<circle cx="538.5" cy="587.9" r="1.7" fill="#ffffff" opacity="0.7932576616403253"/>
<circle cx="591.9" cy="737.1" r="1.7" fill="#ffffff" opacity="0.7607149755844563"/>
<circle cx="604.7" cy="185.9" r="1.9" fill="#ffffff" opacity="0.28151779721456804"/>
<circle cx="400.4" cy="690.5" r="2.9" fill="#ffffff" opacity="0.2690643131950737"/>
<circle cx="522.3" cy="600.5" r="4.1" fill="#ffffff" opacity="0.8351262428840035"/>
<circle cx="136.3" cy="1145.6" r="3.6" fill="#ffffff" opacity="0.699844267043862"/>
<circle cx="73.9" cy="1029.0" r="3.8" fill="#ffffff" opacity="0.8391195577659488"/>
<circle cx="288.4" cy="1098.1" r="3.5" fill="#ffffff" opacity="0.4477591142040356"/>
<circle cx="274.4" cy="440.0" r="2.7" fill="#ffffff" opacity="0.6269676874993677"/>
<g filter="url(#paper)"><rect x="42" y="42" width="666" height="1166" rx="54" ry="54" fill="none" stroke="#1E1B2E" stroke-width="8" opacity="0.95"/>
<rect x="60" y="60" width="630" height="1130" rx="46" ry="46" fill="none" stroke="#FF8FAB" stroke-width="3" opacity="0.35"/>

  <g opacity="0.42">
    <circle cx="375.0" cy="560" r="285" fill="none" stroke="#FF8FAB" stroke-width="4.2" opacity="0.42"/>
    <circle cx="375.0" cy="560" r="233.7" fill="none" stroke="#FF8FAB" stroke-width="2.2" opacity="0.23"/>
    <line x1="642.0" y1="560.0" x2="674.0" y2="560.0" stroke="#FF8FAB" stroke-width="3.2" opacity="0.23" stroke-linecap="round"/><line x1="606.2" y1="693.5" x2="633.9" y2="709.5" stroke="#FF8FAB" stroke-width="3.2" opacity="0.23" stroke-linecap="round"/><line x1="508.5" y1="791.2" x2="524.5" y2="818.9" stroke="#FF8FAB" stroke-width="3.2" opacity="0.23" stroke-linecap="round"/><line x1="375.0" y1="827.0" x2="375.0" y2="859.0" stroke="#FF8FAB" stroke-width="3.2" opacity="0.23" stroke-linecap="round"/><line x1="241.5" y1="791.2" x2="225.5" y2="818.9" stroke="#FF8FAB" stroke-width="3.2" opacity="0.23" stroke-linecap="round"/><line x1="143.8" y1="693.5" x2="116.1" y2="709.5" stroke="#FF8FAB" stroke-width="3.2" opacity="0.23" stroke-linecap="round"/><line x1="108.0" y1="560.0" x2="76.0" y2="560.0" stroke="#FF8FAB" stroke-width="3.2" opacity="0.23" stroke-linecap="round"/><line x1="143.8" y1="426.5" x2="116.1" y2="410.5" stroke="#FF8FAB" stroke-width="3.2" opacity="0.23" stroke-linecap="round"/><line x1="241.5" y1="328.8" x2="225.5" y2="301.1" stroke="#FF8FAB" stroke-width="3.2" opacity="0.23" stroke-linecap="round"/><line x1="375.0" y1="293.0" x2="375.0" y2="261.0" stroke="#FF8FAB" stroke-width="3.2" opacity="0.23" stroke-linecap="round"/><line x1="508.5" y1="328.8" x2="524.5" y2="301.1" stroke="#FF8FAB" stroke-width="3.2" opacity="0.23" stroke-linecap="round"/><line x1="606.2" y1="426.5" x2="633.9" y2="410.5" stroke="#FF8FAB" stroke-width="3.2" opacity="0.23" stroke-linecap="round"/>
    <circle cx="660.0" cy="556.2" r="3.2" fill="#FF8FAB" opacity="0.19"/><circle cx="649.0" cy="638.5" r="3.7" fill="#FF8FAB" opacity="0.44"/><circle cx="619.1" cy="707.0" r="3.1" fill="#FF8FAB" opacity="0.35"/><circle cx="581.3" cy="756.6" r="3.2" fill="#FF8FAB" opacity="0.25"/><circle cx="520.1" cy="805.3" r="2.9" fill="#FF8FAB" opacity="0.22"/><circle cx="449.2" cy="835.2" r="3.9" fill="#FF8FAB" opacity="0.36"/><circle cx="367.9" cy="844.9" r="3.8" fill="#FF8FAB" opacity="0.38"/><circle cx="305.6" cy="836.4" r="3.2" fill="#FF8FAB" opacity="0.33"/><circle cx="228.8" cy="804.7" r="2.7" fill="#FF8FAB" opacity="0.32"/><circle cx="175.9" cy="763.9" r="3.6" fill="#FF8FAB" opacity="0.27"/><circle cx="130.0" cy="705.6" r="2.8" fill="#FF8FAB" opacity="0.40"/><circle cx="98.9" cy="630.5" r="3.8" fill="#FF8FAB" opacity="0.42"/><circle cx="90.1" cy="568.0" r="3.7" fill="#FF8FAB" opacity="0.33"/><circle cx="99.0" cy="489.1" r="3.9" fill="#FF8FAB" opacity="0.32"/><circle cx="130.7" cy="413.2" r="4.0" fill="#FF8FAB" opacity="0.43"/><circle cx="175.0" cy="356.9" r="3.3" fill="#FF8FAB" opacity="0.29"/><circle cx="230.7" cy="314.2" r="3.8" fill="#FF8FAB" opacity="0.22"/><circle cx="296.6" cy="286.0" r="3.4" fill="#FF8FAB" opacity="0.30"/><circle cx="382.7" cy="275.1" r="3.2" fill="#FF8FAB" opacity="0.30"/><circle cx="452.1" cy="285.6" r="2.9" fill="#FF8FAB" opacity="0.28"/><circle cx="515.2" cy="311.9" r="3.6" fill="#FF8FAB" opacity="0.36"/><circle cx="583.3" cy="365.5" r="3.9" fill="#FF8FAB" opacity="0.26"/><circle cx="625.6" cy="424.3" r="3.1" fill="#FF8FAB" opacity="0.29"/><circle cx="648.5" cy="479.9" r="3.0" fill="#FF8FAB" opacity="0.45"/>
  </g>

<g><g transform="translate(50,54)"><path d="M 14.4 117.0 C 54.0 14.4, 126.0 14.4, 165.6 117.0" fill="none" stroke="#FF8FAB" stroke-width="6" opacity="0.55" stroke-linecap="round"/></g><g transform="translate(700,54) scale(-1,1)"><path d="M 14.4 117.0 C 54.0 14.4, 126.0 14.4, 165.6 117.0" fill="none" stroke="#FF8FAB" stroke-width="6" opacity="0.55" stroke-linecap="round"/></g><g transform="translate(50,1196) scale(1,-1)"><path d="M 14.4 117.0 C 54.0 14.4, 126.0 14.4, 165.6 117.0" fill="none" stroke="#FF8FAB" stroke-width="6" opacity="0.55" stroke-linecap="round"/></g><g transform="translate(700,1196) scale(-1,-1)"><path d="M 14.4 117.0 C 54.0 14.4, 126.0 14.4, 165.6 117.0" fill="none" stroke="#FF8FAB" stroke-width="6" opacity="0.55" stroke-linecap="round"/></g></g></g>
<rect x="42" y="60" width="666" height="92" rx="30" fill="#ffffffcc" stroke="#1E1B2E" stroke-width="4" opacity="0.95"/>
<text x="375.0" y="122" font-family="ui-sans-serif, system-ui, -apple-system, Segoe UI, Roboto, Helvetica, Arial" font-size="30" font-weight="800" text-anchor="middle" fill="#1E1B2E" opacity="0.95" letter-spacing="1">MINOR ARCANA • WANDS</text>
<rect x="76" y="170" width="598" height="760" rx="52" fill="#ffffff" opacity="0.15"/>
<g><path d="M 112.0 880 C 152.0 690 82.0 450 142.0 230" fill="none" stroke="#FF8FAB" stroke-width="4" opacity="0.10" stroke-linecap="round"/><circle cx="132.0" cy="450.0" r="9" fill="#FF8FAB" opacity="0.08"/><path d="M 202.0 880 C 242.0 690 172.0 450 232.0 230" fill="none" stroke="#FF8FAB" stroke-width="4" opacity="0.10" stroke-linecap="round"/><circle cx="222.0" cy="450.0" r="9" fill="#FF8FAB" opacity="0.08"/><path d="M 292.0 880 C 332.0 690 262.0 450 322.0 230" fill="none" stroke="#FF8FAB" stroke-width="4" opacity="0.10" stroke-linecap="round"/><circle cx="312.0" cy="450.0" r="9" fill="#FF8FAB" opacity="0.08"/><path d="M 382.0 880 C 422.0 690 352.0 450 412.0 230" fill="none" stroke="#FF8FAB" stroke-width="4" opacity="0.10" stroke-linecap="round"/><circle cx="402.0" cy="450.0" r="9" fill="#FF8FAB" opacity="0.08"/><path d="M 472.0 880 C 512.0 690 442.0 450 502.0 230" fill="none" stroke="#FF8FAB" stroke-width="4" opacity="0.10" stroke-linecap="round"/><circle cx="492.0" cy="450.0" r="9" fill="#FF8FAB" opacity="0.08"/><path d="M 562.0 880 C 602.0 690 532.0 450 592.0 230" fill="none" stroke="#FF8FAB" stroke-width="4" opacity="0.10" stroke-linecap="round"/><circle cx="582.0" cy="450.0" r="9" fill="#FF8FAB" opacity="0.08"/><path d="M 652.0 880 C 692.0 690 622.0 450 682.0 230" fill="none" stroke="#FF8FAB" stroke-width="4" opacity="0.10" stroke-linecap="round"/><circle cx="672.0" cy="450.0" r="9" fill="#FF8FAB" opacity="0.08"/></g>
        <g opacity="0.95">
          <circle cx="375.0" cy="500" r="88" fill="#ffffff" opacity="0.62" stroke="#1E1B2E" stroke-width="7"/>
          <circle cx="347.0" cy="482" r="10" fill="#1E1B2E" opacity="0.9"/>
          <circle cx="403.0" cy="482" r="10" fill="#1E1B2E" opacity="0.9"/>
          <path d="M 340.0 518 Q 375.0 540 410.0 518" fill="none" stroke="#1E1B2E" stroke-width="8" stroke-linecap="round"/>
          <rect x="235.0" y="570" width="280" height="330" rx="75" fill="#ffffff" opacity="0.50" stroke="#1E1B2E" stroke-width="7"/>
          <path d="M 265.0 680 Q 375.0 760 485.0 680" fill="none" stroke="#FF8FAB" stroke-width="10" opacity="0.35" stroke-linecap="round"/>
        </g>
        
        <g filter="url(#glow)">
          <circle cx="205.0" cy="720" r="85" fill="#ffffff" opacity="0.50" stroke="#1E1B2E" stroke-width="6"/>
          
        <g>
          <line x1="139.7" y1="750.4" x2="270.3" y2="689.6" stroke="#1E1B2E" stroke-width="6.3" stroke-linecap="round"/>
          <line x1="139.7" y1="750.4" x2="270.3" y2="689.6" stroke="#FF8FAB" stroke-width="2.7" stroke-linecap="round" opacity="0.55"/>
          
        <polygon points="270.3,689.6 235.6,681.5 220.4,712.8 254.2,721.3"
                 fill="#ffffff" stroke="#1E1B2E" stroke-width="5" opacity="0.92"/>
        
          <circle cx="139.7" cy="750.4" r="6.3" fill="#fff" stroke="#1E1B2E" stroke-width="5" opacity="0.9"/>
        </g>
        
        </g>
        <g filter="url(#glow)">
        <g>
          <line x1="463.5" y1="727.3" x2="666.5" y2="632.7" stroke="#1E1B2E" stroke-width="9.8" stroke-linecap="round"/>
          <line x1="463.5" y1="727.3" x2="666.5" y2="632.7" stroke="#FF8FAB" stroke-width="4.2" stroke-linecap="round" opacity="0.55"/>
          
        <polygon points="666.5,632.7 631.8,624.6 616.7,655.9 650.4,664.4"
                 fill="#ffffff" stroke="#1E1B2E" stroke-width="5" opacity="0.92"/>
        
          <circle cx="463.5" cy="727.3" r="9.8" fill="#fff" stroke="#1E1B2E" stroke-width="5" opacity="0.9"/>
        </g>
        </g><line x1="550.6" y1="550.5" x2="338.2" y2="573.9" stroke="#ffffff" stroke-width="2.2" opacity="0.11"/>
<line x1="338.2" y1="573.9" x2="416.1" y2="344.2" stroke="#ffffff" stroke-width="2.2" opacity="0.08"/>
<line x1="416.1" y1="344.2" x2="529.1" y2="537.9" stroke="#ffffff" stroke-width="2.2" opacity="0.18"/>
<line x1="529.1" y1="537.9" x2="222.8" y2="502.5" stroke="#ffffff" stroke-width="2.2" opacity="0.10"/>
<line x1="222.8" y1="502.5" x2="600.3" y2="583.6" stroke="#ffffff" stroke-width="2.2" opacity="0.12"/>
<line x1="600.3" y1="583.6" x2="461.8" y2="407.5" stroke="#ffffff" stroke-width="2.2" opacity="0.18"/>
<circle cx="230.5" cy="585.3" r="2.5" fill="#ffffff" opacity="0.2980566396270699"/>
<circle cx="222.8" cy="502.5" r="4.2" fill="#ffffff" opacity="0.7670200676794445"/>
<circle cx="600.3" cy="583.6" r="3.6" fill="#ffffff" opacity="0.8265452626474777"/>
<circle cx="338.2" cy="573.9" r="1.8" fill="#ffffff" opacity="0.3317890811406685"/>
<circle cx="243.4" cy="420.5" r="4.6" fill="#ffffff" opacity="0.6308920546030203"/>
<circle cx="550.6" cy="550.5" r="4.6" fill="#ffffff" opacity="0.6540308520803013"/>
<circle cx="571.3" cy="623.4" r="3.8" fill="#ffffff" opacity="0.6610127407071941"/>
<circle cx="349.9" cy="418.2" r="2.4" fill="#ffffff" opacity="0.759875804881578"/>
<circle cx="564.1" cy="286.2" r="3.1" fill="#ffffff" opacity="0.43546684341686315"/>
<circle cx="416.1" cy="344.2" r="3.1" fill="#ffffff" opacity="0.4748207634961732"/>
<circle cx="489.7" cy="569.7" r="4.0" fill="#ffffff" opacity="0.49591778791535557"/>
<circle cx="485.6" cy="566.8" r="1.9" fill="#ffffff" opacity="0.47993436223859276"/>
<circle cx="529.1" cy="537.9" r="3.9" fill="#ffffff" opacity="0.2775484013163658"/>
<circle cx="461.8" cy="407.5" r="4.5" fill="#ffffff" opacity="0.31401375064512776"/>
<rect x="42" y="1030" width="666" height="160" rx="30" fill="#ffffffd9" stroke="#1E1B2E" stroke-width="4" opacity="0.95"/>
<text x="375.0" y="1104" font-family="ui-sans-serif, system-ui, -apple-system, Segoe UI, Roboto, Helvetica, Arial" font-size="46" font-weight="900" text-anchor="middle" fill="#1E1B2E" opacity="0.98">Page of Wands</text>
<text x="375.0" y="1152" font-family="ui-sans-serif, system-ui, -apple-system, Segoe UI, Roboto, Helvetica, Arial" font-size="28" font-weight="700" text-anchor="middle" fill="#1E1B2E" opacity="0.7">Curious</text>

    <g opacity="0.55">
      <circle cx="127" cy="1176" r="14" fill="#FF8FAB"/>
      <circle cx="623" cy="1176" r="14" fill="#FF8FAB"/>
      <path d="M 162 1176 L 588 1176" stroke="#FF8FAB" stroke-width="4" opacity="0.45" stroke-linecap="round"/>
    </g>
    
</svg>
