<svg xmlns="http://www.w3.org/2000/svg" width="750" height="1250" viewBox="0 0 750 1250">
  <title>Queen of Wands</title>


  <defs>
    <linearGradient id="g" x1="0" y1="0" x2="1" y2="1">
      <stop offset="0%" stop-color="#EAF0FF"/>
      <stop offset="100%" stop-color="#FFF7E6"/>
    </linearGradient>

    <!-- paper texture -->
    <filter id="paper" x="-20%" y="-20%" width="140%" height="140%">
      <feTurbulence type="fractalNoise" baseFrequency="0.016" numOctaves="3" seed="4916" result="noise"/>
      <feColorMatrix in="noise" type="matrix"
        values="1 0 0 0 0
                0 1 0 0 0
                0 0 1 0 0
                0 0 0 0.25 0" result="noiseAlpha"/>
      <feComposite in="noiseAlpha" in2="SourceGraphic" operator="over"/>
    </filter>

    <!-- soft glow -->
    <filter id="glow" x="-30%" y="-30%" width="160%" height="160%">
      <feGaussianBlur stdDeviation="10" result="blur"/>
      <feColorMatrix type="matrix" values="
        1 0 0 0 0
        0 1 0 0 0
        0 0 1 0 0
        0 0 0 0.32 0" result="blurAlpha"/>
      <feMerge>
        <feMergeNode in="blurAlpha"/>
        <feMergeNode in="SourceGraphic"/>
      </feMerge>
    </filter>
  </defs>

<rect x="0" y="0" width="750" height="1250" rx="58" ry="58" fill="url(#g)" stroke="none" stroke-width="0" opacity="1"/>
<rect x="0" y="0" width="750" height="1250" fill="#ffffff" opacity="0.08"/>
<line x1="199.8" y1="548.3" x2="144.2" y2="189.3" stroke="#ffffff" stroke-width="2.2" opacity="0.15"/>
<line x1="144.2" y1="189.3" x2="523.5" y2="146.5" stroke="#ffffff" stroke-width="2.2" opacity="0.12"/>
<line x1="523.5" y1="146.5" x2="647.2" y2="273.7" stroke="#ffffff" stroke-width="2.2" opacity="0.14"/>
<line x1="647.2" y1="273.7" x2="49.4" y2="699.4" stroke="#ffffff" stroke-width="2.2" opacity="0.16"/>
<line x1="49.4" y1="699.4" x2="151.9" y2="1159.6" stroke="#ffffff" stroke-width="2.2" opacity="0.21"/>
<line x1="151.9" y1="1159.6" x2="696.4" y2="1070.3" stroke="#ffffff" stroke-width="2.2" opacity="0.21"/>
<line x1="696.4" y1="1070.3" x2="197.5" y2="46.4" stroke="#ffffff" stroke-width="2.2" opacity="0.12"/>
<line x1="197.5" y1="46.4" x2="675.0" y2="230.2" stroke="#ffffff" stroke-width="2.2" opacity="0.22"/>
<line x1="675.0" y1="230.2" x2="367.8" y2="1073.2" stroke="#ffffff" stroke-width="2.2" opacity="0.20"/>
<line x1="367.8" y1="1073.2" x2="261.9" y2="521.1" stroke="#ffffff" stroke-width="2.2" opacity="0.20"/>
<line x1="261.9" y1="521.1" x2="607.1" y2="709.1" stroke="#ffffff" stroke-width="2.2" opacity="0.20"/>
<line x1="607.1" y1="709.1" x2="677.9" y2="160.1" stroke="#ffffff" stroke-width="2.2" opacity="0.16"/>
<line x1="677.9" y1="160.1" x2="339.3" y2="871.9" stroke="#ffffff" stroke-width="2.2" opacity="0.14"/>
<line x1="339.3" y1="871.9" x2="101.1" y2="460.5" stroke="#ffffff" stroke-width="2.2" opacity="0.21"/>
<line x1="101.1" y1="460.5" x2="639.9" y2="891.0" stroke="#ffffff" stroke-width="2.2" opacity="0.17"/>
<line x1="639.9" y1="891.0" x2="621.8" y2="964.0" stroke="#ffffff" stroke-width="2.2" opacity="0.19"/>
<line x1="621.8" y1="964.0" x2="694.1" y2="487.3" stroke="#ffffff" stroke-width="2.2" opacity="0.11"/>
<line x1="694.1" y1="487.3" x2="240.3" y2="646.8" stroke="#ffffff" stroke-width="2.2" opacity="0.17"/>
<circle cx="258.9" cy="981.7" r="4.1" fill="#ffffff" opacity="0.7128434558196417"/>
<circle cx="697.8" cy="301.7" r="3.9" fill="#ffffff" opacity="0.3848192127066903"/>
<circle cx="255.7" cy="627.4" r="2.1" fill="#ffffff" opacity="0.43553568813383176"/>
<circle cx="688.1" cy="584.0" r="2.4" fill="#ffffff" opacity="0.3268995513431885"/>
<circle cx="197.5" cy="46.4" r="2.4" fill="#ffffff" opacity="0.3204665948812333"/>
<circle cx="506.3" cy="980.3" r="4.1" fill="#ffffff" opacity="0.4559115744234037"/>
<circle cx="364.0" cy="1156.0" r="1.9" fill="#ffffff" opacity="0.5165747736461967"/>
<circle cx="356.7" cy="528.1" r="2.0" fill="#ffffff" opacity="0.7393658444217065"/>
<circle cx="403.1" cy="421.2" r="2.9" fill="#ffffff" opacity="0.7346567066907281"/>
<circle cx="331.2" cy="948.8" r="2.1" fill="#ffffff" opacity="0.6791305649351949"/>
<circle cx="421.9" cy="699.8" r="1.7" fill="#ffffff" opacity="0.6126552736191111"/>
<circle cx="647.2" cy="273.7" r="4.7" fill="#ffffff" opacity="0.4455892062471883"/>
<circle cx="339.3" cy="871.9" r="2.6" fill="#ffffff" opacity="0.7528153946223896"/>
<circle cx="163.6" cy="516.9" r="2.7" fill="#ffffff" opacity="0.8196565154777864"/>
<circle cx="607.1" cy="709.1" r="4.6" fill="#ffffff" opacity="0.36164278265878"/>
<circle cx="565.1" cy="533.0" r="2.5" fill="#ffffff" opacity="0.47084098506383565"/>
<circle cx="357.8" cy="168.4" r="3.8" fill="#ffffff" opacity="0.5760447593964801"/>
<circle cx="199.8" cy="548.3" r="2.6" fill="#ffffff" opacity="0.5081494830763278"/>
<circle cx="59.4" cy="1122.2" r="2.6" fill="#ffffff" opacity="0.2800598014165057"/>
<circle cx="677.9" cy="160.1" r="4.6" fill="#ffffff" opacity="0.2772569489595633"/>
<circle cx="658.3" cy="360.9" r="1.8" fill="#ffffff" opacity="0.5991055159712786"/>
<circle cx="272.6" cy="1207.6" r="4.5" fill="#ffffff" opacity="0.7683986218545185"/>
<circle cx="240.3" cy="646.8" r="3.8" fill="#ffffff" opacity="0.4723807002411261"/>
<circle cx="694.1" cy="487.3" r="3.7" fill="#ffffff" opacity="0.26765400892503527"/>
<circle cx="696.4" cy="1070.3" r="3.7" fill="#ffffff" opacity="0.4405644906994036"/>
<circle cx="49.4" cy="699.4" r="3.1" fill="#ffffff" opacity="0.7020358545498284"/>
<circle cx="343.3" cy="294.1" r="4.7" fill="#ffffff" opacity="0.40952508965204415"/>
<circle cx="507.7" cy="972.6" r="3.1" fill="#ffffff" opacity="0.33560381304624765"/>
<circle cx="595.6" cy="1000.6" r="4.6" fill="#ffffff" opacity="0.7920300789701304"/>
<circle cx="523.5" cy="146.5" r="2.4" fill="#ffffff" opacity="0.6192737621482738"/>
<circle cx="261.9" cy="521.1" r="1.7" fill="#ffffff" opacity="0.5922994062282132"/>
<circle cx="395.2" cy="750.7" r="1.7" fill="#ffffff" opacity="0.2773072868393863"/>
<circle cx="267.8" cy="710.0" r="3.8" fill="#ffffff" opacity="0.8496891378995408"/>
<circle cx="621.8" cy="964.0" r="1.6" fill="#ffffff" opacity="0.6344554928717508"/>
<circle cx="391.5" cy="781.2" r="3.5" fill="#ffffff" opacity="0.28697653303196025"/>
<circle cx="405.5" cy="784.9" r="1.8" fill="#ffffff" opacity="0.40723809107304565"/>
<circle cx="101.1" cy="460.5" r="4.7" fill="#ffffff" opacity="0.5325275553770659"/>
<circle cx="326.3" cy="1080.0" r="4.5" fill="#ffffff" opacity="0.4231285069223434"/>
<circle cx="675.0" cy="230.2" r="1.8" fill="#ffffff" opacity="0.4492074018828236"/>
<circle cx="550.4" cy="806.6" r="4.0" fill="#ffffff" opacity="0.33427321994990417"/>
<circle cx="448.8" cy="1198.5" r="1.8" fill="#ffffff" opacity="0.4786706000845021"/>
<circle cx="150.5" cy="833.7" r="2.3" fill="#ffffff" opacity="0.733003632354169"/>
<circle cx="598.6" cy="351.9" r="4.8" fill="#ffffff" opacity="0.6283112030131262"/>
<circle cx="546.8" cy="724.7" r="1.8" fill="#ffffff" opacity="0.41400339016348475"/>
<circle cx="367.8" cy="1073.2" r="2.4" fill="#ffffff" opacity="0.8017353418591204"/>
<circle cx="144.2" cy="189.3" r="3.7" fill="#ffffff" opacity="0.5077143640304083"/>
<circle cx="151.9" cy="1159.6" r="3.0" fill="#ffffff" opacity="0.6571355387305156"/>
<circle cx="340.0" cy="482.4" r="3.8" fill="#ffffff" opacity="0.540086622470396"/>
<circle cx="639.9" cy="891.0" r="2.2" fill="#ffffff" opacity="0.8068856854030199"/>
<circle cx="242.5" cy="1196.2" r="2.4" fill="#ffffff" opacity="0.5546860032748708"/>
<g filter="url(#paper)"><rect x="42" y="42" width="666" height="1166" rx="54" ry="54" fill="none" stroke="#1E1B2E" stroke-width="8" opacity="0.95"/>
<rect x="60" y="60" width="630" height="1130" rx="46" ry="46" fill="none" stroke="#FF8FAB" stroke-width="3" opacity="0.35"/>

  <g opacity="0.42">
    <circle cx="375.0" cy="560" r="285" fill="none" stroke="#FF8FAB" stroke-width="4.2" opacity="0.42"/>
    <circle cx="375.0" cy="560" r="233.7" fill="none" stroke="#FF8FAB" stroke-width="2.2" opacity="0.23"/>
    <line x1="642.0" y1="560.0" x2="674.0" y2="560.0" stroke="#FF8FAB" stroke-width="3.2" opacity="0.23" stroke-linecap="round"/><line x1="606.2" y1="693.5" x2="633.9" y2="709.5" stroke="#FF8FAB" stroke-width="3.2" opacity="0.23" stroke-linecap="round"/><line x1="508.5" y1="791.2" x2="524.5" y2="818.9" stroke="#FF8FAB" stroke-width="3.2" opacity="0.23" stroke-linecap="round"/><line x1="375.0" y1="827.0" x2="375.0" y2="859.0" stroke="#FF8FAB" stroke-width="3.2" opacity="0.23" stroke-linecap="round"/><line x1="241.5" y1="791.2" x2="225.5" y2="818.9" stroke="#FF8FAB" stroke-width="3.2" opacity="0.23" stroke-linecap="round"/><line x1="143.8" y1="693.5" x2="116.1" y2="709.5" stroke="#FF8FAB" stroke-width="3.2" opacity="0.23" stroke-linecap="round"/><line x1="108.0" y1="560.0" x2="76.0" y2="560.0" stroke="#FF8FAB" stroke-width="3.2" opacity="0.23" stroke-linecap="round"/><line x1="143.8" y1="426.5" x2="116.1" y2="410.5" stroke="#FF8FAB" stroke-width="3.2" opacity="0.23" stroke-linecap="round"/><line x1="241.5" y1="328.8" x2="225.5" y2="301.1" stroke="#FF8FAB" stroke-width="3.2" opacity="0.23" stroke-linecap="round"/><line x1="375.0" y1="293.0" x2="375.0" y2="261.0" stroke="#FF8FAB" stroke-width="3.2" opacity="0.23" stroke-linecap="round"/><line x1="508.5" y1="328.8" x2="524.5" y2="301.1" stroke="#FF8FAB" stroke-width="3.2" opacity="0.23" stroke-linecap="round"/><line x1="606.2" y1="426.5" x2="633.9" y2="410.5" stroke="#FF8FAB" stroke-width="3.2" opacity="0.23" stroke-linecap="round"/>
    <circle cx="660.0" cy="560.4" r="3.9" fill="#FF8FAB" opacity="0.37"/><circle cx="651.9" cy="627.5" r="3.2" fill="#FF8FAB" opacity="0.22"/><circle cx="623.0" cy="700.5" r="3.7" fill="#FF8FAB" opacity="0.37"/><circle cx="572.8" cy="765.2" r="4.0" fill="#FF8FAB" opacity="0.38"/><circle cx="510.2" cy="810.9" r="2.9" fill="#FF8FAB" opacity="0.41"/><circle cx="457.7" cy="832.7" r="3.0" fill="#FF8FAB" opacity="0.27"/><circle cx="373.9" cy="845.0" r="3.2" fill="#FF8FAB" opacity="0.34"/><circle cx="307.7" cy="836.9" r="3.3" fill="#FF8FAB" opacity="0.30"/><circle cx="241.0" cy="811.5" r="3.5" fill="#FF8FAB" opacity="0.35"/><circle cx="176.9" cy="764.9" r="3.2" fill="#FF8FAB" opacity="0.35"/><circle cx="130.8" cy="707.0" r="3.0" fill="#FF8FAB" opacity="0.43"/><circle cx="102.3" cy="642.8" r="2.8" fill="#FF8FAB" opacity="0.23"/><circle cx="90.0" cy="556.5" r="3.7" fill="#FF8FAB" opacity="0.32"/><circle cx="99.1" cy="488.7" r="3.5" fill="#FF8FAB" opacity="0.29"/><circle cx="124.2" cy="424.7" r="3.0" fill="#FF8FAB" opacity="0.20"/><circle cx="175.3" cy="356.6" r="3.6" fill="#FF8FAB" opacity="0.26"/><circle cx="234.5" cy="312.0" r="2.6" fill="#FF8FAB" opacity="0.38"/><circle cx="306.3" cy="283.4" r="3.8" fill="#FF8FAB" opacity="0.41"/><circle cx="365.2" cy="275.2" r="3.8" fill="#FF8FAB" opacity="0.40"/><circle cx="449.9" cy="285.0" r="2.9" fill="#FF8FAB" opacity="0.26"/><circle cx="509.8" cy="308.9" r="3.6" fill="#FF8FAB" opacity="0.21"/><circle cx="579.3" cy="361.3" r="2.8" fill="#FF8FAB" opacity="0.43"/><circle cx="617.9" cy="411.0" r="3.3" fill="#FF8FAB" opacity="0.36"/><circle cx="651.0" cy="488.9" r="3.3" fill="#FF8FAB" opacity="0.32"/>
  </g>

<g><g transform="translate(50,54)"><path d="M 18.0 117.0 C 45.0 45.0, 99.0 27.0, 153.0 54.0" fill="none" stroke="#FF8FAB" stroke-width="6" opacity="0.55" stroke-linecap="round"/></g><g transform="translate(700,54) scale(-1,1)"><path d="M 18.0 117.0 C 45.0 45.0, 99.0 27.0, 153.0 54.0" fill="none" stroke="#FF8FAB" stroke-width="6" opacity="0.55" stroke-linecap="round"/></g><g transform="translate(50,1196) scale(1,-1)"><path d="M 18.0 117.0 C 45.0 45.0, 99.0 27.0, 153.0 54.0" fill="none" stroke="#FF8FAB" stroke-width="6" opacity="0.55" stroke-linecap="round"/></g><g transform="translate(700,1196) scale(-1,-1)"><path d="M 18.0 117.0 C 45.0 45.0, 99.0 27.0, 153.0 54.0" fill="none" stroke="#FF8FAB" stroke-width="6" opacity="0.55" stroke-linecap="round"/></g></g></g>
<rect x="42" y="60" width="666" height="92" rx="30" fill="#ffffffcc" stroke="#1E1B2E" stroke-width="4" opacity="0.95"/>
<text x="375.0" y="122" font-family="ui-sans-serif, system-ui, -apple-system, Segoe UI, Roboto, Helvetica, Arial" font-size="30" font-weight="800" text-anchor="middle" fill="#1E1B2E" opacity="0.95" letter-spacing="1">MINOR ARCANA • WANDS</text>
<rect x="76" y="170" width="598" height="760" rx="52" fill="#ffffff" opacity="0.15"/>
<g><path d="M 112.0 880 C 152.0 690 82.0 450 142.0 230" fill="none" stroke="#FF8FAB" stroke-width="4" opacity="0.10" stroke-linecap="round"/><circle cx="132.0" cy="450.0" r="9" fill="#FF8FAB" opacity="0.08"/><path d="M 202.0 880 C 242.0 690 172.0 450 232.0 230" fill="none" stroke="#FF8FAB" stroke-width="4" opacity="0.10" stroke-linecap="round"/><circle cx="222.0" cy="450.0" r="9" fill="#FF8FAB" opacity="0.08"/><path d="M 292.0 880 C 332.0 690 262.0 450 322.0 230" fill="none" stroke="#FF8FAB" stroke-width="4" opacity="0.10" stroke-linecap="round"/><circle cx="312.0" cy="450.0" r="9" fill="#FF8FAB" opacity="0.08"/><path d="M 382.0 880 C 422.0 690 352.0 450 412.0 230" fill="none" stroke="#FF8FAB" stroke-width="4" opacity="0.10" stroke-linecap="round"/><circle cx="402.0" cy="450.0" r="9" fill="#FF8FAB" opacity="0.08"/><path d="M 472.0 880 C 512.0 690 442.0 450 502.0 230" fill="none" stroke="#FF8FAB" stroke-width="4" opacity="0.10" stroke-linecap="round"/><circle cx="492.0" cy="450.0" r="9" fill="#FF8FAB" opacity="0.08"/><path d="M 562.0 880 C 602.0 690 532.0 450 592.0 230" fill="none" stroke="#FF8FAB" stroke-width="4" opacity="0.10" stroke-linecap="round"/><circle cx="582.0" cy="450.0" r="9" fill="#FF8FAB" opacity="0.08"/><path d="M 652.0 880 C 692.0 690 622.0 450 682.0 230" fill="none" stroke="#FF8FAB" stroke-width="4" opacity="0.10" stroke-linecap="round"/><circle cx="672.0" cy="450.0" r="9" fill="#FF8FAB" opacity="0.08"/></g><path d="M 255.0 320 Q 375.0 260 495.0 320 L 475.0 370 L 275.0 370 Z" fill="#ffffff" opacity="0.55" stroke="#FF8FAB" stroke-width="6"/>
        <g opacity="0.95">
          <circle cx="375.0" cy="500" r="88" fill="#ffffff" opacity="0.62" stroke="#1E1B2E" stroke-width="7"/>
          <circle cx="347.0" cy="482" r="10" fill="#1E1B2E" opacity="0.9"/>
          <circle cx="403.0" cy="482" r="10" fill="#1E1B2E" opacity="0.9"/>
          <path d="M 340.0 518 Q 375.0 540 410.0 518" fill="none" stroke="#1E1B2E" stroke-width="8" stroke-linecap="round"/>
          <rect x="235.0" y="570" width="280" height="330" rx="75" fill="#ffffff" opacity="0.50" stroke="#1E1B2E" stroke-width="7"/>
          <path d="M 265.0 680 Q 375.0 760 485.0 680" fill="none" stroke="#FF8FAB" stroke-width="10" opacity="0.35" stroke-linecap="round"/>
        </g>
        
        <g filter="url(#glow)">
          <circle cx="205.0" cy="720" r="85" fill="#ffffff" opacity="0.50" stroke="#1E1B2E" stroke-width="6"/>
          
        <g>
          <line x1="139.7" y1="750.4" x2="270.3" y2="689.6" stroke="#1E1B2E" stroke-width="6.3" stroke-linecap="round"/>
          <line x1="139.7" y1="750.4" x2="270.3" y2="689.6" stroke="#FF8FAB" stroke-width="2.7" stroke-linecap="round" opacity="0.55"/>
          
        <polygon points="270.3,689.6 235.6,681.5 220.4,712.8 254.2,721.3"
                 fill="#ffffff" stroke="#1E1B2E" stroke-width="5" opacity="0.92"/>
        
          <circle cx="139.7" cy="750.4" r="6.3" fill="#fff" stroke="#1E1B2E" stroke-width="5" opacity="0.9"/>
        </g>
        
        </g>
        <g filter="url(#glow)">
        <g>
          <line x1="463.5" y1="727.3" x2="666.5" y2="632.7" stroke="#1E1B2E" stroke-width="9.8" stroke-linecap="round"/>
          <line x1="463.5" y1="727.3" x2="666.5" y2="632.7" stroke="#FF8FAB" stroke-width="4.2" stroke-linecap="round" opacity="0.55"/>
          
        <polygon points="666.5,632.7 631.8,624.6 616.7,655.9 650.4,664.4"
                 fill="#ffffff" stroke="#1E1B2E" stroke-width="5" opacity="0.92"/>
        
          <circle cx="463.5" cy="727.3" r="9.8" fill="#fff" stroke="#1E1B2E" stroke-width="5" opacity="0.9"/>
        </g>
        </g><line x1="476.0" y1="660.0" x2="317.1" y2="470.8" stroke="#ffffff" stroke-width="2.2" opacity="0.12"/>
<line x1="317.1" y1="470.8" x2="532.2" y2="560.7" stroke="#ffffff" stroke-width="2.2" opacity="0.13"/>
<line x1="532.2" y1="560.7" x2="620.1" y2="423.9" stroke="#ffffff" stroke-width="2.2" opacity="0.12"/>
<line x1="620.1" y1="423.9" x2="234.9" y2="333.0" stroke="#ffffff" stroke-width="2.2" opacity="0.18"/>
<line x1="234.9" y1="333.0" x2="172.7" y2="481.4" stroke="#ffffff" stroke-width="2.2" opacity="0.16"/>
<line x1="172.7" y1="481.4" x2="347.0" y2="530.4" stroke="#ffffff" stroke-width="2.2" opacity="0.19"/>
<circle cx="251.9" cy="232.7" r="2.6" fill="#ffffff" opacity="0.39487155065712043"/>
<circle cx="532.2" cy="560.7" r="1.7" fill="#ffffff" opacity="0.6641220255231491"/>
<circle cx="347.0" cy="530.4" r="4.3" fill="#ffffff" opacity="0.7413759286800194"/>
<circle cx="412.9" cy="462.2" r="1.9" fill="#ffffff" opacity="0.39178981448508665"/>
<circle cx="520.7" cy="399.9" r="2.9" fill="#ffffff" opacity="0.5371707344524134"/>
<circle cx="390.3" cy="604.7" r="2.1" fill="#ffffff" opacity="0.8347109071926219"/>
<circle cx="363.1" cy="650.5" r="2.4" fill="#ffffff" opacity="0.5676616912888164"/>
<circle cx="317.1" cy="470.8" r="2.7" fill="#ffffff" opacity="0.7528206625271794"/>
<circle cx="476.0" cy="660.0" r="4.3" fill="#ffffff" opacity="0.8032907447178996"/>
<circle cx="172.7" cy="481.4" r="1.8" fill="#ffffff" opacity="0.7771822412001015"/>
<circle cx="620.1" cy="423.9" r="2.4" fill="#ffffff" opacity="0.30912656014453715"/>
<circle cx="287.1" cy="344.2" r="4.7" fill="#ffffff" opacity="0.7530948349199031"/>
<circle cx="234.9" cy="333.0" r="2.2" fill="#ffffff" opacity="0.5329126707486482"/>
<circle cx="210.1" cy="403.7" r="4.1" fill="#ffffff" opacity="0.4490438018695679"/>
<rect x="42" y="1030" width="666" height="160" rx="30" fill="#ffffffd9" stroke="#1E1B2E" stroke-width="4" opacity="0.95"/>
<text x="375.0" y="1104" font-family="ui-sans-serif, system-ui, -apple-system, Segoe UI, Roboto, Helvetica, Arial" font-size="46" font-weight="900" text-anchor="middle" fill="#1E1B2E" opacity="0.98">Queen of Wands</text>
<text x="375.0" y="1152" font-family="ui-sans-serif, system-ui, -apple-system, Segoe UI, Roboto, Helvetica, Arial" font-size="28" font-weight="700" text-anchor="middle" fill="#1E1B2E" opacity="0.7">Warm</text>

    <g opacity="0.55">
      <circle cx="127" cy="1176" r="14" fill="#FF8FAB"/>
      <circle cx="623" cy="1176" r="14" fill="#FF8FAB"/>
      <path d="M 162 1176 L 588 1176" stroke="#FF8FAB" stroke-width="4" opacity="0.45" stroke-linecap="round"/>
    </g>
    
</svg>
