<svg xmlns="http://www.w3.org/2000/svg" width="750" height="1250" viewBox="0 0 750 1250">
  <title>King of Wands</title>


  <defs>
    <linearGradient id="g" x1="0" y1="0" x2="1" y2="1">
      <stop offset="0%" stop-color="#FFE6F2"/>
      <stop offset="100%" stop-color="#E6F7FF"/>
    </linearGradient>

    <!-- paper texture -->
    <filter id="paper" x="-20%" y="-20%" width="140%" height="140%">
      <feTurbulence type="fractalNoise" baseFrequency="0.017" numOctaves="3" seed="6762" result="noise"/>
      <feColorMatrix in="noise" type="matrix"
        values="1 0 0 0 0
                0 1 0 0 0
                0 0 1 0 0
                0 0 0 0.25 0" result="noiseAlpha"/>
      <feComposite in="noiseAlpha" in2="SourceGraphic" operator="over"/>
    </filter>

    <!-- soft glow -->
    <filter id="glow" x="-30%" y="-30%" width="160%" height="160%">
      <feGaussianBlur stdDeviation="10" result="blur"/>
      <feColorMatrix type="matrix" values="
        1 0 0 0 0
        0 1 0 0 0
        0 0 1 0 0
        0 0 0 0.32 0" result="blurAlpha"/>
      <feMerge>
        <feMergeNode in="blurAlpha"/>
        <feMergeNode in="SourceGraphic"/>
      </feMerge>
    </filter>
  </defs>

<rect x="0" y="0" width="750" height="1250" rx="58" ry="58" fill="url(#g)" stroke="none" stroke-width="0" opacity="1"/>
<rect x="0" y="0" width="750" height="1250" fill="#ffffff" opacity="0.08"/>
<line x1="219.6" y1="553.2" x2="114.3" y2="795.4" stroke="#ffffff" stroke-width="2.2" opacity="0.17"/>
<line x1="114.3" y1="795.4" x2="373.5" y2="517.8" stroke="#ffffff" stroke-width="2.2" opacity="0.21"/>
<line x1="373.5" y1="517.8" x2="62.9" y2="854.7" stroke="#ffffff" stroke-width="2.2" opacity="0.10"/>
<line x1="62.9" y1="854.7" x2="365.9" y2="373.1" stroke="#ffffff" stroke-width="2.2" opacity="0.21"/>
<line x1="365.9" y1="373.1" x2="253.0" y2="105.5" stroke="#ffffff" stroke-width="2.2" opacity="0.14"/>
<line x1="253.0" y1="105.5" x2="404.2" y2="670.6" stroke="#ffffff" stroke-width="2.2" opacity="0.21"/>
<line x1="404.2" y1="670.6" x2="200.4" y2="364.3" stroke="#ffffff" stroke-width="2.2" opacity="0.12"/>
<line x1="200.4" y1="364.3" x2="489.7" y2="609.4" stroke="#ffffff" stroke-width="2.2" opacity="0.14"/>
<line x1="489.7" y1="609.4" x2="288.2" y2="844.4" stroke="#ffffff" stroke-width="2.2" opacity="0.18"/>
<line x1="288.2" y1="844.4" x2="296.1" y2="340.0" stroke="#ffffff" stroke-width="2.2" opacity="0.14"/>
<line x1="296.1" y1="340.0" x2="201.5" y2="659.6" stroke="#ffffff" stroke-width="2.2" opacity="0.14"/>
<line x1="201.5" y1="659.6" x2="222.1" y2="821.7" stroke="#ffffff" stroke-width="2.2" opacity="0.13"/>
<line x1="222.1" y1="821.7" x2="684.7" y2="100.5" stroke="#ffffff" stroke-width="2.2" opacity="0.12"/>
<line x1="684.7" y1="100.5" x2="392.4" y2="125.4" stroke="#ffffff" stroke-width="2.2" opacity="0.20"/>
<line x1="392.4" y1="125.4" x2="562.9" y2="1182.9" stroke="#ffffff" stroke-width="2.2" opacity="0.18"/>
<line x1="562.9" y1="1182.9" x2="358.7" y2="68.9" stroke="#ffffff" stroke-width="2.2" opacity="0.12"/>
<line x1="358.7" y1="68.9" x2="75.1" y2="317.8" stroke="#ffffff" stroke-width="2.2" opacity="0.19"/>
<line x1="75.1" y1="317.8" x2="209.2" y2="765.0" stroke="#ffffff" stroke-width="2.2" opacity="0.09"/>
<circle cx="392.4" cy="125.4" r="4.7" fill="#ffffff" opacity="0.3372551615782212"/>
<circle cx="253.0" cy="105.5" r="3.9" fill="#ffffff" opacity="0.35435832211059143"/>
<circle cx="365.9" cy="373.1" r="1.8" fill="#ffffff" opacity="0.7038378505069678"/>
<circle cx="489.7" cy="609.4" r="3.1" fill="#ffffff" opacity="0.5192575034086895"/>
<circle cx="300.1" cy="135.3" r="4.3" fill="#ffffff" opacity="0.44640358769966615"/>
<circle cx="209.2" cy="765.0" r="4.6" fill="#ffffff" opacity="0.4086860661074646"/>
<circle cx="472.6" cy="463.5" r="1.7" fill="#ffffff" opacity="0.8095013224731425"/>
<circle cx="88.5" cy="641.5" r="3.3" fill="#ffffff" opacity="0.7338190008911529"/>
<circle cx="404.2" cy="670.6" r="2.3" fill="#ffffff" opacity="0.7371317116314356"/>
<circle cx="226.7" cy="1150.7" r="1.7" fill="#ffffff" opacity="0.8205398270337788"/>
<circle cx="219.6" cy="553.2" r="2.5" fill="#ffffff" opacity="0.4652040445640958"/>
<circle cx="201.5" cy="659.6" r="3.3" fill="#ffffff" opacity="0.5626294911658121"/>
<circle cx="485.3" cy="852.3" r="3.5" fill="#ffffff" opacity="0.27301786110749404"/>
<circle cx="554.5" cy="763.3" r="4.1" fill="#ffffff" opacity="0.7047999623499069"/>
<circle cx="561.7" cy="465.3" r="2.9" fill="#ffffff" opacity="0.5850255181935129"/>
<circle cx="562.9" cy="1182.9" r="2.1" fill="#ffffff" opacity="0.6305135668746877"/>
<circle cx="296.1" cy="340.0" r="3.8" fill="#ffffff" opacity="0.6201947261301128"/>
<circle cx="219.3" cy="1027.0" r="3.4" fill="#ffffff" opacity="0.5692518175926689"/>
<circle cx="435.4" cy="699.1" r="2.9" fill="#ffffff" opacity="0.35436620668967383"/>
<circle cx="331.7" cy="1104.3" r="2.6" fill="#ffffff" opacity="0.3221117872332143"/>
<circle cx="373.5" cy="517.8" r="4.5" fill="#ffffff" opacity="0.6176997818142058"/>
<circle cx="693.5" cy="1111.4" r="3.5" fill="#ffffff" opacity="0.2763097750915219"/>
<circle cx="200.4" cy="364.3" r="1.6" fill="#ffffff" opacity="0.5685209570687066"/>
<circle cx="129.7" cy="1193.4" r="4.7" fill="#ffffff" opacity="0.5091948737026619"/>
<circle cx="358.7" cy="68.9" r="3.6" fill="#ffffff" opacity="0.45624238594304367"/>
<circle cx="105.4" cy="511.5" r="2.7" fill="#ffffff" opacity="0.45233041998751"/>
<circle cx="222.1" cy="821.7" r="4.3" fill="#ffffff" opacity="0.6924585648159358"/>
<circle cx="174.0" cy="164.7" r="2.6" fill="#ffffff" opacity="0.41813285201094086"/>
<circle cx="75.1" cy="317.8" r="3.5" fill="#ffffff" opacity="0.6476865991095535"/>
<circle cx="663.7" cy="387.8" r="1.7" fill="#ffffff" opacity="0.4709535248376133"/>
<circle cx="55.4" cy="614.6" r="1.8" fill="#ffffff" opacity="0.8066954868840345"/>
<circle cx="473.6" cy="350.1" r="4.7" fill="#ffffff" opacity="0.2500175924797054"/>
<circle cx="288.2" cy="844.4" r="4.6" fill="#ffffff" opacity="0.5760184592072215"/>
<circle cx="62.9" cy="854.7" r="2.4" fill="#ffffff" opacity="0.36951188067940616"/>
<circle cx="469.6" cy="571.7" r="1.8" fill="#ffffff" opacity="0.7268723483776846"/>
<circle cx="88.9" cy="224.6" r="1.6" fill="#ffffff" opacity="0.5812579604349897"/>
<circle cx="246.0" cy="955.7" r="2.9" fill="#ffffff" opacity="0.7691940556742437"/>
<circle cx="114.3" cy="795.4" r="1.8" fill="#ffffff" opacity="0.34597869580399415"/>
<circle cx="658.7" cy="152.8" r="4.2" fill="#ffffff" opacity="0.8102709141235688"/>
<circle cx="81.2" cy="1043.5" r="2.0" fill="#ffffff" opacity="0.7483345745474197"/>
<circle cx="308.2" cy="882.2" r="2.3" fill="#ffffff" opacity="0.6887319955752953"/>
<circle cx="156.1" cy="365.7" r="2.2" fill="#ffffff" opacity="0.7439974116152137"/>
<circle cx="586.1" cy="835.0" r="3.8" fill="#ffffff" opacity="0.6669913662640633"/>
<circle cx="74.6" cy="160.1" r="4.4" fill="#ffffff" opacity="0.40646375789922984"/>
<circle cx="169.7" cy="213.4" r="4.7" fill="#ffffff" opacity="0.30729331136108956"/>
<circle cx="581.0" cy="167.3" r="1.8" fill="#ffffff" opacity="0.7907853986396869"/>
<circle cx="395.5" cy="238.4" r="3.0" fill="#ffffff" opacity="0.7547959583397318"/>
<circle cx="140.5" cy="818.5" r="3.8" fill="#ffffff" opacity="0.4993510862046388"/>
<circle cx="268.2" cy="818.8" r="1.9" fill="#ffffff" opacity="0.547365319115243"/>
<circle cx="684.7" cy="100.5" r="2.3" fill="#ffffff" opacity="0.362138712884449"/>
<g filter="url(#paper)"><rect x="42" y="42" width="666" height="1166" rx="54" ry="54" fill="none" stroke="#1E1B2E" stroke-width="8" opacity="0.95"/>
<rect x="60" y="60" width="630" height="1130" rx="46" ry="46" fill="none" stroke="#FF8FAB" stroke-width="3" opacity="0.35"/>

  <g opacity="0.42">
    <circle cx="375.0" cy="560" r="285" fill="none" stroke="#FF8FAB" stroke-width="4.2" opacity="0.42"/>
    <circle cx="375.0" cy="560" r="233.7" fill="none" stroke="#FF8FAB" stroke-width="2.2" opacity="0.23"/>
    <line x1="642.0" y1="560.0" x2="674.0" y2="560.0" stroke="#FF8FAB" stroke-width="3.2" opacity="0.23" stroke-linecap="round"/><line x1="606.2" y1="693.5" x2="633.9" y2="709.5" stroke="#FF8FAB" stroke-width="3.2" opacity="0.23" stroke-linecap="round"/><line x1="508.5" y1="791.2" x2="524.5" y2="818.9" stroke="#FF8FAB" stroke-width="3.2" opacity="0.23" stroke-linecap="round"/><line x1="375.0" y1="827.0" x2="375.0" y2="859.0" stroke="#FF8FAB" stroke-width="3.2" opacity="0.23" stroke-linecap="round"/><line x1="241.5" y1="791.2" x2="225.5" y2="818.9" stroke="#FF8FAB" stroke-width="3.2" opacity="0.23" stroke-linecap="round"/><line x1="143.8" y1="693.5" x2="116.1" y2="709.5" stroke="#FF8FAB" stroke-width="3.2" opacity="0.23" stroke-linecap="round"/><line x1="108.0" y1="560.0" x2="76.0" y2="560.0" stroke="#FF8FAB" stroke-width="3.2" opacity="0.23" stroke-linecap="round"/><line x1="143.8" y1="426.5" x2="116.1" y2="410.5" stroke="#FF8FAB" stroke-width="3.2" opacity="0.23" stroke-linecap="round"/><line x1="241.5" y1="328.8" x2="225.5" y2="301.1" stroke="#FF8FAB" stroke-width="3.2" opacity="0.23" stroke-linecap="round"/><line x1="375.0" y1="293.0" x2="375.0" y2="261.0" stroke="#FF8FAB" stroke-width="3.2" opacity="0.23" stroke-linecap="round"/><line x1="508.5" y1="328.8" x2="524.5" y2="301.1" stroke="#FF8FAB" stroke-width="3.2" opacity="0.23" stroke-linecap="round"/><line x1="606.2" y1="426.5" x2="633.9" y2="410.5" stroke="#FF8FAB" stroke-width="3.2" opacity="0.23" stroke-linecap="round"/>
    <circle cx="660.0" cy="559.5" r="2.8" fill="#FF8FAB" opacity="0.36"/><circle cx="649.3" cy="637.2" r="3.6" fill="#FF8FAB" opacity="0.34"/><circle cx="618.3" cy="708.4" r="2.7" fill="#FF8FAB" opacity="0.31"/><circle cx="577.2" cy="760.9" r="2.9" fill="#FF8FAB" opacity="0.41"/><circle cx="517.5" cy="806.8" r="3.2" fill="#FF8FAB" opacity="0.29"/><circle cx="452.1" cy="834.4" r="3.7" fill="#FF8FAB" opacity="0.39"/><circle cx="383.5" cy="844.9" r="3.5" fill="#FF8FAB" opacity="0.28"/><circle cx="295.7" cy="833.7" r="2.7" fill="#FF8FAB" opacity="0.34"/><circle cx="229.2" cy="804.9" r="3.7" fill="#FF8FAB" opacity="0.28"/><circle cx="169.9" cy="757.9" r="3.2" fill="#FF8FAB" opacity="0.35"/><circle cx="129.8" cy="705.2" r="2.6" fill="#FF8FAB" opacity="0.30"/><circle cx="101.6" cy="640.4" r="3.5" fill="#FF8FAB" opacity="0.23"/><circle cx="90.1" cy="551.0" r="2.7" fill="#FF8FAB" opacity="0.29"/><circle cx="100.0" cy="485.2" r="3.0" fill="#FF8FAB" opacity="0.39"/><circle cx="128.1" cy="417.7" r="2.6" fill="#FF8FAB" opacity="0.30"/><circle cx="170.5" cy="361.5" r="3.9" fill="#FF8FAB" opacity="0.23"/><circle cx="235.0" cy="311.7" r="3.8" fill="#FF8FAB" opacity="0.28"/><circle cx="294.4" cy="286.6" r="3.2" fill="#FF8FAB" opacity="0.27"/><circle cx="382.1" cy="275.1" r="2.6" fill="#FF8FAB" opacity="0.21"/><circle cx="440.3" cy="282.6" r="3.4" fill="#FF8FAB" opacity="0.39"/><circle cx="524.3" cy="317.3" r="3.6" fill="#FF8FAB" opacity="0.28"/><circle cx="581.5" cy="363.5" r="3.6" fill="#FF8FAB" opacity="0.36"/><circle cx="618.0" cy="411.1" r="3.7" fill="#FF8FAB" opacity="0.18"/><circle cx="650.6" cy="487.3" r="3.0" fill="#FF8FAB" opacity="0.33"/>
  </g>

<g><g transform="translate(50,54)"><path d="M 18.0 140.4 C 39.6 63.0, 99.0 28.8, 154.8 46.8 C 126.0 86.4, 72.0 111.6, 39.6 129.6" fill="none" stroke="#FF8FAB" stroke-width="6" opacity="0.55" stroke-linecap="round"/></g><g transform="translate(700,54) scale(-1,1)"><path d="M 18.0 140.4 C 39.6 63.0, 99.0 28.8, 154.8 46.8 C 126.0 86.4, 72.0 111.6, 39.6 129.6" fill="none" stroke="#FF8FAB" stroke-width="6" opacity="0.55" stroke-linecap="round"/></g><g transform="translate(50,1196) scale(1,-1)"><path d="M 18.0 140.4 C 39.6 63.0, 99.0 28.8, 154.8 46.8 C 126.0 86.4, 72.0 111.6, 39.6 129.6" fill="none" stroke="#FF8FAB" stroke-width="6" opacity="0.55" stroke-linecap="round"/></g><g transform="translate(700,1196) scale(-1,-1)"><path d="M 18.0 140.4 C 39.6 63.0, 99.0 28.8, 154.8 46.8 C 126.0 86.4, 72.0 111.6, 39.6 129.6" fill="none" stroke="#FF8FAB" stroke-width="6" opacity="0.55" stroke-linecap="round"/></g></g></g>
<rect x="42" y="60" width="666" height="92" rx="30" fill="#ffffffcc" stroke="#1E1B2E" stroke-width="4" opacity="0.95"/>
<text x="375.0" y="122" font-family="ui-sans-serif, system-ui, -apple-system, Segoe UI, Roboto, Helvetica, Arial" font-size="30" font-weight="800" text-anchor="middle" fill="#1E1B2E" opacity="0.95" letter-spacing="1">MINOR ARCANA • WANDS</text>
<rect x="76" y="170" width="598" height="760" rx="52" fill="#ffffff" opacity="0.15"/>
<g><path d="M 112.0 880 C 152.0 690 82.0 450 142.0 230" fill="none" stroke="#FF8FAB" stroke-width="4" opacity="0.10" stroke-linecap="round"/><circle cx="132.0" cy="450.0" r="9" fill="#FF8FAB" opacity="0.08"/><path d="M 202.0 880 C 242.0 690 172.0 450 232.0 230" fill="none" stroke="#FF8FAB" stroke-width="4" opacity="0.10" stroke-linecap="round"/><circle cx="222.0" cy="450.0" r="9" fill="#FF8FAB" opacity="0.08"/><path d="M 292.0 880 C 332.0 690 262.0 450 322.0 230" fill="none" stroke="#FF8FAB" stroke-width="4" opacity="0.10" stroke-linecap="round"/><circle cx="312.0" cy="450.0" r="9" fill="#FF8FAB" opacity="0.08"/><path d="M 382.0 880 C 422.0 690 352.0 450 412.0 230" fill="none" stroke="#FF8FAB" stroke-width="4" opacity="0.10" stroke-linecap="round"/><circle cx="402.0" cy="450.0" r="9" fill="#FF8FAB" opacity="0.08"/><path d="M 472.0 880 C 512.0 690 442.0 450 502.0 230" fill="none" stroke="#FF8FAB" stroke-width="4" opacity="0.10" stroke-linecap="round"/><circle cx="492.0" cy="450.0" r="9" fill="#FF8FAB" opacity="0.08"/><path d="M 562.0 880 C 602.0 690 532.0 450 592.0 230" fill="none" stroke="#FF8FAB" stroke-width="4" opacity="0.10" stroke-linecap="round"/><circle cx="582.0" cy="450.0" r="9" fill="#FF8FAB" opacity="0.08"/><path d="M 652.0 880 C 692.0 690 622.0 450 682.0 230" fill="none" stroke="#FF8FAB" stroke-width="4" opacity="0.10" stroke-linecap="round"/><circle cx="672.0" cy="450.0" r="9" fill="#FF8FAB" opacity="0.08"/></g><path d="M 255.0 320 Q 375.0 260 495.0 320 L 475.0 370 L 275.0 370 Z" fill="#ffffff" opacity="0.55" stroke="#FF8FAB" stroke-width="6"/>
        <g opacity="0.95">
          <circle cx="375.0" cy="500" r="88" fill="#ffffff" opacity="0.62" stroke="#1E1B2E" stroke-width="7"/>
          <circle cx="347.0" cy="482" r="10" fill="#1E1B2E" opacity="0.9"/>
          <circle cx="403.0" cy="482" r="10" fill="#1E1B2E" opacity="0.9"/>
          <path d="M 340.0 518 Q 375.0 540 410.0 518" fill="none" stroke="#1E1B2E" stroke-width="8" stroke-linecap="round"/>
          <rect x="235.0" y="570" width="280" height="330" rx="75" fill="#ffffff" opacity="0.50" stroke="#1E1B2E" stroke-width="7"/>
          <path d="M 265.0 680 Q 375.0 760 485.0 680" fill="none" stroke="#FF8FAB" stroke-width="10" opacity="0.35" stroke-linecap="round"/>
        </g>
        
        <g filter="url(#glow)">
          <circle cx="205.0" cy="720" r="85" fill="#ffffff" opacity="0.50" stroke="#1E1B2E" stroke-width="6"/>
          
        <g>
          <line x1="139.7" y1="750.4" x2="270.3" y2="689.6" stroke="#1E1B2E" stroke-width="6.3" stroke-linecap="round"/>
          <line x1="139.7" y1="750.4" x2="270.3" y2="689.6" stroke="#FF8FAB" stroke-width="2.7" stroke-linecap="round" opacity="0.55"/>
          
        <polygon points="270.3,689.6 235.6,681.5 220.4,712.8 254.2,721.3"
                 fill="#ffffff" stroke="#1E1B2E" stroke-width="5" opacity="0.92"/>
        
          <circle cx="139.7" cy="750.4" r="6.3" fill="#fff" stroke="#1E1B2E" stroke-width="5" opacity="0.9"/>
        </g>
        
        </g>
        <g filter="url(#glow)">
        <g>
          <line x1="463.5" y1="727.3" x2="666.5" y2="632.7" stroke="#1E1B2E" stroke-width="9.8" stroke-linecap="round"/>
          <line x1="463.5" y1="727.3" x2="666.5" y2="632.7" stroke="#FF8FAB" stroke-width="4.2" stroke-linecap="round" opacity="0.55"/>
          
        <polygon points="666.5,632.7 631.8,624.6 616.7,655.9 650.4,664.4"
                 fill="#ffffff" stroke="#1E1B2E" stroke-width="5" opacity="0.92"/>
        
          <circle cx="463.5" cy="727.3" r="9.8" fill="#fff" stroke="#1E1B2E" stroke-width="5" opacity="0.9"/>
        </g>
        </g><line x1="588.8" y1="247.7" x2="315.9" y2="357.3" stroke="#ffffff" stroke-width="2.2" opacity="0.14"/>
<line x1="315.9" y1="357.3" x2="433.7" y2="236.3" stroke="#ffffff" stroke-width="2.2" opacity="0.21"/>
<line x1="433.7" y1="236.3" x2="600.2" y2="443.1" stroke="#ffffff" stroke-width="2.2" opacity="0.09"/>
<line x1="600.2" y1="443.1" x2="445.1" y2="434.9" stroke="#ffffff" stroke-width="2.2" opacity="0.11"/>
<line x1="445.1" y1="434.9" x2="326.7" y2="343.6" stroke="#ffffff" stroke-width="2.2" opacity="0.15"/>
<line x1="326.7" y1="343.6" x2="266.5" y2="688.0" stroke="#ffffff" stroke-width="2.2" opacity="0.20"/>
<circle cx="547.0" cy="497.7" r="1.9" fill="#ffffff" opacity="0.6315017054266443"/>
<circle cx="600.2" cy="443.1" r="4.4" fill="#ffffff" opacity="0.5265940105936078"/>
<circle cx="588.8" cy="247.7" r="1.6" fill="#ffffff" opacity="0.7952847189336678"/>
<circle cx="315.9" cy="357.3" r="1.8" fill="#ffffff" opacity="0.2556494142379717"/>
<circle cx="374.6" cy="305.9" r="3.8" fill="#ffffff" opacity="0.3036873115521546"/>
<circle cx="496.0" cy="488.5" r="3.0" fill="#ffffff" opacity="0.7298022677618511"/>
<circle cx="251.2" cy="276.9" r="2.6" fill="#ffffff" opacity="0.5548541704551497"/>
<circle cx="238.6" cy="538.9" r="4.0" fill="#ffffff" opacity="0.7501978316813902"/>
<circle cx="506.5" cy="428.3" r="2.5" fill="#ffffff" opacity="0.6079591208102879"/>
<circle cx="266.5" cy="688.0" r="2.6" fill="#ffffff" opacity="0.31446419948835597"/>
<circle cx="433.7" cy="236.3" r="4.0" fill="#ffffff" opacity="0.6520896507049155"/>
<circle cx="326.7" cy="343.6" r="4.2" fill="#ffffff" opacity="0.4117697746005764"/>
<circle cx="445.1" cy="434.9" r="2.2" fill="#ffffff" opacity="0.29821540590163936"/>
<circle cx="240.6" cy="649.6" r="2.3" fill="#ffffff" opacity="0.7238992007458426"/>
<rect x="42" y="1030" width="666" height="160" rx="30" fill="#ffffffd9" stroke="#1E1B2E" stroke-width="4" opacity="0.95"/>
<text x="375.0" y="1104" font-family="ui-sans-serif, system-ui, -apple-system, Segoe UI, Roboto, Helvetica, Arial" font-size="46" font-weight="900" text-anchor="middle" fill="#1E1B2E" opacity="0.98">King of Wands</text>
<text x="375.0" y="1152" font-family="ui-sans-serif, system-ui, -apple-system, Segoe UI, Roboto, Helvetica, Arial" font-size="28" font-weight="700" text-anchor="middle" fill="#1E1B2E" opacity="0.7">Calm</text>

    <g opacity="0.55">
      <circle cx="127" cy="1176" r="14" fill="#FF8FAB"/>
      <circle cx="623" cy="1176" r="14" fill="#FF8FAB"/>
      <path d="M 162 1176 L 588 1176" stroke="#FF8FAB" stroke-width="4" opacity="0.45" stroke-linecap="round"/>
    </g>
    
</svg>
