<svg xmlns="http://www.w3.org/2000/svg" width="750" height="1250" viewBox="0 0 750 1250">
  <title>Ace of Cups</title>


  <defs>
    <linearGradient id="g" x1="0" y1="0" x2="1" y2="1">
      <stop offset="0%" stop-color="#EAF0FF"/>
      <stop offset="100%" stop-color="#FFF7E6"/>
    </linearGradient>

    <!-- paper texture -->
    <filter id="paper" x="-20%" y="-20%" width="140%" height="140%">
      <feTurbulence type="fractalNoise" baseFrequency="0.013" numOctaves="3" seed="6283" result="noise"/>
      <feColorMatrix in="noise" type="matrix"
        values="1 0 0 0 0
                0 1 0 0 0
                0 0 1 0 0
                0 0 0 0.25 0" result="noiseAlpha"/>
      <feComposite in="noiseAlpha" in2="SourceGraphic" operator="over"/>
    </filter>

    <!-- soft glow -->
    <filter id="glow" x="-30%" y="-30%" width="160%" height="160%">
      <feGaussianBlur stdDeviation="10" result="blur"/>
      <feColorMatrix type="matrix" values="
        1 0 0 0 0
        0 1 0 0 0
        0 0 1 0 0
        0 0 0 0.32 0" result="blurAlpha"/>
      <feMerge>
        <feMergeNode in="blurAlpha"/>
        <feMergeNode in="SourceGraphic"/>
      </feMerge>
    </filter>
  </defs>

<rect x="0" y="0" width="750" height="1250" rx="58" ry="58" fill="url(#g)" stroke="none" stroke-width="0" opacity="1"/>
<rect x="0" y="0" width="750" height="1250" fill="#ffffff" opacity="0.08"/>
<line x1="71.1" y1="1085.7" x2="612.2" y2="472.7" stroke="#ffffff" stroke-width="2.2" opacity="0.10"/>
<line x1="612.2" y1="472.7" x2="161.9" y2="682.5" stroke="#ffffff" stroke-width="2.2" opacity="0.15"/>
<line x1="161.9" y1="682.5" x2="306.4" y2="330.0" stroke="#ffffff" stroke-width="2.2" opacity="0.18"/>
<line x1="306.4" y1="330.0" x2="249.4" y2="850.3" stroke="#ffffff" stroke-width="2.2" opacity="0.09"/>
<line x1="249.4" y1="850.3" x2="614.8" y2="74.7" stroke="#ffffff" stroke-width="2.2" opacity="0.11"/>
<line x1="614.8" y1="74.7" x2="623.5" y2="604.6" stroke="#ffffff" stroke-width="2.2" opacity="0.19"/>
<line x1="623.5" y1="604.6" x2="157.7" y2="173.9" stroke="#ffffff" stroke-width="2.2" opacity="0.12"/>
<line x1="157.7" y1="173.9" x2="485.6" y2="540.8" stroke="#ffffff" stroke-width="2.2" opacity="0.12"/>
<line x1="485.6" y1="540.8" x2="438.3" y2="720.4" stroke="#ffffff" stroke-width="2.2" opacity="0.19"/>
<line x1="438.3" y1="720.4" x2="468.3" y2="149.1" stroke="#ffffff" stroke-width="2.2" opacity="0.22"/>
<line x1="468.3" y1="149.1" x2="600.6" y2="943.3" stroke="#ffffff" stroke-width="2.2" opacity="0.21"/>
<line x1="600.6" y1="943.3" x2="650.3" y2="298.9" stroke="#ffffff" stroke-width="2.2" opacity="0.11"/>
<line x1="650.3" y1="298.9" x2="299.2" y2="205.3" stroke="#ffffff" stroke-width="2.2" opacity="0.09"/>
<line x1="299.2" y1="205.3" x2="90.5" y2="868.6" stroke="#ffffff" stroke-width="2.2" opacity="0.13"/>
<line x1="90.5" y1="868.6" x2="290.4" y2="851.6" stroke="#ffffff" stroke-width="2.2" opacity="0.16"/>
<line x1="290.4" y1="851.6" x2="674.1" y2="387.6" stroke="#ffffff" stroke-width="2.2" opacity="0.16"/>
<line x1="674.1" y1="387.6" x2="366.7" y2="806.1" stroke="#ffffff" stroke-width="2.2" opacity="0.11"/>
<line x1="366.7" y1="806.1" x2="136.9" y2="841.6" stroke="#ffffff" stroke-width="2.2" opacity="0.11"/>
<circle cx="396.4" cy="411.4" r="1.7" fill="#ffffff" opacity="0.3468308969434756"/>
<circle cx="674.1" cy="387.6" r="3.5" fill="#ffffff" opacity="0.59939513047674"/>
<circle cx="271.0" cy="1193.3" r="3.2" fill="#ffffff" opacity="0.6487890671573223"/>
<circle cx="438.3" cy="720.4" r="4.1" fill="#ffffff" opacity="0.5418364186276894"/>
<circle cx="162.6" cy="1118.7" r="3.0" fill="#ffffff" opacity="0.3089803122375193"/>
<circle cx="220.1" cy="179.0" r="2.1" fill="#ffffff" opacity="0.25060215478183645"/>
<circle cx="90.5" cy="868.6" r="3.2" fill="#ffffff" opacity="0.7217215649077388"/>
<circle cx="468.3" cy="149.1" r="3.7" fill="#ffffff" opacity="0.3294313675242181"/>
<circle cx="343.5" cy="246.4" r="2.0" fill="#ffffff" opacity="0.47135241269070105"/>
<circle cx="215.3" cy="405.0" r="1.6" fill="#ffffff" opacity="0.6557567312182424"/>
<circle cx="170.2" cy="1114.3" r="2.1" fill="#ffffff" opacity="0.4934639847805483"/>
<circle cx="157.7" cy="173.9" r="1.9" fill="#ffffff" opacity="0.6172335066552257"/>
<circle cx="325.2" cy="85.3" r="2.9" fill="#ffffff" opacity="0.42792729165786336"/>
<circle cx="683.5" cy="1188.6" r="4.6" fill="#ffffff" opacity="0.3219959448057006"/>
<circle cx="623.5" cy="604.6" r="2.7" fill="#ffffff" opacity="0.8212237706581118"/>
<circle cx="704.3" cy="421.1" r="2.4" fill="#ffffff" opacity="0.2721237281976366"/>
<circle cx="303.1" cy="669.7" r="2.6" fill="#ffffff" opacity="0.2732457331388791"/>
<circle cx="161.9" cy="682.5" r="4.1" fill="#ffffff" opacity="0.8105241769107092"/>
<circle cx="136.9" cy="841.6" r="3.8" fill="#ffffff" opacity="0.5291524382678079"/>
<circle cx="671.2" cy="334.2" r="3.7" fill="#ffffff" opacity="0.290544041098307"/>
<circle cx="650.3" cy="298.9" r="3.5" fill="#ffffff" opacity="0.3572831829823528"/>
<circle cx="223.9" cy="415.9" r="2.8" fill="#ffffff" opacity="0.6766686629847196"/>
<circle cx="448.2" cy="1117.1" r="4.6" fill="#ffffff" opacity="0.6297538156229068"/>
<circle cx="700.5" cy="835.0" r="2.0" fill="#ffffff" opacity="0.47849334196410087"/>
<circle cx="71.1" cy="1085.7" r="4.2" fill="#ffffff" opacity="0.7852678005683313"/>
<circle cx="302.6" cy="415.7" r="3.1" fill="#ffffff" opacity="0.6716663802831173"/>
<circle cx="306.4" cy="330.0" r="1.8" fill="#ffffff" opacity="0.5637000008698027"/>
<circle cx="43.1" cy="688.4" r="3.8" fill="#ffffff" opacity="0.6685488785276701"/>
<circle cx="600.6" cy="943.3" r="4.7" fill="#ffffff" opacity="0.4798520662223491"/>
<circle cx="612.2" cy="472.7" r="4.7" fill="#ffffff" opacity="0.5340205060203618"/>
<circle cx="290.4" cy="851.6" r="4.4" fill="#ffffff" opacity="0.5123819141989949"/>
<circle cx="485.6" cy="540.8" r="2.5" fill="#ffffff" opacity="0.3800334670027279"/>
<circle cx="366.7" cy="806.1" r="4.6" fill="#ffffff" opacity="0.5642054949634776"/>
<circle cx="299.2" cy="205.3" r="3.6" fill="#ffffff" opacity="0.6864643506352475"/>
<circle cx="653.9" cy="266.2" r="3.2" fill="#ffffff" opacity="0.46231194294617395"/>
<circle cx="249.4" cy="850.3" r="4.4" fill="#ffffff" opacity="0.4531109124395753"/>
<circle cx="189.5" cy="96.9" r="2.5" fill="#ffffff" opacity="0.3333942592058718"/>
<circle cx="502.1" cy="815.9" r="2.2" fill="#ffffff" opacity="0.6553486177925749"/>
<circle cx="122.2" cy="370.5" r="2.5" fill="#ffffff" opacity="0.8384273521845639"/>
<circle cx="371.8" cy="705.9" r="2.0" fill="#ffffff" opacity="0.3974838511122398"/>
<circle cx="614.8" cy="74.7" r="4.3" fill="#ffffff" opacity="0.3842601306016742"/>
<circle cx="607.1" cy="1047.8" r="4.3" fill="#ffffff" opacity="0.719731015211085"/>
<circle cx="671.1" cy="714.4" r="4.3" fill="#ffffff" opacity="0.4038589388365962"/>
<circle cx="401.6" cy="1186.2" r="1.8" fill="#ffffff" opacity="0.7855904186849759"/>
<circle cx="335.0" cy="129.2" r="3.6" fill="#ffffff" opacity="0.766973497385084"/>
<circle cx="271.1" cy="679.0" r="1.9" fill="#ffffff" opacity="0.27817258231392494"/>
<circle cx="167.1" cy="213.1" r="3.7" fill="#ffffff" opacity="0.5148846871248054"/>
<circle cx="664.2" cy="364.0" r="2.8" fill="#ffffff" opacity="0.8259036969832968"/>
<circle cx="42.1" cy="812.0" r="3.9" fill="#ffffff" opacity="0.7399402655623647"/>
<circle cx="600.0" cy="285.7" r="2.8" fill="#ffffff" opacity="0.635918990073317"/>
<g filter="url(#paper)"><rect x="42" y="42" width="666" height="1166" rx="54" ry="54" fill="none" stroke="#1E1B2E" stroke-width="8" opacity="0.95"/>
<rect x="60" y="60" width="630" height="1130" rx="46" ry="46" fill="none" stroke="#4EA8DE" stroke-width="3" opacity="0.35"/>

  <g opacity="0.42">
    <circle cx="375.0" cy="560" r="285" fill="none" stroke="#4EA8DE" stroke-width="4.2" opacity="0.42"/>
    <circle cx="375.0" cy="560" r="233.7" fill="none" stroke="#4EA8DE" stroke-width="2.2" opacity="0.23"/>
    <line x1="642.0" y1="560.0" x2="674.0" y2="560.0" stroke="#4EA8DE" stroke-width="3.2" opacity="0.23" stroke-linecap="round"/><line x1="606.2" y1="693.5" x2="633.9" y2="709.5" stroke="#4EA8DE" stroke-width="3.2" opacity="0.23" stroke-linecap="round"/><line x1="508.5" y1="791.2" x2="524.5" y2="818.9" stroke="#4EA8DE" stroke-width="3.2" opacity="0.23" stroke-linecap="round"/><line x1="375.0" y1="827.0" x2="375.0" y2="859.0" stroke="#4EA8DE" stroke-width="3.2" opacity="0.23" stroke-linecap="round"/><line x1="241.5" y1="791.2" x2="225.5" y2="818.9" stroke="#4EA8DE" stroke-width="3.2" opacity="0.23" stroke-linecap="round"/><line x1="143.8" y1="693.5" x2="116.1" y2="709.5" stroke="#4EA8DE" stroke-width="3.2" opacity="0.23" stroke-linecap="round"/><line x1="108.0" y1="560.0" x2="76.0" y2="560.0" stroke="#4EA8DE" stroke-width="3.2" opacity="0.23" stroke-linecap="round"/><line x1="143.8" y1="426.5" x2="116.1" y2="410.5" stroke="#4EA8DE" stroke-width="3.2" opacity="0.23" stroke-linecap="round"/><line x1="241.5" y1="328.8" x2="225.5" y2="301.1" stroke="#4EA8DE" stroke-width="3.2" opacity="0.23" stroke-linecap="round"/><line x1="375.0" y1="293.0" x2="375.0" y2="261.0" stroke="#4EA8DE" stroke-width="3.2" opacity="0.23" stroke-linecap="round"/><line x1="508.5" y1="328.8" x2="524.5" y2="301.1" stroke="#4EA8DE" stroke-width="3.2" opacity="0.23" stroke-linecap="round"/><line x1="606.2" y1="426.5" x2="633.9" y2="410.5" stroke="#4EA8DE" stroke-width="3.2" opacity="0.23" stroke-linecap="round"/>
    <circle cx="659.9" cy="569.0" r="3.2" fill="#4EA8DE" opacity="0.45"/><circle cx="647.8" cy="642.6" r="2.8" fill="#4EA8DE" opacity="0.44"/><circle cx="617.0" cy="710.6" r="3.9" fill="#4EA8DE" opacity="0.26"/><circle cx="583.3" cy="754.5" r="4.0" fill="#4EA8DE" opacity="0.20"/><circle cx="521.3" cy="804.6" r="3.4" fill="#4EA8DE" opacity="0.24"/><circle cx="456.4" cy="833.1" r="2.7" fill="#4EA8DE" opacity="0.41"/><circle cx="371.1" cy="845.0" r="3.1" fill="#4EA8DE" opacity="0.33"/><circle cx="305.9" cy="836.5" r="4.0" fill="#4EA8DE" opacity="0.36"/><circle cx="235.6" cy="808.6" r="3.9" fill="#4EA8DE" opacity="0.24"/><circle cx="173.7" cy="761.8" r="2.7" fill="#4EA8DE" opacity="0.43"/><circle cx="126.7" cy="700.0" r="3.7" fill="#4EA8DE" opacity="0.29"/><circle cx="101.3" cy="639.6" r="2.8" fill="#4EA8DE" opacity="0.40"/><circle cx="90.0" cy="555.7" r="2.8" fill="#4EA8DE" opacity="0.27"/><circle cx="102.0" cy="478.2" r="3.2" fill="#4EA8DE" opacity="0.42"/><circle cx="124.9" cy="423.4" r="3.7" fill="#4EA8DE" opacity="0.21"/><circle cx="169.2" cy="362.8" r="3.7" fill="#4EA8DE" opacity="0.39"/><circle cx="234.7" cy="311.9" r="3.2" fill="#4EA8DE" opacity="0.31"/><circle cx="309.2" cy="282.7" r="3.6" fill="#4EA8DE" opacity="0.35"/><circle cx="370.9" cy="275.0" r="3.0" fill="#4EA8DE" opacity="0.38"/><circle cx="451.5" cy="285.5" r="3.4" fill="#4EA8DE" opacity="0.27"/><circle cx="522.5" cy="316.1" r="3.4" fill="#4EA8DE" opacity="0.41"/><circle cx="572.9" cy="354.9" r="3.0" fill="#4EA8DE" opacity="0.19"/><circle cx="620.0" cy="414.3" r="2.9" fill="#4EA8DE" opacity="0.42"/><circle cx="649.2" cy="482.1" r="2.7" fill="#4EA8DE" opacity="0.20"/>
  </g>

<g><g transform="translate(50,54)"><path d="M 14.4 117.0 C 54.0 14.4, 126.0 14.4, 165.6 117.0" fill="none" stroke="#4EA8DE" stroke-width="6" opacity="0.55" stroke-linecap="round"/></g><g transform="translate(700,54) scale(-1,1)"><path d="M 14.4 117.0 C 54.0 14.4, 126.0 14.4, 165.6 117.0" fill="none" stroke="#4EA8DE" stroke-width="6" opacity="0.55" stroke-linecap="round"/></g><g transform="translate(50,1196) scale(1,-1)"><path d="M 14.4 117.0 C 54.0 14.4, 126.0 14.4, 165.6 117.0" fill="none" stroke="#4EA8DE" stroke-width="6" opacity="0.55" stroke-linecap="round"/></g><g transform="translate(700,1196) scale(-1,-1)"><path d="M 14.4 117.0 C 54.0 14.4, 126.0 14.4, 165.6 117.0" fill="none" stroke="#4EA8DE" stroke-width="6" opacity="0.55" stroke-linecap="round"/></g></g></g>
<rect x="42" y="60" width="666" height="92" rx="30" fill="#ffffffcc" stroke="#1E1B2E" stroke-width="4" opacity="0.95"/>
<text x="375.0" y="122" font-family="ui-sans-serif, system-ui, -apple-system, Segoe UI, Roboto, Helvetica, Arial" font-size="30" font-weight="800" text-anchor="middle" fill="#1E1B2E" opacity="0.95" letter-spacing="1">MINOR ARCANA • CUPS</text>
<rect x="76" y="170" width="598" height="760" rx="52" fill="#ffffff" opacity="0.15"/>
<g><path d="M 72 230.0 Q 127.0 204.0 182.0 230.0 Q 237.0 256.0 292.0 230.0 Q 347.0 204.0 402.0 230.0 Q 457.0 256.0 512.0 230.0 Q 567.0 204.0 622.0 230.0 Q 677.0 256.0 732.0 230.0 " fill="none" stroke="#4EA8DE" stroke-width="3" opacity="0.10"/><path d="M 72 310.0 Q 127.0 279.8 182.0 310.0 Q 237.0 340.2 292.0 310.0 Q 347.0 279.8 402.0 310.0 Q 457.0 340.2 512.0 310.0 Q 567.0 279.8 622.0 310.0 Q 677.0 340.2 732.0 310.0 " fill="none" stroke="#4EA8DE" stroke-width="3" opacity="0.10"/><path d="M 72 390.0 Q 127.0 362.0 182.0 390.0 Q 237.0 418.0 292.0 390.0 Q 347.0 362.0 402.0 390.0 Q 457.0 418.0 512.0 390.0 Q 567.0 362.0 622.0 390.0 Q 677.0 418.0 732.0 390.0 " fill="none" stroke="#4EA8DE" stroke-width="3" opacity="0.10"/><path d="M 72 470.0 Q 127.0 450.8 182.0 470.0 Q 237.0 489.2 292.0 470.0 Q 347.0 450.8 402.0 470.0 Q 457.0 489.2 512.0 470.0 Q 567.0 450.8 622.0 470.0 Q 677.0 489.2 732.0 470.0 " fill="none" stroke="#4EA8DE" stroke-width="3" opacity="0.10"/><path d="M 72 550.0 Q 127.0 518.4 182.0 550.0 Q 237.0 581.6 292.0 550.0 Q 347.0 518.4 402.0 550.0 Q 457.0 581.6 512.0 550.0 Q 567.0 518.4 622.0 550.0 Q 677.0 581.6 732.0 550.0 " fill="none" stroke="#4EA8DE" stroke-width="3" opacity="0.10"/><path d="M 72 630.0 Q 127.0 608.7 182.0 630.0 Q 237.0 651.3 292.0 630.0 Q 347.0 608.7 402.0 630.0 Q 457.0 651.3 512.0 630.0 Q 567.0 608.7 622.0 630.0 Q 677.0 651.3 732.0 630.0 " fill="none" stroke="#4EA8DE" stroke-width="3" opacity="0.10"/><path d="M 72 710.0 Q 127.0 686.9 182.0 710.0 Q 237.0 733.1 292.0 710.0 Q 347.0 686.9 402.0 710.0 Q 457.0 733.1 512.0 710.0 Q 567.0 686.9 622.0 710.0 Q 677.0 733.1 732.0 710.0 " fill="none" stroke="#4EA8DE" stroke-width="3" opacity="0.10"/><path d="M 72 790.0 Q 127.0 768.8 182.0 790.0 Q 237.0 811.2 292.0 790.0 Q 347.0 768.8 402.0 790.0 Q 457.0 811.2 512.0 790.0 Q 567.0 768.8 622.0 790.0 Q 677.0 811.2 732.0 790.0 " fill="none" stroke="#4EA8DE" stroke-width="3" opacity="0.10"/><path d="M 72 870.0 Q 127.0 843.2 182.0 870.0 Q 237.0 896.8 292.0 870.0 Q 347.0 843.2 402.0 870.0 Q 457.0 896.8 512.0 870.0 Q 567.0 843.2 622.0 870.0 Q 677.0 896.8 732.0 870.0 " fill="none" stroke="#4EA8DE" stroke-width="3" opacity="0.10"/></g>
        <g>
          <path d="M 255.0 500.0
                   L 495.0 500.0
                   L 467.0 620.0
                   Q 375.0 690.0 283.0 620.0
                   Z" fill="#ffffff" stroke="#1E1B2E" stroke-width="7"/>
          <path d="M 493.0 535.0
                   Q 565.0 580.0 493.0 625.0" fill="none" stroke="#1E1B2E" stroke-width="10" stroke-linecap="round" opacity="0.9"/>
          <rect x="327.0" y="690.0" width="96.0" height="60.0" rx="20.0" fill="#4EA8DE" opacity="0.45" stroke="#1E1B2E" stroke-width="6"/>
          <circle cx="375.0" cy="475.0" r="22.0" fill="#4EA8DE" opacity="0.55"/>
          <path d="M 330.0 475.0 Q 375.0 435.0 420.0 475.0" fill="none" stroke="#4EA8DE" stroke-width="7" opacity="0.55" stroke-linecap="round"/>
        </g>
        <line x1="297.8" y1="612.0" x2="563.6" y2="558.2" stroke="#ffffff" stroke-width="2.2" opacity="0.11"/>
<line x1="563.6" y1="558.2" x2="594.7" y2="543.2" stroke="#ffffff" stroke-width="2.2" opacity="0.18"/>
<line x1="594.7" y1="543.2" x2="374.4" y2="397.1" stroke="#ffffff" stroke-width="2.2" opacity="0.12"/>
<line x1="374.4" y1="397.1" x2="469.5" y2="444.1" stroke="#ffffff" stroke-width="2.2" opacity="0.21"/>
<line x1="469.5" y1="444.1" x2="440.0" y2="506.2" stroke="#ffffff" stroke-width="2.2" opacity="0.20"/>
<line x1="440.0" y1="506.2" x2="592.6" y2="393.3" stroke="#ffffff" stroke-width="2.2" opacity="0.12"/>
<circle cx="592.6" cy="393.3" r="4.4" fill="#ffffff" opacity="0.7819100751396006"/>
<circle cx="440.0" cy="506.2" r="2.5" fill="#ffffff" opacity="0.7751497074143914"/>
<circle cx="594.7" cy="543.2" r="3.1" fill="#ffffff" opacity="0.5045576688812954"/>
<circle cx="341.5" cy="608.5" r="3.9" fill="#ffffff" opacity="0.548144318160845"/>
<circle cx="610.6" cy="601.5" r="4.0" fill="#ffffff" opacity="0.47284667974729977"/>
<circle cx="563.6" cy="558.2" r="2.9" fill="#ffffff" opacity="0.48227052558660516"/>
<circle cx="469.5" cy="444.1" r="1.9" fill="#ffffff" opacity="0.5451081526035295"/>
<circle cx="157.1" cy="318.5" r="4.7" fill="#ffffff" opacity="0.4790575824137767"/>
<circle cx="499.0" cy="619.9" r="3.8" fill="#ffffff" opacity="0.5446758615831804"/>
<circle cx="315.7" cy="618.0" r="3.0" fill="#ffffff" opacity="0.7168701010456083"/>
<circle cx="191.4" cy="409.4" r="4.6" fill="#ffffff" opacity="0.34133035812203877"/>
<circle cx="193.2" cy="343.7" r="2.6" fill="#ffffff" opacity="0.6196459130066239"/>
<circle cx="297.8" cy="612.0" r="2.4" fill="#ffffff" opacity="0.25820814563356653"/>
<circle cx="374.4" cy="397.1" r="3.3" fill="#ffffff" opacity="0.3366739395884636"/>
<rect x="42" y="1030" width="666" height="160" rx="30" fill="#ffffffd9" stroke="#1E1B2E" stroke-width="4" opacity="0.95"/>
<text x="375.0" y="1104" font-family="ui-sans-serif, system-ui, -apple-system, Segoe UI, Roboto, Helvetica, Arial" font-size="46" font-weight="900" text-anchor="middle" fill="#1E1B2E" opacity="0.98">Ace of Cups</text>
<text x="375.0" y="1152" font-family="ui-sans-serif, system-ui, -apple-system, Segoe UI, Roboto, Helvetica, Arial" font-size="28" font-weight="700" text-anchor="middle" fill="#1E1B2E" opacity="0.7">New start</text>

    <g opacity="0.55">
      <circle cx="127" cy="1176" r="14" fill="#4EA8DE"/>
      <circle cx="623" cy="1176" r="14" fill="#4EA8DE"/>
      <path d="M 162 1176 L 588 1176" stroke="#4EA8DE" stroke-width="4" opacity="0.45" stroke-linecap="round"/>
    </g>
    
</svg>
