<svg xmlns="http://www.w3.org/2000/svg" width="750" height="1250" viewBox="0 0 750 1250">
  <title>2 of Cups</title>


  <defs>
    <linearGradient id="g" x1="0" y1="0" x2="1" y2="1">
      <stop offset="0%" stop-color="#E8FFF1"/>
      <stop offset="100%" stop-color="#F2E9FF"/>
    </linearGradient>

    <!-- paper texture -->
    <filter id="paper" x="-20%" y="-20%" width="140%" height="140%">
      <feTurbulence type="fractalNoise" baseFrequency="0.016" numOctaves="3" seed="9585" result="noise"/>
      <feColorMatrix in="noise" type="matrix"
        values="1 0 0 0 0
                0 1 0 0 0
                0 0 1 0 0
                0 0 0 0.25 0" result="noiseAlpha"/>
      <feComposite in="noiseAlpha" in2="SourceGraphic" operator="over"/>
    </filter>

    <!-- soft glow -->
    <filter id="glow" x="-30%" y="-30%" width="160%" height="160%">
      <feGaussianBlur stdDeviation="10" result="blur"/>
      <feColorMatrix type="matrix" values="
        1 0 0 0 0
        0 1 0 0 0
        0 0 1 0 0
        0 0 0 0.32 0" result="blurAlpha"/>
      <feMerge>
        <feMergeNode in="blurAlpha"/>
        <feMergeNode in="SourceGraphic"/>
      </feMerge>
    </filter>
  </defs>

<rect x="0" y="0" width="750" height="1250" rx="58" ry="58" fill="url(#g)" stroke="none" stroke-width="0" opacity="1"/>
<rect x="0" y="0" width="750" height="1250" fill="#ffffff" opacity="0.08"/>
<line x1="123.1" y1="1114.1" x2="161.8" y2="721.8" stroke="#ffffff" stroke-width="2.2" opacity="0.16"/>
<line x1="161.8" y1="721.8" x2="352.5" y2="719.3" stroke="#ffffff" stroke-width="2.2" opacity="0.14"/>
<line x1="352.5" y1="719.3" x2="607.9" y2="193.5" stroke="#ffffff" stroke-width="2.2" opacity="0.09"/>
<line x1="607.9" y1="193.5" x2="686.4" y2="845.1" stroke="#ffffff" stroke-width="2.2" opacity="0.12"/>
<line x1="686.4" y1="845.1" x2="281.3" y2="1036.3" stroke="#ffffff" stroke-width="2.2" opacity="0.13"/>
<line x1="281.3" y1="1036.3" x2="56.9" y2="367.0" stroke="#ffffff" stroke-width="2.2" opacity="0.10"/>
<line x1="56.9" y1="367.0" x2="356.4" y2="424.5" stroke="#ffffff" stroke-width="2.2" opacity="0.15"/>
<line x1="356.4" y1="424.5" x2="538.4" y2="433.0" stroke="#ffffff" stroke-width="2.2" opacity="0.11"/>
<line x1="538.4" y1="433.0" x2="64.8" y2="114.7" stroke="#ffffff" stroke-width="2.2" opacity="0.17"/>
<line x1="64.8" y1="114.7" x2="324.8" y2="240.5" stroke="#ffffff" stroke-width="2.2" opacity="0.16"/>
<line x1="324.8" y1="240.5" x2="523.6" y2="300.1" stroke="#ffffff" stroke-width="2.2" opacity="0.08"/>
<line x1="523.6" y1="300.1" x2="486.0" y2="1055.3" stroke="#ffffff" stroke-width="2.2" opacity="0.09"/>
<line x1="486.0" y1="1055.3" x2="266.1" y2="975.2" stroke="#ffffff" stroke-width="2.2" opacity="0.09"/>
<line x1="266.1" y1="975.2" x2="254.0" y2="706.4" stroke="#ffffff" stroke-width="2.2" opacity="0.08"/>
<line x1="254.0" y1="706.4" x2="347.9" y2="370.3" stroke="#ffffff" stroke-width="2.2" opacity="0.19"/>
<line x1="347.9" y1="370.3" x2="334.6" y2="1107.2" stroke="#ffffff" stroke-width="2.2" opacity="0.10"/>
<line x1="334.6" y1="1107.2" x2="406.4" y2="192.9" stroke="#ffffff" stroke-width="2.2" opacity="0.13"/>
<line x1="406.4" y1="192.9" x2="379.4" y2="567.3" stroke="#ffffff" stroke-width="2.2" opacity="0.14"/>
<circle cx="608.7" cy="279.8" r="3.0" fill="#ffffff" opacity="0.2871150377380899"/>
<circle cx="101.6" cy="645.2" r="4.3" fill="#ffffff" opacity="0.3074583025987782"/>
<circle cx="686.8" cy="738.5" r="1.7" fill="#ffffff" opacity="0.8160368451991877"/>
<circle cx="281.3" cy="1036.3" r="2.4" fill="#ffffff" opacity="0.4387093594145547"/>
<circle cx="523.5" cy="440.0" r="3.3" fill="#ffffff" opacity="0.2657480746730371"/>
<circle cx="105.9" cy="403.2" r="4.3" fill="#ffffff" opacity="0.6794874181601385"/>
<circle cx="285.6" cy="398.4" r="3.4" fill="#ffffff" opacity="0.47853962781908543"/>
<circle cx="594.4" cy="542.1" r="4.7" fill="#ffffff" opacity="0.31327861960065395"/>
<circle cx="347.9" cy="370.3" r="2.0" fill="#ffffff" opacity="0.5683028901730653"/>
<circle cx="523.6" cy="300.1" r="2.7" fill="#ffffff" opacity="0.35329210732432054"/>
<circle cx="177.8" cy="1127.9" r="3.7" fill="#ffffff" opacity="0.761055092835709"/>
<circle cx="506.5" cy="816.4" r="2.5" fill="#ffffff" opacity="0.5240549126769294"/>
<circle cx="607.9" cy="193.5" r="3.5" fill="#ffffff" opacity="0.28730670527031665"/>
<circle cx="699.4" cy="296.2" r="1.6" fill="#ffffff" opacity="0.5356471569207713"/>
<circle cx="695.4" cy="554.9" r="1.9" fill="#ffffff" opacity="0.399653458580992"/>
<circle cx="292.3" cy="362.6" r="3.9" fill="#ffffff" opacity="0.29949535461167326"/>
<circle cx="581.7" cy="314.2" r="4.0" fill="#ffffff" opacity="0.47826850781626373"/>
<circle cx="560.3" cy="880.8" r="2.6" fill="#ffffff" opacity="0.5472442890476046"/>
<circle cx="454.0" cy="833.5" r="4.0" fill="#ffffff" opacity="0.6423580337143062"/>
<circle cx="123.1" cy="1114.1" r="4.1" fill="#ffffff" opacity="0.6898898624419828"/>
<circle cx="266.1" cy="975.2" r="2.3" fill="#ffffff" opacity="0.545307881857509"/>
<circle cx="538.4" cy="1202.1" r="1.8" fill="#ffffff" opacity="0.5886698142967255"/>
<circle cx="379.4" cy="567.3" r="2.6" fill="#ffffff" opacity="0.7115430612239242"/>
<circle cx="382.7" cy="747.4" r="1.8" fill="#ffffff" opacity="0.4256834929836146"/>
<circle cx="161.8" cy="721.8" r="3.0" fill="#ffffff" opacity="0.42152755375164963"/>
<circle cx="445.4" cy="532.7" r="2.3" fill="#ffffff" opacity="0.42677483945004846"/>
<circle cx="503.1" cy="1122.9" r="3.5" fill="#ffffff" opacity="0.4373395663572702"/>
<circle cx="572.0" cy="615.3" r="2.1" fill="#ffffff" opacity="0.8061256648723579"/>
<circle cx="486.0" cy="1055.3" r="4.3" fill="#ffffff" opacity="0.3000133919330506"/>
<circle cx="168.5" cy="946.2" r="4.7" fill="#ffffff" opacity="0.5458567641905461"/>
<circle cx="538.4" cy="433.0" r="4.7" fill="#ffffff" opacity="0.7645387420808927"/>
<circle cx="171.3" cy="128.6" r="2.2" fill="#ffffff" opacity="0.5616673403674713"/>
<circle cx="534.7" cy="129.5" r="4.5" fill="#ffffff" opacity="0.8033438850296704"/>
<circle cx="238.0" cy="860.2" r="3.7" fill="#ffffff" opacity="0.7584489567945788"/>
<circle cx="406.4" cy="192.9" r="3.6" fill="#ffffff" opacity="0.3169819589829596"/>
<circle cx="54.1" cy="676.1" r="1.9" fill="#ffffff" opacity="0.6361476836666384"/>
<circle cx="308.2" cy="1182.0" r="2.6" fill="#ffffff" opacity="0.6127284242800553"/>
<circle cx="232.5" cy="760.9" r="3.7" fill="#ffffff" opacity="0.42244630889560686"/>
<circle cx="671.8" cy="878.4" r="4.5" fill="#ffffff" opacity="0.7340280366610998"/>
<circle cx="254.0" cy="706.4" r="3.7" fill="#ffffff" opacity="0.3713821928290606"/>
<circle cx="64.8" cy="114.7" r="2.8" fill="#ffffff" opacity="0.26364012507056"/>
<circle cx="686.4" cy="845.1" r="1.8" fill="#ffffff" opacity="0.4494483784004437"/>
<circle cx="531.8" cy="84.0" r="3.6" fill="#ffffff" opacity="0.5106638223877182"/>
<circle cx="56.9" cy="367.0" r="3.1" fill="#ffffff" opacity="0.7211068827527662"/>
<circle cx="352.5" cy="719.3" r="1.7" fill="#ffffff" opacity="0.7491447789195751"/>
<circle cx="86.1" cy="67.8" r="3.2" fill="#ffffff" opacity="0.3570909896108134"/>
<circle cx="334.6" cy="1107.2" r="4.7" fill="#ffffff" opacity="0.4750850957572686"/>
<circle cx="381.5" cy="476.0" r="2.9" fill="#ffffff" opacity="0.3257002543783077"/>
<circle cx="356.4" cy="424.5" r="4.2" fill="#ffffff" opacity="0.41106958517514813"/>
<circle cx="324.8" cy="240.5" r="2.4" fill="#ffffff" opacity="0.4020138550172896"/>
<g filter="url(#paper)"><rect x="42" y="42" width="666" height="1166" rx="54" ry="54" fill="none" stroke="#1E1B2E" stroke-width="8" opacity="0.95"/>
<rect x="60" y="60" width="630" height="1130" rx="46" ry="46" fill="none" stroke="#4EA8DE" stroke-width="3" opacity="0.35"/>

  <g opacity="0.42">
    <circle cx="375.0" cy="560" r="285" fill="none" stroke="#4EA8DE" stroke-width="4.2" opacity="0.42"/>
    <circle cx="375.0" cy="560" r="233.7" fill="none" stroke="#4EA8DE" stroke-width="2.2" opacity="0.23"/>
    <line x1="642.0" y1="560.0" x2="674.0" y2="560.0" stroke="#4EA8DE" stroke-width="3.2" opacity="0.23" stroke-linecap="round"/><line x1="606.2" y1="693.5" x2="633.9" y2="709.5" stroke="#4EA8DE" stroke-width="3.2" opacity="0.23" stroke-linecap="round"/><line x1="508.5" y1="791.2" x2="524.5" y2="818.9" stroke="#4EA8DE" stroke-width="3.2" opacity="0.23" stroke-linecap="round"/><line x1="375.0" y1="827.0" x2="375.0" y2="859.0" stroke="#4EA8DE" stroke-width="3.2" opacity="0.23" stroke-linecap="round"/><line x1="241.5" y1="791.2" x2="225.5" y2="818.9" stroke="#4EA8DE" stroke-width="3.2" opacity="0.23" stroke-linecap="round"/><line x1="143.8" y1="693.5" x2="116.1" y2="709.5" stroke="#4EA8DE" stroke-width="3.2" opacity="0.23" stroke-linecap="round"/><line x1="108.0" y1="560.0" x2="76.0" y2="560.0" stroke="#4EA8DE" stroke-width="3.2" opacity="0.23" stroke-linecap="round"/><line x1="143.8" y1="426.5" x2="116.1" y2="410.5" stroke="#4EA8DE" stroke-width="3.2" opacity="0.23" stroke-linecap="round"/><line x1="241.5" y1="328.8" x2="225.5" y2="301.1" stroke="#4EA8DE" stroke-width="3.2" opacity="0.23" stroke-linecap="round"/><line x1="375.0" y1="293.0" x2="375.0" y2="261.0" stroke="#4EA8DE" stroke-width="3.2" opacity="0.23" stroke-linecap="round"/><line x1="508.5" y1="328.8" x2="524.5" y2="301.1" stroke="#4EA8DE" stroke-width="3.2" opacity="0.23" stroke-linecap="round"/><line x1="606.2" y1="426.5" x2="633.9" y2="410.5" stroke="#4EA8DE" stroke-width="3.2" opacity="0.23" stroke-linecap="round"/>
    <circle cx="659.9" cy="568.5" r="2.7" fill="#4EA8DE" opacity="0.44"/><circle cx="652.1" cy="626.6" r="3.6" fill="#4EA8DE" opacity="0.41"/><circle cx="624.7" cy="697.4" r="3.8" fill="#4EA8DE" opacity="0.31"/><circle cx="580.4" cy="757.5" r="2.7" fill="#4EA8DE" opacity="0.36"/><circle cx="519.8" cy="805.5" r="3.6" fill="#4EA8DE" opacity="0.26"/><circle cx="446.6" cy="835.9" r="3.6" fill="#4EA8DE" opacity="0.33"/><circle cx="375.1" cy="845.0" r="3.4" fill="#4EA8DE" opacity="0.31"/><circle cx="310.5" cy="837.6" r="3.3" fill="#4EA8DE" opacity="0.39"/><circle cx="230.9" cy="805.9" r="3.5" fill="#4EA8DE" opacity="0.34"/><circle cx="172.4" cy="760.5" r="3.8" fill="#4EA8DE" opacity="0.37"/><circle cx="130.5" cy="706.4" r="3.4" fill="#4EA8DE" opacity="0.30"/><circle cx="101.0" cy="638.5" r="4.0" fill="#4EA8DE" opacity="0.28"/><circle cx="90.1" cy="551.8" r="3.8" fill="#4EA8DE" opacity="0.41"/><circle cx="97.8" cy="493.8" r="3.2" fill="#4EA8DE" opacity="0.22"/><circle cx="132.6" cy="410.2" r="3.9" fill="#4EA8DE" opacity="0.18"/><circle cx="174.1" cy="357.9" r="4.0" fill="#4EA8DE" opacity="0.40"/><circle cx="235.8" cy="311.3" r="3.6" fill="#4EA8DE" opacity="0.23"/><circle cx="304.5" cy="283.9" r="3.0" fill="#4EA8DE" opacity="0.30"/><circle cx="372.8" cy="275.0" r="2.6" fill="#4EA8DE" opacity="0.34"/><circle cx="446.4" cy="284.1" r="2.7" fill="#4EA8DE" opacity="0.37"/><circle cx="519.1" cy="314.1" r="3.5" fill="#4EA8DE" opacity="0.32"/><circle cx="570.7" cy="352.8" r="3.0" fill="#4EA8DE" opacity="0.29"/><circle cx="617.9" cy="410.9" r="3.6" fill="#4EA8DE" opacity="0.45"/><circle cx="652.6" cy="495.3" r="3.6" fill="#4EA8DE" opacity="0.28"/>
  </g>

<g><g transform="translate(50,54)"><path d="M 32.4 126.0 C 63.0 54.0, 111.6 32.4, 158.4 39.6" fill="none" stroke="#4EA8DE" stroke-width="6" opacity="0.55" stroke-linecap="round"/></g><g transform="translate(700,54) scale(-1,1)"><path d="M 32.4 126.0 C 63.0 54.0, 111.6 32.4, 158.4 39.6" fill="none" stroke="#4EA8DE" stroke-width="6" opacity="0.55" stroke-linecap="round"/></g><g transform="translate(50,1196) scale(1,-1)"><path d="M 32.4 126.0 C 63.0 54.0, 111.6 32.4, 158.4 39.6" fill="none" stroke="#4EA8DE" stroke-width="6" opacity="0.55" stroke-linecap="round"/></g><g transform="translate(700,1196) scale(-1,-1)"><path d="M 32.4 126.0 C 63.0 54.0, 111.6 32.4, 158.4 39.6" fill="none" stroke="#4EA8DE" stroke-width="6" opacity="0.55" stroke-linecap="round"/></g></g></g>
<rect x="42" y="60" width="666" height="92" rx="30" fill="#ffffffcc" stroke="#1E1B2E" stroke-width="4" opacity="0.95"/>
<text x="375.0" y="122" font-family="ui-sans-serif, system-ui, -apple-system, Segoe UI, Roboto, Helvetica, Arial" font-size="30" font-weight="800" text-anchor="middle" fill="#1E1B2E" opacity="0.95" letter-spacing="1">MINOR ARCANA • CUPS</text>
<rect x="76" y="170" width="598" height="760" rx="52" fill="#ffffff" opacity="0.15"/>
<g><path d="M 72 230.0 Q 127.0 201.8 182.0 230.0 Q 237.0 258.2 292.0 230.0 Q 347.0 201.8 402.0 230.0 Q 457.0 258.2 512.0 230.0 Q 567.0 201.8 622.0 230.0 Q 677.0 258.2 732.0 230.0 " fill="none" stroke="#4EA8DE" stroke-width="3" opacity="0.10"/><path d="M 72 310.0 Q 127.0 291.3 182.0 310.0 Q 237.0 328.7 292.0 310.0 Q 347.0 291.3 402.0 310.0 Q 457.0 328.7 512.0 310.0 Q 567.0 291.3 622.0 310.0 Q 677.0 328.7 732.0 310.0 " fill="none" stroke="#4EA8DE" stroke-width="3" opacity="0.10"/><path d="M 72 390.0 Q 127.0 369.6 182.0 390.0 Q 237.0 410.4 292.0 390.0 Q 347.0 369.6 402.0 390.0 Q 457.0 410.4 512.0 390.0 Q 567.0 369.6 622.0 390.0 Q 677.0 410.4 732.0 390.0 " fill="none" stroke="#4EA8DE" stroke-width="3" opacity="0.10"/><path d="M 72 470.0 Q 127.0 446.7 182.0 470.0 Q 237.0 493.3 292.0 470.0 Q 347.0 446.7 402.0 470.0 Q 457.0 493.3 512.0 470.0 Q 567.0 446.7 622.0 470.0 Q 677.0 493.3 732.0 470.0 " fill="none" stroke="#4EA8DE" stroke-width="3" opacity="0.10"/><path d="M 72 550.0 Q 127.0 519.8 182.0 550.0 Q 237.0 580.2 292.0 550.0 Q 347.0 519.8 402.0 550.0 Q 457.0 580.2 512.0 550.0 Q 567.0 519.8 622.0 550.0 Q 677.0 580.2 732.0 550.0 " fill="none" stroke="#4EA8DE" stroke-width="3" opacity="0.10"/><path d="M 72 630.0 Q 127.0 602.9 182.0 630.0 Q 237.0 657.1 292.0 630.0 Q 347.0 602.9 402.0 630.0 Q 457.0 657.1 512.0 630.0 Q 567.0 602.9 622.0 630.0 Q 677.0 657.1 732.0 630.0 " fill="none" stroke="#4EA8DE" stroke-width="3" opacity="0.10"/><path d="M 72 710.0 Q 127.0 686.3 182.0 710.0 Q 237.0 733.7 292.0 710.0 Q 347.0 686.3 402.0 710.0 Q 457.0 733.7 512.0 710.0 Q 567.0 686.3 622.0 710.0 Q 677.0 733.7 732.0 710.0 " fill="none" stroke="#4EA8DE" stroke-width="3" opacity="0.10"/><path d="M 72 790.0 Q 127.0 768.0 182.0 790.0 Q 237.0 812.0 292.0 790.0 Q 347.0 768.0 402.0 790.0 Q 457.0 812.0 512.0 790.0 Q 567.0 768.0 622.0 790.0 Q 677.0 812.0 732.0 790.0 " fill="none" stroke="#4EA8DE" stroke-width="3" opacity="0.10"/><path d="M 72 870.0 Q 127.0 841.7 182.0 870.0 Q 237.0 898.3 292.0 870.0 Q 347.0 841.7 402.0 870.0 Q 457.0 898.3 512.0 870.0 Q 567.0 841.7 622.0 870.0 Q 677.0 898.3 732.0 870.0 " fill="none" stroke="#4EA8DE" stroke-width="3" opacity="0.10"/></g><g><g opacity="0.55">
        <g>
          <path d="M 361.1 388.5
                   L 428.3 388.5
                   L 420.4 422.1
                   Q 394.7 441.7 368.9 422.1
                   Z" fill="#ffffff" stroke="#1E1B2E" stroke-width="7"/>
          <path d="M 427.7 398.3
                   Q 447.9 410.9 427.7 423.5" fill="none" stroke="#1E1B2E" stroke-width="10" stroke-linecap="round" opacity="0.9"/>
          <rect x="381.2" y="441.7" width="26.9" height="16.8" rx="5.6" fill="#4EA8DE" opacity="0.45" stroke="#1E1B2E" stroke-width="6"/>
          <circle cx="394.68653864642624" cy="381.5" r="6.2" fill="#4EA8DE" opacity="0.55"/>
          <path d="M 382.1 381.5 Q 394.68653864642624 370.3 407.3 381.5" fill="none" stroke="#4EA8DE" stroke-width="7" opacity="0.55" stroke-linecap="round"/>
        </g>
        </g><g opacity="0.55">
        <g>
          <path d="M 331.9 807.4
                   L 399.1 807.4
                   L 391.3 841.0
                   Q 365.5 860.6 339.8 841.0
                   Z" fill="#ffffff" stroke="#1E1B2E" stroke-width="7"/>
          <path d="M 398.6 817.2
                   Q 418.7 829.8 398.6 842.4" fill="none" stroke="#1E1B2E" stroke-width="10" stroke-linecap="round" opacity="0.9"/>
          <rect x="352.1" y="860.6" width="26.9" height="16.8" rx="5.6" fill="#4EA8DE" opacity="0.45" stroke="#1E1B2E" stroke-width="6"/>
          <circle cx="365.530462038644" cy="800.4" r="6.2" fill="#4EA8DE" opacity="0.55"/>
          <path d="M 352.9 800.4 Q 365.530462038644 789.2 378.1 800.4" fill="none" stroke="#4EA8DE" stroke-width="7" opacity="0.55" stroke-linecap="round"/>
        </g>
        </g></g><g opacity="0.9"><g opacity='0.9'><circle cx="165.0" cy="330" r="14" fill="none" stroke="#4EA8DE" stroke-width="4" opacity="0.30"/><circle cx="151.0" cy="330" r="12.9" fill="#4EA8DE" opacity="0.16"/><circle cx="235.0" cy="330" r="14" fill="none" stroke="#4EA8DE" stroke-width="4" opacity="0.30"/><circle cx="225.7" cy="330" r="12.9" fill="#4EA8DE" opacity="0.13"/><circle cx="305.0" cy="330" r="14" fill="none" stroke="#4EA8DE" stroke-width="4" opacity="0.30"/><circle cx="300.3" cy="330" r="12.9" fill="#4EA8DE" opacity="0.09"/><circle cx="375.0" cy="330" r="14" fill="none" stroke="#4EA8DE" stroke-width="4" opacity="0.30"/><circle cx="375.0" cy="330" r="12.9" fill="#4EA8DE" opacity="0.06"/><circle cx="445.0" cy="330" r="14" fill="none" stroke="#4EA8DE" stroke-width="4" opacity="0.30"/><circle cx="449.7" cy="330" r="12.9" fill="#4EA8DE" opacity="0.09"/><circle cx="515.0" cy="330" r="14" fill="none" stroke="#4EA8DE" stroke-width="4" opacity="0.30"/><circle cx="524.3" cy="330" r="12.9" fill="#4EA8DE" opacity="0.13"/><circle cx="585.0" cy="330" r="14" fill="none" stroke="#4EA8DE" stroke-width="4" opacity="0.30"/><circle cx="599.0" cy="330" r="12.9" fill="#4EA8DE" opacity="0.16"/></g></g>
        <g filter="url(#glow)">
          <circle cx="375.0" cy="630" r="170" fill="#ffffff" opacity="0.40" stroke="#4EA8DE" stroke-width="7"/>
          
        <g>
          <path d="M 288.6 572.4
                   L 461.4 572.4
                   L 441.2 658.8
                   Q 375.0 709.2 308.8 658.8
                   Z" fill="#ffffff" stroke="#1E1B2E" stroke-width="7"/>
          <path d="M 460.0 597.6
                   Q 511.8 630.0 460.0 662.4" fill="none" stroke="#1E1B2E" stroke-width="10" stroke-linecap="round" opacity="0.9"/>
          <rect x="340.4" y="709.2" width="69.1" height="43.2" rx="14.4" fill="#4EA8DE" opacity="0.45" stroke="#1E1B2E" stroke-width="6"/>
          <circle cx="375.0" cy="554.4" r="15.8" fill="#4EA8DE" opacity="0.55"/>
          <path d="M 342.6 554.4 Q 375.0 525.6 407.4 554.4" fill="none" stroke="#4EA8DE" stroke-width="7" opacity="0.55" stroke-linecap="round"/>
        </g>
        
        </g>
        <line x1="321.8" y1="439.5" x2="536.3" y2="575.4" stroke="#ffffff" stroke-width="2.2" opacity="0.12"/>
<line x1="536.3" y1="575.4" x2="302.9" y2="616.1" stroke="#ffffff" stroke-width="2.2" opacity="0.08"/>
<line x1="302.9" y1="616.1" x2="328.0" y2="529.3" stroke="#ffffff" stroke-width="2.2" opacity="0.20"/>
<line x1="328.0" y1="529.3" x2="374.1" y2="235.0" stroke="#ffffff" stroke-width="2.2" opacity="0.17"/>
<line x1="374.1" y1="235.0" x2="224.4" y2="612.4" stroke="#ffffff" stroke-width="2.2" opacity="0.19"/>
<line x1="224.4" y1="612.4" x2="245.3" y2="574.6" stroke="#ffffff" stroke-width="2.2" opacity="0.19"/>
<circle cx="224.4" cy="612.4" r="4.0" fill="#ffffff" opacity="0.4745775603217146"/>
<circle cx="603.1" cy="292.2" r="3.7" fill="#ffffff" opacity="0.3923425827510322"/>
<circle cx="245.3" cy="574.6" r="4.7" fill="#ffffff" opacity="0.553562553990629"/>
<circle cx="452.0" cy="491.8" r="2.0" fill="#ffffff" opacity="0.6199253090603216"/>
<circle cx="302.9" cy="616.1" r="4.1" fill="#ffffff" opacity="0.2565064233428488"/>
<circle cx="270.9" cy="397.4" r="3.3" fill="#ffffff" opacity="0.4001020064644408"/>
<circle cx="321.8" cy="439.5" r="2.2" fill="#ffffff" opacity="0.45853843934750993"/>
<circle cx="328.0" cy="529.3" r="1.8" fill="#ffffff" opacity="0.6170856480577933"/>
<circle cx="359.2" cy="267.6" r="4.0" fill="#ffffff" opacity="0.6281328342180504"/>
<circle cx="378.7" cy="524.7" r="3.6" fill="#ffffff" opacity="0.4609763165247037"/>
<circle cx="515.5" cy="422.8" r="3.8" fill="#ffffff" opacity="0.646861390679107"/>
<circle cx="192.8" cy="673.2" r="3.9" fill="#ffffff" opacity="0.5938202392813563"/>
<circle cx="374.1" cy="235.0" r="1.7" fill="#ffffff" opacity="0.45117445895163427"/>
<circle cx="536.3" cy="575.4" r="4.7" fill="#ffffff" opacity="0.5887354281484359"/>
<rect x="42" y="1030" width="666" height="160" rx="30" fill="#ffffffd9" stroke="#1E1B2E" stroke-width="4" opacity="0.95"/>
<text x="375.0" y="1104" font-family="ui-sans-serif, system-ui, -apple-system, Segoe UI, Roboto, Helvetica, Arial" font-size="46" font-weight="900" text-anchor="middle" fill="#1E1B2E" opacity="0.98">2 of Cups</text>
<text x="375.0" y="1152" font-family="ui-sans-serif, system-ui, -apple-system, Segoe UI, Roboto, Helvetica, Arial" font-size="28" font-weight="700" text-anchor="middle" fill="#1E1B2E" opacity="0.7">Choices</text>

    <g opacity="0.55">
      <circle cx="127" cy="1176" r="14" fill="#4EA8DE"/>
      <circle cx="623" cy="1176" r="14" fill="#4EA8DE"/>
      <path d="M 162 1176 L 588 1176" stroke="#4EA8DE" stroke-width="4" opacity="0.45" stroke-linecap="round"/>
    </g>
    
</svg>
