<svg xmlns="http://www.w3.org/2000/svg" width="750" height="1250" viewBox="0 0 750 1250">
  <title>3 of Cups</title>


  <defs>
    <linearGradient id="g" x1="0" y1="0" x2="1" y2="1">
      <stop offset="0%" stop-color="#FFF7CC"/>
      <stop offset="100%" stop-color="#E6FBFF"/>
    </linearGradient>

    <!-- paper texture -->
    <filter id="paper" x="-20%" y="-20%" width="140%" height="140%">
      <feTurbulence type="fractalNoise" baseFrequency="0.019" numOctaves="3" seed="104" result="noise"/>
      <feColorMatrix in="noise" type="matrix"
        values="1 0 0 0 0
                0 1 0 0 0
                0 0 1 0 0
                0 0 0 0.25 0" result="noiseAlpha"/>
      <feComposite in="noiseAlpha" in2="SourceGraphic" operator="over"/>
    </filter>

    <!-- soft glow -->
    <filter id="glow" x="-30%" y="-30%" width="160%" height="160%">
      <feGaussianBlur stdDeviation="10" result="blur"/>
      <feColorMatrix type="matrix" values="
        1 0 0 0 0
        0 1 0 0 0
        0 0 1 0 0
        0 0 0 0.32 0" result="blurAlpha"/>
      <feMerge>
        <feMergeNode in="blurAlpha"/>
        <feMergeNode in="SourceGraphic"/>
      </feMerge>
    </filter>
  </defs>

<rect x="0" y="0" width="750" height="1250" rx="58" ry="58" fill="url(#g)" stroke="none" stroke-width="0" opacity="1"/>
<rect x="0" y="0" width="750" height="1250" fill="#ffffff" opacity="0.08"/>
<line x1="255.9" y1="401.1" x2="316.3" y2="91.8" stroke="#ffffff" stroke-width="2.2" opacity="0.13"/>
<line x1="316.3" y1="91.8" x2="392.3" y2="488.2" stroke="#ffffff" stroke-width="2.2" opacity="0.14"/>
<line x1="392.3" y1="488.2" x2="80.2" y2="1166.4" stroke="#ffffff" stroke-width="2.2" opacity="0.18"/>
<line x1="80.2" y1="1166.4" x2="392.4" y2="1008.2" stroke="#ffffff" stroke-width="2.2" opacity="0.15"/>
<line x1="392.4" y1="1008.2" x2="570.4" y2="674.3" stroke="#ffffff" stroke-width="2.2" opacity="0.14"/>
<line x1="570.4" y1="674.3" x2="461.2" y2="760.3" stroke="#ffffff" stroke-width="2.2" opacity="0.09"/>
<line x1="461.2" y1="760.3" x2="132.7" y2="271.5" stroke="#ffffff" stroke-width="2.2" opacity="0.13"/>
<line x1="132.7" y1="271.5" x2="280.9" y2="1005.2" stroke="#ffffff" stroke-width="2.2" opacity="0.10"/>
<line x1="280.9" y1="1005.2" x2="289.3" y2="811.3" stroke="#ffffff" stroke-width="2.2" opacity="0.18"/>
<line x1="289.3" y1="811.3" x2="552.6" y2="356.0" stroke="#ffffff" stroke-width="2.2" opacity="0.22"/>
<line x1="552.6" y1="356.0" x2="337.1" y2="891.3" stroke="#ffffff" stroke-width="2.2" opacity="0.09"/>
<line x1="337.1" y1="891.3" x2="576.7" y2="1054.3" stroke="#ffffff" stroke-width="2.2" opacity="0.19"/>
<line x1="576.7" y1="1054.3" x2="533.0" y2="1032.0" stroke="#ffffff" stroke-width="2.2" opacity="0.19"/>
<line x1="533.0" y1="1032.0" x2="640.9" y2="395.8" stroke="#ffffff" stroke-width="2.2" opacity="0.14"/>
<line x1="640.9" y1="395.8" x2="202.7" y2="435.9" stroke="#ffffff" stroke-width="2.2" opacity="0.21"/>
<line x1="202.7" y1="435.9" x2="448.8" y2="618.1" stroke="#ffffff" stroke-width="2.2" opacity="0.11"/>
<line x1="448.8" y1="618.1" x2="533.6" y2="141.4" stroke="#ffffff" stroke-width="2.2" opacity="0.16"/>
<line x1="533.6" y1="141.4" x2="599.3" y2="537.5" stroke="#ffffff" stroke-width="2.2" opacity="0.15"/>
<circle cx="351.3" cy="857.4" r="3.2" fill="#ffffff" opacity="0.6498588956700415"/>
<circle cx="386.5" cy="1169.6" r="3.3" fill="#ffffff" opacity="0.28294271834980295"/>
<circle cx="289.3" cy="811.3" r="2.4" fill="#ffffff" opacity="0.8010886851694723"/>
<circle cx="680.5" cy="162.8" r="4.4" fill="#ffffff" opacity="0.4820702279541408"/>
<circle cx="130.9" cy="602.8" r="2.4" fill="#ffffff" opacity="0.28869729406214123"/>
<circle cx="412.9" cy="474.7" r="4.8" fill="#ffffff" opacity="0.6750467444105328"/>
<circle cx="48.1" cy="499.4" r="1.9" fill="#ffffff" opacity="0.26815597470365743"/>
<circle cx="392.3" cy="488.2" r="4.7" fill="#ffffff" opacity="0.6774966067422659"/>
<circle cx="281.2" cy="808.6" r="4.5" fill="#ffffff" opacity="0.617238513407057"/>
<circle cx="132.7" cy="271.5" r="3.3" fill="#ffffff" opacity="0.6718259106526201"/>
<circle cx="392.4" cy="1008.2" r="3.3" fill="#ffffff" opacity="0.35546646880710064"/>
<circle cx="529.7" cy="870.8" r="1.7" fill="#ffffff" opacity="0.5336438072342043"/>
<circle cx="337.1" cy="891.3" r="4.5" fill="#ffffff" opacity="0.7910290437822989"/>
<circle cx="640.9" cy="395.8" r="1.8" fill="#ffffff" opacity="0.6588736367292485"/>
<circle cx="635.3" cy="1141.6" r="4.6" fill="#ffffff" opacity="0.48420720008562496"/>
<circle cx="570.4" cy="674.3" r="3.7" fill="#ffffff" opacity="0.6043020685490421"/>
<circle cx="533.0" cy="1032.0" r="2.5" fill="#ffffff" opacity="0.636075067321598"/>
<circle cx="622.1" cy="88.6" r="3.3" fill="#ffffff" opacity="0.3296846779594849"/>
<circle cx="594.3" cy="250.7" r="4.1" fill="#ffffff" opacity="0.7877807084151932"/>
<circle cx="257.5" cy="1099.3" r="4.5" fill="#ffffff" opacity="0.43595776542102843"/>
<circle cx="255.9" cy="401.1" r="3.1" fill="#ffffff" opacity="0.7170813616473917"/>
<circle cx="401.3" cy="203.0" r="3.6" fill="#ffffff" opacity="0.5237836299088738"/>
<circle cx="280.9" cy="1005.2" r="3.1" fill="#ffffff" opacity="0.6156749721928093"/>
<circle cx="440.8" cy="1009.7" r="3.6" fill="#ffffff" opacity="0.8405811893428963"/>
<circle cx="316.3" cy="91.8" r="2.0" fill="#ffffff" opacity="0.47791821372703835"/>
<circle cx="359.8" cy="618.1" r="2.6" fill="#ffffff" opacity="0.6693813476990043"/>
<circle cx="576.7" cy="1054.3" r="2.4" fill="#ffffff" opacity="0.7869053177272034"/>
<circle cx="70.1" cy="370.6" r="4.1" fill="#ffffff" opacity="0.48341781615648727"/>
<circle cx="448.8" cy="618.1" r="3.9" fill="#ffffff" opacity="0.727908690283577"/>
<circle cx="347.6" cy="676.8" r="3.9" fill="#ffffff" opacity="0.7511247125608547"/>
<circle cx="148.1" cy="546.8" r="2.3" fill="#ffffff" opacity="0.5282887514409778"/>
<circle cx="202.7" cy="435.9" r="1.7" fill="#ffffff" opacity="0.6866577753077239"/>
<circle cx="509.7" cy="749.5" r="2.1" fill="#ffffff" opacity="0.444173030762972"/>
<circle cx="341.5" cy="502.6" r="4.5" fill="#ffffff" opacity="0.2851694869225983"/>
<circle cx="461.2" cy="760.3" r="2.1" fill="#ffffff" opacity="0.6126034956481391"/>
<circle cx="110.4" cy="795.1" r="4.0" fill="#ffffff" opacity="0.4044688306361031"/>
<circle cx="552.6" cy="356.0" r="1.9" fill="#ffffff" opacity="0.56386408750677"/>
<circle cx="657.6" cy="142.9" r="4.3" fill="#ffffff" opacity="0.4826967717653078"/>
<circle cx="599.3" cy="537.5" r="1.6" fill="#ffffff" opacity="0.3917498612440865"/>
<circle cx="108.6" cy="501.9" r="2.1" fill="#ffffff" opacity="0.7253988075746138"/>
<circle cx="398.7" cy="501.6" r="3.1" fill="#ffffff" opacity="0.265586665422579"/>
<circle cx="348.3" cy="459.3" r="4.4" fill="#ffffff" opacity="0.25078546238891136"/>
<circle cx="408.9" cy="324.6" r="1.9" fill="#ffffff" opacity="0.6034371784364374"/>
<circle cx="80.2" cy="1166.4" r="2.9" fill="#ffffff" opacity="0.27402557640485836"/>
<circle cx="237.4" cy="878.3" r="1.8" fill="#ffffff" opacity="0.3216053716557735"/>
<circle cx="533.6" cy="141.4" r="2.8" fill="#ffffff" opacity="0.8359128040580276"/>
<circle cx="228.9" cy="410.0" r="1.8" fill="#ffffff" opacity="0.7796164545723655"/>
<circle cx="205.3" cy="73.9" r="3.7" fill="#ffffff" opacity="0.8177198595329249"/>
<circle cx="237.6" cy="937.2" r="3.1" fill="#ffffff" opacity="0.31488439152382974"/>
<circle cx="178.8" cy="544.5" r="3.6" fill="#ffffff" opacity="0.28254189914656436"/>
<g filter="url(#paper)"><rect x="42" y="42" width="666" height="1166" rx="54" ry="54" fill="none" stroke="#1E1B2E" stroke-width="8" opacity="0.95"/>
<rect x="60" y="60" width="630" height="1130" rx="46" ry="46" fill="none" stroke="#4EA8DE" stroke-width="3" opacity="0.35"/>

  <g opacity="0.42">
    <circle cx="375.0" cy="560" r="285" fill="none" stroke="#4EA8DE" stroke-width="4.2" opacity="0.42"/>
    <circle cx="375.0" cy="560" r="233.7" fill="none" stroke="#4EA8DE" stroke-width="2.2" opacity="0.23"/>
    <line x1="642.0" y1="560.0" x2="674.0" y2="560.0" stroke="#4EA8DE" stroke-width="3.2" opacity="0.23" stroke-linecap="round"/><line x1="606.2" y1="693.5" x2="633.9" y2="709.5" stroke="#4EA8DE" stroke-width="3.2" opacity="0.23" stroke-linecap="round"/><line x1="508.5" y1="791.2" x2="524.5" y2="818.9" stroke="#4EA8DE" stroke-width="3.2" opacity="0.23" stroke-linecap="round"/><line x1="375.0" y1="827.0" x2="375.0" y2="859.0" stroke="#4EA8DE" stroke-width="3.2" opacity="0.23" stroke-linecap="round"/><line x1="241.5" y1="791.2" x2="225.5" y2="818.9" stroke="#4EA8DE" stroke-width="3.2" opacity="0.23" stroke-linecap="round"/><line x1="143.8" y1="693.5" x2="116.1" y2="709.5" stroke="#4EA8DE" stroke-width="3.2" opacity="0.23" stroke-linecap="round"/><line x1="108.0" y1="560.0" x2="76.0" y2="560.0" stroke="#4EA8DE" stroke-width="3.2" opacity="0.23" stroke-linecap="round"/><line x1="143.8" y1="426.5" x2="116.1" y2="410.5" stroke="#4EA8DE" stroke-width="3.2" opacity="0.23" stroke-linecap="round"/><line x1="241.5" y1="328.8" x2="225.5" y2="301.1" stroke="#4EA8DE" stroke-width="3.2" opacity="0.23" stroke-linecap="round"/><line x1="375.0" y1="293.0" x2="375.0" y2="261.0" stroke="#4EA8DE" stroke-width="3.2" opacity="0.23" stroke-linecap="round"/><line x1="508.5" y1="328.8" x2="524.5" y2="301.1" stroke="#4EA8DE" stroke-width="3.2" opacity="0.23" stroke-linecap="round"/><line x1="606.2" y1="426.5" x2="633.9" y2="410.5" stroke="#4EA8DE" stroke-width="3.2" opacity="0.23" stroke-linecap="round"/>
    <circle cx="660.0" cy="558.7" r="3.6" fill="#4EA8DE" opacity="0.24"/><circle cx="650.3" cy="633.6" r="3.6" fill="#4EA8DE" opacity="0.42"/><circle cx="622.1" cy="702.0" r="3.2" fill="#4EA8DE" opacity="0.26"/><circle cx="577.3" cy="760.8" r="3.6" fill="#4EA8DE" opacity="0.28"/><circle cx="515.9" cy="807.7" r="2.7" fill="#4EA8DE" opacity="0.32"/><circle cx="457.4" cy="832.8" r="3.3" fill="#4EA8DE" opacity="0.31"/><circle cx="383.7" cy="844.9" r="2.8" fill="#4EA8DE" opacity="0.25"/><circle cx="293.0" cy="832.9" r="2.6" fill="#4EA8DE" opacity="0.18"/><circle cx="228.8" cy="804.6" r="3.2" fill="#4EA8DE" opacity="0.21"/><circle cx="166.8" cy="754.7" r="2.8" fill="#4EA8DE" opacity="0.24"/><circle cx="126.2" cy="699.0" r="2.9" fill="#4EA8DE" opacity="0.27"/><circle cx="97.7" cy="625.8" r="4.0" fill="#4EA8DE" opacity="0.26"/><circle cx="90.0" cy="562.3" r="3.5" fill="#4EA8DE" opacity="0.30"/><circle cx="99.6" cy="486.8" r="3.9" fill="#4EA8DE" opacity="0.25"/><circle cx="132.9" cy="409.7" r="3.3" fill="#4EA8DE" opacity="0.26"/><circle cx="176.7" cy="355.3" r="3.4" fill="#4EA8DE" opacity="0.23"/><circle cx="236.8" cy="310.7" r="3.4" fill="#4EA8DE" opacity="0.29"/><circle cx="300.3" cy="285.0" r="3.8" fill="#4EA8DE" opacity="0.21"/><circle cx="374.0" cy="275.0" r="3.3" fill="#4EA8DE" opacity="0.40"/><circle cx="457.2" cy="287.1" r="3.1" fill="#4EA8DE" opacity="0.40"/><circle cx="515.3" cy="311.9" r="3.8" fill="#4EA8DE" opacity="0.21"/><circle cx="574.4" cy="356.3" r="3.9" fill="#4EA8DE" opacity="0.20"/><circle cx="619.3" cy="413.1" r="3.1" fill="#4EA8DE" opacity="0.21"/><circle cx="651.9" cy="492.5" r="3.3" fill="#4EA8DE" opacity="0.20"/>
  </g>

<g><g transform="translate(50,54)"><path d="M 32.4 126.0 C 63.0 54.0, 111.6 32.4, 158.4 39.6" fill="none" stroke="#4EA8DE" stroke-width="6" opacity="0.55" stroke-linecap="round"/></g><g transform="translate(700,54) scale(-1,1)"><path d="M 32.4 126.0 C 63.0 54.0, 111.6 32.4, 158.4 39.6" fill="none" stroke="#4EA8DE" stroke-width="6" opacity="0.55" stroke-linecap="round"/></g><g transform="translate(50,1196) scale(1,-1)"><path d="M 32.4 126.0 C 63.0 54.0, 111.6 32.4, 158.4 39.6" fill="none" stroke="#4EA8DE" stroke-width="6" opacity="0.55" stroke-linecap="round"/></g><g transform="translate(700,1196) scale(-1,-1)"><path d="M 32.4 126.0 C 63.0 54.0, 111.6 32.4, 158.4 39.6" fill="none" stroke="#4EA8DE" stroke-width="6" opacity="0.55" stroke-linecap="round"/></g></g></g>
<rect x="42" y="60" width="666" height="92" rx="30" fill="#ffffffcc" stroke="#1E1B2E" stroke-width="4" opacity="0.95"/>
<text x="375.0" y="122" font-family="ui-sans-serif, system-ui, -apple-system, Segoe UI, Roboto, Helvetica, Arial" font-size="30" font-weight="800" text-anchor="middle" fill="#1E1B2E" opacity="0.95" letter-spacing="1">MINOR ARCANA • CUPS</text>
<rect x="76" y="170" width="598" height="760" rx="52" fill="#ffffff" opacity="0.15"/>
<g><path d="M 72 230.0 Q 127.0 204.5 182.0 230.0 Q 237.0 255.5 292.0 230.0 Q 347.0 204.5 402.0 230.0 Q 457.0 255.5 512.0 230.0 Q 567.0 204.5 622.0 230.0 Q 677.0 255.5 732.0 230.0 " fill="none" stroke="#4EA8DE" stroke-width="3" opacity="0.10"/><path d="M 72 310.0 Q 127.0 283.5 182.0 310.0 Q 237.0 336.5 292.0 310.0 Q 347.0 283.5 402.0 310.0 Q 457.0 336.5 512.0 310.0 Q 567.0 283.5 622.0 310.0 Q 677.0 336.5 732.0 310.0 " fill="none" stroke="#4EA8DE" stroke-width="3" opacity="0.10"/><path d="M 72 390.0 Q 127.0 365.3 182.0 390.0 Q 237.0 414.7 292.0 390.0 Q 347.0 365.3 402.0 390.0 Q 457.0 414.7 512.0 390.0 Q 567.0 365.3 622.0 390.0 Q 677.0 414.7 732.0 390.0 " fill="none" stroke="#4EA8DE" stroke-width="3" opacity="0.10"/><path d="M 72 470.0 Q 127.0 440.4 182.0 470.0 Q 237.0 499.6 292.0 470.0 Q 347.0 440.4 402.0 470.0 Q 457.0 499.6 512.0 470.0 Q 567.0 440.4 622.0 470.0 Q 677.0 499.6 732.0 470.0 " fill="none" stroke="#4EA8DE" stroke-width="3" opacity="0.10"/><path d="M 72 550.0 Q 127.0 529.3 182.0 550.0 Q 237.0 570.7 292.0 550.0 Q 347.0 529.3 402.0 550.0 Q 457.0 570.7 512.0 550.0 Q 567.0 529.3 622.0 550.0 Q 677.0 570.7 732.0 550.0 " fill="none" stroke="#4EA8DE" stroke-width="3" opacity="0.10"/><path d="M 72 630.0 Q 127.0 603.9 182.0 630.0 Q 237.0 656.1 292.0 630.0 Q 347.0 603.9 402.0 630.0 Q 457.0 656.1 512.0 630.0 Q 567.0 603.9 622.0 630.0 Q 677.0 656.1 732.0 630.0 " fill="none" stroke="#4EA8DE" stroke-width="3" opacity="0.10"/><path d="M 72 710.0 Q 127.0 689.6 182.0 710.0 Q 237.0 730.4 292.0 710.0 Q 347.0 689.6 402.0 710.0 Q 457.0 730.4 512.0 710.0 Q 567.0 689.6 622.0 710.0 Q 677.0 730.4 732.0 710.0 " fill="none" stroke="#4EA8DE" stroke-width="3" opacity="0.10"/><path d="M 72 790.0 Q 127.0 765.5 182.0 790.0 Q 237.0 814.5 292.0 790.0 Q 347.0 765.5 402.0 790.0 Q 457.0 814.5 512.0 790.0 Q 567.0 765.5 622.0 790.0 Q 677.0 814.5 732.0 790.0 " fill="none" stroke="#4EA8DE" stroke-width="3" opacity="0.10"/><path d="M 72 870.0 Q 127.0 851.2 182.0 870.0 Q 237.0 888.8 292.0 870.0 Q 347.0 851.2 402.0 870.0 Q 457.0 888.8 512.0 870.0 Q 567.0 851.2 622.0 870.0 Q 677.0 888.8 732.0 870.0 " fill="none" stroke="#4EA8DE" stroke-width="3" opacity="0.10"/></g><g><g opacity="0.55">
        <g>
          <path d="M 357.8 388.2
                   L 425.0 388.2
                   L 417.2 421.8
                   Q 391.4 441.4 365.6 421.8
                   Z" fill="#ffffff" stroke="#1E1B2E" stroke-width="7"/>
          <path d="M 424.4 398.0
                   Q 444.6 410.6 424.4 423.2" fill="none" stroke="#1E1B2E" stroke-width="10" stroke-linecap="round" opacity="0.9"/>
          <rect x="378.0" y="441.4" width="26.9" height="16.8" rx="5.6" fill="#4EA8DE" opacity="0.45" stroke="#1E1B2E" stroke-width="6"/>
          <circle cx="391.4050298954176" cy="381.2" r="6.2" fill="#4EA8DE" opacity="0.55"/>
          <path d="M 378.8 381.2 Q 391.4050298954176 370.0 404.0 381.2" fill="none" stroke="#4EA8DE" stroke-width="7" opacity="0.55" stroke-linecap="round"/>
        </g>
        </g><g opacity="0.55">
        <g>
          <path d="M 518.2 710.8
                   L 585.4 710.8
                   L 577.6 744.4
                   Q 551.8 764.0 526.1 744.4
                   Z" fill="#ffffff" stroke="#1E1B2E" stroke-width="7"/>
          <path d="M 584.9 720.6
                   Q 605.0 733.2 584.9 745.8" fill="none" stroke="#1E1B2E" stroke-width="10" stroke-linecap="round" opacity="0.9"/>
          <rect x="538.4" y="764.0" width="26.9" height="16.8" rx="5.6" fill="#4EA8DE" opacity="0.45" stroke="#1E1B2E" stroke-width="6"/>
          <circle cx="551.8470059035726" cy="703.8" r="6.2" fill="#4EA8DE" opacity="0.55"/>
          <path d="M 539.2 703.8 Q 551.8470059035726 692.6 564.4 703.8" fill="none" stroke="#4EA8DE" stroke-width="7" opacity="0.55" stroke-linecap="round"/>
        </g>
        </g><g opacity="0.55">
        <g>
          <path d="M 152.6 689.6
                   L 219.8 689.6
                   L 212.0 723.2
                   Q 186.2 742.8 160.5 723.2
                   Z" fill="#ffffff" stroke="#1E1B2E" stroke-width="7"/>
          <path d="M 219.3 699.4
                   Q 239.4 712.0 219.3 724.6" fill="none" stroke="#1E1B2E" stroke-width="10" stroke-linecap="round" opacity="0.9"/>
          <rect x="172.8" y="742.8" width="26.9" height="16.8" rx="5.6" fill="#4EA8DE" opacity="0.45" stroke="#1E1B2E" stroke-width="6"/>
          <circle cx="186.22870994197064" cy="682.6" r="6.2" fill="#4EA8DE" opacity="0.55"/>
          <path d="M 173.6 682.6 Q 186.22870994197064 671.4 198.8 682.6" fill="none" stroke="#4EA8DE" stroke-width="7" opacity="0.55" stroke-linecap="round"/>
        </g>
        </g></g>
        <g opacity="0.55" filter="url(#glow)">
          <polygon points="255.00,350.00 271.46,397.35 321.57,398.37 281.63,428.65 296.14,476.63 255.00,448.00 213.86,476.63 228.37,428.65 188.43,398.37 238.54,397.35" fill="#ffffff"/>
          <polygon points="495.00,350.00 511.46,397.35 561.57,398.37 521.63,428.65 536.14,476.63 495.00,448.00 453.86,476.63 468.37,428.65 428.43,398.37 478.54,397.35" fill="#ffffff"/>
          <polygon points="375.00,405.00 394.98,462.49 455.84,463.73 407.34,500.51 424.96,558.77 375.00,524.00 325.04,558.77 342.66,500.51 294.16,463.73 355.02,462.49" fill="#4EA8DE" opacity="0.35"/>
        </g>
        
        <g filter="url(#glow)">
          <circle cx="375.0" cy="630" r="170" fill="#ffffff" opacity="0.40" stroke="#4EA8DE" stroke-width="7"/>
          
        <g>
          <path d="M 288.6 572.4
                   L 461.4 572.4
                   L 441.2 658.8
                   Q 375.0 709.2 308.8 658.8
                   Z" fill="#ffffff" stroke="#1E1B2E" stroke-width="7"/>
          <path d="M 460.0 597.6
                   Q 511.8 630.0 460.0 662.4" fill="none" stroke="#1E1B2E" stroke-width="10" stroke-linecap="round" opacity="0.9"/>
          <rect x="340.4" y="709.2" width="69.1" height="43.2" rx="14.4" fill="#4EA8DE" opacity="0.45" stroke="#1E1B2E" stroke-width="6"/>
          <circle cx="375.0" cy="554.4" r="15.8" fill="#4EA8DE" opacity="0.55"/>
          <path d="M 342.6 554.4 Q 375.0 525.6 407.4 554.4" fill="none" stroke="#4EA8DE" stroke-width="7" opacity="0.55" stroke-linecap="round"/>
        </g>
        
        </g>
        <line x1="618.9" y1="540.2" x2="175.0" y2="670.3" stroke="#ffffff" stroke-width="2.2" opacity="0.13"/>
<line x1="175.0" y1="670.3" x2="336.6" y2="551.0" stroke="#ffffff" stroke-width="2.2" opacity="0.13"/>
<line x1="336.6" y1="551.0" x2="501.5" y2="491.5" stroke="#ffffff" stroke-width="2.2" opacity="0.11"/>
<line x1="501.5" y1="491.5" x2="196.0" y2="255.4" stroke="#ffffff" stroke-width="2.2" opacity="0.14"/>
<line x1="196.0" y1="255.4" x2="507.0" y2="475.0" stroke="#ffffff" stroke-width="2.2" opacity="0.16"/>
<line x1="507.0" y1="475.0" x2="512.3" y2="317.9" stroke="#ffffff" stroke-width="2.2" opacity="0.13"/>
<circle cx="507.0" cy="475.0" r="2.7" fill="#ffffff" opacity="0.45382996034361234"/>
<circle cx="463.5" cy="523.4" r="2.0" fill="#ffffff" opacity="0.554579246948105"/>
<circle cx="290.5" cy="619.8" r="3.3" fill="#ffffff" opacity="0.2531276501371732"/>
<circle cx="501.5" cy="491.5" r="2.0" fill="#ffffff" opacity="0.6317628132066974"/>
<circle cx="420.3" cy="351.9" r="2.4" fill="#ffffff" opacity="0.409376088673911"/>
<circle cx="302.6" cy="661.2" r="4.4" fill="#ffffff" opacity="0.645292364693674"/>
<circle cx="467.4" cy="395.9" r="4.6" fill="#ffffff" opacity="0.46585131778150013"/>
<circle cx="618.9" cy="540.2" r="2.5" fill="#ffffff" opacity="0.28045412025137545"/>
<circle cx="541.6" cy="454.9" r="2.1" fill="#ffffff" opacity="0.829648854731508"/>
<circle cx="512.3" cy="317.9" r="3.4" fill="#ffffff" opacity="0.620881528836142"/>
<circle cx="175.0" cy="670.3" r="1.7" fill="#ffffff" opacity="0.8473904233257856"/>
<circle cx="471.0" cy="603.5" r="4.1" fill="#ffffff" opacity="0.7615170459546582"/>
<circle cx="336.6" cy="551.0" r="3.5" fill="#ffffff" opacity="0.7333334841689229"/>
<circle cx="196.0" cy="255.4" r="1.7" fill="#ffffff" opacity="0.45030878223589715"/>
<rect x="42" y="1030" width="666" height="160" rx="30" fill="#ffffffd9" stroke="#1E1B2E" stroke-width="4" opacity="0.95"/>
<text x="375.0" y="1104" font-family="ui-sans-serif, system-ui, -apple-system, Segoe UI, Roboto, Helvetica, Arial" font-size="46" font-weight="900" text-anchor="middle" fill="#1E1B2E" opacity="0.98">3 of Cups</text>
<text x="375.0" y="1152" font-family="ui-sans-serif, system-ui, -apple-system, Segoe UI, Roboto, Helvetica, Arial" font-size="28" font-weight="700" text-anchor="middle" fill="#1E1B2E" opacity="0.7">Growth</text>

    <g opacity="0.55">
      <circle cx="127" cy="1176" r="14" fill="#4EA8DE"/>
      <circle cx="623" cy="1176" r="14" fill="#4EA8DE"/>
      <path d="M 162 1176 L 588 1176" stroke="#4EA8DE" stroke-width="4" opacity="0.45" stroke-linecap="round"/>
    </g>
    
</svg>
