<svg xmlns="http://www.w3.org/2000/svg" width="750" height="1250" viewBox="0 0 750 1250">
  <title>4 of Cups</title>


  <defs>
    <linearGradient id="g" x1="0" y1="0" x2="1" y2="1">
      <stop offset="0%" stop-color="#DFF7F0"/>
      <stop offset="100%" stop-color="#FFF1D8"/>
    </linearGradient>

    <!-- paper texture -->
    <filter id="paper" x="-20%" y="-20%" width="140%" height="140%">
      <feTurbulence type="fractalNoise" baseFrequency="0.014" numOctaves="3" seed="8388" result="noise"/>
      <feColorMatrix in="noise" type="matrix"
        values="1 0 0 0 0
                0 1 0 0 0
                0 0 1 0 0
                0 0 0 0.25 0" result="noiseAlpha"/>
      <feComposite in="noiseAlpha" in2="SourceGraphic" operator="over"/>
    </filter>

    <!-- soft glow -->
    <filter id="glow" x="-30%" y="-30%" width="160%" height="160%">
      <feGaussianBlur stdDeviation="10" result="blur"/>
      <feColorMatrix type="matrix" values="
        1 0 0 0 0
        0 1 0 0 0
        0 0 1 0 0
        0 0 0 0.32 0" result="blurAlpha"/>
      <feMerge>
        <feMergeNode in="blurAlpha"/>
        <feMergeNode in="SourceGraphic"/>
      </feMerge>
    </filter>
  </defs>

<rect x="0" y="0" width="750" height="1250" rx="58" ry="58" fill="url(#g)" stroke="none" stroke-width="0" opacity="1"/>
<rect x="0" y="0" width="750" height="1250" fill="#ffffff" opacity="0.08"/>
<line x1="266.1" y1="473.3" x2="352.9" y2="72.1" stroke="#ffffff" stroke-width="2.2" opacity="0.12"/>
<line x1="352.9" y1="72.1" x2="471.8" y2="565.4" stroke="#ffffff" stroke-width="2.2" opacity="0.18"/>
<line x1="471.8" y1="565.4" x2="601.3" y2="999.3" stroke="#ffffff" stroke-width="2.2" opacity="0.09"/>
<line x1="601.3" y1="999.3" x2="267.5" y2="244.8" stroke="#ffffff" stroke-width="2.2" opacity="0.20"/>
<line x1="267.5" y1="244.8" x2="392.4" y2="401.5" stroke="#ffffff" stroke-width="2.2" opacity="0.13"/>
<line x1="392.4" y1="401.5" x2="158.6" y2="438.1" stroke="#ffffff" stroke-width="2.2" opacity="0.18"/>
<line x1="158.6" y1="438.1" x2="65.6" y2="762.7" stroke="#ffffff" stroke-width="2.2" opacity="0.18"/>
<line x1="65.6" y1="762.7" x2="125.8" y2="801.6" stroke="#ffffff" stroke-width="2.2" opacity="0.19"/>
<line x1="125.8" y1="801.6" x2="109.7" y2="117.7" stroke="#ffffff" stroke-width="2.2" opacity="0.14"/>
<line x1="109.7" y1="117.7" x2="109.6" y2="671.1" stroke="#ffffff" stroke-width="2.2" opacity="0.11"/>
<line x1="109.6" y1="671.1" x2="649.3" y2="800.1" stroke="#ffffff" stroke-width="2.2" opacity="0.21"/>
<line x1="649.3" y1="800.1" x2="588.8" y2="1138.3" stroke="#ffffff" stroke-width="2.2" opacity="0.15"/>
<line x1="588.8" y1="1138.3" x2="202.6" y2="797.3" stroke="#ffffff" stroke-width="2.2" opacity="0.16"/>
<line x1="202.6" y1="797.3" x2="140.0" y2="466.3" stroke="#ffffff" stroke-width="2.2" opacity="0.20"/>
<line x1="140.0" y1="466.3" x2="242.2" y2="1203.6" stroke="#ffffff" stroke-width="2.2" opacity="0.10"/>
<line x1="242.2" y1="1203.6" x2="70.4" y2="1010.2" stroke="#ffffff" stroke-width="2.2" opacity="0.19"/>
<line x1="70.4" y1="1010.2" x2="525.8" y2="725.0" stroke="#ffffff" stroke-width="2.2" opacity="0.17"/>
<line x1="525.8" y1="725.0" x2="604.8" y2="579.4" stroke="#ffffff" stroke-width="2.2" opacity="0.13"/>
<circle cx="307.0" cy="931.0" r="2.4" fill="#ffffff" opacity="0.6406247008130757"/>
<circle cx="158.6" cy="438.1" r="2.8" fill="#ffffff" opacity="0.8413058870505049"/>
<circle cx="601.3" cy="999.3" r="3.1" fill="#ffffff" opacity="0.43436922359935637"/>
<circle cx="70.4" cy="1010.2" r="3.4" fill="#ffffff" opacity="0.7487481304299544"/>
<circle cx="109.6" cy="671.1" r="2.3" fill="#ffffff" opacity="0.5837617726858202"/>
<circle cx="268.0" cy="918.4" r="4.3" fill="#ffffff" opacity="0.712399009526682"/>
<circle cx="688.0" cy="941.3" r="2.1" fill="#ffffff" opacity="0.764431982424633"/>
<circle cx="496.3" cy="600.3" r="4.1" fill="#ffffff" opacity="0.7882645193819744"/>
<circle cx="140.0" cy="466.3" r="3.0" fill="#ffffff" opacity="0.7078965772217118"/>
<circle cx="392.4" cy="401.5" r="3.0" fill="#ffffff" opacity="0.6665109676486061"/>
<circle cx="525.8" cy="725.0" r="2.1" fill="#ffffff" opacity="0.7297949021039012"/>
<circle cx="579.7" cy="347.9" r="4.7" fill="#ffffff" opacity="0.27008149320711067"/>
<circle cx="649.3" cy="800.1" r="3.6" fill="#ffffff" opacity="0.5731283328644566"/>
<circle cx="487.1" cy="383.4" r="3.5" fill="#ffffff" opacity="0.8448119972138758"/>
<circle cx="704.5" cy="479.7" r="3.9" fill="#ffffff" opacity="0.32986161637327627"/>
<circle cx="592.6" cy="1055.2" r="2.6" fill="#ffffff" opacity="0.740484661004098"/>
<circle cx="133.7" cy="1184.0" r="2.5" fill="#ffffff" opacity="0.30754066470503305"/>
<circle cx="649.4" cy="395.1" r="2.2" fill="#ffffff" opacity="0.8292625562437148"/>
<circle cx="288.1" cy="815.3" r="3.9" fill="#ffffff" opacity="0.40803979578492733"/>
<circle cx="604.8" cy="579.4" r="4.1" fill="#ffffff" opacity="0.6886387210356155"/>
<circle cx="109.7" cy="117.7" r="4.6" fill="#ffffff" opacity="0.613605854453515"/>
<circle cx="202.6" cy="797.3" r="3.8" fill="#ffffff" opacity="0.3198856828940159"/>
<circle cx="121.0" cy="818.2" r="3.4" fill="#ffffff" opacity="0.7884055704012505"/>
<circle cx="193.5" cy="308.5" r="2.2" fill="#ffffff" opacity="0.31958208170524977"/>
<circle cx="267.5" cy="244.8" r="3.4" fill="#ffffff" opacity="0.2954874889261761"/>
<circle cx="658.4" cy="226.6" r="4.2" fill="#ffffff" opacity="0.42848673714610896"/>
<circle cx="117.4" cy="470.5" r="3.4" fill="#ffffff" opacity="0.6403644128326049"/>
<circle cx="99.2" cy="659.5" r="4.7" fill="#ffffff" opacity="0.6652058570680851"/>
<circle cx="242.2" cy="1203.6" r="3.5" fill="#ffffff" opacity="0.6483182214148224"/>
<circle cx="352.9" cy="72.1" r="2.6" fill="#ffffff" opacity="0.2670349205662668"/>
<circle cx="153.8" cy="1137.2" r="4.2" fill="#ffffff" opacity="0.8300762361742753"/>
<circle cx="65.6" cy="762.7" r="3.9" fill="#ffffff" opacity="0.5482332599652451"/>
<circle cx="125.8" cy="801.6" r="4.7" fill="#ffffff" opacity="0.4178939643133739"/>
<circle cx="607.2" cy="1155.4" r="1.9" fill="#ffffff" opacity="0.5512918179183667"/>
<circle cx="190.1" cy="689.8" r="3.8" fill="#ffffff" opacity="0.2685485856920057"/>
<circle cx="567.7" cy="1168.3" r="4.6" fill="#ffffff" opacity="0.4596039185358494"/>
<circle cx="266.1" cy="473.3" r="1.7" fill="#ffffff" opacity="0.6500017284082219"/>
<circle cx="217.7" cy="561.8" r="3.9" fill="#ffffff" opacity="0.7543733014737518"/>
<circle cx="540.8" cy="1154.3" r="3.0" fill="#ffffff" opacity="0.6433833727184948"/>
<circle cx="645.3" cy="122.5" r="3.0" fill="#ffffff" opacity="0.3320630027765322"/>
<circle cx="588.8" cy="1138.3" r="2.4" fill="#ffffff" opacity="0.5054742038168656"/>
<circle cx="695.6" cy="802.6" r="2.5" fill="#ffffff" opacity="0.7828467048340823"/>
<circle cx="214.3" cy="474.5" r="2.8" fill="#ffffff" opacity="0.7398728587527211"/>
<circle cx="569.2" cy="375.9" r="2.9" fill="#ffffff" opacity="0.3474678470391318"/>
<circle cx="471.8" cy="565.4" r="3.8" fill="#ffffff" opacity="0.31837887390071823"/>
<circle cx="305.2" cy="1144.2" r="3.8" fill="#ffffff" opacity="0.7300754451282312"/>
<circle cx="272.0" cy="86.4" r="2.3" fill="#ffffff" opacity="0.4836044563085936"/>
<circle cx="89.6" cy="861.3" r="3.3" fill="#ffffff" opacity="0.2803452325399402"/>
<circle cx="523.4" cy="525.8" r="4.5" fill="#ffffff" opacity="0.3323079261321986"/>
<circle cx="700.2" cy="898.3" r="4.7" fill="#ffffff" opacity="0.34040098711294964"/>
<g filter="url(#paper)"><rect x="42" y="42" width="666" height="1166" rx="54" ry="54" fill="none" stroke="#1E1B2E" stroke-width="8" opacity="0.95"/>
<rect x="60" y="60" width="630" height="1130" rx="46" ry="46" fill="none" stroke="#4EA8DE" stroke-width="3" opacity="0.35"/>

  <g opacity="0.42">
    <circle cx="375.0" cy="560" r="285" fill="none" stroke="#4EA8DE" stroke-width="4.2" opacity="0.42"/>
    <circle cx="375.0" cy="560" r="233.7" fill="none" stroke="#4EA8DE" stroke-width="2.2" opacity="0.23"/>
    <line x1="642.0" y1="560.0" x2="674.0" y2="560.0" stroke="#4EA8DE" stroke-width="3.2" opacity="0.23" stroke-linecap="round"/><line x1="606.2" y1="693.5" x2="633.9" y2="709.5" stroke="#4EA8DE" stroke-width="3.2" opacity="0.23" stroke-linecap="round"/><line x1="508.5" y1="791.2" x2="524.5" y2="818.9" stroke="#4EA8DE" stroke-width="3.2" opacity="0.23" stroke-linecap="round"/><line x1="375.0" y1="827.0" x2="375.0" y2="859.0" stroke="#4EA8DE" stroke-width="3.2" opacity="0.23" stroke-linecap="round"/><line x1="241.5" y1="791.2" x2="225.5" y2="818.9" stroke="#4EA8DE" stroke-width="3.2" opacity="0.23" stroke-linecap="round"/><line x1="143.8" y1="693.5" x2="116.1" y2="709.5" stroke="#4EA8DE" stroke-width="3.2" opacity="0.23" stroke-linecap="round"/><line x1="108.0" y1="560.0" x2="76.0" y2="560.0" stroke="#4EA8DE" stroke-width="3.2" opacity="0.23" stroke-linecap="round"/><line x1="143.8" y1="426.5" x2="116.1" y2="410.5" stroke="#4EA8DE" stroke-width="3.2" opacity="0.23" stroke-linecap="round"/><line x1="241.5" y1="328.8" x2="225.5" y2="301.1" stroke="#4EA8DE" stroke-width="3.2" opacity="0.23" stroke-linecap="round"/><line x1="375.0" y1="293.0" x2="375.0" y2="261.0" stroke="#4EA8DE" stroke-width="3.2" opacity="0.23" stroke-linecap="round"/><line x1="508.5" y1="328.8" x2="524.5" y2="301.1" stroke="#4EA8DE" stroke-width="3.2" opacity="0.23" stroke-linecap="round"/><line x1="606.2" y1="426.5" x2="633.9" y2="410.5" stroke="#4EA8DE" stroke-width="3.2" opacity="0.23" stroke-linecap="round"/>
    <circle cx="660.0" cy="565.0" r="3.3" fill="#4EA8DE" opacity="0.44"/><circle cx="647.7" cy="642.8" r="3.0" fill="#4EA8DE" opacity="0.24"/><circle cx="623.6" cy="699.4" r="3.1" fill="#4EA8DE" opacity="0.43"/><circle cx="572.0" cy="766.0" r="3.5" fill="#4EA8DE" opacity="0.42"/><circle cx="518.6" cy="806.2" r="3.2" fill="#4EA8DE" opacity="0.39"/><circle cx="450.8" cy="834.7" r="3.4" fill="#4EA8DE" opacity="0.19"/><circle cx="376.5" cy="845.0" r="3.8" fill="#4EA8DE" opacity="0.22"/><circle cx="303.8" cy="836.0" r="2.7" fill="#4EA8DE" opacity="0.24"/><circle cx="240.6" cy="811.3" r="3.2" fill="#4EA8DE" opacity="0.28"/><circle cx="168.1" cy="756.0" r="3.4" fill="#4EA8DE" opacity="0.24"/><circle cx="126.1" cy="698.9" r="3.7" fill="#4EA8DE" opacity="0.18"/><circle cx="98.3" cy="628.5" r="3.9" fill="#4EA8DE" opacity="0.38"/><circle cx="90.0" cy="560.5" r="3.8" fill="#4EA8DE" opacity="0.39"/><circle cx="97.4" cy="495.4" r="3.7" fill="#4EA8DE" opacity="0.32"/><circle cx="125.4" cy="422.5" r="3.5" fill="#4EA8DE" opacity="0.35"/><circle cx="177.1" cy="354.9" r="3.1" fill="#4EA8DE" opacity="0.33"/><circle cx="236.9" cy="310.7" r="3.5" fill="#4EA8DE" opacity="0.30"/><circle cx="293.3" cy="287.0" r="3.6" fill="#4EA8DE" opacity="0.25"/><circle cx="366.9" cy="275.1" r="2.9" fill="#4EA8DE" opacity="0.26"/><circle cx="453.8" cy="286.1" r="3.8" fill="#4EA8DE" opacity="0.34"/><circle cx="518.8" cy="314.0" r="3.8" fill="#4EA8DE" opacity="0.35"/><circle cx="581.4" cy="363.5" r="3.0" fill="#4EA8DE" opacity="0.22"/><circle cx="619.2" cy="413.1" r="3.6" fill="#4EA8DE" opacity="0.28"/><circle cx="647.6" cy="477.0" r="2.8" fill="#4EA8DE" opacity="0.29"/>
  </g>

<g><g transform="translate(50,54)"><path d="M 18.0 140.4 C 39.6 63.0, 99.0 28.8, 154.8 46.8 C 126.0 86.4, 72.0 111.6, 39.6 129.6" fill="none" stroke="#4EA8DE" stroke-width="6" opacity="0.55" stroke-linecap="round"/></g><g transform="translate(700,54) scale(-1,1)"><path d="M 18.0 140.4 C 39.6 63.0, 99.0 28.8, 154.8 46.8 C 126.0 86.4, 72.0 111.6, 39.6 129.6" fill="none" stroke="#4EA8DE" stroke-width="6" opacity="0.55" stroke-linecap="round"/></g><g transform="translate(50,1196) scale(1,-1)"><path d="M 18.0 140.4 C 39.6 63.0, 99.0 28.8, 154.8 46.8 C 126.0 86.4, 72.0 111.6, 39.6 129.6" fill="none" stroke="#4EA8DE" stroke-width="6" opacity="0.55" stroke-linecap="round"/></g><g transform="translate(700,1196) scale(-1,-1)"><path d="M 18.0 140.4 C 39.6 63.0, 99.0 28.8, 154.8 46.8 C 126.0 86.4, 72.0 111.6, 39.6 129.6" fill="none" stroke="#4EA8DE" stroke-width="6" opacity="0.55" stroke-linecap="round"/></g></g></g>
<rect x="42" y="60" width="666" height="92" rx="30" fill="#ffffffcc" stroke="#1E1B2E" stroke-width="4" opacity="0.95"/>
<text x="375.0" y="122" font-family="ui-sans-serif, system-ui, -apple-system, Segoe UI, Roboto, Helvetica, Arial" font-size="30" font-weight="800" text-anchor="middle" fill="#1E1B2E" opacity="0.95" letter-spacing="1">MINOR ARCANA • CUPS</text>
<rect x="76" y="170" width="598" height="760" rx="52" fill="#ffffff" opacity="0.15"/>
<g><path d="M 72 230.0 Q 127.0 211.2 182.0 230.0 Q 237.0 248.8 292.0 230.0 Q 347.0 211.2 402.0 230.0 Q 457.0 248.8 512.0 230.0 Q 567.0 211.2 622.0 230.0 Q 677.0 248.8 732.0 230.0 " fill="none" stroke="#4EA8DE" stroke-width="3" opacity="0.10"/><path d="M 72 310.0 Q 127.0 289.5 182.0 310.0 Q 237.0 330.5 292.0 310.0 Q 347.0 289.5 402.0 310.0 Q 457.0 330.5 512.0 310.0 Q 567.0 289.5 622.0 310.0 Q 677.0 330.5 732.0 310.0 " fill="none" stroke="#4EA8DE" stroke-width="3" opacity="0.10"/><path d="M 72 390.0 Q 127.0 370.6 182.0 390.0 Q 237.0 409.4 292.0 390.0 Q 347.0 370.6 402.0 390.0 Q 457.0 409.4 512.0 390.0 Q 567.0 370.6 622.0 390.0 Q 677.0 409.4 732.0 390.0 " fill="none" stroke="#4EA8DE" stroke-width="3" opacity="0.10"/><path d="M 72 470.0 Q 127.0 448.7 182.0 470.0 Q 237.0 491.3 292.0 470.0 Q 347.0 448.7 402.0 470.0 Q 457.0 491.3 512.0 470.0 Q 567.0 448.7 622.0 470.0 Q 677.0 491.3 732.0 470.0 " fill="none" stroke="#4EA8DE" stroke-width="3" opacity="0.10"/><path d="M 72 550.0 Q 127.0 528.8 182.0 550.0 Q 237.0 571.2 292.0 550.0 Q 347.0 528.8 402.0 550.0 Q 457.0 571.2 512.0 550.0 Q 567.0 528.8 622.0 550.0 Q 677.0 571.2 732.0 550.0 " fill="none" stroke="#4EA8DE" stroke-width="3" opacity="0.10"/><path d="M 72 630.0 Q 127.0 604.0 182.0 630.0 Q 237.0 656.0 292.0 630.0 Q 347.0 604.0 402.0 630.0 Q 457.0 656.0 512.0 630.0 Q 567.0 604.0 622.0 630.0 Q 677.0 656.0 732.0 630.0 " fill="none" stroke="#4EA8DE" stroke-width="3" opacity="0.10"/><path d="M 72 710.0 Q 127.0 684.9 182.0 710.0 Q 237.0 735.1 292.0 710.0 Q 347.0 684.9 402.0 710.0 Q 457.0 735.1 512.0 710.0 Q 567.0 684.9 622.0 710.0 Q 677.0 735.1 732.0 710.0 " fill="none" stroke="#4EA8DE" stroke-width="3" opacity="0.10"/><path d="M 72 790.0 Q 127.0 760.0 182.0 790.0 Q 237.0 820.0 292.0 790.0 Q 347.0 760.0 402.0 790.0 Q 457.0 820.0 512.0 790.0 Q 567.0 760.0 622.0 790.0 Q 677.0 820.0 732.0 790.0 " fill="none" stroke="#4EA8DE" stroke-width="3" opacity="0.10"/><path d="M 72 870.0 Q 127.0 843.6 182.0 870.0 Q 237.0 896.4 292.0 870.0 Q 347.0 843.6 402.0 870.0 Q 457.0 896.4 512.0 870.0 Q 567.0 843.6 622.0 870.0 Q 677.0 896.4 732.0 870.0 " fill="none" stroke="#4EA8DE" stroke-width="3" opacity="0.10"/></g><g><g opacity="0.55">
        <g>
          <path d="M 354.4 388.0
                   L 421.6 388.0
                   L 413.8 421.6
                   Q 388.0 441.2 362.3 421.6
                   Z" fill="#ffffff" stroke="#1E1B2E" stroke-width="7"/>
          <path d="M 421.1 397.8
                   Q 441.2 410.4 421.1 423.0" fill="none" stroke="#1E1B2E" stroke-width="10" stroke-linecap="round" opacity="0.9"/>
          <rect x="374.6" y="441.2" width="26.9" height="16.8" rx="5.6" fill="#4EA8DE" opacity="0.45" stroke="#1E1B2E" stroke-width="6"/>
          <circle cx="388.0134092827585" cy="381.0" r="6.2" fill="#4EA8DE" opacity="0.55"/>
          <path d="M 375.4 381.0 Q 388.0134092827585 369.8 400.6 381.0" fill="none" stroke="#4EA8DE" stroke-width="7" opacity="0.55" stroke-linecap="round"/>
        </g>
        </g><g opacity="0.55">
        <g>
          <path d="M 551.2 588.1
                   L 618.4 588.1
                   L 610.5 621.7
                   Q 584.8 641.3 559.0 621.7
                   Z" fill="#ffffff" stroke="#1E1B2E" stroke-width="7"/>
          <path d="M 617.8 597.9
                   Q 638.0 610.5 617.8 623.1" fill="none" stroke="#1E1B2E" stroke-width="10" stroke-linecap="round" opacity="0.9"/>
          <rect x="571.3" y="641.3" width="26.9" height="16.8" rx="5.6" fill="#4EA8DE" opacity="0.45" stroke="#1E1B2E" stroke-width="6"/>
          <circle cx="584.7834068972459" cy="581.1" r="6.2" fill="#4EA8DE" opacity="0.55"/>
          <path d="M 572.2 581.1 Q 584.7834068972459 569.9 597.4 581.1" fill="none" stroke="#4EA8DE" stroke-width="7" opacity="0.55" stroke-linecap="round"/>
        </g>
        </g><g opacity="0.55">
        <g>
          <path d="M 362.4 806.5
                   L 429.6 806.5
                   L 421.8 840.1
                   Q 396.0 859.7 370.2 840.1
                   Z" fill="#ffffff" stroke="#1E1B2E" stroke-width="7"/>
          <path d="M 429.0 816.3
                   Q 449.2 828.9 429.0 841.5" fill="none" stroke="#1E1B2E" stroke-width="10" stroke-linecap="round" opacity="0.9"/>
          <rect x="382.6" y="859.7" width="26.9" height="16.8" rx="5.6" fill="#4EA8DE" opacity="0.45" stroke="#1E1B2E" stroke-width="6"/>
          <circle cx="395.99071299870985" cy="799.5" r="6.2" fill="#4EA8DE" opacity="0.55"/>
          <path d="M 383.4 799.5 Q 395.99071299870985 788.3 408.6 799.5" fill="none" stroke="#4EA8DE" stroke-width="7" opacity="0.55" stroke-linecap="round"/>
        </g>
        </g><g opacity="0.55">
        <g>
          <path d="M 131.4 601.3
                   L 198.6 601.3
                   L 190.8 634.9
                   Q 165.0 654.5 139.3 634.9
                   Z" fill="#ffffff" stroke="#1E1B2E" stroke-width="7"/>
          <path d="M 198.1 611.1
                   Q 218.2 623.7 198.1 636.3" fill="none" stroke="#1E1B2E" stroke-width="10" stroke-linecap="round" opacity="0.9"/>
          <rect x="151.6" y="654.5" width="26.9" height="16.8" rx="5.6" fill="#4EA8DE" opacity="0.45" stroke="#1E1B2E" stroke-width="6"/>
          <circle cx="165.03234118187603" cy="594.3" r="6.2" fill="#4EA8DE" opacity="0.55"/>
          <path d="M 152.4 594.3 Q 165.03234118187603 583.1 177.6 594.3" fill="none" stroke="#4EA8DE" stroke-width="7" opacity="0.55" stroke-linecap="round"/>
        </g>
        </g></g>
  <g opacity="0.22">
    <circle cx="375.0" cy="560" r="270" fill="none" stroke="#4EA8DE" stroke-width="4.2" opacity="0.22"/>
    <circle cx="375.0" cy="560" r="221.4" fill="none" stroke="#4EA8DE" stroke-width="2.2" opacity="0.12"/>
    <line x1="627.0" y1="560.0" x2="659.0" y2="560.0" stroke="#4EA8DE" stroke-width="3.2" opacity="0.12" stroke-linecap="round"/><line x1="593.2" y1="686.0" x2="621.0" y2="702.0" stroke="#4EA8DE" stroke-width="3.2" opacity="0.12" stroke-linecap="round"/><line x1="501.0" y1="778.2" x2="517.0" y2="806.0" stroke="#4EA8DE" stroke-width="3.2" opacity="0.12" stroke-linecap="round"/><line x1="375.0" y1="812.0" x2="375.0" y2="844.0" stroke="#4EA8DE" stroke-width="3.2" opacity="0.12" stroke-linecap="round"/><line x1="249.0" y1="778.2" x2="233.0" y2="806.0" stroke="#4EA8DE" stroke-width="3.2" opacity="0.12" stroke-linecap="round"/><line x1="156.8" y1="686.0" x2="129.0" y2="702.0" stroke="#4EA8DE" stroke-width="3.2" opacity="0.12" stroke-linecap="round"/><line x1="123.0" y1="560.0" x2="91.0" y2="560.0" stroke="#4EA8DE" stroke-width="3.2" opacity="0.12" stroke-linecap="round"/><line x1="156.8" y1="434.0" x2="129.0" y2="418.0" stroke="#4EA8DE" stroke-width="3.2" opacity="0.12" stroke-linecap="round"/><line x1="249.0" y1="341.8" x2="233.0" y2="314.0" stroke="#4EA8DE" stroke-width="3.2" opacity="0.12" stroke-linecap="round"/><line x1="375.0" y1="308.0" x2="375.0" y2="276.0" stroke="#4EA8DE" stroke-width="3.2" opacity="0.12" stroke-linecap="round"/><line x1="501.0" y1="341.8" x2="517.0" y2="314.0" stroke="#4EA8DE" stroke-width="3.2" opacity="0.12" stroke-linecap="round"/><line x1="593.2" y1="434.0" x2="621.0" y2="418.0" stroke="#4EA8DE" stroke-width="3.2" opacity="0.12" stroke-linecap="round"/>
    <circle cx="644.9" cy="551.1" r="4.0" fill="#4EA8DE" opacity="0.30"/><circle cx="634.5" cy="634.5" r="4.0" fill="#4EA8DE" opacity="0.26"/><circle cx="605.2" cy="701.1" r="3.3" fill="#4EA8DE" opacity="0.21"/><circle cx="561.8" cy="754.9" r="3.2" fill="#4EA8DE" opacity="0.20"/><circle cx="513.9" cy="791.5" r="3.7" fill="#4EA8DE" opacity="0.28"/><circle cx="451.9" cy="818.8" r="3.0" fill="#4EA8DE" opacity="0.29"/><circle cx="380.2" cy="830.0" r="2.7" fill="#4EA8DE" opacity="0.43"/><circle cx="302.5" cy="820.1" r="3.5" fill="#4EA8DE" opacity="0.22"/><circle cx="241.7" cy="794.8" r="3.7" fill="#4EA8DE" opacity="0.32"/><circle cx="189.3" cy="756.0" r="3.7" fill="#4EA8DE" opacity="0.34"/><circle cx="140.3" cy="693.5" r="3.9" fill="#4EA8DE" opacity="0.21"/><circle cx="113.0" cy="625.3" r="3.8" fill="#4EA8DE" opacity="0.18"/><circle cx="105.1" cy="568.1" r="3.5" fill="#4EA8DE" opacity="0.43"/><circle cx="113.4" cy="493.1" r="2.7" fill="#4EA8DE" opacity="0.27"/><circle cx="143.8" cy="420.6" r="3.7" fill="#4EA8DE" opacity="0.36"/><circle cx="183.2" cy="370.0" r="3.3" fill="#4EA8DE" opacity="0.36"/><circle cx="240.1" cy="326.1" r="3.8" fill="#4EA8DE" opacity="0.40"/><circle cx="311.1" cy="297.7" r="3.8" fill="#4EA8DE" opacity="0.19"/><circle cx="383.2" cy="290.1" r="4.0" fill="#4EA8DE" opacity="0.26"/><circle cx="443.0" cy="298.7" r="2.9" fill="#4EA8DE" opacity="0.35"/><circle cx="509.2" cy="325.7" r="3.2" fill="#4EA8DE" opacity="0.34"/><circle cx="563.6" cy="366.8" r="3.4" fill="#4EA8DE" opacity="0.39"/><circle cx="613.2" cy="432.8" r="4.0" fill="#4EA8DE" opacity="0.38"/><circle cx="636.9" cy="494.3" r="3.6" fill="#4EA8DE" opacity="0.21"/>
  </g>

        <g filter="url(#glow)">
          <circle cx="375.0" cy="630" r="170" fill="#ffffff" opacity="0.40" stroke="#4EA8DE" stroke-width="7"/>
          
        <g>
          <path d="M 288.6 572.4
                   L 461.4 572.4
                   L 441.2 658.8
                   Q 375.0 709.2 308.8 658.8
                   Z" fill="#ffffff" stroke="#1E1B2E" stroke-width="7"/>
          <path d="M 460.0 597.6
                   Q 511.8 630.0 460.0 662.4" fill="none" stroke="#1E1B2E" stroke-width="10" stroke-linecap="round" opacity="0.9"/>
          <rect x="340.4" y="709.2" width="69.1" height="43.2" rx="14.4" fill="#4EA8DE" opacity="0.45" stroke="#1E1B2E" stroke-width="6"/>
          <circle cx="375.0" cy="554.4" r="15.8" fill="#4EA8DE" opacity="0.55"/>
          <path d="M 342.6 554.4 Q 375.0 525.6 407.4 554.4" fill="none" stroke="#4EA8DE" stroke-width="7" opacity="0.55" stroke-linecap="round"/>
        </g>
        
        </g>
        <line x1="296.4" y1="539.5" x2="357.9" y2="508.3" stroke="#ffffff" stroke-width="2.2" opacity="0.18"/>
<line x1="357.9" y1="508.3" x2="592.2" y2="317.5" stroke="#ffffff" stroke-width="2.2" opacity="0.22"/>
<line x1="592.2" y1="317.5" x2="426.4" y2="504.1" stroke="#ffffff" stroke-width="2.2" opacity="0.15"/>
<line x1="426.4" y1="504.1" x2="622.0" y2="542.7" stroke="#ffffff" stroke-width="2.2" opacity="0.08"/>
<line x1="622.0" y1="542.7" x2="396.6" y2="446.5" stroke="#ffffff" stroke-width="2.2" opacity="0.11"/>
<line x1="396.6" y1="446.5" x2="209.5" y2="679.3" stroke="#ffffff" stroke-width="2.2" opacity="0.13"/>
<circle cx="330.9" cy="637.2" r="4.1" fill="#ffffff" opacity="0.5008301030457625"/>
<circle cx="622.0" cy="542.7" r="4.2" fill="#ffffff" opacity="0.7075874878385786"/>
<circle cx="209.5" cy="679.3" r="1.6" fill="#ffffff" opacity="0.3029192915241694"/>
<circle cx="396.6" cy="446.5" r="4.3" fill="#ffffff" opacity="0.4344227524435643"/>
<circle cx="296.4" cy="539.5" r="3.0" fill="#ffffff" opacity="0.5989101801730184"/>
<circle cx="469.9" cy="254.6" r="4.6" fill="#ffffff" opacity="0.7866208878060601"/>
<circle cx="430.1" cy="594.8" r="2.3" fill="#ffffff" opacity="0.5603515017959932"/>
<circle cx="357.9" cy="508.3" r="4.1" fill="#ffffff" opacity="0.2629063922639021"/>
<circle cx="583.8" cy="627.3" r="2.4" fill="#ffffff" opacity="0.8366165463298868"/>
<circle cx="622.5" cy="672.0" r="2.5" fill="#ffffff" opacity="0.7676631011460926"/>
<circle cx="426.4" cy="504.1" r="2.4" fill="#ffffff" opacity="0.7181806041350167"/>
<circle cx="353.5" cy="279.1" r="4.5" fill="#ffffff" opacity="0.3369654042486576"/>
<circle cx="374.5" cy="564.3" r="3.2" fill="#ffffff" opacity="0.5573175417281733"/>
<circle cx="592.2" cy="317.5" r="1.8" fill="#ffffff" opacity="0.5925761516094104"/>
<rect x="42" y="1030" width="666" height="160" rx="30" fill="#ffffffd9" stroke="#1E1B2E" stroke-width="4" opacity="0.95"/>
<text x="375.0" y="1104" font-family="ui-sans-serif, system-ui, -apple-system, Segoe UI, Roboto, Helvetica, Arial" font-size="46" font-weight="900" text-anchor="middle" fill="#1E1B2E" opacity="0.98">4 of Cups</text>
<text x="375.0" y="1152" font-family="ui-sans-serif, system-ui, -apple-system, Segoe UI, Roboto, Helvetica, Arial" font-size="28" font-weight="700" text-anchor="middle" fill="#1E1B2E" opacity="0.7">Rest</text>

    <g opacity="0.55">
      <circle cx="127" cy="1176" r="14" fill="#4EA8DE"/>
      <circle cx="623" cy="1176" r="14" fill="#4EA8DE"/>
      <path d="M 162 1176 L 588 1176" stroke="#4EA8DE" stroke-width="4" opacity="0.45" stroke-linecap="round"/>
    </g>
    
</svg>
