<svg xmlns="http://www.w3.org/2000/svg" width="750" height="1250" viewBox="0 0 750 1250">
  <title>7 of Cups</title>


  <defs>
    <linearGradient id="g" x1="0" y1="0" x2="1" y2="1">
      <stop offset="0%" stop-color="#E9FFF2"/>
      <stop offset="100%" stop-color="#FFF1FF"/>
    </linearGradient>

    <!-- paper texture -->
    <filter id="paper" x="-20%" y="-20%" width="140%" height="140%">
      <feTurbulence type="fractalNoise" baseFrequency="0.018" numOctaves="3" seed="8619" result="noise"/>
      <feColorMatrix in="noise" type="matrix"
        values="1 0 0 0 0
                0 1 0 0 0
                0 0 1 0 0
                0 0 0 0.25 0" result="noiseAlpha"/>
      <feComposite in="noiseAlpha" in2="SourceGraphic" operator="over"/>
    </filter>

    <!-- soft glow -->
    <filter id="glow" x="-30%" y="-30%" width="160%" height="160%">
      <feGaussianBlur stdDeviation="10" result="blur"/>
      <feColorMatrix type="matrix" values="
        1 0 0 0 0
        0 1 0 0 0
        0 0 1 0 0
        0 0 0 0.32 0" result="blurAlpha"/>
      <feMerge>
        <feMergeNode in="blurAlpha"/>
        <feMergeNode in="SourceGraphic"/>
      </feMerge>
    </filter>
  </defs>

<rect x="0" y="0" width="750" height="1250" rx="58" ry="58" fill="url(#g)" stroke="none" stroke-width="0" opacity="1"/>
<rect x="0" y="0" width="750" height="1250" fill="#ffffff" opacity="0.08"/>
<line x1="250.8" y1="1036.8" x2="499.7" y2="1041.7" stroke="#ffffff" stroke-width="2.2" opacity="0.11"/>
<line x1="499.7" y1="1041.7" x2="290.6" y2="720.5" stroke="#ffffff" stroke-width="2.2" opacity="0.14"/>
<line x1="290.6" y1="720.5" x2="571.1" y2="940.5" stroke="#ffffff" stroke-width="2.2" opacity="0.15"/>
<line x1="571.1" y1="940.5" x2="373.7" y2="1141.2" stroke="#ffffff" stroke-width="2.2" opacity="0.13"/>
<line x1="373.7" y1="1141.2" x2="226.7" y2="1059.5" stroke="#ffffff" stroke-width="2.2" opacity="0.17"/>
<line x1="226.7" y1="1059.5" x2="425.4" y2="133.0" stroke="#ffffff" stroke-width="2.2" opacity="0.21"/>
<line x1="425.4" y1="133.0" x2="496.1" y2="1187.9" stroke="#ffffff" stroke-width="2.2" opacity="0.16"/>
<line x1="496.1" y1="1187.9" x2="686.4" y2="782.0" stroke="#ffffff" stroke-width="2.2" opacity="0.17"/>
<line x1="686.4" y1="782.0" x2="347.0" y2="354.0" stroke="#ffffff" stroke-width="2.2" opacity="0.17"/>
<line x1="347.0" y1="354.0" x2="348.3" y2="1190.5" stroke="#ffffff" stroke-width="2.2" opacity="0.15"/>
<line x1="348.3" y1="1190.5" x2="218.7" y2="166.8" stroke="#ffffff" stroke-width="2.2" opacity="0.14"/>
<line x1="218.7" y1="166.8" x2="677.1" y2="52.5" stroke="#ffffff" stroke-width="2.2" opacity="0.22"/>
<line x1="677.1" y1="52.5" x2="157.8" y2="611.2" stroke="#ffffff" stroke-width="2.2" opacity="0.12"/>
<line x1="157.8" y1="611.2" x2="695.1" y2="222.2" stroke="#ffffff" stroke-width="2.2" opacity="0.21"/>
<line x1="695.1" y1="222.2" x2="645.1" y2="978.6" stroke="#ffffff" stroke-width="2.2" opacity="0.18"/>
<line x1="645.1" y1="978.6" x2="479.9" y2="288.4" stroke="#ffffff" stroke-width="2.2" opacity="0.12"/>
<line x1="479.9" y1="288.4" x2="359.8" y2="1033.1" stroke="#ffffff" stroke-width="2.2" opacity="0.08"/>
<line x1="359.8" y1="1033.1" x2="56.8" y2="614.0" stroke="#ffffff" stroke-width="2.2" opacity="0.17"/>
<circle cx="686.6" cy="488.9" r="1.9" fill="#ffffff" opacity="0.7947371060123528"/>
<circle cx="447.3" cy="355.8" r="3.8" fill="#ffffff" opacity="0.439929998335996"/>
<circle cx="167.2" cy="341.8" r="1.8" fill="#ffffff" opacity="0.3043006941139894"/>
<circle cx="393.6" cy="994.5" r="2.9" fill="#ffffff" opacity="0.5437970740170145"/>
<circle cx="373.7" cy="1141.2" r="2.6" fill="#ffffff" opacity="0.5649276742591136"/>
<circle cx="677.1" cy="52.5" r="2.4" fill="#ffffff" opacity="0.4985822150334419"/>
<circle cx="290.6" cy="720.5" r="3.3" fill="#ffffff" opacity="0.38386338468057585"/>
<circle cx="609.2" cy="547.8" r="2.7" fill="#ffffff" opacity="0.8433158347958877"/>
<circle cx="655.5" cy="682.3" r="3.5" fill="#ffffff" opacity="0.684249203038968"/>
<circle cx="641.2" cy="549.1" r="4.2" fill="#ffffff" opacity="0.4768197299004254"/>
<circle cx="250.3" cy="1189.0" r="3.8" fill="#ffffff" opacity="0.8090018034983929"/>
<circle cx="551.1" cy="407.4" r="2.4" fill="#ffffff" opacity="0.6584829565523709"/>
<circle cx="99.6" cy="1181.3" r="3.9" fill="#ffffff" opacity="0.36110720883898045"/>
<circle cx="571.1" cy="940.5" r="3.6" fill="#ffffff" opacity="0.2730858285813795"/>
<circle cx="479.9" cy="288.4" r="1.7" fill="#ffffff" opacity="0.4529244750395346"/>
<circle cx="499.7" cy="1041.7" r="2.8" fill="#ffffff" opacity="0.4073667540248882"/>
<circle cx="183.6" cy="276.4" r="3.3" fill="#ffffff" opacity="0.29134104877569467"/>
<circle cx="450.0" cy="493.4" r="4.2" fill="#ffffff" opacity="0.3529447664793799"/>
<circle cx="218.7" cy="166.8" r="4.0" fill="#ffffff" opacity="0.3264478951861833"/>
<circle cx="645.1" cy="978.6" r="2.0" fill="#ffffff" opacity="0.7149992771013769"/>
<circle cx="347.7" cy="840.4" r="3.6" fill="#ffffff" opacity="0.5096301967067282"/>
<circle cx="439.2" cy="291.6" r="3.5" fill="#ffffff" opacity="0.38203683097507224"/>
<circle cx="157.8" cy="611.2" r="3.0" fill="#ffffff" opacity="0.3286249667943164"/>
<circle cx="562.6" cy="236.7" r="3.1" fill="#ffffff" opacity="0.823068593392742"/>
<circle cx="56.8" cy="614.0" r="3.0" fill="#ffffff" opacity="0.3646749226411796"/>
<circle cx="496.1" cy="1187.9" r="4.5" fill="#ffffff" opacity="0.7320705636328811"/>
<circle cx="226.7" cy="1059.5" r="2.1" fill="#ffffff" opacity="0.4875287792972328"/>
<circle cx="161.7" cy="1126.4" r="4.2" fill="#ffffff" opacity="0.7523121019543256"/>
<circle cx="207.1" cy="1207.3" r="3.9" fill="#ffffff" opacity="0.6015942934267025"/>
<circle cx="266.5" cy="993.0" r="3.7" fill="#ffffff" opacity="0.44320801550682937"/>
<circle cx="449.8" cy="144.3" r="3.9" fill="#ffffff" opacity="0.5956637444785893"/>
<circle cx="663.9" cy="879.1" r="1.8" fill="#ffffff" opacity="0.40224384637820176"/>
<circle cx="553.0" cy="549.6" r="4.2" fill="#ffffff" opacity="0.26578846791935884"/>
<circle cx="347.0" cy="354.0" r="2.5" fill="#ffffff" opacity="0.32942924018614006"/>
<circle cx="333.5" cy="982.3" r="3.6" fill="#ffffff" opacity="0.6042282896035756"/>
<circle cx="359.8" cy="1033.1" r="3.0" fill="#ffffff" opacity="0.6591074570846023"/>
<circle cx="686.4" cy="782.0" r="4.7" fill="#ffffff" opacity="0.6305245502291008"/>
<circle cx="423.9" cy="883.7" r="4.7" fill="#ffffff" opacity="0.6744119542993796"/>
<circle cx="73.0" cy="135.7" r="3.8" fill="#ffffff" opacity="0.4212119230012045"/>
<circle cx="425.4" cy="133.0" r="4.4" fill="#ffffff" opacity="0.6436628387136898"/>
<circle cx="683.5" cy="320.4" r="3.6" fill="#ffffff" opacity="0.56747513338229"/>
<circle cx="422.7" cy="639.0" r="1.8" fill="#ffffff" opacity="0.48225221259480233"/>
<circle cx="193.1" cy="783.4" r="3.4" fill="#ffffff" opacity="0.8375809867244438"/>
<circle cx="139.8" cy="1098.5" r="4.0" fill="#ffffff" opacity="0.8355168559819662"/>
<circle cx="695.1" cy="222.2" r="3.3" fill="#ffffff" opacity="0.7752108426762647"/>
<circle cx="250.8" cy="1036.8" r="4.2" fill="#ffffff" opacity="0.4425482084639247"/>
<circle cx="585.3" cy="283.8" r="2.1" fill="#ffffff" opacity="0.4008757163213295"/>
<circle cx="348.3" cy="1190.5" r="2.3" fill="#ffffff" opacity="0.4637178113409613"/>
<circle cx="82.2" cy="757.3" r="4.3" fill="#ffffff" opacity="0.6710266430315188"/>
<circle cx="670.0" cy="876.5" r="2.9" fill="#ffffff" opacity="0.8380645750695715"/>
<g filter="url(#paper)"><rect x="42" y="42" width="666" height="1166" rx="54" ry="54" fill="none" stroke="#1E1B2E" stroke-width="8" opacity="0.95"/>
<rect x="60" y="60" width="630" height="1130" rx="46" ry="46" fill="none" stroke="#4EA8DE" stroke-width="3" opacity="0.35"/>

  <g opacity="0.42">
    <circle cx="375.0" cy="560" r="285" fill="none" stroke="#4EA8DE" stroke-width="4.2" opacity="0.42"/>
    <circle cx="375.0" cy="560" r="233.7" fill="none" stroke="#4EA8DE" stroke-width="2.2" opacity="0.23"/>
    <line x1="642.0" y1="560.0" x2="674.0" y2="560.0" stroke="#4EA8DE" stroke-width="3.2" opacity="0.23" stroke-linecap="round"/><line x1="606.2" y1="693.5" x2="633.9" y2="709.5" stroke="#4EA8DE" stroke-width="3.2" opacity="0.23" stroke-linecap="round"/><line x1="508.5" y1="791.2" x2="524.5" y2="818.9" stroke="#4EA8DE" stroke-width="3.2" opacity="0.23" stroke-linecap="round"/><line x1="375.0" y1="827.0" x2="375.0" y2="859.0" stroke="#4EA8DE" stroke-width="3.2" opacity="0.23" stroke-linecap="round"/><line x1="241.5" y1="791.2" x2="225.5" y2="818.9" stroke="#4EA8DE" stroke-width="3.2" opacity="0.23" stroke-linecap="round"/><line x1="143.8" y1="693.5" x2="116.1" y2="709.5" stroke="#4EA8DE" stroke-width="3.2" opacity="0.23" stroke-linecap="round"/><line x1="108.0" y1="560.0" x2="76.0" y2="560.0" stroke="#4EA8DE" stroke-width="3.2" opacity="0.23" stroke-linecap="round"/><line x1="143.8" y1="426.5" x2="116.1" y2="410.5" stroke="#4EA8DE" stroke-width="3.2" opacity="0.23" stroke-linecap="round"/><line x1="241.5" y1="328.8" x2="225.5" y2="301.1" stroke="#4EA8DE" stroke-width="3.2" opacity="0.23" stroke-linecap="round"/><line x1="375.0" y1="293.0" x2="375.0" y2="261.0" stroke="#4EA8DE" stroke-width="3.2" opacity="0.23" stroke-linecap="round"/><line x1="508.5" y1="328.8" x2="524.5" y2="301.1" stroke="#4EA8DE" stroke-width="3.2" opacity="0.23" stroke-linecap="round"/><line x1="606.2" y1="426.5" x2="633.9" y2="410.5" stroke="#4EA8DE" stroke-width="3.2" opacity="0.23" stroke-linecap="round"/>
    <circle cx="660.0" cy="563.2" r="2.7" fill="#4EA8DE" opacity="0.28"/><circle cx="648.7" cy="639.4" r="3.6" fill="#4EA8DE" opacity="0.32"/><circle cx="618.1" cy="708.8" r="3.4" fill="#4EA8DE" opacity="0.33"/><circle cx="571.1" cy="766.8" r="3.7" fill="#4EA8DE" opacity="0.34"/><circle cx="517.1" cy="807.1" r="2.9" fill="#4EA8DE" opacity="0.43"/><circle cx="457.8" cy="832.7" r="2.7" fill="#4EA8DE" opacity="0.35"/><circle cx="375.9" cy="845.0" r="2.6" fill="#4EA8DE" opacity="0.21"/><circle cx="304.0" cy="836.0" r="3.9" fill="#4EA8DE" opacity="0.25"/><circle cx="230.6" cy="805.7" r="3.6" fill="#4EA8DE" opacity="0.38"/><circle cx="175.7" cy="763.7" r="3.3" fill="#4EA8DE" opacity="0.20"/><circle cx="125.0" cy="696.9" r="3.7" fill="#4EA8DE" opacity="0.23"/><circle cx="100.3" cy="636.0" r="3.6" fill="#4EA8DE" opacity="0.40"/><circle cx="90.0" cy="561.7" r="3.6" fill="#4EA8DE" opacity="0.23"/><circle cx="98.2" cy="492.2" r="3.0" fill="#4EA8DE" opacity="0.27"/><circle cx="132.7" cy="410.0" r="3.4" fill="#4EA8DE" opacity="0.21"/><circle cx="177.7" cy="354.3" r="3.4" fill="#4EA8DE" opacity="0.39"/><circle cx="227.1" cy="316.4" r="3.7" fill="#4EA8DE" opacity="0.32"/><circle cx="299.1" cy="285.3" r="3.7" fill="#4EA8DE" opacity="0.38"/><circle cx="372.8" cy="275.0" r="2.6" fill="#4EA8DE" opacity="0.32"/><circle cx="450.3" cy="285.1" r="3.7" fill="#4EA8DE" opacity="0.33"/><circle cx="525.8" cy="318.2" r="2.8" fill="#4EA8DE" opacity="0.33"/><circle cx="581.6" cy="363.7" r="3.8" fill="#4EA8DE" opacity="0.38"/><circle cx="624.8" cy="422.8" r="3.9" fill="#4EA8DE" opacity="0.34"/><circle cx="652.1" cy="493.3" r="2.9" fill="#4EA8DE" opacity="0.18"/>
  </g>

<g><g transform="translate(50,54)"><path d="M 21.6 126.0 Q 50.4 54.0 99.0 39.6 Q 144.0 28.8 162.0 72.0" fill="none" stroke="#4EA8DE" stroke-width="6" opacity="0.55" stroke-linecap="round"/></g><g transform="translate(700,54) scale(-1,1)"><path d="M 21.6 126.0 Q 50.4 54.0 99.0 39.6 Q 144.0 28.8 162.0 72.0" fill="none" stroke="#4EA8DE" stroke-width="6" opacity="0.55" stroke-linecap="round"/></g><g transform="translate(50,1196) scale(1,-1)"><path d="M 21.6 126.0 Q 50.4 54.0 99.0 39.6 Q 144.0 28.8 162.0 72.0" fill="none" stroke="#4EA8DE" stroke-width="6" opacity="0.55" stroke-linecap="round"/></g><g transform="translate(700,1196) scale(-1,-1)"><path d="M 21.6 126.0 Q 50.4 54.0 99.0 39.6 Q 144.0 28.8 162.0 72.0" fill="none" stroke="#4EA8DE" stroke-width="6" opacity="0.55" stroke-linecap="round"/></g></g></g>
<rect x="42" y="60" width="666" height="92" rx="30" fill="#ffffffcc" stroke="#1E1B2E" stroke-width="4" opacity="0.95"/>
<text x="375.0" y="122" font-family="ui-sans-serif, system-ui, -apple-system, Segoe UI, Roboto, Helvetica, Arial" font-size="30" font-weight="800" text-anchor="middle" fill="#1E1B2E" opacity="0.95" letter-spacing="1">MINOR ARCANA • CUPS</text>
<rect x="76" y="170" width="598" height="760" rx="52" fill="#ffffff" opacity="0.15"/>
<g><path d="M 72 230.0 Q 127.0 201.1 182.0 230.0 Q 237.0 258.9 292.0 230.0 Q 347.0 201.1 402.0 230.0 Q 457.0 258.9 512.0 230.0 Q 567.0 201.1 622.0 230.0 Q 677.0 258.9 732.0 230.0 " fill="none" stroke="#4EA8DE" stroke-width="3" opacity="0.10"/><path d="M 72 310.0 Q 127.0 289.9 182.0 310.0 Q 237.0 330.1 292.0 310.0 Q 347.0 289.9 402.0 310.0 Q 457.0 330.1 512.0 310.0 Q 567.0 289.9 622.0 310.0 Q 677.0 330.1 732.0 310.0 " fill="none" stroke="#4EA8DE" stroke-width="3" opacity="0.10"/><path d="M 72 390.0 Q 127.0 369.0 182.0 390.0 Q 237.0 411.0 292.0 390.0 Q 347.0 369.0 402.0 390.0 Q 457.0 411.0 512.0 390.0 Q 567.0 369.0 622.0 390.0 Q 677.0 411.0 732.0 390.0 " fill="none" stroke="#4EA8DE" stroke-width="3" opacity="0.10"/><path d="M 72 470.0 Q 127.0 446.6 182.0 470.0 Q 237.0 493.4 292.0 470.0 Q 347.0 446.6 402.0 470.0 Q 457.0 493.4 512.0 470.0 Q 567.0 446.6 622.0 470.0 Q 677.0 493.4 732.0 470.0 " fill="none" stroke="#4EA8DE" stroke-width="3" opacity="0.10"/><path d="M 72 550.0 Q 127.0 527.1 182.0 550.0 Q 237.0 572.9 292.0 550.0 Q 347.0 527.1 402.0 550.0 Q 457.0 572.9 512.0 550.0 Q 567.0 527.1 622.0 550.0 Q 677.0 572.9 732.0 550.0 " fill="none" stroke="#4EA8DE" stroke-width="3" opacity="0.10"/><path d="M 72 630.0 Q 127.0 610.7 182.0 630.0 Q 237.0 649.3 292.0 630.0 Q 347.0 610.7 402.0 630.0 Q 457.0 649.3 512.0 630.0 Q 567.0 610.7 622.0 630.0 Q 677.0 649.3 732.0 630.0 " fill="none" stroke="#4EA8DE" stroke-width="3" opacity="0.10"/><path d="M 72 710.0 Q 127.0 691.1 182.0 710.0 Q 237.0 728.9 292.0 710.0 Q 347.0 691.1 402.0 710.0 Q 457.0 728.9 512.0 710.0 Q 567.0 691.1 622.0 710.0 Q 677.0 728.9 732.0 710.0 " fill="none" stroke="#4EA8DE" stroke-width="3" opacity="0.10"/><path d="M 72 790.0 Q 127.0 762.6 182.0 790.0 Q 237.0 817.4 292.0 790.0 Q 347.0 762.6 402.0 790.0 Q 457.0 817.4 512.0 790.0 Q 567.0 762.6 622.0 790.0 Q 677.0 817.4 732.0 790.0 " fill="none" stroke="#4EA8DE" stroke-width="3" opacity="0.10"/><path d="M 72 870.0 Q 127.0 838.2 182.0 870.0 Q 237.0 901.8 292.0 870.0 Q 347.0 838.2 402.0 870.0 Q 457.0 901.8 512.0 870.0 Q 567.0 838.2 622.0 870.0 Q 677.0 901.8 732.0 870.0 " fill="none" stroke="#4EA8DE" stroke-width="3" opacity="0.10"/></g><g><g opacity="0.55">
        <g>
          <path d="M 348.5 377.7
                   L 415.7 377.7
                   L 407.9 411.3
                   Q 382.1 430.9 356.4 411.3
                   Z" fill="#ffffff" stroke="#1E1B2E" stroke-width="7"/>
          <path d="M 415.2 387.5
                   Q 435.3 400.1 415.2 412.7" fill="none" stroke="#1E1B2E" stroke-width="10" stroke-linecap="round" opacity="0.9"/>
          <rect x="368.7" y="430.9" width="26.9" height="16.8" rx="5.6" fill="#4EA8DE" opacity="0.45" stroke="#1E1B2E" stroke-width="6"/>
          <circle cx="382.14096230854557" cy="370.7" r="6.2" fill="#4EA8DE" opacity="0.55"/>
          <path d="M 369.5 370.7 Q 382.14096230854557 359.5 394.7 370.7" fill="none" stroke="#4EA8DE" stroke-width="7" opacity="0.55" stroke-linecap="round"/>
        </g>
        </g><g opacity="0.55">
        <g>
          <path d="M 538.7 474.0
                   L 605.9 474.0
                   L 598.0 507.6
                   Q 572.3 527.2 546.5 507.6
                   Z" fill="#ffffff" stroke="#1E1B2E" stroke-width="7"/>
          <path d="M 605.3 483.8
                   Q 625.5 496.4 605.3 509.0" fill="none" stroke="#1E1B2E" stroke-width="10" stroke-linecap="round" opacity="0.9"/>
          <rect x="558.8" y="527.2" width="26.9" height="16.8" rx="5.6" fill="#4EA8DE" opacity="0.45" stroke="#1E1B2E" stroke-width="6"/>
          <circle cx="572.2856719208417" cy="467.0" r="6.2" fill="#4EA8DE" opacity="0.55"/>
          <path d="M 559.7 467.0 Q 572.2856719208417 455.8 584.9 467.0" fill="none" stroke="#4EA8DE" stroke-width="7" opacity="0.55" stroke-linecap="round"/>
        </g>
        </g><g opacity="0.55">
        <g>
          <path d="M 582.0 695.6
                   L 649.2 695.6
                   L 641.3 729.2
                   Q 615.6 748.8 589.8 729.2
                   Z" fill="#ffffff" stroke="#1E1B2E" stroke-width="7"/>
          <path d="M 648.6 705.4
                   Q 668.8 718.0 648.6 730.6" fill="none" stroke="#1E1B2E" stroke-width="10" stroke-linecap="round" opacity="0.9"/>
          <rect x="602.1" y="748.8" width="26.9" height="16.8" rx="5.6" fill="#4EA8DE" opacity="0.45" stroke="#1E1B2E" stroke-width="6"/>
          <circle cx="615.585224465399" cy="688.6" r="6.2" fill="#4EA8DE" opacity="0.55"/>
          <path d="M 603.0 688.6 Q 615.585224465399 677.4 628.2 688.6" fill="none" stroke="#4EA8DE" stroke-width="7" opacity="0.55" stroke-linecap="round"/>
        </g>
        </g><g opacity="0.55">
        <g>
          <path d="M 458.4 848.5
                   L 525.6 848.5
                   L 517.8 882.1
                   Q 492.0 901.7 466.3 882.1
                   Z" fill="#ffffff" stroke="#1E1B2E" stroke-width="7"/>
          <path d="M 525.1 858.3
                   Q 545.2 870.9 525.1 883.5" fill="none" stroke="#1E1B2E" stroke-width="10" stroke-linecap="round" opacity="0.9"/>
          <rect x="478.6" y="901.7" width="26.9" height="16.8" rx="5.6" fill="#4EA8DE" opacity="0.45" stroke="#1E1B2E" stroke-width="6"/>
          <circle cx="492.01622652838796" cy="841.5" r="6.2" fill="#4EA8DE" opacity="0.55"/>
          <path d="M 479.4 841.5 Q 492.01622652838796 830.3 504.6 841.5" fill="none" stroke="#4EA8DE" stroke-width="7" opacity="0.55" stroke-linecap="round"/>
        </g>
        </g><g opacity="0.55">
        <g>
          <path d="M 231.1 852.0
                   L 298.3 852.0
                   L 290.5 885.6
                   Q 264.7 905.2 238.9 885.6
                   Z" fill="#ffffff" stroke="#1E1B2E" stroke-width="7"/>
          <path d="M 297.7 861.8
                   Q 317.9 874.4 297.7 887.0" fill="none" stroke="#1E1B2E" stroke-width="10" stroke-linecap="round" opacity="0.9"/>
          <rect x="251.3" y="905.2" width="26.9" height="16.8" rx="5.6" fill="#4EA8DE" opacity="0.45" stroke="#1E1B2E" stroke-width="6"/>
          <circle cx="264.7093769403916" cy="845.0" r="6.2" fill="#4EA8DE" opacity="0.55"/>
          <path d="M 252.1 845.0 Q 264.7093769403916 833.8 277.3 845.0" fill="none" stroke="#4EA8DE" stroke-width="7" opacity="0.55" stroke-linecap="round"/>
        </g>
        </g><g opacity="0.55">
        <g>
          <path d="M 95.5 672.7
                   L 162.7 672.7
                   L 154.9 706.3
                   Q 129.1 725.9 103.3 706.3
                   Z" fill="#ffffff" stroke="#1E1B2E" stroke-width="7"/>
          <path d="M 162.1 682.5
                   Q 182.3 695.1 162.1 707.7" fill="none" stroke="#1E1B2E" stroke-width="10" stroke-linecap="round" opacity="0.9"/>
          <rect x="115.7" y="725.9" width="26.9" height="16.8" rx="5.6" fill="#4EA8DE" opacity="0.45" stroke="#1E1B2E" stroke-width="6"/>
          <circle cx="129.10121676400288" cy="665.7" r="6.2" fill="#4EA8DE" opacity="0.55"/>
          <path d="M 116.5 665.7 Q 129.10121676400288 654.5 141.7 665.7" fill="none" stroke="#4EA8DE" stroke-width="7" opacity="0.55" stroke-linecap="round"/>
        </g>
        </g><g opacity="0.55">
        <g>
          <path d="M 144.7 473.3
                   L 211.9 473.3
                   L 204.1 506.9
                   Q 178.3 526.5 152.5 506.9
                   Z" fill="#ffffff" stroke="#1E1B2E" stroke-width="7"/>
          <path d="M 211.3 483.1
                   Q 231.5 495.7 211.3 508.3" fill="none" stroke="#1E1B2E" stroke-width="10" stroke-linecap="round" opacity="0.9"/>
          <rect x="164.9" y="526.5" width="26.9" height="16.8" rx="5.6" fill="#4EA8DE" opacity="0.45" stroke="#1E1B2E" stroke-width="6"/>
          <circle cx="178.30842702646024" cy="466.3" r="6.2" fill="#4EA8DE" opacity="0.55"/>
          <path d="M 165.7 466.3 Q 178.30842702646024 455.1 190.9 466.3" fill="none" stroke="#4EA8DE" stroke-width="7" opacity="0.55" stroke-linecap="round"/>
        </g>
        </g></g><path d="M 439.8 601.6 Q 326.4 536.8 493.0 575.6 Q 361.5 552.6 498.1 624.3 Q 351.2 574.5 493.5 684.7 Q 426.0 583.7 427.1 813.7 Q 421.3 586.2 418.9 555.0 Q 365.4 568.5 376.8 475.7 " fill="none" stroke="#4EA8DE" stroke-width="5.5" opacity="0.38" stroke-linecap="round" stroke-linejoin="round"/>
        <g filter="url(#glow)">
          <circle cx="375.0" cy="630" r="170" fill="#ffffff" opacity="0.40" stroke="#4EA8DE" stroke-width="7"/>
          
        <g>
          <path d="M 288.6 572.4
                   L 461.4 572.4
                   L 441.2 658.8
                   Q 375.0 709.2 308.8 658.8
                   Z" fill="#ffffff" stroke="#1E1B2E" stroke-width="7"/>
          <path d="M 460.0 597.6
                   Q 511.8 630.0 460.0 662.4" fill="none" stroke="#1E1B2E" stroke-width="10" stroke-linecap="round" opacity="0.9"/>
          <rect x="340.4" y="709.2" width="69.1" height="43.2" rx="14.4" fill="#4EA8DE" opacity="0.45" stroke="#1E1B2E" stroke-width="6"/>
          <circle cx="375.0" cy="554.4" r="15.8" fill="#4EA8DE" opacity="0.55"/>
          <path d="M 342.6 554.4 Q 375.0 525.6 407.4 554.4" fill="none" stroke="#4EA8DE" stroke-width="7" opacity="0.55" stroke-linecap="round"/>
        </g>
        
        </g>
        <line x1="222.8" y1="366.9" x2="579.7" y2="309.4" stroke="#ffffff" stroke-width="2.2" opacity="0.13"/>
<line x1="579.7" y1="309.4" x2="355.2" y2="683.1" stroke="#ffffff" stroke-width="2.2" opacity="0.10"/>
<line x1="355.2" y1="683.1" x2="367.4" y2="610.4" stroke="#ffffff" stroke-width="2.2" opacity="0.18"/>
<line x1="367.4" y1="610.4" x2="146.4" y2="524.5" stroke="#ffffff" stroke-width="2.2" opacity="0.11"/>
<line x1="146.4" y1="524.5" x2="492.0" y2="369.2" stroke="#ffffff" stroke-width="2.2" opacity="0.18"/>
<line x1="492.0" y1="369.2" x2="401.0" y2="504.8" stroke="#ffffff" stroke-width="2.2" opacity="0.20"/>
<circle cx="317.6" cy="587.1" r="1.7" fill="#ffffff" opacity="0.8095013319186306"/>
<circle cx="222.8" cy="366.9" r="4.2" fill="#ffffff" opacity="0.7180622838827873"/>
<circle cx="479.7" cy="249.8" r="3.7" fill="#ffffff" opacity="0.4963679901305933"/>
<circle cx="146.4" cy="524.5" r="3.4" fill="#ffffff" opacity="0.30539526730971994"/>
<circle cx="238.5" cy="576.9" r="2.0" fill="#ffffff" opacity="0.39776309566307655"/>
<circle cx="213.6" cy="457.5" r="4.1" fill="#ffffff" opacity="0.5380729495181482"/>
<circle cx="401.0" cy="504.8" r="3.0" fill="#ffffff" opacity="0.5612293223387322"/>
<circle cx="355.2" cy="683.1" r="2.3" fill="#ffffff" opacity="0.6324449357193926"/>
<circle cx="206.9" cy="680.7" r="2.6" fill="#ffffff" opacity="0.3909579159786222"/>
<circle cx="322.7" cy="489.9" r="4.3" fill="#ffffff" opacity="0.6590617503538636"/>
<circle cx="475.3" cy="544.9" r="2.6" fill="#ffffff" opacity="0.6119319793346072"/>
<circle cx="492.0" cy="369.2" r="1.9" fill="#ffffff" opacity="0.651265313326342"/>
<circle cx="579.7" cy="309.4" r="3.7" fill="#ffffff" opacity="0.6000933972193339"/>
<circle cx="367.4" cy="610.4" r="3.5" fill="#ffffff" opacity="0.5382266721984481"/>
<rect x="42" y="1030" width="666" height="160" rx="30" fill="#ffffffd9" stroke="#1E1B2E" stroke-width="4" opacity="0.95"/>
<text x="375.0" y="1104" font-family="ui-sans-serif, system-ui, -apple-system, Segoe UI, Roboto, Helvetica, Arial" font-size="46" font-weight="900" text-anchor="middle" fill="#1E1B2E" opacity="0.98">7 of Cups</text>
<text x="375.0" y="1152" font-family="ui-sans-serif, system-ui, -apple-system, Segoe UI, Roboto, Helvetica, Arial" font-size="28" font-weight="700" text-anchor="middle" fill="#1E1B2E" opacity="0.7">Trust</text>

    <g opacity="0.55">
      <circle cx="127" cy="1176" r="14" fill="#4EA8DE"/>
      <circle cx="623" cy="1176" r="14" fill="#4EA8DE"/>
      <path d="M 162 1176 L 588 1176" stroke="#4EA8DE" stroke-width="4" opacity="0.45" stroke-linecap="round"/>
    </g>
    
</svg>
