<svg xmlns="http://www.w3.org/2000/svg" width="750" height="1250" viewBox="0 0 750 1250">
  <title>8 of Cups</title>


  <defs>
    <linearGradient id="g" x1="0" y1="0" x2="1" y2="1">
      <stop offset="0%" stop-color="#E7FFFB"/>
      <stop offset="100%" stop-color="#FCEBFF"/>
    </linearGradient>

    <!-- paper texture -->
    <filter id="paper" x="-20%" y="-20%" width="140%" height="140%">
      <feTurbulence type="fractalNoise" baseFrequency="0.015" numOctaves="3" seed="8603" result="noise"/>
      <feColorMatrix in="noise" type="matrix"
        values="1 0 0 0 0
                0 1 0 0 0
                0 0 1 0 0
                0 0 0 0.25 0" result="noiseAlpha"/>
      <feComposite in="noiseAlpha" in2="SourceGraphic" operator="over"/>
    </filter>

    <!-- soft glow -->
    <filter id="glow" x="-30%" y="-30%" width="160%" height="160%">
      <feGaussianBlur stdDeviation="10" result="blur"/>
      <feColorMatrix type="matrix" values="
        1 0 0 0 0
        0 1 0 0 0
        0 0 1 0 0
        0 0 0 0.32 0" result="blurAlpha"/>
      <feMerge>
        <feMergeNode in="blurAlpha"/>
        <feMergeNode in="SourceGraphic"/>
      </feMerge>
    </filter>
  </defs>

<rect x="0" y="0" width="750" height="1250" rx="58" ry="58" fill="url(#g)" stroke="none" stroke-width="0" opacity="1"/>
<rect x="0" y="0" width="750" height="1250" fill="#ffffff" opacity="0.08"/>
<line x1="631.7" y1="280.5" x2="591.3" y2="917.1" stroke="#ffffff" stroke-width="2.2" opacity="0.17"/>
<line x1="591.3" y1="917.1" x2="357.2" y2="856.8" stroke="#ffffff" stroke-width="2.2" opacity="0.21"/>
<line x1="357.2" y1="856.8" x2="647.7" y2="103.0" stroke="#ffffff" stroke-width="2.2" opacity="0.08"/>
<line x1="647.7" y1="103.0" x2="249.5" y2="575.3" stroke="#ffffff" stroke-width="2.2" opacity="0.14"/>
<line x1="249.5" y1="575.3" x2="404.2" y2="1148.0" stroke="#ffffff" stroke-width="2.2" opacity="0.20"/>
<line x1="404.2" y1="1148.0" x2="114.7" y2="325.1" stroke="#ffffff" stroke-width="2.2" opacity="0.08"/>
<line x1="114.7" y1="325.1" x2="565.2" y2="743.3" stroke="#ffffff" stroke-width="2.2" opacity="0.21"/>
<line x1="565.2" y1="743.3" x2="158.5" y2="1012.4" stroke="#ffffff" stroke-width="2.2" opacity="0.21"/>
<line x1="158.5" y1="1012.4" x2="74.5" y2="1180.0" stroke="#ffffff" stroke-width="2.2" opacity="0.22"/>
<line x1="74.5" y1="1180.0" x2="669.7" y2="1010.1" stroke="#ffffff" stroke-width="2.2" opacity="0.08"/>
<line x1="669.7" y1="1010.1" x2="77.6" y2="513.7" stroke="#ffffff" stroke-width="2.2" opacity="0.12"/>
<line x1="77.6" y1="513.7" x2="53.7" y2="1054.2" stroke="#ffffff" stroke-width="2.2" opacity="0.10"/>
<line x1="53.7" y1="1054.2" x2="541.9" y2="1082.4" stroke="#ffffff" stroke-width="2.2" opacity="0.15"/>
<line x1="541.9" y1="1082.4" x2="471.4" y2="431.3" stroke="#ffffff" stroke-width="2.2" opacity="0.20"/>
<line x1="471.4" y1="431.3" x2="224.9" y2="772.2" stroke="#ffffff" stroke-width="2.2" opacity="0.16"/>
<line x1="224.9" y1="772.2" x2="613.6" y2="535.0" stroke="#ffffff" stroke-width="2.2" opacity="0.17"/>
<line x1="613.6" y1="535.0" x2="473.6" y2="1004.4" stroke="#ffffff" stroke-width="2.2" opacity="0.21"/>
<line x1="473.6" y1="1004.4" x2="96.5" y2="46.0" stroke="#ffffff" stroke-width="2.2" opacity="0.16"/>
<circle cx="145.5" cy="288.3" r="4.1" fill="#ffffff" opacity="0.6009326887230252"/>
<circle cx="628.4" cy="72.9" r="3.4" fill="#ffffff" opacity="0.8260334558086273"/>
<circle cx="364.8" cy="186.1" r="2.1" fill="#ffffff" opacity="0.8120345589695988"/>
<circle cx="357.2" cy="856.8" r="3.6" fill="#ffffff" opacity="0.4163021904766999"/>
<circle cx="436.3" cy="789.5" r="4.5" fill="#ffffff" opacity="0.5783804771555368"/>
<circle cx="613.6" cy="535.0" r="2.9" fill="#ffffff" opacity="0.7873661780692067"/>
<circle cx="267.4" cy="202.1" r="3.4" fill="#ffffff" opacity="0.4020759547034076"/>
<circle cx="437.0" cy="753.6" r="4.1" fill="#ffffff" opacity="0.3525418118745698"/>
<circle cx="387.4" cy="767.5" r="2.4" fill="#ffffff" opacity="0.670555888429604"/>
<circle cx="561.5" cy="507.6" r="2.5" fill="#ffffff" opacity="0.6830299661798132"/>
<circle cx="84.0" cy="1020.6" r="1.7" fill="#ffffff" opacity="0.71523564891258"/>
<circle cx="133.1" cy="137.3" r="2.0" fill="#ffffff" opacity="0.7854969403519699"/>
<circle cx="105.9" cy="801.2" r="2.0" fill="#ffffff" opacity="0.4589468548608066"/>
<circle cx="650.6" cy="56.5" r="4.7" fill="#ffffff" opacity="0.8083068029914976"/>
<circle cx="426.7" cy="670.6" r="4.3" fill="#ffffff" opacity="0.8034255648975743"/>
<circle cx="572.1" cy="278.3" r="2.9" fill="#ffffff" opacity="0.7648949852304278"/>
<circle cx="96.5" cy="46.0" r="3.1" fill="#ffffff" opacity="0.5737350315286285"/>
<circle cx="473.6" cy="1004.4" r="4.3" fill="#ffffff" opacity="0.48379076558787637"/>
<circle cx="631.7" cy="280.5" r="4.7" fill="#ffffff" opacity="0.7145847813260637"/>
<circle cx="471.4" cy="431.3" r="2.5" fill="#ffffff" opacity="0.33606049566842827"/>
<circle cx="313.2" cy="247.1" r="4.0" fill="#ffffff" opacity="0.7650352689753582"/>
<circle cx="249.5" cy="575.3" r="4.6" fill="#ffffff" opacity="0.8317882071197004"/>
<circle cx="47.9" cy="776.8" r="2.2" fill="#ffffff" opacity="0.8126950249677446"/>
<circle cx="71.8" cy="726.9" r="3.8" fill="#ffffff" opacity="0.7344015784929764"/>
<circle cx="565.2" cy="743.3" r="1.9" fill="#ffffff" opacity="0.8127470441077789"/>
<circle cx="158.5" cy="1012.4" r="4.0" fill="#ffffff" opacity="0.5311613616411444"/>
<circle cx="647.7" cy="103.0" r="3.1" fill="#ffffff" opacity="0.3102668573262269"/>
<circle cx="114.7" cy="325.1" r="2.1" fill="#ffffff" opacity="0.4109283015559666"/>
<circle cx="74.5" cy="1180.0" r="4.7" fill="#ffffff" opacity="0.34791717605957306"/>
<circle cx="705.3" cy="412.6" r="2.5" fill="#ffffff" opacity="0.8350504350271917"/>
<circle cx="446.7" cy="125.8" r="2.7" fill="#ffffff" opacity="0.568002196218732"/>
<circle cx="234.3" cy="529.9" r="1.8" fill="#ffffff" opacity="0.47031121491546274"/>
<circle cx="198.1" cy="782.4" r="2.0" fill="#ffffff" opacity="0.6032330502405718"/>
<circle cx="448.0" cy="447.5" r="3.2" fill="#ffffff" opacity="0.3970489938443912"/>
<circle cx="541.9" cy="1082.4" r="2.3" fill="#ffffff" opacity="0.5553658462217885"/>
<circle cx="80.6" cy="117.2" r="4.5" fill="#ffffff" opacity="0.502969533122581"/>
<circle cx="669.7" cy="1010.1" r="2.0" fill="#ffffff" opacity="0.788378981490076"/>
<circle cx="450.1" cy="541.3" r="3.0" fill="#ffffff" opacity="0.48534170449112657"/>
<circle cx="48.4" cy="1128.6" r="2.3" fill="#ffffff" opacity="0.6849213227634687"/>
<circle cx="77.6" cy="513.7" r="3.3" fill="#ffffff" opacity="0.6980046325937173"/>
<circle cx="698.4" cy="627.7" r="4.5" fill="#ffffff" opacity="0.4270340901709958"/>
<circle cx="591.3" cy="917.1" r="2.5" fill="#ffffff" opacity="0.8452187178784332"/>
<circle cx="146.1" cy="389.7" r="3.1" fill="#ffffff" opacity="0.32263873490690603"/>
<circle cx="404.2" cy="1148.0" r="2.0" fill="#ffffff" opacity="0.5372827407856011"/>
<circle cx="682.9" cy="726.7" r="4.4" fill="#ffffff" opacity="0.8441725680211483"/>
<circle cx="246.9" cy="139.0" r="2.9" fill="#ffffff" opacity="0.48520133935782384"/>
<circle cx="53.7" cy="1054.2" r="2.5" fill="#ffffff" opacity="0.4387370218233587"/>
<circle cx="137.8" cy="587.5" r="3.3" fill="#ffffff" opacity="0.803646132870271"/>
<circle cx="224.9" cy="772.2" r="1.6" fill="#ffffff" opacity="0.3754531791377397"/>
<circle cx="442.3" cy="371.9" r="3.6" fill="#ffffff" opacity="0.35543661881592487"/>
<g filter="url(#paper)"><rect x="42" y="42" width="666" height="1166" rx="54" ry="54" fill="none" stroke="#1E1B2E" stroke-width="8" opacity="0.95"/>
<rect x="60" y="60" width="630" height="1130" rx="46" ry="46" fill="none" stroke="#4EA8DE" stroke-width="3" opacity="0.35"/>

  <g opacity="0.42">
    <circle cx="375.0" cy="560" r="285" fill="none" stroke="#4EA8DE" stroke-width="4.2" opacity="0.42"/>
    <circle cx="375.0" cy="560" r="233.7" fill="none" stroke="#4EA8DE" stroke-width="2.2" opacity="0.23"/>
    <line x1="642.0" y1="560.0" x2="674.0" y2="560.0" stroke="#4EA8DE" stroke-width="3.2" opacity="0.23" stroke-linecap="round"/><line x1="606.2" y1="693.5" x2="633.9" y2="709.5" stroke="#4EA8DE" stroke-width="3.2" opacity="0.23" stroke-linecap="round"/><line x1="508.5" y1="791.2" x2="524.5" y2="818.9" stroke="#4EA8DE" stroke-width="3.2" opacity="0.23" stroke-linecap="round"/><line x1="375.0" y1="827.0" x2="375.0" y2="859.0" stroke="#4EA8DE" stroke-width="3.2" opacity="0.23" stroke-linecap="round"/><line x1="241.5" y1="791.2" x2="225.5" y2="818.9" stroke="#4EA8DE" stroke-width="3.2" opacity="0.23" stroke-linecap="round"/><line x1="143.8" y1="693.5" x2="116.1" y2="709.5" stroke="#4EA8DE" stroke-width="3.2" opacity="0.23" stroke-linecap="round"/><line x1="108.0" y1="560.0" x2="76.0" y2="560.0" stroke="#4EA8DE" stroke-width="3.2" opacity="0.23" stroke-linecap="round"/><line x1="143.8" y1="426.5" x2="116.1" y2="410.5" stroke="#4EA8DE" stroke-width="3.2" opacity="0.23" stroke-linecap="round"/><line x1="241.5" y1="328.8" x2="225.5" y2="301.1" stroke="#4EA8DE" stroke-width="3.2" opacity="0.23" stroke-linecap="round"/><line x1="375.0" y1="293.0" x2="375.0" y2="261.0" stroke="#4EA8DE" stroke-width="3.2" opacity="0.23" stroke-linecap="round"/><line x1="508.5" y1="328.8" x2="524.5" y2="301.1" stroke="#4EA8DE" stroke-width="3.2" opacity="0.23" stroke-linecap="round"/><line x1="606.2" y1="426.5" x2="633.9" y2="410.5" stroke="#4EA8DE" stroke-width="3.2" opacity="0.23" stroke-linecap="round"/>
    <circle cx="660.0" cy="562.8" r="3.3" fill="#4EA8DE" opacity="0.25"/><circle cx="651.9" cy="627.5" r="3.6" fill="#4EA8DE" opacity="0.33"/><circle cx="622.7" cy="701.0" r="3.2" fill="#4EA8DE" opacity="0.33"/><circle cx="581.8" cy="756.1" r="3.8" fill="#4EA8DE" opacity="0.40"/><circle cx="513.5" cy="809.1" r="3.9" fill="#4EA8DE" opacity="0.24"/><circle cx="445.0" cy="836.3" r="3.8" fill="#4EA8DE" opacity="0.21"/><circle cx="374.9" cy="845.0" r="2.6" fill="#4EA8DE" opacity="0.22"/><circle cx="308.6" cy="837.2" r="3.4" fill="#4EA8DE" opacity="0.24"/><circle cx="232.9" cy="807.1" r="3.0" fill="#4EA8DE" opacity="0.34"/><circle cx="174.9" cy="763.0" r="2.8" fill="#4EA8DE" opacity="0.24"/><circle cx="131.1" cy="707.4" r="3.1" fill="#4EA8DE" opacity="0.43"/><circle cx="100.2" cy="635.5" r="4.0" fill="#4EA8DE" opacity="0.42"/><circle cx="90.0" cy="557.1" r="2.6" fill="#4EA8DE" opacity="0.39"/><circle cx="99.1" cy="488.4" r="3.0" fill="#4EA8DE" opacity="0.24"/><circle cx="126.6" cy="420.4" r="3.5" fill="#4EA8DE" opacity="0.29"/><circle cx="173.9" cy="358.0" r="3.2" fill="#4EA8DE" opacity="0.45"/><circle cx="229.3" cy="315.1" r="2.8" fill="#4EA8DE" opacity="0.33"/><circle cx="295.0" cy="286.5" r="2.7" fill="#4EA8DE" opacity="0.44"/><circle cx="375.7" cy="275.0" r="3.6" fill="#4EA8DE" opacity="0.39"/><circle cx="457.1" cy="287.1" r="2.8" fill="#4EA8DE" opacity="0.24"/><circle cx="510.7" cy="309.4" r="3.0" fill="#4EA8DE" opacity="0.41"/><circle cx="572.9" cy="354.9" r="3.1" fill="#4EA8DE" opacity="0.40"/><circle cx="623.1" cy="419.7" r="3.4" fill="#4EA8DE" opacity="0.24"/><circle cx="651.1" cy="489.3" r="2.8" fill="#4EA8DE" opacity="0.42"/>
  </g>

<g><g transform="translate(50,54)"><path d="M 18.0 117.0 C 45.0 45.0, 99.0 27.0, 153.0 54.0" fill="none" stroke="#4EA8DE" stroke-width="6" opacity="0.55" stroke-linecap="round"/></g><g transform="translate(700,54) scale(-1,1)"><path d="M 18.0 117.0 C 45.0 45.0, 99.0 27.0, 153.0 54.0" fill="none" stroke="#4EA8DE" stroke-width="6" opacity="0.55" stroke-linecap="round"/></g><g transform="translate(50,1196) scale(1,-1)"><path d="M 18.0 117.0 C 45.0 45.0, 99.0 27.0, 153.0 54.0" fill="none" stroke="#4EA8DE" stroke-width="6" opacity="0.55" stroke-linecap="round"/></g><g transform="translate(700,1196) scale(-1,-1)"><path d="M 18.0 117.0 C 45.0 45.0, 99.0 27.0, 153.0 54.0" fill="none" stroke="#4EA8DE" stroke-width="6" opacity="0.55" stroke-linecap="round"/></g></g></g>
<rect x="42" y="60" width="666" height="92" rx="30" fill="#ffffffcc" stroke="#1E1B2E" stroke-width="4" opacity="0.95"/>
<text x="375.0" y="122" font-family="ui-sans-serif, system-ui, -apple-system, Segoe UI, Roboto, Helvetica, Arial" font-size="30" font-weight="800" text-anchor="middle" fill="#1E1B2E" opacity="0.95" letter-spacing="1">MINOR ARCANA • CUPS</text>
<rect x="76" y="170" width="598" height="760" rx="52" fill="#ffffff" opacity="0.15"/>
<g><path d="M 72 230.0 Q 127.0 211.7 182.0 230.0 Q 237.0 248.3 292.0 230.0 Q 347.0 211.7 402.0 230.0 Q 457.0 248.3 512.0 230.0 Q 567.0 211.7 622.0 230.0 Q 677.0 248.3 732.0 230.0 " fill="none" stroke="#4EA8DE" stroke-width="3" opacity="0.10"/><path d="M 72 310.0 Q 127.0 281.4 182.0 310.0 Q 237.0 338.6 292.0 310.0 Q 347.0 281.4 402.0 310.0 Q 457.0 338.6 512.0 310.0 Q 567.0 281.4 622.0 310.0 Q 677.0 338.6 732.0 310.0 " fill="none" stroke="#4EA8DE" stroke-width="3" opacity="0.10"/><path d="M 72 390.0 Q 127.0 368.2 182.0 390.0 Q 237.0 411.8 292.0 390.0 Q 347.0 368.2 402.0 390.0 Q 457.0 411.8 512.0 390.0 Q 567.0 368.2 622.0 390.0 Q 677.0 411.8 732.0 390.0 " fill="none" stroke="#4EA8DE" stroke-width="3" opacity="0.10"/><path d="M 72 470.0 Q 127.0 447.7 182.0 470.0 Q 237.0 492.3 292.0 470.0 Q 347.0 447.7 402.0 470.0 Q 457.0 492.3 512.0 470.0 Q 567.0 447.7 622.0 470.0 Q 677.0 492.3 732.0 470.0 " fill="none" stroke="#4EA8DE" stroke-width="3" opacity="0.10"/><path d="M 72 550.0 Q 127.0 524.2 182.0 550.0 Q 237.0 575.8 292.0 550.0 Q 347.0 524.2 402.0 550.0 Q 457.0 575.8 512.0 550.0 Q 567.0 524.2 622.0 550.0 Q 677.0 575.8 732.0 550.0 " fill="none" stroke="#4EA8DE" stroke-width="3" opacity="0.10"/><path d="M 72 630.0 Q 127.0 601.8 182.0 630.0 Q 237.0 658.2 292.0 630.0 Q 347.0 601.8 402.0 630.0 Q 457.0 658.2 512.0 630.0 Q 567.0 601.8 622.0 630.0 Q 677.0 658.2 732.0 630.0 " fill="none" stroke="#4EA8DE" stroke-width="3" opacity="0.10"/><path d="M 72 710.0 Q 127.0 682.8 182.0 710.0 Q 237.0 737.2 292.0 710.0 Q 347.0 682.8 402.0 710.0 Q 457.0 737.2 512.0 710.0 Q 567.0 682.8 622.0 710.0 Q 677.0 737.2 732.0 710.0 " fill="none" stroke="#4EA8DE" stroke-width="3" opacity="0.10"/><path d="M 72 790.0 Q 127.0 758.9 182.0 790.0 Q 237.0 821.1 292.0 790.0 Q 347.0 758.9 402.0 790.0 Q 457.0 821.1 512.0 790.0 Q 567.0 758.9 622.0 790.0 Q 677.0 821.1 732.0 790.0 " fill="none" stroke="#4EA8DE" stroke-width="3" opacity="0.10"/><path d="M 72 870.0 Q 127.0 845.1 182.0 870.0 Q 237.0 894.9 292.0 870.0 Q 347.0 845.1 402.0 870.0 Q 457.0 894.9 512.0 870.0 Q 567.0 845.1 622.0 870.0 Q 677.0 894.9 732.0 870.0 " fill="none" stroke="#4EA8DE" stroke-width="3" opacity="0.10"/></g><g><g opacity="0.55">
        <g>
          <path d="M 326.1 378.1
                   L 393.3 378.1
                   L 385.5 411.7
                   Q 359.7 431.3 333.9 411.7
                   Z" fill="#ffffff" stroke="#1E1B2E" stroke-width="7"/>
          <path d="M 392.7 387.9
                   Q 412.9 400.5 392.7 413.1" fill="none" stroke="#1E1B2E" stroke-width="10" stroke-linecap="round" opacity="0.9"/>
          <rect x="346.3" y="431.3" width="26.9" height="16.8" rx="5.6" fill="#4EA8DE" opacity="0.45" stroke="#1E1B2E" stroke-width="6"/>
          <circle cx="359.6996160141674" cy="371.1" r="6.2" fill="#4EA8DE" opacity="0.55"/>
          <path d="M 347.1 371.1 Q 359.6996160141674 359.9 372.3 371.1" fill="none" stroke="#4EA8DE" stroke-width="7" opacity="0.55" stroke-linecap="round"/>
        </g>
        </g><g opacity="0.55">
        <g>
          <path d="M 525.9 458.9
                   L 593.1 458.9
                   L 585.2 492.5
                   Q 559.5 512.1 533.7 492.5
                   Z" fill="#ffffff" stroke="#1E1B2E" stroke-width="7"/>
          <path d="M 592.5 468.7
                   Q 612.7 481.3 592.5 493.9" fill="none" stroke="#1E1B2E" stroke-width="10" stroke-linecap="round" opacity="0.9"/>
          <rect x="546.0" y="512.1" width="26.9" height="16.8" rx="5.6" fill="#4EA8DE" opacity="0.45" stroke="#1E1B2E" stroke-width="6"/>
          <circle cx="559.470101893882" cy="451.9" r="6.2" fill="#4EA8DE" opacity="0.55"/>
          <path d="M 546.9 451.9 Q 559.470101893882 440.7 572.1 451.9" fill="none" stroke="#4EA8DE" stroke-width="7" opacity="0.55" stroke-linecap="round"/>
        </g>
        </g><g opacity="0.55">
        <g>
          <path d="M 591.4 626.0
                   L 658.6 626.0
                   L 650.8 659.6
                   Q 625.0 679.2 599.2 659.6
                   Z" fill="#ffffff" stroke="#1E1B2E" stroke-width="7"/>
          <path d="M 658.0 635.8
                   Q 678.2 648.4 658.0 661.0" fill="none" stroke="#1E1B2E" stroke-width="10" stroke-linecap="round" opacity="0.9"/>
          <rect x="611.6" y="679.2" width="26.9" height="16.8" rx="5.6" fill="#4EA8DE" opacity="0.45" stroke="#1E1B2E" stroke-width="6"/>
          <circle cx="624.994738936785" cy="619.0" r="6.2" fill="#4EA8DE" opacity="0.55"/>
          <path d="M 612.4 619.0 Q 624.994738936785 607.8 637.6 619.0" fill="none" stroke="#4EA8DE" stroke-width="7" opacity="0.55" stroke-linecap="round"/>
        </g>
        </g><g opacity="0.55">
        <g>
          <path d="M 504.4 817.1
                   L 571.6 817.1
                   L 563.8 850.7
                   Q 538.0 870.3 512.3 850.7
                   Z" fill="#ffffff" stroke="#1E1B2E" stroke-width="7"/>
          <path d="M 571.1 826.9
                   Q 591.2 839.5 571.1 852.1" fill="none" stroke="#1E1B2E" stroke-width="10" stroke-linecap="round" opacity="0.9"/>
          <rect x="524.6" y="870.3" width="26.9" height="16.8" rx="5.6" fill="#4EA8DE" opacity="0.45" stroke="#1E1B2E" stroke-width="6"/>
          <circle cx="538.037299260789" cy="810.1" r="6.2" fill="#4EA8DE" opacity="0.55"/>
          <path d="M 525.4 810.1 Q 538.037299260789 798.9 550.6 810.1" fill="none" stroke="#4EA8DE" stroke-width="7" opacity="0.55" stroke-linecap="round"/>
        </g>
        </g><g opacity="0.55">
        <g>
          <path d="M 339.3 877.6
                   L 406.5 877.6
                   L 398.7 911.2
                   Q 372.9 930.8 347.2 911.2
                   Z" fill="#ffffff" stroke="#1E1B2E" stroke-width="7"/>
          <path d="M 406.0 887.4
                   Q 426.1 900.0 406.0 912.6" fill="none" stroke="#1E1B2E" stroke-width="10" stroke-linecap="round" opacity="0.9"/>
          <rect x="359.5" y="930.8" width="26.9" height="16.8" rx="5.6" fill="#4EA8DE" opacity="0.45" stroke="#1E1B2E" stroke-width="6"/>
          <circle cx="372.9314503079368" cy="870.6" r="6.2" fill="#4EA8DE" opacity="0.55"/>
          <path d="M 360.3 870.6 Q 372.9314503079368 859.4 385.5 870.6" fill="none" stroke="#4EA8DE" stroke-width="7" opacity="0.55" stroke-linecap="round"/>
        </g>
        </g><g opacity="0.55">
        <g>
          <path d="M 161.3 801.0
                   L 228.5 801.0
                   L 220.7 834.6
                   Q 194.9 854.2 169.2 834.6
                   Z" fill="#ffffff" stroke="#1E1B2E" stroke-width="7"/>
          <path d="M 228.0 810.8
                   Q 248.1 823.4 228.0 836.0" fill="none" stroke="#1E1B2E" stroke-width="10" stroke-linecap="round" opacity="0.9"/>
          <rect x="181.5" y="854.2" width="26.9" height="16.8" rx="5.6" fill="#4EA8DE" opacity="0.45" stroke="#1E1B2E" stroke-width="6"/>
          <circle cx="194.9389540369604" cy="794.0" r="6.2" fill="#4EA8DE" opacity="0.55"/>
          <path d="M 182.3 794.0 Q 194.9389540369604 782.8 207.5 794.0" fill="none" stroke="#4EA8DE" stroke-width="7" opacity="0.55" stroke-linecap="round"/>
        </g>
        </g><g opacity="0.55">
        <g>
          <path d="M 92.3 606.4
                   L 159.5 606.4
                   L 151.7 640.0
                   Q 125.9 659.6 100.1 640.0
                   Z" fill="#ffffff" stroke="#1E1B2E" stroke-width="7"/>
          <path d="M 158.9 616.2
                   Q 179.1 628.8 158.9 641.4" fill="none" stroke="#1E1B2E" stroke-width="10" stroke-linecap="round" opacity="0.9"/>
          <rect x="112.5" y="659.6" width="26.9" height="16.8" rx="5.6" fill="#4EA8DE" opacity="0.45" stroke="#1E1B2E" stroke-width="6"/>
          <circle cx="125.89659484045413" cy="599.4" r="6.2" fill="#4EA8DE" opacity="0.55"/>
          <path d="M 113.3 599.4 Q 125.89659484045413 588.2 138.5 599.4" fill="none" stroke="#4EA8DE" stroke-width="7" opacity="0.55" stroke-linecap="round"/>
        </g>
        </g><g opacity="0.55">
        <g>
          <path d="M 180.5 436.3
                   L 247.7 436.3
                   L 239.9 469.9
                   Q 214.1 489.5 188.3 469.9
                   Z" fill="#ffffff" stroke="#1E1B2E" stroke-width="7"/>
          <path d="M 247.1 446.1
                   Q 267.3 458.7 247.1 471.3" fill="none" stroke="#1E1B2E" stroke-width="10" stroke-linecap="round" opacity="0.9"/>
          <rect x="200.7" y="489.5" width="26.9" height="16.8" rx="5.6" fill="#4EA8DE" opacity="0.45" stroke="#1E1B2E" stroke-width="6"/>
          <circle cx="214.09375902517692" cy="429.3" r="6.2" fill="#4EA8DE" opacity="0.55"/>
          <path d="M 201.5 429.3 Q 214.09375902517692 418.1 226.7 429.3" fill="none" stroke="#4EA8DE" stroke-width="7" opacity="0.55" stroke-linecap="round"/>
        </g>
        </g></g><g opacity="0.18"><g><path d="M 72 230.0 Q 127.0 211.1 182.0 230.0 Q 237.0 248.9 292.0 230.0 Q 347.0 211.1 402.0 230.0 Q 457.0 248.9 512.0 230.0 Q 567.0 211.1 622.0 230.0 Q 677.0 248.9 732.0 230.0 " fill="none" stroke="#4EA8DE" stroke-width="3" opacity="0.10"/><path d="M 72 310.0 Q 127.0 278.3 182.0 310.0 Q 237.0 341.7 292.0 310.0 Q 347.0 278.3 402.0 310.0 Q 457.0 341.7 512.0 310.0 Q 567.0 278.3 622.0 310.0 Q 677.0 341.7 732.0 310.0 " fill="none" stroke="#4EA8DE" stroke-width="3" opacity="0.10"/><path d="M 72 390.0 Q 127.0 365.1 182.0 390.0 Q 237.0 414.9 292.0 390.0 Q 347.0 365.1 402.0 390.0 Q 457.0 414.9 512.0 390.0 Q 567.0 365.1 622.0 390.0 Q 677.0 414.9 732.0 390.0 " fill="none" stroke="#4EA8DE" stroke-width="3" opacity="0.10"/><path d="M 72 470.0 Q 127.0 445.9 182.0 470.0 Q 237.0 494.1 292.0 470.0 Q 347.0 445.9 402.0 470.0 Q 457.0 494.1 512.0 470.0 Q 567.0 445.9 622.0 470.0 Q 677.0 494.1 732.0 470.0 " fill="none" stroke="#4EA8DE" stroke-width="3" opacity="0.10"/><path d="M 72 550.0 Q 127.0 527.7 182.0 550.0 Q 237.0 572.3 292.0 550.0 Q 347.0 527.7 402.0 550.0 Q 457.0 572.3 512.0 550.0 Q 567.0 527.7 622.0 550.0 Q 677.0 572.3 732.0 550.0 " fill="none" stroke="#4EA8DE" stroke-width="3" opacity="0.10"/><path d="M 72 630.0 Q 127.0 601.7 182.0 630.0 Q 237.0 658.3 292.0 630.0 Q 347.0 601.7 402.0 630.0 Q 457.0 658.3 512.0 630.0 Q 567.0 601.7 622.0 630.0 Q 677.0 658.3 732.0 630.0 " fill="none" stroke="#4EA8DE" stroke-width="3" opacity="0.10"/><path d="M 72 710.0 Q 127.0 691.9 182.0 710.0 Q 237.0 728.1 292.0 710.0 Q 347.0 691.9 402.0 710.0 Q 457.0 728.1 512.0 710.0 Q 567.0 691.9 622.0 710.0 Q 677.0 728.1 732.0 710.0 " fill="none" stroke="#4EA8DE" stroke-width="3" opacity="0.10"/><path d="M 72 790.0 Q 127.0 767.6 182.0 790.0 Q 237.0 812.4 292.0 790.0 Q 347.0 767.6 402.0 790.0 Q 457.0 812.4 512.0 790.0 Q 567.0 767.6 622.0 790.0 Q 677.0 812.4 732.0 790.0 " fill="none" stroke="#4EA8DE" stroke-width="3" opacity="0.10"/><path d="M 72 870.0 Q 127.0 846.7 182.0 870.0 Q 237.0 893.3 292.0 870.0 Q 347.0 846.7 402.0 870.0 Q 457.0 893.3 512.0 870.0 Q 567.0 846.7 622.0 870.0 Q 677.0 893.3 732.0 870.0 " fill="none" stroke="#4EA8DE" stroke-width="3" opacity="0.10"/></g></g>
        <g filter="url(#glow)">
          <circle cx="375.0" cy="630" r="170" fill="#ffffff" opacity="0.40" stroke="#4EA8DE" stroke-width="7"/>
          
        <g>
          <path d="M 288.6 572.4
                   L 461.4 572.4
                   L 441.2 658.8
                   Q 375.0 709.2 308.8 658.8
                   Z" fill="#ffffff" stroke="#1E1B2E" stroke-width="7"/>
          <path d="M 460.0 597.6
                   Q 511.8 630.0 460.0 662.4" fill="none" stroke="#1E1B2E" stroke-width="10" stroke-linecap="round" opacity="0.9"/>
          <rect x="340.4" y="709.2" width="69.1" height="43.2" rx="14.4" fill="#4EA8DE" opacity="0.45" stroke="#1E1B2E" stroke-width="6"/>
          <circle cx="375.0" cy="554.4" r="15.8" fill="#4EA8DE" opacity="0.55"/>
          <path d="M 342.6 554.4 Q 375.0 525.6 407.4 554.4" fill="none" stroke="#4EA8DE" stroke-width="7" opacity="0.55" stroke-linecap="round"/>
        </g>
        
        </g>
        <line x1="226.8" y1="278.1" x2="449.0" y2="629.6" stroke="#ffffff" stroke-width="2.2" opacity="0.16"/>
<line x1="449.0" y1="629.6" x2="592.0" y2="295.2" stroke="#ffffff" stroke-width="2.2" opacity="0.20"/>
<line x1="592.0" y1="295.2" x2="209.0" y2="485.2" stroke="#ffffff" stroke-width="2.2" opacity="0.10"/>
<line x1="209.0" y1="485.2" x2="156.3" y2="531.8" stroke="#ffffff" stroke-width="2.2" opacity="0.20"/>
<line x1="156.3" y1="531.8" x2="515.7" y2="268.3" stroke="#ffffff" stroke-width="2.2" opacity="0.09"/>
<line x1="515.7" y1="268.3" x2="483.7" y2="284.8" stroke="#ffffff" stroke-width="2.2" opacity="0.18"/>
<circle cx="156.3" cy="531.8" r="3.2" fill="#ffffff" opacity="0.40626718426009534"/>
<circle cx="483.7" cy="284.8" r="2.5" fill="#ffffff" opacity="0.5372741778088544"/>
<circle cx="399.5" cy="355.9" r="2.8" fill="#ffffff" opacity="0.7277596662791523"/>
<circle cx="515.7" cy="268.3" r="2.4" fill="#ffffff" opacity="0.41192023565026714"/>
<circle cx="592.0" cy="295.2" r="3.4" fill="#ffffff" opacity="0.2770819269468317"/>
<circle cx="327.7" cy="308.6" r="4.0" fill="#ffffff" opacity="0.7243590154104177"/>
<circle cx="489.3" cy="549.6" r="3.6" fill="#ffffff" opacity="0.4640195888736445"/>
<circle cx="449.0" cy="629.6" r="3.9" fill="#ffffff" opacity="0.36664444407257135"/>
<circle cx="226.2" cy="551.1" r="2.9" fill="#ffffff" opacity="0.7678420298508809"/>
<circle cx="209.0" cy="485.2" r="4.4" fill="#ffffff" opacity="0.8116934211710437"/>
<circle cx="357.6" cy="332.8" r="3.6" fill="#ffffff" opacity="0.8034978370390233"/>
<circle cx="235.0" cy="253.6" r="3.3" fill="#ffffff" opacity="0.5346038810369599"/>
<circle cx="226.8" cy="278.1" r="3.8" fill="#ffffff" opacity="0.575314548085331"/>
<circle cx="249.7" cy="634.1" r="2.8" fill="#ffffff" opacity="0.428545978032277"/>
<rect x="42" y="1030" width="666" height="160" rx="30" fill="#ffffffd9" stroke="#1E1B2E" stroke-width="4" opacity="0.95"/>
<text x="375.0" y="1104" font-family="ui-sans-serif, system-ui, -apple-system, Segoe UI, Roboto, Helvetica, Arial" font-size="46" font-weight="900" text-anchor="middle" fill="#1E1B2E" opacity="0.98">8 of Cups</text>
<text x="375.0" y="1152" font-family="ui-sans-serif, system-ui, -apple-system, Segoe UI, Roboto, Helvetica, Arial" font-size="28" font-weight="700" text-anchor="middle" fill="#1E1B2E" opacity="0.7">Motion</text>

    <g opacity="0.55">
      <circle cx="127" cy="1176" r="14" fill="#4EA8DE"/>
      <circle cx="623" cy="1176" r="14" fill="#4EA8DE"/>
      <path d="M 162 1176 L 588 1176" stroke="#4EA8DE" stroke-width="4" opacity="0.45" stroke-linecap="round"/>
    </g>
    
</svg>
