<svg xmlns="http://www.w3.org/2000/svg" width="750" height="1250" viewBox="0 0 750 1250">
  <title>9 of Cups</title>


  <defs>
    <linearGradient id="g" x1="0" y1="0" x2="1" y2="1">
      <stop offset="0%" stop-color="#E7FFFB"/>
      <stop offset="100%" stop-color="#FCEBFF"/>
    </linearGradient>

    <!-- paper texture -->
    <filter id="paper" x="-20%" y="-20%" width="140%" height="140%">
      <feTurbulence type="fractalNoise" baseFrequency="0.016" numOctaves="3" seed="5264" result="noise"/>
      <feColorMatrix in="noise" type="matrix"
        values="1 0 0 0 0
                0 1 0 0 0
                0 0 1 0 0
                0 0 0 0.25 0" result="noiseAlpha"/>
      <feComposite in="noiseAlpha" in2="SourceGraphic" operator="over"/>
    </filter>

    <!-- soft glow -->
    <filter id="glow" x="-30%" y="-30%" width="160%" height="160%">
      <feGaussianBlur stdDeviation="10" result="blur"/>
      <feColorMatrix type="matrix" values="
        1 0 0 0 0
        0 1 0 0 0
        0 0 1 0 0
        0 0 0 0.32 0" result="blurAlpha"/>
      <feMerge>
        <feMergeNode in="blurAlpha"/>
        <feMergeNode in="SourceGraphic"/>
      </feMerge>
    </filter>
  </defs>

<rect x="0" y="0" width="750" height="1250" rx="58" ry="58" fill="url(#g)" stroke="none" stroke-width="0" opacity="1"/>
<rect x="0" y="0" width="750" height="1250" fill="#ffffff" opacity="0.08"/>
<line x1="273.1" y1="678.5" x2="70.9" y2="675.4" stroke="#ffffff" stroke-width="2.2" opacity="0.21"/>
<line x1="70.9" y1="675.4" x2="388.7" y2="193.5" stroke="#ffffff" stroke-width="2.2" opacity="0.14"/>
<line x1="388.7" y1="193.5" x2="223.4" y2="488.7" stroke="#ffffff" stroke-width="2.2" opacity="0.17"/>
<line x1="223.4" y1="488.7" x2="695.9" y2="333.3" stroke="#ffffff" stroke-width="2.2" opacity="0.19"/>
<line x1="695.9" y1="333.3" x2="657.0" y2="710.1" stroke="#ffffff" stroke-width="2.2" opacity="0.12"/>
<line x1="657.0" y1="710.1" x2="525.6" y2="513.5" stroke="#ffffff" stroke-width="2.2" opacity="0.13"/>
<line x1="525.6" y1="513.5" x2="292.9" y2="1035.4" stroke="#ffffff" stroke-width="2.2" opacity="0.13"/>
<line x1="292.9" y1="1035.4" x2="671.1" y2="536.7" stroke="#ffffff" stroke-width="2.2" opacity="0.10"/>
<line x1="671.1" y1="536.7" x2="553.6" y2="228.7" stroke="#ffffff" stroke-width="2.2" opacity="0.21"/>
<line x1="553.6" y1="228.7" x2="675.7" y2="618.7" stroke="#ffffff" stroke-width="2.2" opacity="0.11"/>
<line x1="675.7" y1="618.7" x2="78.0" y2="1000.1" stroke="#ffffff" stroke-width="2.2" opacity="0.19"/>
<line x1="78.0" y1="1000.1" x2="300.2" y2="1015.7" stroke="#ffffff" stroke-width="2.2" opacity="0.18"/>
<line x1="300.2" y1="1015.7" x2="277.2" y2="987.6" stroke="#ffffff" stroke-width="2.2" opacity="0.13"/>
<line x1="277.2" y1="987.6" x2="91.5" y2="1136.5" stroke="#ffffff" stroke-width="2.2" opacity="0.12"/>
<line x1="91.5" y1="1136.5" x2="65.6" y2="974.2" stroke="#ffffff" stroke-width="2.2" opacity="0.14"/>
<line x1="65.6" y1="974.2" x2="222.0" y2="773.5" stroke="#ffffff" stroke-width="2.2" opacity="0.20"/>
<line x1="222.0" y1="773.5" x2="597.2" y2="752.8" stroke="#ffffff" stroke-width="2.2" opacity="0.21"/>
<line x1="597.2" y1="752.8" x2="531.0" y2="387.4" stroke="#ffffff" stroke-width="2.2" opacity="0.09"/>
<circle cx="224.7" cy="967.2" r="4.6" fill="#ffffff" opacity="0.5840833887582735"/>
<circle cx="70.9" cy="675.4" r="1.7" fill="#ffffff" opacity="0.6363071635089546"/>
<circle cx="222.0" cy="773.5" r="2.9" fill="#ffffff" opacity="0.35610794846425403"/>
<circle cx="609.2" cy="1090.9" r="1.9" fill="#ffffff" opacity="0.3760359096243493"/>
<circle cx="78.0" cy="1000.1" r="4.0" fill="#ffffff" opacity="0.5940210546079879"/>
<circle cx="671.1" cy="536.7" r="3.7" fill="#ffffff" opacity="0.6260864427774827"/>
<circle cx="608.6" cy="172.6" r="4.8" fill="#ffffff" opacity="0.6328151337813188"/>
<circle cx="353.7" cy="464.8" r="3.0" fill="#ffffff" opacity="0.7888690077744196"/>
<circle cx="422.4" cy="733.3" r="4.6" fill="#ffffff" opacity="0.8039991993783172"/>
<circle cx="317.8" cy="1081.9" r="4.7" fill="#ffffff" opacity="0.7479048418272837"/>
<circle cx="163.6" cy="455.5" r="1.8" fill="#ffffff" opacity="0.28749765786028136"/>
<circle cx="42.6" cy="600.4" r="3.4" fill="#ffffff" opacity="0.6111386379176305"/>
<circle cx="365.2" cy="120.0" r="3.8" fill="#ffffff" opacity="0.6091370638630769"/>
<circle cx="321.2" cy="581.9" r="3.7" fill="#ffffff" opacity="0.3555736807907047"/>
<circle cx="527.2" cy="96.1" r="4.4" fill="#ffffff" opacity="0.7736904201689256"/>
<circle cx="114.2" cy="402.3" r="3.3" fill="#ffffff" opacity="0.5533621972143719"/>
<circle cx="369.2" cy="519.7" r="3.4" fill="#ffffff" opacity="0.508748018913083"/>
<circle cx="657.0" cy="710.1" r="2.0" fill="#ffffff" opacity="0.6418004787707066"/>
<circle cx="593.5" cy="970.7" r="3.4" fill="#ffffff" opacity="0.2537014303305769"/>
<circle cx="300.2" cy="1015.7" r="4.2" fill="#ffffff" opacity="0.6444478180592759"/>
<circle cx="91.5" cy="1136.5" r="2.8" fill="#ffffff" opacity="0.4493014311368436"/>
<circle cx="355.4" cy="997.7" r="1.9" fill="#ffffff" opacity="0.5714637533819117"/>
<circle cx="199.1" cy="853.7" r="3.2" fill="#ffffff" opacity="0.6527517609504783"/>
<circle cx="349.0" cy="372.4" r="2.2" fill="#ffffff" opacity="0.5658901053573611"/>
<circle cx="65.6" cy="974.2" r="2.8" fill="#ffffff" opacity="0.5095514726336636"/>
<circle cx="673.7" cy="1168.5" r="4.2" fill="#ffffff" opacity="0.36509713275615197"/>
<circle cx="469.3" cy="1088.7" r="2.7" fill="#ffffff" opacity="0.5369086712504803"/>
<circle cx="658.6" cy="718.8" r="2.2" fill="#ffffff" opacity="0.7088777716862116"/>
<circle cx="495.5" cy="611.5" r="3.4" fill="#ffffff" opacity="0.6008784026077356"/>
<circle cx="308.3" cy="149.8" r="3.9" fill="#ffffff" opacity="0.8077820202608106"/>
<circle cx="675.7" cy="618.7" r="4.2" fill="#ffffff" opacity="0.4784227840833567"/>
<circle cx="273.1" cy="678.5" r="4.6" fill="#ffffff" opacity="0.7274887379559125"/>
<circle cx="260.4" cy="689.1" r="3.0" fill="#ffffff" opacity="0.8353730427725231"/>
<circle cx="515.2" cy="325.0" r="4.1" fill="#ffffff" opacity="0.6430296992606312"/>
<circle cx="695.9" cy="333.3" r="2.6" fill="#ffffff" opacity="0.30647278036661163"/>
<circle cx="223.4" cy="488.7" r="2.7" fill="#ffffff" opacity="0.838250262574157"/>
<circle cx="277.2" cy="987.6" r="2.5" fill="#ffffff" opacity="0.2917663614895988"/>
<circle cx="553.6" cy="228.7" r="3.9" fill="#ffffff" opacity="0.5795928055945492"/>
<circle cx="292.9" cy="1035.4" r="4.7" fill="#ffffff" opacity="0.4345981114407006"/>
<circle cx="76.9" cy="1077.9" r="1.6" fill="#ffffff" opacity="0.31309160994165197"/>
<circle cx="531.0" cy="387.4" r="2.5" fill="#ffffff" opacity="0.8155781194600629"/>
<circle cx="124.9" cy="1103.9" r="3.3" fill="#ffffff" opacity="0.6861401490060258"/>
<circle cx="546.2" cy="124.5" r="2.7" fill="#ffffff" opacity="0.2636247654327295"/>
<circle cx="98.1" cy="582.0" r="4.6" fill="#ffffff" opacity="0.8050147443784823"/>
<circle cx="449.5" cy="1201.5" r="2.4" fill="#ffffff" opacity="0.3744108331609392"/>
<circle cx="173.9" cy="884.5" r="1.8" fill="#ffffff" opacity="0.39817591573141864"/>
<circle cx="525.6" cy="513.5" r="2.2" fill="#ffffff" opacity="0.8333078977522949"/>
<circle cx="54.6" cy="192.3" r="1.6" fill="#ffffff" opacity="0.7942556392695892"/>
<circle cx="388.7" cy="193.5" r="3.3" fill="#ffffff" opacity="0.2616699574658726"/>
<circle cx="597.2" cy="752.8" r="3.6" fill="#ffffff" opacity="0.7818787162212725"/>
<g filter="url(#paper)"><rect x="42" y="42" width="666" height="1166" rx="54" ry="54" fill="none" stroke="#1E1B2E" stroke-width="8" opacity="0.95"/>
<rect x="60" y="60" width="630" height="1130" rx="46" ry="46" fill="none" stroke="#4EA8DE" stroke-width="3" opacity="0.35"/>

  <g opacity="0.42">
    <circle cx="375.0" cy="560" r="285" fill="none" stroke="#4EA8DE" stroke-width="4.2" opacity="0.42"/>
    <circle cx="375.0" cy="560" r="233.7" fill="none" stroke="#4EA8DE" stroke-width="2.2" opacity="0.23"/>
    <line x1="642.0" y1="560.0" x2="674.0" y2="560.0" stroke="#4EA8DE" stroke-width="3.2" opacity="0.23" stroke-linecap="round"/><line x1="606.2" y1="693.5" x2="633.9" y2="709.5" stroke="#4EA8DE" stroke-width="3.2" opacity="0.23" stroke-linecap="round"/><line x1="508.5" y1="791.2" x2="524.5" y2="818.9" stroke="#4EA8DE" stroke-width="3.2" opacity="0.23" stroke-linecap="round"/><line x1="375.0" y1="827.0" x2="375.0" y2="859.0" stroke="#4EA8DE" stroke-width="3.2" opacity="0.23" stroke-linecap="round"/><line x1="241.5" y1="791.2" x2="225.5" y2="818.9" stroke="#4EA8DE" stroke-width="3.2" opacity="0.23" stroke-linecap="round"/><line x1="143.8" y1="693.5" x2="116.1" y2="709.5" stroke="#4EA8DE" stroke-width="3.2" opacity="0.23" stroke-linecap="round"/><line x1="108.0" y1="560.0" x2="76.0" y2="560.0" stroke="#4EA8DE" stroke-width="3.2" opacity="0.23" stroke-linecap="round"/><line x1="143.8" y1="426.5" x2="116.1" y2="410.5" stroke="#4EA8DE" stroke-width="3.2" opacity="0.23" stroke-linecap="round"/><line x1="241.5" y1="328.8" x2="225.5" y2="301.1" stroke="#4EA8DE" stroke-width="3.2" opacity="0.23" stroke-linecap="round"/><line x1="375.0" y1="293.0" x2="375.0" y2="261.0" stroke="#4EA8DE" stroke-width="3.2" opacity="0.23" stroke-linecap="round"/><line x1="508.5" y1="328.8" x2="524.5" y2="301.1" stroke="#4EA8DE" stroke-width="3.2" opacity="0.23" stroke-linecap="round"/><line x1="606.2" y1="426.5" x2="633.9" y2="410.5" stroke="#4EA8DE" stroke-width="3.2" opacity="0.23" stroke-linecap="round"/>
    <circle cx="659.9" cy="553.5" r="2.7" fill="#4EA8DE" opacity="0.20"/><circle cx="652.7" cy="624.3" r="3.0" fill="#4EA8DE" opacity="0.44"/><circle cx="617.0" cy="710.5" r="3.2" fill="#4EA8DE" opacity="0.41"/><circle cx="571.2" cy="766.7" r="3.2" fill="#4EA8DE" opacity="0.28"/><circle cx="521.4" cy="804.5" r="3.5" fill="#4EA8DE" opacity="0.26"/><circle cx="451.2" cy="834.6" r="3.6" fill="#4EA8DE" opacity="0.35"/><circle cx="371.5" cy="845.0" r="3.5" fill="#4EA8DE" opacity="0.34"/><circle cx="303.9" cy="836.0" r="3.2" fill="#4EA8DE" opacity="0.40"/><circle cx="240.3" cy="811.2" r="2.8" fill="#4EA8DE" opacity="0.41"/><circle cx="175.4" cy="763.4" r="3.7" fill="#4EA8DE" opacity="0.29"/><circle cx="131.0" cy="707.3" r="3.0" fill="#4EA8DE" opacity="0.45"/><circle cx="98.5" cy="629.1" r="2.9" fill="#4EA8DE" opacity="0.18"/><circle cx="90.0" cy="555.8" r="3.0" fill="#4EA8DE" opacity="0.40"/><circle cx="98.8" cy="489.6" r="3.9" fill="#4EA8DE" opacity="0.25"/><circle cx="128.1" cy="417.6" r="3.6" fill="#4EA8DE" opacity="0.18"/><circle cx="168.0" cy="364.1" r="3.4" fill="#4EA8DE" opacity="0.27"/><circle cx="233.1" cy="312.8" r="3.1" fill="#4EA8DE" opacity="0.39"/><circle cx="293.7" cy="286.9" r="3.3" fill="#4EA8DE" opacity="0.35"/><circle cx="383.0" cy="275.1" r="3.3" fill="#4EA8DE" opacity="0.37"/><circle cx="444.9" cy="283.7" r="3.1" fill="#4EA8DE" opacity="0.18"/><circle cx="518.4" cy="313.7" r="3.6" fill="#4EA8DE" opacity="0.26"/><circle cx="579.9" cy="361.9" r="3.9" fill="#4EA8DE" opacity="0.34"/><circle cx="622.9" cy="419.3" r="3.1" fill="#4EA8DE" opacity="0.37"/><circle cx="650.3" cy="486.3" r="3.7" fill="#4EA8DE" opacity="0.32"/>
  </g>

<g><g transform="translate(50,54)"><path d="M 21.6 126.0 Q 50.4 54.0 99.0 39.6 Q 144.0 28.8 162.0 72.0" fill="none" stroke="#4EA8DE" stroke-width="6" opacity="0.55" stroke-linecap="round"/></g><g transform="translate(700,54) scale(-1,1)"><path d="M 21.6 126.0 Q 50.4 54.0 99.0 39.6 Q 144.0 28.8 162.0 72.0" fill="none" stroke="#4EA8DE" stroke-width="6" opacity="0.55" stroke-linecap="round"/></g><g transform="translate(50,1196) scale(1,-1)"><path d="M 21.6 126.0 Q 50.4 54.0 99.0 39.6 Q 144.0 28.8 162.0 72.0" fill="none" stroke="#4EA8DE" stroke-width="6" opacity="0.55" stroke-linecap="round"/></g><g transform="translate(700,1196) scale(-1,-1)"><path d="M 21.6 126.0 Q 50.4 54.0 99.0 39.6 Q 144.0 28.8 162.0 72.0" fill="none" stroke="#4EA8DE" stroke-width="6" opacity="0.55" stroke-linecap="round"/></g></g></g>
<rect x="42" y="60" width="666" height="92" rx="30" fill="#ffffffcc" stroke="#1E1B2E" stroke-width="4" opacity="0.95"/>
<text x="375.0" y="122" font-family="ui-sans-serif, system-ui, -apple-system, Segoe UI, Roboto, Helvetica, Arial" font-size="30" font-weight="800" text-anchor="middle" fill="#1E1B2E" opacity="0.95" letter-spacing="1">MINOR ARCANA • CUPS</text>
<rect x="76" y="170" width="598" height="760" rx="52" fill="#ffffff" opacity="0.15"/>
<g><path d="M 72 230.0 Q 127.0 200.4 182.0 230.0 Q 237.0 259.6 292.0 230.0 Q 347.0 200.4 402.0 230.0 Q 457.0 259.6 512.0 230.0 Q 567.0 200.4 622.0 230.0 Q 677.0 259.6 732.0 230.0 " fill="none" stroke="#4EA8DE" stroke-width="3" opacity="0.10"/><path d="M 72 310.0 Q 127.0 285.1 182.0 310.0 Q 237.0 334.9 292.0 310.0 Q 347.0 285.1 402.0 310.0 Q 457.0 334.9 512.0 310.0 Q 567.0 285.1 622.0 310.0 Q 677.0 334.9 732.0 310.0 " fill="none" stroke="#4EA8DE" stroke-width="3" opacity="0.10"/><path d="M 72 390.0 Q 127.0 369.9 182.0 390.0 Q 237.0 410.1 292.0 390.0 Q 347.0 369.9 402.0 390.0 Q 457.0 410.1 512.0 390.0 Q 567.0 369.9 622.0 390.0 Q 677.0 410.1 732.0 390.0 " fill="none" stroke="#4EA8DE" stroke-width="3" opacity="0.10"/><path d="M 72 470.0 Q 127.0 443.6 182.0 470.0 Q 237.0 496.4 292.0 470.0 Q 347.0 443.6 402.0 470.0 Q 457.0 496.4 512.0 470.0 Q 567.0 443.6 622.0 470.0 Q 677.0 496.4 732.0 470.0 " fill="none" stroke="#4EA8DE" stroke-width="3" opacity="0.10"/><path d="M 72 550.0 Q 127.0 531.7 182.0 550.0 Q 237.0 568.3 292.0 550.0 Q 347.0 531.7 402.0 550.0 Q 457.0 568.3 512.0 550.0 Q 567.0 531.7 622.0 550.0 Q 677.0 568.3 732.0 550.0 " fill="none" stroke="#4EA8DE" stroke-width="3" opacity="0.10"/><path d="M 72 630.0 Q 127.0 604.3 182.0 630.0 Q 237.0 655.7 292.0 630.0 Q 347.0 604.3 402.0 630.0 Q 457.0 655.7 512.0 630.0 Q 567.0 604.3 622.0 630.0 Q 677.0 655.7 732.0 630.0 " fill="none" stroke="#4EA8DE" stroke-width="3" opacity="0.10"/><path d="M 72 710.0 Q 127.0 680.2 182.0 710.0 Q 237.0 739.8 292.0 710.0 Q 347.0 680.2 402.0 710.0 Q 457.0 739.8 512.0 710.0 Q 567.0 680.2 622.0 710.0 Q 677.0 739.8 732.0 710.0 " fill="none" stroke="#4EA8DE" stroke-width="3" opacity="0.10"/><path d="M 72 790.0 Q 127.0 760.3 182.0 790.0 Q 237.0 819.7 292.0 790.0 Q 347.0 760.3 402.0 790.0 Q 457.0 819.7 512.0 790.0 Q 567.0 760.3 622.0 790.0 Q 677.0 819.7 732.0 790.0 " fill="none" stroke="#4EA8DE" stroke-width="3" opacity="0.10"/><path d="M 72 870.0 Q 127.0 848.5 182.0 870.0 Q 237.0 891.5 292.0 870.0 Q 347.0 848.5 402.0 870.0 Q 457.0 891.5 512.0 870.0 Q 567.0 848.5 622.0 870.0 Q 677.0 891.5 732.0 870.0 " fill="none" stroke="#4EA8DE" stroke-width="3" opacity="0.10"/></g><g><g opacity="0.55">
        <g>
          <path d="M 332.6 377.8
                   L 399.8 377.8
                   L 391.9 411.4
                   Q 366.2 431.0 340.4 411.4
                   Z" fill="#ffffff" stroke="#1E1B2E" stroke-width="7"/>
          <path d="M 399.2 387.6
                   Q 419.4 400.2 399.2 412.8" fill="none" stroke="#1E1B2E" stroke-width="10" stroke-linecap="round" opacity="0.9"/>
          <rect x="352.7" y="431.0" width="26.9" height="16.8" rx="5.6" fill="#4EA8DE" opacity="0.45" stroke="#1E1B2E" stroke-width="6"/>
          <circle cx="366.17349751956687" cy="370.8" r="6.2" fill="#4EA8DE" opacity="0.55"/>
          <path d="M 353.6 370.8 Q 366.17349751956687 359.6 378.8 370.8" fill="none" stroke="#4EA8DE" stroke-width="7" opacity="0.55" stroke-linecap="round"/>
        </g>
        </g><g opacity="0.55">
        <g>
          <path d="M 491.3 427.5
                   L 558.5 427.5
                   L 550.7 461.1
                   Q 524.9 480.7 499.2 461.1
                   Z" fill="#ffffff" stroke="#1E1B2E" stroke-width="7"/>
          <path d="M 558.0 437.3
                   Q 578.1 449.9 558.0 462.5" fill="none" stroke="#1E1B2E" stroke-width="10" stroke-linecap="round" opacity="0.9"/>
          <rect x="511.5" y="480.7" width="26.9" height="16.8" rx="5.6" fill="#4EA8DE" opacity="0.45" stroke="#1E1B2E" stroke-width="6"/>
          <circle cx="524.9105357279208" cy="420.5" r="6.2" fill="#4EA8DE" opacity="0.55"/>
          <path d="M 512.3 420.5 Q 524.9105357279208 409.3 537.5 420.5" fill="none" stroke="#4EA8DE" stroke-width="7" opacity="0.55" stroke-linecap="round"/>
        </g>
        </g><g opacity="0.55">
        <g>
          <path d="M 589.0 593.0
                   L 656.2 593.0
                   L 648.4 626.6
                   Q 622.6 646.2 596.8 626.6
                   Z" fill="#ffffff" stroke="#1E1B2E" stroke-width="7"/>
          <path d="M 655.6 602.8
                   Q 675.8 615.4 655.6 628.0" fill="none" stroke="#1E1B2E" stroke-width="10" stroke-linecap="round" opacity="0.9"/>
          <rect x="609.2" y="646.2" width="26.9" height="16.8" rx="5.6" fill="#4EA8DE" opacity="0.45" stroke="#1E1B2E" stroke-width="6"/>
          <circle cx="622.5961735479104" cy="586.0" r="6.2" fill="#4EA8DE" opacity="0.55"/>
          <path d="M 610.0 586.0 Q 622.5961735479104 574.8 635.2 586.0" fill="none" stroke="#4EA8DE" stroke-width="7" opacity="0.55" stroke-linecap="round"/>
        </g>
        </g><g opacity="0.55">
        <g>
          <path d="M 551.9 762.5
                   L 619.1 762.5
                   L 611.3 796.1
                   Q 585.5 815.7 559.7 796.1
                   Z" fill="#ffffff" stroke="#1E1B2E" stroke-width="7"/>
          <path d="M 618.5 772.3
                   Q 638.7 784.9 618.5 797.5" fill="none" stroke="#1E1B2E" stroke-width="10" stroke-linecap="round" opacity="0.9"/>
          <rect x="572.1" y="815.7" width="26.9" height="16.8" rx="5.6" fill="#4EA8DE" opacity="0.45" stroke="#1E1B2E" stroke-width="6"/>
          <circle cx="585.5077535556997" cy="755.5" r="6.2" fill="#4EA8DE" opacity="0.55"/>
          <path d="M 572.9 755.5 Q 585.5077535556997 744.3 598.1 755.5" fill="none" stroke="#4EA8DE" stroke-width="7" opacity="0.55" stroke-linecap="round"/>
        </g>
        </g><g opacity="0.55">
        <g>
          <path d="M 422.9 863.9
                   L 490.1 863.9
                   L 482.3 897.5
                   Q 456.5 917.1 430.7 897.5
                   Z" fill="#ffffff" stroke="#1E1B2E" stroke-width="7"/>
          <path d="M 489.5 873.7
                   Q 509.7 886.3 489.5 898.9" fill="none" stroke="#1E1B2E" stroke-width="10" stroke-linecap="round" opacity="0.9"/>
          <rect x="443.1" y="917.1" width="26.9" height="16.8" rx="5.6" fill="#4EA8DE" opacity="0.45" stroke="#1E1B2E" stroke-width="6"/>
          <circle cx="456.4933316929823" cy="856.9" r="6.2" fill="#4EA8DE" opacity="0.55"/>
          <path d="M 443.9 856.9 Q 456.4933316929823 845.7 469.1 856.9" fill="none" stroke="#4EA8DE" stroke-width="7" opacity="0.55" stroke-linecap="round"/>
        </g>
        </g><g opacity="0.55">
        <g>
          <path d="M 241.7 856.9
                   L 308.9 856.9
                   L 301.1 890.5
                   Q 275.3 910.1 249.6 890.5
                   Z" fill="#ffffff" stroke="#1E1B2E" stroke-width="7"/>
          <path d="M 308.4 866.7
                   Q 328.5 879.3 308.4 891.9" fill="none" stroke="#1E1B2E" stroke-width="10" stroke-linecap="round" opacity="0.9"/>
          <rect x="261.9" y="910.1" width="26.9" height="16.8" rx="5.6" fill="#4EA8DE" opacity="0.45" stroke="#1E1B2E" stroke-width="6"/>
          <circle cx="275.32821435161384" cy="849.9" r="6.2" fill="#4EA8DE" opacity="0.55"/>
          <path d="M 262.7 849.9 Q 275.32821435161384 838.7 287.9 849.9" fill="none" stroke="#4EA8DE" stroke-width="7" opacity="0.55" stroke-linecap="round"/>
        </g>
        </g><g opacity="0.55">
        <g>
          <path d="M 122.7 748.7
                   L 189.9 748.7
                   L 182.0 782.3
                   Q 156.3 801.9 130.5 782.3
                   Z" fill="#ffffff" stroke="#1E1B2E" stroke-width="7"/>
          <path d="M 189.3 758.5
                   Q 209.5 771.1 189.3 783.7" fill="none" stroke="#1E1B2E" stroke-width="10" stroke-linecap="round" opacity="0.9"/>
          <rect x="142.8" y="801.9" width="26.9" height="16.8" rx="5.6" fill="#4EA8DE" opacity="0.45" stroke="#1E1B2E" stroke-width="6"/>
          <circle cx="156.27740998384073" cy="741.7" r="6.2" fill="#4EA8DE" opacity="0.55"/>
          <path d="M 143.7 741.7 Q 156.27740998384073 730.5 168.9 741.7" fill="none" stroke="#4EA8DE" stroke-width="7" opacity="0.55" stroke-linecap="round"/>
        </g>
        </g><g opacity="0.55">
        <g>
          <path d="M 97.5 572.7
                   L 164.7 572.7
                   L 156.9 606.3
                   Q 131.1 625.9 105.3 606.3
                   Z" fill="#ffffff" stroke="#1E1B2E" stroke-width="7"/>
          <path d="M 164.1 582.5
                   Q 184.3 595.1 164.1 607.7" fill="none" stroke="#1E1B2E" stroke-width="10" stroke-linecap="round" opacity="0.9"/>
          <rect x="117.7" y="625.9" width="26.9" height="16.8" rx="5.6" fill="#4EA8DE" opacity="0.45" stroke="#1E1B2E" stroke-width="6"/>
          <circle cx="131.101409512637" cy="565.7" r="6.2" fill="#4EA8DE" opacity="0.55"/>
          <path d="M 118.5 565.7 Q 131.101409512637 554.5 143.7 565.7" fill="none" stroke="#4EA8DE" stroke-width="7" opacity="0.55" stroke-linecap="round"/>
        </g>
        </g><g opacity="0.55">
        <g>
          <path d="M 195.5 424.6
                   L 262.7 424.6
                   L 254.8 458.2
                   Q 229.1 477.8 203.3 458.2
                   Z" fill="#ffffff" stroke="#1E1B2E" stroke-width="7"/>
          <path d="M 262.1 434.4
                   Q 282.3 447.0 262.1 459.6" fill="none" stroke="#1E1B2E" stroke-width="10" stroke-linecap="round" opacity="0.9"/>
          <rect x="215.6" y="477.8" width="26.9" height="16.8" rx="5.6" fill="#4EA8DE" opacity="0.45" stroke="#1E1B2E" stroke-width="6"/>
          <circle cx="229.07337381627852" cy="417.6" r="6.2" fill="#4EA8DE" opacity="0.55"/>
          <path d="M 216.5 417.6 Q 229.07337381627852 406.4 241.7 417.6" fill="none" stroke="#4EA8DE" stroke-width="7" opacity="0.55" stroke-linecap="round"/>
        </g>
        </g></g><circle cx="375.0" cy="520" r="260" fill="#4EA8DE" opacity="0.10"/>
        <g filter="url(#glow)">
          <circle cx="375.0" cy="630" r="170" fill="#ffffff" opacity="0.40" stroke="#4EA8DE" stroke-width="7"/>
          
        <g>
          <path d="M 288.6 572.4
                   L 461.4 572.4
                   L 441.2 658.8
                   Q 375.0 709.2 308.8 658.8
                   Z" fill="#ffffff" stroke="#1E1B2E" stroke-width="7"/>
          <path d="M 460.0 597.6
                   Q 511.8 630.0 460.0 662.4" fill="none" stroke="#1E1B2E" stroke-width="10" stroke-linecap="round" opacity="0.9"/>
          <rect x="340.4" y="709.2" width="69.1" height="43.2" rx="14.4" fill="#4EA8DE" opacity="0.45" stroke="#1E1B2E" stroke-width="6"/>
          <circle cx="375.0" cy="554.4" r="15.8" fill="#4EA8DE" opacity="0.55"/>
          <path d="M 342.6 554.4 Q 375.0 525.6 407.4 554.4" fill="none" stroke="#4EA8DE" stroke-width="7" opacity="0.55" stroke-linecap="round"/>
        </g>
        
        </g>
        <line x1="582.7" y1="609.1" x2="198.1" y2="534.7" stroke="#ffffff" stroke-width="2.2" opacity="0.19"/>
<line x1="198.1" y1="534.7" x2="530.4" y2="652.8" stroke="#ffffff" stroke-width="2.2" opacity="0.10"/>
<line x1="530.4" y1="652.8" x2="523.2" y2="391.4" stroke="#ffffff" stroke-width="2.2" opacity="0.11"/>
<line x1="523.2" y1="391.4" x2="170.0" y2="576.7" stroke="#ffffff" stroke-width="2.2" opacity="0.08"/>
<line x1="170.0" y1="576.7" x2="384.3" y2="507.2" stroke="#ffffff" stroke-width="2.2" opacity="0.15"/>
<line x1="384.3" y1="507.2" x2="460.8" y2="475.9" stroke="#ffffff" stroke-width="2.2" opacity="0.13"/>
<circle cx="181.0" cy="653.6" r="1.9" fill="#ffffff" opacity="0.7333623289355546"/>
<circle cx="582.7" cy="609.1" r="2.6" fill="#ffffff" opacity="0.4594764202901993"/>
<circle cx="295.2" cy="296.0" r="1.8" fill="#ffffff" opacity="0.7674643503130893"/>
<circle cx="170.0" cy="576.7" r="2.2" fill="#ffffff" opacity="0.48051878457700803"/>
<circle cx="384.3" cy="507.2" r="3.2" fill="#ffffff" opacity="0.279657072415752"/>
<circle cx="198.1" cy="534.7" r="4.2" fill="#ffffff" opacity="0.8340981329297319"/>
<circle cx="581.4" cy="664.6" r="4.1" fill="#ffffff" opacity="0.5618390966188611"/>
<circle cx="523.2" cy="391.4" r="2.3" fill="#ffffff" opacity="0.8253044209186033"/>
<circle cx="620.6" cy="311.6" r="1.9" fill="#ffffff" opacity="0.736950095076348"/>
<circle cx="439.8" cy="473.4" r="4.6" fill="#ffffff" opacity="0.4142297352086085"/>
<circle cx="384.0" cy="353.2" r="3.2" fill="#ffffff" opacity="0.5577662343954595"/>
<circle cx="506.7" cy="567.6" r="3.8" fill="#ffffff" opacity="0.557244731556334"/>
<circle cx="530.4" cy="652.8" r="1.8" fill="#ffffff" opacity="0.7452138381527375"/>
<circle cx="460.8" cy="475.9" r="3.7" fill="#ffffff" opacity="0.7754157787788938"/>
<rect x="42" y="1030" width="666" height="160" rx="30" fill="#ffffffd9" stroke="#1E1B2E" stroke-width="4" opacity="0.95"/>
<text x="375.0" y="1104" font-family="ui-sans-serif, system-ui, -apple-system, Segoe UI, Roboto, Helvetica, Arial" font-size="46" font-weight="900" text-anchor="middle" fill="#1E1B2E" opacity="0.98">9 of Cups</text>
<text x="375.0" y="1152" font-family="ui-sans-serif, system-ui, -apple-system, Segoe UI, Roboto, Helvetica, Arial" font-size="28" font-weight="700" text-anchor="middle" fill="#1E1B2E" opacity="0.7">Resilience</text>

    <g opacity="0.55">
      <circle cx="127" cy="1176" r="14" fill="#4EA8DE"/>
      <circle cx="623" cy="1176" r="14" fill="#4EA8DE"/>
      <path d="M 162 1176 L 588 1176" stroke="#4EA8DE" stroke-width="4" opacity="0.45" stroke-linecap="round"/>
    </g>
    
</svg>
