<svg xmlns="http://www.w3.org/2000/svg" width="750" height="1250" viewBox="0 0 750 1250">
  <title>10 of Cups</title>


  <defs>
    <linearGradient id="g" x1="0" y1="0" x2="1" y2="1">
      <stop offset="0%" stop-color="#FFF6E5"/>
      <stop offset="100%" stop-color="#E5FFF6"/>
    </linearGradient>

    <!-- paper texture -->
    <filter id="paper" x="-20%" y="-20%" width="140%" height="140%">
      <feTurbulence type="fractalNoise" baseFrequency="0.017" numOctaves="3" seed="8902" result="noise"/>
      <feColorMatrix in="noise" type="matrix"
        values="1 0 0 0 0
                0 1 0 0 0
                0 0 1 0 0
                0 0 0 0.25 0" result="noiseAlpha"/>
      <feComposite in="noiseAlpha" in2="SourceGraphic" operator="over"/>
    </filter>

    <!-- soft glow -->
    <filter id="glow" x="-30%" y="-30%" width="160%" height="160%">
      <feGaussianBlur stdDeviation="10" result="blur"/>
      <feColorMatrix type="matrix" values="
        1 0 0 0 0
        0 1 0 0 0
        0 0 1 0 0
        0 0 0 0.32 0" result="blurAlpha"/>
      <feMerge>
        <feMergeNode in="blurAlpha"/>
        <feMergeNode in="SourceGraphic"/>
      </feMerge>
    </filter>
  </defs>

<rect x="0" y="0" width="750" height="1250" rx="58" ry="58" fill="url(#g)" stroke="none" stroke-width="0" opacity="1"/>
<rect x="0" y="0" width="750" height="1250" fill="#ffffff" opacity="0.08"/>
<line x1="551.6" y1="493.9" x2="102.3" y2="396.4" stroke="#ffffff" stroke-width="2.2" opacity="0.12"/>
<line x1="102.3" y1="396.4" x2="280.2" y2="221.3" stroke="#ffffff" stroke-width="2.2" opacity="0.09"/>
<line x1="280.2" y1="221.3" x2="272.8" y2="242.2" stroke="#ffffff" stroke-width="2.2" opacity="0.11"/>
<line x1="272.8" y1="242.2" x2="676.0" y2="1192.9" stroke="#ffffff" stroke-width="2.2" opacity="0.09"/>
<line x1="676.0" y1="1192.9" x2="450.1" y2="176.8" stroke="#ffffff" stroke-width="2.2" opacity="0.11"/>
<line x1="450.1" y1="176.8" x2="293.9" y2="900.6" stroke="#ffffff" stroke-width="2.2" opacity="0.15"/>
<line x1="293.9" y1="900.6" x2="368.0" y2="371.1" stroke="#ffffff" stroke-width="2.2" opacity="0.17"/>
<line x1="368.0" y1="371.1" x2="148.9" y2="696.4" stroke="#ffffff" stroke-width="2.2" opacity="0.12"/>
<line x1="148.9" y1="696.4" x2="607.1" y2="1204.7" stroke="#ffffff" stroke-width="2.2" opacity="0.12"/>
<line x1="607.1" y1="1204.7" x2="657.0" y2="894.5" stroke="#ffffff" stroke-width="2.2" opacity="0.15"/>
<line x1="657.0" y1="894.5" x2="625.1" y2="559.9" stroke="#ffffff" stroke-width="2.2" opacity="0.15"/>
<line x1="625.1" y1="559.9" x2="336.9" y2="189.2" stroke="#ffffff" stroke-width="2.2" opacity="0.21"/>
<line x1="336.9" y1="189.2" x2="92.8" y2="764.3" stroke="#ffffff" stroke-width="2.2" opacity="0.08"/>
<line x1="92.8" y1="764.3" x2="671.8" y2="572.1" stroke="#ffffff" stroke-width="2.2" opacity="0.12"/>
<line x1="671.8" y1="572.1" x2="601.0" y2="1134.7" stroke="#ffffff" stroke-width="2.2" opacity="0.15"/>
<line x1="601.0" y1="1134.7" x2="320.6" y2="1203.7" stroke="#ffffff" stroke-width="2.2" opacity="0.20"/>
<line x1="320.6" y1="1203.7" x2="697.1" y2="962.7" stroke="#ffffff" stroke-width="2.2" opacity="0.18"/>
<line x1="697.1" y1="962.7" x2="327.4" y2="189.3" stroke="#ffffff" stroke-width="2.2" opacity="0.13"/>
<circle cx="614.9" cy="174.4" r="2.6" fill="#ffffff" opacity="0.5876711150594729"/>
<circle cx="470.5" cy="148.7" r="2.5" fill="#ffffff" opacity="0.4702431395398461"/>
<circle cx="451.2" cy="245.5" r="3.6" fill="#ffffff" opacity="0.33314245560272604"/>
<circle cx="611.2" cy="549.1" r="2.7" fill="#ffffff" opacity="0.47894432280129884"/>
<circle cx="505.1" cy="106.7" r="3.6" fill="#ffffff" opacity="0.7272085558503083"/>
<circle cx="64.7" cy="856.4" r="3.7" fill="#ffffff" opacity="0.4395641428256051"/>
<circle cx="676.0" cy="1192.9" r="3.1" fill="#ffffff" opacity="0.6092605598264222"/>
<circle cx="241.8" cy="199.4" r="2.5" fill="#ffffff" opacity="0.29949487023606697"/>
<circle cx="320.6" cy="1203.7" r="3.3" fill="#ffffff" opacity="0.6996619508018229"/>
<circle cx="625.1" cy="559.9" r="3.8" fill="#ffffff" opacity="0.6301237031840143"/>
<circle cx="674.4" cy="679.7" r="2.2" fill="#ffffff" opacity="0.46013769537227867"/>
<circle cx="164.3" cy="293.5" r="2.6" fill="#ffffff" opacity="0.3660556522586263"/>
<circle cx="657.0" cy="894.5" r="3.4" fill="#ffffff" opacity="0.412674687845111"/>
<circle cx="662.7" cy="87.4" r="4.8" fill="#ffffff" opacity="0.7966489585250371"/>
<circle cx="697.1" cy="962.7" r="2.0" fill="#ffffff" opacity="0.5306523713259308"/>
<circle cx="686.7" cy="491.5" r="4.3" fill="#ffffff" opacity="0.4377125659775991"/>
<circle cx="538.5" cy="619.2" r="2.5" fill="#ffffff" opacity="0.40631756732267454"/>
<circle cx="336.9" cy="189.2" r="2.9" fill="#ffffff" opacity="0.5778305916657775"/>
<circle cx="451.6" cy="355.3" r="3.3" fill="#ffffff" opacity="0.494922760949014"/>
<circle cx="280.2" cy="221.3" r="2.4" fill="#ffffff" opacity="0.28476515347216086"/>
<circle cx="222.8" cy="1134.7" r="3.5" fill="#ffffff" opacity="0.7922510838974749"/>
<circle cx="368.0" cy="371.1" r="4.2" fill="#ffffff" opacity="0.5320366526339292"/>
<circle cx="327.4" cy="189.3" r="3.4" fill="#ffffff" opacity="0.7684281359264005"/>
<circle cx="399.3" cy="822.8" r="2.2" fill="#ffffff" opacity="0.35474633396567823"/>
<circle cx="671.8" cy="572.1" r="2.4" fill="#ffffff" opacity="0.4895446082934778"/>
<circle cx="695.8" cy="547.6" r="2.2" fill="#ffffff" opacity="0.28351433891856037"/>
<circle cx="678.9" cy="88.5" r="3.5" fill="#ffffff" opacity="0.47701126808070454"/>
<circle cx="602.5" cy="924.5" r="3.7" fill="#ffffff" opacity="0.47653889433723934"/>
<circle cx="272.8" cy="242.2" r="4.5" fill="#ffffff" opacity="0.3882375896930482"/>
<circle cx="92.8" cy="764.3" r="4.8" fill="#ffffff" opacity="0.8259127220324496"/>
<circle cx="459.1" cy="597.7" r="1.9" fill="#ffffff" opacity="0.6812525232854558"/>
<circle cx="450.1" cy="176.8" r="1.7" fill="#ffffff" opacity="0.3411286255176609"/>
<circle cx="551.6" cy="493.9" r="4.2" fill="#ffffff" opacity="0.3360005322383845"/>
<circle cx="102.3" cy="396.4" r="2.5" fill="#ffffff" opacity="0.26415684063844885"/>
<circle cx="389.5" cy="940.8" r="3.9" fill="#ffffff" opacity="0.7421610197544413"/>
<circle cx="104.9" cy="1114.5" r="4.4" fill="#ffffff" opacity="0.6849603956645336"/>
<circle cx="341.6" cy="1015.3" r="4.7" fill="#ffffff" opacity="0.38711716700825394"/>
<circle cx="158.2" cy="1011.0" r="4.1" fill="#ffffff" opacity="0.7084566040495601"/>
<circle cx="587.3" cy="1079.7" r="3.6" fill="#ffffff" opacity="0.5423231074400685"/>
<circle cx="323.0" cy="150.8" r="2.9" fill="#ffffff" opacity="0.47275171100576974"/>
<circle cx="364.3" cy="904.1" r="4.4" fill="#ffffff" opacity="0.465115543003435"/>
<circle cx="284.9" cy="310.2" r="2.2" fill="#ffffff" opacity="0.5030183555207649"/>
<circle cx="186.0" cy="753.4" r="1.9" fill="#ffffff" opacity="0.5168456308431273"/>
<circle cx="247.7" cy="505.8" r="4.1" fill="#ffffff" opacity="0.6943121875626166"/>
<circle cx="293.9" cy="900.6" r="2.4" fill="#ffffff" opacity="0.389774922345505"/>
<circle cx="103.8" cy="719.4" r="2.6" fill="#ffffff" opacity="0.45832077412058503"/>
<circle cx="379.9" cy="120.9" r="2.6" fill="#ffffff" opacity="0.489816315102073"/>
<circle cx="148.9" cy="696.4" r="3.9" fill="#ffffff" opacity="0.7640787382179826"/>
<circle cx="601.0" cy="1134.7" r="2.0" fill="#ffffff" opacity="0.44986915876690614"/>
<circle cx="607.1" cy="1204.7" r="3.3" fill="#ffffff" opacity="0.5375111252434168"/>
<g filter="url(#paper)"><rect x="42" y="42" width="666" height="1166" rx="54" ry="54" fill="none" stroke="#1E1B2E" stroke-width="8" opacity="0.95"/>
<rect x="60" y="60" width="630" height="1130" rx="46" ry="46" fill="none" stroke="#4EA8DE" stroke-width="3" opacity="0.35"/>

  <g opacity="0.42">
    <circle cx="375.0" cy="560" r="285" fill="none" stroke="#4EA8DE" stroke-width="4.2" opacity="0.42"/>
    <circle cx="375.0" cy="560" r="233.7" fill="none" stroke="#4EA8DE" stroke-width="2.2" opacity="0.23"/>
    <line x1="642.0" y1="560.0" x2="674.0" y2="560.0" stroke="#4EA8DE" stroke-width="3.2" opacity="0.23" stroke-linecap="round"/><line x1="606.2" y1="693.5" x2="633.9" y2="709.5" stroke="#4EA8DE" stroke-width="3.2" opacity="0.23" stroke-linecap="round"/><line x1="508.5" y1="791.2" x2="524.5" y2="818.9" stroke="#4EA8DE" stroke-width="3.2" opacity="0.23" stroke-linecap="round"/><line x1="375.0" y1="827.0" x2="375.0" y2="859.0" stroke="#4EA8DE" stroke-width="3.2" opacity="0.23" stroke-linecap="round"/><line x1="241.5" y1="791.2" x2="225.5" y2="818.9" stroke="#4EA8DE" stroke-width="3.2" opacity="0.23" stroke-linecap="round"/><line x1="143.8" y1="693.5" x2="116.1" y2="709.5" stroke="#4EA8DE" stroke-width="3.2" opacity="0.23" stroke-linecap="round"/><line x1="108.0" y1="560.0" x2="76.0" y2="560.0" stroke="#4EA8DE" stroke-width="3.2" opacity="0.23" stroke-linecap="round"/><line x1="143.8" y1="426.5" x2="116.1" y2="410.5" stroke="#4EA8DE" stroke-width="3.2" opacity="0.23" stroke-linecap="round"/><line x1="241.5" y1="328.8" x2="225.5" y2="301.1" stroke="#4EA8DE" stroke-width="3.2" opacity="0.23" stroke-linecap="round"/><line x1="375.0" y1="293.0" x2="375.0" y2="261.0" stroke="#4EA8DE" stroke-width="3.2" opacity="0.23" stroke-linecap="round"/><line x1="508.5" y1="328.8" x2="524.5" y2="301.1" stroke="#4EA8DE" stroke-width="3.2" opacity="0.23" stroke-linecap="round"/><line x1="606.2" y1="426.5" x2="633.9" y2="410.5" stroke="#4EA8DE" stroke-width="3.2" opacity="0.23" stroke-linecap="round"/>
    <circle cx="659.8" cy="550.3" r="3.5" fill="#4EA8DE" opacity="0.38"/><circle cx="650.0" cy="634.7" r="2.8" fill="#4EA8DE" opacity="0.20"/><circle cx="622.1" cy="702.1" r="3.4" fill="#4EA8DE" opacity="0.44"/><circle cx="582.3" cy="755.6" r="3.2" fill="#4EA8DE" opacity="0.32"/><circle cx="525.7" cy="801.9" r="3.4" fill="#4EA8DE" opacity="0.19"/><circle cx="451.9" cy="834.4" r="3.0" fill="#4EA8DE" opacity="0.31"/><circle cx="380.6" cy="844.9" r="3.9" fill="#4EA8DE" opacity="0.29"/><circle cx="300.2" cy="835.0" r="3.9" fill="#4EA8DE" opacity="0.21"/><circle cx="238.2" cy="810.0" r="2.8" fill="#4EA8DE" opacity="0.35"/><circle cx="176.0" cy="764.1" r="2.8" fill="#4EA8DE" opacity="0.40"/><circle cx="126.8" cy="700.1" r="4.0" fill="#4EA8DE" opacity="0.18"/><circle cx="101.4" cy="639.8" r="3.3" fill="#4EA8DE" opacity="0.32"/><circle cx="90.0" cy="563.1" r="3.9" fill="#4EA8DE" opacity="0.32"/><circle cx="99.0" cy="488.8" r="3.9" fill="#4EA8DE" opacity="0.39"/><circle cx="130.6" cy="413.4" r="2.8" fill="#4EA8DE" opacity="0.41"/><circle cx="175.6" cy="356.4" r="3.9" fill="#4EA8DE" opacity="0.28"/><circle cx="232.3" cy="313.3" r="3.6" fill="#4EA8DE" opacity="0.38"/><circle cx="299.3" cy="285.2" r="3.9" fill="#4EA8DE" opacity="0.18"/><circle cx="383.1" cy="275.1" r="3.9" fill="#4EA8DE" opacity="0.34"/><circle cx="443.8" cy="283.4" r="3.6" fill="#4EA8DE" opacity="0.20"/><circle cx="518.9" cy="314.0" r="3.7" fill="#4EA8DE" opacity="0.39"/><circle cx="575.6" cy="357.5" r="3.4" fill="#4EA8DE" opacity="0.34"/><circle cx="623.9" cy="421.2" r="2.7" fill="#4EA8DE" opacity="0.44"/><circle cx="650.4" cy="486.5" r="3.4" fill="#4EA8DE" opacity="0.31"/>
  </g>

<g><g transform="translate(50,54)"><path d="M 18.0 140.4 C 39.6 63.0, 99.0 28.8, 154.8 46.8 C 126.0 86.4, 72.0 111.6, 39.6 129.6" fill="none" stroke="#4EA8DE" stroke-width="6" opacity="0.55" stroke-linecap="round"/></g><g transform="translate(700,54) scale(-1,1)"><path d="M 18.0 140.4 C 39.6 63.0, 99.0 28.8, 154.8 46.8 C 126.0 86.4, 72.0 111.6, 39.6 129.6" fill="none" stroke="#4EA8DE" stroke-width="6" opacity="0.55" stroke-linecap="round"/></g><g transform="translate(50,1196) scale(1,-1)"><path d="M 18.0 140.4 C 39.6 63.0, 99.0 28.8, 154.8 46.8 C 126.0 86.4, 72.0 111.6, 39.6 129.6" fill="none" stroke="#4EA8DE" stroke-width="6" opacity="0.55" stroke-linecap="round"/></g><g transform="translate(700,1196) scale(-1,-1)"><path d="M 18.0 140.4 C 39.6 63.0, 99.0 28.8, 154.8 46.8 C 126.0 86.4, 72.0 111.6, 39.6 129.6" fill="none" stroke="#4EA8DE" stroke-width="6" opacity="0.55" stroke-linecap="round"/></g></g></g>
<rect x="42" y="60" width="666" height="92" rx="30" fill="#ffffffcc" stroke="#1E1B2E" stroke-width="4" opacity="0.95"/>
<text x="375.0" y="122" font-family="ui-sans-serif, system-ui, -apple-system, Segoe UI, Roboto, Helvetica, Arial" font-size="30" font-weight="800" text-anchor="middle" fill="#1E1B2E" opacity="0.95" letter-spacing="1">MINOR ARCANA • CUPS</text>
<rect x="76" y="170" width="598" height="760" rx="52" fill="#ffffff" opacity="0.15"/>
<g><path d="M 72 230.0 Q 127.0 198.4 182.0 230.0 Q 237.0 261.6 292.0 230.0 Q 347.0 198.4 402.0 230.0 Q 457.0 261.6 512.0 230.0 Q 567.0 198.4 622.0 230.0 Q 677.0 261.6 732.0 230.0 " fill="none" stroke="#4EA8DE" stroke-width="3" opacity="0.10"/><path d="M 72 310.0 Q 127.0 279.2 182.0 310.0 Q 237.0 340.8 292.0 310.0 Q 347.0 279.2 402.0 310.0 Q 457.0 340.8 512.0 310.0 Q 567.0 279.2 622.0 310.0 Q 677.0 340.8 732.0 310.0 " fill="none" stroke="#4EA8DE" stroke-width="3" opacity="0.10"/><path d="M 72 390.0 Q 127.0 368.0 182.0 390.0 Q 237.0 412.0 292.0 390.0 Q 347.0 368.0 402.0 390.0 Q 457.0 412.0 512.0 390.0 Q 567.0 368.0 622.0 390.0 Q 677.0 412.0 732.0 390.0 " fill="none" stroke="#4EA8DE" stroke-width="3" opacity="0.10"/><path d="M 72 470.0 Q 127.0 448.3 182.0 470.0 Q 237.0 491.7 292.0 470.0 Q 347.0 448.3 402.0 470.0 Q 457.0 491.7 512.0 470.0 Q 567.0 448.3 622.0 470.0 Q 677.0 491.7 732.0 470.0 " fill="none" stroke="#4EA8DE" stroke-width="3" opacity="0.10"/><path d="M 72 550.0 Q 127.0 524.3 182.0 550.0 Q 237.0 575.7 292.0 550.0 Q 347.0 524.3 402.0 550.0 Q 457.0 575.7 512.0 550.0 Q 567.0 524.3 622.0 550.0 Q 677.0 575.7 732.0 550.0 " fill="none" stroke="#4EA8DE" stroke-width="3" opacity="0.10"/><path d="M 72 630.0 Q 127.0 599.7 182.0 630.0 Q 237.0 660.3 292.0 630.0 Q 347.0 599.7 402.0 630.0 Q 457.0 660.3 512.0 630.0 Q 567.0 599.7 622.0 630.0 Q 677.0 660.3 732.0 630.0 " fill="none" stroke="#4EA8DE" stroke-width="3" opacity="0.10"/><path d="M 72 710.0 Q 127.0 684.2 182.0 710.0 Q 237.0 735.8 292.0 710.0 Q 347.0 684.2 402.0 710.0 Q 457.0 735.8 512.0 710.0 Q 567.0 684.2 622.0 710.0 Q 677.0 735.8 732.0 710.0 " fill="none" stroke="#4EA8DE" stroke-width="3" opacity="0.10"/><path d="M 72 790.0 Q 127.0 767.4 182.0 790.0 Q 237.0 812.6 292.0 790.0 Q 347.0 767.4 402.0 790.0 Q 457.0 812.6 512.0 790.0 Q 567.0 767.4 622.0 790.0 Q 677.0 812.6 732.0 790.0 " fill="none" stroke="#4EA8DE" stroke-width="3" opacity="0.10"/><path d="M 72 870.0 Q 127.0 839.0 182.0 870.0 Q 237.0 901.0 292.0 870.0 Q 347.0 839.0 402.0 870.0 Q 457.0 901.0 512.0 870.0 Q 567.0 839.0 622.0 870.0 Q 677.0 901.0 732.0 870.0 " fill="none" stroke="#4EA8DE" stroke-width="3" opacity="0.10"/></g><g><g opacity="0.55">
        <g>
          <path d="M 354.5 377.9
                   L 421.7 377.9
                   L 413.9 411.5
                   Q 388.1 431.1 362.3 411.5
                   Z" fill="#ffffff" stroke="#1E1B2E" stroke-width="7"/>
          <path d="M 421.1 387.7
                   Q 441.3 400.3 421.1 412.9" fill="none" stroke="#1E1B2E" stroke-width="10" stroke-linecap="round" opacity="0.9"/>
          <rect x="374.7" y="431.1" width="26.9" height="16.8" rx="5.6" fill="#4EA8DE" opacity="0.45" stroke="#1E1B2E" stroke-width="6"/>
          <circle cx="388.0901657833646" cy="370.9" r="6.2" fill="#4EA8DE" opacity="0.55"/>
          <path d="M 375.5 370.9 Q 388.0901657833646 359.7 400.7 370.9" fill="none" stroke="#4EA8DE" stroke-width="7" opacity="0.55" stroke-linecap="round"/>
        </g>
        </g><g opacity="0.55">
        <g>
          <path d="M 491.2 427.4
                   L 558.4 427.4
                   L 550.5 461.0
                   Q 524.8 480.6 499.0 461.0
                   Z" fill="#ffffff" stroke="#1E1B2E" stroke-width="7"/>
          <path d="M 557.8 437.2
                   Q 578.0 449.8 557.8 462.4" fill="none" stroke="#1E1B2E" stroke-width="10" stroke-linecap="round" opacity="0.9"/>
          <rect x="511.3" y="480.6" width="26.9" height="16.8" rx="5.6" fill="#4EA8DE" opacity="0.45" stroke="#1E1B2E" stroke-width="6"/>
          <circle cx="524.7643250656602" cy="420.4" r="6.2" fill="#4EA8DE" opacity="0.55"/>
          <path d="M 512.2 420.4 Q 524.7643250656602 409.2 537.4 420.4" fill="none" stroke="#4EA8DE" stroke-width="7" opacity="0.55" stroke-linecap="round"/>
        </g>
        </g><g opacity="0.55">
        <g>
          <path d="M 581.3 557.4
                   L 648.5 557.4
                   L 640.7 591.0
                   Q 614.9 610.6 589.2 591.0
                   Z" fill="#ffffff" stroke="#1E1B2E" stroke-width="7"/>
          <path d="M 648.0 567.2
                   Q 668.1 579.8 648.0 592.4" fill="none" stroke="#1E1B2E" stroke-width="10" stroke-linecap="round" opacity="0.9"/>
          <rect x="601.5" y="610.6" width="26.9" height="16.8" rx="5.6" fill="#4EA8DE" opacity="0.45" stroke="#1E1B2E" stroke-width="6"/>
          <circle cx="614.9474839165792" cy="550.4" r="6.2" fill="#4EA8DE" opacity="0.55"/>
          <path d="M 602.3 550.4 Q 614.9474839165792 539.2 627.5 550.4" fill="none" stroke="#4EA8DE" stroke-width="7" opacity="0.55" stroke-linecap="round"/>
        </g>
        </g><g opacity="0.55">
        <g>
          <path d="M 582.3 694.4
                   L 649.5 694.4
                   L 641.7 728.0
                   Q 615.9 747.6 590.2 728.0
                   Z" fill="#ffffff" stroke="#1E1B2E" stroke-width="7"/>
          <path d="M 649.0 704.2
                   Q 669.1 716.8 649.0 729.4" fill="none" stroke="#1E1B2E" stroke-width="10" stroke-linecap="round" opacity="0.9"/>
          <rect x="602.5" y="747.6" width="26.9" height="16.8" rx="5.6" fill="#4EA8DE" opacity="0.45" stroke="#1E1B2E" stroke-width="6"/>
          <circle cx="615.9142716391343" cy="687.4" r="6.2" fill="#4EA8DE" opacity="0.55"/>
          <path d="M 603.3 687.4 Q 615.9142716391343 676.2 628.5 687.4" fill="none" stroke="#4EA8DE" stroke-width="7" opacity="0.55" stroke-linecap="round"/>
        </g>
        </g><g opacity="0.55">
        <g>
          <path d="M 487.9 830.2
                   L 555.1 830.2
                   L 547.2 863.8
                   Q 521.5 883.4 495.7 863.8
                   Z" fill="#ffffff" stroke="#1E1B2E" stroke-width="7"/>
          <path d="M 554.5 840.0
                   Q 574.7 852.6 554.5 865.2" fill="none" stroke="#1E1B2E" stroke-width="10" stroke-linecap="round" opacity="0.9"/>
          <rect x="508.0" y="883.4" width="26.9" height="16.8" rx="5.6" fill="#4EA8DE" opacity="0.45" stroke="#1E1B2E" stroke-width="6"/>
          <circle cx="521.4686229827539" cy="823.2" r="6.2" fill="#4EA8DE" opacity="0.55"/>
          <path d="M 508.9 823.2 Q 521.4686229827539 812.0 534.1 823.2" fill="none" stroke="#4EA8DE" stroke-width="7" opacity="0.55" stroke-linecap="round"/>
        </g>
        </g><g opacity="0.55">
        <g>
          <path d="M 320.6 876.7
                   L 387.8 876.7
                   L 380.0 910.3
                   Q 354.2 929.9 328.5 910.3
                   Z" fill="#ffffff" stroke="#1E1B2E" stroke-width="7"/>
          <path d="M 387.3 886.5
                   Q 407.4 899.1 387.3 911.7" fill="none" stroke="#1E1B2E" stroke-width="10" stroke-linecap="round" opacity="0.9"/>
          <rect x="340.8" y="929.9" width="26.9" height="16.8" rx="5.6" fill="#4EA8DE" opacity="0.45" stroke="#1E1B2E" stroke-width="6"/>
          <circle cx="354.23653252761795" cy="869.7" r="6.2" fill="#4EA8DE" opacity="0.55"/>
          <path d="M 341.6 869.7 Q 354.23653252761795 858.5 366.8 869.7" fill="none" stroke="#4EA8DE" stroke-width="7" opacity="0.55" stroke-linecap="round"/>
        </g>
        </g><g opacity="0.55">
        <g>
          <path d="M 181.4 819.7
                   L 248.6 819.7
                   L 240.7 853.3
                   Q 215.0 872.9 189.2 853.3
                   Z" fill="#ffffff" stroke="#1E1B2E" stroke-width="7"/>
          <path d="M 248.0 829.5
                   Q 268.2 842.1 248.0 854.7" fill="none" stroke="#1E1B2E" stroke-width="10" stroke-linecap="round" opacity="0.9"/>
          <rect x="201.5" y="872.9" width="26.9" height="16.8" rx="5.6" fill="#4EA8DE" opacity="0.45" stroke="#1E1B2E" stroke-width="6"/>
          <circle cx="214.97786122871807" cy="812.7" r="6.2" fill="#4EA8DE" opacity="0.55"/>
          <path d="M 202.4 812.7 Q 214.97786122871807 801.5 227.6 812.7" fill="none" stroke="#4EA8DE" stroke-width="7" opacity="0.55" stroke-linecap="round"/>
        </g>
        </g><g opacity="0.55">
        <g>
          <path d="M 108.8 719.3
                   L 176.0 719.3
                   L 168.2 752.9
                   Q 142.4 772.5 116.7 752.9
                   Z" fill="#ffffff" stroke="#1E1B2E" stroke-width="7"/>
          <path d="M 175.5 729.1
                   Q 195.6 741.7 175.5 754.3" fill="none" stroke="#1E1B2E" stroke-width="10" stroke-linecap="round" opacity="0.9"/>
          <rect x="129.0" y="772.5" width="26.9" height="16.8" rx="5.6" fill="#4EA8DE" opacity="0.45" stroke="#1E1B2E" stroke-width="6"/>
          <circle cx="142.42453399074597" cy="712.3" r="6.2" fill="#4EA8DE" opacity="0.55"/>
          <path d="M 129.8 712.3 Q 142.42453399074597 701.1 155.0 712.3" fill="none" stroke="#4EA8DE" stroke-width="7" opacity="0.55" stroke-linecap="round"/>
        </g>
        </g><g opacity="0.55">
        <g>
          <path d="M 105.1 546.0
                   L 172.3 546.0
                   L 164.4 579.6
                   Q 138.7 599.2 112.9 579.6
                   Z" fill="#ffffff" stroke="#1E1B2E" stroke-width="7"/>
          <path d="M 171.7 555.8
                   Q 191.9 568.4 171.7 581.0" fill="none" stroke="#1E1B2E" stroke-width="10" stroke-linecap="round" opacity="0.9"/>
          <rect x="125.2" y="599.2" width="26.9" height="16.8" rx="5.6" fill="#4EA8DE" opacity="0.45" stroke="#1E1B2E" stroke-width="6"/>
          <circle cx="138.68246846410943" cy="539.0" r="6.2" fill="#4EA8DE" opacity="0.55"/>
          <path d="M 126.1 539.0 Q 138.68246846410943 527.8 151.3 539.0" fill="none" stroke="#4EA8DE" stroke-width="7" opacity="0.55" stroke-linecap="round"/>
        </g>
        </g><g opacity="0.55">
        <g>
          <path d="M 210.9 414.4
                   L 278.1 414.4
                   L 270.2 448.0
                   Q 244.5 467.6 218.7 448.0
                   Z" fill="#ffffff" stroke="#1E1B2E" stroke-width="7"/>
          <path d="M 277.5 424.2
                   Q 297.7 436.8 277.5 449.4" fill="none" stroke="#1E1B2E" stroke-width="10" stroke-linecap="round" opacity="0.9"/>
          <rect x="231.0" y="467.6" width="26.9" height="16.8" rx="5.6" fill="#4EA8DE" opacity="0.45" stroke="#1E1B2E" stroke-width="6"/>
          <circle cx="244.45412082715927" cy="407.4" r="6.2" fill="#4EA8DE" opacity="0.55"/>
          <path d="M 231.9 407.4 Q 244.45412082715927 396.2 257.1 407.4" fill="none" stroke="#4EA8DE" stroke-width="7" opacity="0.55" stroke-linecap="round"/>
        </g>
        </g></g><g opacity="0.55">
  <g opacity="0.18">
    <circle cx="375.0" cy="560" r="290" fill="none" stroke="#4EA8DE" stroke-width="4.2" opacity="0.18"/>
    <circle cx="375.0" cy="560" r="237.8" fill="none" stroke="#4EA8DE" stroke-width="2.2" opacity="0.10"/>
    <line x1="647.0" y1="560.0" x2="679.0" y2="560.0" stroke="#4EA8DE" stroke-width="3.2" opacity="0.10" stroke-linecap="round"/><line x1="610.6" y1="696.0" x2="638.3" y2="712.0" stroke="#4EA8DE" stroke-width="3.2" opacity="0.10" stroke-linecap="round"/><line x1="511.0" y1="795.6" x2="527.0" y2="823.3" stroke="#4EA8DE" stroke-width="3.2" opacity="0.10" stroke-linecap="round"/><line x1="375.0" y1="832.0" x2="375.0" y2="864.0" stroke="#4EA8DE" stroke-width="3.2" opacity="0.10" stroke-linecap="round"/><line x1="239.0" y1="795.6" x2="223.0" y2="823.3" stroke="#4EA8DE" stroke-width="3.2" opacity="0.10" stroke-linecap="round"/><line x1="139.4" y1="696.0" x2="111.7" y2="712.0" stroke="#4EA8DE" stroke-width="3.2" opacity="0.10" stroke-linecap="round"/><line x1="103.0" y1="560.0" x2="71.0" y2="560.0" stroke="#4EA8DE" stroke-width="3.2" opacity="0.10" stroke-linecap="round"/><line x1="139.4" y1="424.0" x2="111.7" y2="408.0" stroke="#4EA8DE" stroke-width="3.2" opacity="0.10" stroke-linecap="round"/><line x1="239.0" y1="324.4" x2="223.0" y2="296.7" stroke="#4EA8DE" stroke-width="3.2" opacity="0.10" stroke-linecap="round"/><line x1="375.0" y1="288.0" x2="375.0" y2="256.0" stroke="#4EA8DE" stroke-width="3.2" opacity="0.10" stroke-linecap="round"/><line x1="511.0" y1="324.4" x2="527.0" y2="296.7" stroke="#4EA8DE" stroke-width="3.2" opacity="0.10" stroke-linecap="round"/><line x1="610.6" y1="424.0" x2="638.3" y2="408.0" stroke="#4EA8DE" stroke-width="3.2" opacity="0.10" stroke-linecap="round"/>
    <circle cx="664.9" cy="566.1" r="3.1" fill="#4EA8DE" opacity="0.29"/><circle cx="652.6" cy="643.8" r="4.0" fill="#4EA8DE" opacity="0.41"/><circle cx="626.0" cy="705.2" r="3.4" fill="#4EA8DE" opacity="0.26"/><circle cx="582.6" cy="762.5" r="3.6" fill="#4EA8DE" opacity="0.37"/><circle cx="522.5" cy="809.7" r="3.0" fill="#4EA8DE" opacity="0.38"/><circle cx="452.6" cy="839.4" r="3.5" fill="#4EA8DE" opacity="0.40"/><circle cx="377.6" cy="850.0" r="3.3" fill="#4EA8DE" opacity="0.25"/><circle cx="295.9" cy="839.0" r="3.6" fill="#4EA8DE" opacity="0.24"/><circle cx="231.7" cy="812.1" r="3.0" fill="#4EA8DE" opacity="0.41"/><circle cx="166.6" cy="761.6" r="3.0" fill="#4EA8DE" opacity="0.32"/><circle cx="121.6" cy="701.0" r="3.7" fill="#4EA8DE" opacity="0.23"/><circle cx="94.6" cy="634.1" r="3.5" fill="#4EA8DE" opacity="0.37"/><circle cx="85.1" cy="550.9" r="3.2" fill="#4EA8DE" opacity="0.19"/><circle cx="96.9" cy="477.7" r="3.6" fill="#4EA8DE" opacity="0.42"/><circle cx="120.0" cy="421.9" r="3.0" fill="#4EA8DE" opacity="0.33"/><circle cx="173.2" cy="351.7" r="2.8" fill="#4EA8DE" opacity="0.37"/><circle cx="235.9" cy="305.5" r="3.5" fill="#4EA8DE" opacity="0.23"/><circle cx="308.7" cy="277.7" r="3.6" fill="#4EA8DE" opacity="0.19"/><circle cx="381.2" cy="270.1" r="3.1" fill="#4EA8DE" opacity="0.32"/><circle cx="442.9" cy="278.1" r="3.5" fill="#4EA8DE" opacity="0.34"/><circle cx="524.5" cy="311.5" r="2.9" fill="#4EA8DE" opacity="0.24"/><circle cx="586.8" cy="362.0" r="2.9" fill="#4EA8DE" opacity="0.24"/><circle cx="622.3" cy="408.6" r="3.6" fill="#4EA8DE" opacity="0.26"/><circle cx="652.5" cy="475.7" r="3.9" fill="#4EA8DE" opacity="0.22"/>
  </g>
</g>
        <g filter="url(#glow)">
          <circle cx="375.0" cy="630" r="170" fill="#ffffff" opacity="0.40" stroke="#4EA8DE" stroke-width="7"/>
          
        <g>
          <path d="M 288.6 572.4
                   L 461.4 572.4
                   L 441.2 658.8
                   Q 375.0 709.2 308.8 658.8
                   Z" fill="#ffffff" stroke="#1E1B2E" stroke-width="7"/>
          <path d="M 460.0 597.6
                   Q 511.8 630.0 460.0 662.4" fill="none" stroke="#1E1B2E" stroke-width="10" stroke-linecap="round" opacity="0.9"/>
          <rect x="340.4" y="709.2" width="69.1" height="43.2" rx="14.4" fill="#4EA8DE" opacity="0.45" stroke="#1E1B2E" stroke-width="6"/>
          <circle cx="375.0" cy="554.4" r="15.8" fill="#4EA8DE" opacity="0.55"/>
          <path d="M 342.6 554.4 Q 375.0 525.6 407.4 554.4" fill="none" stroke="#4EA8DE" stroke-width="7" opacity="0.55" stroke-linecap="round"/>
        </g>
        
        </g>
        <line x1="400.6" y1="598.3" x2="230.7" y2="314.1" stroke="#ffffff" stroke-width="2.2" opacity="0.20"/>
<line x1="230.7" y1="314.1" x2="217.0" y2="613.0" stroke="#ffffff" stroke-width="2.2" opacity="0.10"/>
<line x1="217.0" y1="613.0" x2="528.9" y2="545.2" stroke="#ffffff" stroke-width="2.2" opacity="0.14"/>
<line x1="528.9" y1="545.2" x2="346.6" y2="477.5" stroke="#ffffff" stroke-width="2.2" opacity="0.16"/>
<line x1="346.6" y1="477.5" x2="342.2" y2="481.9" stroke="#ffffff" stroke-width="2.2" opacity="0.14"/>
<line x1="342.2" y1="481.9" x2="407.9" y2="299.1" stroke="#ffffff" stroke-width="2.2" opacity="0.10"/>
<circle cx="400.6" cy="598.3" r="3.6" fill="#ffffff" opacity="0.6931137794227881"/>
<circle cx="217.0" cy="613.0" r="4.1" fill="#ffffff" opacity="0.5528850725667962"/>
<circle cx="346.6" cy="477.5" r="2.3" fill="#ffffff" opacity="0.5157418566936443"/>
<circle cx="407.9" cy="299.1" r="2.1" fill="#ffffff" opacity="0.6977057952744052"/>
<circle cx="545.6" cy="452.5" r="3.9" fill="#ffffff" opacity="0.7478797406536843"/>
<circle cx="170.8" cy="467.6" r="2.7" fill="#ffffff" opacity="0.5475449092787605"/>
<circle cx="162.4" cy="459.7" r="1.9" fill="#ffffff" opacity="0.7264793622418482"/>
<circle cx="528.9" cy="545.2" r="3.6" fill="#ffffff" opacity="0.5470498554692264"/>
<circle cx="187.5" cy="529.7" r="4.4" fill="#ffffff" opacity="0.4401886189553594"/>
<circle cx="230.7" cy="314.1" r="2.9" fill="#ffffff" opacity="0.5926619215865896"/>
<circle cx="587.3" cy="429.9" r="2.9" fill="#ffffff" opacity="0.8031502479895192"/>
<circle cx="392.3" cy="513.5" r="4.0" fill="#ffffff" opacity="0.8248240084314084"/>
<circle cx="342.2" cy="481.9" r="3.7" fill="#ffffff" opacity="0.4164053579806222"/>
<circle cx="590.8" cy="550.9" r="4.2" fill="#ffffff" opacity="0.7371519674275182"/>
<rect x="42" y="1030" width="666" height="160" rx="30" fill="#ffffffd9" stroke="#1E1B2E" stroke-width="4" opacity="0.95"/>
<text x="375.0" y="1104" font-family="ui-sans-serif, system-ui, -apple-system, Segoe UI, Roboto, Helvetica, Arial" font-size="46" font-weight="900" text-anchor="middle" fill="#1E1B2E" opacity="0.98">10 of Cups</text>
<text x="375.0" y="1152" font-family="ui-sans-serif, system-ui, -apple-system, Segoe UI, Roboto, Helvetica, Arial" font-size="28" font-weight="700" text-anchor="middle" fill="#1E1B2E" opacity="0.7">Fulfillment</text>

    <g opacity="0.55">
      <circle cx="127" cy="1176" r="14" fill="#4EA8DE"/>
      <circle cx="623" cy="1176" r="14" fill="#4EA8DE"/>
      <path d="M 162 1176 L 588 1176" stroke="#4EA8DE" stroke-width="4" opacity="0.45" stroke-linecap="round"/>
    </g>
    
</svg>
