<svg xmlns="http://www.w3.org/2000/svg" width="750" height="1250" viewBox="0 0 750 1250">
  <title>Knight of Cups</title>


  <defs>
    <linearGradient id="g" x1="0" y1="0" x2="1" y2="1">
      <stop offset="0%" stop-color="#E8FFF1"/>
      <stop offset="100%" stop-color="#F2E9FF"/>
    </linearGradient>

    <!-- paper texture -->
    <filter id="paper" x="-20%" y="-20%" width="140%" height="140%">
      <feTurbulence type="fractalNoise" baseFrequency="0.014" numOctaves="3" seed="3337" result="noise"/>
      <feColorMatrix in="noise" type="matrix"
        values="1 0 0 0 0
                0 1 0 0 0
                0 0 1 0 0
                0 0 0 0.25 0" result="noiseAlpha"/>
      <feComposite in="noiseAlpha" in2="SourceGraphic" operator="over"/>
    </filter>

    <!-- soft glow -->
    <filter id="glow" x="-30%" y="-30%" width="160%" height="160%">
      <feGaussianBlur stdDeviation="10" result="blur"/>
      <feColorMatrix type="matrix" values="
        1 0 0 0 0
        0 1 0 0 0
        0 0 1 0 0
        0 0 0 0.32 0" result="blurAlpha"/>
      <feMerge>
        <feMergeNode in="blurAlpha"/>
        <feMergeNode in="SourceGraphic"/>
      </feMerge>
    </filter>
  </defs>

<rect x="0" y="0" width="750" height="1250" rx="58" ry="58" fill="url(#g)" stroke="none" stroke-width="0" opacity="1"/>
<rect x="0" y="0" width="750" height="1250" fill="#ffffff" opacity="0.08"/>
<line x1="192.3" y1="319.7" x2="101.7" y2="334.4" stroke="#ffffff" stroke-width="2.2" opacity="0.09"/>
<line x1="101.7" y1="334.4" x2="441.6" y2="975.1" stroke="#ffffff" stroke-width="2.2" opacity="0.16"/>
<line x1="441.6" y1="975.1" x2="430.6" y2="618.1" stroke="#ffffff" stroke-width="2.2" opacity="0.14"/>
<line x1="430.6" y1="618.1" x2="690.9" y2="1015.4" stroke="#ffffff" stroke-width="2.2" opacity="0.20"/>
<line x1="690.9" y1="1015.4" x2="260.0" y2="1131.6" stroke="#ffffff" stroke-width="2.2" opacity="0.16"/>
<line x1="260.0" y1="1131.6" x2="538.1" y2="735.8" stroke="#ffffff" stroke-width="2.2" opacity="0.20"/>
<line x1="538.1" y1="735.8" x2="326.4" y2="425.0" stroke="#ffffff" stroke-width="2.2" opacity="0.12"/>
<line x1="326.4" y1="425.0" x2="698.8" y2="1057.8" stroke="#ffffff" stroke-width="2.2" opacity="0.19"/>
<line x1="698.8" y1="1057.8" x2="374.4" y2="115.5" stroke="#ffffff" stroke-width="2.2" opacity="0.10"/>
<line x1="374.4" y1="115.5" x2="307.8" y2="982.0" stroke="#ffffff" stroke-width="2.2" opacity="0.12"/>
<line x1="307.8" y1="982.0" x2="635.4" y2="367.0" stroke="#ffffff" stroke-width="2.2" opacity="0.14"/>
<line x1="635.4" y1="367.0" x2="547.9" y2="989.3" stroke="#ffffff" stroke-width="2.2" opacity="0.08"/>
<line x1="547.9" y1="989.3" x2="471.0" y2="195.7" stroke="#ffffff" stroke-width="2.2" opacity="0.11"/>
<line x1="471.0" y1="195.7" x2="300.0" y2="360.2" stroke="#ffffff" stroke-width="2.2" opacity="0.17"/>
<line x1="300.0" y1="360.2" x2="315.9" y2="170.1" stroke="#ffffff" stroke-width="2.2" opacity="0.12"/>
<line x1="315.9" y1="170.1" x2="67.5" y2="996.8" stroke="#ffffff" stroke-width="2.2" opacity="0.13"/>
<line x1="67.5" y1="996.8" x2="643.1" y2="145.3" stroke="#ffffff" stroke-width="2.2" opacity="0.16"/>
<line x1="643.1" y1="145.3" x2="613.9" y2="554.6" stroke="#ffffff" stroke-width="2.2" opacity="0.16"/>
<circle cx="282.4" cy="79.9" r="3.7" fill="#ffffff" opacity="0.6550494604167925"/>
<circle cx="156.4" cy="74.7" r="4.5" fill="#ffffff" opacity="0.5198718990579554"/>
<circle cx="82.3" cy="722.0" r="3.9" fill="#ffffff" opacity="0.3825047456490135"/>
<circle cx="60.7" cy="80.3" r="4.5" fill="#ffffff" opacity="0.4554200913523794"/>
<circle cx="547.9" cy="989.3" r="3.8" fill="#ffffff" opacity="0.7154756897839444"/>
<circle cx="643.1" cy="145.3" r="2.8" fill="#ffffff" opacity="0.5547426044135171"/>
<circle cx="105.4" cy="108.0" r="2.3" fill="#ffffff" opacity="0.5754707113956994"/>
<circle cx="409.2" cy="702.2" r="4.0" fill="#ffffff" opacity="0.6059896561245914"/>
<circle cx="70.1" cy="952.1" r="4.4" fill="#ffffff" opacity="0.45402767582713593"/>
<circle cx="359.4" cy="983.7" r="3.0" fill="#ffffff" opacity="0.529616656547822"/>
<circle cx="404.3" cy="439.1" r="2.5" fill="#ffffff" opacity="0.3298769501933768"/>
<circle cx="613.9" cy="554.6" r="3.8" fill="#ffffff" opacity="0.302755354660682"/>
<circle cx="300.0" cy="360.2" r="2.4" fill="#ffffff" opacity="0.4751321032439355"/>
<circle cx="441.6" cy="975.1" r="2.3" fill="#ffffff" opacity="0.2740481261136839"/>
<circle cx="538.1" cy="735.8" r="1.8" fill="#ffffff" opacity="0.564440002254462"/>
<circle cx="225.9" cy="992.7" r="4.3" fill="#ffffff" opacity="0.591636221644638"/>
<circle cx="413.8" cy="85.6" r="4.4" fill="#ffffff" opacity="0.7467364628332644"/>
<circle cx="366.7" cy="138.6" r="4.6" fill="#ffffff" opacity="0.5780550259497028"/>
<circle cx="319.4" cy="482.0" r="3.9" fill="#ffffff" opacity="0.7443473746028506"/>
<circle cx="635.4" cy="367.0" r="3.2" fill="#ffffff" opacity="0.2965295696909456"/>
<circle cx="581.4" cy="73.5" r="4.1" fill="#ffffff" opacity="0.8008046725990858"/>
<circle cx="363.7" cy="467.3" r="2.1" fill="#ffffff" opacity="0.788109692503223"/>
<circle cx="67.5" cy="996.8" r="4.6" fill="#ffffff" opacity="0.3492754461207076"/>
<circle cx="430.6" cy="618.1" r="2.1" fill="#ffffff" opacity="0.5096639412652839"/>
<circle cx="326.4" cy="425.0" r="3.6" fill="#ffffff" opacity="0.5761501368332964"/>
<circle cx="693.7" cy="852.9" r="1.8" fill="#ffffff" opacity="0.7885323352805339"/>
<circle cx="698.8" cy="1057.8" r="4.5" fill="#ffffff" opacity="0.4737743835621563"/>
<circle cx="505.5" cy="913.3" r="3.0" fill="#ffffff" opacity="0.3945109192666778"/>
<circle cx="525.3" cy="161.1" r="2.1" fill="#ffffff" opacity="0.7848576045163735"/>
<circle cx="374.4" cy="115.5" r="3.1" fill="#ffffff" opacity="0.34637752637416486"/>
<circle cx="499.7" cy="364.5" r="1.7" fill="#ffffff" opacity="0.6132991397562086"/>
<circle cx="192.3" cy="319.7" r="1.9" fill="#ffffff" opacity="0.7753455885715353"/>
<circle cx="690.9" cy="1015.4" r="4.0" fill="#ffffff" opacity="0.2794788806237785"/>
<circle cx="360.8" cy="288.5" r="2.5" fill="#ffffff" opacity="0.4453420972355172"/>
<circle cx="609.4" cy="128.4" r="2.5" fill="#ffffff" opacity="0.5947156728145093"/>
<circle cx="260.0" cy="1131.6" r="3.1" fill="#ffffff" opacity="0.6170340814242385"/>
<circle cx="626.5" cy="1057.0" r="2.1" fill="#ffffff" opacity="0.506469176530298"/>
<circle cx="433.5" cy="997.2" r="2.7" fill="#ffffff" opacity="0.4851633956281798"/>
<circle cx="101.7" cy="334.4" r="2.8" fill="#ffffff" opacity="0.30119438108354696"/>
<circle cx="307.8" cy="982.0" r="4.5" fill="#ffffff" opacity="0.4114240879139594"/>
<circle cx="169.0" cy="830.3" r="4.5" fill="#ffffff" opacity="0.5128998169245838"/>
<circle cx="402.1" cy="648.1" r="3.6" fill="#ffffff" opacity="0.3466361901981524"/>
<circle cx="298.1" cy="469.6" r="3.6" fill="#ffffff" opacity="0.7724798152655382"/>
<circle cx="326.1" cy="429.8" r="4.0" fill="#ffffff" opacity="0.5779748265341794"/>
<circle cx="77.9" cy="934.6" r="3.0" fill="#ffffff" opacity="0.5412561078363003"/>
<circle cx="315.9" cy="170.1" r="4.3" fill="#ffffff" opacity="0.6585613742353978"/>
<circle cx="141.6" cy="897.6" r="4.4" fill="#ffffff" opacity="0.25507109178825393"/>
<circle cx="156.0" cy="389.5" r="3.9" fill="#ffffff" opacity="0.7021111148883082"/>
<circle cx="471.0" cy="195.7" r="2.0" fill="#ffffff" opacity="0.790935624910069"/>
<circle cx="593.4" cy="886.0" r="2.3" fill="#ffffff" opacity="0.4942904666512367"/>
<g filter="url(#paper)"><rect x="42" y="42" width="666" height="1166" rx="54" ry="54" fill="none" stroke="#1E1B2E" stroke-width="8" opacity="0.95"/>
<rect x="60" y="60" width="630" height="1130" rx="46" ry="46" fill="none" stroke="#4EA8DE" stroke-width="3" opacity="0.35"/>

  <g opacity="0.42">
    <circle cx="375.0" cy="560" r="285" fill="none" stroke="#4EA8DE" stroke-width="4.2" opacity="0.42"/>
    <circle cx="375.0" cy="560" r="233.7" fill="none" stroke="#4EA8DE" stroke-width="2.2" opacity="0.23"/>
    <line x1="642.0" y1="560.0" x2="674.0" y2="560.0" stroke="#4EA8DE" stroke-width="3.2" opacity="0.23" stroke-linecap="round"/><line x1="606.2" y1="693.5" x2="633.9" y2="709.5" stroke="#4EA8DE" stroke-width="3.2" opacity="0.23" stroke-linecap="round"/><line x1="508.5" y1="791.2" x2="524.5" y2="818.9" stroke="#4EA8DE" stroke-width="3.2" opacity="0.23" stroke-linecap="round"/><line x1="375.0" y1="827.0" x2="375.0" y2="859.0" stroke="#4EA8DE" stroke-width="3.2" opacity="0.23" stroke-linecap="round"/><line x1="241.5" y1="791.2" x2="225.5" y2="818.9" stroke="#4EA8DE" stroke-width="3.2" opacity="0.23" stroke-linecap="round"/><line x1="143.8" y1="693.5" x2="116.1" y2="709.5" stroke="#4EA8DE" stroke-width="3.2" opacity="0.23" stroke-linecap="round"/><line x1="108.0" y1="560.0" x2="76.0" y2="560.0" stroke="#4EA8DE" stroke-width="3.2" opacity="0.23" stroke-linecap="round"/><line x1="143.8" y1="426.5" x2="116.1" y2="410.5" stroke="#4EA8DE" stroke-width="3.2" opacity="0.23" stroke-linecap="round"/><line x1="241.5" y1="328.8" x2="225.5" y2="301.1" stroke="#4EA8DE" stroke-width="3.2" opacity="0.23" stroke-linecap="round"/><line x1="375.0" y1="293.0" x2="375.0" y2="261.0" stroke="#4EA8DE" stroke-width="3.2" opacity="0.23" stroke-linecap="round"/><line x1="508.5" y1="328.8" x2="524.5" y2="301.1" stroke="#4EA8DE" stroke-width="3.2" opacity="0.23" stroke-linecap="round"/><line x1="606.2" y1="426.5" x2="633.9" y2="410.5" stroke="#4EA8DE" stroke-width="3.2" opacity="0.23" stroke-linecap="round"/>
    <circle cx="659.9" cy="567.8" r="3.4" fill="#4EA8DE" opacity="0.28"/><circle cx="648.5" cy="640.3" r="3.0" fill="#4EA8DE" opacity="0.24"/><circle cx="618.3" cy="708.4" r="4.0" fill="#4EA8DE" opacity="0.37"/><circle cx="577.7" cy="760.3" r="2.7" fill="#4EA8DE" opacity="0.41"/><circle cx="522.4" cy="803.9" r="2.6" fill="#4EA8DE" opacity="0.19"/><circle cx="446.0" cy="836.0" r="3.6" fill="#4EA8DE" opacity="0.18"/><circle cx="376.7" cy="845.0" r="3.7" fill="#4EA8DE" opacity="0.41"/><circle cx="301.9" cy="835.5" r="3.5" fill="#4EA8DE" opacity="0.33"/><circle cx="240.3" cy="811.2" r="3.8" fill="#4EA8DE" opacity="0.24"/><circle cx="169.8" cy="757.8" r="2.7" fill="#4EA8DE" opacity="0.39"/><circle cx="128.5" cy="703.1" r="3.8" fill="#4EA8DE" opacity="0.39"/><circle cx="102.3" cy="642.9" r="3.7" fill="#4EA8DE" opacity="0.33"/><circle cx="90.1" cy="566.3" r="3.4" fill="#4EA8DE" opacity="0.37"/><circle cx="97.8" cy="493.7" r="3.2" fill="#4EA8DE" opacity="0.19"/><circle cx="125.7" cy="422.0" r="3.5" fill="#4EA8DE" opacity="0.22"/><circle cx="169.6" cy="362.4" r="3.6" fill="#4EA8DE" opacity="0.18"/><circle cx="235.2" cy="311.6" r="3.7" fill="#4EA8DE" opacity="0.37"/><circle cx="304.8" cy="283.8" r="3.0" fill="#4EA8DE" opacity="0.20"/><circle cx="376.7" cy="275.0" r="3.0" fill="#4EA8DE" opacity="0.25"/><circle cx="441.3" cy="282.8" r="3.5" fill="#4EA8DE" opacity="0.32"/><circle cx="519.0" cy="314.0" r="3.8" fill="#4EA8DE" opacity="0.31"/><circle cx="569.8" cy="351.9" r="3.8" fill="#4EA8DE" opacity="0.36"/><circle cx="622.1" cy="418.0" r="3.1" fill="#4EA8DE" opacity="0.39"/><circle cx="648.7" cy="480.5" r="3.7" fill="#4EA8DE" opacity="0.43"/>
  </g>

<g><g transform="translate(50,54)"><path d="M 18.0 117.0 C 45.0 45.0, 99.0 27.0, 153.0 54.0" fill="none" stroke="#4EA8DE" stroke-width="6" opacity="0.55" stroke-linecap="round"/></g><g transform="translate(700,54) scale(-1,1)"><path d="M 18.0 117.0 C 45.0 45.0, 99.0 27.0, 153.0 54.0" fill="none" stroke="#4EA8DE" stroke-width="6" opacity="0.55" stroke-linecap="round"/></g><g transform="translate(50,1196) scale(1,-1)"><path d="M 18.0 117.0 C 45.0 45.0, 99.0 27.0, 153.0 54.0" fill="none" stroke="#4EA8DE" stroke-width="6" opacity="0.55" stroke-linecap="round"/></g><g transform="translate(700,1196) scale(-1,-1)"><path d="M 18.0 117.0 C 45.0 45.0, 99.0 27.0, 153.0 54.0" fill="none" stroke="#4EA8DE" stroke-width="6" opacity="0.55" stroke-linecap="round"/></g></g></g>
<rect x="42" y="60" width="666" height="92" rx="30" fill="#ffffffcc" stroke="#1E1B2E" stroke-width="4" opacity="0.95"/>
<text x="375.0" y="122" font-family="ui-sans-serif, system-ui, -apple-system, Segoe UI, Roboto, Helvetica, Arial" font-size="30" font-weight="800" text-anchor="middle" fill="#1E1B2E" opacity="0.95" letter-spacing="1">MINOR ARCANA • CUPS</text>
<rect x="76" y="170" width="598" height="760" rx="52" fill="#ffffff" opacity="0.15"/>
<g><path d="M 72 230.0 Q 127.0 210.2 182.0 230.0 Q 237.0 249.8 292.0 230.0 Q 347.0 210.2 402.0 230.0 Q 457.0 249.8 512.0 230.0 Q 567.0 210.2 622.0 230.0 Q 677.0 249.8 732.0 230.0 " fill="none" stroke="#4EA8DE" stroke-width="3" opacity="0.10"/><path d="M 72 310.0 Q 127.0 283.3 182.0 310.0 Q 237.0 336.7 292.0 310.0 Q 347.0 283.3 402.0 310.0 Q 457.0 336.7 512.0 310.0 Q 567.0 283.3 622.0 310.0 Q 677.0 336.7 732.0 310.0 " fill="none" stroke="#4EA8DE" stroke-width="3" opacity="0.10"/><path d="M 72 390.0 Q 127.0 358.1 182.0 390.0 Q 237.0 421.9 292.0 390.0 Q 347.0 358.1 402.0 390.0 Q 457.0 421.9 512.0 390.0 Q 567.0 358.1 622.0 390.0 Q 677.0 421.9 732.0 390.0 " fill="none" stroke="#4EA8DE" stroke-width="3" opacity="0.10"/><path d="M 72 470.0 Q 127.0 438.7 182.0 470.0 Q 237.0 501.3 292.0 470.0 Q 347.0 438.7 402.0 470.0 Q 457.0 501.3 512.0 470.0 Q 567.0 438.7 622.0 470.0 Q 677.0 501.3 732.0 470.0 " fill="none" stroke="#4EA8DE" stroke-width="3" opacity="0.10"/><path d="M 72 550.0 Q 127.0 522.2 182.0 550.0 Q 237.0 577.8 292.0 550.0 Q 347.0 522.2 402.0 550.0 Q 457.0 577.8 512.0 550.0 Q 567.0 522.2 622.0 550.0 Q 677.0 577.8 732.0 550.0 " fill="none" stroke="#4EA8DE" stroke-width="3" opacity="0.10"/><path d="M 72 630.0 Q 127.0 609.9 182.0 630.0 Q 237.0 650.1 292.0 630.0 Q 347.0 609.9 402.0 630.0 Q 457.0 650.1 512.0 630.0 Q 567.0 609.9 622.0 630.0 Q 677.0 650.1 732.0 630.0 " fill="none" stroke="#4EA8DE" stroke-width="3" opacity="0.10"/><path d="M 72 710.0 Q 127.0 691.1 182.0 710.0 Q 237.0 728.9 292.0 710.0 Q 347.0 691.1 402.0 710.0 Q 457.0 728.9 512.0 710.0 Q 567.0 691.1 622.0 710.0 Q 677.0 728.9 732.0 710.0 " fill="none" stroke="#4EA8DE" stroke-width="3" opacity="0.10"/><path d="M 72 790.0 Q 127.0 765.6 182.0 790.0 Q 237.0 814.4 292.0 790.0 Q 347.0 765.6 402.0 790.0 Q 457.0 814.4 512.0 790.0 Q 567.0 765.6 622.0 790.0 Q 677.0 814.4 732.0 790.0 " fill="none" stroke="#4EA8DE" stroke-width="3" opacity="0.10"/><path d="M 72 870.0 Q 127.0 843.2 182.0 870.0 Q 237.0 896.8 292.0 870.0 Q 347.0 843.2 402.0 870.0 Q 457.0 896.8 512.0 870.0 Q 567.0 843.2 622.0 870.0 Q 677.0 896.8 732.0 870.0 " fill="none" stroke="#4EA8DE" stroke-width="3" opacity="0.10"/></g>
        <g opacity="0.95">
          <circle cx="375.0" cy="500" r="88" fill="#ffffff" opacity="0.62" stroke="#1E1B2E" stroke-width="7"/>
          <circle cx="347.0" cy="482" r="10" fill="#1E1B2E" opacity="0.9"/>
          <circle cx="403.0" cy="482" r="10" fill="#1E1B2E" opacity="0.9"/>
          <path d="M 340.0 518 Q 375.0 540 410.0 518" fill="none" stroke="#1E1B2E" stroke-width="8" stroke-linecap="round"/>
          <rect x="235.0" y="570" width="280" height="330" rx="75" fill="#ffffff" opacity="0.50" stroke="#1E1B2E" stroke-width="7"/>
          <path d="M 265.0 680 Q 375.0 760 485.0 680" fill="none" stroke="#4EA8DE" stroke-width="10" opacity="0.35" stroke-linecap="round"/>
        </g>
        
        <g filter="url(#glow)">
          <circle cx="205.0" cy="720" r="85" fill="#ffffff" opacity="0.50" stroke="#1E1B2E" stroke-width="6"/>
          
        <g>
          <path d="M 151.0 684.0
                   L 259.0 684.0
                   L 246.4 738.0
                   Q 205.0 769.5 163.6 738.0
                   Z" fill="#ffffff" stroke="#1E1B2E" stroke-width="7"/>
          <path d="M 258.1 699.8
                   Q 290.5 720.0 258.1 740.2" fill="none" stroke="#1E1B2E" stroke-width="10" stroke-linecap="round" opacity="0.9"/>
          <rect x="183.4" y="769.5" width="43.2" height="27.0" rx="9.0" fill="#4EA8DE" opacity="0.45" stroke="#1E1B2E" stroke-width="6"/>
          <circle cx="205.0" cy="672.8" r="9.9" fill="#4EA8DE" opacity="0.55"/>
          <path d="M 184.8 672.8 Q 205.0 654.8 225.2 672.8" fill="none" stroke="#4EA8DE" stroke-width="7" opacity="0.55" stroke-linecap="round"/>
        </g>
        
        </g>
        <g filter="url(#glow)">
        <g>
          <path d="M 481.0 624.0
                   L 649.0 624.0
                   L 629.4 708.0
                   Q 565.0 757.0 500.6 708.0
                   Z" fill="#ffffff" stroke="#1E1B2E" stroke-width="7"/>
          <path d="M 647.6 648.5
                   Q 698.0 680.0 647.6 711.5" fill="none" stroke="#1E1B2E" stroke-width="10" stroke-linecap="round" opacity="0.9"/>
          <rect x="531.4" y="757.0" width="67.2" height="42.0" rx="14.0" fill="#4EA8DE" opacity="0.45" stroke="#1E1B2E" stroke-width="6"/>
          <circle cx="565.0" cy="606.5" r="15.4" fill="#4EA8DE" opacity="0.55"/>
          <path d="M 533.5 606.5 Q 565.0 578.5 596.5 606.5" fill="none" stroke="#4EA8DE" stroke-width="7" opacity="0.55" stroke-linecap="round"/>
        </g>
        </g><line x1="138.5" y1="568.3" x2="567.4" y2="376.8" stroke="#ffffff" stroke-width="2.2" opacity="0.20"/>
<line x1="567.4" y1="376.8" x2="471.9" y2="349.7" stroke="#ffffff" stroke-width="2.2" opacity="0.09"/>
<line x1="471.9" y1="349.7" x2="422.5" y2="658.4" stroke="#ffffff" stroke-width="2.2" opacity="0.16"/>
<line x1="422.5" y1="658.4" x2="133.5" y2="396.7" stroke="#ffffff" stroke-width="2.2" opacity="0.21"/>
<line x1="133.5" y1="396.7" x2="249.9" y2="402.6" stroke="#ffffff" stroke-width="2.2" opacity="0.10"/>
<line x1="249.9" y1="402.6" x2="553.0" y2="660.8" stroke="#ffffff" stroke-width="2.2" opacity="0.22"/>
<circle cx="211.7" cy="539.5" r="2.1" fill="#ffffff" opacity="0.7443630102708105"/>
<circle cx="212.1" cy="419.2" r="1.8" fill="#ffffff" opacity="0.5304293721393178"/>
<circle cx="422.5" cy="658.4" r="3.0" fill="#ffffff" opacity="0.636041584153076"/>
<circle cx="515.9" cy="665.0" r="3.7" fill="#ffffff" opacity="0.800157447717904"/>
<circle cx="216.1" cy="393.5" r="2.0" fill="#ffffff" opacity="0.6756019195911487"/>
<circle cx="133.5" cy="396.7" r="4.7" fill="#ffffff" opacity="0.7677452377433227"/>
<circle cx="138.5" cy="568.3" r="4.7" fill="#ffffff" opacity="0.707314823115197"/>
<circle cx="553.0" cy="660.8" r="2.4" fill="#ffffff" opacity="0.42879403357442547"/>
<circle cx="567.4" cy="376.8" r="3.2" fill="#ffffff" opacity="0.5475417331715036"/>
<circle cx="297.0" cy="534.7" r="3.6" fill="#ffffff" opacity="0.30817593534948917"/>
<circle cx="328.0" cy="646.2" r="3.1" fill="#ffffff" opacity="0.5622744425248793"/>
<circle cx="249.9" cy="402.6" r="4.1" fill="#ffffff" opacity="0.7365235076781457"/>
<circle cx="300.1" cy="590.7" r="4.1" fill="#ffffff" opacity="0.7212912809088016"/>
<circle cx="471.9" cy="349.7" r="2.2" fill="#ffffff" opacity="0.7681760682389869"/>
<rect x="42" y="1030" width="666" height="160" rx="30" fill="#ffffffd9" stroke="#1E1B2E" stroke-width="4" opacity="0.95"/>
<text x="375.0" y="1104" font-family="ui-sans-serif, system-ui, -apple-system, Segoe UI, Roboto, Helvetica, Arial" font-size="46" font-weight="900" text-anchor="middle" fill="#1E1B2E" opacity="0.98">Knight of Cups</text>
<text x="375.0" y="1152" font-family="ui-sans-serif, system-ui, -apple-system, Segoe UI, Roboto, Helvetica, Arial" font-size="28" font-weight="700" text-anchor="middle" fill="#1E1B2E" opacity="0.7">Bold</text>

    <g opacity="0.55">
      <circle cx="127" cy="1176" r="14" fill="#4EA8DE"/>
      <circle cx="623" cy="1176" r="14" fill="#4EA8DE"/>
      <path d="M 162 1176 L 588 1176" stroke="#4EA8DE" stroke-width="4" opacity="0.45" stroke-linecap="round"/>
    </g>
    
</svg>
