<svg xmlns="http://www.w3.org/2000/svg" width="750" height="1250" viewBox="0 0 750 1250">
  <title>Queen of Cups</title>


  <defs>
    <linearGradient id="g" x1="0" y1="0" x2="1" y2="1">
      <stop offset="0%" stop-color="#FCEFEF"/>
      <stop offset="100%" stop-color="#E6FFFA"/>
    </linearGradient>

    <!-- paper texture -->
    <filter id="paper" x="-20%" y="-20%" width="140%" height="140%">
      <feTurbulence type="fractalNoise" baseFrequency="0.018" numOctaves="3" seed="2629" result="noise"/>
      <feColorMatrix in="noise" type="matrix"
        values="1 0 0 0 0
                0 1 0 0 0
                0 0 1 0 0
                0 0 0 0.25 0" result="noiseAlpha"/>
      <feComposite in="noiseAlpha" in2="SourceGraphic" operator="over"/>
    </filter>

    <!-- soft glow -->
    <filter id="glow" x="-30%" y="-30%" width="160%" height="160%">
      <feGaussianBlur stdDeviation="10" result="blur"/>
      <feColorMatrix type="matrix" values="
        1 0 0 0 0
        0 1 0 0 0
        0 0 1 0 0
        0 0 0 0.32 0" result="blurAlpha"/>
      <feMerge>
        <feMergeNode in="blurAlpha"/>
        <feMergeNode in="SourceGraphic"/>
      </feMerge>
    </filter>
  </defs>

<rect x="0" y="0" width="750" height="1250" rx="58" ry="58" fill="url(#g)" stroke="none" stroke-width="0" opacity="1"/>
<rect x="0" y="0" width="750" height="1250" fill="#ffffff" opacity="0.08"/>
<line x1="702.8" y1="202.8" x2="616.1" y2="700.1" stroke="#ffffff" stroke-width="2.2" opacity="0.13"/>
<line x1="616.1" y1="700.1" x2="439.2" y2="477.8" stroke="#ffffff" stroke-width="2.2" opacity="0.12"/>
<line x1="439.2" y1="477.8" x2="45.5" y2="917.9" stroke="#ffffff" stroke-width="2.2" opacity="0.17"/>
<line x1="45.5" y1="917.9" x2="287.1" y2="516.9" stroke="#ffffff" stroke-width="2.2" opacity="0.11"/>
<line x1="287.1" y1="516.9" x2="115.7" y2="250.8" stroke="#ffffff" stroke-width="2.2" opacity="0.13"/>
<line x1="115.7" y1="250.8" x2="637.2" y2="959.6" stroke="#ffffff" stroke-width="2.2" opacity="0.08"/>
<line x1="637.2" y1="959.6" x2="683.3" y2="856.1" stroke="#ffffff" stroke-width="2.2" opacity="0.21"/>
<line x1="683.3" y1="856.1" x2="468.7" y2="753.1" stroke="#ffffff" stroke-width="2.2" opacity="0.11"/>
<line x1="468.7" y1="753.1" x2="584.7" y2="522.1" stroke="#ffffff" stroke-width="2.2" opacity="0.15"/>
<line x1="584.7" y1="522.1" x2="189.8" y2="870.9" stroke="#ffffff" stroke-width="2.2" opacity="0.10"/>
<line x1="189.8" y1="870.9" x2="193.9" y2="655.9" stroke="#ffffff" stroke-width="2.2" opacity="0.21"/>
<line x1="193.9" y1="655.9" x2="633.2" y2="1062.8" stroke="#ffffff" stroke-width="2.2" opacity="0.12"/>
<line x1="633.2" y1="1062.8" x2="391.9" y2="421.9" stroke="#ffffff" stroke-width="2.2" opacity="0.11"/>
<line x1="391.9" y1="421.9" x2="627.8" y2="1140.3" stroke="#ffffff" stroke-width="2.2" opacity="0.09"/>
<line x1="627.8" y1="1140.3" x2="684.9" y2="530.9" stroke="#ffffff" stroke-width="2.2" opacity="0.17"/>
<line x1="684.9" y1="530.9" x2="307.0" y2="422.7" stroke="#ffffff" stroke-width="2.2" opacity="0.13"/>
<line x1="307.0" y1="422.7" x2="63.7" y2="891.1" stroke="#ffffff" stroke-width="2.2" opacity="0.20"/>
<line x1="63.7" y1="891.1" x2="345.6" y2="1058.3" stroke="#ffffff" stroke-width="2.2" opacity="0.11"/>
<circle cx="653.0" cy="871.3" r="3.8" fill="#ffffff" opacity="0.3548975244090411"/>
<circle cx="683.3" cy="856.1" r="2.9" fill="#ffffff" opacity="0.5256770209010839"/>
<circle cx="263.3" cy="135.6" r="2.1" fill="#ffffff" opacity="0.263365115735609"/>
<circle cx="115.7" cy="250.8" r="4.8" fill="#ffffff" opacity="0.28457656623577443"/>
<circle cx="345.6" cy="1058.3" r="2.6" fill="#ffffff" opacity="0.788778103165764"/>
<circle cx="421.0" cy="173.8" r="3.0" fill="#ffffff" opacity="0.8229926896906836"/>
<circle cx="393.9" cy="612.7" r="4.0" fill="#ffffff" opacity="0.7695131035736518"/>
<circle cx="588.9" cy="616.4" r="2.7" fill="#ffffff" opacity="0.33993378510142147"/>
<circle cx="98.0" cy="209.1" r="2.1" fill="#ffffff" opacity="0.6862659287675699"/>
<circle cx="468.7" cy="753.1" r="3.0" fill="#ffffff" opacity="0.28393762893697927"/>
<circle cx="371.0" cy="557.0" r="3.5" fill="#ffffff" opacity="0.433410334352618"/>
<circle cx="371.0" cy="413.3" r="3.5" fill="#ffffff" opacity="0.31905387813672625"/>
<circle cx="102.4" cy="587.6" r="4.3" fill="#ffffff" opacity="0.35607891444406076"/>
<circle cx="564.9" cy="1092.2" r="3.3" fill="#ffffff" opacity="0.6451307179269112"/>
<circle cx="186.7" cy="161.6" r="3.6" fill="#ffffff" opacity="0.7892681485808104"/>
<circle cx="637.2" cy="959.6" r="3.3" fill="#ffffff" opacity="0.8366201820345516"/>
<circle cx="189.8" cy="870.9" r="2.6" fill="#ffffff" opacity="0.3151793180722204"/>
<circle cx="63.7" cy="891.1" r="4.0" fill="#ffffff" opacity="0.5808820514519488"/>
<circle cx="220.6" cy="176.0" r="2.5" fill="#ffffff" opacity="0.36635151320426074"/>
<circle cx="627.8" cy="1140.3" r="3.1" fill="#ffffff" opacity="0.4593398975441322"/>
<circle cx="45.5" cy="917.9" r="2.3" fill="#ffffff" opacity="0.7608500273886274"/>
<circle cx="669.9" cy="447.4" r="3.5" fill="#ffffff" opacity="0.470081617698222"/>
<circle cx="439.2" cy="477.8" r="3.8" fill="#ffffff" opacity="0.7166438440725255"/>
<circle cx="185.1" cy="841.6" r="3.4" fill="#ffffff" opacity="0.8449994802621216"/>
<circle cx="398.2" cy="621.2" r="2.9" fill="#ffffff" opacity="0.6794546204543402"/>
<circle cx="60.3" cy="1180.6" r="2.1" fill="#ffffff" opacity="0.37141595578495634"/>
<circle cx="307.0" cy="422.7" r="4.3" fill="#ffffff" opacity="0.5738161295733142"/>
<circle cx="684.9" cy="530.9" r="4.5" fill="#ffffff" opacity="0.5262093132129926"/>
<circle cx="254.6" cy="955.2" r="3.2" fill="#ffffff" opacity="0.6287175742087707"/>
<circle cx="616.1" cy="700.1" r="4.8" fill="#ffffff" opacity="0.5198932510731122"/>
<circle cx="559.3" cy="113.4" r="4.2" fill="#ffffff" opacity="0.825546527761349"/>
<circle cx="311.0" cy="94.7" r="3.5" fill="#ffffff" opacity="0.6474976663479073"/>
<circle cx="235.1" cy="665.0" r="4.2" fill="#ffffff" opacity="0.6785779718598468"/>
<circle cx="249.6" cy="435.7" r="2.7" fill="#ffffff" opacity="0.6646609048086727"/>
<circle cx="397.8" cy="410.0" r="2.3" fill="#ffffff" opacity="0.8066141334088704"/>
<circle cx="633.2" cy="1062.8" r="3.1" fill="#ffffff" opacity="0.2655894412266004"/>
<circle cx="299.1" cy="381.2" r="2.7" fill="#ffffff" opacity="0.36721392564974564"/>
<circle cx="193.9" cy="655.9" r="2.8" fill="#ffffff" opacity="0.786911174627096"/>
<circle cx="685.1" cy="621.4" r="2.1" fill="#ffffff" opacity="0.6518941571952731"/>
<circle cx="174.4" cy="657.8" r="2.4" fill="#ffffff" opacity="0.6893431662228928"/>
<circle cx="89.0" cy="741.4" r="2.0" fill="#ffffff" opacity="0.5678748011742106"/>
<circle cx="287.1" cy="516.9" r="2.7" fill="#ffffff" opacity="0.5411617043049595"/>
<circle cx="584.7" cy="522.1" r="3.9" fill="#ffffff" opacity="0.4038251380179042"/>
<circle cx="590.6" cy="812.2" r="3.7" fill="#ffffff" opacity="0.5277476825806362"/>
<circle cx="144.3" cy="682.6" r="2.6" fill="#ffffff" opacity="0.46632668839989333"/>
<circle cx="552.1" cy="587.8" r="2.7" fill="#ffffff" opacity="0.622018217619356"/>
<circle cx="65.1" cy="636.9" r="2.7" fill="#ffffff" opacity="0.4282000835230757"/>
<circle cx="391.9" cy="421.9" r="2.4" fill="#ffffff" opacity="0.3301305266319303"/>
<circle cx="491.1" cy="1189.9" r="3.6" fill="#ffffff" opacity="0.31949522423627613"/>
<circle cx="702.8" cy="202.8" r="3.6" fill="#ffffff" opacity="0.4369260625333601"/>
<g filter="url(#paper)"><rect x="42" y="42" width="666" height="1166" rx="54" ry="54" fill="none" stroke="#1E1B2E" stroke-width="8" opacity="0.95"/>
<rect x="60" y="60" width="630" height="1130" rx="46" ry="46" fill="none" stroke="#4EA8DE" stroke-width="3" opacity="0.35"/>

  <g opacity="0.42">
    <circle cx="375.0" cy="560" r="285" fill="none" stroke="#4EA8DE" stroke-width="4.2" opacity="0.42"/>
    <circle cx="375.0" cy="560" r="233.7" fill="none" stroke="#4EA8DE" stroke-width="2.2" opacity="0.23"/>
    <line x1="642.0" y1="560.0" x2="674.0" y2="560.0" stroke="#4EA8DE" stroke-width="3.2" opacity="0.23" stroke-linecap="round"/><line x1="606.2" y1="693.5" x2="633.9" y2="709.5" stroke="#4EA8DE" stroke-width="3.2" opacity="0.23" stroke-linecap="round"/><line x1="508.5" y1="791.2" x2="524.5" y2="818.9" stroke="#4EA8DE" stroke-width="3.2" opacity="0.23" stroke-linecap="round"/><line x1="375.0" y1="827.0" x2="375.0" y2="859.0" stroke="#4EA8DE" stroke-width="3.2" opacity="0.23" stroke-linecap="round"/><line x1="241.5" y1="791.2" x2="225.5" y2="818.9" stroke="#4EA8DE" stroke-width="3.2" opacity="0.23" stroke-linecap="round"/><line x1="143.8" y1="693.5" x2="116.1" y2="709.5" stroke="#4EA8DE" stroke-width="3.2" opacity="0.23" stroke-linecap="round"/><line x1="108.0" y1="560.0" x2="76.0" y2="560.0" stroke="#4EA8DE" stroke-width="3.2" opacity="0.23" stroke-linecap="round"/><line x1="143.8" y1="426.5" x2="116.1" y2="410.5" stroke="#4EA8DE" stroke-width="3.2" opacity="0.23" stroke-linecap="round"/><line x1="241.5" y1="328.8" x2="225.5" y2="301.1" stroke="#4EA8DE" stroke-width="3.2" opacity="0.23" stroke-linecap="round"/><line x1="375.0" y1="293.0" x2="375.0" y2="261.0" stroke="#4EA8DE" stroke-width="3.2" opacity="0.23" stroke-linecap="round"/><line x1="508.5" y1="328.8" x2="524.5" y2="301.1" stroke="#4EA8DE" stroke-width="3.2" opacity="0.23" stroke-linecap="round"/><line x1="606.2" y1="426.5" x2="633.9" y2="410.5" stroke="#4EA8DE" stroke-width="3.2" opacity="0.23" stroke-linecap="round"/>
    <circle cx="659.9" cy="550.8" r="3.0" fill="#4EA8DE" opacity="0.35"/><circle cx="649.2" cy="637.8" r="3.2" fill="#4EA8DE" opacity="0.33"/><circle cx="617.7" cy="709.4" r="3.1" fill="#4EA8DE" opacity="0.32"/><circle cx="575.0" cy="763.1" r="3.4" fill="#4EA8DE" opacity="0.35"/><circle cx="512.8" cy="809.5" r="2.7" fill="#4EA8DE" opacity="0.34"/><circle cx="458.3" cy="832.5" r="3.7" fill="#4EA8DE" opacity="0.38"/><circle cx="366.2" cy="844.9" r="2.9" fill="#4EA8DE" opacity="0.42"/><circle cx="297.2" cy="834.2" r="3.7" fill="#4EA8DE" opacity="0.21"/><circle cx="237.7" cy="809.7" r="3.5" fill="#4EA8DE" opacity="0.40"/><circle cx="174.7" cy="762.8" r="3.4" fill="#4EA8DE" opacity="0.36"/><circle cx="126.7" cy="699.9" r="3.0" fill="#4EA8DE" opacity="0.42"/><circle cx="100.1" cy="635.3" r="3.0" fill="#4EA8DE" opacity="0.33"/><circle cx="90.0" cy="559.0" r="2.9" fill="#4EA8DE" opacity="0.39"/><circle cx="100.6" cy="483.0" r="3.8" fill="#4EA8DE" opacity="0.33"/><circle cx="129.6" cy="415.1" r="2.7" fill="#4EA8DE" opacity="0.43"/><circle cx="176.2" cy="355.8" r="3.4" fill="#4EA8DE" opacity="0.42"/><circle cx="229.5" cy="314.9" r="3.9" fill="#4EA8DE" opacity="0.25"/><circle cx="303.4" cy="284.1" r="3.9" fill="#4EA8DE" opacity="0.32"/><circle cx="382.5" cy="275.1" r="3.6" fill="#4EA8DE" opacity="0.42"/><circle cx="449.8" cy="285.0" r="3.8" fill="#4EA8DE" opacity="0.44"/><circle cx="515.3" cy="311.9" r="3.5" fill="#4EA8DE" opacity="0.27"/><circle cx="574.0" cy="356.0" r="3.0" fill="#4EA8DE" opacity="0.18"/><circle cx="621.0" cy="416.1" r="4.0" fill="#4EA8DE" opacity="0.34"/><circle cx="650.7" cy="487.9" r="2.8" fill="#4EA8DE" opacity="0.33"/>
  </g>

<g><g transform="translate(50,54)"><path d="M 14.4 117.0 C 54.0 14.4, 126.0 14.4, 165.6 117.0" fill="none" stroke="#4EA8DE" stroke-width="6" opacity="0.55" stroke-linecap="round"/></g><g transform="translate(700,54) scale(-1,1)"><path d="M 14.4 117.0 C 54.0 14.4, 126.0 14.4, 165.6 117.0" fill="none" stroke="#4EA8DE" stroke-width="6" opacity="0.55" stroke-linecap="round"/></g><g transform="translate(50,1196) scale(1,-1)"><path d="M 14.4 117.0 C 54.0 14.4, 126.0 14.4, 165.6 117.0" fill="none" stroke="#4EA8DE" stroke-width="6" opacity="0.55" stroke-linecap="round"/></g><g transform="translate(700,1196) scale(-1,-1)"><path d="M 14.4 117.0 C 54.0 14.4, 126.0 14.4, 165.6 117.0" fill="none" stroke="#4EA8DE" stroke-width="6" opacity="0.55" stroke-linecap="round"/></g></g></g>
<rect x="42" y="60" width="666" height="92" rx="30" fill="#ffffffcc" stroke="#1E1B2E" stroke-width="4" opacity="0.95"/>
<text x="375.0" y="122" font-family="ui-sans-serif, system-ui, -apple-system, Segoe UI, Roboto, Helvetica, Arial" font-size="30" font-weight="800" text-anchor="middle" fill="#1E1B2E" opacity="0.95" letter-spacing="1">MINOR ARCANA • CUPS</text>
<rect x="76" y="170" width="598" height="760" rx="52" fill="#ffffff" opacity="0.15"/>
<g><path d="M 72 230.0 Q 127.0 209.5 182.0 230.0 Q 237.0 250.5 292.0 230.0 Q 347.0 209.5 402.0 230.0 Q 457.0 250.5 512.0 230.0 Q 567.0 209.5 622.0 230.0 Q 677.0 250.5 732.0 230.0 " fill="none" stroke="#4EA8DE" stroke-width="3" opacity="0.10"/><path d="M 72 310.0 Q 127.0 287.3 182.0 310.0 Q 237.0 332.7 292.0 310.0 Q 347.0 287.3 402.0 310.0 Q 457.0 332.7 512.0 310.0 Q 567.0 287.3 622.0 310.0 Q 677.0 332.7 732.0 310.0 " fill="none" stroke="#4EA8DE" stroke-width="3" opacity="0.10"/><path d="M 72 390.0 Q 127.0 363.4 182.0 390.0 Q 237.0 416.6 292.0 390.0 Q 347.0 363.4 402.0 390.0 Q 457.0 416.6 512.0 390.0 Q 567.0 363.4 622.0 390.0 Q 677.0 416.6 732.0 390.0 " fill="none" stroke="#4EA8DE" stroke-width="3" opacity="0.10"/><path d="M 72 470.0 Q 127.0 449.2 182.0 470.0 Q 237.0 490.8 292.0 470.0 Q 347.0 449.2 402.0 470.0 Q 457.0 490.8 512.0 470.0 Q 567.0 449.2 622.0 470.0 Q 677.0 490.8 732.0 470.0 " fill="none" stroke="#4EA8DE" stroke-width="3" opacity="0.10"/><path d="M 72 550.0 Q 127.0 518.0 182.0 550.0 Q 237.0 582.0 292.0 550.0 Q 347.0 518.0 402.0 550.0 Q 457.0 582.0 512.0 550.0 Q 567.0 518.0 622.0 550.0 Q 677.0 582.0 732.0 550.0 " fill="none" stroke="#4EA8DE" stroke-width="3" opacity="0.10"/><path d="M 72 630.0 Q 127.0 605.7 182.0 630.0 Q 237.0 654.3 292.0 630.0 Q 347.0 605.7 402.0 630.0 Q 457.0 654.3 512.0 630.0 Q 567.0 605.7 622.0 630.0 Q 677.0 654.3 732.0 630.0 " fill="none" stroke="#4EA8DE" stroke-width="3" opacity="0.10"/><path d="M 72 710.0 Q 127.0 683.6 182.0 710.0 Q 237.0 736.4 292.0 710.0 Q 347.0 683.6 402.0 710.0 Q 457.0 736.4 512.0 710.0 Q 567.0 683.6 622.0 710.0 Q 677.0 736.4 732.0 710.0 " fill="none" stroke="#4EA8DE" stroke-width="3" opacity="0.10"/><path d="M 72 790.0 Q 127.0 763.2 182.0 790.0 Q 237.0 816.8 292.0 790.0 Q 347.0 763.2 402.0 790.0 Q 457.0 816.8 512.0 790.0 Q 567.0 763.2 622.0 790.0 Q 677.0 816.8 732.0 790.0 " fill="none" stroke="#4EA8DE" stroke-width="3" opacity="0.10"/><path d="M 72 870.0 Q 127.0 849.0 182.0 870.0 Q 237.0 891.0 292.0 870.0 Q 347.0 849.0 402.0 870.0 Q 457.0 891.0 512.0 870.0 Q 567.0 849.0 622.0 870.0 Q 677.0 891.0 732.0 870.0 " fill="none" stroke="#4EA8DE" stroke-width="3" opacity="0.10"/></g><path d="M 255.0 320 Q 375.0 260 495.0 320 L 475.0 370 L 275.0 370 Z" fill="#ffffff" opacity="0.55" stroke="#4EA8DE" stroke-width="6"/>
        <g opacity="0.95">
          <circle cx="375.0" cy="500" r="88" fill="#ffffff" opacity="0.62" stroke="#1E1B2E" stroke-width="7"/>
          <circle cx="347.0" cy="482" r="10" fill="#1E1B2E" opacity="0.9"/>
          <circle cx="403.0" cy="482" r="10" fill="#1E1B2E" opacity="0.9"/>
          <path d="M 340.0 518 Q 375.0 540 410.0 518" fill="none" stroke="#1E1B2E" stroke-width="8" stroke-linecap="round"/>
          <rect x="235.0" y="570" width="280" height="330" rx="75" fill="#ffffff" opacity="0.50" stroke="#1E1B2E" stroke-width="7"/>
          <path d="M 265.0 680 Q 375.0 760 485.0 680" fill="none" stroke="#4EA8DE" stroke-width="10" opacity="0.35" stroke-linecap="round"/>
        </g>
        
        <g filter="url(#glow)">
          <circle cx="205.0" cy="720" r="85" fill="#ffffff" opacity="0.50" stroke="#1E1B2E" stroke-width="6"/>
          
        <g>
          <path d="M 151.0 684.0
                   L 259.0 684.0
                   L 246.4 738.0
                   Q 205.0 769.5 163.6 738.0
                   Z" fill="#ffffff" stroke="#1E1B2E" stroke-width="7"/>
          <path d="M 258.1 699.8
                   Q 290.5 720.0 258.1 740.2" fill="none" stroke="#1E1B2E" stroke-width="10" stroke-linecap="round" opacity="0.9"/>
          <rect x="183.4" y="769.5" width="43.2" height="27.0" rx="9.0" fill="#4EA8DE" opacity="0.45" stroke="#1E1B2E" stroke-width="6"/>
          <circle cx="205.0" cy="672.8" r="9.9" fill="#4EA8DE" opacity="0.55"/>
          <path d="M 184.8 672.8 Q 205.0 654.8 225.2 672.8" fill="none" stroke="#4EA8DE" stroke-width="7" opacity="0.55" stroke-linecap="round"/>
        </g>
        
        </g>
        <g filter="url(#glow)">
        <g>
          <path d="M 481.0 624.0
                   L 649.0 624.0
                   L 629.4 708.0
                   Q 565.0 757.0 500.6 708.0
                   Z" fill="#ffffff" stroke="#1E1B2E" stroke-width="7"/>
          <path d="M 647.6 648.5
                   Q 698.0 680.0 647.6 711.5" fill="none" stroke="#1E1B2E" stroke-width="10" stroke-linecap="round" opacity="0.9"/>
          <rect x="531.4" y="757.0" width="67.2" height="42.0" rx="14.0" fill="#4EA8DE" opacity="0.45" stroke="#1E1B2E" stroke-width="6"/>
          <circle cx="565.0" cy="606.5" r="15.4" fill="#4EA8DE" opacity="0.55"/>
          <path d="M 533.5 606.5 Q 565.0 578.5 596.5 606.5" fill="none" stroke="#4EA8DE" stroke-width="7" opacity="0.55" stroke-linecap="round"/>
        </g>
        </g><line x1="542.1" y1="390.1" x2="234.4" y2="296.2" stroke="#ffffff" stroke-width="2.2" opacity="0.15"/>
<line x1="234.4" y1="296.2" x2="289.9" y2="287.0" stroke="#ffffff" stroke-width="2.2" opacity="0.13"/>
<line x1="289.9" y1="287.0" x2="451.5" y2="687.7" stroke="#ffffff" stroke-width="2.2" opacity="0.12"/>
<line x1="451.5" y1="687.7" x2="312.9" y2="292.1" stroke="#ffffff" stroke-width="2.2" opacity="0.21"/>
<line x1="312.9" y1="292.1" x2="585.0" y2="330.6" stroke="#ffffff" stroke-width="2.2" opacity="0.17"/>
<line x1="585.0" y1="330.6" x2="320.5" y2="523.5" stroke="#ffffff" stroke-width="2.2" opacity="0.10"/>
<circle cx="320.5" cy="523.5" r="1.7" fill="#ffffff" opacity="0.26165844738808197"/>
<circle cx="532.7" cy="313.7" r="4.0" fill="#ffffff" opacity="0.7626761938447683"/>
<circle cx="162.4" cy="637.3" r="4.6" fill="#ffffff" opacity="0.7410660746409865"/>
<circle cx="411.7" cy="379.4" r="2.2" fill="#ffffff" opacity="0.766444791856337"/>
<circle cx="170.4" cy="425.4" r="2.7" fill="#ffffff" opacity="0.7078349590520899"/>
<circle cx="289.9" cy="287.0" r="2.4" fill="#ffffff" opacity="0.61291969391577"/>
<circle cx="585.0" cy="330.6" r="4.6" fill="#ffffff" opacity="0.3885840370084893"/>
<circle cx="312.9" cy="292.1" r="4.6" fill="#ffffff" opacity="0.7082503764537363"/>
<circle cx="451.5" cy="687.7" r="3.3" fill="#ffffff" opacity="0.54335117093995"/>
<circle cx="234.4" cy="296.2" r="1.8" fill="#ffffff" opacity="0.40315814714717924"/>
<circle cx="359.4" cy="535.8" r="4.2" fill="#ffffff" opacity="0.6373903115263556"/>
<circle cx="145.1" cy="242.4" r="2.4" fill="#ffffff" opacity="0.7912243363617116"/>
<circle cx="474.0" cy="488.3" r="4.7" fill="#ffffff" opacity="0.2951277742672648"/>
<circle cx="542.1" cy="390.1" r="1.7" fill="#ffffff" opacity="0.7033592703323528"/>
<rect x="42" y="1030" width="666" height="160" rx="30" fill="#ffffffd9" stroke="#1E1B2E" stroke-width="4" opacity="0.95"/>
<text x="375.0" y="1104" font-family="ui-sans-serif, system-ui, -apple-system, Segoe UI, Roboto, Helvetica, Arial" font-size="46" font-weight="900" text-anchor="middle" fill="#1E1B2E" opacity="0.98">Queen of Cups</text>
<text x="375.0" y="1152" font-family="ui-sans-serif, system-ui, -apple-system, Segoe UI, Roboto, Helvetica, Arial" font-size="28" font-weight="700" text-anchor="middle" fill="#1E1B2E" opacity="0.7">Warm</text>

    <g opacity="0.55">
      <circle cx="127" cy="1176" r="14" fill="#4EA8DE"/>
      <circle cx="623" cy="1176" r="14" fill="#4EA8DE"/>
      <path d="M 162 1176 L 588 1176" stroke="#4EA8DE" stroke-width="4" opacity="0.45" stroke-linecap="round"/>
    </g>
    
</svg>
