<svg xmlns="http://www.w3.org/2000/svg" width="750" height="1250" viewBox="0 0 750 1250">
  <title>King of Cups</title>


  <defs>
    <linearGradient id="g" x1="0" y1="0" x2="1" y2="1">
      <stop offset="0%" stop-color="#EAF7FF"/>
      <stop offset="100%" stop-color="#F3E6FF"/>
    </linearGradient>

    <!-- paper texture -->
    <filter id="paper" x="-20%" y="-20%" width="140%" height="140%">
      <feTurbulence type="fractalNoise" baseFrequency="0.015" numOctaves="3" seed="8133" result="noise"/>
      <feColorMatrix in="noise" type="matrix"
        values="1 0 0 0 0
                0 1 0 0 0
                0 0 1 0 0
                0 0 0 0.25 0" result="noiseAlpha"/>
      <feComposite in="noiseAlpha" in2="SourceGraphic" operator="over"/>
    </filter>

    <!-- soft glow -->
    <filter id="glow" x="-30%" y="-30%" width="160%" height="160%">
      <feGaussianBlur stdDeviation="10" result="blur"/>
      <feColorMatrix type="matrix" values="
        1 0 0 0 0
        0 1 0 0 0
        0 0 1 0 0
        0 0 0 0.32 0" result="blurAlpha"/>
      <feMerge>
        <feMergeNode in="blurAlpha"/>
        <feMergeNode in="SourceGraphic"/>
      </feMerge>
    </filter>
  </defs>

<rect x="0" y="0" width="750" height="1250" rx="58" ry="58" fill="url(#g)" stroke="none" stroke-width="0" opacity="1"/>
<rect x="0" y="0" width="750" height="1250" fill="#ffffff" opacity="0.08"/>
<line x1="117.7" y1="489.4" x2="337.9" y2="562.2" stroke="#ffffff" stroke-width="2.2" opacity="0.15"/>
<line x1="337.9" y1="562.2" x2="111.4" y2="730.1" stroke="#ffffff" stroke-width="2.2" opacity="0.08"/>
<line x1="111.4" y1="730.1" x2="399.0" y2="1118.1" stroke="#ffffff" stroke-width="2.2" opacity="0.10"/>
<line x1="399.0" y1="1118.1" x2="98.8" y2="1049.2" stroke="#ffffff" stroke-width="2.2" opacity="0.13"/>
<line x1="98.8" y1="1049.2" x2="475.4" y2="586.0" stroke="#ffffff" stroke-width="2.2" opacity="0.15"/>
<line x1="475.4" y1="586.0" x2="615.2" y2="349.4" stroke="#ffffff" stroke-width="2.2" opacity="0.11"/>
<line x1="615.2" y1="349.4" x2="655.9" y2="524.7" stroke="#ffffff" stroke-width="2.2" opacity="0.18"/>
<line x1="655.9" y1="524.7" x2="707.3" y2="985.4" stroke="#ffffff" stroke-width="2.2" opacity="0.16"/>
<line x1="707.3" y1="985.4" x2="115.9" y2="103.7" stroke="#ffffff" stroke-width="2.2" opacity="0.15"/>
<line x1="115.9" y1="103.7" x2="699.1" y2="691.0" stroke="#ffffff" stroke-width="2.2" opacity="0.10"/>
<line x1="699.1" y1="691.0" x2="244.8" y2="443.8" stroke="#ffffff" stroke-width="2.2" opacity="0.19"/>
<line x1="244.8" y1="443.8" x2="553.7" y2="198.2" stroke="#ffffff" stroke-width="2.2" opacity="0.09"/>
<line x1="553.7" y1="198.2" x2="489.2" y2="255.7" stroke="#ffffff" stroke-width="2.2" opacity="0.14"/>
<line x1="489.2" y1="255.7" x2="708.0" y2="461.7" stroke="#ffffff" stroke-width="2.2" opacity="0.21"/>
<line x1="708.0" y1="461.7" x2="146.9" y2="658.7" stroke="#ffffff" stroke-width="2.2" opacity="0.15"/>
<line x1="146.9" y1="658.7" x2="424.8" y2="685.8" stroke="#ffffff" stroke-width="2.2" opacity="0.10"/>
<line x1="424.8" y1="685.8" x2="354.9" y2="645.6" stroke="#ffffff" stroke-width="2.2" opacity="0.12"/>
<line x1="354.9" y1="645.6" x2="456.2" y2="1083.3" stroke="#ffffff" stroke-width="2.2" opacity="0.21"/>
<circle cx="146.9" cy="658.7" r="3.9" fill="#ffffff" opacity="0.6938813165891861"/>
<circle cx="375.5" cy="325.6" r="3.2" fill="#ffffff" opacity="0.443477769135007"/>
<circle cx="707.3" cy="985.4" r="2.7" fill="#ffffff" opacity="0.7279461131478824"/>
<circle cx="98.8" cy="1049.2" r="3.5" fill="#ffffff" opacity="0.5757029583481594"/>
<circle cx="699.1" cy="691.0" r="3.0" fill="#ffffff" opacity="0.6187049902117352"/>
<circle cx="554.7" cy="561.4" r="2.9" fill="#ffffff" opacity="0.5495797460000684"/>
<circle cx="553.7" cy="198.2" r="4.5" fill="#ffffff" opacity="0.8352113369911301"/>
<circle cx="399.0" cy="1118.1" r="2.7" fill="#ffffff" opacity="0.26256867818091667"/>
<circle cx="556.4" cy="817.3" r="4.2" fill="#ffffff" opacity="0.6204899836876236"/>
<circle cx="111.4" cy="730.1" r="3.8" fill="#ffffff" opacity="0.5403483270680449"/>
<circle cx="244.8" cy="443.8" r="2.2" fill="#ffffff" opacity="0.5047682889913334"/>
<circle cx="112.1" cy="691.0" r="3.4" fill="#ffffff" opacity="0.4327261648559738"/>
<circle cx="115.9" cy="103.7" r="4.7" fill="#ffffff" opacity="0.7619647445891944"/>
<circle cx="354.9" cy="645.6" r="1.7" fill="#ffffff" opacity="0.8357733973767737"/>
<circle cx="655.9" cy="524.7" r="4.1" fill="#ffffff" opacity="0.7904516216114672"/>
<circle cx="52.3" cy="643.3" r="2.5" fill="#ffffff" opacity="0.5552954421830602"/>
<circle cx="424.8" cy="685.8" r="2.9" fill="#ffffff" opacity="0.32346599377976687"/>
<circle cx="608.3" cy="424.2" r="4.4" fill="#ffffff" opacity="0.7255173490948881"/>
<circle cx="552.4" cy="291.5" r="4.0" fill="#ffffff" opacity="0.44040439458782255"/>
<circle cx="337.9" cy="562.2" r="3.9" fill="#ffffff" opacity="0.4347512966057949"/>
<circle cx="475.4" cy="586.0" r="1.6" fill="#ffffff" opacity="0.7612171200456076"/>
<circle cx="495.5" cy="632.7" r="2.5" fill="#ffffff" opacity="0.40304603631366787"/>
<circle cx="226.9" cy="91.8" r="3.4" fill="#ffffff" opacity="0.4205583800988445"/>
<circle cx="537.4" cy="1161.6" r="4.1" fill="#ffffff" opacity="0.6717533346274807"/>
<circle cx="704.4" cy="862.2" r="4.0" fill="#ffffff" opacity="0.40037683179441996"/>
<circle cx="290.8" cy="450.7" r="3.4" fill="#ffffff" opacity="0.31085891359653706"/>
<circle cx="581.3" cy="415.5" r="4.3" fill="#ffffff" opacity="0.8206961609798028"/>
<circle cx="460.4" cy="54.4" r="4.0" fill="#ffffff" opacity="0.4193214539545498"/>
<circle cx="120.2" cy="984.1" r="3.7" fill="#ffffff" opacity="0.43372306428854734"/>
<circle cx="578.4" cy="721.6" r="4.7" fill="#ffffff" opacity="0.7359329594861289"/>
<circle cx="708.0" cy="461.7" r="1.9" fill="#ffffff" opacity="0.571449886899789"/>
<circle cx="472.1" cy="709.7" r="1.8" fill="#ffffff" opacity="0.5339612541803851"/>
<circle cx="220.9" cy="216.0" r="3.9" fill="#ffffff" opacity="0.6106490646931786"/>
<circle cx="444.0" cy="254.6" r="4.2" fill="#ffffff" opacity="0.4415804553369461"/>
<circle cx="83.9" cy="373.4" r="3.6" fill="#ffffff" opacity="0.5188228583495879"/>
<circle cx="686.5" cy="757.3" r="3.7" fill="#ffffff" opacity="0.5221969747198256"/>
<circle cx="43.8" cy="382.6" r="3.6" fill="#ffffff" opacity="0.8414306809077424"/>
<circle cx="117.7" cy="489.4" r="3.2" fill="#ffffff" opacity="0.6225186947626404"/>
<circle cx="221.9" cy="1208.0" r="3.6" fill="#ffffff" opacity="0.8409251263179558"/>
<circle cx="615.2" cy="349.4" r="3.3" fill="#ffffff" opacity="0.4698087283449157"/>
<circle cx="159.1" cy="540.3" r="3.1" fill="#ffffff" opacity="0.4801882401809015"/>
<circle cx="458.7" cy="441.4" r="4.4" fill="#ffffff" opacity="0.6789908145759037"/>
<circle cx="456.2" cy="1083.3" r="3.6" fill="#ffffff" opacity="0.34771376340569027"/>
<circle cx="94.1" cy="1096.4" r="1.6" fill="#ffffff" opacity="0.7618796703494715"/>
<circle cx="521.4" cy="764.3" r="2.6" fill="#ffffff" opacity="0.4261125359103053"/>
<circle cx="447.3" cy="318.5" r="2.8" fill="#ffffff" opacity="0.6234531158542307"/>
<circle cx="425.9" cy="380.7" r="2.4" fill="#ffffff" opacity="0.5423424738519929"/>
<circle cx="424.4" cy="445.8" r="2.7" fill="#ffffff" opacity="0.6881234819422024"/>
<circle cx="431.9" cy="885.6" r="2.1" fill="#ffffff" opacity="0.7091676529199954"/>
<circle cx="489.2" cy="255.7" r="4.7" fill="#ffffff" opacity="0.4253785086219162"/>
<g filter="url(#paper)"><rect x="42" y="42" width="666" height="1166" rx="54" ry="54" fill="none" stroke="#1E1B2E" stroke-width="8" opacity="0.95"/>
<rect x="60" y="60" width="630" height="1130" rx="46" ry="46" fill="none" stroke="#4EA8DE" stroke-width="3" opacity="0.35"/>

  <g opacity="0.42">
    <circle cx="375.0" cy="560" r="285" fill="none" stroke="#4EA8DE" stroke-width="4.2" opacity="0.42"/>
    <circle cx="375.0" cy="560" r="233.7" fill="none" stroke="#4EA8DE" stroke-width="2.2" opacity="0.23"/>
    <line x1="642.0" y1="560.0" x2="674.0" y2="560.0" stroke="#4EA8DE" stroke-width="3.2" opacity="0.23" stroke-linecap="round"/><line x1="606.2" y1="693.5" x2="633.9" y2="709.5" stroke="#4EA8DE" stroke-width="3.2" opacity="0.23" stroke-linecap="round"/><line x1="508.5" y1="791.2" x2="524.5" y2="818.9" stroke="#4EA8DE" stroke-width="3.2" opacity="0.23" stroke-linecap="round"/><line x1="375.0" y1="827.0" x2="375.0" y2="859.0" stroke="#4EA8DE" stroke-width="3.2" opacity="0.23" stroke-linecap="round"/><line x1="241.5" y1="791.2" x2="225.5" y2="818.9" stroke="#4EA8DE" stroke-width="3.2" opacity="0.23" stroke-linecap="round"/><line x1="143.8" y1="693.5" x2="116.1" y2="709.5" stroke="#4EA8DE" stroke-width="3.2" opacity="0.23" stroke-linecap="round"/><line x1="108.0" y1="560.0" x2="76.0" y2="560.0" stroke="#4EA8DE" stroke-width="3.2" opacity="0.23" stroke-linecap="round"/><line x1="143.8" y1="426.5" x2="116.1" y2="410.5" stroke="#4EA8DE" stroke-width="3.2" opacity="0.23" stroke-linecap="round"/><line x1="241.5" y1="328.8" x2="225.5" y2="301.1" stroke="#4EA8DE" stroke-width="3.2" opacity="0.23" stroke-linecap="round"/><line x1="375.0" y1="293.0" x2="375.0" y2="261.0" stroke="#4EA8DE" stroke-width="3.2" opacity="0.23" stroke-linecap="round"/><line x1="508.5" y1="328.8" x2="524.5" y2="301.1" stroke="#4EA8DE" stroke-width="3.2" opacity="0.23" stroke-linecap="round"/><line x1="606.2" y1="426.5" x2="633.9" y2="410.5" stroke="#4EA8DE" stroke-width="3.2" opacity="0.23" stroke-linecap="round"/>
    <circle cx="660.0" cy="555.3" r="2.9" fill="#4EA8DE" opacity="0.26"/><circle cx="650.2" cy="634.1" r="2.8" fill="#4EA8DE" opacity="0.20"/><circle cx="617.1" cy="710.5" r="3.1" fill="#4EA8DE" opacity="0.28"/><circle cx="581.8" cy="756.1" r="3.4" fill="#4EA8DE" opacity="0.26"/><circle cx="525.3" cy="802.1" r="2.6" fill="#4EA8DE" opacity="0.24"/><circle cx="453.6" cy="834.0" r="2.8" fill="#4EA8DE" opacity="0.26"/><circle cx="375.8" cy="845.0" r="3.3" fill="#4EA8DE" opacity="0.29"/><circle cx="303.5" cy="835.9" r="3.4" fill="#4EA8DE" opacity="0.31"/><circle cx="230.4" cy="805.6" r="3.0" fill="#4EA8DE" opacity="0.18"/><circle cx="172.2" cy="760.2" r="2.7" fill="#4EA8DE" opacity="0.42"/><circle cx="132.3" cy="709.5" r="3.8" fill="#4EA8DE" opacity="0.40"/><circle cx="97.4" cy="624.5" r="3.4" fill="#4EA8DE" opacity="0.44"/><circle cx="90.0" cy="560.7" r="2.7" fill="#4EA8DE" opacity="0.25"/><circle cx="99.8" cy="486.1" r="3.4" fill="#4EA8DE" opacity="0.38"/><circle cx="124.3" cy="424.5" r="3.6" fill="#4EA8DE" opacity="0.32"/><circle cx="178.6" cy="353.5" r="3.6" fill="#4EA8DE" opacity="0.30"/><circle cx="234.0" cy="312.3" r="3.8" fill="#4EA8DE" opacity="0.26"/><circle cx="294.1" cy="286.7" r="2.7" fill="#4EA8DE" opacity="0.37"/><circle cx="377.1" cy="275.0" r="2.7" fill="#4EA8DE" opacity="0.22"/><circle cx="440.9" cy="282.7" r="3.3" fill="#4EA8DE" opacity="0.32"/><circle cx="519.4" cy="314.3" r="2.9" fill="#4EA8DE" opacity="0.22"/><circle cx="571.5" cy="353.6" r="3.7" fill="#4EA8DE" opacity="0.41"/><circle cx="618.0" cy="411.1" r="3.6" fill="#4EA8DE" opacity="0.35"/><circle cx="647.6" cy="476.9" r="3.9" fill="#4EA8DE" opacity="0.25"/>
  </g>

<g><g transform="translate(50,54)"><path d="M 14.4 117.0 C 54.0 14.4, 126.0 14.4, 165.6 117.0" fill="none" stroke="#4EA8DE" stroke-width="6" opacity="0.55" stroke-linecap="round"/></g><g transform="translate(700,54) scale(-1,1)"><path d="M 14.4 117.0 C 54.0 14.4, 126.0 14.4, 165.6 117.0" fill="none" stroke="#4EA8DE" stroke-width="6" opacity="0.55" stroke-linecap="round"/></g><g transform="translate(50,1196) scale(1,-1)"><path d="M 14.4 117.0 C 54.0 14.4, 126.0 14.4, 165.6 117.0" fill="none" stroke="#4EA8DE" stroke-width="6" opacity="0.55" stroke-linecap="round"/></g><g transform="translate(700,1196) scale(-1,-1)"><path d="M 14.4 117.0 C 54.0 14.4, 126.0 14.4, 165.6 117.0" fill="none" stroke="#4EA8DE" stroke-width="6" opacity="0.55" stroke-linecap="round"/></g></g></g>
<rect x="42" y="60" width="666" height="92" rx="30" fill="#ffffffcc" stroke="#1E1B2E" stroke-width="4" opacity="0.95"/>
<text x="375.0" y="122" font-family="ui-sans-serif, system-ui, -apple-system, Segoe UI, Roboto, Helvetica, Arial" font-size="30" font-weight="800" text-anchor="middle" fill="#1E1B2E" opacity="0.95" letter-spacing="1">MINOR ARCANA • CUPS</text>
<rect x="76" y="170" width="598" height="760" rx="52" fill="#ffffff" opacity="0.15"/>
<g><path d="M 72 230.0 Q 127.0 202.0 182.0 230.0 Q 237.0 258.0 292.0 230.0 Q 347.0 202.0 402.0 230.0 Q 457.0 258.0 512.0 230.0 Q 567.0 202.0 622.0 230.0 Q 677.0 258.0 732.0 230.0 " fill="none" stroke="#4EA8DE" stroke-width="3" opacity="0.10"/><path d="M 72 310.0 Q 127.0 281.3 182.0 310.0 Q 237.0 338.7 292.0 310.0 Q 347.0 281.3 402.0 310.0 Q 457.0 338.7 512.0 310.0 Q 567.0 281.3 622.0 310.0 Q 677.0 338.7 732.0 310.0 " fill="none" stroke="#4EA8DE" stroke-width="3" opacity="0.10"/><path d="M 72 390.0 Q 127.0 359.1 182.0 390.0 Q 237.0 420.9 292.0 390.0 Q 347.0 359.1 402.0 390.0 Q 457.0 420.9 512.0 390.0 Q 567.0 359.1 622.0 390.0 Q 677.0 420.9 732.0 390.0 " fill="none" stroke="#4EA8DE" stroke-width="3" opacity="0.10"/><path d="M 72 470.0 Q 127.0 445.5 182.0 470.0 Q 237.0 494.5 292.0 470.0 Q 347.0 445.5 402.0 470.0 Q 457.0 494.5 512.0 470.0 Q 567.0 445.5 622.0 470.0 Q 677.0 494.5 732.0 470.0 " fill="none" stroke="#4EA8DE" stroke-width="3" opacity="0.10"/><path d="M 72 550.0 Q 127.0 522.5 182.0 550.0 Q 237.0 577.5 292.0 550.0 Q 347.0 522.5 402.0 550.0 Q 457.0 577.5 512.0 550.0 Q 567.0 522.5 622.0 550.0 Q 677.0 577.5 732.0 550.0 " fill="none" stroke="#4EA8DE" stroke-width="3" opacity="0.10"/><path d="M 72 630.0 Q 127.0 610.9 182.0 630.0 Q 237.0 649.1 292.0 630.0 Q 347.0 610.9 402.0 630.0 Q 457.0 649.1 512.0 630.0 Q 567.0 610.9 622.0 630.0 Q 677.0 649.1 732.0 630.0 " fill="none" stroke="#4EA8DE" stroke-width="3" opacity="0.10"/><path d="M 72 710.0 Q 127.0 680.9 182.0 710.0 Q 237.0 739.1 292.0 710.0 Q 347.0 680.9 402.0 710.0 Q 457.0 739.1 512.0 710.0 Q 567.0 680.9 622.0 710.0 Q 677.0 739.1 732.0 710.0 " fill="none" stroke="#4EA8DE" stroke-width="3" opacity="0.10"/><path d="M 72 790.0 Q 127.0 768.8 182.0 790.0 Q 237.0 811.2 292.0 790.0 Q 347.0 768.8 402.0 790.0 Q 457.0 811.2 512.0 790.0 Q 567.0 768.8 622.0 790.0 Q 677.0 811.2 732.0 790.0 " fill="none" stroke="#4EA8DE" stroke-width="3" opacity="0.10"/><path d="M 72 870.0 Q 127.0 845.1 182.0 870.0 Q 237.0 894.9 292.0 870.0 Q 347.0 845.1 402.0 870.0 Q 457.0 894.9 512.0 870.0 Q 567.0 845.1 622.0 870.0 Q 677.0 894.9 732.0 870.0 " fill="none" stroke="#4EA8DE" stroke-width="3" opacity="0.10"/></g><path d="M 255.0 320 Q 375.0 260 495.0 320 L 475.0 370 L 275.0 370 Z" fill="#ffffff" opacity="0.55" stroke="#4EA8DE" stroke-width="6"/>
        <g opacity="0.95">
          <circle cx="375.0" cy="500" r="88" fill="#ffffff" opacity="0.62" stroke="#1E1B2E" stroke-width="7"/>
          <circle cx="347.0" cy="482" r="10" fill="#1E1B2E" opacity="0.9"/>
          <circle cx="403.0" cy="482" r="10" fill="#1E1B2E" opacity="0.9"/>
          <path d="M 340.0 518 Q 375.0 540 410.0 518" fill="none" stroke="#1E1B2E" stroke-width="8" stroke-linecap="round"/>
          <rect x="235.0" y="570" width="280" height="330" rx="75" fill="#ffffff" opacity="0.50" stroke="#1E1B2E" stroke-width="7"/>
          <path d="M 265.0 680 Q 375.0 760 485.0 680" fill="none" stroke="#4EA8DE" stroke-width="10" opacity="0.35" stroke-linecap="round"/>
        </g>
        
        <g filter="url(#glow)">
          <circle cx="205.0" cy="720" r="85" fill="#ffffff" opacity="0.50" stroke="#1E1B2E" stroke-width="6"/>
          
        <g>
          <path d="M 151.0 684.0
                   L 259.0 684.0
                   L 246.4 738.0
                   Q 205.0 769.5 163.6 738.0
                   Z" fill="#ffffff" stroke="#1E1B2E" stroke-width="7"/>
          <path d="M 258.1 699.8
                   Q 290.5 720.0 258.1 740.2" fill="none" stroke="#1E1B2E" stroke-width="10" stroke-linecap="round" opacity="0.9"/>
          <rect x="183.4" y="769.5" width="43.2" height="27.0" rx="9.0" fill="#4EA8DE" opacity="0.45" stroke="#1E1B2E" stroke-width="6"/>
          <circle cx="205.0" cy="672.8" r="9.9" fill="#4EA8DE" opacity="0.55"/>
          <path d="M 184.8 672.8 Q 205.0 654.8 225.2 672.8" fill="none" stroke="#4EA8DE" stroke-width="7" opacity="0.55" stroke-linecap="round"/>
        </g>
        
        </g>
        <g filter="url(#glow)">
        <g>
          <path d="M 481.0 624.0
                   L 649.0 624.0
                   L 629.4 708.0
                   Q 565.0 757.0 500.6 708.0
                   Z" fill="#ffffff" stroke="#1E1B2E" stroke-width="7"/>
          <path d="M 647.6 648.5
                   Q 698.0 680.0 647.6 711.5" fill="none" stroke="#1E1B2E" stroke-width="10" stroke-linecap="round" opacity="0.9"/>
          <rect x="531.4" y="757.0" width="67.2" height="42.0" rx="14.0" fill="#4EA8DE" opacity="0.45" stroke="#1E1B2E" stroke-width="6"/>
          <circle cx="565.0" cy="606.5" r="15.4" fill="#4EA8DE" opacity="0.55"/>
          <path d="M 533.5 606.5 Q 565.0 578.5 596.5 606.5" fill="none" stroke="#4EA8DE" stroke-width="7" opacity="0.55" stroke-linecap="round"/>
        </g>
        </g><line x1="314.8" y1="359.1" x2="220.6" y2="327.2" stroke="#ffffff" stroke-width="2.2" opacity="0.08"/>
<line x1="220.6" y1="327.2" x2="416.5" y2="671.2" stroke="#ffffff" stroke-width="2.2" opacity="0.15"/>
<line x1="416.5" y1="671.2" x2="227.6" y2="661.4" stroke="#ffffff" stroke-width="2.2" opacity="0.09"/>
<line x1="227.6" y1="661.4" x2="474.8" y2="523.1" stroke="#ffffff" stroke-width="2.2" opacity="0.10"/>
<line x1="474.8" y1="523.1" x2="235.4" y2="556.2" stroke="#ffffff" stroke-width="2.2" opacity="0.17"/>
<line x1="235.4" y1="556.2" x2="149.6" y2="689.3" stroke="#ffffff" stroke-width="2.2" opacity="0.18"/>
<circle cx="446.4" cy="232.1" r="4.7" fill="#ffffff" opacity="0.6972232776458773"/>
<circle cx="416.5" cy="671.2" r="4.0" fill="#ffffff" opacity="0.7744835341267466"/>
<circle cx="363.5" cy="529.3" r="2.4" fill="#ffffff" opacity="0.7775065224261183"/>
<circle cx="292.4" cy="490.5" r="2.5" fill="#ffffff" opacity="0.43225146897256095"/>
<circle cx="235.4" cy="556.2" r="3.3" fill="#ffffff" opacity="0.33447220171778724"/>
<circle cx="314.8" cy="359.1" r="1.6" fill="#ffffff" opacity="0.3791708392667785"/>
<circle cx="227.6" cy="661.4" r="2.2" fill="#ffffff" opacity="0.5214729788232316"/>
<circle cx="502.3" cy="553.3" r="3.8" fill="#ffffff" opacity="0.7391151846169333"/>
<circle cx="474.8" cy="523.1" r="4.3" fill="#ffffff" opacity="0.43395010445047905"/>
<circle cx="220.6" cy="327.2" r="2.4" fill="#ffffff" opacity="0.41034185681498425"/>
<circle cx="235.0" cy="253.3" r="4.6" fill="#ffffff" opacity="0.3509577982180198"/>
<circle cx="283.7" cy="658.9" r="2.4" fill="#ffffff" opacity="0.3227419579243688"/>
<circle cx="149.6" cy="689.3" r="4.2" fill="#ffffff" opacity="0.3676137158303935"/>
<circle cx="452.8" cy="674.9" r="3.0" fill="#ffffff" opacity="0.5797570489771386"/>
<rect x="42" y="1030" width="666" height="160" rx="30" fill="#ffffffd9" stroke="#1E1B2E" stroke-width="4" opacity="0.95"/>
<text x="375.0" y="1104" font-family="ui-sans-serif, system-ui, -apple-system, Segoe UI, Roboto, Helvetica, Arial" font-size="46" font-weight="900" text-anchor="middle" fill="#1E1B2E" opacity="0.98">King of Cups</text>
<text x="375.0" y="1152" font-family="ui-sans-serif, system-ui, -apple-system, Segoe UI, Roboto, Helvetica, Arial" font-size="28" font-weight="700" text-anchor="middle" fill="#1E1B2E" opacity="0.7">Calm</text>

    <g opacity="0.55">
      <circle cx="127" cy="1176" r="14" fill="#4EA8DE"/>
      <circle cx="623" cy="1176" r="14" fill="#4EA8DE"/>
      <path d="M 162 1176 L 588 1176" stroke="#4EA8DE" stroke-width="4" opacity="0.45" stroke-linecap="round"/>
    </g>
    
</svg>
