<svg xmlns="http://www.w3.org/2000/svg" width="750" height="1250" viewBox="0 0 750 1250">
  <title>2 of Swords</title>


  <defs>
    <linearGradient id="g" x1="0" y1="0" x2="1" y2="1">
      <stop offset="0%" stop-color="#FCEFEF"/>
      <stop offset="100%" stop-color="#E6FFFA"/>
    </linearGradient>

    <!-- paper texture -->
    <filter id="paper" x="-20%" y="-20%" width="140%" height="140%">
      <feTurbulence type="fractalNoise" baseFrequency="0.016" numOctaves="3" seed="9070" result="noise"/>
      <feColorMatrix in="noise" type="matrix"
        values="1 0 0 0 0
                0 1 0 0 0
                0 0 1 0 0
                0 0 0 0.25 0" result="noiseAlpha"/>
      <feComposite in="noiseAlpha" in2="SourceGraphic" operator="over"/>
    </filter>

    <!-- soft glow -->
    <filter id="glow" x="-30%" y="-30%" width="160%" height="160%">
      <feGaussianBlur stdDeviation="10" result="blur"/>
      <feColorMatrix type="matrix" values="
        1 0 0 0 0
        0 1 0 0 0
        0 0 1 0 0
        0 0 0 0.32 0" result="blurAlpha"/>
      <feMerge>
        <feMergeNode in="blurAlpha"/>
        <feMergeNode in="SourceGraphic"/>
      </feMerge>
    </filter>
  </defs>

<rect x="0" y="0" width="750" height="1250" rx="58" ry="58" fill="url(#g)" stroke="none" stroke-width="0" opacity="1"/>
<rect x="0" y="0" width="750" height="1250" fill="#ffffff" opacity="0.08"/>
<line x1="285.5" y1="980.9" x2="617.0" y2="984.6" stroke="#ffffff" stroke-width="2.2" opacity="0.09"/>
<line x1="617.0" y1="984.6" x2="662.5" y2="392.0" stroke="#ffffff" stroke-width="2.2" opacity="0.08"/>
<line x1="662.5" y1="392.0" x2="586.9" y2="495.6" stroke="#ffffff" stroke-width="2.2" opacity="0.20"/>
<line x1="586.9" y1="495.6" x2="323.2" y2="695.6" stroke="#ffffff" stroke-width="2.2" opacity="0.15"/>
<line x1="323.2" y1="695.6" x2="541.2" y2="1170.7" stroke="#ffffff" stroke-width="2.2" opacity="0.08"/>
<line x1="541.2" y1="1170.7" x2="590.9" y2="619.1" stroke="#ffffff" stroke-width="2.2" opacity="0.17"/>
<line x1="590.9" y1="619.1" x2="517.9" y2="1116.7" stroke="#ffffff" stroke-width="2.2" opacity="0.18"/>
<line x1="517.9" y1="1116.7" x2="679.2" y2="573.1" stroke="#ffffff" stroke-width="2.2" opacity="0.15"/>
<line x1="679.2" y1="573.1" x2="99.6" y2="693.7" stroke="#ffffff" stroke-width="2.2" opacity="0.22"/>
<line x1="99.6" y1="693.7" x2="318.7" y2="897.0" stroke="#ffffff" stroke-width="2.2" opacity="0.10"/>
<line x1="318.7" y1="897.0" x2="73.4" y2="460.5" stroke="#ffffff" stroke-width="2.2" opacity="0.19"/>
<line x1="73.4" y1="460.5" x2="155.3" y2="53.9" stroke="#ffffff" stroke-width="2.2" opacity="0.14"/>
<line x1="155.3" y1="53.9" x2="687.1" y2="266.6" stroke="#ffffff" stroke-width="2.2" opacity="0.18"/>
<line x1="687.1" y1="266.6" x2="430.2" y2="919.8" stroke="#ffffff" stroke-width="2.2" opacity="0.08"/>
<line x1="430.2" y1="919.8" x2="681.1" y2="656.0" stroke="#ffffff" stroke-width="2.2" opacity="0.20"/>
<line x1="681.1" y1="656.0" x2="645.4" y2="1034.6" stroke="#ffffff" stroke-width="2.2" opacity="0.12"/>
<line x1="645.4" y1="1034.6" x2="405.1" y2="912.1" stroke="#ffffff" stroke-width="2.2" opacity="0.22"/>
<line x1="405.1" y1="912.1" x2="129.9" y2="733.2" stroke="#ffffff" stroke-width="2.2" opacity="0.09"/>
<circle cx="50.2" cy="51.2" r="2.2" fill="#ffffff" opacity="0.7136008287439807"/>
<circle cx="370.8" cy="347.3" r="3.3" fill="#ffffff" opacity="0.3366229978444046"/>
<circle cx="230.3" cy="48.2" r="4.6" fill="#ffffff" opacity="0.34979760970410784"/>
<circle cx="93.5" cy="566.6" r="4.6" fill="#ffffff" opacity="0.7215392132410352"/>
<circle cx="323.2" cy="695.6" r="3.3" fill="#ffffff" opacity="0.4463495509419275"/>
<circle cx="627.9" cy="305.6" r="4.3" fill="#ffffff" opacity="0.5811982296649186"/>
<circle cx="399.3" cy="293.7" r="2.4" fill="#ffffff" opacity="0.4355127001732973"/>
<circle cx="664.3" cy="225.2" r="3.7" fill="#ffffff" opacity="0.2538823982707588"/>
<circle cx="681.1" cy="656.0" r="4.3" fill="#ffffff" opacity="0.8011590801686436"/>
<circle cx="285.5" cy="980.9" r="1.8" fill="#ffffff" opacity="0.7829736297689115"/>
<circle cx="687.1" cy="266.6" r="1.7" fill="#ffffff" opacity="0.3993369632656171"/>
<circle cx="692.5" cy="118.0" r="2.9" fill="#ffffff" opacity="0.6228878470265204"/>
<circle cx="194.1" cy="974.8" r="4.5" fill="#ffffff" opacity="0.5627412429505685"/>
<circle cx="48.6" cy="775.0" r="1.6" fill="#ffffff" opacity="0.6474275775805327"/>
<circle cx="73.4" cy="460.5" r="3.5" fill="#ffffff" opacity="0.42809471439956975"/>
<circle cx="155.3" cy="53.9" r="3.0" fill="#ffffff" opacity="0.4094601114936226"/>
<circle cx="645.4" cy="1034.6" r="1.7" fill="#ffffff" opacity="0.47363415867632225"/>
<circle cx="585.5" cy="955.5" r="2.6" fill="#ffffff" opacity="0.6340009611769084"/>
<circle cx="69.0" cy="614.1" r="2.9" fill="#ffffff" opacity="0.4567088364302881"/>
<circle cx="166.0" cy="392.5" r="4.1" fill="#ffffff" opacity="0.38877790318266137"/>
<circle cx="254.2" cy="153.4" r="3.7" fill="#ffffff" opacity="0.7155111604747109"/>
<circle cx="430.2" cy="919.8" r="2.2" fill="#ffffff" opacity="0.38661725825830945"/>
<circle cx="386.7" cy="1094.7" r="3.0" fill="#ffffff" opacity="0.37818158967631604"/>
<circle cx="100.5" cy="238.3" r="1.7" fill="#ffffff" opacity="0.5716439345734894"/>
<circle cx="662.5" cy="392.0" r="4.1" fill="#ffffff" opacity="0.6477621658242942"/>
<circle cx="385.0" cy="917.2" r="3.1" fill="#ffffff" opacity="0.4861492363260849"/>
<circle cx="270.0" cy="1126.6" r="2.8" fill="#ffffff" opacity="0.6904716987264685"/>
<circle cx="617.0" cy="984.6" r="3.1" fill="#ffffff" opacity="0.6711002562731501"/>
<circle cx="541.2" cy="1170.7" r="2.1" fill="#ffffff" opacity="0.5391508202598145"/>
<circle cx="586.9" cy="495.6" r="1.9" fill="#ffffff" opacity="0.7103780182833317"/>
<circle cx="166.8" cy="641.3" r="4.6" fill="#ffffff" opacity="0.8128946147726351"/>
<circle cx="507.6" cy="656.6" r="2.7" fill="#ffffff" opacity="0.5203959988608846"/>
<circle cx="392.1" cy="166.7" r="2.2" fill="#ffffff" opacity="0.35018271148959096"/>
<circle cx="297.4" cy="82.1" r="2.7" fill="#ffffff" opacity="0.5542236606970604"/>
<circle cx="59.8" cy="1121.7" r="4.3" fill="#ffffff" opacity="0.37478288378017477"/>
<circle cx="405.1" cy="912.1" r="2.8" fill="#ffffff" opacity="0.8447354693545558"/>
<circle cx="232.9" cy="917.6" r="3.5" fill="#ffffff" opacity="0.48299603048623063"/>
<circle cx="683.6" cy="783.6" r="1.6" fill="#ffffff" opacity="0.7965720569320842"/>
<circle cx="251.0" cy="111.3" r="4.3" fill="#ffffff" opacity="0.7088609395687949"/>
<circle cx="679.2" cy="573.1" r="4.3" fill="#ffffff" opacity="0.43519048207487754"/>
<circle cx="557.7" cy="382.2" r="4.1" fill="#ffffff" opacity="0.36139798335617274"/>
<circle cx="99.6" cy="693.7" r="3.3" fill="#ffffff" opacity="0.4874684997674912"/>
<circle cx="598.2" cy="800.2" r="4.2" fill="#ffffff" opacity="0.7890809005565734"/>
<circle cx="538.3" cy="1003.9" r="3.5" fill="#ffffff" opacity="0.710685157861614"/>
<circle cx="517.9" cy="1116.7" r="3.1" fill="#ffffff" opacity="0.2848975393302169"/>
<circle cx="184.1" cy="1164.0" r="3.1" fill="#ffffff" opacity="0.7498673802175809"/>
<circle cx="318.7" cy="897.0" r="2.1" fill="#ffffff" opacity="0.7296972243842377"/>
<circle cx="129.9" cy="733.2" r="2.5" fill="#ffffff" opacity="0.42708995191385135"/>
<circle cx="590.9" cy="619.1" r="4.2" fill="#ffffff" opacity="0.7099933899129687"/>
<circle cx="607.0" cy="448.7" r="4.6" fill="#ffffff" opacity="0.7960297220360385"/>
<g filter="url(#paper)"><rect x="42" y="42" width="666" height="1166" rx="54" ry="54" fill="none" stroke="#1E1B2E" stroke-width="8" opacity="0.95"/>
<rect x="60" y="60" width="630" height="1130" rx="46" ry="46" fill="none" stroke="#9B8CFF" stroke-width="3" opacity="0.35"/>

  <g opacity="0.42">
    <circle cx="375.0" cy="560" r="285" fill="none" stroke="#9B8CFF" stroke-width="4.2" opacity="0.42"/>
    <circle cx="375.0" cy="560" r="233.7" fill="none" stroke="#9B8CFF" stroke-width="2.2" opacity="0.23"/>
    <line x1="642.0" y1="560.0" x2="674.0" y2="560.0" stroke="#9B8CFF" stroke-width="3.2" opacity="0.23" stroke-linecap="round"/><line x1="606.2" y1="693.5" x2="633.9" y2="709.5" stroke="#9B8CFF" stroke-width="3.2" opacity="0.23" stroke-linecap="round"/><line x1="508.5" y1="791.2" x2="524.5" y2="818.9" stroke="#9B8CFF" stroke-width="3.2" opacity="0.23" stroke-linecap="round"/><line x1="375.0" y1="827.0" x2="375.0" y2="859.0" stroke="#9B8CFF" stroke-width="3.2" opacity="0.23" stroke-linecap="round"/><line x1="241.5" y1="791.2" x2="225.5" y2="818.9" stroke="#9B8CFF" stroke-width="3.2" opacity="0.23" stroke-linecap="round"/><line x1="143.8" y1="693.5" x2="116.1" y2="709.5" stroke="#9B8CFF" stroke-width="3.2" opacity="0.23" stroke-linecap="round"/><line x1="108.0" y1="560.0" x2="76.0" y2="560.0" stroke="#9B8CFF" stroke-width="3.2" opacity="0.23" stroke-linecap="round"/><line x1="143.8" y1="426.5" x2="116.1" y2="410.5" stroke="#9B8CFF" stroke-width="3.2" opacity="0.23" stroke-linecap="round"/><line x1="241.5" y1="328.8" x2="225.5" y2="301.1" stroke="#9B8CFF" stroke-width="3.2" opacity="0.23" stroke-linecap="round"/><line x1="375.0" y1="293.0" x2="375.0" y2="261.0" stroke="#9B8CFF" stroke-width="3.2" opacity="0.23" stroke-linecap="round"/><line x1="508.5" y1="328.8" x2="524.5" y2="301.1" stroke="#9B8CFF" stroke-width="3.2" opacity="0.23" stroke-linecap="round"/><line x1="606.2" y1="426.5" x2="633.9" y2="410.5" stroke="#9B8CFF" stroke-width="3.2" opacity="0.23" stroke-linecap="round"/>
    <circle cx="659.9" cy="553.1" r="2.9" fill="#9B8CFF" opacity="0.23"/><circle cx="647.7" cy="643.0" r="3.0" fill="#9B8CFF" opacity="0.37"/><circle cx="625.4" cy="696.1" r="3.7" fill="#9B8CFF" opacity="0.45"/><circle cx="574.6" cy="763.4" r="2.8" fill="#9B8CFF" opacity="0.39"/><circle cx="525.9" cy="801.8" r="3.9" fill="#9B8CFF" opacity="0.34"/><circle cx="442.2" cy="837.0" r="3.3" fill="#9B8CFF" opacity="0.26"/><circle cx="373.2" cy="845.0" r="3.8" fill="#9B8CFF" opacity="0.41"/><circle cx="309.8" cy="837.4" r="2.6" fill="#9B8CFF" opacity="0.36"/><circle cx="236.4" cy="809.0" r="3.7" fill="#9B8CFF" opacity="0.34"/><circle cx="173.1" cy="761.1" r="3.8" fill="#9B8CFF" opacity="0.36"/><circle cx="130.8" cy="706.9" r="3.6" fill="#9B8CFF" opacity="0.25"/><circle cx="99.7" cy="633.7" r="3.2" fill="#9B8CFF" opacity="0.23"/><circle cx="90.2" cy="569.7" r="2.7" fill="#9B8CFF" opacity="0.43"/><circle cx="100.7" cy="482.7" r="3.1" fill="#9B8CFF" opacity="0.28"/><circle cx="129.1" cy="416.0" r="3.3" fill="#9B8CFF" opacity="0.45"/><circle cx="168.0" cy="364.1" r="3.5" fill="#9B8CFF" opacity="0.41"/><circle cx="231.1" cy="314.0" r="4.0" fill="#9B8CFF" opacity="0.21"/><circle cx="296.6" cy="286.0" r="3.6" fill="#9B8CFF" opacity="0.21"/><circle cx="366.3" cy="275.1" r="2.7" fill="#9B8CFF" opacity="0.44"/><circle cx="442.6" cy="283.1" r="2.7" fill="#9B8CFF" opacity="0.31"/><circle cx="524.4" cy="317.3" r="3.1" fill="#9B8CFF" opacity="0.41"/><circle cx="579.5" cy="361.5" r="2.7" fill="#9B8CFF" opacity="0.35"/><circle cx="624.2" cy="421.6" r="2.9" fill="#9B8CFF" opacity="0.28"/><circle cx="648.7" cy="480.6" r="3.8" fill="#9B8CFF" opacity="0.20"/>
  </g>

<g><g transform="translate(50,54)"><path d="M 32.4 126.0 C 63.0 54.0, 111.6 32.4, 158.4 39.6" fill="none" stroke="#9B8CFF" stroke-width="6" opacity="0.55" stroke-linecap="round"/></g><g transform="translate(700,54) scale(-1,1)"><path d="M 32.4 126.0 C 63.0 54.0, 111.6 32.4, 158.4 39.6" fill="none" stroke="#9B8CFF" stroke-width="6" opacity="0.55" stroke-linecap="round"/></g><g transform="translate(50,1196) scale(1,-1)"><path d="M 32.4 126.0 C 63.0 54.0, 111.6 32.4, 158.4 39.6" fill="none" stroke="#9B8CFF" stroke-width="6" opacity="0.55" stroke-linecap="round"/></g><g transform="translate(700,1196) scale(-1,-1)"><path d="M 32.4 126.0 C 63.0 54.0, 111.6 32.4, 158.4 39.6" fill="none" stroke="#9B8CFF" stroke-width="6" opacity="0.55" stroke-linecap="round"/></g></g></g>
<rect x="42" y="60" width="666" height="92" rx="30" fill="#ffffffcc" stroke="#1E1B2E" stroke-width="4" opacity="0.95"/>
<text x="375.0" y="122" font-family="ui-sans-serif, system-ui, -apple-system, Segoe UI, Roboto, Helvetica, Arial" font-size="30" font-weight="800" text-anchor="middle" fill="#1E1B2E" opacity="0.95" letter-spacing="1">MINOR ARCANA • SWORDS</text>
<rect x="76" y="170" width="598" height="760" rx="52" fill="#ffffff" opacity="0.15"/>
<g><line x1="92" y1="230.0" x2="658" y2="230.0" stroke="#9B8CFF" stroke-width="2.2" opacity="0.08"/><line x1="212" y1="218.0" x2="312" y2="242.0" stroke="#9B8CFF" stroke-width="2.2" opacity="0.06"/><line x1="92" y1="302.0" x2="658" y2="302.0" stroke="#9B8CFF" stroke-width="2.2" opacity="0.08"/><line x1="212" y1="290.0" x2="312" y2="314.0" stroke="#9B8CFF" stroke-width="2.2" opacity="0.06"/><line x1="92" y1="374.0" x2="658" y2="374.0" stroke="#9B8CFF" stroke-width="2.2" opacity="0.08"/><line x1="212" y1="362.0" x2="312" y2="386.0" stroke="#9B8CFF" stroke-width="2.2" opacity="0.06"/><line x1="92" y1="446.0" x2="658" y2="446.0" stroke="#9B8CFF" stroke-width="2.2" opacity="0.08"/><line x1="212" y1="434.0" x2="312" y2="458.0" stroke="#9B8CFF" stroke-width="2.2" opacity="0.06"/><line x1="92" y1="518.0" x2="658" y2="518.0" stroke="#9B8CFF" stroke-width="2.2" opacity="0.08"/><line x1="212" y1="506.0" x2="312" y2="530.0" stroke="#9B8CFF" stroke-width="2.2" opacity="0.06"/><line x1="92" y1="590.0" x2="658" y2="590.0" stroke="#9B8CFF" stroke-width="2.2" opacity="0.08"/><line x1="212" y1="578.0" x2="312" y2="602.0" stroke="#9B8CFF" stroke-width="2.2" opacity="0.06"/><line x1="92" y1="662.0" x2="658" y2="662.0" stroke="#9B8CFF" stroke-width="2.2" opacity="0.08"/><line x1="212" y1="650.0" x2="312" y2="674.0" stroke="#9B8CFF" stroke-width="2.2" opacity="0.06"/><line x1="92" y1="734.0" x2="658" y2="734.0" stroke="#9B8CFF" stroke-width="2.2" opacity="0.08"/><line x1="212" y1="722.0" x2="312" y2="746.0" stroke="#9B8CFF" stroke-width="2.2" opacity="0.06"/><line x1="92" y1="806.0" x2="658" y2="806.0" stroke="#9B8CFF" stroke-width="2.2" opacity="0.08"/><line x1="212" y1="794.0" x2="312" y2="818.0" stroke="#9B8CFF" stroke-width="2.2" opacity="0.06"/><line x1="92" y1="878.0" x2="658" y2="878.0" stroke="#9B8CFF" stroke-width="2.2" opacity="0.08"/><line x1="212" y1="866.0" x2="312" y2="890.0" stroke="#9B8CFF" stroke-width="2.2" opacity="0.06"/></g><g><g opacity="0.55">
        <g>
          
        <path d="M 333.0 374.3
                 Q 305.0 368.7 293.8 391.1
                 Q 310.6 388.3 324.6 402.3
                 Q 313.4 399.5 302.2 414.9
                 Q 321.8 409.3 333.0 374.3 Z"
              fill="#9B8CFF" opacity="0.35" stroke="#1E1B2E" stroke-width="6"/>
        
          <line x1="310.3" y1="395.1" x2="406.2" y2="426.2" stroke="#1E1B2E" stroke-width="3.6" stroke-linecap="round"/>
          <line x1="310.3" y1="395.1" x2="406.2" y2="426.2" stroke="#ffffff" stroke-width="1.4" stroke-linecap="round" opacity="0.65"/>
          <line x1="321.1" y1="461.7" x2="358.1" y2="347.6" stroke="#1E1B2E" stroke-width="3.4" stroke-linecap="round"/>
          
        <polygon points="406.2,426.2 385.1,400.5 353.9,409.2 374.0,434.7"
                 fill="#ffffff" stroke="#1E1B2E" stroke-width="5" opacity="0.95"/>
        
          <circle cx="310.3" cy="395.1" r="4.5" fill="#9B8CFF" opacity="0.35" stroke="#1E1B2E" stroke-width="5"/>
        </g>
        </g><g opacity="0.55">
        <g>
          
        <path d="M 368.6 792.8
                 Q 340.6 787.2 329.4 809.6
                 Q 346.2 806.8 360.2 820.8
                 Q 349.0 818.0 337.8 833.4
                 Q 357.4 827.8 368.6 792.8 Z"
              fill="#9B8CFF" opacity="0.35" stroke="#1E1B2E" stroke-width="6"/>
        
          <line x1="345.9" y1="813.6" x2="441.7" y2="844.7" stroke="#1E1B2E" stroke-width="3.6" stroke-linecap="round"/>
          <line x1="345.9" y1="813.6" x2="441.7" y2="844.7" stroke="#ffffff" stroke-width="1.4" stroke-linecap="round" opacity="0.65"/>
          <line x1="356.6" y1="880.2" x2="393.7" y2="766.0" stroke="#1E1B2E" stroke-width="3.4" stroke-linecap="round"/>
          
        <polygon points="441.7,844.7 420.7,819.0 389.4,827.7 409.5,853.2"
                 fill="#ffffff" stroke="#1E1B2E" stroke-width="5" opacity="0.95"/>
        
          <circle cx="345.9" cy="813.6" r="4.5" fill="#9B8CFF" opacity="0.35" stroke="#1E1B2E" stroke-width="5"/>
        </g>
        </g></g><g opacity="0.9"><g opacity='0.9'><circle cx="165.0" cy="330" r="14" fill="none" stroke="#9B8CFF" stroke-width="4" opacity="0.30"/><circle cx="151.0" cy="330" r="12.9" fill="#9B8CFF" opacity="0.16"/><circle cx="235.0" cy="330" r="14" fill="none" stroke="#9B8CFF" stroke-width="4" opacity="0.30"/><circle cx="225.7" cy="330" r="12.9" fill="#9B8CFF" opacity="0.13"/><circle cx="305.0" cy="330" r="14" fill="none" stroke="#9B8CFF" stroke-width="4" opacity="0.30"/><circle cx="300.3" cy="330" r="12.9" fill="#9B8CFF" opacity="0.09"/><circle cx="375.0" cy="330" r="14" fill="none" stroke="#9B8CFF" stroke-width="4" opacity="0.30"/><circle cx="375.0" cy="330" r="12.9" fill="#9B8CFF" opacity="0.06"/><circle cx="445.0" cy="330" r="14" fill="none" stroke="#9B8CFF" stroke-width="4" opacity="0.30"/><circle cx="449.7" cy="330" r="12.9" fill="#9B8CFF" opacity="0.09"/><circle cx="515.0" cy="330" r="14" fill="none" stroke="#9B8CFF" stroke-width="4" opacity="0.30"/><circle cx="524.3" cy="330" r="12.9" fill="#9B8CFF" opacity="0.13"/><circle cx="585.0" cy="330" r="14" fill="none" stroke="#9B8CFF" stroke-width="4" opacity="0.30"/><circle cx="599.0" cy="330" r="12.9" fill="#9B8CFF" opacity="0.16"/></g></g>
        <g filter="url(#glow)">
          <circle cx="375.0" cy="630" r="170" fill="#ffffff" opacity="0.40" stroke="#9B8CFF" stroke-width="7"/>
          
        <g>
          
        <path d="M 310.2 536.4
                 Q 238.2 522.0 209.4 579.6
                 Q 252.6 572.4 288.6 608.4
                 Q 259.8 601.2 231.0 640.8
                 Q 281.4 626.4 310.2 536.4 Z"
              fill="#9B8CFF" opacity="0.35" stroke="#1E1B2E" stroke-width="6"/>
        
          <line x1="251.7" y1="590.0" x2="498.3" y2="670.0" stroke="#1E1B2E" stroke-width="9.4" stroke-linecap="round"/>
          <line x1="251.7" y1="590.0" x2="498.3" y2="670.0" stroke="#ffffff" stroke-width="3.6" stroke-linecap="round" opacity="0.65"/>
          <line x1="308.5" y1="671.5" x2="345.6" y2="557.4" stroke="#1E1B2E" stroke-width="8.6" stroke-linecap="round"/>
          
        <polygon points="498.3,670.0 477.2,644.3 445.9,653.1 466.1,678.5"
                 fill="#ffffff" stroke="#1E1B2E" stroke-width="5" opacity="0.95"/>
        
          <circle cx="251.7" cy="590.0" r="11.5" fill="#9B8CFF" opacity="0.35" stroke="#1E1B2E" stroke-width="5"/>
        </g>
        
        </g>
        <line x1="273.0" y1="451.1" x2="423.5" y2="636.7" stroke="#ffffff" stroke-width="2.2" opacity="0.10"/>
<line x1="423.5" y1="636.7" x2="343.9" y2="504.1" stroke="#ffffff" stroke-width="2.2" opacity="0.08"/>
<line x1="343.9" y1="504.1" x2="243.3" y2="375.5" stroke="#ffffff" stroke-width="2.2" opacity="0.20"/>
<line x1="243.3" y1="375.5" x2="516.2" y2="559.6" stroke="#ffffff" stroke-width="2.2" opacity="0.10"/>
<line x1="516.2" y1="559.6" x2="320.9" y2="540.3" stroke="#ffffff" stroke-width="2.2" opacity="0.12"/>
<line x1="320.9" y1="540.3" x2="487.1" y2="364.6" stroke="#ffffff" stroke-width="2.2" opacity="0.20"/>
<circle cx="247.9" cy="554.0" r="4.3" fill="#ffffff" opacity="0.3248753898358278"/>
<circle cx="320.9" cy="540.3" r="4.1" fill="#ffffff" opacity="0.7359952473546942"/>
<circle cx="312.4" cy="412.9" r="2.3" fill="#ffffff" opacity="0.4367867381591255"/>
<circle cx="343.9" cy="504.1" r="4.8" fill="#ffffff" opacity="0.314064140082644"/>
<circle cx="243.3" cy="375.5" r="3.3" fill="#ffffff" opacity="0.4658831015575119"/>
<circle cx="423.5" cy="636.7" r="2.7" fill="#ffffff" opacity="0.42577496827607253"/>
<circle cx="487.1" cy="364.6" r="3.5" fill="#ffffff" opacity="0.5729318344309058"/>
<circle cx="498.3" cy="568.9" r="3.1" fill="#ffffff" opacity="0.5899453136136208"/>
<circle cx="273.0" cy="451.1" r="4.7" fill="#ffffff" opacity="0.33538721299127666"/>
<circle cx="328.0" cy="565.8" r="4.8" fill="#ffffff" opacity="0.7433820916985733"/>
<circle cx="516.2" cy="559.6" r="3.4" fill="#ffffff" opacity="0.261266925832612"/>
<circle cx="260.7" cy="635.1" r="2.0" fill="#ffffff" opacity="0.7029449698537067"/>
<circle cx="581.9" cy="432.3" r="4.5" fill="#ffffff" opacity="0.6950843815129614"/>
<circle cx="260.9" cy="230.0" r="3.6" fill="#ffffff" opacity="0.7451690699532274"/>
<rect x="42" y="1030" width="666" height="160" rx="30" fill="#ffffffd9" stroke="#1E1B2E" stroke-width="4" opacity="0.95"/>
<text x="375.0" y="1104" font-family="ui-sans-serif, system-ui, -apple-system, Segoe UI, Roboto, Helvetica, Arial" font-size="46" font-weight="900" text-anchor="middle" fill="#1E1B2E" opacity="0.98">2 of Swords</text>
<text x="375.0" y="1152" font-family="ui-sans-serif, system-ui, -apple-system, Segoe UI, Roboto, Helvetica, Arial" font-size="28" font-weight="700" text-anchor="middle" fill="#1E1B2E" opacity="0.7">Choices</text>

    <g opacity="0.55">
      <circle cx="127" cy="1176" r="14" fill="#9B8CFF"/>
      <circle cx="623" cy="1176" r="14" fill="#9B8CFF"/>
      <path d="M 162 1176 L 588 1176" stroke="#9B8CFF" stroke-width="4" opacity="0.45" stroke-linecap="round"/>
    </g>
    
</svg>
