<svg xmlns="http://www.w3.org/2000/svg" width="750" height="1250" viewBox="0 0 750 1250">
  <title>3 of Swords</title>


  <defs>
    <linearGradient id="g" x1="0" y1="0" x2="1" y2="1">
      <stop offset="0%" stop-color="#E9FFF2"/>
      <stop offset="100%" stop-color="#FFF1FF"/>
    </linearGradient>

    <!-- paper texture -->
    <filter id="paper" x="-20%" y="-20%" width="140%" height="140%">
      <feTurbulence type="fractalNoise" baseFrequency="0.017" numOctaves="3" seed="322" result="noise"/>
      <feColorMatrix in="noise" type="matrix"
        values="1 0 0 0 0
                0 1 0 0 0
                0 0 1 0 0
                0 0 0 0.25 0" result="noiseAlpha"/>
      <feComposite in="noiseAlpha" in2="SourceGraphic" operator="over"/>
    </filter>

    <!-- soft glow -->
    <filter id="glow" x="-30%" y="-30%" width="160%" height="160%">
      <feGaussianBlur stdDeviation="10" result="blur"/>
      <feColorMatrix type="matrix" values="
        1 0 0 0 0
        0 1 0 0 0
        0 0 1 0 0
        0 0 0 0.32 0" result="blurAlpha"/>
      <feMerge>
        <feMergeNode in="blurAlpha"/>
        <feMergeNode in="SourceGraphic"/>
      </feMerge>
    </filter>
  </defs>

<rect x="0" y="0" width="750" height="1250" rx="58" ry="58" fill="url(#g)" stroke="none" stroke-width="0" opacity="1"/>
<rect x="0" y="0" width="750" height="1250" fill="#ffffff" opacity="0.08"/>
<line x1="160.6" y1="632.5" x2="471.9" y2="240.5" stroke="#ffffff" stroke-width="2.2" opacity="0.12"/>
<line x1="471.9" y1="240.5" x2="59.6" y2="1093.0" stroke="#ffffff" stroke-width="2.2" opacity="0.11"/>
<line x1="59.6" y1="1093.0" x2="102.3" y2="1106.1" stroke="#ffffff" stroke-width="2.2" opacity="0.17"/>
<line x1="102.3" y1="1106.1" x2="597.5" y2="452.9" stroke="#ffffff" stroke-width="2.2" opacity="0.16"/>
<line x1="597.5" y1="452.9" x2="283.9" y2="246.1" stroke="#ffffff" stroke-width="2.2" opacity="0.15"/>
<line x1="283.9" y1="246.1" x2="567.9" y2="571.2" stroke="#ffffff" stroke-width="2.2" opacity="0.18"/>
<line x1="567.9" y1="571.2" x2="205.4" y2="494.9" stroke="#ffffff" stroke-width="2.2" opacity="0.12"/>
<line x1="205.4" y1="494.9" x2="673.1" y2="1118.4" stroke="#ffffff" stroke-width="2.2" opacity="0.15"/>
<line x1="673.1" y1="1118.4" x2="217.6" y2="393.7" stroke="#ffffff" stroke-width="2.2" opacity="0.11"/>
<line x1="217.6" y1="393.7" x2="156.0" y2="1059.7" stroke="#ffffff" stroke-width="2.2" opacity="0.20"/>
<line x1="156.0" y1="1059.7" x2="225.8" y2="781.7" stroke="#ffffff" stroke-width="2.2" opacity="0.14"/>
<line x1="225.8" y1="781.7" x2="383.9" y2="1193.7" stroke="#ffffff" stroke-width="2.2" opacity="0.12"/>
<line x1="383.9" y1="1193.7" x2="508.4" y2="221.5" stroke="#ffffff" stroke-width="2.2" opacity="0.09"/>
<line x1="508.4" y1="221.5" x2="372.6" y2="874.0" stroke="#ffffff" stroke-width="2.2" opacity="0.20"/>
<line x1="372.6" y1="874.0" x2="469.3" y2="252.4" stroke="#ffffff" stroke-width="2.2" opacity="0.15"/>
<line x1="469.3" y1="252.4" x2="394.7" y2="473.7" stroke="#ffffff" stroke-width="2.2" opacity="0.19"/>
<line x1="394.7" y1="473.7" x2="649.0" y2="1091.4" stroke="#ffffff" stroke-width="2.2" opacity="0.10"/>
<line x1="649.0" y1="1091.4" x2="460.6" y2="1134.6" stroke="#ffffff" stroke-width="2.2" opacity="0.16"/>
<circle cx="295.1" cy="590.0" r="3.6" fill="#ffffff" opacity="0.68823462013821"/>
<circle cx="673.1" cy="1118.4" r="2.8" fill="#ffffff" opacity="0.29769265142884194"/>
<circle cx="239.3" cy="68.4" r="3.4" fill="#ffffff" opacity="0.4887168290824424"/>
<circle cx="400.1" cy="1163.0" r="3.6" fill="#ffffff" opacity="0.2861937683017357"/>
<circle cx="372.6" cy="874.0" r="2.9" fill="#ffffff" opacity="0.4422613148418595"/>
<circle cx="471.9" cy="240.5" r="2.4" fill="#ffffff" opacity="0.6611237722985528"/>
<circle cx="153.8" cy="1191.1" r="2.5" fill="#ffffff" opacity="0.5144299215001562"/>
<circle cx="68.6" cy="1194.9" r="3.4" fill="#ffffff" opacity="0.3014205659147927"/>
<circle cx="649.0" cy="1091.4" r="4.4" fill="#ffffff" opacity="0.506447892036725"/>
<circle cx="605.6" cy="738.0" r="3.4" fill="#ffffff" opacity="0.6155872844646999"/>
<circle cx="692.2" cy="232.2" r="3.3" fill="#ffffff" opacity="0.5309291582385904"/>
<circle cx="217.6" cy="393.7" r="2.7" fill="#ffffff" opacity="0.4593885576141127"/>
<circle cx="133.8" cy="67.6" r="4.7" fill="#ffffff" opacity="0.6154734378756919"/>
<circle cx="225.8" cy="781.7" r="3.3" fill="#ffffff" opacity="0.3347577533759805"/>
<circle cx="102.3" cy="1106.1" r="4.6" fill="#ffffff" opacity="0.8120451030142843"/>
<circle cx="283.9" cy="246.1" r="4.4" fill="#ffffff" opacity="0.5885766993730406"/>
<circle cx="59.6" cy="1093.0" r="2.6" fill="#ffffff" opacity="0.2551839049964999"/>
<circle cx="545.4" cy="1159.1" r="2.1" fill="#ffffff" opacity="0.5076635971396851"/>
<circle cx="508.4" cy="221.5" r="4.7" fill="#ffffff" opacity="0.2814889809104387"/>
<circle cx="668.1" cy="1162.6" r="3.6" fill="#ffffff" opacity="0.6671578416312385"/>
<circle cx="160.6" cy="632.5" r="1.8" fill="#ffffff" opacity="0.3372468567875058"/>
<circle cx="267.7" cy="587.2" r="2.2" fill="#ffffff" opacity="0.37872855238215014"/>
<circle cx="429.1" cy="133.0" r="4.0" fill="#ffffff" opacity="0.7560543623215074"/>
<circle cx="205.4" cy="494.9" r="4.8" fill="#ffffff" opacity="0.6987110626946944"/>
<circle cx="598.4" cy="1023.6" r="3.5" fill="#ffffff" opacity="0.2898986641513103"/>
<circle cx="366.8" cy="612.3" r="4.1" fill="#ffffff" opacity="0.2586033453507049"/>
<circle cx="325.9" cy="790.8" r="3.3" fill="#ffffff" opacity="0.6053143456770305"/>
<circle cx="340.5" cy="841.2" r="3.6" fill="#ffffff" opacity="0.7369968816816993"/>
<circle cx="165.2" cy="457.3" r="3.9" fill="#ffffff" opacity="0.8205924326614239"/>
<circle cx="576.0" cy="552.9" r="2.5" fill="#ffffff" opacity="0.789047495954189"/>
<circle cx="53.6" cy="565.9" r="3.1" fill="#ffffff" opacity="0.33657254141654125"/>
<circle cx="470.5" cy="1099.6" r="3.8" fill="#ffffff" opacity="0.4181009604948823"/>
<circle cx="168.7" cy="636.6" r="4.3" fill="#ffffff" opacity="0.5255511308474371"/>
<circle cx="99.0" cy="255.1" r="3.3" fill="#ffffff" opacity="0.4704693812787287"/>
<circle cx="452.6" cy="684.5" r="4.3" fill="#ffffff" opacity="0.35265314066169395"/>
<circle cx="469.3" cy="252.4" r="4.7" fill="#ffffff" opacity="0.5952839907006078"/>
<circle cx="156.0" cy="1059.7" r="2.1" fill="#ffffff" opacity="0.7036744423195416"/>
<circle cx="671.8" cy="240.0" r="4.7" fill="#ffffff" opacity="0.7440809099543408"/>
<circle cx="527.1" cy="364.7" r="3.3" fill="#ffffff" opacity="0.4339210590380883"/>
<circle cx="513.3" cy="682.6" r="3.2" fill="#ffffff" opacity="0.8180090076829851"/>
<circle cx="511.5" cy="250.9" r="2.6" fill="#ffffff" opacity="0.3111831276090752"/>
<circle cx="597.5" cy="452.9" r="1.6" fill="#ffffff" opacity="0.45730484333928545"/>
<circle cx="567.9" cy="571.2" r="2.5" fill="#ffffff" opacity="0.6318617259632631"/>
<circle cx="460.6" cy="1134.6" r="4.0" fill="#ffffff" opacity="0.27886167777639176"/>
<circle cx="167.9" cy="462.2" r="2.7" fill="#ffffff" opacity="0.6975207624642366"/>
<circle cx="394.7" cy="473.7" r="3.5" fill="#ffffff" opacity="0.5933372515020814"/>
<circle cx="383.9" cy="1193.7" r="4.2" fill="#ffffff" opacity="0.3876822872187333"/>
<circle cx="166.7" cy="1029.0" r="4.6" fill="#ffffff" opacity="0.8072323446670372"/>
<circle cx="303.4" cy="1031.8" r="4.2" fill="#ffffff" opacity="0.7392583825425659"/>
<circle cx="415.9" cy="702.9" r="3.0" fill="#ffffff" opacity="0.566590280549264"/>
<g filter="url(#paper)"><rect x="42" y="42" width="666" height="1166" rx="54" ry="54" fill="none" stroke="#1E1B2E" stroke-width="8" opacity="0.95"/>
<rect x="60" y="60" width="630" height="1130" rx="46" ry="46" fill="none" stroke="#9B8CFF" stroke-width="3" opacity="0.35"/>

  <g opacity="0.42">
    <circle cx="375.0" cy="560" r="285" fill="none" stroke="#9B8CFF" stroke-width="4.2" opacity="0.42"/>
    <circle cx="375.0" cy="560" r="233.7" fill="none" stroke="#9B8CFF" stroke-width="2.2" opacity="0.23"/>
    <line x1="642.0" y1="560.0" x2="674.0" y2="560.0" stroke="#9B8CFF" stroke-width="3.2" opacity="0.23" stroke-linecap="round"/><line x1="606.2" y1="693.5" x2="633.9" y2="709.5" stroke="#9B8CFF" stroke-width="3.2" opacity="0.23" stroke-linecap="round"/><line x1="508.5" y1="791.2" x2="524.5" y2="818.9" stroke="#9B8CFF" stroke-width="3.2" opacity="0.23" stroke-linecap="round"/><line x1="375.0" y1="827.0" x2="375.0" y2="859.0" stroke="#9B8CFF" stroke-width="3.2" opacity="0.23" stroke-linecap="round"/><line x1="241.5" y1="791.2" x2="225.5" y2="818.9" stroke="#9B8CFF" stroke-width="3.2" opacity="0.23" stroke-linecap="round"/><line x1="143.8" y1="693.5" x2="116.1" y2="709.5" stroke="#9B8CFF" stroke-width="3.2" opacity="0.23" stroke-linecap="round"/><line x1="108.0" y1="560.0" x2="76.0" y2="560.0" stroke="#9B8CFF" stroke-width="3.2" opacity="0.23" stroke-linecap="round"/><line x1="143.8" y1="426.5" x2="116.1" y2="410.5" stroke="#9B8CFF" stroke-width="3.2" opacity="0.23" stroke-linecap="round"/><line x1="241.5" y1="328.8" x2="225.5" y2="301.1" stroke="#9B8CFF" stroke-width="3.2" opacity="0.23" stroke-linecap="round"/><line x1="375.0" y1="293.0" x2="375.0" y2="261.0" stroke="#9B8CFF" stroke-width="3.2" opacity="0.23" stroke-linecap="round"/><line x1="508.5" y1="328.8" x2="524.5" y2="301.1" stroke="#9B8CFF" stroke-width="3.2" opacity="0.23" stroke-linecap="round"/><line x1="606.2" y1="426.5" x2="633.9" y2="410.5" stroke="#9B8CFF" stroke-width="3.2" opacity="0.23" stroke-linecap="round"/>
    <circle cx="660.0" cy="564.4" r="3.6" fill="#9B8CFF" opacity="0.33"/><circle cx="651.6" cy="628.7" r="3.7" fill="#9B8CFF" opacity="0.21"/><circle cx="622.0" cy="702.1" r="3.3" fill="#9B8CFF" opacity="0.37"/><circle cx="572.6" cy="765.4" r="3.5" fill="#9B8CFF" opacity="0.42"/><circle cx="516.6" cy="807.3" r="4.0" fill="#9B8CFF" opacity="0.21"/><circle cx="448.5" cy="835.4" r="3.9" fill="#9B8CFF" opacity="0.19"/><circle cx="377.0" cy="845.0" r="3.8" fill="#9B8CFF" opacity="0.24"/><circle cx="296.9" cy="834.1" r="2.8" fill="#9B8CFF" opacity="0.19"/><circle cx="228.3" cy="804.4" r="2.8" fill="#9B8CFF" opacity="0.35"/><circle cx="172.9" cy="760.9" r="3.5" fill="#9B8CFF" opacity="0.30"/><circle cx="128.6" cy="703.3" r="3.6" fill="#9B8CFF" opacity="0.19"/><circle cx="100.0" cy="635.0" r="2.9" fill="#9B8CFF" opacity="0.25"/><circle cx="90.1" cy="553.9" r="2.8" fill="#9B8CFF" opacity="0.39"/><circle cx="99.6" cy="486.6" r="3.7" fill="#9B8CFF" opacity="0.20"/><circle cx="127.7" cy="418.4" r="2.8" fill="#9B8CFF" opacity="0.42"/><circle cx="170.7" cy="361.3" r="2.8" fill="#9B8CFF" opacity="0.33"/><circle cx="229.8" cy="314.8" r="3.9" fill="#9B8CFF" opacity="0.19"/><circle cx="303.0" cy="284.2" r="3.4" fill="#9B8CFF" opacity="0.31"/><circle cx="381.4" cy="275.1" r="2.6" fill="#9B8CFF" opacity="0.39"/><circle cx="453.3" cy="286.0" r="3.0" fill="#9B8CFF" opacity="0.31"/><circle cx="517.9" cy="313.4" r="4.0" fill="#9B8CFF" opacity="0.18"/><circle cx="575.9" cy="357.9" r="2.8" fill="#9B8CFF" opacity="0.33"/><circle cx="617.1" cy="409.7" r="3.1" fill="#9B8CFF" opacity="0.31"/><circle cx="650.0" cy="485.2" r="2.8" fill="#9B8CFF" opacity="0.39"/>
  </g>

<g><g transform="translate(50,54)"><path d="M 18.0 140.4 C 39.6 63.0, 99.0 28.8, 154.8 46.8 C 126.0 86.4, 72.0 111.6, 39.6 129.6" fill="none" stroke="#9B8CFF" stroke-width="6" opacity="0.55" stroke-linecap="round"/></g><g transform="translate(700,54) scale(-1,1)"><path d="M 18.0 140.4 C 39.6 63.0, 99.0 28.8, 154.8 46.8 C 126.0 86.4, 72.0 111.6, 39.6 129.6" fill="none" stroke="#9B8CFF" stroke-width="6" opacity="0.55" stroke-linecap="round"/></g><g transform="translate(50,1196) scale(1,-1)"><path d="M 18.0 140.4 C 39.6 63.0, 99.0 28.8, 154.8 46.8 C 126.0 86.4, 72.0 111.6, 39.6 129.6" fill="none" stroke="#9B8CFF" stroke-width="6" opacity="0.55" stroke-linecap="round"/></g><g transform="translate(700,1196) scale(-1,-1)"><path d="M 18.0 140.4 C 39.6 63.0, 99.0 28.8, 154.8 46.8 C 126.0 86.4, 72.0 111.6, 39.6 129.6" fill="none" stroke="#9B8CFF" stroke-width="6" opacity="0.55" stroke-linecap="round"/></g></g></g>
<rect x="42" y="60" width="666" height="92" rx="30" fill="#ffffffcc" stroke="#1E1B2E" stroke-width="4" opacity="0.95"/>
<text x="375.0" y="122" font-family="ui-sans-serif, system-ui, -apple-system, Segoe UI, Roboto, Helvetica, Arial" font-size="30" font-weight="800" text-anchor="middle" fill="#1E1B2E" opacity="0.95" letter-spacing="1">MINOR ARCANA • SWORDS</text>
<rect x="76" y="170" width="598" height="760" rx="52" fill="#ffffff" opacity="0.15"/>
<g><line x1="92" y1="230.0" x2="658" y2="230.0" stroke="#9B8CFF" stroke-width="2.2" opacity="0.08"/><line x1="212" y1="218.0" x2="312" y2="242.0" stroke="#9B8CFF" stroke-width="2.2" opacity="0.06"/><line x1="92" y1="302.0" x2="658" y2="302.0" stroke="#9B8CFF" stroke-width="2.2" opacity="0.08"/><line x1="212" y1="290.0" x2="312" y2="314.0" stroke="#9B8CFF" stroke-width="2.2" opacity="0.06"/><line x1="92" y1="374.0" x2="658" y2="374.0" stroke="#9B8CFF" stroke-width="2.2" opacity="0.08"/><line x1="212" y1="362.0" x2="312" y2="386.0" stroke="#9B8CFF" stroke-width="2.2" opacity="0.06"/><line x1="92" y1="446.0" x2="658" y2="446.0" stroke="#9B8CFF" stroke-width="2.2" opacity="0.08"/><line x1="212" y1="434.0" x2="312" y2="458.0" stroke="#9B8CFF" stroke-width="2.2" opacity="0.06"/><line x1="92" y1="518.0" x2="658" y2="518.0" stroke="#9B8CFF" stroke-width="2.2" opacity="0.08"/><line x1="212" y1="506.0" x2="312" y2="530.0" stroke="#9B8CFF" stroke-width="2.2" opacity="0.06"/><line x1="92" y1="590.0" x2="658" y2="590.0" stroke="#9B8CFF" stroke-width="2.2" opacity="0.08"/><line x1="212" y1="578.0" x2="312" y2="602.0" stroke="#9B8CFF" stroke-width="2.2" opacity="0.06"/><line x1="92" y1="662.0" x2="658" y2="662.0" stroke="#9B8CFF" stroke-width="2.2" opacity="0.08"/><line x1="212" y1="650.0" x2="312" y2="674.0" stroke="#9B8CFF" stroke-width="2.2" opacity="0.06"/><line x1="92" y1="734.0" x2="658" y2="734.0" stroke="#9B8CFF" stroke-width="2.2" opacity="0.08"/><line x1="212" y1="722.0" x2="312" y2="746.0" stroke="#9B8CFF" stroke-width="2.2" opacity="0.06"/><line x1="92" y1="806.0" x2="658" y2="806.0" stroke="#9B8CFF" stroke-width="2.2" opacity="0.08"/><line x1="212" y1="794.0" x2="312" y2="818.0" stroke="#9B8CFF" stroke-width="2.2" opacity="0.06"/><line x1="92" y1="878.0" x2="658" y2="878.0" stroke="#9B8CFF" stroke-width="2.2" opacity="0.08"/><line x1="212" y1="866.0" x2="312" y2="890.0" stroke="#9B8CFF" stroke-width="2.2" opacity="0.06"/></g><g><g opacity="0.55">
        <g>
          
        <path d="M 348.4 373.6
                 Q 320.4 368.0 309.2 390.4
                 Q 326.0 387.6 340.0 401.6
                 Q 328.8 398.8 317.6 414.2
                 Q 337.2 408.6 348.4 373.6 Z"
              fill="#9B8CFF" opacity="0.35" stroke="#1E1B2E" stroke-width="6"/>
        
          <line x1="325.6" y1="394.4" x2="421.5" y2="425.6" stroke="#1E1B2E" stroke-width="3.6" stroke-linecap="round"/>
          <line x1="325.6" y1="394.4" x2="421.5" y2="425.6" stroke="#ffffff" stroke-width="1.4" stroke-linecap="round" opacity="0.65"/>
          <line x1="336.4" y1="461.0" x2="373.5" y2="346.9" stroke="#1E1B2E" stroke-width="3.4" stroke-linecap="round"/>
          
        <polygon points="421.5,425.6 400.4,399.8 369.2,408.6 389.3,434.0"
                 fill="#ffffff" stroke="#1E1B2E" stroke-width="5" opacity="0.95"/>
        
          <circle cx="325.6" cy="394.4" r="4.5" fill="#9B8CFF" opacity="0.35" stroke="#1E1B2E" stroke-width="5"/>
        </g>
        </g><g opacity="0.55">
        <g>
          
        <path d="M 539.8 673.1
                 Q 511.8 667.5 500.6 689.9
                 Q 517.4 687.1 531.4 701.1
                 Q 520.2 698.3 509.0 713.7
                 Q 528.6 708.1 539.8 673.1 Z"
              fill="#9B8CFF" opacity="0.35" stroke="#1E1B2E" stroke-width="6"/>
        
          <line x1="517.0" y1="694.0" x2="612.9" y2="725.1" stroke="#1E1B2E" stroke-width="3.6" stroke-linecap="round"/>
          <line x1="517.0" y1="694.0" x2="612.9" y2="725.1" stroke="#ffffff" stroke-width="1.4" stroke-linecap="round" opacity="0.65"/>
          <line x1="527.8" y1="760.5" x2="564.9" y2="646.4" stroke="#1E1B2E" stroke-width="3.4" stroke-linecap="round"/>
          
        <polygon points="612.9,725.1 591.8,699.3 560.6,708.1 580.7,733.6"
                 fill="#ffffff" stroke="#1E1B2E" stroke-width="5" opacity="0.95"/>
        
          <circle cx="517.0" cy="694.0" r="4.5" fill="#9B8CFF" opacity="0.35" stroke="#1E1B2E" stroke-width="5"/>
        </g>
        </g><g opacity="0.55">
        <g>
          
        <path d="M 161.9 677.3
                 Q 133.9 671.7 122.7 694.1
                 Q 139.5 691.3 153.5 705.3
                 Q 142.3 702.5 131.1 717.9
                 Q 150.7 712.3 161.9 677.3 Z"
              fill="#9B8CFF" opacity="0.35" stroke="#1E1B2E" stroke-width="6"/>
        
          <line x1="139.2" y1="698.2" x2="235.0" y2="729.3" stroke="#1E1B2E" stroke-width="3.6" stroke-linecap="round"/>
          <line x1="139.2" y1="698.2" x2="235.0" y2="729.3" stroke="#ffffff" stroke-width="1.4" stroke-linecap="round" opacity="0.65"/>
          <line x1="149.9" y1="764.8" x2="187.0" y2="650.6" stroke="#1E1B2E" stroke-width="3.4" stroke-linecap="round"/>
          
        <polygon points="235.0,729.3 214.0,703.6 182.7,712.3 202.8,737.8"
                 fill="#ffffff" stroke="#1E1B2E" stroke-width="5" opacity="0.95"/>
        
          <circle cx="139.2" cy="698.2" r="4.5" fill="#9B8CFF" opacity="0.35" stroke="#1E1B2E" stroke-width="5"/>
        </g>
        </g></g>
        <g opacity="0.55" filter="url(#glow)">
          <polygon points="255.00,350.00 271.46,397.35 321.57,398.37 281.63,428.65 296.14,476.63 255.00,448.00 213.86,476.63 228.37,428.65 188.43,398.37 238.54,397.35" fill="#ffffff"/>
          <polygon points="495.00,350.00 511.46,397.35 561.57,398.37 521.63,428.65 536.14,476.63 495.00,448.00 453.86,476.63 468.37,428.65 428.43,398.37 478.54,397.35" fill="#ffffff"/>
          <polygon points="375.00,405.00 394.98,462.49 455.84,463.73 407.34,500.51 424.96,558.77 375.00,524.00 325.04,558.77 342.66,500.51 294.16,463.73 355.02,462.49" fill="#9B8CFF" opacity="0.35"/>
        </g>
        
        <g filter="url(#glow)">
          <circle cx="375.0" cy="630" r="170" fill="#ffffff" opacity="0.40" stroke="#9B8CFF" stroke-width="7"/>
          
        <g>
          
        <path d="M 310.2 536.4
                 Q 238.2 522.0 209.4 579.6
                 Q 252.6 572.4 288.6 608.4
                 Q 259.8 601.2 231.0 640.8
                 Q 281.4 626.4 310.2 536.4 Z"
              fill="#9B8CFF" opacity="0.35" stroke="#1E1B2E" stroke-width="6"/>
        
          <line x1="251.7" y1="590.0" x2="498.3" y2="670.0" stroke="#1E1B2E" stroke-width="9.4" stroke-linecap="round"/>
          <line x1="251.7" y1="590.0" x2="498.3" y2="670.0" stroke="#ffffff" stroke-width="3.6" stroke-linecap="round" opacity="0.65"/>
          <line x1="308.5" y1="671.5" x2="345.6" y2="557.4" stroke="#1E1B2E" stroke-width="8.6" stroke-linecap="round"/>
          
        <polygon points="498.3,670.0 477.2,644.3 445.9,653.1 466.1,678.5"
                 fill="#ffffff" stroke="#1E1B2E" stroke-width="5" opacity="0.95"/>
        
          <circle cx="251.7" cy="590.0" r="11.5" fill="#9B8CFF" opacity="0.35" stroke="#1E1B2E" stroke-width="5"/>
        </g>
        
        </g>
        <line x1="242.8" y1="472.5" x2="183.0" y2="474.9" stroke="#ffffff" stroke-width="2.2" opacity="0.10"/>
<line x1="183.0" y1="474.9" x2="517.5" y2="461.3" stroke="#ffffff" stroke-width="2.2" opacity="0.09"/>
<line x1="517.5" y1="461.3" x2="298.9" y2="653.6" stroke="#ffffff" stroke-width="2.2" opacity="0.20"/>
<line x1="298.9" y1="653.6" x2="325.3" y2="649.8" stroke="#ffffff" stroke-width="2.2" opacity="0.14"/>
<line x1="325.3" y1="649.8" x2="483.4" y2="266.9" stroke="#ffffff" stroke-width="2.2" opacity="0.15"/>
<line x1="483.4" y1="266.9" x2="204.8" y2="609.2" stroke="#ffffff" stroke-width="2.2" opacity="0.16"/>
<circle cx="242.8" cy="472.5" r="4.2" fill="#ffffff" opacity="0.737123949826367"/>
<circle cx="325.3" cy="649.8" r="4.3" fill="#ffffff" opacity="0.6404593666708556"/>
<circle cx="517.5" cy="461.3" r="4.6" fill="#ffffff" opacity="0.8250590171019996"/>
<circle cx="272.4" cy="294.0" r="3.7" fill="#ffffff" opacity="0.5292511305401965"/>
<circle cx="298.9" cy="653.6" r="2.4" fill="#ffffff" opacity="0.3250601521887796"/>
<circle cx="483.4" cy="266.9" r="2.5" fill="#ffffff" opacity="0.25966916845667326"/>
<circle cx="173.4" cy="506.8" r="2.0" fill="#ffffff" opacity="0.4134939745717179"/>
<circle cx="211.5" cy="661.6" r="4.7" fill="#ffffff" opacity="0.4282287021032727"/>
<circle cx="594.2" cy="583.3" r="3.4" fill="#ffffff" opacity="0.7406076970174503"/>
<circle cx="612.8" cy="230.8" r="3.2" fill="#ffffff" opacity="0.5840584200210244"/>
<circle cx="183.0" cy="474.9" r="2.3" fill="#ffffff" opacity="0.5284599155886438"/>
<circle cx="468.4" cy="428.3" r="1.7" fill="#ffffff" opacity="0.2687628084467889"/>
<circle cx="204.8" cy="609.2" r="1.9" fill="#ffffff" opacity="0.2557515774672957"/>
<circle cx="279.2" cy="357.5" r="3.3" fill="#ffffff" opacity="0.6926058802389088"/>
<rect x="42" y="1030" width="666" height="160" rx="30" fill="#ffffffd9" stroke="#1E1B2E" stroke-width="4" opacity="0.95"/>
<text x="375.0" y="1104" font-family="ui-sans-serif, system-ui, -apple-system, Segoe UI, Roboto, Helvetica, Arial" font-size="46" font-weight="900" text-anchor="middle" fill="#1E1B2E" opacity="0.98">3 of Swords</text>
<text x="375.0" y="1152" font-family="ui-sans-serif, system-ui, -apple-system, Segoe UI, Roboto, Helvetica, Arial" font-size="28" font-weight="700" text-anchor="middle" fill="#1E1B2E" opacity="0.7">Growth</text>

    <g opacity="0.55">
      <circle cx="127" cy="1176" r="14" fill="#9B8CFF"/>
      <circle cx="623" cy="1176" r="14" fill="#9B8CFF"/>
      <path d="M 162 1176 L 588 1176" stroke="#9B8CFF" stroke-width="4" opacity="0.45" stroke-linecap="round"/>
    </g>
    
</svg>
