<svg xmlns="http://www.w3.org/2000/svg" width="750" height="1250" viewBox="0 0 750 1250">
  <title>5 of Swords</title>


  <defs>
    <linearGradient id="g" x1="0" y1="0" x2="1" y2="1">
      <stop offset="0%" stop-color="#FFF7CC"/>
      <stop offset="100%" stop-color="#E6FBFF"/>
    </linearGradient>

    <!-- paper texture -->
    <filter id="paper" x="-20%" y="-20%" width="140%" height="140%">
      <feTurbulence type="fractalNoise" baseFrequency="0.016" numOctaves="3" seed="4861" result="noise"/>
      <feColorMatrix in="noise" type="matrix"
        values="1 0 0 0 0
                0 1 0 0 0
                0 0 1 0 0
                0 0 0 0.25 0" result="noiseAlpha"/>
      <feComposite in="noiseAlpha" in2="SourceGraphic" operator="over"/>
    </filter>

    <!-- soft glow -->
    <filter id="glow" x="-30%" y="-30%" width="160%" height="160%">
      <feGaussianBlur stdDeviation="10" result="blur"/>
      <feColorMatrix type="matrix" values="
        1 0 0 0 0
        0 1 0 0 0
        0 0 1 0 0
        0 0 0 0.32 0" result="blurAlpha"/>
      <feMerge>
        <feMergeNode in="blurAlpha"/>
        <feMergeNode in="SourceGraphic"/>
      </feMerge>
    </filter>
  </defs>

<rect x="0" y="0" width="750" height="1250" rx="58" ry="58" fill="url(#g)" stroke="none" stroke-width="0" opacity="1"/>
<rect x="0" y="0" width="750" height="1250" fill="#ffffff" opacity="0.08"/>
<line x1="287.5" y1="476.5" x2="670.1" y2="865.2" stroke="#ffffff" stroke-width="2.2" opacity="0.16"/>
<line x1="670.1" y1="865.2" x2="614.2" y2="563.0" stroke="#ffffff" stroke-width="2.2" opacity="0.20"/>
<line x1="614.2" y1="563.0" x2="346.2" y2="549.4" stroke="#ffffff" stroke-width="2.2" opacity="0.16"/>
<line x1="346.2" y1="549.4" x2="110.8" y2="1138.2" stroke="#ffffff" stroke-width="2.2" opacity="0.10"/>
<line x1="110.8" y1="1138.2" x2="222.8" y2="952.8" stroke="#ffffff" stroke-width="2.2" opacity="0.15"/>
<line x1="222.8" y1="952.8" x2="56.8" y2="1133.8" stroke="#ffffff" stroke-width="2.2" opacity="0.20"/>
<line x1="56.8" y1="1133.8" x2="588.2" y2="411.4" stroke="#ffffff" stroke-width="2.2" opacity="0.20"/>
<line x1="588.2" y1="411.4" x2="497.9" y2="1178.3" stroke="#ffffff" stroke-width="2.2" opacity="0.10"/>
<line x1="497.9" y1="1178.3" x2="409.5" y2="1163.4" stroke="#ffffff" stroke-width="2.2" opacity="0.12"/>
<line x1="409.5" y1="1163.4" x2="550.2" y2="71.6" stroke="#ffffff" stroke-width="2.2" opacity="0.17"/>
<line x1="550.2" y1="71.6" x2="647.6" y2="676.9" stroke="#ffffff" stroke-width="2.2" opacity="0.22"/>
<line x1="647.6" y1="676.9" x2="390.2" y2="1052.6" stroke="#ffffff" stroke-width="2.2" opacity="0.21"/>
<line x1="390.2" y1="1052.6" x2="593.2" y2="1056.4" stroke="#ffffff" stroke-width="2.2" opacity="0.19"/>
<line x1="593.2" y1="1056.4" x2="147.8" y2="80.6" stroke="#ffffff" stroke-width="2.2" opacity="0.15"/>
<line x1="147.8" y1="80.6" x2="472.7" y2="506.5" stroke="#ffffff" stroke-width="2.2" opacity="0.11"/>
<line x1="472.7" y1="506.5" x2="329.1" y2="691.3" stroke="#ffffff" stroke-width="2.2" opacity="0.12"/>
<line x1="329.1" y1="691.3" x2="566.6" y2="973.5" stroke="#ffffff" stroke-width="2.2" opacity="0.12"/>
<line x1="566.6" y1="973.5" x2="610.1" y2="952.3" stroke="#ffffff" stroke-width="2.2" opacity="0.21"/>
<circle cx="593.2" cy="1056.4" r="1.7" fill="#ffffff" opacity="0.5025270905157326"/>
<circle cx="689.6" cy="704.9" r="4.3" fill="#ffffff" opacity="0.31656736242676836"/>
<circle cx="425.3" cy="51.0" r="2.3" fill="#ffffff" opacity="0.5433097360888363"/>
<circle cx="110.8" cy="1138.2" r="2.5" fill="#ffffff" opacity="0.572463802080426"/>
<circle cx="463.8" cy="242.7" r="4.5" fill="#ffffff" opacity="0.4596674679531654"/>
<circle cx="261.1" cy="218.3" r="4.7" fill="#ffffff" opacity="0.40407135565649627"/>
<circle cx="147.8" cy="80.6" r="4.6" fill="#ffffff" opacity="0.4245534824246704"/>
<circle cx="543.4" cy="192.3" r="3.4" fill="#ffffff" opacity="0.46762501458405903"/>
<circle cx="57.2" cy="227.8" r="3.3" fill="#ffffff" opacity="0.7088499097675452"/>
<circle cx="643.8" cy="562.2" r="3.1" fill="#ffffff" opacity="0.8339135148599376"/>
<circle cx="588.2" cy="411.4" r="2.8" fill="#ffffff" opacity="0.6867613049642813"/>
<circle cx="373.1" cy="899.3" r="2.0" fill="#ffffff" opacity="0.6582548228630458"/>
<circle cx="497.9" cy="1178.3" r="4.6" fill="#ffffff" opacity="0.5320688904640103"/>
<circle cx="647.6" cy="676.9" r="3.0" fill="#ffffff" opacity="0.8013076050378943"/>
<circle cx="417.4" cy="1149.5" r="1.7" fill="#ffffff" opacity="0.8081808085200951"/>
<circle cx="628.6" cy="449.9" r="2.4" fill="#ffffff" opacity="0.5576290217062844"/>
<circle cx="449.5" cy="352.4" r="4.0" fill="#ffffff" opacity="0.33445087834244325"/>
<circle cx="222.8" cy="952.8" r="2.8" fill="#ffffff" opacity="0.38753469814414254"/>
<circle cx="94.2" cy="372.5" r="2.6" fill="#ffffff" opacity="0.4497139230509043"/>
<circle cx="633.5" cy="1048.0" r="3.1" fill="#ffffff" opacity="0.7016775394240009"/>
<circle cx="610.1" cy="952.3" r="4.2" fill="#ffffff" opacity="0.4745117819877341"/>
<circle cx="489.6" cy="711.3" r="3.9" fill="#ffffff" opacity="0.4026590250514578"/>
<circle cx="519.8" cy="145.9" r="2.0" fill="#ffffff" opacity="0.5562379490466463"/>
<circle cx="390.2" cy="1052.6" r="2.5" fill="#ffffff" opacity="0.282197784442193"/>
<circle cx="566.6" cy="973.5" r="2.8" fill="#ffffff" opacity="0.33353048438911875"/>
<circle cx="145.6" cy="603.4" r="4.5" fill="#ffffff" opacity="0.5005555868907177"/>
<circle cx="287.5" cy="476.5" r="4.3" fill="#ffffff" opacity="0.2569936499787282"/>
<circle cx="409.5" cy="1163.4" r="4.8" fill="#ffffff" opacity="0.7157145543168137"/>
<circle cx="556.8" cy="509.5" r="3.9" fill="#ffffff" opacity="0.5467317283513908"/>
<circle cx="476.6" cy="647.3" r="2.6" fill="#ffffff" opacity="0.31481706287979083"/>
<circle cx="549.8" cy="845.9" r="2.7" fill="#ffffff" opacity="0.7703311634821903"/>
<circle cx="112.6" cy="228.3" r="2.4" fill="#ffffff" opacity="0.8335230957290103"/>
<circle cx="532.5" cy="1033.8" r="3.8" fill="#ffffff" opacity="0.516691771054814"/>
<circle cx="568.1" cy="955.0" r="3.2" fill="#ffffff" opacity="0.2572230303848783"/>
<circle cx="173.6" cy="220.0" r="1.9" fill="#ffffff" opacity="0.2937744091670808"/>
<circle cx="550.2" cy="71.6" r="3.1" fill="#ffffff" opacity="0.8365726121466601"/>
<circle cx="539.6" cy="714.7" r="1.9" fill="#ffffff" opacity="0.3232056807021574"/>
<circle cx="363.1" cy="1105.8" r="1.8" fill="#ffffff" opacity="0.42023896409224637"/>
<circle cx="614.2" cy="563.0" r="4.6" fill="#ffffff" opacity="0.6146471981548076"/>
<circle cx="56.8" cy="1133.8" r="2.6" fill="#ffffff" opacity="0.7143358767674286"/>
<circle cx="403.6" cy="86.3" r="2.8" fill="#ffffff" opacity="0.6427190046555393"/>
<circle cx="379.0" cy="97.5" r="2.8" fill="#ffffff" opacity="0.7390914887490787"/>
<circle cx="85.8" cy="601.6" r="3.6" fill="#ffffff" opacity="0.34755129944367513"/>
<circle cx="451.8" cy="466.7" r="3.6" fill="#ffffff" opacity="0.8283039864206562"/>
<circle cx="582.9" cy="224.8" r="2.9" fill="#ffffff" opacity="0.5947499619883632"/>
<circle cx="472.7" cy="506.5" r="2.6" fill="#ffffff" opacity="0.6793024343835528"/>
<circle cx="670.1" cy="865.2" r="3.6" fill="#ffffff" opacity="0.3714644956653787"/>
<circle cx="301.9" cy="242.6" r="3.1" fill="#ffffff" opacity="0.7616538881959545"/>
<circle cx="346.2" cy="549.4" r="2.9" fill="#ffffff" opacity="0.34458360603852356"/>
<circle cx="329.1" cy="691.3" r="2.3" fill="#ffffff" opacity="0.5653551670450194"/>
<g filter="url(#paper)"><rect x="42" y="42" width="666" height="1166" rx="54" ry="54" fill="none" stroke="#1E1B2E" stroke-width="8" opacity="0.95"/>
<rect x="60" y="60" width="630" height="1130" rx="46" ry="46" fill="none" stroke="#9B8CFF" stroke-width="3" opacity="0.35"/>

  <g opacity="0.42">
    <circle cx="375.0" cy="560" r="285" fill="none" stroke="#9B8CFF" stroke-width="4.2" opacity="0.42"/>
    <circle cx="375.0" cy="560" r="233.7" fill="none" stroke="#9B8CFF" stroke-width="2.2" opacity="0.23"/>
    <line x1="642.0" y1="560.0" x2="674.0" y2="560.0" stroke="#9B8CFF" stroke-width="3.2" opacity="0.23" stroke-linecap="round"/><line x1="606.2" y1="693.5" x2="633.9" y2="709.5" stroke="#9B8CFF" stroke-width="3.2" opacity="0.23" stroke-linecap="round"/><line x1="508.5" y1="791.2" x2="524.5" y2="818.9" stroke="#9B8CFF" stroke-width="3.2" opacity="0.23" stroke-linecap="round"/><line x1="375.0" y1="827.0" x2="375.0" y2="859.0" stroke="#9B8CFF" stroke-width="3.2" opacity="0.23" stroke-linecap="round"/><line x1="241.5" y1="791.2" x2="225.5" y2="818.9" stroke="#9B8CFF" stroke-width="3.2" opacity="0.23" stroke-linecap="round"/><line x1="143.8" y1="693.5" x2="116.1" y2="709.5" stroke="#9B8CFF" stroke-width="3.2" opacity="0.23" stroke-linecap="round"/><line x1="108.0" y1="560.0" x2="76.0" y2="560.0" stroke="#9B8CFF" stroke-width="3.2" opacity="0.23" stroke-linecap="round"/><line x1="143.8" y1="426.5" x2="116.1" y2="410.5" stroke="#9B8CFF" stroke-width="3.2" opacity="0.23" stroke-linecap="round"/><line x1="241.5" y1="328.8" x2="225.5" y2="301.1" stroke="#9B8CFF" stroke-width="3.2" opacity="0.23" stroke-linecap="round"/><line x1="375.0" y1="293.0" x2="375.0" y2="261.0" stroke="#9B8CFF" stroke-width="3.2" opacity="0.23" stroke-linecap="round"/><line x1="508.5" y1="328.8" x2="524.5" y2="301.1" stroke="#9B8CFF" stroke-width="3.2" opacity="0.23" stroke-linecap="round"/><line x1="606.2" y1="426.5" x2="633.9" y2="410.5" stroke="#9B8CFF" stroke-width="3.2" opacity="0.23" stroke-linecap="round"/>
    <circle cx="659.9" cy="551.3" r="3.3" fill="#9B8CFF" opacity="0.31"/><circle cx="650.5" cy="632.8" r="3.7" fill="#9B8CFF" opacity="0.39"/><circle cx="620.2" cy="705.3" r="2.9" fill="#9B8CFF" opacity="0.19"/><circle cx="576.3" cy="761.7" r="3.9" fill="#9B8CFF" opacity="0.45"/><circle cx="512.1" cy="809.9" r="3.7" fill="#9B8CFF" opacity="0.38"/><circle cx="454.8" cy="833.6" r="3.5" fill="#9B8CFF" opacity="0.35"/><circle cx="368.3" cy="844.9" r="3.9" fill="#9B8CFF" opacity="0.27"/><circle cx="300.6" cy="835.1" r="2.9" fill="#9B8CFF" opacity="0.24"/><circle cx="233.5" cy="807.4" r="3.5" fill="#9B8CFF" opacity="0.21"/><circle cx="178.4" cy="766.3" r="3.0" fill="#9B8CFF" opacity="0.23"/><circle cx="132.2" cy="709.3" r="2.8" fill="#9B8CFF" opacity="0.38"/><circle cx="98.9" cy="630.5" r="3.3" fill="#9B8CFF" opacity="0.44"/><circle cx="90.0" cy="559.7" r="3.3" fill="#9B8CFF" opacity="0.41"/><circle cx="98.0" cy="493.0" r="2.8" fill="#9B8CFF" opacity="0.24"/><circle cx="127.5" cy="418.7" r="3.7" fill="#9B8CFF" opacity="0.38"/><circle cx="167.9" cy="364.2" r="3.7" fill="#9B8CFF" opacity="0.33"/><circle cx="227.3" cy="316.2" r="3.2" fill="#9B8CFF" opacity="0.27"/><circle cx="300.2" cy="285.0" r="2.8" fill="#9B8CFF" opacity="0.21"/><circle cx="365.5" cy="275.2" r="3.6" fill="#9B8CFF" opacity="0.43"/><circle cx="442.7" cy="283.2" r="3.6" fill="#9B8CFF" opacity="0.26"/><circle cx="523.2" cy="316.5" r="3.1" fill="#9B8CFF" opacity="0.42"/><circle cx="573.0" cy="355.0" r="3.1" fill="#9B8CFF" opacity="0.32"/><circle cx="619.7" cy="413.9" r="3.2" fill="#9B8CFF" opacity="0.26"/><circle cx="649.4" cy="483.2" r="3.5" fill="#9B8CFF" opacity="0.27"/>
  </g>

<g><g transform="translate(50,54)"><path d="M 21.6 140.4 Q 75.6 36.0 165.6 68.4 Q 93.6 79.2 72.0 126.0" fill="none" stroke="#9B8CFF" stroke-width="6" opacity="0.55" stroke-linecap="round"/></g><g transform="translate(700,54) scale(-1,1)"><path d="M 21.6 140.4 Q 75.6 36.0 165.6 68.4 Q 93.6 79.2 72.0 126.0" fill="none" stroke="#9B8CFF" stroke-width="6" opacity="0.55" stroke-linecap="round"/></g><g transform="translate(50,1196) scale(1,-1)"><path d="M 21.6 140.4 Q 75.6 36.0 165.6 68.4 Q 93.6 79.2 72.0 126.0" fill="none" stroke="#9B8CFF" stroke-width="6" opacity="0.55" stroke-linecap="round"/></g><g transform="translate(700,1196) scale(-1,-1)"><path d="M 21.6 140.4 Q 75.6 36.0 165.6 68.4 Q 93.6 79.2 72.0 126.0" fill="none" stroke="#9B8CFF" stroke-width="6" opacity="0.55" stroke-linecap="round"/></g></g></g>
<rect x="42" y="60" width="666" height="92" rx="30" fill="#ffffffcc" stroke="#1E1B2E" stroke-width="4" opacity="0.95"/>
<text x="375.0" y="122" font-family="ui-sans-serif, system-ui, -apple-system, Segoe UI, Roboto, Helvetica, Arial" font-size="30" font-weight="800" text-anchor="middle" fill="#1E1B2E" opacity="0.95" letter-spacing="1">MINOR ARCANA • SWORDS</text>
<rect x="76" y="170" width="598" height="760" rx="52" fill="#ffffff" opacity="0.15"/>
<g><line x1="92" y1="230.0" x2="658" y2="230.0" stroke="#9B8CFF" stroke-width="2.2" opacity="0.08"/><line x1="212" y1="218.0" x2="312" y2="242.0" stroke="#9B8CFF" stroke-width="2.2" opacity="0.06"/><line x1="92" y1="302.0" x2="658" y2="302.0" stroke="#9B8CFF" stroke-width="2.2" opacity="0.08"/><line x1="212" y1="290.0" x2="312" y2="314.0" stroke="#9B8CFF" stroke-width="2.2" opacity="0.06"/><line x1="92" y1="374.0" x2="658" y2="374.0" stroke="#9B8CFF" stroke-width="2.2" opacity="0.08"/><line x1="212" y1="362.0" x2="312" y2="386.0" stroke="#9B8CFF" stroke-width="2.2" opacity="0.06"/><line x1="92" y1="446.0" x2="658" y2="446.0" stroke="#9B8CFF" stroke-width="2.2" opacity="0.08"/><line x1="212" y1="434.0" x2="312" y2="458.0" stroke="#9B8CFF" stroke-width="2.2" opacity="0.06"/><line x1="92" y1="518.0" x2="658" y2="518.0" stroke="#9B8CFF" stroke-width="2.2" opacity="0.08"/><line x1="212" y1="506.0" x2="312" y2="530.0" stroke="#9B8CFF" stroke-width="2.2" opacity="0.06"/><line x1="92" y1="590.0" x2="658" y2="590.0" stroke="#9B8CFF" stroke-width="2.2" opacity="0.08"/><line x1="212" y1="578.0" x2="312" y2="602.0" stroke="#9B8CFF" stroke-width="2.2" opacity="0.06"/><line x1="92" y1="662.0" x2="658" y2="662.0" stroke="#9B8CFF" stroke-width="2.2" opacity="0.08"/><line x1="212" y1="650.0" x2="312" y2="674.0" stroke="#9B8CFF" stroke-width="2.2" opacity="0.06"/><line x1="92" y1="734.0" x2="658" y2="734.0" stroke="#9B8CFF" stroke-width="2.2" opacity="0.08"/><line x1="212" y1="722.0" x2="312" y2="746.0" stroke="#9B8CFF" stroke-width="2.2" opacity="0.06"/><line x1="92" y1="806.0" x2="658" y2="806.0" stroke="#9B8CFF" stroke-width="2.2" opacity="0.08"/><line x1="212" y1="794.0" x2="312" y2="818.0" stroke="#9B8CFF" stroke-width="2.2" opacity="0.06"/><line x1="92" y1="878.0" x2="658" y2="878.0" stroke="#9B8CFF" stroke-width="2.2" opacity="0.08"/><line x1="212" y1="866.0" x2="312" y2="890.0" stroke="#9B8CFF" stroke-width="2.2" opacity="0.06"/></g><g><g opacity="0.55">
        <g>
          
        <path d="M 370.3 374.6
                 Q 342.3 369.0 331.1 391.4
                 Q 347.9 388.6 361.9 402.6
                 Q 350.7 399.8 339.5 415.2
                 Q 359.1 409.6 370.3 374.6 Z"
              fill="#9B8CFF" opacity="0.35" stroke="#1E1B2E" stroke-width="6"/>
        
          <line x1="347.6" y1="395.4" x2="443.5" y2="426.6" stroke="#1E1B2E" stroke-width="3.6" stroke-linecap="round"/>
          <line x1="347.6" y1="395.4" x2="443.5" y2="426.6" stroke="#ffffff" stroke-width="1.4" stroke-linecap="round" opacity="0.65"/>
          <line x1="358.4" y1="462.0" x2="395.4" y2="347.9" stroke="#1E1B2E" stroke-width="3.4" stroke-linecap="round"/>
          
        <polygon points="443.5,426.6 422.4,400.8 391.2,409.6 411.3,435.0"
                 fill="#ffffff" stroke="#1E1B2E" stroke-width="5" opacity="0.95"/>
        
          <circle cx="347.6" cy="395.4" r="4.5" fill="#9B8CFF" opacity="0.35" stroke="#1E1B2E" stroke-width="5"/>
        </g>
        </g><g opacity="0.55">
        <g>
          
        <path d="M 553.9 534.1
                 Q 525.9 528.5 514.7 550.9
                 Q 531.5 548.1 545.5 562.1
                 Q 534.3 559.3 523.1 574.7
                 Q 542.7 569.1 553.9 534.1 Z"
              fill="#9B8CFF" opacity="0.35" stroke="#1E1B2E" stroke-width="6"/>
        
          <line x1="531.1" y1="554.9" x2="627.0" y2="586.0" stroke="#1E1B2E" stroke-width="3.6" stroke-linecap="round"/>
          <line x1="531.1" y1="554.9" x2="627.0" y2="586.0" stroke="#ffffff" stroke-width="1.4" stroke-linecap="round" opacity="0.65"/>
          <line x1="541.9" y1="621.5" x2="579.0" y2="507.3" stroke="#1E1B2E" stroke-width="3.4" stroke-linecap="round"/>
          
        <polygon points="627.0,586.0 605.9,560.3 574.7,569.0 594.8,594.5"
                 fill="#ffffff" stroke="#1E1B2E" stroke-width="5" opacity="0.95"/>
        
          <circle cx="531.1" cy="554.9" r="4.5" fill="#9B8CFF" opacity="0.35" stroke="#1E1B2E" stroke-width="5"/>
        </g>
        </g><g opacity="0.55">
        <g>
          
        <path d="M 487.2 742.4
                 Q 459.2 736.8 448.0 759.2
                 Q 464.8 756.4 478.8 770.4
                 Q 467.6 767.6 456.4 783.0
                 Q 476.0 777.4 487.2 742.4 Z"
              fill="#9B8CFF" opacity="0.35" stroke="#1E1B2E" stroke-width="6"/>
        
          <line x1="464.4" y1="763.3" x2="560.3" y2="794.4" stroke="#1E1B2E" stroke-width="3.6" stroke-linecap="round"/>
          <line x1="464.4" y1="763.3" x2="560.3" y2="794.4" stroke="#ffffff" stroke-width="1.4" stroke-linecap="round" opacity="0.65"/>
          <line x1="475.2" y1="829.9" x2="512.3" y2="715.7" stroke="#1E1B2E" stroke-width="3.4" stroke-linecap="round"/>
          
        <polygon points="560.3,794.4 539.2,768.7 508.0,777.4 528.1,802.9"
                 fill="#ffffff" stroke="#1E1B2E" stroke-width="5" opacity="0.95"/>
        
          <circle cx="464.4" cy="763.3" r="4.5" fill="#9B8CFF" opacity="0.35" stroke="#1E1B2E" stroke-width="5"/>
        </g>
        </g><g opacity="0.55">
        <g>
          
        <path d="M 211.0 741.2
                 Q 183.0 735.6 171.8 758.0
                 Q 188.6 755.2 202.6 769.2
                 Q 191.4 766.4 180.2 781.8
                 Q 199.8 776.2 211.0 741.2 Z"
              fill="#9B8CFF" opacity="0.35" stroke="#1E1B2E" stroke-width="6"/>
        
          <line x1="188.2" y1="762.0" x2="284.1" y2="793.1" stroke="#1E1B2E" stroke-width="3.6" stroke-linecap="round"/>
          <line x1="188.2" y1="762.0" x2="284.1" y2="793.1" stroke="#ffffff" stroke-width="1.4" stroke-linecap="round" opacity="0.65"/>
          <line x1="199.0" y1="828.6" x2="236.1" y2="714.4" stroke="#1E1B2E" stroke-width="3.4" stroke-linecap="round"/>
          
        <polygon points="284.1,793.1 263.0,767.4 231.8,776.1 251.9,801.6"
                 fill="#ffffff" stroke="#1E1B2E" stroke-width="5" opacity="0.95"/>
        
          <circle cx="188.2" cy="762.0" r="4.5" fill="#9B8CFF" opacity="0.35" stroke="#1E1B2E" stroke-width="5"/>
        </g>
        </g><g opacity="0.55">
        <g>
          
        <path d="M 150.6 517.3
                 Q 122.6 511.7 111.4 534.1
                 Q 128.2 531.3 142.2 545.3
                 Q 131.0 542.5 119.8 557.9
                 Q 139.4 552.3 150.6 517.3 Z"
              fill="#9B8CFF" opacity="0.35" stroke="#1E1B2E" stroke-width="6"/>
        
          <line x1="127.8" y1="538.1" x2="223.7" y2="569.2" stroke="#1E1B2E" stroke-width="3.6" stroke-linecap="round"/>
          <line x1="127.8" y1="538.1" x2="223.7" y2="569.2" stroke="#ffffff" stroke-width="1.4" stroke-linecap="round" opacity="0.65"/>
          <line x1="138.6" y1="604.7" x2="175.7" y2="490.5" stroke="#1E1B2E" stroke-width="3.4" stroke-linecap="round"/>
          
        <polygon points="223.7,569.2 202.6,543.5 171.4,552.2 191.5,577.7"
                 fill="#ffffff" stroke="#1E1B2E" stroke-width="5" opacity="0.95"/>
        
          <circle cx="127.8" cy="538.1" r="4.5" fill="#9B8CFF" opacity="0.35" stroke="#1E1B2E" stroke-width="5"/>
        </g>
        </g></g><path d="M 175.0 740 Q 375.0 680 575.0 740" fill="none" stroke="#9B8CFF" stroke-width="10" opacity="0.25" stroke-linecap="round"/>
        <g filter="url(#glow)">
          <circle cx="375.0" cy="630" r="170" fill="#ffffff" opacity="0.40" stroke="#9B8CFF" stroke-width="7"/>
          
        <g>
          
        <path d="M 310.2 536.4
                 Q 238.2 522.0 209.4 579.6
                 Q 252.6 572.4 288.6 608.4
                 Q 259.8 601.2 231.0 640.8
                 Q 281.4 626.4 310.2 536.4 Z"
              fill="#9B8CFF" opacity="0.35" stroke="#1E1B2E" stroke-width="6"/>
        
          <line x1="251.7" y1="590.0" x2="498.3" y2="670.0" stroke="#1E1B2E" stroke-width="9.4" stroke-linecap="round"/>
          <line x1="251.7" y1="590.0" x2="498.3" y2="670.0" stroke="#ffffff" stroke-width="3.6" stroke-linecap="round" opacity="0.65"/>
          <line x1="308.5" y1="671.5" x2="345.6" y2="557.4" stroke="#1E1B2E" stroke-width="8.6" stroke-linecap="round"/>
          
        <polygon points="498.3,670.0 477.2,644.3 445.9,653.1 466.1,678.5"
                 fill="#ffffff" stroke="#1E1B2E" stroke-width="5" opacity="0.95"/>
        
          <circle cx="251.7" cy="590.0" r="11.5" fill="#9B8CFF" opacity="0.35" stroke="#1E1B2E" stroke-width="5"/>
        </g>
        
        </g>
        <line x1="229.6" y1="632.3" x2="278.4" y2="487.2" stroke="#ffffff" stroke-width="2.2" opacity="0.21"/>
<line x1="278.4" y1="487.2" x2="251.1" y2="351.8" stroke="#ffffff" stroke-width="2.2" opacity="0.14"/>
<line x1="251.1" y1="351.8" x2="389.0" y2="486.0" stroke="#ffffff" stroke-width="2.2" opacity="0.18"/>
<line x1="389.0" y1="486.0" x2="443.1" y2="402.9" stroke="#ffffff" stroke-width="2.2" opacity="0.12"/>
<line x1="443.1" y1="402.9" x2="599.3" y2="281.9" stroke="#ffffff" stroke-width="2.2" opacity="0.15"/>
<line x1="599.3" y1="281.9" x2="442.6" y2="253.5" stroke="#ffffff" stroke-width="2.2" opacity="0.16"/>
<circle cx="599.3" cy="281.9" r="2.7" fill="#ffffff" opacity="0.6016916400016867"/>
<circle cx="229.6" cy="632.3" r="2.9" fill="#ffffff" opacity="0.844456868178224"/>
<circle cx="389.0" cy="486.0" r="3.5" fill="#ffffff" opacity="0.8204436648229225"/>
<circle cx="492.3" cy="465.7" r="3.7" fill="#ffffff" opacity="0.6267319264716866"/>
<circle cx="241.2" cy="640.9" r="3.3" fill="#ffffff" opacity="0.7498089251989906"/>
<circle cx="469.2" cy="256.0" r="2.8" fill="#ffffff" opacity="0.5438697809478024"/>
<circle cx="278.4" cy="487.2" r="3.4" fill="#ffffff" opacity="0.3298866770992899"/>
<circle cx="183.5" cy="393.1" r="4.0" fill="#ffffff" opacity="0.675560217458262"/>
<circle cx="251.1" cy="351.8" r="2.8" fill="#ffffff" opacity="0.6044125412271162"/>
<circle cx="213.5" cy="688.6" r="3.2" fill="#ffffff" opacity="0.4451707128399494"/>
<circle cx="521.2" cy="325.7" r="4.5" fill="#ffffff" opacity="0.4103662884422107"/>
<circle cx="184.1" cy="448.9" r="3.7" fill="#ffffff" opacity="0.2888031736246023"/>
<circle cx="443.1" cy="402.9" r="3.8" fill="#ffffff" opacity="0.25115492833904673"/>
<circle cx="442.6" cy="253.5" r="1.7" fill="#ffffff" opacity="0.6404869017934003"/>
<rect x="42" y="1030" width="666" height="160" rx="30" fill="#ffffffd9" stroke="#1E1B2E" stroke-width="4" opacity="0.95"/>
<text x="375.0" y="1104" font-family="ui-sans-serif, system-ui, -apple-system, Segoe UI, Roboto, Helvetica, Arial" font-size="46" font-weight="900" text-anchor="middle" fill="#1E1B2E" opacity="0.98">5 of Swords</text>
<text x="375.0" y="1152" font-family="ui-sans-serif, system-ui, -apple-system, Segoe UI, Roboto, Helvetica, Arial" font-size="28" font-weight="700" text-anchor="middle" fill="#1E1B2E" opacity="0.7">Learning</text>

    <g opacity="0.55">
      <circle cx="127" cy="1176" r="14" fill="#9B8CFF"/>
      <circle cx="623" cy="1176" r="14" fill="#9B8CFF"/>
      <path d="M 162 1176 L 588 1176" stroke="#9B8CFF" stroke-width="4" opacity="0.45" stroke-linecap="round"/>
    </g>
    
</svg>
