<svg xmlns="http://www.w3.org/2000/svg" width="750" height="1250" viewBox="0 0 750 1250">
  <title>6 of Swords</title>


  <defs>
    <linearGradient id="g" x1="0" y1="0" x2="1" y2="1">
      <stop offset="0%" stop-color="#E6E9FF"/>
      <stop offset="100%" stop-color="#F9E7FF"/>
    </linearGradient>

    <!-- paper texture -->
    <filter id="paper" x="-20%" y="-20%" width="140%" height="140%">
      <feTurbulence type="fractalNoise" baseFrequency="0.017" numOctaves="3" seed="2383" result="noise"/>
      <feColorMatrix in="noise" type="matrix"
        values="1 0 0 0 0
                0 1 0 0 0
                0 0 1 0 0
                0 0 0 0.25 0" result="noiseAlpha"/>
      <feComposite in="noiseAlpha" in2="SourceGraphic" operator="over"/>
    </filter>

    <!-- soft glow -->
    <filter id="glow" x="-30%" y="-30%" width="160%" height="160%">
      <feGaussianBlur stdDeviation="10" result="blur"/>
      <feColorMatrix type="matrix" values="
        1 0 0 0 0
        0 1 0 0 0
        0 0 1 0 0
        0 0 0 0.32 0" result="blurAlpha"/>
      <feMerge>
        <feMergeNode in="blurAlpha"/>
        <feMergeNode in="SourceGraphic"/>
      </feMerge>
    </filter>
  </defs>

<rect x="0" y="0" width="750" height="1250" rx="58" ry="58" fill="url(#g)" stroke="none" stroke-width="0" opacity="1"/>
<rect x="0" y="0" width="750" height="1250" fill="#ffffff" opacity="0.08"/>
<line x1="134.9" y1="973.4" x2="427.6" y2="242.3" stroke="#ffffff" stroke-width="2.2" opacity="0.12"/>
<line x1="427.6" y1="242.3" x2="303.3" y2="1197.1" stroke="#ffffff" stroke-width="2.2" opacity="0.22"/>
<line x1="303.3" y1="1197.1" x2="311.2" y2="213.7" stroke="#ffffff" stroke-width="2.2" opacity="0.21"/>
<line x1="311.2" y1="213.7" x2="446.1" y2="871.5" stroke="#ffffff" stroke-width="2.2" opacity="0.08"/>
<line x1="446.1" y1="871.5" x2="631.8" y2="745.3" stroke="#ffffff" stroke-width="2.2" opacity="0.19"/>
<line x1="631.8" y1="745.3" x2="600.7" y2="43.9" stroke="#ffffff" stroke-width="2.2" opacity="0.10"/>
<line x1="600.7" y1="43.9" x2="315.2" y2="315.9" stroke="#ffffff" stroke-width="2.2" opacity="0.20"/>
<line x1="315.2" y1="315.9" x2="334.3" y2="105.1" stroke="#ffffff" stroke-width="2.2" opacity="0.12"/>
<line x1="334.3" y1="105.1" x2="238.3" y2="54.1" stroke="#ffffff" stroke-width="2.2" opacity="0.14"/>
<line x1="238.3" y1="54.1" x2="314.8" y2="563.1" stroke="#ffffff" stroke-width="2.2" opacity="0.16"/>
<line x1="314.8" y1="563.1" x2="92.0" y2="582.6" stroke="#ffffff" stroke-width="2.2" opacity="0.09"/>
<line x1="92.0" y1="582.6" x2="659.0" y2="826.0" stroke="#ffffff" stroke-width="2.2" opacity="0.19"/>
<line x1="659.0" y1="826.0" x2="568.5" y2="668.5" stroke="#ffffff" stroke-width="2.2" opacity="0.13"/>
<line x1="568.5" y1="668.5" x2="342.3" y2="760.9" stroke="#ffffff" stroke-width="2.2" opacity="0.09"/>
<line x1="342.3" y1="760.9" x2="622.3" y2="221.4" stroke="#ffffff" stroke-width="2.2" opacity="0.09"/>
<line x1="622.3" y1="221.4" x2="649.0" y2="925.5" stroke="#ffffff" stroke-width="2.2" opacity="0.10"/>
<line x1="649.0" y1="925.5" x2="114.5" y2="513.5" stroke="#ffffff" stroke-width="2.2" opacity="0.21"/>
<line x1="114.5" y1="513.5" x2="410.2" y2="241.2" stroke="#ffffff" stroke-width="2.2" opacity="0.10"/>
<circle cx="681.3" cy="76.2" r="3.0" fill="#ffffff" opacity="0.36493518962115945"/>
<circle cx="334.3" cy="105.1" r="3.1" fill="#ffffff" opacity="0.42972833308126657"/>
<circle cx="237.2" cy="455.9" r="3.8" fill="#ffffff" opacity="0.3607939186650611"/>
<circle cx="381.6" cy="480.4" r="3.2" fill="#ffffff" opacity="0.4414962851994676"/>
<circle cx="631.8" cy="745.3" r="3.5" fill="#ffffff" opacity="0.4713940437760306"/>
<circle cx="114.5" cy="513.5" r="3.1" fill="#ffffff" opacity="0.8060191337165369"/>
<circle cx="55.2" cy="444.5" r="3.0" fill="#ffffff" opacity="0.4418961641429604"/>
<circle cx="303.3" cy="1197.1" r="4.2" fill="#ffffff" opacity="0.7776475059023692"/>
<circle cx="560.7" cy="392.3" r="2.0" fill="#ffffff" opacity="0.3389042860588608"/>
<circle cx="593.0" cy="224.1" r="4.4" fill="#ffffff" opacity="0.4156236944383034"/>
<circle cx="256.4" cy="747.5" r="4.2" fill="#ffffff" opacity="0.7672144485770301"/>
<circle cx="659.0" cy="826.0" r="2.9" fill="#ffffff" opacity="0.5732514902415473"/>
<circle cx="92.0" cy="582.6" r="1.6" fill="#ffffff" opacity="0.4233192178883316"/>
<circle cx="524.3" cy="1176.1" r="3.6" fill="#ffffff" opacity="0.33663428961767844"/>
<circle cx="492.7" cy="895.5" r="3.9" fill="#ffffff" opacity="0.5261594312176658"/>
<circle cx="266.0" cy="75.2" r="4.3" fill="#ffffff" opacity="0.8318053793207563"/>
<circle cx="622.3" cy="221.4" r="1.6" fill="#ffffff" opacity="0.7521882642693711"/>
<circle cx="315.2" cy="315.9" r="3.6" fill="#ffffff" opacity="0.8206993789804742"/>
<circle cx="238.3" cy="54.1" r="3.4" fill="#ffffff" opacity="0.4157686699626708"/>
<circle cx="326.2" cy="655.4" r="3.4" fill="#ffffff" opacity="0.38363294177230967"/>
<circle cx="390.0" cy="105.7" r="2.4" fill="#ffffff" opacity="0.2564291992363783"/>
<circle cx="43.7" cy="103.3" r="1.9" fill="#ffffff" opacity="0.42084976779384364"/>
<circle cx="195.2" cy="83.7" r="2.0" fill="#ffffff" opacity="0.41508702809363746"/>
<circle cx="697.4" cy="710.6" r="4.7" fill="#ffffff" opacity="0.28823200075246475"/>
<circle cx="109.1" cy="634.2" r="2.4" fill="#ffffff" opacity="0.37450385268119135"/>
<circle cx="564.9" cy="232.9" r="3.4" fill="#ffffff" opacity="0.5368837795968937"/>
<circle cx="342.3" cy="760.9" r="4.7" fill="#ffffff" opacity="0.4799803812231386"/>
<circle cx="319.8" cy="886.8" r="2.9" fill="#ffffff" opacity="0.5229114221106876"/>
<circle cx="427.6" cy="242.3" r="4.0" fill="#ffffff" opacity="0.3119469298357286"/>
<circle cx="148.3" cy="394.8" r="2.1" fill="#ffffff" opacity="0.570616720391429"/>
<circle cx="649.0" cy="925.5" r="4.5" fill="#ffffff" opacity="0.5026683042634835"/>
<circle cx="134.9" cy="973.4" r="4.2" fill="#ffffff" opacity="0.5996784863498801"/>
<circle cx="135.4" cy="226.7" r="4.6" fill="#ffffff" opacity="0.4942966221846591"/>
<circle cx="314.8" cy="563.1" r="2.4" fill="#ffffff" opacity="0.276190678361863"/>
<circle cx="311.2" cy="213.7" r="4.0" fill="#ffffff" opacity="0.3540014335784048"/>
<circle cx="568.5" cy="668.5" r="2.3" fill="#ffffff" opacity="0.26073622731696317"/>
<circle cx="156.6" cy="536.9" r="3.3" fill="#ffffff" opacity="0.6880833532927249"/>
<circle cx="309.9" cy="902.9" r="3.6" fill="#ffffff" opacity="0.45564017902765097"/>
<circle cx="481.8" cy="502.3" r="3.4" fill="#ffffff" opacity="0.7270561447648042"/>
<circle cx="383.9" cy="321.9" r="3.2" fill="#ffffff" opacity="0.8082913018769022"/>
<circle cx="486.7" cy="551.8" r="3.3" fill="#ffffff" opacity="0.3004356260816633"/>
<circle cx="600.7" cy="43.9" r="2.6" fill="#ffffff" opacity="0.3525079405714437"/>
<circle cx="446.1" cy="871.5" r="4.4" fill="#ffffff" opacity="0.7745539617317074"/>
<circle cx="532.0" cy="358.5" r="1.8" fill="#ffffff" opacity="0.34904223544465274"/>
<circle cx="45.7" cy="572.6" r="4.6" fill="#ffffff" opacity="0.7354241820868791"/>
<circle cx="65.3" cy="64.1" r="3.6" fill="#ffffff" opacity="0.33407649716517"/>
<circle cx="410.2" cy="241.2" r="1.9" fill="#ffffff" opacity="0.61636099600058"/>
<circle cx="402.9" cy="312.5" r="3.9" fill="#ffffff" opacity="0.5458500362123657"/>
<circle cx="214.0" cy="507.6" r="3.7" fill="#ffffff" opacity="0.3446927137661614"/>
<circle cx="339.5" cy="452.8" r="2.1" fill="#ffffff" opacity="0.7954129525312796"/>
<g filter="url(#paper)"><rect x="42" y="42" width="666" height="1166" rx="54" ry="54" fill="none" stroke="#1E1B2E" stroke-width="8" opacity="0.95"/>
<rect x="60" y="60" width="630" height="1130" rx="46" ry="46" fill="none" stroke="#9B8CFF" stroke-width="3" opacity="0.35"/>

  <g opacity="0.42">
    <circle cx="375.0" cy="560" r="285" fill="none" stroke="#9B8CFF" stroke-width="4.2" opacity="0.42"/>
    <circle cx="375.0" cy="560" r="233.7" fill="none" stroke="#9B8CFF" stroke-width="2.2" opacity="0.23"/>
    <line x1="642.0" y1="560.0" x2="674.0" y2="560.0" stroke="#9B8CFF" stroke-width="3.2" opacity="0.23" stroke-linecap="round"/><line x1="606.2" y1="693.5" x2="633.9" y2="709.5" stroke="#9B8CFF" stroke-width="3.2" opacity="0.23" stroke-linecap="round"/><line x1="508.5" y1="791.2" x2="524.5" y2="818.9" stroke="#9B8CFF" stroke-width="3.2" opacity="0.23" stroke-linecap="round"/><line x1="375.0" y1="827.0" x2="375.0" y2="859.0" stroke="#9B8CFF" stroke-width="3.2" opacity="0.23" stroke-linecap="round"/><line x1="241.5" y1="791.2" x2="225.5" y2="818.9" stroke="#9B8CFF" stroke-width="3.2" opacity="0.23" stroke-linecap="round"/><line x1="143.8" y1="693.5" x2="116.1" y2="709.5" stroke="#9B8CFF" stroke-width="3.2" opacity="0.23" stroke-linecap="round"/><line x1="108.0" y1="560.0" x2="76.0" y2="560.0" stroke="#9B8CFF" stroke-width="3.2" opacity="0.23" stroke-linecap="round"/><line x1="143.8" y1="426.5" x2="116.1" y2="410.5" stroke="#9B8CFF" stroke-width="3.2" opacity="0.23" stroke-linecap="round"/><line x1="241.5" y1="328.8" x2="225.5" y2="301.1" stroke="#9B8CFF" stroke-width="3.2" opacity="0.23" stroke-linecap="round"/><line x1="375.0" y1="293.0" x2="375.0" y2="261.0" stroke="#9B8CFF" stroke-width="3.2" opacity="0.23" stroke-linecap="round"/><line x1="508.5" y1="328.8" x2="524.5" y2="301.1" stroke="#9B8CFF" stroke-width="3.2" opacity="0.23" stroke-linecap="round"/><line x1="606.2" y1="426.5" x2="633.9" y2="410.5" stroke="#9B8CFF" stroke-width="3.2" opacity="0.23" stroke-linecap="round"/>
    <circle cx="659.9" cy="566.1" r="3.0" fill="#9B8CFF" opacity="0.37"/><circle cx="651.4" cy="629.6" r="2.7" fill="#9B8CFF" opacity="0.19"/><circle cx="623.6" cy="699.4" r="3.7" fill="#9B8CFF" opacity="0.31"/><circle cx="583.0" cy="754.8" r="3.1" fill="#9B8CFF" opacity="0.26"/><circle cx="515.1" cy="808.2" r="3.7" fill="#9B8CFF" opacity="0.31"/><circle cx="455.4" cy="833.4" r="3.0" fill="#9B8CFF" opacity="0.25"/><circle cx="382.0" cy="844.9" r="3.5" fill="#9B8CFF" opacity="0.44"/><circle cx="293.6" cy="833.1" r="3.8" fill="#9B8CFF" opacity="0.27"/><circle cx="239.9" cy="810.9" r="3.2" fill="#9B8CFF" opacity="0.41"/><circle cx="167.1" cy="755.0" r="3.7" fill="#9B8CFF" opacity="0.45"/><circle cx="123.9" cy="694.7" r="3.4" fill="#9B8CFF" opacity="0.31"/><circle cx="100.8" cy="637.8" r="3.8" fill="#9B8CFF" opacity="0.31"/><circle cx="90.1" cy="567.9" r="3.2" fill="#9B8CFF" opacity="0.29"/><circle cx="102.0" cy="478.3" r="2.8" fill="#9B8CFF" opacity="0.32"/><circle cx="132.0" cy="411.1" r="3.8" fill="#9B8CFF" opacity="0.19"/><circle cx="180.3" cy="351.9" r="3.9" fill="#9B8CFF" opacity="0.41"/><circle cx="239.3" cy="309.4" r="2.6" fill="#9B8CFF" opacity="0.22"/><circle cx="292.7" cy="287.1" r="2.8" fill="#9B8CFF" opacity="0.22"/><circle cx="373.6" cy="275.0" r="3.9" fill="#9B8CFF" opacity="0.26"/><circle cx="457.5" cy="287.2" r="3.3" fill="#9B8CFF" opacity="0.45"/><circle cx="525.9" cy="318.2" r="2.7" fill="#9B8CFF" opacity="0.44"/><circle cx="577.0" cy="358.9" r="3.8" fill="#9B8CFF" opacity="0.36"/><circle cx="618.2" cy="411.4" r="3.7" fill="#9B8CFF" opacity="0.34"/><circle cx="651.3" cy="490.1" r="3.4" fill="#9B8CFF" opacity="0.33"/>
  </g>

<g><g transform="translate(50,54)"><path d="M 18.0 117.0 C 45.0 45.0, 99.0 27.0, 153.0 54.0" fill="none" stroke="#9B8CFF" stroke-width="6" opacity="0.55" stroke-linecap="round"/></g><g transform="translate(700,54) scale(-1,1)"><path d="M 18.0 117.0 C 45.0 45.0, 99.0 27.0, 153.0 54.0" fill="none" stroke="#9B8CFF" stroke-width="6" opacity="0.55" stroke-linecap="round"/></g><g transform="translate(50,1196) scale(1,-1)"><path d="M 18.0 117.0 C 45.0 45.0, 99.0 27.0, 153.0 54.0" fill="none" stroke="#9B8CFF" stroke-width="6" opacity="0.55" stroke-linecap="round"/></g><g transform="translate(700,1196) scale(-1,-1)"><path d="M 18.0 117.0 C 45.0 45.0, 99.0 27.0, 153.0 54.0" fill="none" stroke="#9B8CFF" stroke-width="6" opacity="0.55" stroke-linecap="round"/></g></g></g>
<rect x="42" y="60" width="666" height="92" rx="30" fill="#ffffffcc" stroke="#1E1B2E" stroke-width="4" opacity="0.95"/>
<text x="375.0" y="122" font-family="ui-sans-serif, system-ui, -apple-system, Segoe UI, Roboto, Helvetica, Arial" font-size="30" font-weight="800" text-anchor="middle" fill="#1E1B2E" opacity="0.95" letter-spacing="1">MINOR ARCANA • SWORDS</text>
<rect x="76" y="170" width="598" height="760" rx="52" fill="#ffffff" opacity="0.15"/>
<g><line x1="92" y1="230.0" x2="658" y2="230.0" stroke="#9B8CFF" stroke-width="2.2" opacity="0.08"/><line x1="212" y1="218.0" x2="312" y2="242.0" stroke="#9B8CFF" stroke-width="2.2" opacity="0.06"/><line x1="92" y1="302.0" x2="658" y2="302.0" stroke="#9B8CFF" stroke-width="2.2" opacity="0.08"/><line x1="212" y1="290.0" x2="312" y2="314.0" stroke="#9B8CFF" stroke-width="2.2" opacity="0.06"/><line x1="92" y1="374.0" x2="658" y2="374.0" stroke="#9B8CFF" stroke-width="2.2" opacity="0.08"/><line x1="212" y1="362.0" x2="312" y2="386.0" stroke="#9B8CFF" stroke-width="2.2" opacity="0.06"/><line x1="92" y1="446.0" x2="658" y2="446.0" stroke="#9B8CFF" stroke-width="2.2" opacity="0.08"/><line x1="212" y1="434.0" x2="312" y2="458.0" stroke="#9B8CFF" stroke-width="2.2" opacity="0.06"/><line x1="92" y1="518.0" x2="658" y2="518.0" stroke="#9B8CFF" stroke-width="2.2" opacity="0.08"/><line x1="212" y1="506.0" x2="312" y2="530.0" stroke="#9B8CFF" stroke-width="2.2" opacity="0.06"/><line x1="92" y1="590.0" x2="658" y2="590.0" stroke="#9B8CFF" stroke-width="2.2" opacity="0.08"/><line x1="212" y1="578.0" x2="312" y2="602.0" stroke="#9B8CFF" stroke-width="2.2" opacity="0.06"/><line x1="92" y1="662.0" x2="658" y2="662.0" stroke="#9B8CFF" stroke-width="2.2" opacity="0.08"/><line x1="212" y1="650.0" x2="312" y2="674.0" stroke="#9B8CFF" stroke-width="2.2" opacity="0.06"/><line x1="92" y1="734.0" x2="658" y2="734.0" stroke="#9B8CFF" stroke-width="2.2" opacity="0.08"/><line x1="212" y1="722.0" x2="312" y2="746.0" stroke="#9B8CFF" stroke-width="2.2" opacity="0.06"/><line x1="92" y1="806.0" x2="658" y2="806.0" stroke="#9B8CFF" stroke-width="2.2" opacity="0.08"/><line x1="212" y1="794.0" x2="312" y2="818.0" stroke="#9B8CFF" stroke-width="2.2" opacity="0.06"/><line x1="92" y1="878.0" x2="658" y2="878.0" stroke="#9B8CFF" stroke-width="2.2" opacity="0.08"/><line x1="212" y1="866.0" x2="312" y2="890.0" stroke="#9B8CFF" stroke-width="2.2" opacity="0.06"/></g><g><g opacity="0.55">
        <g>
          
        <path d="M 334.0 374.2
                 Q 306.0 368.6 294.8 391.0
                 Q 311.6 388.2 325.6 402.2
                 Q 314.4 399.4 303.2 414.8
                 Q 322.8 409.2 334.0 374.2 Z"
              fill="#9B8CFF" opacity="0.35" stroke="#1E1B2E" stroke-width="6"/>
        
          <line x1="311.3" y1="395.0" x2="407.2" y2="426.2" stroke="#1E1B2E" stroke-width="3.6" stroke-linecap="round"/>
          <line x1="311.3" y1="395.0" x2="407.2" y2="426.2" stroke="#ffffff" stroke-width="1.4" stroke-linecap="round" opacity="0.65"/>
          <line x1="322.0" y1="461.6" x2="359.1" y2="347.5" stroke="#1E1B2E" stroke-width="3.4" stroke-linecap="round"/>
          
        <polygon points="407.2,426.2 386.1,400.4 354.9,409.2 375.0,434.6"
                 fill="#ffffff" stroke="#1E1B2E" stroke-width="5" opacity="0.95"/>
        
          <circle cx="311.3" cy="395.0" r="4.5" fill="#9B8CFF" opacity="0.35" stroke="#1E1B2E" stroke-width="5"/>
        </g>
        </g><g opacity="0.55">
        <g>
          
        <path d="M 525.2 468.1
                 Q 497.2 462.5 486.0 484.9
                 Q 502.8 482.1 516.8 496.1
                 Q 505.6 493.3 494.4 508.7
                 Q 514.0 503.1 525.2 468.1 Z"
              fill="#9B8CFF" opacity="0.35" stroke="#1E1B2E" stroke-width="6"/>
        
          <line x1="502.4" y1="488.9" x2="598.3" y2="520.1" stroke="#1E1B2E" stroke-width="3.6" stroke-linecap="round"/>
          <line x1="502.4" y1="488.9" x2="598.3" y2="520.1" stroke="#ffffff" stroke-width="1.4" stroke-linecap="round" opacity="0.65"/>
          <line x1="513.2" y1="555.5" x2="550.3" y2="441.4" stroke="#1E1B2E" stroke-width="3.4" stroke-linecap="round"/>
          
        <polygon points="598.3,520.1 577.2,494.3 546.0,503.1 566.1,528.5"
                 fill="#ffffff" stroke="#1E1B2E" stroke-width="5" opacity="0.95"/>
        
          <circle cx="502.4" cy="488.9" r="4.5" fill="#9B8CFF" opacity="0.35" stroke="#1E1B2E" stroke-width="5"/>
        </g>
        </g><g opacity="0.55">
        <g>
          
        <path d="M 526.4 697.2
                 Q 498.4 691.6 487.2 714.0
                 Q 504.0 711.2 518.0 725.2
                 Q 506.8 722.4 495.6 737.8
                 Q 515.2 732.2 526.4 697.2 Z"
              fill="#9B8CFF" opacity="0.35" stroke="#1E1B2E" stroke-width="6"/>
        
          <line x1="503.7" y1="718.1" x2="599.5" y2="749.2" stroke="#1E1B2E" stroke-width="3.6" stroke-linecap="round"/>
          <line x1="503.7" y1="718.1" x2="599.5" y2="749.2" stroke="#ffffff" stroke-width="1.4" stroke-linecap="round" opacity="0.65"/>
          <line x1="514.4" y1="784.6" x2="551.5" y2="670.5" stroke="#1E1B2E" stroke-width="3.4" stroke-linecap="round"/>
          
        <polygon points="599.5,749.2 578.5,723.4 547.2,732.2 567.3,757.7"
                 fill="#ffffff" stroke="#1E1B2E" stroke-width="5" opacity="0.95"/>
        
          <circle cx="503.7" cy="718.1" r="4.5" fill="#9B8CFF" opacity="0.35" stroke="#1E1B2E" stroke-width="5"/>
        </g>
        </g><g opacity="0.55">
        <g>
          
        <path d="M 335.4 793.1
                 Q 307.4 787.5 296.2 809.9
                 Q 313.0 807.1 327.0 821.1
                 Q 315.8 818.3 304.6 833.7
                 Q 324.2 828.1 335.4 793.1 Z"
              fill="#9B8CFF" opacity="0.35" stroke="#1E1B2E" stroke-width="6"/>
        
          <line x1="312.6" y1="813.9" x2="408.5" y2="845.1" stroke="#1E1B2E" stroke-width="3.6" stroke-linecap="round"/>
          <line x1="312.6" y1="813.9" x2="408.5" y2="845.1" stroke="#ffffff" stroke-width="1.4" stroke-linecap="round" opacity="0.65"/>
          <line x1="323.4" y1="880.5" x2="360.5" y2="766.4" stroke="#1E1B2E" stroke-width="3.4" stroke-linecap="round"/>
          
        <polygon points="408.5,845.1 387.4,819.3 356.2,828.1 376.3,853.5"
                 fill="#ffffff" stroke="#1E1B2E" stroke-width="5" opacity="0.95"/>
        
          <circle cx="312.6" cy="813.9" r="4.5" fill="#9B8CFF" opacity="0.35" stroke="#1E1B2E" stroke-width="5"/>
        </g>
        </g><g opacity="0.55">
        <g>
          
        <path d="M 163.4 680.3
                 Q 135.4 674.7 124.2 697.1
                 Q 141.0 694.3 155.0 708.3
                 Q 143.8 705.5 132.6 720.9
                 Q 152.2 715.3 163.4 680.3 Z"
              fill="#9B8CFF" opacity="0.35" stroke="#1E1B2E" stroke-width="6"/>
        
          <line x1="140.7" y1="701.1" x2="236.5" y2="732.3" stroke="#1E1B2E" stroke-width="3.6" stroke-linecap="round"/>
          <line x1="140.7" y1="701.1" x2="236.5" y2="732.3" stroke="#ffffff" stroke-width="1.4" stroke-linecap="round" opacity="0.65"/>
          <line x1="151.4" y1="767.7" x2="188.5" y2="653.6" stroke="#1E1B2E" stroke-width="3.4" stroke-linecap="round"/>
          
        <polygon points="236.5,732.3 215.5,706.5 184.2,715.3 204.3,740.8"
                 fill="#ffffff" stroke="#1E1B2E" stroke-width="5" opacity="0.95"/>
        
          <circle cx="140.7" cy="701.1" r="4.5" fill="#9B8CFF" opacity="0.35" stroke="#1E1B2E" stroke-width="5"/>
        </g>
        </g><g opacity="0.55">
        <g>
          
        <path d="M 166.0 482.0
                 Q 138.0 476.4 126.8 498.8
                 Q 143.6 496.0 157.6 510.0
                 Q 146.4 507.2 135.2 522.6
                 Q 154.8 517.0 166.0 482.0 Z"
              fill="#9B8CFF" opacity="0.35" stroke="#1E1B2E" stroke-width="6"/>
        
          <line x1="143.3" y1="502.8" x2="239.1" y2="534.0" stroke="#1E1B2E" stroke-width="3.6" stroke-linecap="round"/>
          <line x1="143.3" y1="502.8" x2="239.1" y2="534.0" stroke="#ffffff" stroke-width="1.4" stroke-linecap="round" opacity="0.65"/>
          <line x1="154.0" y1="569.4" x2="191.1" y2="455.3" stroke="#1E1B2E" stroke-width="3.4" stroke-linecap="round"/>
          
        <polygon points="239.1,534.0 218.1,508.2 186.8,517.0 206.9,542.5"
                 fill="#ffffff" stroke="#1E1B2E" stroke-width="5" opacity="0.95"/>
        
          <circle cx="143.3" cy="502.8" r="4.5" fill="#9B8CFF" opacity="0.35" stroke="#1E1B2E" stroke-width="5"/>
        </g>
        </g></g><line x1="424.8" y1="503.3" x2="516.7" y2="290.4" stroke="#ffffff" stroke-width="2.2" opacity="0.17"/>
<line x1="516.7" y1="290.4" x2="423.9" y2="493.6" stroke="#ffffff" stroke-width="2.2" opacity="0.21"/>
<line x1="423.9" y1="493.6" x2="275.1" y2="404.7" stroke="#ffffff" stroke-width="2.2" opacity="0.12"/>
<line x1="275.1" y1="404.7" x2="154.2" y2="495.7" stroke="#ffffff" stroke-width="2.2" opacity="0.10"/>
<line x1="154.2" y1="495.7" x2="144.4" y2="281.1" stroke="#ffffff" stroke-width="2.2" opacity="0.12"/>
<line x1="144.4" y1="281.1" x2="480.4" y2="540.9" stroke="#ffffff" stroke-width="2.2" opacity="0.10"/>
<line x1="480.4" y1="540.9" x2="200.2" y2="486.0" stroke="#ffffff" stroke-width="2.2" opacity="0.16"/>
<circle cx="303.5" cy="442.7" r="4.7" fill="#ffffff" opacity="0.8211116765932597"/>
<circle cx="423.9" cy="493.6" r="2.5" fill="#ffffff" opacity="0.5008769840935063"/>
<circle cx="144.4" cy="281.1" r="2.4" fill="#ffffff" opacity="0.7620118202687726"/>
<circle cx="200.2" cy="486.0" r="3.8" fill="#ffffff" opacity="0.7700845048235937"/>
<circle cx="236.1" cy="295.1" r="2.3" fill="#ffffff" opacity="0.4194545245508745"/>
<circle cx="460.0" cy="539.0" r="4.3" fill="#ffffff" opacity="0.3857904036203237"/>
<circle cx="424.8" cy="503.3" r="2.1" fill="#ffffff" opacity="0.34067153455300503"/>
<circle cx="516.7" cy="290.4" r="3.3" fill="#ffffff" opacity="0.47232538856691864"/>
<circle cx="480.4" cy="540.9" r="1.6" fill="#ffffff" opacity="0.775485124050608"/>
<circle cx="275.1" cy="404.7" r="4.4" fill="#ffffff" opacity="0.6765218310630039"/>
<circle cx="195.5" cy="526.6" r="2.1" fill="#ffffff" opacity="0.49806875816109863"/>
<circle cx="144.6" cy="367.2" r="2.4" fill="#ffffff" opacity="0.6112296631013439"/>
<circle cx="233.6" cy="417.9" r="1.7" fill="#ffffff" opacity="0.38764414609185716"/>
<circle cx="251.7" cy="508.8" r="3.3" fill="#ffffff" opacity="0.5298525631109159"/>
<circle cx="154.2" cy="495.7" r="2.7" fill="#ffffff" opacity="0.7054024472108917"/>
<circle cx="472.3" cy="487.1" r="3.8" fill="#ffffff" opacity="0.5079229672180663"/>
<circle cx="219.2" cy="443.1" r="1.9" fill="#ffffff" opacity="0.708390376530945"/>
<circle cx="177.0" cy="312.7" r="2.5" fill="#ffffff" opacity="0.3824155660656256"/>
        <g filter="url(#glow)">
          <circle cx="375.0" cy="630" r="170" fill="#ffffff" opacity="0.40" stroke="#9B8CFF" stroke-width="7"/>
          
        <g>
          
        <path d="M 310.2 536.4
                 Q 238.2 522.0 209.4 579.6
                 Q 252.6 572.4 288.6 608.4
                 Q 259.8 601.2 231.0 640.8
                 Q 281.4 626.4 310.2 536.4 Z"
              fill="#9B8CFF" opacity="0.35" stroke="#1E1B2E" stroke-width="6"/>
        
          <line x1="251.7" y1="590.0" x2="498.3" y2="670.0" stroke="#1E1B2E" stroke-width="9.4" stroke-linecap="round"/>
          <line x1="251.7" y1="590.0" x2="498.3" y2="670.0" stroke="#ffffff" stroke-width="3.6" stroke-linecap="round" opacity="0.65"/>
          <line x1="308.5" y1="671.5" x2="345.6" y2="557.4" stroke="#1E1B2E" stroke-width="8.6" stroke-linecap="round"/>
          
        <polygon points="498.3,670.0 477.2,644.3 445.9,653.1 466.1,678.5"
                 fill="#ffffff" stroke="#1E1B2E" stroke-width="5" opacity="0.95"/>
        
          <circle cx="251.7" cy="590.0" r="11.5" fill="#9B8CFF" opacity="0.35" stroke="#1E1B2E" stroke-width="5"/>
        </g>
        
        </g>
        <line x1="254.9" y1="679.3" x2="284.0" y2="326.5" stroke="#ffffff" stroke-width="2.2" opacity="0.15"/>
<line x1="284.0" y1="326.5" x2="247.1" y2="618.9" stroke="#ffffff" stroke-width="2.2" opacity="0.15"/>
<line x1="247.1" y1="618.9" x2="573.2" y2="452.0" stroke="#ffffff" stroke-width="2.2" opacity="0.15"/>
<line x1="573.2" y1="452.0" x2="348.2" y2="416.8" stroke="#ffffff" stroke-width="2.2" opacity="0.15"/>
<line x1="348.2" y1="416.8" x2="610.2" y2="343.2" stroke="#ffffff" stroke-width="2.2" opacity="0.19"/>
<line x1="610.2" y1="343.2" x2="145.0" y2="344.1" stroke="#ffffff" stroke-width="2.2" opacity="0.18"/>
<circle cx="616.2" cy="498.0" r="2.6" fill="#ffffff" opacity="0.5099723937919767"/>
<circle cx="535.3" cy="522.0" r="1.7" fill="#ffffff" opacity="0.8226453686815914"/>
<circle cx="200.2" cy="635.1" r="2.7" fill="#ffffff" opacity="0.2830021182932734"/>
<circle cx="429.6" cy="419.7" r="3.2" fill="#ffffff" opacity="0.41044388864124215"/>
<circle cx="606.9" cy="436.7" r="2.7" fill="#ffffff" opacity="0.6729008770057621"/>
<circle cx="389.5" cy="685.3" r="2.5" fill="#ffffff" opacity="0.442828147323454"/>
<circle cx="610.2" cy="343.2" r="4.6" fill="#ffffff" opacity="0.8153949074632151"/>
<circle cx="513.4" cy="548.6" r="4.5" fill="#ffffff" opacity="0.7754811966395744"/>
<circle cx="284.0" cy="326.5" r="1.6" fill="#ffffff" opacity="0.4825829974870255"/>
<circle cx="145.0" cy="344.1" r="2.2" fill="#ffffff" opacity="0.8023101050070821"/>
<circle cx="348.2" cy="416.8" r="4.3" fill="#ffffff" opacity="0.6812538970567601"/>
<circle cx="247.1" cy="618.9" r="4.4" fill="#ffffff" opacity="0.36449462034137553"/>
<circle cx="254.9" cy="679.3" r="2.0" fill="#ffffff" opacity="0.30812335766176324"/>
<circle cx="573.2" cy="452.0" r="4.2" fill="#ffffff" opacity="0.3057577999389105"/>
<rect x="42" y="1030" width="666" height="160" rx="30" fill="#ffffffd9" stroke="#1E1B2E" stroke-width="4" opacity="0.95"/>
<text x="375.0" y="1104" font-family="ui-sans-serif, system-ui, -apple-system, Segoe UI, Roboto, Helvetica, Arial" font-size="46" font-weight="900" text-anchor="middle" fill="#1E1B2E" opacity="0.98">6 of Swords</text>
<text x="375.0" y="1152" font-family="ui-sans-serif, system-ui, -apple-system, Segoe UI, Roboto, Helvetica, Arial" font-size="28" font-weight="700" text-anchor="middle" fill="#1E1B2E" opacity="0.7">Support</text>

    <g opacity="0.55">
      <circle cx="127" cy="1176" r="14" fill="#9B8CFF"/>
      <circle cx="623" cy="1176" r="14" fill="#9B8CFF"/>
      <path d="M 162 1176 L 588 1176" stroke="#9B8CFF" stroke-width="4" opacity="0.45" stroke-linecap="round"/>
    </g>
    
</svg>
