<svg xmlns="http://www.w3.org/2000/svg" width="750" height="1250" viewBox="0 0 750 1250">
  <title>7 of Swords</title>


  <defs>
    <linearGradient id="g" x1="0" y1="0" x2="1" y2="1">
      <stop offset="0%" stop-color="#E8FFF1"/>
      <stop offset="100%" stop-color="#F2E9FF"/>
    </linearGradient>

    <!-- paper texture -->
    <filter id="paper" x="-20%" y="-20%" width="140%" height="140%">
      <feTurbulence type="fractalNoise" baseFrequency="0.019" numOctaves="3" seed="4395" result="noise"/>
      <feColorMatrix in="noise" type="matrix"
        values="1 0 0 0 0
                0 1 0 0 0
                0 0 1 0 0
                0 0 0 0.25 0" result="noiseAlpha"/>
      <feComposite in="noiseAlpha" in2="SourceGraphic" operator="over"/>
    </filter>

    <!-- soft glow -->
    <filter id="glow" x="-30%" y="-30%" width="160%" height="160%">
      <feGaussianBlur stdDeviation="10" result="blur"/>
      <feColorMatrix type="matrix" values="
        1 0 0 0 0
        0 1 0 0 0
        0 0 1 0 0
        0 0 0 0.32 0" result="blurAlpha"/>
      <feMerge>
        <feMergeNode in="blurAlpha"/>
        <feMergeNode in="SourceGraphic"/>
      </feMerge>
    </filter>
  </defs>

<rect x="0" y="0" width="750" height="1250" rx="58" ry="58" fill="url(#g)" stroke="none" stroke-width="0" opacity="1"/>
<rect x="0" y="0" width="750" height="1250" fill="#ffffff" opacity="0.08"/>
<line x1="245.8" y1="1015.6" x2="687.9" y2="584.2" stroke="#ffffff" stroke-width="2.2" opacity="0.10"/>
<line x1="687.9" y1="584.2" x2="320.1" y2="888.6" stroke="#ffffff" stroke-width="2.2" opacity="0.16"/>
<line x1="320.1" y1="888.6" x2="63.7" y2="954.5" stroke="#ffffff" stroke-width="2.2" opacity="0.17"/>
<line x1="63.7" y1="954.5" x2="559.8" y2="415.3" stroke="#ffffff" stroke-width="2.2" opacity="0.17"/>
<line x1="559.8" y1="415.3" x2="474.4" y2="195.1" stroke="#ffffff" stroke-width="2.2" opacity="0.17"/>
<line x1="474.4" y1="195.1" x2="297.3" y2="430.7" stroke="#ffffff" stroke-width="2.2" opacity="0.21"/>
<line x1="297.3" y1="430.7" x2="158.3" y2="684.2" stroke="#ffffff" stroke-width="2.2" opacity="0.18"/>
<line x1="158.3" y1="684.2" x2="175.0" y2="465.9" stroke="#ffffff" stroke-width="2.2" opacity="0.10"/>
<line x1="175.0" y1="465.9" x2="522.4" y2="193.1" stroke="#ffffff" stroke-width="2.2" opacity="0.08"/>
<line x1="522.4" y1="193.1" x2="512.6" y2="865.0" stroke="#ffffff" stroke-width="2.2" opacity="0.17"/>
<line x1="512.6" y1="865.0" x2="405.1" y2="919.5" stroke="#ffffff" stroke-width="2.2" opacity="0.19"/>
<line x1="405.1" y1="919.5" x2="511.8" y2="1087.3" stroke="#ffffff" stroke-width="2.2" opacity="0.13"/>
<line x1="511.8" y1="1087.3" x2="430.4" y2="606.0" stroke="#ffffff" stroke-width="2.2" opacity="0.18"/>
<line x1="430.4" y1="606.0" x2="354.8" y2="257.2" stroke="#ffffff" stroke-width="2.2" opacity="0.19"/>
<line x1="354.8" y1="257.2" x2="505.9" y2="678.6" stroke="#ffffff" stroke-width="2.2" opacity="0.12"/>
<line x1="505.9" y1="678.6" x2="359.9" y2="463.6" stroke="#ffffff" stroke-width="2.2" opacity="0.16"/>
<line x1="359.9" y1="463.6" x2="80.9" y2="586.9" stroke="#ffffff" stroke-width="2.2" opacity="0.10"/>
<line x1="80.9" y1="586.9" x2="548.2" y2="113.1" stroke="#ffffff" stroke-width="2.2" opacity="0.17"/>
<circle cx="463.4" cy="643.8" r="4.8" fill="#ffffff" opacity="0.45714841140684404"/>
<circle cx="474.4" cy="195.1" r="2.5" fill="#ffffff" opacity="0.2567338439003626"/>
<circle cx="68.9" cy="721.2" r="4.3" fill="#ffffff" opacity="0.5381345095837471"/>
<circle cx="405.1" cy="919.5" r="3.5" fill="#ffffff" opacity="0.26333127733455763"/>
<circle cx="225.4" cy="779.7" r="2.0" fill="#ffffff" opacity="0.3422804645978541"/>
<circle cx="184.4" cy="328.4" r="2.7" fill="#ffffff" opacity="0.4740187181308325"/>
<circle cx="474.2" cy="1003.6" r="3.0" fill="#ffffff" opacity="0.6031280745938463"/>
<circle cx="126.1" cy="383.2" r="3.5" fill="#ffffff" opacity="0.8488750074491824"/>
<circle cx="354.8" cy="257.2" r="4.6" fill="#ffffff" opacity="0.7465853411204362"/>
<circle cx="282.8" cy="1128.6" r="4.8" fill="#ffffff" opacity="0.7416658835685562"/>
<circle cx="588.8" cy="280.1" r="3.6" fill="#ffffff" opacity="0.7010837983518803"/>
<circle cx="320.1" cy="888.6" r="2.4" fill="#ffffff" opacity="0.5980761055148393"/>
<circle cx="165.2" cy="180.1" r="3.4" fill="#ffffff" opacity="0.722981761908334"/>
<circle cx="456.2" cy="164.9" r="4.2" fill="#ffffff" opacity="0.32409195187694406"/>
<circle cx="201.0" cy="662.7" r="4.7" fill="#ffffff" opacity="0.45002848982572463"/>
<circle cx="430.4" cy="606.0" r="3.1" fill="#ffffff" opacity="0.6937404214595224"/>
<circle cx="574.3" cy="973.5" r="4.6" fill="#ffffff" opacity="0.5362851669985007"/>
<circle cx="202.8" cy="1028.5" r="4.6" fill="#ffffff" opacity="0.3565537544939456"/>
<circle cx="400.3" cy="105.7" r="1.8" fill="#ffffff" opacity="0.6599589557242471"/>
<circle cx="511.9" cy="644.7" r="4.1" fill="#ffffff" opacity="0.2795418215368783"/>
<circle cx="512.6" cy="865.0" r="1.8" fill="#ffffff" opacity="0.663793056002135"/>
<circle cx="359.9" cy="463.6" r="3.4" fill="#ffffff" opacity="0.3711188751472599"/>
<circle cx="277.3" cy="269.1" r="2.2" fill="#ffffff" opacity="0.826286409511372"/>
<circle cx="342.4" cy="758.7" r="3.5" fill="#ffffff" opacity="0.5089779869604798"/>
<circle cx="158.3" cy="684.2" r="1.6" fill="#ffffff" opacity="0.784483398849916"/>
<circle cx="505.9" cy="678.6" r="2.6" fill="#ffffff" opacity="0.6628438952864166"/>
<circle cx="687.9" cy="584.2" r="3.3" fill="#ffffff" opacity="0.4739278918163322"/>
<circle cx="145.9" cy="358.4" r="3.2" fill="#ffffff" opacity="0.40910238337815397"/>
<circle cx="80.9" cy="586.9" r="4.3" fill="#ffffff" opacity="0.5679304626922121"/>
<circle cx="245.8" cy="1015.6" r="2.3" fill="#ffffff" opacity="0.5781535127401647"/>
<circle cx="698.1" cy="926.9" r="2.7" fill="#ffffff" opacity="0.5076244632973961"/>
<circle cx="144.7" cy="380.7" r="3.7" fill="#ffffff" opacity="0.27492006682706593"/>
<circle cx="326.3" cy="939.9" r="4.2" fill="#ffffff" opacity="0.831832082381812"/>
<circle cx="297.3" cy="430.7" r="3.2" fill="#ffffff" opacity="0.3592161630228574"/>
<circle cx="485.4" cy="868.9" r="4.7" fill="#ffffff" opacity="0.3322456357019746"/>
<circle cx="394.3" cy="177.9" r="2.3" fill="#ffffff" opacity="0.41540809860508476"/>
<circle cx="559.8" cy="415.3" r="4.2" fill="#ffffff" opacity="0.4105853306422948"/>
<circle cx="522.4" cy="193.1" r="3.6" fill="#ffffff" opacity="0.7378584054516637"/>
<circle cx="342.8" cy="297.3" r="4.6" fill="#ffffff" opacity="0.27745774241284876"/>
<circle cx="94.9" cy="1001.8" r="4.7" fill="#ffffff" opacity="0.36346494418807324"/>
<circle cx="548.2" cy="113.1" r="4.3" fill="#ffffff" opacity="0.5867113321138031"/>
<circle cx="474.0" cy="666.0" r="2.9" fill="#ffffff" opacity="0.3667790515882618"/>
<circle cx="563.0" cy="222.0" r="2.7" fill="#ffffff" opacity="0.5445799041106705"/>
<circle cx="383.9" cy="196.0" r="1.8" fill="#ffffff" opacity="0.5371442817118823"/>
<circle cx="673.2" cy="623.9" r="4.0" fill="#ffffff" opacity="0.43563377972841844"/>
<circle cx="63.7" cy="954.5" r="2.3" fill="#ffffff" opacity="0.8223581535282236"/>
<circle cx="175.0" cy="465.9" r="1.7" fill="#ffffff" opacity="0.5049306968886047"/>
<circle cx="511.8" cy="1087.3" r="2.9" fill="#ffffff" opacity="0.5022198758715715"/>
<circle cx="45.5" cy="352.9" r="1.8" fill="#ffffff" opacity="0.6181801985633799"/>
<circle cx="266.5" cy="672.9" r="2.2" fill="#ffffff" opacity="0.8006581056186401"/>
<g filter="url(#paper)"><rect x="42" y="42" width="666" height="1166" rx="54" ry="54" fill="none" stroke="#1E1B2E" stroke-width="8" opacity="0.95"/>
<rect x="60" y="60" width="630" height="1130" rx="46" ry="46" fill="none" stroke="#9B8CFF" stroke-width="3" opacity="0.35"/>

  <g opacity="0.42">
    <circle cx="375.0" cy="560" r="285" fill="none" stroke="#9B8CFF" stroke-width="4.2" opacity="0.42"/>
    <circle cx="375.0" cy="560" r="233.7" fill="none" stroke="#9B8CFF" stroke-width="2.2" opacity="0.23"/>
    <line x1="642.0" y1="560.0" x2="674.0" y2="560.0" stroke="#9B8CFF" stroke-width="3.2" opacity="0.23" stroke-linecap="round"/><line x1="606.2" y1="693.5" x2="633.9" y2="709.5" stroke="#9B8CFF" stroke-width="3.2" opacity="0.23" stroke-linecap="round"/><line x1="508.5" y1="791.2" x2="524.5" y2="818.9" stroke="#9B8CFF" stroke-width="3.2" opacity="0.23" stroke-linecap="round"/><line x1="375.0" y1="827.0" x2="375.0" y2="859.0" stroke="#9B8CFF" stroke-width="3.2" opacity="0.23" stroke-linecap="round"/><line x1="241.5" y1="791.2" x2="225.5" y2="818.9" stroke="#9B8CFF" stroke-width="3.2" opacity="0.23" stroke-linecap="round"/><line x1="143.8" y1="693.5" x2="116.1" y2="709.5" stroke="#9B8CFF" stroke-width="3.2" opacity="0.23" stroke-linecap="round"/><line x1="108.0" y1="560.0" x2="76.0" y2="560.0" stroke="#9B8CFF" stroke-width="3.2" opacity="0.23" stroke-linecap="round"/><line x1="143.8" y1="426.5" x2="116.1" y2="410.5" stroke="#9B8CFF" stroke-width="3.2" opacity="0.23" stroke-linecap="round"/><line x1="241.5" y1="328.8" x2="225.5" y2="301.1" stroke="#9B8CFF" stroke-width="3.2" opacity="0.23" stroke-linecap="round"/><line x1="375.0" y1="293.0" x2="375.0" y2="261.0" stroke="#9B8CFF" stroke-width="3.2" opacity="0.23" stroke-linecap="round"/><line x1="508.5" y1="328.8" x2="524.5" y2="301.1" stroke="#9B8CFF" stroke-width="3.2" opacity="0.23" stroke-linecap="round"/><line x1="606.2" y1="426.5" x2="633.9" y2="410.5" stroke="#9B8CFF" stroke-width="3.2" opacity="0.23" stroke-linecap="round"/>
    <circle cx="660.0" cy="561.2" r="2.9" fill="#9B8CFF" opacity="0.22"/><circle cx="650.4" cy="633.2" r="3.7" fill="#9B8CFF" opacity="0.24"/><circle cx="619.2" cy="707.0" r="3.1" fill="#9B8CFF" opacity="0.24"/><circle cx="577.0" cy="761.0" r="3.4" fill="#9B8CFF" opacity="0.43"/><circle cx="519.1" cy="805.9" r="3.2" fill="#9B8CFF" opacity="0.23"/><circle cx="445.3" cy="836.2" r="4.0" fill="#9B8CFF" opacity="0.40"/><circle cx="383.8" cy="844.9" r="3.8" fill="#9B8CFF" opacity="0.21"/><circle cx="305.9" cy="836.5" r="3.4" fill="#9B8CFF" opacity="0.39"/><circle cx="233.8" cy="807.6" r="3.5" fill="#9B8CFF" opacity="0.25"/><circle cx="179.4" cy="767.3" r="3.7" fill="#9B8CFF" opacity="0.37"/><circle cx="130.6" cy="706.6" r="3.5" fill="#9B8CFF" opacity="0.42"/><circle cx="98.6" cy="629.4" r="3.8" fill="#9B8CFF" opacity="0.40"/><circle cx="90.0" cy="559.5" r="3.6" fill="#9B8CFF" opacity="0.32"/><circle cx="101.3" cy="480.6" r="3.5" fill="#9B8CFF" opacity="0.34"/><circle cx="131.7" cy="411.6" r="3.0" fill="#9B8CFF" opacity="0.45"/><circle cx="173.7" cy="358.3" r="3.3" fill="#9B8CFF" opacity="0.41"/><circle cx="231.3" cy="313.9" r="2.8" fill="#9B8CFF" opacity="0.29"/><circle cx="294.8" cy="286.5" r="3.7" fill="#9B8CFF" opacity="0.39"/><circle cx="369.2" cy="275.1" r="3.0" fill="#9B8CFF" opacity="0.28"/><circle cx="451.8" cy="285.5" r="3.9" fill="#9B8CFF" opacity="0.33"/><circle cx="523.2" cy="316.6" r="3.0" fill="#9B8CFF" opacity="0.42"/><circle cx="583.3" cy="365.5" r="3.4" fill="#9B8CFF" opacity="0.43"/><circle cx="625.8" cy="424.6" r="3.8" fill="#9B8CFF" opacity="0.23"/><circle cx="649.9" cy="484.7" r="2.8" fill="#9B8CFF" opacity="0.32"/>
  </g>

<g><g transform="translate(50,54)"><path d="M 32.4 126.0 C 63.0 54.0, 111.6 32.4, 158.4 39.6" fill="none" stroke="#9B8CFF" stroke-width="6" opacity="0.55" stroke-linecap="round"/></g><g transform="translate(700,54) scale(-1,1)"><path d="M 32.4 126.0 C 63.0 54.0, 111.6 32.4, 158.4 39.6" fill="none" stroke="#9B8CFF" stroke-width="6" opacity="0.55" stroke-linecap="round"/></g><g transform="translate(50,1196) scale(1,-1)"><path d="M 32.4 126.0 C 63.0 54.0, 111.6 32.4, 158.4 39.6" fill="none" stroke="#9B8CFF" stroke-width="6" opacity="0.55" stroke-linecap="round"/></g><g transform="translate(700,1196) scale(-1,-1)"><path d="M 32.4 126.0 C 63.0 54.0, 111.6 32.4, 158.4 39.6" fill="none" stroke="#9B8CFF" stroke-width="6" opacity="0.55" stroke-linecap="round"/></g></g></g>
<rect x="42" y="60" width="666" height="92" rx="30" fill="#ffffffcc" stroke="#1E1B2E" stroke-width="4" opacity="0.95"/>
<text x="375.0" y="122" font-family="ui-sans-serif, system-ui, -apple-system, Segoe UI, Roboto, Helvetica, Arial" font-size="30" font-weight="800" text-anchor="middle" fill="#1E1B2E" opacity="0.95" letter-spacing="1">MINOR ARCANA • SWORDS</text>
<rect x="76" y="170" width="598" height="760" rx="52" fill="#ffffff" opacity="0.15"/>
<g><line x1="92" y1="230.0" x2="658" y2="230.0" stroke="#9B8CFF" stroke-width="2.2" opacity="0.08"/><line x1="212" y1="218.0" x2="312" y2="242.0" stroke="#9B8CFF" stroke-width="2.2" opacity="0.06"/><line x1="92" y1="302.0" x2="658" y2="302.0" stroke="#9B8CFF" stroke-width="2.2" opacity="0.08"/><line x1="212" y1="290.0" x2="312" y2="314.0" stroke="#9B8CFF" stroke-width="2.2" opacity="0.06"/><line x1="92" y1="374.0" x2="658" y2="374.0" stroke="#9B8CFF" stroke-width="2.2" opacity="0.08"/><line x1="212" y1="362.0" x2="312" y2="386.0" stroke="#9B8CFF" stroke-width="2.2" opacity="0.06"/><line x1="92" y1="446.0" x2="658" y2="446.0" stroke="#9B8CFF" stroke-width="2.2" opacity="0.08"/><line x1="212" y1="434.0" x2="312" y2="458.0" stroke="#9B8CFF" stroke-width="2.2" opacity="0.06"/><line x1="92" y1="518.0" x2="658" y2="518.0" stroke="#9B8CFF" stroke-width="2.2" opacity="0.08"/><line x1="212" y1="506.0" x2="312" y2="530.0" stroke="#9B8CFF" stroke-width="2.2" opacity="0.06"/><line x1="92" y1="590.0" x2="658" y2="590.0" stroke="#9B8CFF" stroke-width="2.2" opacity="0.08"/><line x1="212" y1="578.0" x2="312" y2="602.0" stroke="#9B8CFF" stroke-width="2.2" opacity="0.06"/><line x1="92" y1="662.0" x2="658" y2="662.0" stroke="#9B8CFF" stroke-width="2.2" opacity="0.08"/><line x1="212" y1="650.0" x2="312" y2="674.0" stroke="#9B8CFF" stroke-width="2.2" opacity="0.06"/><line x1="92" y1="734.0" x2="658" y2="734.0" stroke="#9B8CFF" stroke-width="2.2" opacity="0.08"/><line x1="212" y1="722.0" x2="312" y2="746.0" stroke="#9B8CFF" stroke-width="2.2" opacity="0.06"/><line x1="92" y1="806.0" x2="658" y2="806.0" stroke="#9B8CFF" stroke-width="2.2" opacity="0.08"/><line x1="212" y1="794.0" x2="312" y2="818.0" stroke="#9B8CFF" stroke-width="2.2" opacity="0.06"/><line x1="92" y1="878.0" x2="658" y2="878.0" stroke="#9B8CFF" stroke-width="2.2" opacity="0.08"/><line x1="212" y1="866.0" x2="312" y2="890.0" stroke="#9B8CFF" stroke-width="2.2" opacity="0.06"/></g><g><g opacity="0.55">
        <g>
          
        <path d="M 344.9 363.6
                 Q 316.9 358.0 305.7 380.4
                 Q 322.5 377.6 336.5 391.6
                 Q 325.3 388.8 314.1 404.2
                 Q 333.7 398.6 344.9 363.6 Z"
              fill="#9B8CFF" opacity="0.35" stroke="#1E1B2E" stroke-width="6"/>
        
          <line x1="322.2" y1="384.5" x2="418.1" y2="415.6" stroke="#1E1B2E" stroke-width="3.6" stroke-linecap="round"/>
          <line x1="322.2" y1="384.5" x2="418.1" y2="415.6" stroke="#ffffff" stroke-width="1.4" stroke-linecap="round" opacity="0.65"/>
          <line x1="333.0" y1="451.1" x2="370.0" y2="336.9" stroke="#1E1B2E" stroke-width="3.4" stroke-linecap="round"/>
          
        <polygon points="418.1,415.6 397.0,389.9 365.8,398.6 385.9,424.1"
                 fill="#ffffff" stroke="#1E1B2E" stroke-width="5" opacity="0.95"/>
        
          <circle cx="322.2" cy="384.5" r="4.5" fill="#9B8CFF" opacity="0.35" stroke="#1E1B2E" stroke-width="5"/>
        </g>
        </g><g opacity="0.55">
        <g>
          
        <path d="M 533.8 444.3
                 Q 505.8 438.7 494.6 461.1
                 Q 511.4 458.3 525.4 472.3
                 Q 514.2 469.5 503.0 484.9
                 Q 522.6 479.3 533.8 444.3 Z"
              fill="#9B8CFF" opacity="0.35" stroke="#1E1B2E" stroke-width="6"/>
        
          <line x1="511.0" y1="465.1" x2="606.9" y2="496.3" stroke="#1E1B2E" stroke-width="3.6" stroke-linecap="round"/>
          <line x1="511.0" y1="465.1" x2="606.9" y2="496.3" stroke="#ffffff" stroke-width="1.4" stroke-linecap="round" opacity="0.65"/>
          <line x1="521.8" y1="531.7" x2="558.9" y2="417.6" stroke="#1E1B2E" stroke-width="3.4" stroke-linecap="round"/>
          
        <polygon points="606.9,496.3 585.8,470.5 554.6,479.3 574.7,504.8"
                 fill="#ffffff" stroke="#1E1B2E" stroke-width="5" opacity="0.95"/>
        
          <circle cx="511.0" cy="465.1" r="4.5" fill="#9B8CFF" opacity="0.35" stroke="#1E1B2E" stroke-width="5"/>
        </g>
        </g><g opacity="0.55">
        <g>
          
        <path d="M 596.4 654.6
                 Q 568.4 649.0 557.2 671.4
                 Q 574.0 668.6 588.0 682.6
                 Q 576.8 679.8 565.6 695.2
                 Q 585.2 689.6 596.4 654.6 Z"
              fill="#9B8CFF" opacity="0.35" stroke="#1E1B2E" stroke-width="6"/>
        
          <line x1="573.7" y1="675.4" x2="669.6" y2="706.6" stroke="#1E1B2E" stroke-width="3.6" stroke-linecap="round"/>
          <line x1="573.7" y1="675.4" x2="669.6" y2="706.6" stroke="#ffffff" stroke-width="1.4" stroke-linecap="round" opacity="0.65"/>
          <line x1="584.4" y1="742.0" x2="621.5" y2="627.9" stroke="#1E1B2E" stroke-width="3.4" stroke-linecap="round"/>
          
        <polygon points="669.6,706.6 648.5,680.8 617.2,689.6 637.4,715.0"
                 fill="#ffffff" stroke="#1E1B2E" stroke-width="5" opacity="0.95"/>
        
          <circle cx="573.7" cy="675.4" r="4.5" fill="#9B8CFF" opacity="0.35" stroke="#1E1B2E" stroke-width="5"/>
        </g>
        </g><g opacity="0.55">
        <g>
          
        <path d="M 476.2 829.3
                 Q 448.2 823.7 437.0 846.1
                 Q 453.8 843.3 467.8 857.3
                 Q 456.6 854.5 445.4 869.9
                 Q 465.0 864.3 476.2 829.3 Z"
              fill="#9B8CFF" opacity="0.35" stroke="#1E1B2E" stroke-width="6"/>
        
          <line x1="453.5" y1="850.1" x2="549.4" y2="881.3" stroke="#1E1B2E" stroke-width="3.6" stroke-linecap="round"/>
          <line x1="453.5" y1="850.1" x2="549.4" y2="881.3" stroke="#ffffff" stroke-width="1.4" stroke-linecap="round" opacity="0.65"/>
          <line x1="464.2" y1="916.7" x2="501.3" y2="802.6" stroke="#1E1B2E" stroke-width="3.4" stroke-linecap="round"/>
          
        <polygon points="549.4,881.3 528.3,855.5 497.1,864.3 517.2,889.7"
                 fill="#ffffff" stroke="#1E1B2E" stroke-width="5" opacity="0.95"/>
        
          <circle cx="453.5" cy="850.1" r="4.5" fill="#9B8CFF" opacity="0.35" stroke="#1E1B2E" stroke-width="5"/>
        </g>
        </g><g opacity="0.55">
        <g>
          
        <path d="M 229.1 832.5
                 Q 201.1 826.9 189.9 849.3
                 Q 206.7 846.5 220.7 860.5
                 Q 209.5 857.7 198.3 873.1
                 Q 217.9 867.5 229.1 832.5 Z"
              fill="#9B8CFF" opacity="0.35" stroke="#1E1B2E" stroke-width="6"/>
        
          <line x1="206.3" y1="853.3" x2="302.2" y2="884.5" stroke="#1E1B2E" stroke-width="3.6" stroke-linecap="round"/>
          <line x1="206.3" y1="853.3" x2="302.2" y2="884.5" stroke="#ffffff" stroke-width="1.4" stroke-linecap="round" opacity="0.65"/>
          <line x1="217.1" y1="919.9" x2="254.2" y2="805.8" stroke="#1E1B2E" stroke-width="3.4" stroke-linecap="round"/>
          
        <polygon points="302.2,884.5 281.1,858.7 249.9,867.5 270.0,893.0"
                 fill="#ffffff" stroke="#1E1B2E" stroke-width="5" opacity="0.95"/>
        
          <circle cx="206.3" cy="853.3" r="4.5" fill="#9B8CFF" opacity="0.35" stroke="#1E1B2E" stroke-width="5"/>
        </g>
        </g><g opacity="0.55">
        <g>
          
        <path d="M 102.2 648.4
                 Q 74.2 642.8 63.0 665.2
                 Q 79.8 662.4 93.8 676.4
                 Q 82.6 673.6 71.4 689.0
                 Q 91.0 683.4 102.2 648.4 Z"
              fill="#9B8CFF" opacity="0.35" stroke="#1E1B2E" stroke-width="6"/>
        
          <line x1="79.5" y1="669.2" x2="175.4" y2="700.4" stroke="#1E1B2E" stroke-width="3.6" stroke-linecap="round"/>
          <line x1="79.5" y1="669.2" x2="175.4" y2="700.4" stroke="#ffffff" stroke-width="1.4" stroke-linecap="round" opacity="0.65"/>
          <line x1="90.3" y1="735.8" x2="127.3" y2="621.7" stroke="#1E1B2E" stroke-width="3.4" stroke-linecap="round"/>
          
        <polygon points="175.4,700.4 154.3,674.6 123.1,683.4 143.2,708.9"
                 fill="#ffffff" stroke="#1E1B2E" stroke-width="5" opacity="0.95"/>
        
          <circle cx="79.5" cy="669.2" r="4.5" fill="#9B8CFF" opacity="0.35" stroke="#1E1B2E" stroke-width="5"/>
        </g>
        </g><g opacity="0.55">
        <g>
          
        <path d="M 153.1 459.3
                 Q 125.1 453.7 113.9 476.1
                 Q 130.7 473.3 144.7 487.3
                 Q 133.5 484.5 122.3 499.9
                 Q 141.9 494.3 153.1 459.3 Z"
              fill="#9B8CFF" opacity="0.35" stroke="#1E1B2E" stroke-width="6"/>
        
          <line x1="130.4" y1="480.1" x2="226.3" y2="511.2" stroke="#1E1B2E" stroke-width="3.6" stroke-linecap="round"/>
          <line x1="130.4" y1="480.1" x2="226.3" y2="511.2" stroke="#ffffff" stroke-width="1.4" stroke-linecap="round" opacity="0.65"/>
          <line x1="141.1" y1="546.7" x2="178.2" y2="432.5" stroke="#1E1B2E" stroke-width="3.4" stroke-linecap="round"/>
          
        <polygon points="226.3,511.2 205.2,485.5 174.0,494.2 194.1,519.7"
                 fill="#ffffff" stroke="#1E1B2E" stroke-width="5" opacity="0.95"/>
        
          <circle cx="130.4" cy="480.1" r="4.5" fill="#9B8CFF" opacity="0.35" stroke="#1E1B2E" stroke-width="5"/>
        </g>
        </g></g><path d="M 439.2 610.0 Q 353.1 629.6 525.5 665.7 Q 329.7 603.7 314.7 577.5 Q 345.6 554.0 443.7 580.9 Q 379.5 644.8 323.9 681.8 Q 414.2 652.7 364.2 733.5 Q 396.2 596.9 265.6 608.1 Q 411.4 542.8 350.1 443.6 Q 344.1 544.1 311.5 408.3 Z" fill="none" stroke="#9B8CFF" stroke-width="5.5" opacity="0.33" stroke-linecap="round" stroke-linejoin="round"/>
        <g filter="url(#glow)">
          <circle cx="375.0" cy="630" r="170" fill="#ffffff" opacity="0.40" stroke="#9B8CFF" stroke-width="7"/>
          
        <g>
          
        <path d="M 310.2 536.4
                 Q 238.2 522.0 209.4 579.6
                 Q 252.6 572.4 288.6 608.4
                 Q 259.8 601.2 231.0 640.8
                 Q 281.4 626.4 310.2 536.4 Z"
              fill="#9B8CFF" opacity="0.35" stroke="#1E1B2E" stroke-width="6"/>
        
          <line x1="251.7" y1="590.0" x2="498.3" y2="670.0" stroke="#1E1B2E" stroke-width="9.4" stroke-linecap="round"/>
          <line x1="251.7" y1="590.0" x2="498.3" y2="670.0" stroke="#ffffff" stroke-width="3.6" stroke-linecap="round" opacity="0.65"/>
          <line x1="308.5" y1="671.5" x2="345.6" y2="557.4" stroke="#1E1B2E" stroke-width="8.6" stroke-linecap="round"/>
          
        <polygon points="498.3,670.0 477.2,644.3 445.9,653.1 466.1,678.5"
                 fill="#ffffff" stroke="#1E1B2E" stroke-width="5" opacity="0.95"/>
        
          <circle cx="251.7" cy="590.0" r="11.5" fill="#9B8CFF" opacity="0.35" stroke="#1E1B2E" stroke-width="5"/>
        </g>
        
        </g>
        <line x1="299.9" y1="507.5" x2="336.5" y2="421.6" stroke="#ffffff" stroke-width="2.2" opacity="0.18"/>
<line x1="336.5" y1="421.6" x2="207.2" y2="453.1" stroke="#ffffff" stroke-width="2.2" opacity="0.18"/>
<line x1="207.2" y1="453.1" x2="490.2" y2="419.3" stroke="#ffffff" stroke-width="2.2" opacity="0.20"/>
<line x1="490.2" y1="419.3" x2="348.5" y2="578.5" stroke="#ffffff" stroke-width="2.2" opacity="0.19"/>
<line x1="348.5" y1="578.5" x2="342.1" y2="538.5" stroke="#ffffff" stroke-width="2.2" opacity="0.15"/>
<line x1="342.1" y1="538.5" x2="387.5" y2="238.5" stroke="#ffffff" stroke-width="2.2" opacity="0.20"/>
<circle cx="265.3" cy="623.5" r="1.8" fill="#ffffff" opacity="0.7248482733915819"/>
<circle cx="299.9" cy="507.5" r="4.8" fill="#ffffff" opacity="0.6591427374685772"/>
<circle cx="443.8" cy="360.0" r="4.1" fill="#ffffff" opacity="0.7919142889418352"/>
<circle cx="207.2" cy="453.1" r="3.6" fill="#ffffff" opacity="0.8216495648894123"/>
<circle cx="373.8" cy="465.6" r="3.0" fill="#ffffff" opacity="0.7676461540723103"/>
<circle cx="387.5" cy="238.5" r="4.0" fill="#ffffff" opacity="0.3218193977230856"/>
<circle cx="379.6" cy="637.9" r="1.9" fill="#ffffff" opacity="0.6519240374673763"/>
<circle cx="336.5" cy="421.6" r="3.4" fill="#ffffff" opacity="0.34615820213036036"/>
<circle cx="211.1" cy="402.6" r="3.3" fill="#ffffff" opacity="0.7321404304318715"/>
<circle cx="490.2" cy="419.3" r="3.4" fill="#ffffff" opacity="0.5481030861533838"/>
<circle cx="342.1" cy="538.5" r="3.9" fill="#ffffff" opacity="0.7708095687606143"/>
<circle cx="348.5" cy="578.5" r="3.6" fill="#ffffff" opacity="0.7207842615918763"/>
<circle cx="510.3" cy="231.4" r="4.7" fill="#ffffff" opacity="0.5428982311498521"/>
<circle cx="550.2" cy="449.8" r="3.0" fill="#ffffff" opacity="0.6123795740825494"/>
<rect x="42" y="1030" width="666" height="160" rx="30" fill="#ffffffd9" stroke="#1E1B2E" stroke-width="4" opacity="0.95"/>
<text x="375.0" y="1104" font-family="ui-sans-serif, system-ui, -apple-system, Segoe UI, Roboto, Helvetica, Arial" font-size="46" font-weight="900" text-anchor="middle" fill="#1E1B2E" opacity="0.98">7 of Swords</text>
<text x="375.0" y="1152" font-family="ui-sans-serif, system-ui, -apple-system, Segoe UI, Roboto, Helvetica, Arial" font-size="28" font-weight="700" text-anchor="middle" fill="#1E1B2E" opacity="0.7">Trust</text>

    <g opacity="0.55">
      <circle cx="127" cy="1176" r="14" fill="#9B8CFF"/>
      <circle cx="623" cy="1176" r="14" fill="#9B8CFF"/>
      <path d="M 162 1176 L 588 1176" stroke="#9B8CFF" stroke-width="4" opacity="0.45" stroke-linecap="round"/>
    </g>
    
</svg>
