<svg xmlns="http://www.w3.org/2000/svg" width="750" height="1250" viewBox="0 0 750 1250">
  <title>8 of Swords</title>


  <defs>
    <linearGradient id="g" x1="0" y1="0" x2="1" y2="1">
      <stop offset="0%" stop-color="#FFF6E5"/>
      <stop offset="100%" stop-color="#E5FFF6"/>
    </linearGradient>

    <!-- paper texture -->
    <filter id="paper" x="-20%" y="-20%" width="140%" height="140%">
      <feTurbulence type="fractalNoise" baseFrequency="0.014" numOctaves="3" seed="4881" result="noise"/>
      <feColorMatrix in="noise" type="matrix"
        values="1 0 0 0 0
                0 1 0 0 0
                0 0 1 0 0
                0 0 0 0.25 0" result="noiseAlpha"/>
      <feComposite in="noiseAlpha" in2="SourceGraphic" operator="over"/>
    </filter>

    <!-- soft glow -->
    <filter id="glow" x="-30%" y="-30%" width="160%" height="160%">
      <feGaussianBlur stdDeviation="10" result="blur"/>
      <feColorMatrix type="matrix" values="
        1 0 0 0 0
        0 1 0 0 0
        0 0 1 0 0
        0 0 0 0.32 0" result="blurAlpha"/>
      <feMerge>
        <feMergeNode in="blurAlpha"/>
        <feMergeNode in="SourceGraphic"/>
      </feMerge>
    </filter>
  </defs>

<rect x="0" y="0" width="750" height="1250" rx="58" ry="58" fill="url(#g)" stroke="none" stroke-width="0" opacity="1"/>
<rect x="0" y="0" width="750" height="1250" fill="#ffffff" opacity="0.08"/>
<line x1="595.3" y1="206.1" x2="445.7" y2="1119.0" stroke="#ffffff" stroke-width="2.2" opacity="0.09"/>
<line x1="445.7" y1="1119.0" x2="449.2" y2="1006.1" stroke="#ffffff" stroke-width="2.2" opacity="0.20"/>
<line x1="449.2" y1="1006.1" x2="445.9" y2="326.4" stroke="#ffffff" stroke-width="2.2" opacity="0.15"/>
<line x1="445.9" y1="326.4" x2="270.2" y2="1115.0" stroke="#ffffff" stroke-width="2.2" opacity="0.21"/>
<line x1="270.2" y1="1115.0" x2="134.6" y2="980.9" stroke="#ffffff" stroke-width="2.2" opacity="0.19"/>
<line x1="134.6" y1="980.9" x2="650.6" y2="1160.7" stroke="#ffffff" stroke-width="2.2" opacity="0.13"/>
<line x1="650.6" y1="1160.7" x2="172.1" y2="612.6" stroke="#ffffff" stroke-width="2.2" opacity="0.11"/>
<line x1="172.1" y1="612.6" x2="42.1" y2="121.8" stroke="#ffffff" stroke-width="2.2" opacity="0.11"/>
<line x1="42.1" y1="121.8" x2="179.4" y2="174.6" stroke="#ffffff" stroke-width="2.2" opacity="0.19"/>
<line x1="179.4" y1="174.6" x2="539.6" y2="509.6" stroke="#ffffff" stroke-width="2.2" opacity="0.09"/>
<line x1="539.6" y1="509.6" x2="155.4" y2="953.6" stroke="#ffffff" stroke-width="2.2" opacity="0.13"/>
<line x1="155.4" y1="953.6" x2="671.3" y2="921.9" stroke="#ffffff" stroke-width="2.2" opacity="0.21"/>
<line x1="671.3" y1="921.9" x2="488.1" y2="392.1" stroke="#ffffff" stroke-width="2.2" opacity="0.17"/>
<line x1="488.1" y1="392.1" x2="128.0" y2="270.4" stroke="#ffffff" stroke-width="2.2" opacity="0.10"/>
<line x1="128.0" y1="270.4" x2="695.5" y2="764.8" stroke="#ffffff" stroke-width="2.2" opacity="0.20"/>
<line x1="695.5" y1="764.8" x2="475.8" y2="101.3" stroke="#ffffff" stroke-width="2.2" opacity="0.12"/>
<line x1="475.8" y1="101.3" x2="297.4" y2="903.0" stroke="#ffffff" stroke-width="2.2" opacity="0.11"/>
<line x1="297.4" y1="903.0" x2="368.3" y2="572.7" stroke="#ffffff" stroke-width="2.2" opacity="0.21"/>
<circle cx="536.1" cy="484.3" r="1.8" fill="#ffffff" opacity="0.6133608587542831"/>
<circle cx="670.8" cy="971.5" r="3.4" fill="#ffffff" opacity="0.7234440202519377"/>
<circle cx="595.3" cy="206.1" r="4.6" fill="#ffffff" opacity="0.5525390955293934"/>
<circle cx="45.7" cy="1075.5" r="2.8" fill="#ffffff" opacity="0.27517905716969004"/>
<circle cx="449.3" cy="1089.3" r="2.5" fill="#ffffff" opacity="0.5579249746851601"/>
<circle cx="97.9" cy="891.9" r="3.3" fill="#ffffff" opacity="0.2527831059573498"/>
<circle cx="280.8" cy="500.9" r="4.1" fill="#ffffff" opacity="0.5134758675451092"/>
<circle cx="434.4" cy="667.7" r="4.7" fill="#ffffff" opacity="0.35856177131108524"/>
<circle cx="179.4" cy="174.6" r="2.4" fill="#ffffff" opacity="0.39029775314924287"/>
<circle cx="170.5" cy="989.0" r="3.8" fill="#ffffff" opacity="0.5318562962733346"/>
<circle cx="450.7" cy="661.9" r="3.7" fill="#ffffff" opacity="0.6728450693163224"/>
<circle cx="51.0" cy="1098.4" r="2.6" fill="#ffffff" opacity="0.5962035374177755"/>
<circle cx="99.8" cy="385.1" r="4.1" fill="#ffffff" opacity="0.26788193180814"/>
<circle cx="297.4" cy="903.0" r="2.9" fill="#ffffff" opacity="0.7410313885431685"/>
<circle cx="467.5" cy="897.1" r="4.1" fill="#ffffff" opacity="0.4585070686955245"/>
<circle cx="695.5" cy="764.8" r="2.2" fill="#ffffff" opacity="0.5462106163995968"/>
<circle cx="128.0" cy="270.4" r="2.2" fill="#ffffff" opacity="0.5789611215456127"/>
<circle cx="579.4" cy="275.8" r="3.4" fill="#ffffff" opacity="0.5568433590623152"/>
<circle cx="482.8" cy="452.4" r="3.2" fill="#ffffff" opacity="0.849871579298586"/>
<circle cx="445.7" cy="1119.0" r="4.4" fill="#ffffff" opacity="0.41421494316473584"/>
<circle cx="368.3" cy="572.7" r="2.9" fill="#ffffff" opacity="0.6872501599377809"/>
<circle cx="119.2" cy="442.8" r="3.0" fill="#ffffff" opacity="0.5276173293261772"/>
<circle cx="134.6" cy="980.9" r="3.7" fill="#ffffff" opacity="0.8045251189623321"/>
<circle cx="67.5" cy="1110.6" r="4.3" fill="#ffffff" opacity="0.5256433005224053"/>
<circle cx="411.8" cy="1058.5" r="2.9" fill="#ffffff" opacity="0.7174277094387279"/>
<circle cx="449.2" cy="1006.1" r="3.9" fill="#ffffff" opacity="0.7673013861419519"/>
<circle cx="539.6" cy="509.6" r="4.4" fill="#ffffff" opacity="0.523923073281978"/>
<circle cx="267.2" cy="945.7" r="3.0" fill="#ffffff" opacity="0.7573223068824638"/>
<circle cx="488.1" cy="392.1" r="4.4" fill="#ffffff" opacity="0.4721534870705274"/>
<circle cx="445.9" cy="326.4" r="4.7" fill="#ffffff" opacity="0.7536287265483809"/>
<circle cx="494.1" cy="789.0" r="4.4" fill="#ffffff" opacity="0.6265577495179645"/>
<circle cx="475.8" cy="101.3" r="1.9" fill="#ffffff" opacity="0.49501993972676683"/>
<circle cx="537.0" cy="642.2" r="2.2" fill="#ffffff" opacity="0.602753841480444"/>
<circle cx="649.1" cy="808.3" r="3.4" fill="#ffffff" opacity="0.45844205664088755"/>
<circle cx="691.0" cy="186.6" r="3.7" fill="#ffffff" opacity="0.6312723224860899"/>
<circle cx="370.6" cy="448.4" r="2.4" fill="#ffffff" opacity="0.34303800547691843"/>
<circle cx="270.2" cy="1115.0" r="3.8" fill="#ffffff" opacity="0.25529943813643163"/>
<circle cx="155.4" cy="953.6" r="2.4" fill="#ffffff" opacity="0.6615229823423483"/>
<circle cx="335.7" cy="283.5" r="4.8" fill="#ffffff" opacity="0.7698677527451038"/>
<circle cx="524.6" cy="958.5" r="2.5" fill="#ffffff" opacity="0.5522818658653206"/>
<circle cx="172.1" cy="612.6" r="1.7" fill="#ffffff" opacity="0.7901555925418369"/>
<circle cx="393.3" cy="167.6" r="2.5" fill="#ffffff" opacity="0.2994097340010164"/>
<circle cx="408.9" cy="1056.1" r="2.7" fill="#ffffff" opacity="0.6202619447932325"/>
<circle cx="671.3" cy="921.9" r="3.3" fill="#ffffff" opacity="0.2637537906850331"/>
<circle cx="42.1" cy="121.8" r="3.4" fill="#ffffff" opacity="0.7607963325027304"/>
<circle cx="199.4" cy="616.5" r="4.6" fill="#ffffff" opacity="0.3567819326297925"/>
<circle cx="647.2" cy="1134.8" r="3.4" fill="#ffffff" opacity="0.2614411642552415"/>
<circle cx="262.8" cy="228.3" r="3.3" fill="#ffffff" opacity="0.6419464443125786"/>
<circle cx="150.9" cy="314.5" r="4.0" fill="#ffffff" opacity="0.2824064370970939"/>
<circle cx="650.6" cy="1160.7" r="2.2" fill="#ffffff" opacity="0.8376617895027094"/>
<g filter="url(#paper)"><rect x="42" y="42" width="666" height="1166" rx="54" ry="54" fill="none" stroke="#1E1B2E" stroke-width="8" opacity="0.95"/>
<rect x="60" y="60" width="630" height="1130" rx="46" ry="46" fill="none" stroke="#9B8CFF" stroke-width="3" opacity="0.35"/>

  <g opacity="0.42">
    <circle cx="375.0" cy="560" r="285" fill="none" stroke="#9B8CFF" stroke-width="4.2" opacity="0.42"/>
    <circle cx="375.0" cy="560" r="233.7" fill="none" stroke="#9B8CFF" stroke-width="2.2" opacity="0.23"/>
    <line x1="642.0" y1="560.0" x2="674.0" y2="560.0" stroke="#9B8CFF" stroke-width="3.2" opacity="0.23" stroke-linecap="round"/><line x1="606.2" y1="693.5" x2="633.9" y2="709.5" stroke="#9B8CFF" stroke-width="3.2" opacity="0.23" stroke-linecap="round"/><line x1="508.5" y1="791.2" x2="524.5" y2="818.9" stroke="#9B8CFF" stroke-width="3.2" opacity="0.23" stroke-linecap="round"/><line x1="375.0" y1="827.0" x2="375.0" y2="859.0" stroke="#9B8CFF" stroke-width="3.2" opacity="0.23" stroke-linecap="round"/><line x1="241.5" y1="791.2" x2="225.5" y2="818.9" stroke="#9B8CFF" stroke-width="3.2" opacity="0.23" stroke-linecap="round"/><line x1="143.8" y1="693.5" x2="116.1" y2="709.5" stroke="#9B8CFF" stroke-width="3.2" opacity="0.23" stroke-linecap="round"/><line x1="108.0" y1="560.0" x2="76.0" y2="560.0" stroke="#9B8CFF" stroke-width="3.2" opacity="0.23" stroke-linecap="round"/><line x1="143.8" y1="426.5" x2="116.1" y2="410.5" stroke="#9B8CFF" stroke-width="3.2" opacity="0.23" stroke-linecap="round"/><line x1="241.5" y1="328.8" x2="225.5" y2="301.1" stroke="#9B8CFF" stroke-width="3.2" opacity="0.23" stroke-linecap="round"/><line x1="375.0" y1="293.0" x2="375.0" y2="261.0" stroke="#9B8CFF" stroke-width="3.2" opacity="0.23" stroke-linecap="round"/><line x1="508.5" y1="328.8" x2="524.5" y2="301.1" stroke="#9B8CFF" stroke-width="3.2" opacity="0.23" stroke-linecap="round"/><line x1="606.2" y1="426.5" x2="633.9" y2="410.5" stroke="#9B8CFF" stroke-width="3.2" opacity="0.23" stroke-linecap="round"/>
    <circle cx="660.0" cy="557.6" r="3.3" fill="#9B8CFF" opacity="0.27"/><circle cx="647.7" cy="642.7" r="3.1" fill="#9B8CFF" opacity="0.27"/><circle cx="617.6" cy="709.6" r="3.6" fill="#9B8CFF" opacity="0.24"/><circle cx="578.7" cy="759.3" r="2.6" fill="#9B8CFF" opacity="0.39"/><circle cx="525.9" cy="801.8" r="2.9" fill="#9B8CFF" opacity="0.28"/><circle cx="447.5" cy="835.6" r="3.3" fill="#9B8CFF" opacity="0.31"/><circle cx="382.6" cy="844.9" r="3.2" fill="#9B8CFF" opacity="0.19"/><circle cx="292.8" cy="832.9" r="2.6" fill="#9B8CFF" opacity="0.41"/><circle cx="238.0" cy="809.9" r="3.3" fill="#9B8CFF" opacity="0.33"/><circle cx="172.1" cy="760.2" r="3.7" fill="#9B8CFF" opacity="0.23"/><circle cx="127.6" cy="701.5" r="3.6" fill="#9B8CFF" opacity="0.38"/><circle cx="99.5" cy="633.0" r="3.5" fill="#9B8CFF" opacity="0.25"/><circle cx="90.2" cy="550.6" r="3.1" fill="#9B8CFF" opacity="0.23"/><circle cx="102.2" cy="477.4" r="2.7" fill="#9B8CFF" opacity="0.41"/><circle cx="123.9" cy="425.2" r="2.9" fill="#9B8CFF" opacity="0.33"/><circle cx="175.4" cy="356.6" r="2.8" fill="#9B8CFF" opacity="0.41"/><circle cx="234.0" cy="312.3" r="3.3" fill="#9B8CFF" opacity="0.19"/><circle cx="300.9" cy="284.8" r="3.9" fill="#9B8CFF" opacity="0.25"/><circle cx="381.3" cy="275.1" r="3.6" fill="#9B8CFF" opacity="0.40"/><circle cx="447.9" cy="284.5" r="3.5" fill="#9B8CFF" opacity="0.23"/><circle cx="520.2" cy="314.8" r="2.9" fill="#9B8CFF" opacity="0.42"/><circle cx="576.7" cy="358.7" r="3.3" fill="#9B8CFF" opacity="0.43"/><circle cx="624.7" cy="422.5" r="3.6" fill="#9B8CFF" opacity="0.22"/><circle cx="651.2" cy="489.9" r="3.2" fill="#9B8CFF" opacity="0.23"/>
  </g>

<g><g transform="translate(50,54)"><path d="M 14.4 117.0 C 54.0 14.4, 126.0 14.4, 165.6 117.0" fill="none" stroke="#9B8CFF" stroke-width="6" opacity="0.55" stroke-linecap="round"/></g><g transform="translate(700,54) scale(-1,1)"><path d="M 14.4 117.0 C 54.0 14.4, 126.0 14.4, 165.6 117.0" fill="none" stroke="#9B8CFF" stroke-width="6" opacity="0.55" stroke-linecap="round"/></g><g transform="translate(50,1196) scale(1,-1)"><path d="M 14.4 117.0 C 54.0 14.4, 126.0 14.4, 165.6 117.0" fill="none" stroke="#9B8CFF" stroke-width="6" opacity="0.55" stroke-linecap="round"/></g><g transform="translate(700,1196) scale(-1,-1)"><path d="M 14.4 117.0 C 54.0 14.4, 126.0 14.4, 165.6 117.0" fill="none" stroke="#9B8CFF" stroke-width="6" opacity="0.55" stroke-linecap="round"/></g></g></g>
<rect x="42" y="60" width="666" height="92" rx="30" fill="#ffffffcc" stroke="#1E1B2E" stroke-width="4" opacity="0.95"/>
<text x="375.0" y="122" font-family="ui-sans-serif, system-ui, -apple-system, Segoe UI, Roboto, Helvetica, Arial" font-size="30" font-weight="800" text-anchor="middle" fill="#1E1B2E" opacity="0.95" letter-spacing="1">MINOR ARCANA • SWORDS</text>
<rect x="76" y="170" width="598" height="760" rx="52" fill="#ffffff" opacity="0.15"/>
<g><line x1="92" y1="230.0" x2="658" y2="230.0" stroke="#9B8CFF" stroke-width="2.2" opacity="0.08"/><line x1="212" y1="218.0" x2="312" y2="242.0" stroke="#9B8CFF" stroke-width="2.2" opacity="0.06"/><line x1="92" y1="302.0" x2="658" y2="302.0" stroke="#9B8CFF" stroke-width="2.2" opacity="0.08"/><line x1="212" y1="290.0" x2="312" y2="314.0" stroke="#9B8CFF" stroke-width="2.2" opacity="0.06"/><line x1="92" y1="374.0" x2="658" y2="374.0" stroke="#9B8CFF" stroke-width="2.2" opacity="0.08"/><line x1="212" y1="362.0" x2="312" y2="386.0" stroke="#9B8CFF" stroke-width="2.2" opacity="0.06"/><line x1="92" y1="446.0" x2="658" y2="446.0" stroke="#9B8CFF" stroke-width="2.2" opacity="0.08"/><line x1="212" y1="434.0" x2="312" y2="458.0" stroke="#9B8CFF" stroke-width="2.2" opacity="0.06"/><line x1="92" y1="518.0" x2="658" y2="518.0" stroke="#9B8CFF" stroke-width="2.2" opacity="0.08"/><line x1="212" y1="506.0" x2="312" y2="530.0" stroke="#9B8CFF" stroke-width="2.2" opacity="0.06"/><line x1="92" y1="590.0" x2="658" y2="590.0" stroke="#9B8CFF" stroke-width="2.2" opacity="0.08"/><line x1="212" y1="578.0" x2="312" y2="602.0" stroke="#9B8CFF" stroke-width="2.2" opacity="0.06"/><line x1="92" y1="662.0" x2="658" y2="662.0" stroke="#9B8CFF" stroke-width="2.2" opacity="0.08"/><line x1="212" y1="650.0" x2="312" y2="674.0" stroke="#9B8CFF" stroke-width="2.2" opacity="0.06"/><line x1="92" y1="734.0" x2="658" y2="734.0" stroke="#9B8CFF" stroke-width="2.2" opacity="0.08"/><line x1="212" y1="722.0" x2="312" y2="746.0" stroke="#9B8CFF" stroke-width="2.2" opacity="0.06"/><line x1="92" y1="806.0" x2="658" y2="806.0" stroke="#9B8CFF" stroke-width="2.2" opacity="0.08"/><line x1="212" y1="794.0" x2="312" y2="818.0" stroke="#9B8CFF" stroke-width="2.2" opacity="0.06"/><line x1="92" y1="878.0" x2="658" y2="878.0" stroke="#9B8CFF" stroke-width="2.2" opacity="0.08"/><line x1="212" y1="866.0" x2="312" y2="890.0" stroke="#9B8CFF" stroke-width="2.2" opacity="0.06"/></g><g><g opacity="0.55">
        <g>
          
        <path d="M 361.3 363.9
                 Q 333.3 358.3 322.1 380.7
                 Q 338.9 377.9 352.9 391.9
                 Q 341.7 389.1 330.5 404.5
                 Q 350.1 398.9 361.3 363.9 Z"
              fill="#9B8CFF" opacity="0.35" stroke="#1E1B2E" stroke-width="6"/>
        
          <line x1="338.6" y1="384.7" x2="434.5" y2="415.8" stroke="#1E1B2E" stroke-width="3.6" stroke-linecap="round"/>
          <line x1="338.6" y1="384.7" x2="434.5" y2="415.8" stroke="#ffffff" stroke-width="1.4" stroke-linecap="round" opacity="0.65"/>
          <line x1="349.4" y1="451.3" x2="386.4" y2="337.1" stroke="#1E1B2E" stroke-width="3.4" stroke-linecap="round"/>
          
        <polygon points="434.5,415.8 413.4,390.1 382.2,398.8 402.3,424.3"
                 fill="#ffffff" stroke="#1E1B2E" stroke-width="5" opacity="0.95"/>
        
          <circle cx="338.6" cy="384.7" r="4.5" fill="#9B8CFF" opacity="0.35" stroke="#1E1B2E" stroke-width="5"/>
        </g>
        </g><g opacity="0.55">
        <g>
          
        <path d="M 524.6 434.9
                 Q 496.6 429.3 485.4 451.7
                 Q 502.2 448.9 516.2 462.9
                 Q 505.0 460.1 493.8 475.5
                 Q 513.4 469.9 524.6 434.9 Z"
              fill="#9B8CFF" opacity="0.35" stroke="#1E1B2E" stroke-width="6"/>
        
          <line x1="501.9" y1="455.7" x2="597.7" y2="486.8" stroke="#1E1B2E" stroke-width="3.6" stroke-linecap="round"/>
          <line x1="501.9" y1="455.7" x2="597.7" y2="486.8" stroke="#ffffff" stroke-width="1.4" stroke-linecap="round" opacity="0.65"/>
          <line x1="512.6" y1="522.3" x2="549.7" y2="408.1" stroke="#1E1B2E" stroke-width="3.4" stroke-linecap="round"/>
          
        <polygon points="597.7,486.8 576.7,461.1 545.4,469.8 565.5,495.3"
                 fill="#ffffff" stroke="#1E1B2E" stroke-width="5" opacity="0.95"/>
        
          <circle cx="501.9" cy="455.7" r="4.5" fill="#9B8CFF" opacity="0.35" stroke="#1E1B2E" stroke-width="5"/>
        </g>
        </g><g opacity="0.55">
        <g>
          
        <path d="M 599.8 611.6
                 Q 571.8 606.0 560.6 628.4
                 Q 577.4 625.6 591.4 639.6
                 Q 580.2 636.8 569.0 652.2
                 Q 588.6 646.6 599.8 611.6 Z"
              fill="#9B8CFF" opacity="0.35" stroke="#1E1B2E" stroke-width="6"/>
        
          <line x1="577.1" y1="632.4" x2="672.9" y2="663.6" stroke="#1E1B2E" stroke-width="3.6" stroke-linecap="round"/>
          <line x1="577.1" y1="632.4" x2="672.9" y2="663.6" stroke="#ffffff" stroke-width="1.4" stroke-linecap="round" opacity="0.65"/>
          <line x1="587.8" y1="699.0" x2="624.9" y2="584.9" stroke="#1E1B2E" stroke-width="3.4" stroke-linecap="round"/>
          
        <polygon points="672.9,663.6 651.9,637.8 620.6,646.6 640.7,672.0"
                 fill="#ffffff" stroke="#1E1B2E" stroke-width="5" opacity="0.95"/>
        
          <circle cx="577.1" cy="632.4" r="4.5" fill="#9B8CFF" opacity="0.35" stroke="#1E1B2E" stroke-width="5"/>
        </g>
        </g><g opacity="0.55">
        <g>
          
        <path d="M 514.4 801.8
                 Q 486.4 796.2 475.2 818.6
                 Q 492.0 815.8 506.0 829.8
                 Q 494.8 827.0 483.6 842.4
                 Q 503.2 836.8 514.4 801.8 Z"
              fill="#9B8CFF" opacity="0.35" stroke="#1E1B2E" stroke-width="6"/>
        
          <line x1="491.6" y1="822.6" x2="587.5" y2="853.8" stroke="#1E1B2E" stroke-width="3.6" stroke-linecap="round"/>
          <line x1="491.6" y1="822.6" x2="587.5" y2="853.8" stroke="#ffffff" stroke-width="1.4" stroke-linecap="round" opacity="0.65"/>
          <line x1="502.4" y1="889.2" x2="539.5" y2="775.1" stroke="#1E1B2E" stroke-width="3.4" stroke-linecap="round"/>
          
        <polygon points="587.5,853.8 566.4,828.0 535.2,836.8 555.3,862.2"
                 fill="#ffffff" stroke="#1E1B2E" stroke-width="5" opacity="0.95"/>
        
          <circle cx="491.6" cy="822.6" r="4.5" fill="#9B8CFF" opacity="0.35" stroke="#1E1B2E" stroke-width="5"/>
        </g>
        </g><g opacity="0.55">
        <g>
          
        <path d="M 349.5 863.6
                 Q 321.5 858.0 310.3 880.4
                 Q 327.1 877.6 341.1 891.6
                 Q 329.9 888.8 318.7 904.2
                 Q 338.3 898.6 349.5 863.6 Z"
              fill="#9B8CFF" opacity="0.35" stroke="#1E1B2E" stroke-width="6"/>
        
          <line x1="326.7" y1="884.4" x2="422.6" y2="915.6" stroke="#1E1B2E" stroke-width="3.6" stroke-linecap="round"/>
          <line x1="326.7" y1="884.4" x2="422.6" y2="915.6" stroke="#ffffff" stroke-width="1.4" stroke-linecap="round" opacity="0.65"/>
          <line x1="337.5" y1="951.0" x2="374.6" y2="836.9" stroke="#1E1B2E" stroke-width="3.4" stroke-linecap="round"/>
          
        <polygon points="422.6,915.6 401.5,889.8 370.3,898.6 390.4,924.0"
                 fill="#ffffff" stroke="#1E1B2E" stroke-width="5" opacity="0.95"/>
        
          <circle cx="326.7" cy="884.4" r="4.5" fill="#9B8CFF" opacity="0.35" stroke="#1E1B2E" stroke-width="5"/>
        </g>
        </g><g opacity="0.55">
        <g>
          
        <path d="M 166.2 783.3
                 Q 138.2 777.7 127.0 800.1
                 Q 143.8 797.3 157.8 811.3
                 Q 146.6 808.5 135.4 823.9
                 Q 155.0 818.3 166.2 783.3 Z"
              fill="#9B8CFF" opacity="0.35" stroke="#1E1B2E" stroke-width="6"/>
        
          <line x1="143.5" y1="804.1" x2="239.3" y2="835.3" stroke="#1E1B2E" stroke-width="3.6" stroke-linecap="round"/>
          <line x1="143.5" y1="804.1" x2="239.3" y2="835.3" stroke="#ffffff" stroke-width="1.4" stroke-linecap="round" opacity="0.65"/>
          <line x1="154.2" y1="870.7" x2="191.3" y2="756.6" stroke="#1E1B2E" stroke-width="3.4" stroke-linecap="round"/>
          
        <polygon points="239.3,835.3 218.3,809.5 187.0,818.3 207.1,843.7"
                 fill="#ffffff" stroke="#1E1B2E" stroke-width="5" opacity="0.95"/>
        
          <circle cx="143.5" cy="804.1" r="4.5" fill="#9B8CFF" opacity="0.35" stroke="#1E1B2E" stroke-width="5"/>
        </g>
        </g><g opacity="0.55">
        <g>
          
        <path d="M 100.2 600.2
                 Q 72.2 594.6 61.0 617.0
                 Q 77.8 614.2 91.8 628.2
                 Q 80.6 625.4 69.4 640.8
                 Q 89.0 635.2 100.2 600.2 Z"
              fill="#9B8CFF" opacity="0.35" stroke="#1E1B2E" stroke-width="6"/>
        
          <line x1="77.4" y1="621.1" x2="173.3" y2="652.2" stroke="#1E1B2E" stroke-width="3.6" stroke-linecap="round"/>
          <line x1="77.4" y1="621.1" x2="173.3" y2="652.2" stroke="#ffffff" stroke-width="1.4" stroke-linecap="round" opacity="0.65"/>
          <line x1="88.2" y1="687.6" x2="125.3" y2="573.5" stroke="#1E1B2E" stroke-width="3.4" stroke-linecap="round"/>
          
        <polygon points="173.3,652.2 152.2,626.4 121.0,635.2 141.1,660.7"
                 fill="#ffffff" stroke="#1E1B2E" stroke-width="5" opacity="0.95"/>
        
          <circle cx="77.4" cy="621.1" r="4.5" fill="#9B8CFF" opacity="0.35" stroke="#1E1B2E" stroke-width="5"/>
        </g>
        </g><g opacity="0.55">
        <g>
          
        <path d="M 185.2 425.5
                 Q 157.2 419.9 146.0 442.3
                 Q 162.8 439.5 176.8 453.5
                 Q 165.6 450.7 154.4 466.1
                 Q 174.0 460.5 185.2 425.5 Z"
              fill="#9B8CFF" opacity="0.35" stroke="#1E1B2E" stroke-width="6"/>
        
          <line x1="162.4" y1="446.3" x2="258.3" y2="477.4" stroke="#1E1B2E" stroke-width="3.6" stroke-linecap="round"/>
          <line x1="162.4" y1="446.3" x2="258.3" y2="477.4" stroke="#ffffff" stroke-width="1.4" stroke-linecap="round" opacity="0.65"/>
          <line x1="173.2" y1="512.9" x2="210.3" y2="398.8" stroke="#1E1B2E" stroke-width="3.4" stroke-linecap="round"/>
          
        <polygon points="258.3,477.4 237.2,451.7 206.0,460.5 226.1,485.9"
                 fill="#ffffff" stroke="#1E1B2E" stroke-width="5" opacity="0.95"/>
        
          <circle cx="162.4" cy="446.3" r="4.5" fill="#9B8CFF" opacity="0.35" stroke="#1E1B2E" stroke-width="5"/>
        </g>
        </g></g><g opacity="0.18"><g><line x1="92" y1="230.0" x2="658" y2="230.0" stroke="#9B8CFF" stroke-width="2.2" opacity="0.08"/><line x1="212" y1="218.0" x2="312" y2="242.0" stroke="#9B8CFF" stroke-width="2.2" opacity="0.06"/><line x1="92" y1="302.0" x2="658" y2="302.0" stroke="#9B8CFF" stroke-width="2.2" opacity="0.08"/><line x1="212" y1="290.0" x2="312" y2="314.0" stroke="#9B8CFF" stroke-width="2.2" opacity="0.06"/><line x1="92" y1="374.0" x2="658" y2="374.0" stroke="#9B8CFF" stroke-width="2.2" opacity="0.08"/><line x1="212" y1="362.0" x2="312" y2="386.0" stroke="#9B8CFF" stroke-width="2.2" opacity="0.06"/><line x1="92" y1="446.0" x2="658" y2="446.0" stroke="#9B8CFF" stroke-width="2.2" opacity="0.08"/><line x1="212" y1="434.0" x2="312" y2="458.0" stroke="#9B8CFF" stroke-width="2.2" opacity="0.06"/><line x1="92" y1="518.0" x2="658" y2="518.0" stroke="#9B8CFF" stroke-width="2.2" opacity="0.08"/><line x1="212" y1="506.0" x2="312" y2="530.0" stroke="#9B8CFF" stroke-width="2.2" opacity="0.06"/><line x1="92" y1="590.0" x2="658" y2="590.0" stroke="#9B8CFF" stroke-width="2.2" opacity="0.08"/><line x1="212" y1="578.0" x2="312" y2="602.0" stroke="#9B8CFF" stroke-width="2.2" opacity="0.06"/><line x1="92" y1="662.0" x2="658" y2="662.0" stroke="#9B8CFF" stroke-width="2.2" opacity="0.08"/><line x1="212" y1="650.0" x2="312" y2="674.0" stroke="#9B8CFF" stroke-width="2.2" opacity="0.06"/><line x1="92" y1="734.0" x2="658" y2="734.0" stroke="#9B8CFF" stroke-width="2.2" opacity="0.08"/><line x1="212" y1="722.0" x2="312" y2="746.0" stroke="#9B8CFF" stroke-width="2.2" opacity="0.06"/><line x1="92" y1="806.0" x2="658" y2="806.0" stroke="#9B8CFF" stroke-width="2.2" opacity="0.08"/><line x1="212" y1="794.0" x2="312" y2="818.0" stroke="#9B8CFF" stroke-width="2.2" opacity="0.06"/><line x1="92" y1="878.0" x2="658" y2="878.0" stroke="#9B8CFF" stroke-width="2.2" opacity="0.08"/><line x1="212" y1="866.0" x2="312" y2="890.0" stroke="#9B8CFF" stroke-width="2.2" opacity="0.06"/></g></g>
        <g filter="url(#glow)">
          <circle cx="375.0" cy="630" r="170" fill="#ffffff" opacity="0.40" stroke="#9B8CFF" stroke-width="7"/>
          
        <g>
          
        <path d="M 310.2 536.4
                 Q 238.2 522.0 209.4 579.6
                 Q 252.6 572.4 288.6 608.4
                 Q 259.8 601.2 231.0 640.8
                 Q 281.4 626.4 310.2 536.4 Z"
              fill="#9B8CFF" opacity="0.35" stroke="#1E1B2E" stroke-width="6"/>
        
          <line x1="251.7" y1="590.0" x2="498.3" y2="670.0" stroke="#1E1B2E" stroke-width="9.4" stroke-linecap="round"/>
          <line x1="251.7" y1="590.0" x2="498.3" y2="670.0" stroke="#ffffff" stroke-width="3.6" stroke-linecap="round" opacity="0.65"/>
          <line x1="308.5" y1="671.5" x2="345.6" y2="557.4" stroke="#1E1B2E" stroke-width="8.6" stroke-linecap="round"/>
          
        <polygon points="498.3,670.0 477.2,644.3 445.9,653.1 466.1,678.5"
                 fill="#ffffff" stroke="#1E1B2E" stroke-width="5" opacity="0.95"/>
        
          <circle cx="251.7" cy="590.0" r="11.5" fill="#9B8CFF" opacity="0.35" stroke="#1E1B2E" stroke-width="5"/>
        </g>
        
        </g>
        <line x1="156.1" y1="390.6" x2="167.8" y2="453.4" stroke="#ffffff" stroke-width="2.2" opacity="0.11"/>
<line x1="167.8" y1="453.4" x2="459.6" y2="586.0" stroke="#ffffff" stroke-width="2.2" opacity="0.18"/>
<line x1="459.6" y1="586.0" x2="140.8" y2="452.4" stroke="#ffffff" stroke-width="2.2" opacity="0.11"/>
<line x1="140.8" y1="452.4" x2="230.8" y2="675.4" stroke="#ffffff" stroke-width="2.2" opacity="0.13"/>
<line x1="230.8" y1="675.4" x2="431.9" y2="537.0" stroke="#ffffff" stroke-width="2.2" opacity="0.16"/>
<line x1="431.9" y1="537.0" x2="223.0" y2="405.6" stroke="#ffffff" stroke-width="2.2" opacity="0.17"/>
<circle cx="320.4" cy="672.1" r="2.2" fill="#ffffff" opacity="0.3257901819562179"/>
<circle cx="551.0" cy="634.5" r="3.7" fill="#ffffff" opacity="0.48706906134284056"/>
<circle cx="365.2" cy="331.9" r="3.8" fill="#ffffff" opacity="0.795376758604402"/>
<circle cx="431.9" cy="537.0" r="4.7" fill="#ffffff" opacity="0.5797413760759897"/>
<circle cx="167.8" cy="453.4" r="2.7" fill="#ffffff" opacity="0.6096714390499018"/>
<circle cx="230.8" cy="675.4" r="3.4" fill="#ffffff" opacity="0.7528660898325192"/>
<circle cx="287.9" cy="232.5" r="2.3" fill="#ffffff" opacity="0.4642627206421206"/>
<circle cx="489.6" cy="248.5" r="2.0" fill="#ffffff" opacity="0.4739280700340931"/>
<circle cx="611.7" cy="563.5" r="2.4" fill="#ffffff" opacity="0.3756832690670593"/>
<circle cx="140.8" cy="452.4" r="1.8" fill="#ffffff" opacity="0.3661844141030794"/>
<circle cx="459.6" cy="586.0" r="3.3" fill="#ffffff" opacity="0.6645441417994202"/>
<circle cx="223.0" cy="405.6" r="1.8" fill="#ffffff" opacity="0.5295503944454633"/>
<circle cx="145.1" cy="435.0" r="3.6" fill="#ffffff" opacity="0.7702696074637781"/>
<circle cx="156.1" cy="390.6" r="4.3" fill="#ffffff" opacity="0.7891365668497323"/>
<rect x="42" y="1030" width="666" height="160" rx="30" fill="#ffffffd9" stroke="#1E1B2E" stroke-width="4" opacity="0.95"/>
<text x="375.0" y="1104" font-family="ui-sans-serif, system-ui, -apple-system, Segoe UI, Roboto, Helvetica, Arial" font-size="46" font-weight="900" text-anchor="middle" fill="#1E1B2E" opacity="0.98">8 of Swords</text>
<text x="375.0" y="1152" font-family="ui-sans-serif, system-ui, -apple-system, Segoe UI, Roboto, Helvetica, Arial" font-size="28" font-weight="700" text-anchor="middle" fill="#1E1B2E" opacity="0.7">Motion</text>

    <g opacity="0.55">
      <circle cx="127" cy="1176" r="14" fill="#9B8CFF"/>
      <circle cx="623" cy="1176" r="14" fill="#9B8CFF"/>
      <path d="M 162 1176 L 588 1176" stroke="#9B8CFF" stroke-width="4" opacity="0.45" stroke-linecap="round"/>
    </g>
    
</svg>
