<svg xmlns="http://www.w3.org/2000/svg" width="750" height="1250" viewBox="0 0 750 1250">
  <title>9 of Swords</title>


  <defs>
    <linearGradient id="g" x1="0" y1="0" x2="1" y2="1">
      <stop offset="0%" stop-color="#FFE6F2"/>
      <stop offset="100%" stop-color="#E6F7FF"/>
    </linearGradient>

    <!-- paper texture -->
    <filter id="paper" x="-20%" y="-20%" width="140%" height="140%">
      <feTurbulence type="fractalNoise" baseFrequency="0.012" numOctaves="3" seed="1881" result="noise"/>
      <feColorMatrix in="noise" type="matrix"
        values="1 0 0 0 0
                0 1 0 0 0
                0 0 1 0 0
                0 0 0 0.25 0" result="noiseAlpha"/>
      <feComposite in="noiseAlpha" in2="SourceGraphic" operator="over"/>
    </filter>

    <!-- soft glow -->
    <filter id="glow" x="-30%" y="-30%" width="160%" height="160%">
      <feGaussianBlur stdDeviation="10" result="blur"/>
      <feColorMatrix type="matrix" values="
        1 0 0 0 0
        0 1 0 0 0
        0 0 1 0 0
        0 0 0 0.32 0" result="blurAlpha"/>
      <feMerge>
        <feMergeNode in="blurAlpha"/>
        <feMergeNode in="SourceGraphic"/>
      </feMerge>
    </filter>
  </defs>

<rect x="0" y="0" width="750" height="1250" rx="58" ry="58" fill="url(#g)" stroke="none" stroke-width="0" opacity="1"/>
<rect x="0" y="0" width="750" height="1250" fill="#ffffff" opacity="0.08"/>
<line x1="476.1" y1="957.8" x2="612.9" y2="156.2" stroke="#ffffff" stroke-width="2.2" opacity="0.18"/>
<line x1="612.9" y1="156.2" x2="185.0" y2="925.0" stroke="#ffffff" stroke-width="2.2" opacity="0.20"/>
<line x1="185.0" y1="925.0" x2="595.9" y2="90.0" stroke="#ffffff" stroke-width="2.2" opacity="0.15"/>
<line x1="595.9" y1="90.0" x2="165.4" y2="76.4" stroke="#ffffff" stroke-width="2.2" opacity="0.15"/>
<line x1="165.4" y1="76.4" x2="504.3" y2="741.1" stroke="#ffffff" stroke-width="2.2" opacity="0.14"/>
<line x1="504.3" y1="741.1" x2="193.1" y2="115.0" stroke="#ffffff" stroke-width="2.2" opacity="0.16"/>
<line x1="193.1" y1="115.0" x2="706.7" y2="889.9" stroke="#ffffff" stroke-width="2.2" opacity="0.17"/>
<line x1="706.7" y1="889.9" x2="81.4" y2="467.5" stroke="#ffffff" stroke-width="2.2" opacity="0.16"/>
<line x1="81.4" y1="467.5" x2="77.2" y2="476.7" stroke="#ffffff" stroke-width="2.2" opacity="0.21"/>
<line x1="77.2" y1="476.7" x2="139.8" y2="543.9" stroke="#ffffff" stroke-width="2.2" opacity="0.20"/>
<line x1="139.8" y1="543.9" x2="683.7" y2="951.6" stroke="#ffffff" stroke-width="2.2" opacity="0.12"/>
<line x1="683.7" y1="951.6" x2="566.1" y2="540.9" stroke="#ffffff" stroke-width="2.2" opacity="0.21"/>
<line x1="566.1" y1="540.9" x2="95.1" y2="770.7" stroke="#ffffff" stroke-width="2.2" opacity="0.16"/>
<line x1="95.1" y1="770.7" x2="377.3" y2="581.1" stroke="#ffffff" stroke-width="2.2" opacity="0.19"/>
<line x1="377.3" y1="581.1" x2="553.1" y2="240.7" stroke="#ffffff" stroke-width="2.2" opacity="0.15"/>
<line x1="553.1" y1="240.7" x2="273.2" y2="730.6" stroke="#ffffff" stroke-width="2.2" opacity="0.19"/>
<line x1="273.2" y1="730.6" x2="618.8" y2="1139.3" stroke="#ffffff" stroke-width="2.2" opacity="0.10"/>
<line x1="618.8" y1="1139.3" x2="209.3" y2="648.6" stroke="#ffffff" stroke-width="2.2" opacity="0.19"/>
<circle cx="139.8" cy="543.9" r="2.9" fill="#ffffff" opacity="0.27607889740530905"/>
<circle cx="241.6" cy="75.6" r="4.2" fill="#ffffff" opacity="0.5488417980415651"/>
<circle cx="612.9" cy="156.2" r="4.2" fill="#ffffff" opacity="0.5715083834763797"/>
<circle cx="553.1" cy="240.7" r="4.0" fill="#ffffff" opacity="0.6295876399605906"/>
<circle cx="294.9" cy="959.7" r="3.1" fill="#ffffff" opacity="0.4803427483946918"/>
<circle cx="81.4" cy="467.5" r="2.7" fill="#ffffff" opacity="0.3416558395485314"/>
<circle cx="569.5" cy="98.4" r="1.9" fill="#ffffff" opacity="0.3001582897755196"/>
<circle cx="342.6" cy="59.5" r="1.8" fill="#ffffff" opacity="0.8398579768597056"/>
<circle cx="569.2" cy="1067.3" r="2.0" fill="#ffffff" opacity="0.3921013594190419"/>
<circle cx="173.6" cy="332.3" r="3.3" fill="#ffffff" opacity="0.579778067411314"/>
<circle cx="504.3" cy="741.1" r="2.0" fill="#ffffff" opacity="0.576189854490461"/>
<circle cx="119.3" cy="539.3" r="1.8" fill="#ffffff" opacity="0.6153257844854293"/>
<circle cx="378.8" cy="624.0" r="2.2" fill="#ffffff" opacity="0.3132148458571463"/>
<circle cx="209.3" cy="648.6" r="4.3" fill="#ffffff" opacity="0.8237667315410107"/>
<circle cx="470.4" cy="1102.3" r="3.9" fill="#ffffff" opacity="0.8299347829914813"/>
<circle cx="237.1" cy="868.5" r="3.4" fill="#ffffff" opacity="0.7866585611974085"/>
<circle cx="446.7" cy="223.2" r="3.8" fill="#ffffff" opacity="0.6890010142581198"/>
<circle cx="67.6" cy="897.6" r="3.7" fill="#ffffff" opacity="0.6439651111400178"/>
<circle cx="114.6" cy="625.2" r="3.4" fill="#ffffff" opacity="0.6085876298759019"/>
<circle cx="98.5" cy="426.0" r="2.7" fill="#ffffff" opacity="0.4622412786556438"/>
<circle cx="618.8" cy="1139.3" r="3.6" fill="#ffffff" opacity="0.7883396110022687"/>
<circle cx="377.3" cy="581.1" r="4.4" fill="#ffffff" opacity="0.6926083789024444"/>
<circle cx="58.5" cy="855.3" r="4.5" fill="#ffffff" opacity="0.4161038416644726"/>
<circle cx="566.1" cy="540.9" r="2.5" fill="#ffffff" opacity="0.3911388199594693"/>
<circle cx="391.2" cy="1187.8" r="3.0" fill="#ffffff" opacity="0.8294283115098664"/>
<circle cx="677.8" cy="392.9" r="2.7" fill="#ffffff" opacity="0.8405246316279461"/>
<circle cx="185.0" cy="925.0" r="2.3" fill="#ffffff" opacity="0.635886146796185"/>
<circle cx="651.5" cy="704.5" r="2.3" fill="#ffffff" opacity="0.7948978886101251"/>
<circle cx="693.0" cy="873.4" r="3.4" fill="#ffffff" opacity="0.7049656016574719"/>
<circle cx="183.7" cy="830.6" r="3.5" fill="#ffffff" opacity="0.25693668258418373"/>
<circle cx="706.7" cy="889.9" r="4.0" fill="#ffffff" opacity="0.6555481111124235"/>
<circle cx="425.9" cy="416.5" r="3.0" fill="#ffffff" opacity="0.5507405883097347"/>
<circle cx="78.3" cy="1144.9" r="4.7" fill="#ffffff" opacity="0.3154708585059154"/>
<circle cx="595.9" cy="90.0" r="2.2" fill="#ffffff" opacity="0.7138427072492451"/>
<circle cx="476.1" cy="957.8" r="1.6" fill="#ffffff" opacity="0.7073167844703601"/>
<circle cx="205.6" cy="515.0" r="3.4" fill="#ffffff" opacity="0.8420923323460785"/>
<circle cx="165.4" cy="76.4" r="4.8" fill="#ffffff" opacity="0.7184350451117361"/>
<circle cx="58.7" cy="956.5" r="3.2" fill="#ffffff" opacity="0.8144378964245891"/>
<circle cx="314.1" cy="474.7" r="2.7" fill="#ffffff" opacity="0.2700768800725153"/>
<circle cx="403.9" cy="104.3" r="3.1" fill="#ffffff" opacity="0.33278628595390375"/>
<circle cx="467.0" cy="1190.9" r="4.5" fill="#ffffff" opacity="0.8117372572810665"/>
<circle cx="683.7" cy="951.6" r="4.6" fill="#ffffff" opacity="0.3641018392423774"/>
<circle cx="95.1" cy="770.7" r="2.4" fill="#ffffff" opacity="0.5927739455662413"/>
<circle cx="225.3" cy="820.9" r="3.1" fill="#ffffff" opacity="0.6208121413075318"/>
<circle cx="120.2" cy="266.5" r="2.4" fill="#ffffff" opacity="0.712552891675257"/>
<circle cx="57.1" cy="1205.9" r="3.3" fill="#ffffff" opacity="0.5387143866658188"/>
<circle cx="193.1" cy="115.0" r="3.7" fill="#ffffff" opacity="0.5740094864699372"/>
<circle cx="273.2" cy="730.6" r="2.5" fill="#ffffff" opacity="0.3210441799457237"/>
<circle cx="126.0" cy="121.7" r="3.6" fill="#ffffff" opacity="0.4240550561111716"/>
<circle cx="77.2" cy="476.7" r="4.0" fill="#ffffff" opacity="0.706576437021754"/>
<g filter="url(#paper)"><rect x="42" y="42" width="666" height="1166" rx="54" ry="54" fill="none" stroke="#1E1B2E" stroke-width="8" opacity="0.95"/>
<rect x="60" y="60" width="630" height="1130" rx="46" ry="46" fill="none" stroke="#9B8CFF" stroke-width="3" opacity="0.35"/>

  <g opacity="0.42">
    <circle cx="375.0" cy="560" r="285" fill="none" stroke="#9B8CFF" stroke-width="4.2" opacity="0.42"/>
    <circle cx="375.0" cy="560" r="233.7" fill="none" stroke="#9B8CFF" stroke-width="2.2" opacity="0.23"/>
    <line x1="642.0" y1="560.0" x2="674.0" y2="560.0" stroke="#9B8CFF" stroke-width="3.2" opacity="0.23" stroke-linecap="round"/><line x1="606.2" y1="693.5" x2="633.9" y2="709.5" stroke="#9B8CFF" stroke-width="3.2" opacity="0.23" stroke-linecap="round"/><line x1="508.5" y1="791.2" x2="524.5" y2="818.9" stroke="#9B8CFF" stroke-width="3.2" opacity="0.23" stroke-linecap="round"/><line x1="375.0" y1="827.0" x2="375.0" y2="859.0" stroke="#9B8CFF" stroke-width="3.2" opacity="0.23" stroke-linecap="round"/><line x1="241.5" y1="791.2" x2="225.5" y2="818.9" stroke="#9B8CFF" stroke-width="3.2" opacity="0.23" stroke-linecap="round"/><line x1="143.8" y1="693.5" x2="116.1" y2="709.5" stroke="#9B8CFF" stroke-width="3.2" opacity="0.23" stroke-linecap="round"/><line x1="108.0" y1="560.0" x2="76.0" y2="560.0" stroke="#9B8CFF" stroke-width="3.2" opacity="0.23" stroke-linecap="round"/><line x1="143.8" y1="426.5" x2="116.1" y2="410.5" stroke="#9B8CFF" stroke-width="3.2" opacity="0.23" stroke-linecap="round"/><line x1="241.5" y1="328.8" x2="225.5" y2="301.1" stroke="#9B8CFF" stroke-width="3.2" opacity="0.23" stroke-linecap="round"/><line x1="375.0" y1="293.0" x2="375.0" y2="261.0" stroke="#9B8CFF" stroke-width="3.2" opacity="0.23" stroke-linecap="round"/><line x1="508.5" y1="328.8" x2="524.5" y2="301.1" stroke="#9B8CFF" stroke-width="3.2" opacity="0.23" stroke-linecap="round"/><line x1="606.2" y1="426.5" x2="633.9" y2="410.5" stroke="#9B8CFF" stroke-width="3.2" opacity="0.23" stroke-linecap="round"/>
    <circle cx="660.0" cy="559.7" r="3.5" fill="#9B8CFF" opacity="0.30"/><circle cx="649.7" cy="635.9" r="3.0" fill="#9B8CFF" opacity="0.18"/><circle cx="619.4" cy="706.6" r="3.0" fill="#9B8CFF" opacity="0.41"/><circle cx="572.4" cy="765.6" r="3.2" fill="#9B8CFF" opacity="0.24"/><circle cx="515.6" cy="807.9" r="3.8" fill="#9B8CFF" opacity="0.39"/><circle cx="443.5" cy="836.6" r="3.6" fill="#9B8CFF" opacity="0.29"/><circle cx="384.4" cy="844.8" r="2.8" fill="#9B8CFF" opacity="0.41"/><circle cx="297.0" cy="834.1" r="3.0" fill="#9B8CFF" opacity="0.40"/><circle cx="224.2" cy="801.9" r="3.3" fill="#9B8CFF" opacity="0.39"/><circle cx="176.5" cy="764.5" r="3.7" fill="#9B8CFF" opacity="0.24"/><circle cx="130.2" cy="706.0" r="4.0" fill="#9B8CFF" opacity="0.23"/><circle cx="98.1" cy="627.4" r="3.2" fill="#9B8CFF" opacity="0.23"/><circle cx="90.0" cy="563.9" r="3.6" fill="#9B8CFF" opacity="0.38"/><circle cx="97.8" cy="493.8" r="2.7" fill="#9B8CFF" opacity="0.34"/><circle cx="131.8" cy="411.4" r="2.8" fill="#9B8CFF" opacity="0.42"/><circle cx="178.9" cy="353.2" r="3.7" fill="#9B8CFF" opacity="0.19"/><circle cx="234.9" cy="311.8" r="4.0" fill="#9B8CFF" opacity="0.21"/><circle cx="293.5" cy="286.9" r="3.8" fill="#9B8CFF" opacity="0.30"/><circle cx="372.7" cy="275.0" r="3.1" fill="#9B8CFF" opacity="0.18"/><circle cx="452.2" cy="285.6" r="4.0" fill="#9B8CFF" opacity="0.21"/><circle cx="518.2" cy="313.6" r="2.9" fill="#9B8CFF" opacity="0.41"/><circle cx="580.2" cy="362.3" r="3.9" fill="#9B8CFF" opacity="0.42"/><circle cx="624.4" cy="422.0" r="3.6" fill="#9B8CFF" opacity="0.33"/><circle cx="651.8" cy="492.3" r="3.0" fill="#9B8CFF" opacity="0.35"/>
  </g>

<g><g transform="translate(50,54)"><path d="M 18.0 117.0 C 45.0 45.0, 99.0 27.0, 153.0 54.0" fill="none" stroke="#9B8CFF" stroke-width="6" opacity="0.55" stroke-linecap="round"/></g><g transform="translate(700,54) scale(-1,1)"><path d="M 18.0 117.0 C 45.0 45.0, 99.0 27.0, 153.0 54.0" fill="none" stroke="#9B8CFF" stroke-width="6" opacity="0.55" stroke-linecap="round"/></g><g transform="translate(50,1196) scale(1,-1)"><path d="M 18.0 117.0 C 45.0 45.0, 99.0 27.0, 153.0 54.0" fill="none" stroke="#9B8CFF" stroke-width="6" opacity="0.55" stroke-linecap="round"/></g><g transform="translate(700,1196) scale(-1,-1)"><path d="M 18.0 117.0 C 45.0 45.0, 99.0 27.0, 153.0 54.0" fill="none" stroke="#9B8CFF" stroke-width="6" opacity="0.55" stroke-linecap="round"/></g></g></g>
<rect x="42" y="60" width="666" height="92" rx="30" fill="#ffffffcc" stroke="#1E1B2E" stroke-width="4" opacity="0.95"/>
<text x="375.0" y="122" font-family="ui-sans-serif, system-ui, -apple-system, Segoe UI, Roboto, Helvetica, Arial" font-size="30" font-weight="800" text-anchor="middle" fill="#1E1B2E" opacity="0.95" letter-spacing="1">MINOR ARCANA • SWORDS</text>
<rect x="76" y="170" width="598" height="760" rx="52" fill="#ffffff" opacity="0.15"/>
<g><line x1="92" y1="230.0" x2="658" y2="230.0" stroke="#9B8CFF" stroke-width="2.2" opacity="0.08"/><line x1="212" y1="218.0" x2="312" y2="242.0" stroke="#9B8CFF" stroke-width="2.2" opacity="0.06"/><line x1="92" y1="302.0" x2="658" y2="302.0" stroke="#9B8CFF" stroke-width="2.2" opacity="0.08"/><line x1="212" y1="290.0" x2="312" y2="314.0" stroke="#9B8CFF" stroke-width="2.2" opacity="0.06"/><line x1="92" y1="374.0" x2="658" y2="374.0" stroke="#9B8CFF" stroke-width="2.2" opacity="0.08"/><line x1="212" y1="362.0" x2="312" y2="386.0" stroke="#9B8CFF" stroke-width="2.2" opacity="0.06"/><line x1="92" y1="446.0" x2="658" y2="446.0" stroke="#9B8CFF" stroke-width="2.2" opacity="0.08"/><line x1="212" y1="434.0" x2="312" y2="458.0" stroke="#9B8CFF" stroke-width="2.2" opacity="0.06"/><line x1="92" y1="518.0" x2="658" y2="518.0" stroke="#9B8CFF" stroke-width="2.2" opacity="0.08"/><line x1="212" y1="506.0" x2="312" y2="530.0" stroke="#9B8CFF" stroke-width="2.2" opacity="0.06"/><line x1="92" y1="590.0" x2="658" y2="590.0" stroke="#9B8CFF" stroke-width="2.2" opacity="0.08"/><line x1="212" y1="578.0" x2="312" y2="602.0" stroke="#9B8CFF" stroke-width="2.2" opacity="0.06"/><line x1="92" y1="662.0" x2="658" y2="662.0" stroke="#9B8CFF" stroke-width="2.2" opacity="0.08"/><line x1="212" y1="650.0" x2="312" y2="674.0" stroke="#9B8CFF" stroke-width="2.2" opacity="0.06"/><line x1="92" y1="734.0" x2="658" y2="734.0" stroke="#9B8CFF" stroke-width="2.2" opacity="0.08"/><line x1="212" y1="722.0" x2="312" y2="746.0" stroke="#9B8CFF" stroke-width="2.2" opacity="0.06"/><line x1="92" y1="806.0" x2="658" y2="806.0" stroke="#9B8CFF" stroke-width="2.2" opacity="0.08"/><line x1="212" y1="794.0" x2="312" y2="818.0" stroke="#9B8CFF" stroke-width="2.2" opacity="0.06"/><line x1="92" y1="878.0" x2="658" y2="878.0" stroke="#9B8CFF" stroke-width="2.2" opacity="0.08"/><line x1="212" y1="866.0" x2="312" y2="890.0" stroke="#9B8CFF" stroke-width="2.2" opacity="0.06"/></g><g><g opacity="0.55">
        <g>
          
        <path d="M 335.2 364.0
                 Q 307.2 358.4 296.0 380.8
                 Q 312.8 378.0 326.8 392.0
                 Q 315.6 389.2 304.4 404.6
                 Q 324.0 399.0 335.2 364.0 Z"
              fill="#9B8CFF" opacity="0.35" stroke="#1E1B2E" stroke-width="6"/>
        
          <line x1="312.5" y1="384.9" x2="408.3" y2="416.0" stroke="#1E1B2E" stroke-width="3.6" stroke-linecap="round"/>
          <line x1="312.5" y1="384.9" x2="408.3" y2="416.0" stroke="#ffffff" stroke-width="1.4" stroke-linecap="round" opacity="0.65"/>
          <line x1="323.2" y1="451.4" x2="360.3" y2="337.3" stroke="#1E1B2E" stroke-width="3.4" stroke-linecap="round"/>
          
        <polygon points="408.3,416.0 387.3,390.2 356.0,399.0 376.1,424.5"
                 fill="#ffffff" stroke="#1E1B2E" stroke-width="5" opacity="0.95"/>
        
          <circle cx="312.5" cy="384.9" r="4.5" fill="#9B8CFF" opacity="0.35" stroke="#1E1B2E" stroke-width="5"/>
        </g>
        </g><g opacity="0.55">
        <g>
          
        <path d="M 521.5 431.9
                 Q 493.5 426.3 482.3 448.7
                 Q 499.1 445.9 513.1 459.9
                 Q 501.9 457.1 490.7 472.5
                 Q 510.3 466.9 521.5 431.9 Z"
              fill="#9B8CFF" opacity="0.35" stroke="#1E1B2E" stroke-width="6"/>
        
          <line x1="498.8" y1="452.7" x2="594.6" y2="483.9" stroke="#1E1B2E" stroke-width="3.6" stroke-linecap="round"/>
          <line x1="498.8" y1="452.7" x2="594.6" y2="483.9" stroke="#ffffff" stroke-width="1.4" stroke-linecap="round" opacity="0.65"/>
          <line x1="509.5" y1="519.3" x2="546.6" y2="405.2" stroke="#1E1B2E" stroke-width="3.4" stroke-linecap="round"/>
          
        <polygon points="594.6,483.9 573.6,458.1 542.3,466.9 562.4,492.3"
                 fill="#ffffff" stroke="#1E1B2E" stroke-width="5" opacity="0.95"/>
        
          <circle cx="498.8" cy="452.7" r="4.5" fill="#9B8CFF" opacity="0.35" stroke="#1E1B2E" stroke-width="5"/>
        </g>
        </g><g opacity="0.55">
        <g>
          
        <path d="M 595.8 569.2
                 Q 567.8 563.6 556.6 586.0
                 Q 573.4 583.2 587.4 597.2
                 Q 576.2 594.4 565.0 609.8
                 Q 584.6 604.2 595.8 569.2 Z"
              fill="#9B8CFF" opacity="0.35" stroke="#1E1B2E" stroke-width="6"/>
        
          <line x1="573.1" y1="590.1" x2="669.0" y2="621.2" stroke="#1E1B2E" stroke-width="3.6" stroke-linecap="round"/>
          <line x1="573.1" y1="590.1" x2="669.0" y2="621.2" stroke="#ffffff" stroke-width="1.4" stroke-linecap="round" opacity="0.65"/>
          <line x1="583.9" y1="656.7" x2="620.9" y2="542.5" stroke="#1E1B2E" stroke-width="3.4" stroke-linecap="round"/>
          
        <polygon points="669.0,621.2 647.9,595.4 616.7,604.2 636.8,629.7"
                 fill="#ffffff" stroke="#1E1B2E" stroke-width="5" opacity="0.95"/>
        
          <circle cx="573.1" cy="590.1" r="4.5" fill="#9B8CFF" opacity="0.35" stroke="#1E1B2E" stroke-width="5"/>
        </g>
        </g><g opacity="0.55">
        <g>
          
        <path d="M 565.9 739.4
                 Q 537.9 733.8 526.7 756.2
                 Q 543.5 753.4 557.5 767.4
                 Q 546.3 764.6 535.1 780.0
                 Q 554.7 774.4 565.9 739.4 Z"
              fill="#9B8CFF" opacity="0.35" stroke="#1E1B2E" stroke-width="6"/>
        
          <line x1="543.1" y1="760.2" x2="639.0" y2="791.4" stroke="#1E1B2E" stroke-width="3.6" stroke-linecap="round"/>
          <line x1="543.1" y1="760.2" x2="639.0" y2="791.4" stroke="#ffffff" stroke-width="1.4" stroke-linecap="round" opacity="0.65"/>
          <line x1="553.9" y1="826.8" x2="591.0" y2="712.7" stroke="#1E1B2E" stroke-width="3.4" stroke-linecap="round"/>
          
        <polygon points="639.0,791.4 617.9,765.6 586.7,774.4 606.8,799.8"
                 fill="#ffffff" stroke="#1E1B2E" stroke-width="5" opacity="0.95"/>
        
          <circle cx="543.1" cy="760.2" r="4.5" fill="#9B8CFF" opacity="0.35" stroke="#1E1B2E" stroke-width="5"/>
        </g>
        </g><g opacity="0.55">
        <g>
          
        <path d="M 436.2 848.2
                 Q 408.2 842.6 397.0 865.0
                 Q 413.8 862.2 427.8 876.2
                 Q 416.6 873.4 405.4 888.8
                 Q 425.0 883.2 436.2 848.2 Z"
              fill="#9B8CFF" opacity="0.35" stroke="#1E1B2E" stroke-width="6"/>
        
          <line x1="413.5" y1="869.0" x2="509.3" y2="900.2" stroke="#1E1B2E" stroke-width="3.6" stroke-linecap="round"/>
          <line x1="413.5" y1="869.0" x2="509.3" y2="900.2" stroke="#ffffff" stroke-width="1.4" stroke-linecap="round" opacity="0.65"/>
          <line x1="424.2" y1="935.6" x2="461.3" y2="821.5" stroke="#1E1B2E" stroke-width="3.4" stroke-linecap="round"/>
          
        <polygon points="509.3,900.2 488.3,874.4 457.0,883.2 477.1,908.6"
                 fill="#ffffff" stroke="#1E1B2E" stroke-width="5" opacity="0.95"/>
        
          <circle cx="413.5" cy="869.0" r="4.5" fill="#9B8CFF" opacity="0.35" stroke="#1E1B2E" stroke-width="5"/>
        </g>
        </g><g opacity="0.55">
        <g>
          
        <path d="M 249.5 842.6
                 Q 221.5 837.0 210.3 859.4
                 Q 227.1 856.6 241.1 870.6
                 Q 229.9 867.8 218.7 883.2
                 Q 238.3 877.6 249.5 842.6 Z"
              fill="#9B8CFF" opacity="0.35" stroke="#1E1B2E" stroke-width="6"/>
        
          <line x1="226.7" y1="863.4" x2="322.6" y2="894.6" stroke="#1E1B2E" stroke-width="3.6" stroke-linecap="round"/>
          <line x1="226.7" y1="863.4" x2="322.6" y2="894.6" stroke="#ffffff" stroke-width="1.4" stroke-linecap="round" opacity="0.65"/>
          <line x1="237.5" y1="930.0" x2="274.6" y2="815.9" stroke="#1E1B2E" stroke-width="3.4" stroke-linecap="round"/>
          
        <polygon points="322.6,894.6 301.5,868.8 270.3,877.6 290.4,903.0"
                 fill="#ffffff" stroke="#1E1B2E" stroke-width="5" opacity="0.95"/>
        
          <circle cx="226.7" cy="863.4" r="4.5" fill="#9B8CFF" opacity="0.35" stroke="#1E1B2E" stroke-width="5"/>
        </g>
        </g><g opacity="0.55">
        <g>
          
        <path d="M 132.8 737.8
                 Q 104.8 732.2 93.6 754.6
                 Q 110.4 751.8 124.4 765.8
                 Q 113.2 763.0 102.0 778.4
                 Q 121.6 772.8 132.8 737.8 Z"
              fill="#9B8CFF" opacity="0.35" stroke="#1E1B2E" stroke-width="6"/>
        
          <line x1="110.1" y1="758.7" x2="206.0" y2="789.8" stroke="#1E1B2E" stroke-width="3.6" stroke-linecap="round"/>
          <line x1="110.1" y1="758.7" x2="206.0" y2="789.8" stroke="#ffffff" stroke-width="1.4" stroke-linecap="round" opacity="0.65"/>
          <line x1="120.9" y1="825.2" x2="158.0" y2="711.1" stroke="#1E1B2E" stroke-width="3.4" stroke-linecap="round"/>
          
        <polygon points="206.0,789.8 184.9,764.0 153.7,772.8 173.8,798.3"
                 fill="#ffffff" stroke="#1E1B2E" stroke-width="5" opacity="0.95"/>
        
          <circle cx="110.1" cy="758.7" r="4.5" fill="#9B8CFF" opacity="0.35" stroke="#1E1B2E" stroke-width="5"/>
        </g>
        </g><g opacity="0.55">
        <g>
          
        <path d="M 103.2 572.3
                 Q 75.2 566.7 64.0 589.1
                 Q 80.8 586.3 94.8 600.3
                 Q 83.6 597.5 72.4 612.9
                 Q 92.0 607.3 103.2 572.3 Z"
              fill="#9B8CFF" opacity="0.35" stroke="#1E1B2E" stroke-width="6"/>
        
          <line x1="80.5" y1="593.2" x2="176.4" y2="624.3" stroke="#1E1B2E" stroke-width="3.6" stroke-linecap="round"/>
          <line x1="80.5" y1="593.2" x2="176.4" y2="624.3" stroke="#ffffff" stroke-width="1.4" stroke-linecap="round" opacity="0.65"/>
          <line x1="91.2" y1="659.7" x2="128.3" y2="545.6" stroke="#1E1B2E" stroke-width="3.4" stroke-linecap="round"/>
          
        <polygon points="176.4,624.3 155.3,598.5 124.1,607.3 144.2,632.8"
                 fill="#ffffff" stroke="#1E1B2E" stroke-width="5" opacity="0.95"/>
        
          <circle cx="80.5" cy="593.2" r="4.5" fill="#9B8CFF" opacity="0.35" stroke="#1E1B2E" stroke-width="5"/>
        </g>
        </g><g opacity="0.55">
        <g>
          
        <path d="M 178.7 431.4
                 Q 150.7 425.8 139.5 448.2
                 Q 156.3 445.4 170.3 459.4
                 Q 159.1 456.6 147.9 472.0
                 Q 167.5 466.4 178.7 431.4 Z"
              fill="#9B8CFF" opacity="0.35" stroke="#1E1B2E" stroke-width="6"/>
        
          <line x1="155.9" y1="452.2" x2="251.8" y2="483.3" stroke="#1E1B2E" stroke-width="3.6" stroke-linecap="round"/>
          <line x1="155.9" y1="452.2" x2="251.8" y2="483.3" stroke="#ffffff" stroke-width="1.4" stroke-linecap="round" opacity="0.65"/>
          <line x1="166.7" y1="518.8" x2="203.8" y2="404.6" stroke="#1E1B2E" stroke-width="3.4" stroke-linecap="round"/>
          
        <polygon points="251.8,483.3 230.7,457.6 199.5,466.3 219.6,491.8"
                 fill="#ffffff" stroke="#1E1B2E" stroke-width="5" opacity="0.95"/>
        
          <circle cx="155.9" cy="452.2" r="4.5" fill="#9B8CFF" opacity="0.35" stroke="#1E1B2E" stroke-width="5"/>
        </g>
        </g></g><circle cx="375.0" cy="520" r="260" fill="#9B8CFF" opacity="0.10"/>
        <g filter="url(#glow)">
          <circle cx="375.0" cy="630" r="170" fill="#ffffff" opacity="0.40" stroke="#9B8CFF" stroke-width="7"/>
          
        <g>
          
        <path d="M 310.2 536.4
                 Q 238.2 522.0 209.4 579.6
                 Q 252.6 572.4 288.6 608.4
                 Q 259.8 601.2 231.0 640.8
                 Q 281.4 626.4 310.2 536.4 Z"
              fill="#9B8CFF" opacity="0.35" stroke="#1E1B2E" stroke-width="6"/>
        
          <line x1="251.7" y1="590.0" x2="498.3" y2="670.0" stroke="#1E1B2E" stroke-width="9.4" stroke-linecap="round"/>
          <line x1="251.7" y1="590.0" x2="498.3" y2="670.0" stroke="#ffffff" stroke-width="3.6" stroke-linecap="round" opacity="0.65"/>
          <line x1="308.5" y1="671.5" x2="345.6" y2="557.4" stroke="#1E1B2E" stroke-width="8.6" stroke-linecap="round"/>
          
        <polygon points="498.3,670.0 477.2,644.3 445.9,653.1 466.1,678.5"
                 fill="#ffffff" stroke="#1E1B2E" stroke-width="5" opacity="0.95"/>
        
          <circle cx="251.7" cy="590.0" r="11.5" fill="#9B8CFF" opacity="0.35" stroke="#1E1B2E" stroke-width="5"/>
        </g>
        
        </g>
        <line x1="223.6" y1="456.9" x2="616.2" y2="511.2" stroke="#ffffff" stroke-width="2.2" opacity="0.08"/>
<line x1="616.2" y1="511.2" x2="457.8" y2="431.5" stroke="#ffffff" stroke-width="2.2" opacity="0.13"/>
<line x1="457.8" y1="431.5" x2="149.4" y2="305.8" stroke="#ffffff" stroke-width="2.2" opacity="0.09"/>
<line x1="149.4" y1="305.8" x2="393.3" y2="449.7" stroke="#ffffff" stroke-width="2.2" opacity="0.13"/>
<line x1="393.3" y1="449.7" x2="547.1" y2="246.6" stroke="#ffffff" stroke-width="2.2" opacity="0.20"/>
<line x1="547.1" y1="246.6" x2="387.0" y2="322.9" stroke="#ffffff" stroke-width="2.2" opacity="0.20"/>
<circle cx="274.7" cy="359.0" r="4.2" fill="#ffffff" opacity="0.32148823864497955"/>
<circle cx="495.9" cy="243.5" r="2.3" fill="#ffffff" opacity="0.47871122039157205"/>
<circle cx="457.8" cy="431.5" r="3.8" fill="#ffffff" opacity="0.54975961842113"/>
<circle cx="554.2" cy="328.7" r="3.4" fill="#ffffff" opacity="0.4625553418444498"/>
<circle cx="223.6" cy="456.9" r="3.9" fill="#ffffff" opacity="0.6012529735901264"/>
<circle cx="149.4" cy="305.8" r="4.3" fill="#ffffff" opacity="0.7542265869925109"/>
<circle cx="387.0" cy="322.9" r="4.6" fill="#ffffff" opacity="0.6330219705102609"/>
<circle cx="338.5" cy="467.9" r="4.6" fill="#ffffff" opacity="0.5805753582899638"/>
<circle cx="393.3" cy="449.7" r="2.0" fill="#ffffff" opacity="0.46912578024380747"/>
<circle cx="392.1" cy="564.9" r="1.8" fill="#ffffff" opacity="0.6642056138096426"/>
<circle cx="616.2" cy="511.2" r="2.3" fill="#ffffff" opacity="0.6786578786044859"/>
<circle cx="547.1" cy="246.6" r="4.5" fill="#ffffff" opacity="0.4599371699399016"/>
<circle cx="170.6" cy="537.1" r="3.1" fill="#ffffff" opacity="0.3588578917775635"/>
<circle cx="363.7" cy="642.8" r="2.2" fill="#ffffff" opacity="0.2671878502504687"/>
<rect x="42" y="1030" width="666" height="160" rx="30" fill="#ffffffd9" stroke="#1E1B2E" stroke-width="4" opacity="0.95"/>
<text x="375.0" y="1104" font-family="ui-sans-serif, system-ui, -apple-system, Segoe UI, Roboto, Helvetica, Arial" font-size="46" font-weight="900" text-anchor="middle" fill="#1E1B2E" opacity="0.98">9 of Swords</text>
<text x="375.0" y="1152" font-family="ui-sans-serif, system-ui, -apple-system, Segoe UI, Roboto, Helvetica, Arial" font-size="28" font-weight="700" text-anchor="middle" fill="#1E1B2E" opacity="0.7">Resilience</text>

    <g opacity="0.55">
      <circle cx="127" cy="1176" r="14" fill="#9B8CFF"/>
      <circle cx="623" cy="1176" r="14" fill="#9B8CFF"/>
      <path d="M 162 1176 L 588 1176" stroke="#9B8CFF" stroke-width="4" opacity="0.45" stroke-linecap="round"/>
    </g>
    
</svg>
