<svg xmlns="http://www.w3.org/2000/svg" width="750" height="1250" viewBox="0 0 750 1250">
  <title>10 of Swords</title>


  <defs>
    <linearGradient id="g" x1="0" y1="0" x2="1" y2="1">
      <stop offset="0%" stop-color="#E9FFF2"/>
      <stop offset="100%" stop-color="#FFF1FF"/>
    </linearGradient>

    <!-- paper texture -->
    <filter id="paper" x="-20%" y="-20%" width="140%" height="140%">
      <feTurbulence type="fractalNoise" baseFrequency="0.017" numOctaves="3" seed="4052" result="noise"/>
      <feColorMatrix in="noise" type="matrix"
        values="1 0 0 0 0
                0 1 0 0 0
                0 0 1 0 0
                0 0 0 0.25 0" result="noiseAlpha"/>
      <feComposite in="noiseAlpha" in2="SourceGraphic" operator="over"/>
    </filter>

    <!-- soft glow -->
    <filter id="glow" x="-30%" y="-30%" width="160%" height="160%">
      <feGaussianBlur stdDeviation="10" result="blur"/>
      <feColorMatrix type="matrix" values="
        1 0 0 0 0
        0 1 0 0 0
        0 0 1 0 0
        0 0 0 0.32 0" result="blurAlpha"/>
      <feMerge>
        <feMergeNode in="blurAlpha"/>
        <feMergeNode in="SourceGraphic"/>
      </feMerge>
    </filter>
  </defs>

<rect x="0" y="0" width="750" height="1250" rx="58" ry="58" fill="url(#g)" stroke="none" stroke-width="0" opacity="1"/>
<rect x="0" y="0" width="750" height="1250" fill="#ffffff" opacity="0.08"/>
<line x1="445.6" y1="1017.0" x2="706.1" y2="882.9" stroke="#ffffff" stroke-width="2.2" opacity="0.16"/>
<line x1="706.1" y1="882.9" x2="131.6" y2="339.0" stroke="#ffffff" stroke-width="2.2" opacity="0.14"/>
<line x1="131.6" y1="339.0" x2="50.4" y2="108.3" stroke="#ffffff" stroke-width="2.2" opacity="0.21"/>
<line x1="50.4" y1="108.3" x2="696.5" y2="546.0" stroke="#ffffff" stroke-width="2.2" opacity="0.10"/>
<line x1="696.5" y1="546.0" x2="611.4" y2="124.0" stroke="#ffffff" stroke-width="2.2" opacity="0.16"/>
<line x1="611.4" y1="124.0" x2="587.7" y2="1159.0" stroke="#ffffff" stroke-width="2.2" opacity="0.19"/>
<line x1="587.7" y1="1159.0" x2="198.5" y2="609.7" stroke="#ffffff" stroke-width="2.2" opacity="0.12"/>
<line x1="198.5" y1="609.7" x2="121.8" y2="988.3" stroke="#ffffff" stroke-width="2.2" opacity="0.21"/>
<line x1="121.8" y1="988.3" x2="635.5" y2="1083.2" stroke="#ffffff" stroke-width="2.2" opacity="0.15"/>
<line x1="635.5" y1="1083.2" x2="395.6" y2="207.9" stroke="#ffffff" stroke-width="2.2" opacity="0.21"/>
<line x1="395.6" y1="207.9" x2="462.6" y2="965.0" stroke="#ffffff" stroke-width="2.2" opacity="0.21"/>
<line x1="462.6" y1="965.0" x2="512.4" y2="1116.8" stroke="#ffffff" stroke-width="2.2" opacity="0.14"/>
<line x1="512.4" y1="1116.8" x2="419.5" y2="867.8" stroke="#ffffff" stroke-width="2.2" opacity="0.11"/>
<line x1="419.5" y1="867.8" x2="184.4" y2="517.0" stroke="#ffffff" stroke-width="2.2" opacity="0.10"/>
<line x1="184.4" y1="517.0" x2="333.0" y2="578.1" stroke="#ffffff" stroke-width="2.2" opacity="0.14"/>
<line x1="333.0" y1="578.1" x2="284.2" y2="1013.1" stroke="#ffffff" stroke-width="2.2" opacity="0.12"/>
<line x1="284.2" y1="1013.1" x2="684.0" y2="280.6" stroke="#ffffff" stroke-width="2.2" opacity="0.14"/>
<line x1="684.0" y1="280.6" x2="374.7" y2="520.8" stroke="#ffffff" stroke-width="2.2" opacity="0.13"/>
<circle cx="142.9" cy="228.0" r="1.8" fill="#ffffff" opacity="0.5500399262359158"/>
<circle cx="370.0" cy="684.5" r="3.7" fill="#ffffff" opacity="0.6885723843790288"/>
<circle cx="635.5" cy="1083.2" r="2.5" fill="#ffffff" opacity="0.41906174288726117"/>
<circle cx="445.6" cy="1017.0" r="2.5" fill="#ffffff" opacity="0.4130830543906482"/>
<circle cx="395.6" cy="207.9" r="4.7" fill="#ffffff" opacity="0.5068803043491648"/>
<circle cx="437.7" cy="1062.3" r="2.2" fill="#ffffff" opacity="0.3920029201412417"/>
<circle cx="564.8" cy="1016.5" r="4.6" fill="#ffffff" opacity="0.8147272468028179"/>
<circle cx="462.6" cy="965.0" r="2.4" fill="#ffffff" opacity="0.4424058834980954"/>
<circle cx="96.4" cy="566.0" r="4.1" fill="#ffffff" opacity="0.739571382704951"/>
<circle cx="582.3" cy="543.2" r="1.7" fill="#ffffff" opacity="0.7979427736330084"/>
<circle cx="238.9" cy="670.2" r="2.9" fill="#ffffff" opacity="0.37063513701916756"/>
<circle cx="696.5" cy="546.0" r="4.1" fill="#ffffff" opacity="0.2795788637537663"/>
<circle cx="471.5" cy="701.9" r="4.6" fill="#ffffff" opacity="0.7376831315758247"/>
<circle cx="475.4" cy="126.9" r="1.7" fill="#ffffff" opacity="0.5150706127386229"/>
<circle cx="103.4" cy="453.6" r="3.5" fill="#ffffff" opacity="0.8389302731210329"/>
<circle cx="47.3" cy="380.7" r="4.2" fill="#ffffff" opacity="0.5593194411922363"/>
<circle cx="121.8" cy="988.3" r="2.3" fill="#ffffff" opacity="0.4776585644411836"/>
<circle cx="333.0" cy="578.1" r="2.7" fill="#ffffff" opacity="0.7512960652583704"/>
<circle cx="50.4" cy="108.3" r="3.0" fill="#ffffff" opacity="0.6921343664803541"/>
<circle cx="465.1" cy="960.9" r="4.4" fill="#ffffff" opacity="0.3080698414620531"/>
<circle cx="144.3" cy="896.3" r="2.1" fill="#ffffff" opacity="0.6836802372550228"/>
<circle cx="284.2" cy="1013.1" r="2.4" fill="#ffffff" opacity="0.5567171973786438"/>
<circle cx="310.6" cy="1142.5" r="2.3" fill="#ffffff" opacity="0.4489700511604299"/>
<circle cx="611.4" cy="124.0" r="2.0" fill="#ffffff" opacity="0.5252353933592386"/>
<circle cx="198.5" cy="609.7" r="4.0" fill="#ffffff" opacity="0.3394514063991614"/>
<circle cx="177.6" cy="408.4" r="4.2" fill="#ffffff" opacity="0.2511903698081972"/>
<circle cx="416.6" cy="256.8" r="3.7" fill="#ffffff" opacity="0.4526723327824712"/>
<circle cx="620.3" cy="826.6" r="2.8" fill="#ffffff" opacity="0.8380460198968246"/>
<circle cx="80.1" cy="934.3" r="4.3" fill="#ffffff" opacity="0.3807320698277825"/>
<circle cx="419.5" cy="867.8" r="4.7" fill="#ffffff" opacity="0.787019353753867"/>
<circle cx="674.3" cy="608.6" r="2.9" fill="#ffffff" opacity="0.6979393209179772"/>
<circle cx="372.3" cy="471.7" r="3.6" fill="#ffffff" opacity="0.5488101156459435"/>
<circle cx="686.4" cy="357.4" r="3.6" fill="#ffffff" opacity="0.5421809453686328"/>
<circle cx="473.0" cy="1030.4" r="3.5" fill="#ffffff" opacity="0.7353068017974097"/>
<circle cx="706.1" cy="882.9" r="4.4" fill="#ffffff" opacity="0.33469050406838"/>
<circle cx="374.7" cy="520.8" r="3.5" fill="#ffffff" opacity="0.45351627391834826"/>
<circle cx="512.4" cy="1116.8" r="3.3" fill="#ffffff" opacity="0.6838300613394208"/>
<circle cx="467.7" cy="1006.2" r="1.8" fill="#ffffff" opacity="0.4278884966975305"/>
<circle cx="110.3" cy="891.8" r="1.8" fill="#ffffff" opacity="0.6056086981616642"/>
<circle cx="173.3" cy="759.3" r="1.6" fill="#ffffff" opacity="0.4542829243579207"/>
<circle cx="63.2" cy="605.4" r="2.1" fill="#ffffff" opacity="0.26608738991505126"/>
<circle cx="264.5" cy="408.6" r="4.6" fill="#ffffff" opacity="0.8194190593839201"/>
<circle cx="131.6" cy="339.0" r="1.8" fill="#ffffff" opacity="0.30345385962968585"/>
<circle cx="684.0" cy="280.6" r="4.1" fill="#ffffff" opacity="0.30642063521586105"/>
<circle cx="482.8" cy="1036.4" r="4.6" fill="#ffffff" opacity="0.4936663077574196"/>
<circle cx="60.1" cy="1064.2" r="2.0" fill="#ffffff" opacity="0.470165822298412"/>
<circle cx="662.0" cy="923.9" r="2.0" fill="#ffffff" opacity="0.3434852222537899"/>
<circle cx="587.7" cy="1159.0" r="4.4" fill="#ffffff" opacity="0.3284061971542282"/>
<circle cx="184.4" cy="517.0" r="3.6" fill="#ffffff" opacity="0.7245008823667303"/>
<circle cx="412.2" cy="581.4" r="2.4" fill="#ffffff" opacity="0.8225466990741752"/>
<g filter="url(#paper)"><rect x="42" y="42" width="666" height="1166" rx="54" ry="54" fill="none" stroke="#1E1B2E" stroke-width="8" opacity="0.95"/>
<rect x="60" y="60" width="630" height="1130" rx="46" ry="46" fill="none" stroke="#9B8CFF" stroke-width="3" opacity="0.35"/>

  <g opacity="0.42">
    <circle cx="375.0" cy="560" r="285" fill="none" stroke="#9B8CFF" stroke-width="4.2" opacity="0.42"/>
    <circle cx="375.0" cy="560" r="233.7" fill="none" stroke="#9B8CFF" stroke-width="2.2" opacity="0.23"/>
    <line x1="642.0" y1="560.0" x2="674.0" y2="560.0" stroke="#9B8CFF" stroke-width="3.2" opacity="0.23" stroke-linecap="round"/><line x1="606.2" y1="693.5" x2="633.9" y2="709.5" stroke="#9B8CFF" stroke-width="3.2" opacity="0.23" stroke-linecap="round"/><line x1="508.5" y1="791.2" x2="524.5" y2="818.9" stroke="#9B8CFF" stroke-width="3.2" opacity="0.23" stroke-linecap="round"/><line x1="375.0" y1="827.0" x2="375.0" y2="859.0" stroke="#9B8CFF" stroke-width="3.2" opacity="0.23" stroke-linecap="round"/><line x1="241.5" y1="791.2" x2="225.5" y2="818.9" stroke="#9B8CFF" stroke-width="3.2" opacity="0.23" stroke-linecap="round"/><line x1="143.8" y1="693.5" x2="116.1" y2="709.5" stroke="#9B8CFF" stroke-width="3.2" opacity="0.23" stroke-linecap="round"/><line x1="108.0" y1="560.0" x2="76.0" y2="560.0" stroke="#9B8CFF" stroke-width="3.2" opacity="0.23" stroke-linecap="round"/><line x1="143.8" y1="426.5" x2="116.1" y2="410.5" stroke="#9B8CFF" stroke-width="3.2" opacity="0.23" stroke-linecap="round"/><line x1="241.5" y1="328.8" x2="225.5" y2="301.1" stroke="#9B8CFF" stroke-width="3.2" opacity="0.23" stroke-linecap="round"/><line x1="375.0" y1="293.0" x2="375.0" y2="261.0" stroke="#9B8CFF" stroke-width="3.2" opacity="0.23" stroke-linecap="round"/><line x1="508.5" y1="328.8" x2="524.5" y2="301.1" stroke="#9B8CFF" stroke-width="3.2" opacity="0.23" stroke-linecap="round"/><line x1="606.2" y1="426.5" x2="633.9" y2="410.5" stroke="#9B8CFF" stroke-width="3.2" opacity="0.23" stroke-linecap="round"/>
    <circle cx="660.0" cy="559.6" r="3.4" fill="#9B8CFF" opacity="0.29"/><circle cx="652.4" cy="625.6" r="3.5" fill="#9B8CFF" opacity="0.30"/><circle cx="619.4" cy="706.5" r="3.3" fill="#9B8CFF" opacity="0.20"/><circle cx="583.2" cy="754.6" r="2.7" fill="#9B8CFF" opacity="0.29"/><circle cx="524.0" cy="802.9" r="3.8" fill="#9B8CFF" opacity="0.29"/><circle cx="454.7" cy="833.6" r="3.6" fill="#9B8CFF" opacity="0.24"/><circle cx="369.3" cy="844.9" r="2.7" fill="#9B8CFF" opacity="0.34"/><circle cx="296.8" cy="834.1" r="2.7" fill="#9B8CFF" opacity="0.25"/><circle cx="237.0" cy="809.4" r="2.8" fill="#9B8CFF" opacity="0.32"/><circle cx="176.8" cy="764.8" r="3.3" fill="#9B8CFF" opacity="0.25"/><circle cx="131.9" cy="708.8" r="2.7" fill="#9B8CFF" opacity="0.44"/><circle cx="98.7" cy="629.8" r="3.3" fill="#9B8CFF" opacity="0.31"/><circle cx="90.0" cy="561.9" r="4.0" fill="#9B8CFF" opacity="0.40"/><circle cx="99.1" cy="488.5" r="2.8" fill="#9B8CFF" opacity="0.23"/><circle cx="124.9" cy="423.3" r="3.2" fill="#9B8CFF" opacity="0.42"/><circle cx="177.3" cy="354.7" r="4.0" fill="#9B8CFF" opacity="0.27"/><circle cx="238.9" cy="309.6" r="3.1" fill="#9B8CFF" opacity="0.38"/><circle cx="294.5" cy="286.6" r="3.1" fill="#9B8CFF" opacity="0.29"/><circle cx="383.5" cy="275.1" r="3.5" fill="#9B8CFF" opacity="0.31"/><circle cx="449.2" cy="284.8" r="3.7" fill="#9B8CFF" opacity="0.33"/><circle cx="517.7" cy="313.3" r="3.7" fill="#9B8CFF" opacity="0.34"/><circle cx="579.4" cy="361.4" r="3.6" fill="#9B8CFF" opacity="0.32"/><circle cx="624.7" cy="422.6" r="3.6" fill="#9B8CFF" opacity="0.40"/><circle cx="650.9" cy="488.7" r="3.7" fill="#9B8CFF" opacity="0.32"/>
  </g>

<g><g transform="translate(50,54)"><path d="M 32.4 126.0 C 63.0 54.0, 111.6 32.4, 158.4 39.6" fill="none" stroke="#9B8CFF" stroke-width="6" opacity="0.55" stroke-linecap="round"/></g><g transform="translate(700,54) scale(-1,1)"><path d="M 32.4 126.0 C 63.0 54.0, 111.6 32.4, 158.4 39.6" fill="none" stroke="#9B8CFF" stroke-width="6" opacity="0.55" stroke-linecap="round"/></g><g transform="translate(50,1196) scale(1,-1)"><path d="M 32.4 126.0 C 63.0 54.0, 111.6 32.4, 158.4 39.6" fill="none" stroke="#9B8CFF" stroke-width="6" opacity="0.55" stroke-linecap="round"/></g><g transform="translate(700,1196) scale(-1,-1)"><path d="M 32.4 126.0 C 63.0 54.0, 111.6 32.4, 158.4 39.6" fill="none" stroke="#9B8CFF" stroke-width="6" opacity="0.55" stroke-linecap="round"/></g></g></g>
<rect x="42" y="60" width="666" height="92" rx="30" fill="#ffffffcc" stroke="#1E1B2E" stroke-width="4" opacity="0.95"/>
<text x="375.0" y="122" font-family="ui-sans-serif, system-ui, -apple-system, Segoe UI, Roboto, Helvetica, Arial" font-size="30" font-weight="800" text-anchor="middle" fill="#1E1B2E" opacity="0.95" letter-spacing="1">MINOR ARCANA • SWORDS</text>
<rect x="76" y="170" width="598" height="760" rx="52" fill="#ffffff" opacity="0.15"/>
<g><line x1="92" y1="230.0" x2="658" y2="230.0" stroke="#9B8CFF" stroke-width="2.2" opacity="0.08"/><line x1="212" y1="218.0" x2="312" y2="242.0" stroke="#9B8CFF" stroke-width="2.2" opacity="0.06"/><line x1="92" y1="302.0" x2="658" y2="302.0" stroke="#9B8CFF" stroke-width="2.2" opacity="0.08"/><line x1="212" y1="290.0" x2="312" y2="314.0" stroke="#9B8CFF" stroke-width="2.2" opacity="0.06"/><line x1="92" y1="374.0" x2="658" y2="374.0" stroke="#9B8CFF" stroke-width="2.2" opacity="0.08"/><line x1="212" y1="362.0" x2="312" y2="386.0" stroke="#9B8CFF" stroke-width="2.2" opacity="0.06"/><line x1="92" y1="446.0" x2="658" y2="446.0" stroke="#9B8CFF" stroke-width="2.2" opacity="0.08"/><line x1="212" y1="434.0" x2="312" y2="458.0" stroke="#9B8CFF" stroke-width="2.2" opacity="0.06"/><line x1="92" y1="518.0" x2="658" y2="518.0" stroke="#9B8CFF" stroke-width="2.2" opacity="0.08"/><line x1="212" y1="506.0" x2="312" y2="530.0" stroke="#9B8CFF" stroke-width="2.2" opacity="0.06"/><line x1="92" y1="590.0" x2="658" y2="590.0" stroke="#9B8CFF" stroke-width="2.2" opacity="0.08"/><line x1="212" y1="578.0" x2="312" y2="602.0" stroke="#9B8CFF" stroke-width="2.2" opacity="0.06"/><line x1="92" y1="662.0" x2="658" y2="662.0" stroke="#9B8CFF" stroke-width="2.2" opacity="0.08"/><line x1="212" y1="650.0" x2="312" y2="674.0" stroke="#9B8CFF" stroke-width="2.2" opacity="0.06"/><line x1="92" y1="734.0" x2="658" y2="734.0" stroke="#9B8CFF" stroke-width="2.2" opacity="0.08"/><line x1="212" y1="722.0" x2="312" y2="746.0" stroke="#9B8CFF" stroke-width="2.2" opacity="0.06"/><line x1="92" y1="806.0" x2="658" y2="806.0" stroke="#9B8CFF" stroke-width="2.2" opacity="0.08"/><line x1="212" y1="794.0" x2="312" y2="818.0" stroke="#9B8CFF" stroke-width="2.2" opacity="0.06"/><line x1="92" y1="878.0" x2="658" y2="878.0" stroke="#9B8CFF" stroke-width="2.2" opacity="0.08"/><line x1="212" y1="866.0" x2="312" y2="890.0" stroke="#9B8CFF" stroke-width="2.2" opacity="0.06"/></g><g><g opacity="0.55">
        <g>
          
        <path d="M 333.3 364.1
                 Q 305.3 358.5 294.1 380.9
                 Q 310.9 378.1 324.9 392.1
                 Q 313.7 389.3 302.5 404.7
                 Q 322.1 399.1 333.3 364.1 Z"
              fill="#9B8CFF" opacity="0.35" stroke="#1E1B2E" stroke-width="6"/>
        
          <line x1="310.6" y1="385.0" x2="406.5" y2="416.1" stroke="#1E1B2E" stroke-width="3.6" stroke-linecap="round"/>
          <line x1="310.6" y1="385.0" x2="406.5" y2="416.1" stroke="#ffffff" stroke-width="1.4" stroke-linecap="round" opacity="0.65"/>
          <line x1="321.4" y1="451.5" x2="358.4" y2="337.4" stroke="#1E1B2E" stroke-width="3.4" stroke-linecap="round"/>
          
        <polygon points="406.5,416.1 385.4,390.3 354.2,399.1 374.3,424.6"
                 fill="#ffffff" stroke="#1E1B2E" stroke-width="5" opacity="0.95"/>
        
          <circle cx="310.6" cy="385.0" r="4.5" fill="#9B8CFF" opacity="0.35" stroke="#1E1B2E" stroke-width="5"/>
        </g>
        </g><g opacity="0.55">
        <g>
          
        <path d="M 511.5 422.9
                 Q 483.5 417.3 472.3 439.7
                 Q 489.1 436.9 503.1 450.9
                 Q 491.9 448.1 480.7 463.5
                 Q 500.3 457.9 511.5 422.9 Z"
              fill="#9B8CFF" opacity="0.35" stroke="#1E1B2E" stroke-width="6"/>
        
          <line x1="488.7" y1="443.7" x2="584.6" y2="474.9" stroke="#1E1B2E" stroke-width="3.6" stroke-linecap="round"/>
          <line x1="488.7" y1="443.7" x2="584.6" y2="474.9" stroke="#ffffff" stroke-width="1.4" stroke-linecap="round" opacity="0.65"/>
          <line x1="499.5" y1="510.3" x2="536.6" y2="396.2" stroke="#1E1B2E" stroke-width="3.4" stroke-linecap="round"/>
          
        <polygon points="584.6,474.9 563.5,449.1 532.3,457.9 552.4,483.4"
                 fill="#ffffff" stroke="#1E1B2E" stroke-width="5" opacity="0.95"/>
        
          <circle cx="488.7" cy="443.7" r="4.5" fill="#9B8CFF" opacity="0.35" stroke="#1E1B2E" stroke-width="5"/>
        </g>
        </g><g opacity="0.55">
        <g>
          
        <path d="M 591.7 550.4
                 Q 563.7 544.8 552.5 567.2
                 Q 569.3 564.4 583.3 578.4
                 Q 572.1 575.6 560.9 591.0
                 Q 580.5 585.4 591.7 550.4 Z"
              fill="#9B8CFF" opacity="0.35" stroke="#1E1B2E" stroke-width="6"/>
        
          <line x1="568.9" y1="571.2" x2="664.8" y2="602.3" stroke="#1E1B2E" stroke-width="3.6" stroke-linecap="round"/>
          <line x1="568.9" y1="571.2" x2="664.8" y2="602.3" stroke="#ffffff" stroke-width="1.4" stroke-linecap="round" opacity="0.65"/>
          <line x1="579.7" y1="637.8" x2="616.8" y2="523.6" stroke="#1E1B2E" stroke-width="3.4" stroke-linecap="round"/>
          
        <polygon points="664.8,602.3 643.7,576.6 612.5,585.3 632.6,610.8"
                 fill="#ffffff" stroke="#1E1B2E" stroke-width="5" opacity="0.95"/>
        
          <circle cx="568.9" cy="571.2" r="4.5" fill="#9B8CFF" opacity="0.35" stroke="#1E1B2E" stroke-width="5"/>
        </g>
        </g><g opacity="0.55">
        <g>
          
        <path d="M 582.6 704.7
                 Q 554.6 699.1 543.4 721.5
                 Q 560.2 718.7 574.2 732.7
                 Q 563.0 729.9 551.8 745.3
                 Q 571.4 739.7 582.6 704.7 Z"
              fill="#9B8CFF" opacity="0.35" stroke="#1E1B2E" stroke-width="6"/>
        
          <line x1="559.9" y1="725.6" x2="655.7" y2="756.7" stroke="#1E1B2E" stroke-width="3.6" stroke-linecap="round"/>
          <line x1="559.9" y1="725.6" x2="655.7" y2="756.7" stroke="#ffffff" stroke-width="1.4" stroke-linecap="round" opacity="0.65"/>
          <line x1="570.6" y1="792.1" x2="607.7" y2="678.0" stroke="#1E1B2E" stroke-width="3.4" stroke-linecap="round"/>
          
        <polygon points="655.7,756.7 634.7,730.9 603.4,739.7 623.5,765.2"
                 fill="#ffffff" stroke="#1E1B2E" stroke-width="5" opacity="0.95"/>
        
          <circle cx="559.9" cy="725.6" r="4.5" fill="#9B8CFF" opacity="0.35" stroke="#1E1B2E" stroke-width="5"/>
        </g>
        </g><g opacity="0.55">
        <g>
          
        <path d="M 499.9 813.5
                 Q 471.9 807.9 460.7 830.3
                 Q 477.5 827.5 491.5 841.5
                 Q 480.3 838.7 469.1 854.1
                 Q 488.7 848.5 499.9 813.5 Z"
              fill="#9B8CFF" opacity="0.35" stroke="#1E1B2E" stroke-width="6"/>
        
          <line x1="477.2" y1="834.3" x2="573.1" y2="865.5" stroke="#1E1B2E" stroke-width="3.6" stroke-linecap="round"/>
          <line x1="477.2" y1="834.3" x2="573.1" y2="865.5" stroke="#ffffff" stroke-width="1.4" stroke-linecap="round" opacity="0.65"/>
          <line x1="488.0" y1="900.9" x2="525.0" y2="786.8" stroke="#1E1B2E" stroke-width="3.4" stroke-linecap="round"/>
          
        <polygon points="573.1,865.5 552.0,839.7 520.8,848.5 540.9,873.9"
                 fill="#ffffff" stroke="#1E1B2E" stroke-width="5" opacity="0.95"/>
        
          <circle cx="477.2" cy="834.3" r="4.5" fill="#9B8CFF" opacity="0.35" stroke="#1E1B2E" stroke-width="5"/>
        </g>
        </g><g opacity="0.55">
        <g>
          
        <path d="M 342.8 863.5
                 Q 314.8 857.9 303.6 880.3
                 Q 320.4 877.5 334.4 891.5
                 Q 323.2 888.7 312.0 904.1
                 Q 331.6 898.5 342.8 863.5 Z"
              fill="#9B8CFF" opacity="0.35" stroke="#1E1B2E" stroke-width="6"/>
        
          <line x1="320.1" y1="884.3" x2="415.9" y2="915.5" stroke="#1E1B2E" stroke-width="3.6" stroke-linecap="round"/>
          <line x1="320.1" y1="884.3" x2="415.9" y2="915.5" stroke="#ffffff" stroke-width="1.4" stroke-linecap="round" opacity="0.65"/>
          <line x1="330.8" y1="950.9" x2="367.9" y2="836.8" stroke="#1E1B2E" stroke-width="3.4" stroke-linecap="round"/>
          
        <polygon points="415.9,915.5 394.9,889.7 363.6,898.5 383.7,923.9"
                 fill="#ffffff" stroke="#1E1B2E" stroke-width="5" opacity="0.95"/>
        
          <circle cx="320.1" cy="884.3" r="4.5" fill="#9B8CFF" opacity="0.35" stroke="#1E1B2E" stroke-width="5"/>
        </g>
        </g><g opacity="0.55">
        <g>
          
        <path d="M 196.7 811.3
                 Q 168.7 805.7 157.5 828.1
                 Q 174.3 825.3 188.3 839.3
                 Q 177.1 836.5 165.9 851.9
                 Q 185.5 846.3 196.7 811.3 Z"
              fill="#9B8CFF" opacity="0.35" stroke="#1E1B2E" stroke-width="6"/>
        
          <line x1="174.0" y1="832.1" x2="269.9" y2="863.2" stroke="#1E1B2E" stroke-width="3.6" stroke-linecap="round"/>
          <line x1="174.0" y1="832.1" x2="269.9" y2="863.2" stroke="#ffffff" stroke-width="1.4" stroke-linecap="round" opacity="0.65"/>
          <line x1="184.8" y1="898.7" x2="221.8" y2="784.5" stroke="#1E1B2E" stroke-width="3.4" stroke-linecap="round"/>
          
        <polygon points="269.9,863.2 248.8,837.5 217.6,846.2 237.7,871.7"
                 fill="#ffffff" stroke="#1E1B2E" stroke-width="5" opacity="0.95"/>
        
          <circle cx="174.0" cy="832.1" r="4.5" fill="#9B8CFF" opacity="0.35" stroke="#1E1B2E" stroke-width="5"/>
        </g>
        </g><g opacity="0.55">
        <g>
          
        <path d="M 114.2 697.2
                 Q 86.2 691.6 75.0 714.0
                 Q 91.8 711.2 105.8 725.2
                 Q 94.6 722.4 83.4 737.8
                 Q 103.0 732.2 114.2 697.2 Z"
              fill="#9B8CFF" opacity="0.35" stroke="#1E1B2E" stroke-width="6"/>
        
          <line x1="91.5" y1="718.0" x2="187.3" y2="749.2" stroke="#1E1B2E" stroke-width="3.6" stroke-linecap="round"/>
          <line x1="91.5" y1="718.0" x2="187.3" y2="749.2" stroke="#ffffff" stroke-width="1.4" stroke-linecap="round" opacity="0.65"/>
          <line x1="102.2" y1="784.6" x2="139.3" y2="670.5" stroke="#1E1B2E" stroke-width="3.4" stroke-linecap="round"/>
          
        <polygon points="187.3,749.2 166.3,723.4 135.0,732.2 155.1,757.6"
                 fill="#ffffff" stroke="#1E1B2E" stroke-width="5" opacity="0.95"/>
        
          <circle cx="91.5" cy="718.0" r="4.5" fill="#9B8CFF" opacity="0.35" stroke="#1E1B2E" stroke-width="5"/>
        </g>
        </g><g opacity="0.55">
        <g>
          
        <path d="M 113.5 531.9
                 Q 85.5 526.3 74.3 548.7
                 Q 91.1 545.9 105.1 559.9
                 Q 93.9 557.1 82.7 572.5
                 Q 102.3 566.9 113.5 531.9 Z"
              fill="#9B8CFF" opacity="0.35" stroke="#1E1B2E" stroke-width="6"/>
        
          <line x1="90.8" y1="552.7" x2="186.7" y2="583.9" stroke="#1E1B2E" stroke-width="3.6" stroke-linecap="round"/>
          <line x1="90.8" y1="552.7" x2="186.7" y2="583.9" stroke="#ffffff" stroke-width="1.4" stroke-linecap="round" opacity="0.65"/>
          <line x1="101.5" y1="619.3" x2="138.6" y2="505.2" stroke="#1E1B2E" stroke-width="3.4" stroke-linecap="round"/>
          
        <polygon points="186.7,583.9 165.6,558.1 134.3,566.9 154.5,592.4"
                 fill="#ffffff" stroke="#1E1B2E" stroke-width="5" opacity="0.95"/>
        
          <circle cx="90.8" cy="552.7" r="4.5" fill="#9B8CFF" opacity="0.35" stroke="#1E1B2E" stroke-width="5"/>
        </g>
        </g><g opacity="0.55">
        <g>
          
        <path d="M 203.2 411.1
                 Q 175.2 405.5 164.0 427.9
                 Q 180.8 425.1 194.8 439.1
                 Q 183.6 436.3 172.4 451.7
                 Q 192.0 446.1 203.2 411.1 Z"
              fill="#9B8CFF" opacity="0.35" stroke="#1E1B2E" stroke-width="6"/>
        
          <line x1="180.4" y1="432.0" x2="276.3" y2="463.1" stroke="#1E1B2E" stroke-width="3.6" stroke-linecap="round"/>
          <line x1="180.4" y1="432.0" x2="276.3" y2="463.1" stroke="#ffffff" stroke-width="1.4" stroke-linecap="round" opacity="0.65"/>
          <line x1="191.2" y1="498.5" x2="228.3" y2="384.4" stroke="#1E1B2E" stroke-width="3.4" stroke-linecap="round"/>
          
        <polygon points="276.3,463.1 255.2,437.3 224.0,446.1 244.1,471.6"
                 fill="#ffffff" stroke="#1E1B2E" stroke-width="5" opacity="0.95"/>
        
          <circle cx="180.4" cy="432.0" r="4.5" fill="#9B8CFF" opacity="0.35" stroke="#1E1B2E" stroke-width="5"/>
        </g>
        </g></g><g opacity="0.55">
  <g opacity="0.18">
    <circle cx="375.0" cy="560" r="290" fill="none" stroke="#9B8CFF" stroke-width="4.2" opacity="0.18"/>
    <circle cx="375.0" cy="560" r="237.8" fill="none" stroke="#9B8CFF" stroke-width="2.2" opacity="0.10"/>
    <line x1="647.0" y1="560.0" x2="679.0" y2="560.0" stroke="#9B8CFF" stroke-width="3.2" opacity="0.10" stroke-linecap="round"/><line x1="610.6" y1="696.0" x2="638.3" y2="712.0" stroke="#9B8CFF" stroke-width="3.2" opacity="0.10" stroke-linecap="round"/><line x1="511.0" y1="795.6" x2="527.0" y2="823.3" stroke="#9B8CFF" stroke-width="3.2" opacity="0.10" stroke-linecap="round"/><line x1="375.0" y1="832.0" x2="375.0" y2="864.0" stroke="#9B8CFF" stroke-width="3.2" opacity="0.10" stroke-linecap="round"/><line x1="239.0" y1="795.6" x2="223.0" y2="823.3" stroke="#9B8CFF" stroke-width="3.2" opacity="0.10" stroke-linecap="round"/><line x1="139.4" y1="696.0" x2="111.7" y2="712.0" stroke="#9B8CFF" stroke-width="3.2" opacity="0.10" stroke-linecap="round"/><line x1="103.0" y1="560.0" x2="71.0" y2="560.0" stroke="#9B8CFF" stroke-width="3.2" opacity="0.10" stroke-linecap="round"/><line x1="139.4" y1="424.0" x2="111.7" y2="408.0" stroke="#9B8CFF" stroke-width="3.2" opacity="0.10" stroke-linecap="round"/><line x1="239.0" y1="324.4" x2="223.0" y2="296.7" stroke="#9B8CFF" stroke-width="3.2" opacity="0.10" stroke-linecap="round"/><line x1="375.0" y1="288.0" x2="375.0" y2="256.0" stroke="#9B8CFF" stroke-width="3.2" opacity="0.10" stroke-linecap="round"/><line x1="511.0" y1="324.4" x2="527.0" y2="296.7" stroke="#9B8CFF" stroke-width="3.2" opacity="0.10" stroke-linecap="round"/><line x1="610.6" y1="424.0" x2="638.3" y2="408.0" stroke="#9B8CFF" stroke-width="3.2" opacity="0.10" stroke-linecap="round"/>
    <circle cx="664.9" cy="550.9" r="3.6" fill="#9B8CFF" opacity="0.42"/><circle cx="654.9" cy="635.8" r="3.2" fill="#9B8CFF" opacity="0.34"/><circle cx="623.0" cy="710.4" r="4.0" fill="#9B8CFF" opacity="0.20"/><circle cx="580.0" cy="765.1" r="2.8" fill="#9B8CFF" opacity="0.26"/><circle cx="516.2" cy="813.3" r="3.9" fill="#9B8CFF" opacity="0.22"/><circle cx="456.2" cy="838.4" r="2.7" fill="#9B8CFF" opacity="0.20"/><circle cx="382.1" cy="849.9" r="3.0" fill="#9B8CFF" opacity="0.33"/><circle cx="307.1" cy="841.9" r="3.5" fill="#9B8CFF" opacity="0.20"/><circle cx="237.0" cy="815.1" r="2.9" fill="#9B8CFF" opacity="0.34"/><circle cx="170.7" cy="765.8" r="3.2" fill="#9B8CFF" opacity="0.34"/><circle cx="125.2" cy="707.3" r="3.5" fill="#9B8CFF" opacity="0.32"/><circle cx="97.1" cy="642.9" r="3.5" fill="#9B8CFF" opacity="0.32"/><circle cx="85.1" cy="552.1" r="3.4" fill="#9B8CFF" opacity="0.19"/><circle cx="97.3" cy="476.4" r="3.5" fill="#9B8CFF" opacity="0.32"/><circle cx="123.8" cy="415.1" r="3.7" fill="#9B8CFF" opacity="0.43"/><circle cx="167.4" cy="357.5" r="3.4" fill="#9B8CFF" opacity="0.45"/><circle cx="236.1" cy="305.4" r="2.7" fill="#9B8CFF" opacity="0.31"/><circle cx="293.8" cy="281.6" r="2.7" fill="#9B8CFF" opacity="0.25"/><circle cx="383.0" cy="270.1" r="3.1" fill="#9B8CFF" opacity="0.32"/><circle cx="451.2" cy="280.2" r="3.7" fill="#9B8CFF" opacity="0.41"/><circle cx="516.3" cy="306.7" r="3.7" fill="#9B8CFF" opacity="0.32"/><circle cx="583.2" cy="358.1" r="3.2" fill="#9B8CFF" opacity="0.40"/><circle cx="629.3" cy="420.6" r="3.5" fill="#9B8CFF" opacity="0.28"/><circle cx="655.9" cy="488.1" r="3.6" fill="#9B8CFF" opacity="0.22"/>
  </g>
</g>
        <g filter="url(#glow)">
          <circle cx="375.0" cy="630" r="170" fill="#ffffff" opacity="0.40" stroke="#9B8CFF" stroke-width="7"/>
          
        <g>
          
        <path d="M 310.2 536.4
                 Q 238.2 522.0 209.4 579.6
                 Q 252.6 572.4 288.6 608.4
                 Q 259.8 601.2 231.0 640.8
                 Q 281.4 626.4 310.2 536.4 Z"
              fill="#9B8CFF" opacity="0.35" stroke="#1E1B2E" stroke-width="6"/>
        
          <line x1="251.7" y1="590.0" x2="498.3" y2="670.0" stroke="#1E1B2E" stroke-width="9.4" stroke-linecap="round"/>
          <line x1="251.7" y1="590.0" x2="498.3" y2="670.0" stroke="#ffffff" stroke-width="3.6" stroke-linecap="round" opacity="0.65"/>
          <line x1="308.5" y1="671.5" x2="345.6" y2="557.4" stroke="#1E1B2E" stroke-width="8.6" stroke-linecap="round"/>
          
        <polygon points="498.3,670.0 477.2,644.3 445.9,653.1 466.1,678.5"
                 fill="#ffffff" stroke="#1E1B2E" stroke-width="5" opacity="0.95"/>
        
          <circle cx="251.7" cy="590.0" r="11.5" fill="#9B8CFF" opacity="0.35" stroke="#1E1B2E" stroke-width="5"/>
        </g>
        
        </g>
        <line x1="500.0" y1="462.4" x2="238.3" y2="581.7" stroke="#ffffff" stroke-width="2.2" opacity="0.17"/>
<line x1="238.3" y1="581.7" x2="133.5" y2="513.8" stroke="#ffffff" stroke-width="2.2" opacity="0.14"/>
<line x1="133.5" y1="513.8" x2="291.8" y2="351.8" stroke="#ffffff" stroke-width="2.2" opacity="0.08"/>
<line x1="291.8" y1="351.8" x2="281.4" y2="435.6" stroke="#ffffff" stroke-width="2.2" opacity="0.13"/>
<line x1="281.4" y1="435.6" x2="349.2" y2="409.1" stroke="#ffffff" stroke-width="2.2" opacity="0.14"/>
<line x1="349.2" y1="409.1" x2="330.6" y2="629.9" stroke="#ffffff" stroke-width="2.2" opacity="0.18"/>
<circle cx="500.0" cy="462.4" r="1.9" fill="#ffffff" opacity="0.6527469412722948"/>
<circle cx="238.3" cy="581.7" r="4.3" fill="#ffffff" opacity="0.6546300354587685"/>
<circle cx="349.2" cy="409.1" r="2.8" fill="#ffffff" opacity="0.36553000661746277"/>
<circle cx="571.9" cy="309.1" r="4.3" fill="#ffffff" opacity="0.27135885346337413"/>
<circle cx="291.8" cy="351.8" r="3.0" fill="#ffffff" opacity="0.7384437820552872"/>
<circle cx="428.2" cy="323.8" r="3.1" fill="#ffffff" opacity="0.33272426572567243"/>
<circle cx="508.6" cy="402.1" r="2.0" fill="#ffffff" opacity="0.34525525443788724"/>
<circle cx="133.5" cy="513.8" r="2.6" fill="#ffffff" opacity="0.3085046793467593"/>
<circle cx="281.4" cy="435.6" r="3.0" fill="#ffffff" opacity="0.39809452095956344"/>
<circle cx="330.6" cy="629.9" r="4.5" fill="#ffffff" opacity="0.6232651961150342"/>
<circle cx="236.0" cy="316.1" r="2.1" fill="#ffffff" opacity="0.840108278048656"/>
<circle cx="359.6" cy="587.6" r="3.6" fill="#ffffff" opacity="0.7558339793795219"/>
<circle cx="470.5" cy="504.9" r="2.0" fill="#ffffff" opacity="0.557027520427775"/>
<circle cx="204.7" cy="556.1" r="3.0" fill="#ffffff" opacity="0.538182496988949"/>
<rect x="42" y="1030" width="666" height="160" rx="30" fill="#ffffffd9" stroke="#1E1B2E" stroke-width="4" opacity="0.95"/>
<text x="375.0" y="1104" font-family="ui-sans-serif, system-ui, -apple-system, Segoe UI, Roboto, Helvetica, Arial" font-size="46" font-weight="900" text-anchor="middle" fill="#1E1B2E" opacity="0.98">10 of Swords</text>
<text x="375.0" y="1152" font-family="ui-sans-serif, system-ui, -apple-system, Segoe UI, Roboto, Helvetica, Arial" font-size="28" font-weight="700" text-anchor="middle" fill="#1E1B2E" opacity="0.7">Fulfillment</text>

    <g opacity="0.55">
      <circle cx="127" cy="1176" r="14" fill="#9B8CFF"/>
      <circle cx="623" cy="1176" r="14" fill="#9B8CFF"/>
      <path d="M 162 1176 L 588 1176" stroke="#9B8CFF" stroke-width="4" opacity="0.45" stroke-linecap="round"/>
    </g>
    
</svg>
