<svg xmlns="http://www.w3.org/2000/svg" width="750" height="1250" viewBox="0 0 750 1250">
  <title>Knight of Swords</title>


  <defs>
    <linearGradient id="g" x1="0" y1="0" x2="1" y2="1">
      <stop offset="0%" stop-color="#E6E9FF"/>
      <stop offset="100%" stop-color="#F9E7FF"/>
    </linearGradient>

    <!-- paper texture -->
    <filter id="paper" x="-20%" y="-20%" width="140%" height="140%">
      <feTurbulence type="fractalNoise" baseFrequency="0.015" numOctaves="3" seed="9857" result="noise"/>
      <feColorMatrix in="noise" type="matrix"
        values="1 0 0 0 0
                0 1 0 0 0
                0 0 1 0 0
                0 0 0 0.25 0" result="noiseAlpha"/>
      <feComposite in="noiseAlpha" in2="SourceGraphic" operator="over"/>
    </filter>

    <!-- soft glow -->
    <filter id="glow" x="-30%" y="-30%" width="160%" height="160%">
      <feGaussianBlur stdDeviation="10" result="blur"/>
      <feColorMatrix type="matrix" values="
        1 0 0 0 0
        0 1 0 0 0
        0 0 1 0 0
        0 0 0 0.32 0" result="blurAlpha"/>
      <feMerge>
        <feMergeNode in="blurAlpha"/>
        <feMergeNode in="SourceGraphic"/>
      </feMerge>
    </filter>
  </defs>

<rect x="0" y="0" width="750" height="1250" rx="58" ry="58" fill="url(#g)" stroke="none" stroke-width="0" opacity="1"/>
<rect x="0" y="0" width="750" height="1250" fill="#ffffff" opacity="0.08"/>
<line x1="689.3" y1="311.0" x2="693.0" y2="1013.8" stroke="#ffffff" stroke-width="2.2" opacity="0.17"/>
<line x1="693.0" y1="1013.8" x2="501.9" y2="412.7" stroke="#ffffff" stroke-width="2.2" opacity="0.17"/>
<line x1="501.9" y1="412.7" x2="123.7" y2="151.1" stroke="#ffffff" stroke-width="2.2" opacity="0.19"/>
<line x1="123.7" y1="151.1" x2="43.9" y2="405.9" stroke="#ffffff" stroke-width="2.2" opacity="0.17"/>
<line x1="43.9" y1="405.9" x2="205.0" y2="281.0" stroke="#ffffff" stroke-width="2.2" opacity="0.18"/>
<line x1="205.0" y1="281.0" x2="699.0" y2="539.6" stroke="#ffffff" stroke-width="2.2" opacity="0.16"/>
<line x1="699.0" y1="539.6" x2="370.5" y2="107.1" stroke="#ffffff" stroke-width="2.2" opacity="0.21"/>
<line x1="370.5" y1="107.1" x2="166.7" y2="350.5" stroke="#ffffff" stroke-width="2.2" opacity="0.12"/>
<line x1="166.7" y1="350.5" x2="524.8" y2="104.8" stroke="#ffffff" stroke-width="2.2" opacity="0.16"/>
<line x1="524.8" y1="104.8" x2="199.8" y2="1032.7" stroke="#ffffff" stroke-width="2.2" opacity="0.17"/>
<line x1="199.8" y1="1032.7" x2="193.3" y2="217.0" stroke="#ffffff" stroke-width="2.2" opacity="0.12"/>
<line x1="193.3" y1="217.0" x2="551.3" y2="211.2" stroke="#ffffff" stroke-width="2.2" opacity="0.17"/>
<line x1="551.3" y1="211.2" x2="526.2" y2="839.2" stroke="#ffffff" stroke-width="2.2" opacity="0.11"/>
<line x1="526.2" y1="839.2" x2="368.3" y2="820.1" stroke="#ffffff" stroke-width="2.2" opacity="0.17"/>
<line x1="368.3" y1="820.1" x2="481.1" y2="692.9" stroke="#ffffff" stroke-width="2.2" opacity="0.16"/>
<line x1="481.1" y1="692.9" x2="140.7" y2="711.4" stroke="#ffffff" stroke-width="2.2" opacity="0.17"/>
<line x1="140.7" y1="711.4" x2="53.5" y2="649.7" stroke="#ffffff" stroke-width="2.2" opacity="0.14"/>
<line x1="53.5" y1="649.7" x2="685.4" y2="446.4" stroke="#ffffff" stroke-width="2.2" opacity="0.17"/>
<circle cx="685.4" cy="446.4" r="3.3" fill="#ffffff" opacity="0.6512669652941048"/>
<circle cx="481.1" cy="692.9" r="2.5" fill="#ffffff" opacity="0.6988939039835977"/>
<circle cx="166.7" cy="350.5" r="3.5" fill="#ffffff" opacity="0.5574208505314897"/>
<circle cx="142.3" cy="295.9" r="2.1" fill="#ffffff" opacity="0.5106863758805644"/>
<circle cx="705.7" cy="407.5" r="2.4" fill="#ffffff" opacity="0.7346307509225944"/>
<circle cx="406.6" cy="762.5" r="3.9" fill="#ffffff" opacity="0.5960054313465418"/>
<circle cx="476.0" cy="632.5" r="2.6" fill="#ffffff" opacity="0.563516392670444"/>
<circle cx="436.5" cy="840.6" r="2.6" fill="#ffffff" opacity="0.28639078900569437"/>
<circle cx="100.2" cy="1071.5" r="3.8" fill="#ffffff" opacity="0.520276631140868"/>
<circle cx="411.6" cy="956.9" r="3.1" fill="#ffffff" opacity="0.6027745293919625"/>
<circle cx="199.8" cy="1032.7" r="2.5" fill="#ffffff" opacity="0.7700500693681219"/>
<circle cx="251.0" cy="196.4" r="2.4" fill="#ffffff" opacity="0.30739157705180636"/>
<circle cx="53.5" cy="649.7" r="2.8" fill="#ffffff" opacity="0.6317119768682347"/>
<circle cx="501.9" cy="412.7" r="4.0" fill="#ffffff" opacity="0.4213715523067851"/>
<circle cx="524.8" cy="104.8" r="2.7" fill="#ffffff" opacity="0.3850245740545354"/>
<circle cx="123.7" cy="151.1" r="1.8" fill="#ffffff" opacity="0.8310615275003558"/>
<circle cx="320.8" cy="1132.1" r="4.5" fill="#ffffff" opacity="0.4244132746434816"/>
<circle cx="705.1" cy="355.0" r="4.2" fill="#ffffff" opacity="0.5187540105135008"/>
<circle cx="198.2" cy="746.0" r="2.0" fill="#ffffff" opacity="0.5709338719972941"/>
<circle cx="43.9" cy="405.9" r="3.8" fill="#ffffff" opacity="0.549099025148"/>
<circle cx="693.0" cy="1013.8" r="3.1" fill="#ffffff" opacity="0.44300754795169106"/>
<circle cx="368.3" cy="820.1" r="3.0" fill="#ffffff" opacity="0.6933470950516989"/>
<circle cx="696.1" cy="56.0" r="2.3" fill="#ffffff" opacity="0.6665104392348487"/>
<circle cx="396.4" cy="44.7" r="2.0" fill="#ffffff" opacity="0.3200473166738953"/>
<circle cx="569.5" cy="932.0" r="3.8" fill="#ffffff" opacity="0.3780380531041546"/>
<circle cx="662.1" cy="989.2" r="2.9" fill="#ffffff" opacity="0.668995072283237"/>
<circle cx="140.7" cy="711.4" r="3.2" fill="#ffffff" opacity="0.8283249697442701"/>
<circle cx="556.1" cy="1181.9" r="2.6" fill="#ffffff" opacity="0.794120166143932"/>
<circle cx="370.5" cy="107.1" r="2.8" fill="#ffffff" opacity="0.33096786165210634"/>
<circle cx="383.4" cy="120.2" r="3.3" fill="#ffffff" opacity="0.48549171411504377"/>
<circle cx="205.0" cy="281.0" r="2.0" fill="#ffffff" opacity="0.7868347636967131"/>
<circle cx="452.5" cy="973.2" r="3.2" fill="#ffffff" opacity="0.6915601987867417"/>
<circle cx="681.0" cy="181.0" r="4.4" fill="#ffffff" opacity="0.8130191935068605"/>
<circle cx="689.3" cy="311.0" r="3.3" fill="#ffffff" opacity="0.7666264849552789"/>
<circle cx="272.6" cy="313.3" r="2.5" fill="#ffffff" opacity="0.8182032137982809"/>
<circle cx="699.0" cy="539.6" r="2.6" fill="#ffffff" opacity="0.7647888570556348"/>
<circle cx="109.0" cy="991.1" r="2.6" fill="#ffffff" opacity="0.6233258279704402"/>
<circle cx="665.7" cy="906.6" r="2.8" fill="#ffffff" opacity="0.656799613871546"/>
<circle cx="331.4" cy="184.8" r="3.7" fill="#ffffff" opacity="0.7805084723072705"/>
<circle cx="551.3" cy="211.2" r="1.9" fill="#ffffff" opacity="0.8136701987449252"/>
<circle cx="356.4" cy="253.2" r="4.3" fill="#ffffff" opacity="0.35730414277522377"/>
<circle cx="413.6" cy="265.1" r="3.7" fill="#ffffff" opacity="0.5741020768765225"/>
<circle cx="584.2" cy="1126.0" r="4.7" fill="#ffffff" opacity="0.4586959359072291"/>
<circle cx="93.8" cy="462.2" r="2.4" fill="#ffffff" opacity="0.4024526370750997"/>
<circle cx="193.3" cy="217.0" r="2.2" fill="#ffffff" opacity="0.7351787098527567"/>
<circle cx="526.2" cy="839.2" r="2.6" fill="#ffffff" opacity="0.5719032516537472"/>
<circle cx="44.5" cy="72.7" r="3.0" fill="#ffffff" opacity="0.403503939689714"/>
<circle cx="380.4" cy="196.0" r="3.4" fill="#ffffff" opacity="0.2838970151167338"/>
<circle cx="673.6" cy="336.5" r="1.9" fill="#ffffff" opacity="0.41790414409089915"/>
<circle cx="243.0" cy="581.0" r="4.1" fill="#ffffff" opacity="0.8168079140430938"/>
<g filter="url(#paper)"><rect x="42" y="42" width="666" height="1166" rx="54" ry="54" fill="none" stroke="#1E1B2E" stroke-width="8" opacity="0.95"/>
<rect x="60" y="60" width="630" height="1130" rx="46" ry="46" fill="none" stroke="#9B8CFF" stroke-width="3" opacity="0.35"/>

  <g opacity="0.42">
    <circle cx="375.0" cy="560" r="285" fill="none" stroke="#9B8CFF" stroke-width="4.2" opacity="0.42"/>
    <circle cx="375.0" cy="560" r="233.7" fill="none" stroke="#9B8CFF" stroke-width="2.2" opacity="0.23"/>
    <line x1="642.0" y1="560.0" x2="674.0" y2="560.0" stroke="#9B8CFF" stroke-width="3.2" opacity="0.23" stroke-linecap="round"/><line x1="606.2" y1="693.5" x2="633.9" y2="709.5" stroke="#9B8CFF" stroke-width="3.2" opacity="0.23" stroke-linecap="round"/><line x1="508.5" y1="791.2" x2="524.5" y2="818.9" stroke="#9B8CFF" stroke-width="3.2" opacity="0.23" stroke-linecap="round"/><line x1="375.0" y1="827.0" x2="375.0" y2="859.0" stroke="#9B8CFF" stroke-width="3.2" opacity="0.23" stroke-linecap="round"/><line x1="241.5" y1="791.2" x2="225.5" y2="818.9" stroke="#9B8CFF" stroke-width="3.2" opacity="0.23" stroke-linecap="round"/><line x1="143.8" y1="693.5" x2="116.1" y2="709.5" stroke="#9B8CFF" stroke-width="3.2" opacity="0.23" stroke-linecap="round"/><line x1="108.0" y1="560.0" x2="76.0" y2="560.0" stroke="#9B8CFF" stroke-width="3.2" opacity="0.23" stroke-linecap="round"/><line x1="143.8" y1="426.5" x2="116.1" y2="410.5" stroke="#9B8CFF" stroke-width="3.2" opacity="0.23" stroke-linecap="round"/><line x1="241.5" y1="328.8" x2="225.5" y2="301.1" stroke="#9B8CFF" stroke-width="3.2" opacity="0.23" stroke-linecap="round"/><line x1="375.0" y1="293.0" x2="375.0" y2="261.0" stroke="#9B8CFF" stroke-width="3.2" opacity="0.23" stroke-linecap="round"/><line x1="508.5" y1="328.8" x2="524.5" y2="301.1" stroke="#9B8CFF" stroke-width="3.2" opacity="0.23" stroke-linecap="round"/><line x1="606.2" y1="426.5" x2="633.9" y2="410.5" stroke="#9B8CFF" stroke-width="3.2" opacity="0.23" stroke-linecap="round"/>
    <circle cx="659.9" cy="553.0" r="2.7" fill="#9B8CFF" opacity="0.28"/><circle cx="647.6" cy="643.2" r="3.5" fill="#9B8CFF" opacity="0.38"/><circle cx="619.1" cy="707.2" r="3.8" fill="#9B8CFF" opacity="0.20"/><circle cx="579.4" cy="758.6" r="2.8" fill="#9B8CFF" opacity="0.37"/><circle cx="514.2" cy="808.7" r="3.8" fill="#9B8CFF" opacity="0.40"/><circle cx="457.6" cy="832.8" r="3.3" fill="#9B8CFF" opacity="0.26"/><circle cx="371.0" cy="845.0" r="3.1" fill="#9B8CFF" opacity="0.23"/><circle cx="299.6" cy="834.9" r="3.4" fill="#9B8CFF" opacity="0.34"/><circle cx="234.8" cy="808.1" r="3.1" fill="#9B8CFF" opacity="0.20"/><circle cx="172.9" cy="761.0" r="3.3" fill="#9B8CFF" opacity="0.19"/><circle cx="124.2" cy="695.4" r="3.1" fill="#9B8CFF" opacity="0.43"/><circle cx="101.9" cy="641.4" r="3.3" fill="#9B8CFF" opacity="0.42"/><circle cx="90.0" cy="555.5" r="3.5" fill="#9B8CFF" opacity="0.19"/><circle cx="99.2" cy="488.1" r="3.6" fill="#9B8CFF" opacity="0.41"/><circle cx="131.9" cy="411.3" r="2.9" fill="#9B8CFF" opacity="0.38"/><circle cx="176.9" cy="355.1" r="3.2" fill="#9B8CFF" opacity="0.41"/><circle cx="226.8" cy="316.5" r="2.7" fill="#9B8CFF" opacity="0.34"/><circle cx="305.5" cy="283.6" r="2.9" fill="#9B8CFF" opacity="0.27"/><circle cx="373.7" cy="275.0" r="3.1" fill="#9B8CFF" opacity="0.21"/><circle cx="447.1" cy="284.3" r="4.0" fill="#9B8CFF" opacity="0.42"/><circle cx="522.7" cy="316.3" r="2.9" fill="#9B8CFF" opacity="0.42"/><circle cx="581.8" cy="363.9" r="3.9" fill="#9B8CFF" opacity="0.29"/><circle cx="623.4" cy="420.2" r="3.3" fill="#9B8CFF" opacity="0.37"/><circle cx="650.2" cy="485.8" r="3.4" fill="#9B8CFF" opacity="0.34"/>
  </g>

<g><g transform="translate(50,54)"><path d="M 14.4 117.0 C 54.0 14.4, 126.0 14.4, 165.6 117.0" fill="none" stroke="#9B8CFF" stroke-width="6" opacity="0.55" stroke-linecap="round"/></g><g transform="translate(700,54) scale(-1,1)"><path d="M 14.4 117.0 C 54.0 14.4, 126.0 14.4, 165.6 117.0" fill="none" stroke="#9B8CFF" stroke-width="6" opacity="0.55" stroke-linecap="round"/></g><g transform="translate(50,1196) scale(1,-1)"><path d="M 14.4 117.0 C 54.0 14.4, 126.0 14.4, 165.6 117.0" fill="none" stroke="#9B8CFF" stroke-width="6" opacity="0.55" stroke-linecap="round"/></g><g transform="translate(700,1196) scale(-1,-1)"><path d="M 14.4 117.0 C 54.0 14.4, 126.0 14.4, 165.6 117.0" fill="none" stroke="#9B8CFF" stroke-width="6" opacity="0.55" stroke-linecap="round"/></g></g></g>
<rect x="42" y="60" width="666" height="92" rx="30" fill="#ffffffcc" stroke="#1E1B2E" stroke-width="4" opacity="0.95"/>
<text x="375.0" y="122" font-family="ui-sans-serif, system-ui, -apple-system, Segoe UI, Roboto, Helvetica, Arial" font-size="30" font-weight="800" text-anchor="middle" fill="#1E1B2E" opacity="0.95" letter-spacing="1">MINOR ARCANA • SWORDS</text>
<rect x="76" y="170" width="598" height="760" rx="52" fill="#ffffff" opacity="0.15"/>
<g><line x1="92" y1="230.0" x2="658" y2="230.0" stroke="#9B8CFF" stroke-width="2.2" opacity="0.08"/><line x1="212" y1="218.0" x2="312" y2="242.0" stroke="#9B8CFF" stroke-width="2.2" opacity="0.06"/><line x1="92" y1="302.0" x2="658" y2="302.0" stroke="#9B8CFF" stroke-width="2.2" opacity="0.08"/><line x1="212" y1="290.0" x2="312" y2="314.0" stroke="#9B8CFF" stroke-width="2.2" opacity="0.06"/><line x1="92" y1="374.0" x2="658" y2="374.0" stroke="#9B8CFF" stroke-width="2.2" opacity="0.08"/><line x1="212" y1="362.0" x2="312" y2="386.0" stroke="#9B8CFF" stroke-width="2.2" opacity="0.06"/><line x1="92" y1="446.0" x2="658" y2="446.0" stroke="#9B8CFF" stroke-width="2.2" opacity="0.08"/><line x1="212" y1="434.0" x2="312" y2="458.0" stroke="#9B8CFF" stroke-width="2.2" opacity="0.06"/><line x1="92" y1="518.0" x2="658" y2="518.0" stroke="#9B8CFF" stroke-width="2.2" opacity="0.08"/><line x1="212" y1="506.0" x2="312" y2="530.0" stroke="#9B8CFF" stroke-width="2.2" opacity="0.06"/><line x1="92" y1="590.0" x2="658" y2="590.0" stroke="#9B8CFF" stroke-width="2.2" opacity="0.08"/><line x1="212" y1="578.0" x2="312" y2="602.0" stroke="#9B8CFF" stroke-width="2.2" opacity="0.06"/><line x1="92" y1="662.0" x2="658" y2="662.0" stroke="#9B8CFF" stroke-width="2.2" opacity="0.08"/><line x1="212" y1="650.0" x2="312" y2="674.0" stroke="#9B8CFF" stroke-width="2.2" opacity="0.06"/><line x1="92" y1="734.0" x2="658" y2="734.0" stroke="#9B8CFF" stroke-width="2.2" opacity="0.08"/><line x1="212" y1="722.0" x2="312" y2="746.0" stroke="#9B8CFF" stroke-width="2.2" opacity="0.06"/><line x1="92" y1="806.0" x2="658" y2="806.0" stroke="#9B8CFF" stroke-width="2.2" opacity="0.08"/><line x1="212" y1="794.0" x2="312" y2="818.0" stroke="#9B8CFF" stroke-width="2.2" opacity="0.06"/><line x1="92" y1="878.0" x2="658" y2="878.0" stroke="#9B8CFF" stroke-width="2.2" opacity="0.08"/><line x1="212" y1="866.0" x2="312" y2="890.0" stroke="#9B8CFF" stroke-width="2.2" opacity="0.06"/></g>
        <g opacity="0.95">
          <circle cx="375.0" cy="500" r="88" fill="#ffffff" opacity="0.62" stroke="#1E1B2E" stroke-width="7"/>
          <circle cx="347.0" cy="482" r="10" fill="#1E1B2E" opacity="0.9"/>
          <circle cx="403.0" cy="482" r="10" fill="#1E1B2E" opacity="0.9"/>
          <path d="M 340.0 518 Q 375.0 540 410.0 518" fill="none" stroke="#1E1B2E" stroke-width="8" stroke-linecap="round"/>
          <rect x="235.0" y="570" width="280" height="330" rx="75" fill="#ffffff" opacity="0.50" stroke="#1E1B2E" stroke-width="7"/>
          <path d="M 265.0 680 Q 375.0 760 485.0 680" fill="none" stroke="#9B8CFF" stroke-width="10" opacity="0.35" stroke-linecap="round"/>
        </g>
        
        <g filter="url(#glow)">
          <circle cx="205.0" cy="720" r="85" fill="#ffffff" opacity="0.50" stroke="#1E1B2E" stroke-width="6"/>
          
        <g>
          
        <path d="M 164.5 661.5
                 Q 119.5 652.5 101.5 688.5
                 Q 128.5 684.0 151.0 706.5
                 Q 133.0 702.0 115.0 726.8
                 Q 146.5 717.8 164.5 661.5 Z"
              fill="#9B8CFF" opacity="0.35" stroke="#1E1B2E" stroke-width="6"/>
        
          <line x1="128.0" y1="695.0" x2="282.0" y2="745.0" stroke="#1E1B2E" stroke-width="5.9" stroke-linecap="round"/>
          <line x1="128.0" y1="695.0" x2="282.0" y2="745.0" stroke="#ffffff" stroke-width="2.2" stroke-linecap="round" opacity="0.65"/>
          <line x1="156.5" y1="767.3" x2="193.6" y2="653.2" stroke="#1E1B2E" stroke-width="5.4" stroke-linecap="round"/>
          
        <polygon points="282.0,745.0 261.0,719.3 229.7,728.0 249.8,753.5"
                 fill="#ffffff" stroke="#1E1B2E" stroke-width="5" opacity="0.95"/>
        
          <circle cx="128.0" cy="695.0" r="7.2" fill="#9B8CFF" opacity="0.35" stroke="#1E1B2E" stroke-width="5"/>
        </g>
        
        </g>
        <g filter="url(#glow)">
        <g>
          
        <path d="M 502.0 589.0
                 Q 432.0 575.0 404.0 631.0
                 Q 446.0 624.0 481.0 659.0
                 Q 453.0 652.0 425.0 690.5
                 Q 474.0 676.5 502.0 589.0 Z"
              fill="#9B8CFF" opacity="0.35" stroke="#1E1B2E" stroke-width="6"/>
        
          <line x1="445.2" y1="641.1" x2="684.8" y2="718.9" stroke="#1E1B2E" stroke-width="9.1" stroke-linecap="round"/>
          <line x1="445.2" y1="641.1" x2="684.8" y2="718.9" stroke="#ffffff" stroke-width="3.5" stroke-linecap="round" opacity="0.65"/>
          <line x1="499.9" y1="721.9" x2="536.9" y2="607.8" stroke="#1E1B2E" stroke-width="8.4" stroke-linecap="round"/>
          
        <polygon points="684.8,718.9 663.8,693.2 632.5,701.9 652.6,727.4"
                 fill="#ffffff" stroke="#1E1B2E" stroke-width="5" opacity="0.95"/>
        
          <circle cx="445.2" cy="641.1" r="11.2" fill="#9B8CFF" opacity="0.35" stroke="#1E1B2E" stroke-width="5"/>
        </g>
        </g><line x1="139.0" y1="530.6" x2="377.8" y2="455.6" stroke="#ffffff" stroke-width="2.2" opacity="0.13"/>
<line x1="377.8" y1="455.6" x2="393.4" y2="494.5" stroke="#ffffff" stroke-width="2.2" opacity="0.14"/>
<line x1="393.4" y1="494.5" x2="551.4" y2="485.2" stroke="#ffffff" stroke-width="2.2" opacity="0.11"/>
<line x1="551.4" y1="485.2" x2="384.9" y2="580.0" stroke="#ffffff" stroke-width="2.2" opacity="0.13"/>
<line x1="384.9" y1="580.0" x2="593.4" y2="387.9" stroke="#ffffff" stroke-width="2.2" opacity="0.20"/>
<line x1="593.4" y1="387.9" x2="205.6" y2="252.5" stroke="#ffffff" stroke-width="2.2" opacity="0.10"/>
<circle cx="384.9" cy="580.0" r="2.7" fill="#ffffff" opacity="0.6440091612632309"/>
<circle cx="330.5" cy="395.1" r="2.5" fill="#ffffff" opacity="0.35867663863454063"/>
<circle cx="587.7" cy="281.9" r="4.7" fill="#ffffff" opacity="0.42666686375314433"/>
<circle cx="595.6" cy="526.5" r="1.7" fill="#ffffff" opacity="0.3565564765429465"/>
<circle cx="551.4" cy="485.2" r="4.4" fill="#ffffff" opacity="0.2991114923783442"/>
<circle cx="593.4" cy="387.9" r="2.4" fill="#ffffff" opacity="0.705575701497522"/>
<circle cx="256.6" cy="377.9" r="1.8" fill="#ffffff" opacity="0.3208086490094262"/>
<circle cx="480.0" cy="369.7" r="3.6" fill="#ffffff" opacity="0.7265417453161616"/>
<circle cx="377.8" cy="455.6" r="3.6" fill="#ffffff" opacity="0.4875018978619283"/>
<circle cx="393.4" cy="494.5" r="3.9" fill="#ffffff" opacity="0.5841600540038281"/>
<circle cx="582.8" cy="466.7" r="2.1" fill="#ffffff" opacity="0.3984496402383162"/>
<circle cx="205.6" cy="252.5" r="3.5" fill="#ffffff" opacity="0.47882550483141606"/>
<circle cx="139.0" cy="530.6" r="2.0" fill="#ffffff" opacity="0.39201408694190876"/>
<circle cx="359.0" cy="360.1" r="2.7" fill="#ffffff" opacity="0.3293993353808525"/>
<rect x="42" y="1030" width="666" height="160" rx="30" fill="#ffffffd9" stroke="#1E1B2E" stroke-width="4" opacity="0.95"/>
<text x="375.0" y="1104" font-family="ui-sans-serif, system-ui, -apple-system, Segoe UI, Roboto, Helvetica, Arial" font-size="46" font-weight="900" text-anchor="middle" fill="#1E1B2E" opacity="0.98">Knight of Swords</text>
<text x="375.0" y="1152" font-family="ui-sans-serif, system-ui, -apple-system, Segoe UI, Roboto, Helvetica, Arial" font-size="28" font-weight="700" text-anchor="middle" fill="#1E1B2E" opacity="0.7">Bold</text>

    <g opacity="0.55">
      <circle cx="127" cy="1176" r="14" fill="#9B8CFF"/>
      <circle cx="623" cy="1176" r="14" fill="#9B8CFF"/>
      <path d="M 162 1176 L 588 1176" stroke="#9B8CFF" stroke-width="4" opacity="0.45" stroke-linecap="round"/>
    </g>
    
</svg>
