<svg xmlns="http://www.w3.org/2000/svg" width="750" height="1250" viewBox="0 0 750 1250">
  <title>Queen of Swords</title>


  <defs>
    <linearGradient id="g" x1="0" y1="0" x2="1" y2="1">
      <stop offset="0%" stop-color="#E9FFF2"/>
      <stop offset="100%" stop-color="#FFF1FF"/>
    </linearGradient>

    <!-- paper texture -->
    <filter id="paper" x="-20%" y="-20%" width="140%" height="140%">
      <feTurbulence type="fractalNoise" baseFrequency="0.018" numOctaves="3" seed="4022" result="noise"/>
      <feColorMatrix in="noise" type="matrix"
        values="1 0 0 0 0
                0 1 0 0 0
                0 0 1 0 0
                0 0 0 0.25 0" result="noiseAlpha"/>
      <feComposite in="noiseAlpha" in2="SourceGraphic" operator="over"/>
    </filter>

    <!-- soft glow -->
    <filter id="glow" x="-30%" y="-30%" width="160%" height="160%">
      <feGaussianBlur stdDeviation="10" result="blur"/>
      <feColorMatrix type="matrix" values="
        1 0 0 0 0
        0 1 0 0 0
        0 0 1 0 0
        0 0 0 0.32 0" result="blurAlpha"/>
      <feMerge>
        <feMergeNode in="blurAlpha"/>
        <feMergeNode in="SourceGraphic"/>
      </feMerge>
    </filter>
  </defs>

<rect x="0" y="0" width="750" height="1250" rx="58" ry="58" fill="url(#g)" stroke="none" stroke-width="0" opacity="1"/>
<rect x="0" y="0" width="750" height="1250" fill="#ffffff" opacity="0.08"/>
<line x1="84.5" y1="779.5" x2="103.2" y2="926.8" stroke="#ffffff" stroke-width="2.2" opacity="0.18"/>
<line x1="103.2" y1="926.8" x2="53.1" y2="407.2" stroke="#ffffff" stroke-width="2.2" opacity="0.20"/>
<line x1="53.1" y1="407.2" x2="237.0" y2="726.4" stroke="#ffffff" stroke-width="2.2" opacity="0.17"/>
<line x1="237.0" y1="726.4" x2="509.8" y2="1173.3" stroke="#ffffff" stroke-width="2.2" opacity="0.21"/>
<line x1="509.8" y1="1173.3" x2="604.8" y2="256.6" stroke="#ffffff" stroke-width="2.2" opacity="0.11"/>
<line x1="604.8" y1="256.6" x2="363.7" y2="685.4" stroke="#ffffff" stroke-width="2.2" opacity="0.18"/>
<line x1="363.7" y1="685.4" x2="394.8" y2="585.6" stroke="#ffffff" stroke-width="2.2" opacity="0.19"/>
<line x1="394.8" y1="585.6" x2="597.0" y2="990.5" stroke="#ffffff" stroke-width="2.2" opacity="0.14"/>
<line x1="597.0" y1="990.5" x2="645.7" y2="969.5" stroke="#ffffff" stroke-width="2.2" opacity="0.12"/>
<line x1="645.7" y1="969.5" x2="303.5" y2="235.2" stroke="#ffffff" stroke-width="2.2" opacity="0.11"/>
<line x1="303.5" y1="235.2" x2="207.8" y2="327.8" stroke="#ffffff" stroke-width="2.2" opacity="0.20"/>
<line x1="207.8" y1="327.8" x2="76.1" y2="947.0" stroke="#ffffff" stroke-width="2.2" opacity="0.21"/>
<line x1="76.1" y1="947.0" x2="684.6" y2="1153.5" stroke="#ffffff" stroke-width="2.2" opacity="0.11"/>
<line x1="684.6" y1="1153.5" x2="87.1" y2="468.6" stroke="#ffffff" stroke-width="2.2" opacity="0.13"/>
<line x1="87.1" y1="468.6" x2="271.7" y2="899.2" stroke="#ffffff" stroke-width="2.2" opacity="0.09"/>
<line x1="271.7" y1="899.2" x2="296.7" y2="940.3" stroke="#ffffff" stroke-width="2.2" opacity="0.21"/>
<line x1="296.7" y1="940.3" x2="447.1" y2="881.5" stroke="#ffffff" stroke-width="2.2" opacity="0.16"/>
<line x1="447.1" y1="881.5" x2="430.9" y2="1170.1" stroke="#ffffff" stroke-width="2.2" opacity="0.19"/>
<circle cx="601.0" cy="1039.5" r="4.1" fill="#ffffff" opacity="0.6036378497016348"/>
<circle cx="84.5" cy="779.5" r="4.7" fill="#ffffff" opacity="0.5139878309461992"/>
<circle cx="53.1" cy="407.2" r="4.3" fill="#ffffff" opacity="0.4113950951307519"/>
<circle cx="352.7" cy="1079.8" r="3.3" fill="#ffffff" opacity="0.3119208223003017"/>
<circle cx="701.6" cy="422.5" r="4.6" fill="#ffffff" opacity="0.7405825994608067"/>
<circle cx="207.8" cy="327.8" r="4.8" fill="#ffffff" opacity="0.3168422999218413"/>
<circle cx="643.3" cy="1083.5" r="1.9" fill="#ffffff" opacity="0.2663306114819344"/>
<circle cx="103.2" cy="926.8" r="3.4" fill="#ffffff" opacity="0.42541113715420376"/>
<circle cx="604.8" cy="256.6" r="4.6" fill="#ffffff" opacity="0.5731938190884055"/>
<circle cx="149.2" cy="823.7" r="2.9" fill="#ffffff" opacity="0.26454650956164766"/>
<circle cx="525.7" cy="896.5" r="3.8" fill="#ffffff" opacity="0.3058201776171033"/>
<circle cx="151.2" cy="252.2" r="2.0" fill="#ffffff" opacity="0.6746707046951945"/>
<circle cx="505.1" cy="561.0" r="4.8" fill="#ffffff" opacity="0.30733670206286395"/>
<circle cx="200.7" cy="1173.2" r="2.5" fill="#ffffff" opacity="0.7146862516880998"/>
<circle cx="294.9" cy="428.5" r="3.7" fill="#ffffff" opacity="0.37511816935384834"/>
<circle cx="645.7" cy="969.5" r="3.5" fill="#ffffff" opacity="0.5978943541930692"/>
<circle cx="76.1" cy="947.0" r="2.2" fill="#ffffff" opacity="0.5646277791940831"/>
<circle cx="209.9" cy="1076.3" r="2.5" fill="#ffffff" opacity="0.7677726617099078"/>
<circle cx="300.1" cy="581.8" r="3.5" fill="#ffffff" opacity="0.4652029215519866"/>
<circle cx="597.0" cy="990.5" r="2.9" fill="#ffffff" opacity="0.6153543856494992"/>
<circle cx="363.7" cy="685.4" r="3.6" fill="#ffffff" opacity="0.2772400617221827"/>
<circle cx="123.6" cy="1153.7" r="2.0" fill="#ffffff" opacity="0.5155403948751043"/>
<circle cx="656.3" cy="734.0" r="2.3" fill="#ffffff" opacity="0.49722153473739994"/>
<circle cx="140.0" cy="199.1" r="4.2" fill="#ffffff" opacity="0.30580778079798415"/>
<circle cx="592.4" cy="382.0" r="3.0" fill="#ffffff" opacity="0.7508632045533848"/>
<circle cx="214.1" cy="466.3" r="4.2" fill="#ffffff" opacity="0.31311025419199345"/>
<circle cx="491.6" cy="667.8" r="2.7" fill="#ffffff" opacity="0.5816229793259156"/>
<circle cx="105.8" cy="262.9" r="2.5" fill="#ffffff" opacity="0.6494823175616089"/>
<circle cx="457.0" cy="480.1" r="4.7" fill="#ffffff" opacity="0.7531651104941115"/>
<circle cx="296.7" cy="940.3" r="4.3" fill="#ffffff" opacity="0.4715907335077617"/>
<circle cx="173.6" cy="76.6" r="3.8" fill="#ffffff" opacity="0.743805307114759"/>
<circle cx="303.5" cy="235.2" r="3.8" fill="#ffffff" opacity="0.32249528400728605"/>
<circle cx="111.3" cy="700.4" r="4.7" fill="#ffffff" opacity="0.557635410254478"/>
<circle cx="429.0" cy="309.5" r="2.7" fill="#ffffff" opacity="0.49251204519857483"/>
<circle cx="356.9" cy="712.8" r="2.7" fill="#ffffff" opacity="0.3285619584480083"/>
<circle cx="626.1" cy="614.2" r="4.5" fill="#ffffff" opacity="0.5448314332256026"/>
<circle cx="653.8" cy="175.6" r="4.5" fill="#ffffff" opacity="0.4178271399687128"/>
<circle cx="509.8" cy="1173.3" r="2.9" fill="#ffffff" opacity="0.7900601250820356"/>
<circle cx="413.6" cy="261.3" r="1.9" fill="#ffffff" opacity="0.6894435998833115"/>
<circle cx="447.1" cy="881.5" r="2.1" fill="#ffffff" opacity="0.47105228908280117"/>
<circle cx="465.1" cy="306.4" r="4.1" fill="#ffffff" opacity="0.27583975040843006"/>
<circle cx="659.9" cy="565.3" r="3.2" fill="#ffffff" opacity="0.42668625206167643"/>
<circle cx="394.8" cy="585.6" r="2.9" fill="#ffffff" opacity="0.6817662825065898"/>
<circle cx="430.9" cy="1170.1" r="1.7" fill="#ffffff" opacity="0.5371439781396736"/>
<circle cx="115.3" cy="868.9" r="2.3" fill="#ffffff" opacity="0.6344574093457402"/>
<circle cx="684.6" cy="1153.5" r="4.7" fill="#ffffff" opacity="0.6394868146251225"/>
<circle cx="271.7" cy="899.2" r="3.1" fill="#ffffff" opacity="0.8049529474003106"/>
<circle cx="585.3" cy="910.1" r="4.3" fill="#ffffff" opacity="0.5823534646868679"/>
<circle cx="237.0" cy="726.4" r="1.8" fill="#ffffff" opacity="0.46659289111869556"/>
<circle cx="87.1" cy="468.6" r="4.2" fill="#ffffff" opacity="0.3059937225352929"/>
<g filter="url(#paper)"><rect x="42" y="42" width="666" height="1166" rx="54" ry="54" fill="none" stroke="#1E1B2E" stroke-width="8" opacity="0.95"/>
<rect x="60" y="60" width="630" height="1130" rx="46" ry="46" fill="none" stroke="#9B8CFF" stroke-width="3" opacity="0.35"/>

  <g opacity="0.42">
    <circle cx="375.0" cy="560" r="285" fill="none" stroke="#9B8CFF" stroke-width="4.2" opacity="0.42"/>
    <circle cx="375.0" cy="560" r="233.7" fill="none" stroke="#9B8CFF" stroke-width="2.2" opacity="0.23"/>
    <line x1="642.0" y1="560.0" x2="674.0" y2="560.0" stroke="#9B8CFF" stroke-width="3.2" opacity="0.23" stroke-linecap="round"/><line x1="606.2" y1="693.5" x2="633.9" y2="709.5" stroke="#9B8CFF" stroke-width="3.2" opacity="0.23" stroke-linecap="round"/><line x1="508.5" y1="791.2" x2="524.5" y2="818.9" stroke="#9B8CFF" stroke-width="3.2" opacity="0.23" stroke-linecap="round"/><line x1="375.0" y1="827.0" x2="375.0" y2="859.0" stroke="#9B8CFF" stroke-width="3.2" opacity="0.23" stroke-linecap="round"/><line x1="241.5" y1="791.2" x2="225.5" y2="818.9" stroke="#9B8CFF" stroke-width="3.2" opacity="0.23" stroke-linecap="round"/><line x1="143.8" y1="693.5" x2="116.1" y2="709.5" stroke="#9B8CFF" stroke-width="3.2" opacity="0.23" stroke-linecap="round"/><line x1="108.0" y1="560.0" x2="76.0" y2="560.0" stroke="#9B8CFF" stroke-width="3.2" opacity="0.23" stroke-linecap="round"/><line x1="143.8" y1="426.5" x2="116.1" y2="410.5" stroke="#9B8CFF" stroke-width="3.2" opacity="0.23" stroke-linecap="round"/><line x1="241.5" y1="328.8" x2="225.5" y2="301.1" stroke="#9B8CFF" stroke-width="3.2" opacity="0.23" stroke-linecap="round"/><line x1="375.0" y1="293.0" x2="375.0" y2="261.0" stroke="#9B8CFF" stroke-width="3.2" opacity="0.23" stroke-linecap="round"/><line x1="508.5" y1="328.8" x2="524.5" y2="301.1" stroke="#9B8CFF" stroke-width="3.2" opacity="0.23" stroke-linecap="round"/><line x1="606.2" y1="426.5" x2="633.9" y2="410.5" stroke="#9B8CFF" stroke-width="3.2" opacity="0.23" stroke-linecap="round"/>
    <circle cx="659.8" cy="550.6" r="3.7" fill="#9B8CFF" opacity="0.27"/><circle cx="647.6" cy="643.1" r="4.0" fill="#9B8CFF" opacity="0.43"/><circle cx="619.2" cy="707.0" r="3.4" fill="#9B8CFF" opacity="0.42"/><circle cx="574.8" cy="763.2" r="3.6" fill="#9B8CFF" opacity="0.27"/><circle cx="514.3" cy="808.6" r="2.9" fill="#9B8CFF" opacity="0.22"/><circle cx="444.3" cy="836.4" r="2.9" fill="#9B8CFF" opacity="0.36"/><circle cx="376.5" cy="845.0" r="3.9" fill="#9B8CFF" opacity="0.26"/><circle cx="300.9" cy="835.2" r="2.8" fill="#9B8CFF" opacity="0.34"/><circle cx="240.5" cy="811.3" r="3.5" fill="#9B8CFF" opacity="0.29"/><circle cx="172.7" cy="760.7" r="3.8" fill="#9B8CFF" opacity="0.32"/><circle cx="125.7" cy="698.1" r="3.3" fill="#9B8CFF" opacity="0.25"/><circle cx="101.1" cy="638.6" r="3.0" fill="#9B8CFF" opacity="0.35"/><circle cx="90.0" cy="561.9" r="2.8" fill="#9B8CFF" opacity="0.26"/><circle cx="97.4" cy="495.3" r="2.6" fill="#9B8CFF" opacity="0.33"/><circle cx="124.5" cy="424.1" r="3.5" fill="#9B8CFF" opacity="0.30"/><circle cx="179.4" cy="352.7" r="2.9" fill="#9B8CFF" opacity="0.32"/><circle cx="232.7" cy="313.1" r="2.7" fill="#9B8CFF" opacity="0.30"/><circle cx="300.3" cy="285.0" r="3.0" fill="#9B8CFF" opacity="0.37"/><circle cx="371.0" cy="275.0" r="3.7" fill="#9B8CFF" opacity="0.22"/><circle cx="443.7" cy="283.4" r="3.6" fill="#9B8CFF" opacity="0.26"/><circle cx="512.6" cy="310.4" r="3.8" fill="#9B8CFF" opacity="0.22"/><circle cx="570.8" cy="352.9" r="2.8" fill="#9B8CFF" opacity="0.40"/><circle cx="625.7" cy="424.4" r="3.5" fill="#9B8CFF" opacity="0.36"/><circle cx="648.9" cy="481.2" r="3.6" fill="#9B8CFF" opacity="0.41"/>
  </g>

<g><g transform="translate(50,54)"><path d="M 32.4 126.0 C 63.0 54.0, 111.6 32.4, 158.4 39.6" fill="none" stroke="#9B8CFF" stroke-width="6" opacity="0.55" stroke-linecap="round"/></g><g transform="translate(700,54) scale(-1,1)"><path d="M 32.4 126.0 C 63.0 54.0, 111.6 32.4, 158.4 39.6" fill="none" stroke="#9B8CFF" stroke-width="6" opacity="0.55" stroke-linecap="round"/></g><g transform="translate(50,1196) scale(1,-1)"><path d="M 32.4 126.0 C 63.0 54.0, 111.6 32.4, 158.4 39.6" fill="none" stroke="#9B8CFF" stroke-width="6" opacity="0.55" stroke-linecap="round"/></g><g transform="translate(700,1196) scale(-1,-1)"><path d="M 32.4 126.0 C 63.0 54.0, 111.6 32.4, 158.4 39.6" fill="none" stroke="#9B8CFF" stroke-width="6" opacity="0.55" stroke-linecap="round"/></g></g></g>
<rect x="42" y="60" width="666" height="92" rx="30" fill="#ffffffcc" stroke="#1E1B2E" stroke-width="4" opacity="0.95"/>
<text x="375.0" y="122" font-family="ui-sans-serif, system-ui, -apple-system, Segoe UI, Roboto, Helvetica, Arial" font-size="30" font-weight="800" text-anchor="middle" fill="#1E1B2E" opacity="0.95" letter-spacing="1">MINOR ARCANA • SWORDS</text>
<rect x="76" y="170" width="598" height="760" rx="52" fill="#ffffff" opacity="0.15"/>
<g><line x1="92" y1="230.0" x2="658" y2="230.0" stroke="#9B8CFF" stroke-width="2.2" opacity="0.08"/><line x1="212" y1="218.0" x2="312" y2="242.0" stroke="#9B8CFF" stroke-width="2.2" opacity="0.06"/><line x1="92" y1="302.0" x2="658" y2="302.0" stroke="#9B8CFF" stroke-width="2.2" opacity="0.08"/><line x1="212" y1="290.0" x2="312" y2="314.0" stroke="#9B8CFF" stroke-width="2.2" opacity="0.06"/><line x1="92" y1="374.0" x2="658" y2="374.0" stroke="#9B8CFF" stroke-width="2.2" opacity="0.08"/><line x1="212" y1="362.0" x2="312" y2="386.0" stroke="#9B8CFF" stroke-width="2.2" opacity="0.06"/><line x1="92" y1="446.0" x2="658" y2="446.0" stroke="#9B8CFF" stroke-width="2.2" opacity="0.08"/><line x1="212" y1="434.0" x2="312" y2="458.0" stroke="#9B8CFF" stroke-width="2.2" opacity="0.06"/><line x1="92" y1="518.0" x2="658" y2="518.0" stroke="#9B8CFF" stroke-width="2.2" opacity="0.08"/><line x1="212" y1="506.0" x2="312" y2="530.0" stroke="#9B8CFF" stroke-width="2.2" opacity="0.06"/><line x1="92" y1="590.0" x2="658" y2="590.0" stroke="#9B8CFF" stroke-width="2.2" opacity="0.08"/><line x1="212" y1="578.0" x2="312" y2="602.0" stroke="#9B8CFF" stroke-width="2.2" opacity="0.06"/><line x1="92" y1="662.0" x2="658" y2="662.0" stroke="#9B8CFF" stroke-width="2.2" opacity="0.08"/><line x1="212" y1="650.0" x2="312" y2="674.0" stroke="#9B8CFF" stroke-width="2.2" opacity="0.06"/><line x1="92" y1="734.0" x2="658" y2="734.0" stroke="#9B8CFF" stroke-width="2.2" opacity="0.08"/><line x1="212" y1="722.0" x2="312" y2="746.0" stroke="#9B8CFF" stroke-width="2.2" opacity="0.06"/><line x1="92" y1="806.0" x2="658" y2="806.0" stroke="#9B8CFF" stroke-width="2.2" opacity="0.08"/><line x1="212" y1="794.0" x2="312" y2="818.0" stroke="#9B8CFF" stroke-width="2.2" opacity="0.06"/><line x1="92" y1="878.0" x2="658" y2="878.0" stroke="#9B8CFF" stroke-width="2.2" opacity="0.08"/><line x1="212" y1="866.0" x2="312" y2="890.0" stroke="#9B8CFF" stroke-width="2.2" opacity="0.06"/></g><path d="M 255.0 320 Q 375.0 260 495.0 320 L 475.0 370 L 275.0 370 Z" fill="#ffffff" opacity="0.55" stroke="#9B8CFF" stroke-width="6"/>
        <g opacity="0.95">
          <circle cx="375.0" cy="500" r="88" fill="#ffffff" opacity="0.62" stroke="#1E1B2E" stroke-width="7"/>
          <circle cx="347.0" cy="482" r="10" fill="#1E1B2E" opacity="0.9"/>
          <circle cx="403.0" cy="482" r="10" fill="#1E1B2E" opacity="0.9"/>
          <path d="M 340.0 518 Q 375.0 540 410.0 518" fill="none" stroke="#1E1B2E" stroke-width="8" stroke-linecap="round"/>
          <rect x="235.0" y="570" width="280" height="330" rx="75" fill="#ffffff" opacity="0.50" stroke="#1E1B2E" stroke-width="7"/>
          <path d="M 265.0 680 Q 375.0 760 485.0 680" fill="none" stroke="#9B8CFF" stroke-width="10" opacity="0.35" stroke-linecap="round"/>
        </g>
        
        <g filter="url(#glow)">
          <circle cx="205.0" cy="720" r="85" fill="#ffffff" opacity="0.50" stroke="#1E1B2E" stroke-width="6"/>
          
        <g>
          
        <path d="M 164.5 661.5
                 Q 119.5 652.5 101.5 688.5
                 Q 128.5 684.0 151.0 706.5
                 Q 133.0 702.0 115.0 726.8
                 Q 146.5 717.8 164.5 661.5 Z"
              fill="#9B8CFF" opacity="0.35" stroke="#1E1B2E" stroke-width="6"/>
        
          <line x1="128.0" y1="695.0" x2="282.0" y2="745.0" stroke="#1E1B2E" stroke-width="5.9" stroke-linecap="round"/>
          <line x1="128.0" y1="695.0" x2="282.0" y2="745.0" stroke="#ffffff" stroke-width="2.2" stroke-linecap="round" opacity="0.65"/>
          <line x1="156.5" y1="767.3" x2="193.6" y2="653.2" stroke="#1E1B2E" stroke-width="5.4" stroke-linecap="round"/>
          
        <polygon points="282.0,745.0 261.0,719.3 229.7,728.0 249.8,753.5"
                 fill="#ffffff" stroke="#1E1B2E" stroke-width="5" opacity="0.95"/>
        
          <circle cx="128.0" cy="695.0" r="7.2" fill="#9B8CFF" opacity="0.35" stroke="#1E1B2E" stroke-width="5"/>
        </g>
        
        </g>
        <g filter="url(#glow)">
        <g>
          
        <path d="M 502.0 589.0
                 Q 432.0 575.0 404.0 631.0
                 Q 446.0 624.0 481.0 659.0
                 Q 453.0 652.0 425.0 690.5
                 Q 474.0 676.5 502.0 589.0 Z"
              fill="#9B8CFF" opacity="0.35" stroke="#1E1B2E" stroke-width="6"/>
        
          <line x1="445.2" y1="641.1" x2="684.8" y2="718.9" stroke="#1E1B2E" stroke-width="9.1" stroke-linecap="round"/>
          <line x1="445.2" y1="641.1" x2="684.8" y2="718.9" stroke="#ffffff" stroke-width="3.5" stroke-linecap="round" opacity="0.65"/>
          <line x1="499.9" y1="721.9" x2="536.9" y2="607.8" stroke="#1E1B2E" stroke-width="8.4" stroke-linecap="round"/>
          
        <polygon points="684.8,718.9 663.8,693.2 632.5,701.9 652.6,727.4"
                 fill="#ffffff" stroke="#1E1B2E" stroke-width="5" opacity="0.95"/>
        
          <circle cx="445.2" cy="641.1" r="11.2" fill="#9B8CFF" opacity="0.35" stroke="#1E1B2E" stroke-width="5"/>
        </g>
        </g><line x1="306.4" y1="300.5" x2="426.2" y2="353.7" stroke="#ffffff" stroke-width="2.2" opacity="0.11"/>
<line x1="426.2" y1="353.7" x2="443.3" y2="682.9" stroke="#ffffff" stroke-width="2.2" opacity="0.13"/>
<line x1="443.3" y1="682.9" x2="330.6" y2="498.9" stroke="#ffffff" stroke-width="2.2" opacity="0.11"/>
<line x1="330.6" y1="498.9" x2="438.1" y2="396.9" stroke="#ffffff" stroke-width="2.2" opacity="0.20"/>
<line x1="438.1" y1="396.9" x2="238.8" y2="365.0" stroke="#ffffff" stroke-width="2.2" opacity="0.13"/>
<line x1="238.8" y1="365.0" x2="542.7" y2="428.0" stroke="#ffffff" stroke-width="2.2" opacity="0.17"/>
<circle cx="238.8" cy="365.0" r="4.8" fill="#ffffff" opacity="0.6721439561346205"/>
<circle cx="338.2" cy="408.3" r="4.5" fill="#ffffff" opacity="0.6075255148285499"/>
<circle cx="402.0" cy="608.0" r="2.8" fill="#ffffff" opacity="0.7221602987706626"/>
<circle cx="317.5" cy="325.7" r="2.4" fill="#ffffff" opacity="0.5656438773356302"/>
<circle cx="438.1" cy="396.9" r="2.6" fill="#ffffff" opacity="0.37149237203856156"/>
<circle cx="460.6" cy="240.5" r="2.3" fill="#ffffff" opacity="0.5549501124762497"/>
<circle cx="354.4" cy="427.3" r="3.2" fill="#ffffff" opacity="0.42209803296814885"/>
<circle cx="443.3" cy="682.9" r="2.2" fill="#ffffff" opacity="0.41516339406561353"/>
<circle cx="523.1" cy="312.1" r="2.6" fill="#ffffff" opacity="0.6683078895345747"/>
<circle cx="426.2" cy="353.7" r="2.5" fill="#ffffff" opacity="0.46445719439555055"/>
<circle cx="330.6" cy="498.9" r="1.9" fill="#ffffff" opacity="0.3711476188423352"/>
<circle cx="306.4" cy="300.5" r="4.6" fill="#ffffff" opacity="0.4374336695210824"/>
<circle cx="144.5" cy="330.0" r="3.4" fill="#ffffff" opacity="0.4873015752021347"/>
<circle cx="542.7" cy="428.0" r="3.2" fill="#ffffff" opacity="0.27402606022601705"/>
<rect x="42" y="1030" width="666" height="160" rx="30" fill="#ffffffd9" stroke="#1E1B2E" stroke-width="4" opacity="0.95"/>
<text x="375.0" y="1104" font-family="ui-sans-serif, system-ui, -apple-system, Segoe UI, Roboto, Helvetica, Arial" font-size="46" font-weight="900" text-anchor="middle" fill="#1E1B2E" opacity="0.98">Queen of Swords</text>
<text x="375.0" y="1152" font-family="ui-sans-serif, system-ui, -apple-system, Segoe UI, Roboto, Helvetica, Arial" font-size="28" font-weight="700" text-anchor="middle" fill="#1E1B2E" opacity="0.7">Warm</text>

    <g opacity="0.55">
      <circle cx="127" cy="1176" r="14" fill="#9B8CFF"/>
      <circle cx="623" cy="1176" r="14" fill="#9B8CFF"/>
      <path d="M 162 1176 L 588 1176" stroke="#9B8CFF" stroke-width="4" opacity="0.45" stroke-linecap="round"/>
    </g>
    
</svg>
