<svg xmlns="http://www.w3.org/2000/svg" width="750" height="1250" viewBox="0 0 750 1250">
  <title>King of Swords</title>


  <defs>
    <linearGradient id="g" x1="0" y1="0" x2="1" y2="1">
      <stop offset="0%" stop-color="#E9FFF2"/>
      <stop offset="100%" stop-color="#FFF1FF"/>
    </linearGradient>

    <!-- paper texture -->
    <filter id="paper" x="-20%" y="-20%" width="140%" height="140%">
      <feTurbulence type="fractalNoise" baseFrequency="0.015" numOctaves="3" seed="1409" result="noise"/>
      <feColorMatrix in="noise" type="matrix"
        values="1 0 0 0 0
                0 1 0 0 0
                0 0 1 0 0
                0 0 0 0.25 0" result="noiseAlpha"/>
      <feComposite in="noiseAlpha" in2="SourceGraphic" operator="over"/>
    </filter>

    <!-- soft glow -->
    <filter id="glow" x="-30%" y="-30%" width="160%" height="160%">
      <feGaussianBlur stdDeviation="10" result="blur"/>
      <feColorMatrix type="matrix" values="
        1 0 0 0 0
        0 1 0 0 0
        0 0 1 0 0
        0 0 0 0.32 0" result="blurAlpha"/>
      <feMerge>
        <feMergeNode in="blurAlpha"/>
        <feMergeNode in="SourceGraphic"/>
      </feMerge>
    </filter>
  </defs>

<rect x="0" y="0" width="750" height="1250" rx="58" ry="58" fill="url(#g)" stroke="none" stroke-width="0" opacity="1"/>
<rect x="0" y="0" width="750" height="1250" fill="#ffffff" opacity="0.08"/>
<line x1="630.9" y1="955.8" x2="233.0" y2="967.4" stroke="#ffffff" stroke-width="2.2" opacity="0.13"/>
<line x1="233.0" y1="967.4" x2="545.3" y2="1126.3" stroke="#ffffff" stroke-width="2.2" opacity="0.15"/>
<line x1="545.3" y1="1126.3" x2="215.7" y2="976.1" stroke="#ffffff" stroke-width="2.2" opacity="0.08"/>
<line x1="215.7" y1="976.1" x2="134.0" y2="1020.0" stroke="#ffffff" stroke-width="2.2" opacity="0.19"/>
<line x1="134.0" y1="1020.0" x2="527.5" y2="1107.4" stroke="#ffffff" stroke-width="2.2" opacity="0.09"/>
<line x1="527.5" y1="1107.4" x2="140.1" y2="1113.1" stroke="#ffffff" stroke-width="2.2" opacity="0.10"/>
<line x1="140.1" y1="1113.1" x2="63.9" y2="610.4" stroke="#ffffff" stroke-width="2.2" opacity="0.11"/>
<line x1="63.9" y1="610.4" x2="664.1" y2="655.2" stroke="#ffffff" stroke-width="2.2" opacity="0.09"/>
<line x1="664.1" y1="655.2" x2="230.7" y2="776.6" stroke="#ffffff" stroke-width="2.2" opacity="0.22"/>
<line x1="230.7" y1="776.6" x2="643.7" y2="836.5" stroke="#ffffff" stroke-width="2.2" opacity="0.21"/>
<line x1="643.7" y1="836.5" x2="352.4" y2="922.3" stroke="#ffffff" stroke-width="2.2" opacity="0.13"/>
<line x1="352.4" y1="922.3" x2="284.6" y2="153.9" stroke="#ffffff" stroke-width="2.2" opacity="0.14"/>
<line x1="284.6" y1="153.9" x2="45.3" y2="1081.8" stroke="#ffffff" stroke-width="2.2" opacity="0.15"/>
<line x1="45.3" y1="1081.8" x2="458.1" y2="164.0" stroke="#ffffff" stroke-width="2.2" opacity="0.08"/>
<line x1="458.1" y1="164.0" x2="609.4" y2="118.7" stroke="#ffffff" stroke-width="2.2" opacity="0.10"/>
<line x1="609.4" y1="118.7" x2="558.7" y2="456.1" stroke="#ffffff" stroke-width="2.2" opacity="0.15"/>
<line x1="558.7" y1="456.1" x2="602.5" y2="135.9" stroke="#ffffff" stroke-width="2.2" opacity="0.16"/>
<line x1="602.5" y1="135.9" x2="115.8" y2="210.7" stroke="#ffffff" stroke-width="2.2" opacity="0.20"/>
<circle cx="426.9" cy="840.3" r="2.1" fill="#ffffff" opacity="0.5151981924978696"/>
<circle cx="137.2" cy="241.1" r="3.7" fill="#ffffff" opacity="0.40691660138178176"/>
<circle cx="602.5" cy="135.9" r="4.3" fill="#ffffff" opacity="0.7120538244143939"/>
<circle cx="570.8" cy="797.7" r="2.2" fill="#ffffff" opacity="0.5126316945169302"/>
<circle cx="643.7" cy="836.5" r="2.1" fill="#ffffff" opacity="0.5901000106893696"/>
<circle cx="355.3" cy="492.7" r="1.8" fill="#ffffff" opacity="0.5559391641390954"/>
<circle cx="252.9" cy="898.7" r="4.2" fill="#ffffff" opacity="0.3270763966573862"/>
<circle cx="89.9" cy="676.4" r="4.4" fill="#ffffff" opacity="0.46275835164518936"/>
<circle cx="212.8" cy="831.2" r="1.7" fill="#ffffff" opacity="0.6440103991473741"/>
<circle cx="233.0" cy="967.4" r="1.8" fill="#ffffff" opacity="0.4428227989426546"/>
<circle cx="63.9" cy="610.4" r="3.1" fill="#ffffff" opacity="0.7698096111526439"/>
<circle cx="171.0" cy="1162.8" r="2.5" fill="#ffffff" opacity="0.6619140688016896"/>
<circle cx="577.5" cy="59.4" r="3.0" fill="#ffffff" opacity="0.2914270918945644"/>
<circle cx="129.1" cy="174.2" r="3.6" fill="#ffffff" opacity="0.768756090615294"/>
<circle cx="532.9" cy="879.3" r="3.7" fill="#ffffff" opacity="0.7065229380035312"/>
<circle cx="667.6" cy="829.3" r="2.1" fill="#ffffff" opacity="0.4708426760556692"/>
<circle cx="402.4" cy="66.0" r="2.2" fill="#ffffff" opacity="0.406120445862053"/>
<circle cx="664.1" cy="655.2" r="4.1" fill="#ffffff" opacity="0.38156770916995697"/>
<circle cx="45.3" cy="1081.8" r="3.5" fill="#ffffff" opacity="0.4829337631267938"/>
<circle cx="118.3" cy="1100.6" r="3.3" fill="#ffffff" opacity="0.8133317133062316"/>
<circle cx="620.9" cy="142.8" r="2.6" fill="#ffffff" opacity="0.7902795676281027"/>
<circle cx="284.6" cy="153.9" r="2.7" fill="#ffffff" opacity="0.8317654599467975"/>
<circle cx="166.7" cy="850.3" r="2.5" fill="#ffffff" opacity="0.358937756969777"/>
<circle cx="160.5" cy="340.1" r="3.8" fill="#ffffff" opacity="0.40665786454544206"/>
<circle cx="215.7" cy="976.1" r="3.6" fill="#ffffff" opacity="0.7163131196396556"/>
<circle cx="128.1" cy="869.0" r="2.0" fill="#ffffff" opacity="0.6002058793382339"/>
<circle cx="545.3" cy="1126.3" r="2.1" fill="#ffffff" opacity="0.5866026183737596"/>
<circle cx="216.6" cy="642.5" r="4.7" fill="#ffffff" opacity="0.38963634471489084"/>
<circle cx="140.1" cy="1113.1" r="4.2" fill="#ffffff" opacity="0.4503870265691218"/>
<circle cx="59.7" cy="709.9" r="3.5" fill="#ffffff" opacity="0.7984734796470092"/>
<circle cx="645.3" cy="118.1" r="4.2" fill="#ffffff" opacity="0.5578742336790339"/>
<circle cx="344.7" cy="717.9" r="3.2" fill="#ffffff" opacity="0.7910742959194785"/>
<circle cx="209.8" cy="79.3" r="2.2" fill="#ffffff" opacity="0.26387995136603903"/>
<circle cx="352.4" cy="922.3" r="1.9" fill="#ffffff" opacity="0.639246309941006"/>
<circle cx="512.6" cy="317.4" r="3.9" fill="#ffffff" opacity="0.5393951913390677"/>
<circle cx="134.0" cy="1020.0" r="4.1" fill="#ffffff" opacity="0.740806340479272"/>
<circle cx="458.1" cy="164.0" r="2.9" fill="#ffffff" opacity="0.591142730633671"/>
<circle cx="230.7" cy="776.6" r="4.6" fill="#ffffff" opacity="0.6071367769480083"/>
<circle cx="630.9" cy="955.8" r="3.7" fill="#ffffff" opacity="0.6464328467839393"/>
<circle cx="127.6" cy="665.9" r="4.1" fill="#ffffff" opacity="0.5477569862205917"/>
<circle cx="59.4" cy="1056.0" r="2.3" fill="#ffffff" opacity="0.6839913220005988"/>
<circle cx="527.5" cy="1107.4" r="3.3" fill="#ffffff" opacity="0.5599769282470588"/>
<circle cx="115.8" cy="210.7" r="3.2" fill="#ffffff" opacity="0.2710233304005356"/>
<circle cx="673.3" cy="397.9" r="1.6" fill="#ffffff" opacity="0.521881394422786"/>
<circle cx="319.0" cy="523.0" r="3.0" fill="#ffffff" opacity="0.3340886602086526"/>
<circle cx="555.0" cy="452.6" r="4.1" fill="#ffffff" opacity="0.8082047740599904"/>
<circle cx="558.7" cy="456.1" r="3.2" fill="#ffffff" opacity="0.7183368549066325"/>
<circle cx="609.4" cy="118.7" r="4.2" fill="#ffffff" opacity="0.804770468823108"/>
<circle cx="174.5" cy="478.2" r="2.7" fill="#ffffff" opacity="0.3604552082637515"/>
<circle cx="588.9" cy="123.6" r="2.1" fill="#ffffff" opacity="0.6560085716033075"/>
<g filter="url(#paper)"><rect x="42" y="42" width="666" height="1166" rx="54" ry="54" fill="none" stroke="#1E1B2E" stroke-width="8" opacity="0.95"/>
<rect x="60" y="60" width="630" height="1130" rx="46" ry="46" fill="none" stroke="#9B8CFF" stroke-width="3" opacity="0.35"/>

  <g opacity="0.42">
    <circle cx="375.0" cy="560" r="285" fill="none" stroke="#9B8CFF" stroke-width="4.2" opacity="0.42"/>
    <circle cx="375.0" cy="560" r="233.7" fill="none" stroke="#9B8CFF" stroke-width="2.2" opacity="0.23"/>
    <line x1="642.0" y1="560.0" x2="674.0" y2="560.0" stroke="#9B8CFF" stroke-width="3.2" opacity="0.23" stroke-linecap="round"/><line x1="606.2" y1="693.5" x2="633.9" y2="709.5" stroke="#9B8CFF" stroke-width="3.2" opacity="0.23" stroke-linecap="round"/><line x1="508.5" y1="791.2" x2="524.5" y2="818.9" stroke="#9B8CFF" stroke-width="3.2" opacity="0.23" stroke-linecap="round"/><line x1="375.0" y1="827.0" x2="375.0" y2="859.0" stroke="#9B8CFF" stroke-width="3.2" opacity="0.23" stroke-linecap="round"/><line x1="241.5" y1="791.2" x2="225.5" y2="818.9" stroke="#9B8CFF" stroke-width="3.2" opacity="0.23" stroke-linecap="round"/><line x1="143.8" y1="693.5" x2="116.1" y2="709.5" stroke="#9B8CFF" stroke-width="3.2" opacity="0.23" stroke-linecap="round"/><line x1="108.0" y1="560.0" x2="76.0" y2="560.0" stroke="#9B8CFF" stroke-width="3.2" opacity="0.23" stroke-linecap="round"/><line x1="143.8" y1="426.5" x2="116.1" y2="410.5" stroke="#9B8CFF" stroke-width="3.2" opacity="0.23" stroke-linecap="round"/><line x1="241.5" y1="328.8" x2="225.5" y2="301.1" stroke="#9B8CFF" stroke-width="3.2" opacity="0.23" stroke-linecap="round"/><line x1="375.0" y1="293.0" x2="375.0" y2="261.0" stroke="#9B8CFF" stroke-width="3.2" opacity="0.23" stroke-linecap="round"/><line x1="508.5" y1="328.8" x2="524.5" y2="301.1" stroke="#9B8CFF" stroke-width="3.2" opacity="0.23" stroke-linecap="round"/><line x1="606.2" y1="426.5" x2="633.9" y2="410.5" stroke="#9B8CFF" stroke-width="3.2" opacity="0.23" stroke-linecap="round"/>
    <circle cx="660.0" cy="560.6" r="2.8" fill="#9B8CFF" opacity="0.35"/><circle cx="650.5" cy="633.1" r="2.9" fill="#9B8CFF" opacity="0.18"/><circle cx="625.9" cy="695.2" r="2.9" fill="#9B8CFF" opacity="0.27"/><circle cx="570.0" cy="767.9" r="3.7" fill="#9B8CFF" opacity="0.21"/><circle cx="519.9" cy="805.4" r="3.7" fill="#9B8CFF" opacity="0.29"/><circle cx="447.5" cy="835.6" r="3.9" fill="#9B8CFF" opacity="0.22"/><circle cx="371.8" cy="845.0" r="3.2" fill="#9B8CFF" opacity="0.39"/><circle cx="306.8" cy="836.7" r="2.9" fill="#9B8CFF" opacity="0.19"/><circle cx="240.1" cy="811.0" r="2.7" fill="#9B8CFF" opacity="0.28"/><circle cx="174.0" cy="762.1" r="3.9" fill="#9B8CFF" opacity="0.23"/><circle cx="130.8" cy="706.9" r="2.7" fill="#9B8CFF" opacity="0.25"/><circle cx="98.6" cy="629.4" r="3.4" fill="#9B8CFF" opacity="0.31"/><circle cx="90.1" cy="567.2" r="3.2" fill="#9B8CFF" opacity="0.28"/><circle cx="102.1" cy="477.9" r="3.9" fill="#9B8CFF" opacity="0.26"/><circle cx="127.5" cy="418.7" r="3.6" fill="#9B8CFF" opacity="0.42"/><circle cx="170.9" cy="361.1" r="3.7" fill="#9B8CFF" opacity="0.43"/><circle cx="241.2" cy="308.4" r="2.9" fill="#9B8CFF" opacity="0.39"/><circle cx="308.6" cy="282.8" r="2.9" fill="#9B8CFF" opacity="0.19"/><circle cx="378.3" cy="275.0" r="4.0" fill="#9B8CFF" opacity="0.31"/><circle cx="452.8" cy="285.8" r="2.9" fill="#9B8CFF" opacity="0.30"/><circle cx="524.9" cy="317.6" r="2.8" fill="#9B8CFF" opacity="0.22"/><circle cx="571.9" cy="354.0" r="3.3" fill="#9B8CFF" opacity="0.38"/><circle cx="619.2" cy="413.1" r="3.4" fill="#9B8CFF" opacity="0.29"/><circle cx="650.5" cy="486.9" r="3.4" fill="#9B8CFF" opacity="0.36"/>
  </g>

<g><g transform="translate(50,54)"><path d="M 18.0 117.0 C 45.0 45.0, 99.0 27.0, 153.0 54.0" fill="none" stroke="#9B8CFF" stroke-width="6" opacity="0.55" stroke-linecap="round"/></g><g transform="translate(700,54) scale(-1,1)"><path d="M 18.0 117.0 C 45.0 45.0, 99.0 27.0, 153.0 54.0" fill="none" stroke="#9B8CFF" stroke-width="6" opacity="0.55" stroke-linecap="round"/></g><g transform="translate(50,1196) scale(1,-1)"><path d="M 18.0 117.0 C 45.0 45.0, 99.0 27.0, 153.0 54.0" fill="none" stroke="#9B8CFF" stroke-width="6" opacity="0.55" stroke-linecap="round"/></g><g transform="translate(700,1196) scale(-1,-1)"><path d="M 18.0 117.0 C 45.0 45.0, 99.0 27.0, 153.0 54.0" fill="none" stroke="#9B8CFF" stroke-width="6" opacity="0.55" stroke-linecap="round"/></g></g></g>
<rect x="42" y="60" width="666" height="92" rx="30" fill="#ffffffcc" stroke="#1E1B2E" stroke-width="4" opacity="0.95"/>
<text x="375.0" y="122" font-family="ui-sans-serif, system-ui, -apple-system, Segoe UI, Roboto, Helvetica, Arial" font-size="30" font-weight="800" text-anchor="middle" fill="#1E1B2E" opacity="0.95" letter-spacing="1">MINOR ARCANA • SWORDS</text>
<rect x="76" y="170" width="598" height="760" rx="52" fill="#ffffff" opacity="0.15"/>
<g><line x1="92" y1="230.0" x2="658" y2="230.0" stroke="#9B8CFF" stroke-width="2.2" opacity="0.08"/><line x1="212" y1="218.0" x2="312" y2="242.0" stroke="#9B8CFF" stroke-width="2.2" opacity="0.06"/><line x1="92" y1="302.0" x2="658" y2="302.0" stroke="#9B8CFF" stroke-width="2.2" opacity="0.08"/><line x1="212" y1="290.0" x2="312" y2="314.0" stroke="#9B8CFF" stroke-width="2.2" opacity="0.06"/><line x1="92" y1="374.0" x2="658" y2="374.0" stroke="#9B8CFF" stroke-width="2.2" opacity="0.08"/><line x1="212" y1="362.0" x2="312" y2="386.0" stroke="#9B8CFF" stroke-width="2.2" opacity="0.06"/><line x1="92" y1="446.0" x2="658" y2="446.0" stroke="#9B8CFF" stroke-width="2.2" opacity="0.08"/><line x1="212" y1="434.0" x2="312" y2="458.0" stroke="#9B8CFF" stroke-width="2.2" opacity="0.06"/><line x1="92" y1="518.0" x2="658" y2="518.0" stroke="#9B8CFF" stroke-width="2.2" opacity="0.08"/><line x1="212" y1="506.0" x2="312" y2="530.0" stroke="#9B8CFF" stroke-width="2.2" opacity="0.06"/><line x1="92" y1="590.0" x2="658" y2="590.0" stroke="#9B8CFF" stroke-width="2.2" opacity="0.08"/><line x1="212" y1="578.0" x2="312" y2="602.0" stroke="#9B8CFF" stroke-width="2.2" opacity="0.06"/><line x1="92" y1="662.0" x2="658" y2="662.0" stroke="#9B8CFF" stroke-width="2.2" opacity="0.08"/><line x1="212" y1="650.0" x2="312" y2="674.0" stroke="#9B8CFF" stroke-width="2.2" opacity="0.06"/><line x1="92" y1="734.0" x2="658" y2="734.0" stroke="#9B8CFF" stroke-width="2.2" opacity="0.08"/><line x1="212" y1="722.0" x2="312" y2="746.0" stroke="#9B8CFF" stroke-width="2.2" opacity="0.06"/><line x1="92" y1="806.0" x2="658" y2="806.0" stroke="#9B8CFF" stroke-width="2.2" opacity="0.08"/><line x1="212" y1="794.0" x2="312" y2="818.0" stroke="#9B8CFF" stroke-width="2.2" opacity="0.06"/><line x1="92" y1="878.0" x2="658" y2="878.0" stroke="#9B8CFF" stroke-width="2.2" opacity="0.08"/><line x1="212" y1="866.0" x2="312" y2="890.0" stroke="#9B8CFF" stroke-width="2.2" opacity="0.06"/></g><path d="M 255.0 320 Q 375.0 260 495.0 320 L 475.0 370 L 275.0 370 Z" fill="#ffffff" opacity="0.55" stroke="#9B8CFF" stroke-width="6"/>
        <g opacity="0.95">
          <circle cx="375.0" cy="500" r="88" fill="#ffffff" opacity="0.62" stroke="#1E1B2E" stroke-width="7"/>
          <circle cx="347.0" cy="482" r="10" fill="#1E1B2E" opacity="0.9"/>
          <circle cx="403.0" cy="482" r="10" fill="#1E1B2E" opacity="0.9"/>
          <path d="M 340.0 518 Q 375.0 540 410.0 518" fill="none" stroke="#1E1B2E" stroke-width="8" stroke-linecap="round"/>
          <rect x="235.0" y="570" width="280" height="330" rx="75" fill="#ffffff" opacity="0.50" stroke="#1E1B2E" stroke-width="7"/>
          <path d="M 265.0 680 Q 375.0 760 485.0 680" fill="none" stroke="#9B8CFF" stroke-width="10" opacity="0.35" stroke-linecap="round"/>
        </g>
        
        <g filter="url(#glow)">
          <circle cx="205.0" cy="720" r="85" fill="#ffffff" opacity="0.50" stroke="#1E1B2E" stroke-width="6"/>
          
        <g>
          
        <path d="M 164.5 661.5
                 Q 119.5 652.5 101.5 688.5
                 Q 128.5 684.0 151.0 706.5
                 Q 133.0 702.0 115.0 726.8
                 Q 146.5 717.8 164.5 661.5 Z"
              fill="#9B8CFF" opacity="0.35" stroke="#1E1B2E" stroke-width="6"/>
        
          <line x1="128.0" y1="695.0" x2="282.0" y2="745.0" stroke="#1E1B2E" stroke-width="5.9" stroke-linecap="round"/>
          <line x1="128.0" y1="695.0" x2="282.0" y2="745.0" stroke="#ffffff" stroke-width="2.2" stroke-linecap="round" opacity="0.65"/>
          <line x1="156.5" y1="767.3" x2="193.6" y2="653.2" stroke="#1E1B2E" stroke-width="5.4" stroke-linecap="round"/>
          
        <polygon points="282.0,745.0 261.0,719.3 229.7,728.0 249.8,753.5"
                 fill="#ffffff" stroke="#1E1B2E" stroke-width="5" opacity="0.95"/>
        
          <circle cx="128.0" cy="695.0" r="7.2" fill="#9B8CFF" opacity="0.35" stroke="#1E1B2E" stroke-width="5"/>
        </g>
        
        </g>
        <g filter="url(#glow)">
        <g>
          
        <path d="M 502.0 589.0
                 Q 432.0 575.0 404.0 631.0
                 Q 446.0 624.0 481.0 659.0
                 Q 453.0 652.0 425.0 690.5
                 Q 474.0 676.5 502.0 589.0 Z"
              fill="#9B8CFF" opacity="0.35" stroke="#1E1B2E" stroke-width="6"/>
        
          <line x1="445.2" y1="641.1" x2="684.8" y2="718.9" stroke="#1E1B2E" stroke-width="9.1" stroke-linecap="round"/>
          <line x1="445.2" y1="641.1" x2="684.8" y2="718.9" stroke="#ffffff" stroke-width="3.5" stroke-linecap="round" opacity="0.65"/>
          <line x1="499.9" y1="721.9" x2="536.9" y2="607.8" stroke="#1E1B2E" stroke-width="8.4" stroke-linecap="round"/>
          
        <polygon points="684.8,718.9 663.8,693.2 632.5,701.9 652.6,727.4"
                 fill="#ffffff" stroke="#1E1B2E" stroke-width="5" opacity="0.95"/>
        
          <circle cx="445.2" cy="641.1" r="11.2" fill="#9B8CFF" opacity="0.35" stroke="#1E1B2E" stroke-width="5"/>
        </g>
        </g><line x1="343.3" y1="375.2" x2="493.5" y2="648.9" stroke="#ffffff" stroke-width="2.2" opacity="0.13"/>
<line x1="493.5" y1="648.9" x2="364.6" y2="529.7" stroke="#ffffff" stroke-width="2.2" opacity="0.11"/>
<line x1="364.6" y1="529.7" x2="620.5" y2="381.7" stroke="#ffffff" stroke-width="2.2" opacity="0.11"/>
<line x1="620.5" y1="381.7" x2="608.0" y2="324.3" stroke="#ffffff" stroke-width="2.2" opacity="0.18"/>
<line x1="608.0" y1="324.3" x2="290.8" y2="321.1" stroke="#ffffff" stroke-width="2.2" opacity="0.15"/>
<line x1="290.8" y1="321.1" x2="145.7" y2="548.1" stroke="#ffffff" stroke-width="2.2" opacity="0.08"/>
<circle cx="452.4" cy="467.7" r="2.0" fill="#ffffff" opacity="0.36496406196703823"/>
<circle cx="343.3" cy="375.2" r="3.7" fill="#ffffff" opacity="0.2661920955435174"/>
<circle cx="290.8" cy="321.1" r="4.5" fill="#ffffff" opacity="0.33505548375749933"/>
<circle cx="364.6" cy="529.7" r="2.7" fill="#ffffff" opacity="0.8015439763323358"/>
<circle cx="608.0" cy="324.3" r="1.9" fill="#ffffff" opacity="0.5482586217457273"/>
<circle cx="375.8" cy="488.5" r="3.8" fill="#ffffff" opacity="0.5169334681766867"/>
<circle cx="493.5" cy="648.9" r="2.4" fill="#ffffff" opacity="0.7986012584425335"/>
<circle cx="455.7" cy="665.1" r="2.5" fill="#ffffff" opacity="0.6294190581313466"/>
<circle cx="236.1" cy="263.3" r="1.7" fill="#ffffff" opacity="0.6304878573964291"/>
<circle cx="620.5" cy="381.7" r="4.7" fill="#ffffff" opacity="0.8290767270947826"/>
<circle cx="534.0" cy="625.5" r="2.7" fill="#ffffff" opacity="0.6506173111625864"/>
<circle cx="145.7" cy="548.1" r="3.7" fill="#ffffff" opacity="0.6724468958321139"/>
<circle cx="409.6" cy="263.8" r="3.7" fill="#ffffff" opacity="0.749072935355436"/>
<circle cx="579.9" cy="421.6" r="2.5" fill="#ffffff" opacity="0.5332845871982627"/>
<rect x="42" y="1030" width="666" height="160" rx="30" fill="#ffffffd9" stroke="#1E1B2E" stroke-width="4" opacity="0.95"/>
<text x="375.0" y="1104" font-family="ui-sans-serif, system-ui, -apple-system, Segoe UI, Roboto, Helvetica, Arial" font-size="46" font-weight="900" text-anchor="middle" fill="#1E1B2E" opacity="0.98">King of Swords</text>
<text x="375.0" y="1152" font-family="ui-sans-serif, system-ui, -apple-system, Segoe UI, Roboto, Helvetica, Arial" font-size="28" font-weight="700" text-anchor="middle" fill="#1E1B2E" opacity="0.7">Calm</text>

    <g opacity="0.55">
      <circle cx="127" cy="1176" r="14" fill="#9B8CFF"/>
      <circle cx="623" cy="1176" r="14" fill="#9B8CFF"/>
      <path d="M 162 1176 L 588 1176" stroke="#9B8CFF" stroke-width="4" opacity="0.45" stroke-linecap="round"/>
    </g>
    
</svg>
