<svg xmlns="http://www.w3.org/2000/svg" width="750" height="1250" viewBox="0 0 750 1250">
  <title>Ace of Pentacles</title>


  <defs>
    <linearGradient id="g" x1="0" y1="0" x2="1" y2="1">
      <stop offset="0%" stop-color="#FFF6E5"/>
      <stop offset="100%" stop-color="#E5FFF6"/>
    </linearGradient>

    <!-- paper texture -->
    <filter id="paper" x="-20%" y="-20%" width="140%" height="140%">
      <feTurbulence type="fractalNoise" baseFrequency="0.014" numOctaves="3" seed="1314" result="noise"/>
      <feColorMatrix in="noise" type="matrix"
        values="1 0 0 0 0
                0 1 0 0 0
                0 0 1 0 0
                0 0 0 0.25 0" result="noiseAlpha"/>
      <feComposite in="noiseAlpha" in2="SourceGraphic" operator="over"/>
    </filter>

    <!-- soft glow -->
    <filter id="glow" x="-30%" y="-30%" width="160%" height="160%">
      <feGaussianBlur stdDeviation="10" result="blur"/>
      <feColorMatrix type="matrix" values="
        1 0 0 0 0
        0 1 0 0 0
        0 0 1 0 0
        0 0 0 0.32 0" result="blurAlpha"/>
      <feMerge>
        <feMergeNode in="blurAlpha"/>
        <feMergeNode in="SourceGraphic"/>
      </feMerge>
    </filter>
  </defs>

<rect x="0" y="0" width="750" height="1250" rx="58" ry="58" fill="url(#g)" stroke="none" stroke-width="0" opacity="1"/>
<rect x="0" y="0" width="750" height="1250" fill="#ffffff" opacity="0.08"/>
<line x1="659.2" y1="225.1" x2="119.2" y2="925.2" stroke="#ffffff" stroke-width="2.2" opacity="0.15"/>
<line x1="119.2" y1="925.2" x2="478.1" y2="482.9" stroke="#ffffff" stroke-width="2.2" opacity="0.15"/>
<line x1="478.1" y1="482.9" x2="92.5" y2="912.2" stroke="#ffffff" stroke-width="2.2" opacity="0.20"/>
<line x1="92.5" y1="912.2" x2="266.4" y2="1153.6" stroke="#ffffff" stroke-width="2.2" opacity="0.13"/>
<line x1="266.4" y1="1153.6" x2="706.5" y2="749.3" stroke="#ffffff" stroke-width="2.2" opacity="0.09"/>
<line x1="706.5" y1="749.3" x2="493.3" y2="855.4" stroke="#ffffff" stroke-width="2.2" opacity="0.13"/>
<line x1="493.3" y1="855.4" x2="507.6" y2="272.4" stroke="#ffffff" stroke-width="2.2" opacity="0.13"/>
<line x1="507.6" y1="272.4" x2="269.3" y2="631.7" stroke="#ffffff" stroke-width="2.2" opacity="0.20"/>
<line x1="269.3" y1="631.7" x2="345.0" y2="338.0" stroke="#ffffff" stroke-width="2.2" opacity="0.10"/>
<line x1="345.0" y1="338.0" x2="702.5" y2="211.9" stroke="#ffffff" stroke-width="2.2" opacity="0.22"/>
<line x1="702.5" y1="211.9" x2="99.1" y2="319.7" stroke="#ffffff" stroke-width="2.2" opacity="0.14"/>
<line x1="99.1" y1="319.7" x2="89.7" y2="1175.4" stroke="#ffffff" stroke-width="2.2" opacity="0.21"/>
<line x1="89.7" y1="1175.4" x2="448.7" y2="973.6" stroke="#ffffff" stroke-width="2.2" opacity="0.09"/>
<line x1="448.7" y1="973.6" x2="176.6" y2="293.3" stroke="#ffffff" stroke-width="2.2" opacity="0.20"/>
<line x1="176.6" y1="293.3" x2="574.5" y2="465.3" stroke="#ffffff" stroke-width="2.2" opacity="0.15"/>
<line x1="574.5" y1="465.3" x2="164.9" y2="1145.3" stroke="#ffffff" stroke-width="2.2" opacity="0.20"/>
<line x1="164.9" y1="1145.3" x2="455.2" y2="849.7" stroke="#ffffff" stroke-width="2.2" opacity="0.09"/>
<line x1="455.2" y1="849.7" x2="698.4" y2="655.8" stroke="#ffffff" stroke-width="2.2" opacity="0.20"/>
<circle cx="89.7" cy="1175.4" r="4.1" fill="#ffffff" opacity="0.5732584542392907"/>
<circle cx="119.2" cy="925.2" r="2.9" fill="#ffffff" opacity="0.7781246462215221"/>
<circle cx="645.8" cy="88.9" r="2.9" fill="#ffffff" opacity="0.5172314576701726"/>
<circle cx="164.9" cy="1145.3" r="3.2" fill="#ffffff" opacity="0.5043767683031752"/>
<circle cx="640.6" cy="1057.1" r="2.9" fill="#ffffff" opacity="0.5322017143374496"/>
<circle cx="448.7" cy="973.6" r="2.7" fill="#ffffff" opacity="0.7542610816577012"/>
<circle cx="438.8" cy="742.5" r="4.2" fill="#ffffff" opacity="0.56971072245254"/>
<circle cx="657.1" cy="491.9" r="3.9" fill="#ffffff" opacity="0.5551366523697527"/>
<circle cx="299.8" cy="103.2" r="3.1" fill="#ffffff" opacity="0.5658521535446777"/>
<circle cx="266.4" cy="1153.6" r="1.6" fill="#ffffff" opacity="0.5003978453685713"/>
<circle cx="309.3" cy="1173.8" r="3.4" fill="#ffffff" opacity="0.5236864633618302"/>
<circle cx="538.6" cy="679.3" r="3.0" fill="#ffffff" opacity="0.7769343159315355"/>
<circle cx="698.4" cy="655.8" r="3.6" fill="#ffffff" opacity="0.5153711763006166"/>
<circle cx="532.7" cy="360.7" r="4.7" fill="#ffffff" opacity="0.450458415684583"/>
<circle cx="176.6" cy="293.3" r="4.1" fill="#ffffff" opacity="0.7391619362778787"/>
<circle cx="706.5" cy="749.3" r="3.9" fill="#ffffff" opacity="0.3244695512395791"/>
<circle cx="702.5" cy="211.9" r="4.4" fill="#ffffff" opacity="0.2640360743268827"/>
<circle cx="255.2" cy="1010.4" r="1.8" fill="#ffffff" opacity="0.31632800360664126"/>
<circle cx="236.4" cy="1135.2" r="3.9" fill="#ffffff" opacity="0.5914916344289339"/>
<circle cx="493.3" cy="855.4" r="2.1" fill="#ffffff" opacity="0.35208765364205613"/>
<circle cx="507.6" cy="272.4" r="3.3" fill="#ffffff" opacity="0.6238760337780191"/>
<circle cx="574.5" cy="465.3" r="3.7" fill="#ffffff" opacity="0.47143891453940084"/>
<circle cx="659.2" cy="225.1" r="3.8" fill="#ffffff" opacity="0.8335644171011017"/>
<circle cx="665.0" cy="131.6" r="4.3" fill="#ffffff" opacity="0.25219469045239407"/>
<circle cx="700.9" cy="919.3" r="3.9" fill="#ffffff" opacity="0.41360399422578087"/>
<circle cx="705.0" cy="1124.0" r="3.5" fill="#ffffff" opacity="0.32924576946944417"/>
<circle cx="379.4" cy="264.3" r="3.6" fill="#ffffff" opacity="0.6852498179769944"/>
<circle cx="450.0" cy="1014.8" r="2.5" fill="#ffffff" opacity="0.3925388051284774"/>
<circle cx="269.3" cy="631.7" r="2.6" fill="#ffffff" opacity="0.5644991803346591"/>
<circle cx="92.5" cy="912.2" r="2.1" fill="#ffffff" opacity="0.8217154904501515"/>
<circle cx="345.9" cy="143.6" r="3.0" fill="#ffffff" opacity="0.5725517037791641"/>
<circle cx="650.3" cy="73.1" r="1.7" fill="#ffffff" opacity="0.8150725897460203"/>
<circle cx="355.8" cy="230.5" r="3.5" fill="#ffffff" opacity="0.287096241090939"/>
<circle cx="440.1" cy="366.1" r="2.7" fill="#ffffff" opacity="0.4437524063795092"/>
<circle cx="174.7" cy="735.2" r="2.4" fill="#ffffff" opacity="0.3646110478335896"/>
<circle cx="536.2" cy="286.0" r="3.5" fill="#ffffff" opacity="0.780871781017523"/>
<circle cx="606.1" cy="948.5" r="2.9" fill="#ffffff" opacity="0.7030655485755098"/>
<circle cx="644.0" cy="1007.4" r="2.9" fill="#ffffff" opacity="0.49981274779092655"/>
<circle cx="478.1" cy="482.9" r="3.3" fill="#ffffff" opacity="0.8465658381364805"/>
<circle cx="455.2" cy="849.7" r="3.1" fill="#ffffff" opacity="0.7393504071173138"/>
<circle cx="99.1" cy="319.7" r="3.7" fill="#ffffff" opacity="0.26531726389966376"/>
<circle cx="207.2" cy="126.5" r="2.6" fill="#ffffff" opacity="0.6997414587057057"/>
<circle cx="550.0" cy="1147.4" r="3.5" fill="#ffffff" opacity="0.5084426732317338"/>
<circle cx="261.7" cy="643.0" r="4.3" fill="#ffffff" opacity="0.5904487087010305"/>
<circle cx="697.9" cy="671.2" r="1.6" fill="#ffffff" opacity="0.37052966199280046"/>
<circle cx="508.5" cy="628.7" r="4.3" fill="#ffffff" opacity="0.49663653807930885"/>
<circle cx="345.0" cy="338.0" r="2.6" fill="#ffffff" opacity="0.7760489962227414"/>
<circle cx="631.9" cy="1184.4" r="2.8" fill="#ffffff" opacity="0.4755456964102065"/>
<circle cx="100.9" cy="1183.9" r="3.7" fill="#ffffff" opacity="0.6217645212147371"/>
<circle cx="444.1" cy="1144.1" r="2.4" fill="#ffffff" opacity="0.5491922373742579"/>
<g filter="url(#paper)"><rect x="42" y="42" width="666" height="1166" rx="54" ry="54" fill="none" stroke="#1E1B2E" stroke-width="8" opacity="0.95"/>
<rect x="60" y="60" width="630" height="1130" rx="46" ry="46" fill="none" stroke="#2EC4B6" stroke-width="3" opacity="0.35"/>

  <g opacity="0.42">
    <circle cx="375.0" cy="560" r="285" fill="none" stroke="#2EC4B6" stroke-width="4.2" opacity="0.42"/>
    <circle cx="375.0" cy="560" r="233.7" fill="none" stroke="#2EC4B6" stroke-width="2.2" opacity="0.23"/>
    <line x1="642.0" y1="560.0" x2="674.0" y2="560.0" stroke="#2EC4B6" stroke-width="3.2" opacity="0.23" stroke-linecap="round"/><line x1="606.2" y1="693.5" x2="633.9" y2="709.5" stroke="#2EC4B6" stroke-width="3.2" opacity="0.23" stroke-linecap="round"/><line x1="508.5" y1="791.2" x2="524.5" y2="818.9" stroke="#2EC4B6" stroke-width="3.2" opacity="0.23" stroke-linecap="round"/><line x1="375.0" y1="827.0" x2="375.0" y2="859.0" stroke="#2EC4B6" stroke-width="3.2" opacity="0.23" stroke-linecap="round"/><line x1="241.5" y1="791.2" x2="225.5" y2="818.9" stroke="#2EC4B6" stroke-width="3.2" opacity="0.23" stroke-linecap="round"/><line x1="143.8" y1="693.5" x2="116.1" y2="709.5" stroke="#2EC4B6" stroke-width="3.2" opacity="0.23" stroke-linecap="round"/><line x1="108.0" y1="560.0" x2="76.0" y2="560.0" stroke="#2EC4B6" stroke-width="3.2" opacity="0.23" stroke-linecap="round"/><line x1="143.8" y1="426.5" x2="116.1" y2="410.5" stroke="#2EC4B6" stroke-width="3.2" opacity="0.23" stroke-linecap="round"/><line x1="241.5" y1="328.8" x2="225.5" y2="301.1" stroke="#2EC4B6" stroke-width="3.2" opacity="0.23" stroke-linecap="round"/><line x1="375.0" y1="293.0" x2="375.0" y2="261.0" stroke="#2EC4B6" stroke-width="3.2" opacity="0.23" stroke-linecap="round"/><line x1="508.5" y1="328.8" x2="524.5" y2="301.1" stroke="#2EC4B6" stroke-width="3.2" opacity="0.23" stroke-linecap="round"/><line x1="606.2" y1="426.5" x2="633.9" y2="410.5" stroke="#2EC4B6" stroke-width="3.2" opacity="0.23" stroke-linecap="round"/>
    <circle cx="659.9" cy="550.8" r="2.8" fill="#2EC4B6" opacity="0.33"/><circle cx="649.3" cy="637.3" r="4.0" fill="#2EC4B6" opacity="0.39"/><circle cx="626.2" cy="694.7" r="3.1" fill="#2EC4B6" opacity="0.43"/><circle cx="576.7" cy="761.3" r="2.6" fill="#2EC4B6" opacity="0.37"/><circle cx="524.0" cy="802.9" r="3.6" fill="#2EC4B6" opacity="0.36"/><circle cx="451.0" cy="834.7" r="2.7" fill="#2EC4B6" opacity="0.20"/><circle cx="380.3" cy="845.0" r="2.7" fill="#2EC4B6" opacity="0.43"/><circle cx="295.7" cy="833.7" r="3.9" fill="#2EC4B6" opacity="0.36"/><circle cx="226.6" cy="803.3" r="2.7" fill="#2EC4B6" opacity="0.21"/><circle cx="176.2" cy="764.2" r="3.5" fill="#2EC4B6" opacity="0.19"/><circle cx="127.7" cy="701.7" r="3.5" fill="#2EC4B6" opacity="0.36"/><circle cx="99.6" cy="633.4" r="3.9" fill="#2EC4B6" opacity="0.24"/><circle cx="90.1" cy="552.2" r="3.7" fill="#2EC4B6" opacity="0.33"/><circle cx="98.0" cy="492.8" r="3.6" fill="#2EC4B6" opacity="0.28"/><circle cx="124.5" cy="424.0" r="3.5" fill="#2EC4B6" opacity="0.44"/><circle cx="170.8" cy="361.2" r="3.3" fill="#2EC4B6" opacity="0.36"/><circle cx="239.5" cy="309.3" r="3.8" fill="#2EC4B6" opacity="0.33"/><circle cx="302.7" cy="284.3" r="3.8" fill="#2EC4B6" opacity="0.34"/><circle cx="366.4" cy="275.1" r="3.5" fill="#2EC4B6" opacity="0.30"/><circle cx="445.9" cy="284.0" r="3.8" fill="#2EC4B6" opacity="0.28"/><circle cx="509.8" cy="308.9" r="3.1" fill="#2EC4B6" opacity="0.34"/><circle cx="576.3" cy="358.3" r="3.0" fill="#2EC4B6" opacity="0.35"/><circle cx="626.5" cy="425.9" r="4.0" fill="#2EC4B6" opacity="0.41"/><circle cx="647.8" cy="477.4" r="3.5" fill="#2EC4B6" opacity="0.26"/>
  </g>

<g><g transform="translate(50,54)"><path d="M 32.4 126.0 C 63.0 54.0, 111.6 32.4, 158.4 39.6" fill="none" stroke="#2EC4B6" stroke-width="6" opacity="0.55" stroke-linecap="round"/></g><g transform="translate(700,54) scale(-1,1)"><path d="M 32.4 126.0 C 63.0 54.0, 111.6 32.4, 158.4 39.6" fill="none" stroke="#2EC4B6" stroke-width="6" opacity="0.55" stroke-linecap="round"/></g><g transform="translate(50,1196) scale(1,-1)"><path d="M 32.4 126.0 C 63.0 54.0, 111.6 32.4, 158.4 39.6" fill="none" stroke="#2EC4B6" stroke-width="6" opacity="0.55" stroke-linecap="round"/></g><g transform="translate(700,1196) scale(-1,-1)"><path d="M 32.4 126.0 C 63.0 54.0, 111.6 32.4, 158.4 39.6" fill="none" stroke="#2EC4B6" stroke-width="6" opacity="0.55" stroke-linecap="round"/></g></g></g>
<rect x="42" y="60" width="666" height="92" rx="30" fill="#ffffffcc" stroke="#1E1B2E" stroke-width="4" opacity="0.95"/>
<text x="375.0" y="122" font-family="ui-sans-serif, system-ui, -apple-system, Segoe UI, Roboto, Helvetica, Arial" font-size="30" font-weight="800" text-anchor="middle" fill="#1E1B2E" opacity="0.95" letter-spacing="1">MINOR ARCANA • PENTACLES</text>
<rect x="76" y="170" width="598" height="760" rx="52" fill="#ffffff" opacity="0.15"/>
<g><circle cx="489.3" cy="659.0" r="2.9" fill="#2EC4B6" opacity="0.07"/><circle cx="452.1" cy="602.8" r="2.2" fill="#2EC4B6" opacity="0.07"/><circle cx="698.7" cy="507.7" r="2.9" fill="#2EC4B6" opacity="0.07"/><circle cx="462.8" cy="391.5" r="2.2" fill="#2EC4B6" opacity="0.07"/><circle cx="219.6" cy="467.5" r="2.8" fill="#2EC4B6" opacity="0.07"/><circle cx="71.1" cy="435.7" r="3.0" fill="#2EC4B6" opacity="0.07"/><circle cx="122.0" cy="399.8" r="2.8" fill="#2EC4B6" opacity="0.07"/><circle cx="267.9" cy="664.6" r="3.1" fill="#2EC4B6" opacity="0.07"/><circle cx="583.4" cy="359.0" r="1.5" fill="#2EC4B6" opacity="0.07"/><circle cx="705.2" cy="351.3" r="1.9" fill="#2EC4B6" opacity="0.07"/><circle cx="595.6" cy="341.9" r="1.8" fill="#2EC4B6" opacity="0.07"/><circle cx="455.9" cy="736.7" r="2.7" fill="#2EC4B6" opacity="0.07"/><circle cx="622.4" cy="819.9" r="2.0" fill="#2EC4B6" opacity="0.07"/><circle cx="468.6" cy="554.9" r="2.2" fill="#2EC4B6" opacity="0.07"/><circle cx="413.8" cy="386.9" r="2.9" fill="#2EC4B6" opacity="0.07"/><circle cx="208.1" cy="231.9" r="3.1" fill="#2EC4B6" opacity="0.07"/><circle cx="574.1" cy="291.2" r="2.9" fill="#2EC4B6" opacity="0.07"/><circle cx="574.2" cy="267.9" r="1.6" fill="#2EC4B6" opacity="0.07"/><circle cx="83.4" cy="535.0" r="2.2" fill="#2EC4B6" opacity="0.07"/><circle cx="101.7" cy="589.7" r="1.5" fill="#2EC4B6" opacity="0.07"/><circle cx="230.4" cy="702.1" r="2.0" fill="#2EC4B6" opacity="0.07"/><circle cx="276.0" cy="606.2" r="1.6" fill="#2EC4B6" opacity="0.07"/><circle cx="243.6" cy="664.5" r="2.1" fill="#2EC4B6" opacity="0.07"/><circle cx="524.9" cy="318.0" r="2.0" fill="#2EC4B6" opacity="0.07"/><circle cx="492.2" cy="858.1" r="2.6" fill="#2EC4B6" opacity="0.07"/><circle cx="342.7" cy="197.8" r="2.2" fill="#2EC4B6" opacity="0.07"/><circle cx="650.1" cy="495.6" r="2.7" fill="#2EC4B6" opacity="0.07"/><circle cx="61.2" cy="311.6" r="1.7" fill="#2EC4B6" opacity="0.07"/><circle cx="276.9" cy="802.1" r="2.5" fill="#2EC4B6" opacity="0.07"/><circle cx="666.0" cy="756.1" r="3.2" fill="#2EC4B6" opacity="0.07"/><circle cx="211.1" cy="390.5" r="1.7" fill="#2EC4B6" opacity="0.07"/><circle cx="139.8" cy="543.6" r="1.8" fill="#2EC4B6" opacity="0.07"/><circle cx="118.7" cy="564.0" r="2.5" fill="#2EC4B6" opacity="0.07"/><circle cx="619.1" cy="645.8" r="1.7" fill="#2EC4B6" opacity="0.07"/><circle cx="425.6" cy="874.6" r="3.2" fill="#2EC4B6" opacity="0.07"/><circle cx="153.2" cy="447.8" r="2.3" fill="#2EC4B6" opacity="0.07"/><circle cx="570.1" cy="243.2" r="1.9" fill="#2EC4B6" opacity="0.07"/><circle cx="186.6" cy="521.6" r="1.8" fill="#2EC4B6" opacity="0.07"/><circle cx="238.2" cy="240.4" r="1.9" fill="#2EC4B6" opacity="0.07"/><circle cx="527.6" cy="300.0" r="2.6" fill="#2EC4B6" opacity="0.07"/><circle cx="60.1" cy="372.8" r="2.5" fill="#2EC4B6" opacity="0.07"/><circle cx="564.8" cy="745.1" r="2.9" fill="#2EC4B6" opacity="0.07"/><circle cx="457.4" cy="728.5" r="1.9" fill="#2EC4B6" opacity="0.07"/><circle cx="413.5" cy="746.9" r="1.7" fill="#2EC4B6" opacity="0.07"/><circle cx="531.0" cy="272.7" r="2.9" fill="#2EC4B6" opacity="0.07"/><circle cx="557.1" cy="547.6" r="2.5" fill="#2EC4B6" opacity="0.07"/><circle cx="322.6" cy="579.8" r="3.0" fill="#2EC4B6" opacity="0.07"/><circle cx="396.4" cy="692.3" r="2.4" fill="#2EC4B6" opacity="0.07"/><circle cx="666.1" cy="857.5" r="2.9" fill="#2EC4B6" opacity="0.07"/><circle cx="623.0" cy="404.8" r="1.8" fill="#2EC4B6" opacity="0.07"/><circle cx="312.6" cy="650.2" r="1.9" fill="#2EC4B6" opacity="0.07"/><circle cx="324.2" cy="555.5" r="2.6" fill="#2EC4B6" opacity="0.07"/><circle cx="262.7" cy="772.1" r="3.1" fill="#2EC4B6" opacity="0.07"/><circle cx="332.9" cy="310.4" r="1.6" fill="#2EC4B6" opacity="0.07"/><circle cx="227.6" cy="597.0" r="3.0" fill="#2EC4B6" opacity="0.07"/><circle cx="526.9" cy="312.0" r="1.7" fill="#2EC4B6" opacity="0.07"/><circle cx="288.0" cy="238.9" r="2.0" fill="#2EC4B6" opacity="0.07"/><circle cx="83.8" cy="702.1" r="2.5" fill="#2EC4B6" opacity="0.07"/><circle cx="385.6" cy="420.1" r="2.8" fill="#2EC4B6" opacity="0.07"/><circle cx="245.5" cy="442.0" r="3.2" fill="#2EC4B6" opacity="0.07"/><circle cx="95.1" cy="601.3" r="2.7" fill="#2EC4B6" opacity="0.07"/><circle cx="587.4" cy="643.1" r="2.2" fill="#2EC4B6" opacity="0.07"/><circle cx="598.0" cy="308.7" r="1.5" fill="#2EC4B6" opacity="0.07"/><circle cx="237.6" cy="197.2" r="1.5" fill="#2EC4B6" opacity="0.07"/><circle cx="197.4" cy="253.2" r="1.8" fill="#2EC4B6" opacity="0.07"/><circle cx="297.0" cy="478.4" r="1.9" fill="#2EC4B6" opacity="0.07"/><circle cx="441.4" cy="472.4" r="3.0" fill="#2EC4B6" opacity="0.07"/><circle cx="628.8" cy="222.6" r="2.6" fill="#2EC4B6" opacity="0.07"/><circle cx="336.3" cy="296.9" r="2.5" fill="#2EC4B6" opacity="0.07"/><circle cx="599.2" cy="758.3" r="1.8" fill="#2EC4B6" opacity="0.07"/><circle cx="682.5" cy="795.5" r="2.8" fill="#2EC4B6" opacity="0.07"/><circle cx="498.2" cy="673.3" r="1.6" fill="#2EC4B6" opacity="0.07"/><circle cx="48.9" cy="243.4" r="2.2" fill="#2EC4B6" opacity="0.07"/><circle cx="393.6" cy="280.8" r="2.6" fill="#2EC4B6" opacity="0.07"/><circle cx="452.1" cy="743.6" r="3.1" fill="#2EC4B6" opacity="0.07"/><circle cx="606.4" cy="715.1" r="2.8" fill="#2EC4B6" opacity="0.07"/><circle cx="241.2" cy="487.4" r="3.2" fill="#2EC4B6" opacity="0.07"/><circle cx="675.7" cy="790.7" r="1.8" fill="#2EC4B6" opacity="0.07"/><circle cx="670.6" cy="836.6" r="3.0" fill="#2EC4B6" opacity="0.07"/><circle cx="566.7" cy="752.5" r="2.6" fill="#2EC4B6" opacity="0.07"/><circle cx="212.8" cy="744.3" r="3.0" fill="#2EC4B6" opacity="0.07"/><circle cx="257.8" cy="517.5" r="1.8" fill="#2EC4B6" opacity="0.07"/><circle cx="151.6" cy="506.1" r="2.0" fill="#2EC4B6" opacity="0.07"/><circle cx="157.7" cy="650.1" r="2.0" fill="#2EC4B6" opacity="0.07"/><circle cx="271.6" cy="297.5" r="2.7" fill="#2EC4B6" opacity="0.07"/><circle cx="202.5" cy="334.8" r="2.6" fill="#2EC4B6" opacity="0.07"/><circle cx="86.7" cy="727.7" r="1.8" fill="#2EC4B6" opacity="0.07"/><circle cx="647.8" cy="366.1" r="3.1" fill="#2EC4B6" opacity="0.07"/><circle cx="448.3" cy="191.9" r="2.4" fill="#2EC4B6" opacity="0.07"/><circle cx="243.3" cy="280.7" r="2.0" fill="#2EC4B6" opacity="0.07"/><circle cx="611.1" cy="739.1" r="1.9" fill="#2EC4B6" opacity="0.07"/><circle cx="669.4" cy="418.6" r="3.0" fill="#2EC4B6" opacity="0.07"/><circle cx="403.8" cy="634.6" r="1.8" fill="#2EC4B6" opacity="0.07"/><circle cx="440.6" cy="627.3" r="2.2" fill="#2EC4B6" opacity="0.07"/><circle cx="200.7" cy="395.9" r="2.2" fill="#2EC4B6" opacity="0.07"/><circle cx="78.6" cy="554.7" r="2.5" fill="#2EC4B6" opacity="0.07"/><circle cx="562.4" cy="785.8" r="1.6" fill="#2EC4B6" opacity="0.07"/><circle cx="522.9" cy="235.4" r="2.6" fill="#2EC4B6" opacity="0.07"/><circle cx="314.5" cy="793.2" r="2.0" fill="#2EC4B6" opacity="0.07"/><circle cx="670.5" cy="316.6" r="2.0" fill="#2EC4B6" opacity="0.07"/><circle cx="571.9" cy="481.9" r="1.8" fill="#2EC4B6" opacity="0.07"/><circle cx="142.1" cy="278.6" r="1.7" fill="#2EC4B6" opacity="0.07"/><circle cx="620.4" cy="205.6" r="1.8" fill="#2EC4B6" opacity="0.07"/><circle cx="51.5" cy="843.6" r="2.7" fill="#2EC4B6" opacity="0.07"/><circle cx="588.0" cy="826.0" r="3.0" fill="#2EC4B6" opacity="0.07"/><circle cx="84.0" cy="357.7" r="1.6" fill="#2EC4B6" opacity="0.07"/><circle cx="259.0" cy="580.1" r="1.5" fill="#2EC4B6" opacity="0.07"/><circle cx="407.4" cy="308.8" r="1.8" fill="#2EC4B6" opacity="0.07"/><circle cx="190.7" cy="686.6" r="2.6" fill="#2EC4B6" opacity="0.07"/><circle cx="244.8" cy="713.5" r="1.8" fill="#2EC4B6" opacity="0.07"/></g>
    <g>
      <circle cx="375.0" cy="580" r="160.0" fill="#ffffff" opacity="0.75" stroke="#1E1B2E" stroke-width="7"/>
      <circle cx="375.0" cy="580" r="118.0" fill="none" stroke="#2EC4B6" stroke-width="6" opacity="0.45"/>
      <polygon points="375.00,430.00 411.44,529.84 517.66,533.65 433.97,599.16 463.17,701.35 375.00,642.00 286.83,701.35 316.03,599.16 232.34,533.65 338.56,529.84" fill="none" stroke="#1E1B2E" stroke-width="8" stroke-linejoin="round" opacity="0.95"/>
      <circle cx="375.0" cy="580" r="18.0" fill="#2EC4B6" opacity="0.55"/>
      <path d="M 280.0 650.0 Q 375.0 735.0 470.0 650.0" fill="none" stroke="#2EC4B6" stroke-width="7" opacity="0.35" stroke-linecap="round"/>
    </g>
    <line x1="566.8" y1="639.3" x2="306.4" y2="328.1" stroke="#ffffff" stroke-width="2.2" opacity="0.18"/>
<line x1="306.4" y1="328.1" x2="323.9" y2="640.4" stroke="#ffffff" stroke-width="2.2" opacity="0.19"/>
<line x1="323.9" y1="640.4" x2="385.7" y2="493.8" stroke="#ffffff" stroke-width="2.2" opacity="0.10"/>
<line x1="385.7" y1="493.8" x2="259.7" y2="634.4" stroke="#ffffff" stroke-width="2.2" opacity="0.22"/>
<line x1="259.7" y1="634.4" x2="379.5" y2="330.7" stroke="#ffffff" stroke-width="2.2" opacity="0.08"/>
<line x1="379.5" y1="330.7" x2="330.4" y2="621.1" stroke="#ffffff" stroke-width="2.2" opacity="0.11"/>
<circle cx="435.2" cy="625.9" r="3.9" fill="#ffffff" opacity="0.8340330759014354"/>
<circle cx="259.7" cy="634.4" r="3.4" fill="#ffffff" opacity="0.7906498453972195"/>
<circle cx="566.8" cy="639.3" r="4.6" fill="#ffffff" opacity="0.31196775432750823"/>
<circle cx="379.5" cy="330.7" r="3.4" fill="#ffffff" opacity="0.316092974154737"/>
<circle cx="330.4" cy="621.1" r="2.6" fill="#ffffff" opacity="0.648345400331545"/>
<circle cx="174.7" cy="514.1" r="2.8" fill="#ffffff" opacity="0.5872608502850105"/>
<circle cx="437.1" cy="477.7" r="4.2" fill="#ffffff" opacity="0.7005771653818659"/>
<circle cx="140.2" cy="505.0" r="4.5" fill="#ffffff" opacity="0.38758549089299443"/>
<circle cx="306.4" cy="328.1" r="4.8" fill="#ffffff" opacity="0.7841587513704299"/>
<circle cx="385.7" cy="493.8" r="1.7" fill="#ffffff" opacity="0.29590197742579843"/>
<circle cx="546.0" cy="445.4" r="4.6" fill="#ffffff" opacity="0.7271596439899448"/>
<circle cx="263.0" cy="615.2" r="3.0" fill="#ffffff" opacity="0.7469234636589065"/>
<circle cx="552.9" cy="505.5" r="3.3" fill="#ffffff" opacity="0.7264332876100704"/>
<circle cx="323.9" cy="640.4" r="2.4" fill="#ffffff" opacity="0.3416195269749801"/>
<rect x="42" y="1030" width="666" height="160" rx="30" fill="#ffffffd9" stroke="#1E1B2E" stroke-width="4" opacity="0.95"/>
<text x="375.0" y="1104" font-family="ui-sans-serif, system-ui, -apple-system, Segoe UI, Roboto, Helvetica, Arial" font-size="46" font-weight="900" text-anchor="middle" fill="#1E1B2E" opacity="0.98">Ace of Pentacles</text>
<text x="375.0" y="1152" font-family="ui-sans-serif, system-ui, -apple-system, Segoe UI, Roboto, Helvetica, Arial" font-size="28" font-weight="700" text-anchor="middle" fill="#1E1B2E" opacity="0.7">New start</text>

    <g opacity="0.55">
      <circle cx="127" cy="1176" r="14" fill="#2EC4B6"/>
      <circle cx="623" cy="1176" r="14" fill="#2EC4B6"/>
      <path d="M 162 1176 L 588 1176" stroke="#2EC4B6" stroke-width="4" opacity="0.45" stroke-linecap="round"/>
    </g>
    
</svg>
