<svg xmlns="http://www.w3.org/2000/svg" width="750" height="1250" viewBox="0 0 750 1250">
  <title>2 of Pentacles</title>


  <defs>
    <linearGradient id="g" x1="0" y1="0" x2="1" y2="1">
      <stop offset="0%" stop-color="#FDE2FF"/>
      <stop offset="100%" stop-color="#D6F5FF"/>
    </linearGradient>

    <!-- paper texture -->
    <filter id="paper" x="-20%" y="-20%" width="140%" height="140%">
      <feTurbulence type="fractalNoise" baseFrequency="0.015" numOctaves="3" seed="592" result="noise"/>
      <feColorMatrix in="noise" type="matrix"
        values="1 0 0 0 0
                0 1 0 0 0
                0 0 1 0 0
                0 0 0 0.25 0" result="noiseAlpha"/>
      <feComposite in="noiseAlpha" in2="SourceGraphic" operator="over"/>
    </filter>

    <!-- soft glow -->
    <filter id="glow" x="-30%" y="-30%" width="160%" height="160%">
      <feGaussianBlur stdDeviation="10" result="blur"/>
      <feColorMatrix type="matrix" values="
        1 0 0 0 0
        0 1 0 0 0
        0 0 1 0 0
        0 0 0 0.32 0" result="blurAlpha"/>
      <feMerge>
        <feMergeNode in="blurAlpha"/>
        <feMergeNode in="SourceGraphic"/>
      </feMerge>
    </filter>
  </defs>

<rect x="0" y="0" width="750" height="1250" rx="58" ry="58" fill="url(#g)" stroke="none" stroke-width="0" opacity="1"/>
<rect x="0" y="0" width="750" height="1250" fill="#ffffff" opacity="0.08"/>
<line x1="244.7" y1="248.5" x2="632.3" y2="555.1" stroke="#ffffff" stroke-width="2.2" opacity="0.19"/>
<line x1="632.3" y1="555.1" x2="695.3" y2="1015.7" stroke="#ffffff" stroke-width="2.2" opacity="0.20"/>
<line x1="695.3" y1="1015.7" x2="488.6" y2="286.4" stroke="#ffffff" stroke-width="2.2" opacity="0.15"/>
<line x1="488.6" y1="286.4" x2="635.6" y2="197.7" stroke="#ffffff" stroke-width="2.2" opacity="0.20"/>
<line x1="635.6" y1="197.7" x2="589.2" y2="492.0" stroke="#ffffff" stroke-width="2.2" opacity="0.08"/>
<line x1="589.2" y1="492.0" x2="455.2" y2="542.7" stroke="#ffffff" stroke-width="2.2" opacity="0.12"/>
<line x1="455.2" y1="542.7" x2="415.1" y2="562.0" stroke="#ffffff" stroke-width="2.2" opacity="0.20"/>
<line x1="415.1" y1="562.0" x2="463.6" y2="458.6" stroke="#ffffff" stroke-width="2.2" opacity="0.21"/>
<line x1="463.6" y1="458.6" x2="179.4" y2="693.4" stroke="#ffffff" stroke-width="2.2" opacity="0.19"/>
<line x1="179.4" y1="693.4" x2="415.6" y2="527.2" stroke="#ffffff" stroke-width="2.2" opacity="0.17"/>
<line x1="415.6" y1="527.2" x2="236.8" y2="696.6" stroke="#ffffff" stroke-width="2.2" opacity="0.08"/>
<line x1="236.8" y1="696.6" x2="524.9" y2="905.2" stroke="#ffffff" stroke-width="2.2" opacity="0.20"/>
<line x1="524.9" y1="905.2" x2="214.6" y2="899.6" stroke="#ffffff" stroke-width="2.2" opacity="0.09"/>
<line x1="214.6" y1="899.6" x2="514.5" y2="1054.6" stroke="#ffffff" stroke-width="2.2" opacity="0.12"/>
<line x1="514.5" y1="1054.6" x2="222.4" y2="1117.7" stroke="#ffffff" stroke-width="2.2" opacity="0.16"/>
<line x1="222.4" y1="1117.7" x2="600.5" y2="417.2" stroke="#ffffff" stroke-width="2.2" opacity="0.13"/>
<line x1="600.5" y1="417.2" x2="56.6" y2="1207.0" stroke="#ffffff" stroke-width="2.2" opacity="0.13"/>
<line x1="56.6" y1="1207.0" x2="660.0" y2="1037.8" stroke="#ffffff" stroke-width="2.2" opacity="0.12"/>
<circle cx="660.0" cy="1037.8" r="4.8" fill="#ffffff" opacity="0.3133290064025488"/>
<circle cx="272.8" cy="216.3" r="1.6" fill="#ffffff" opacity="0.48596168159134345"/>
<circle cx="524.4" cy="395.6" r="2.0" fill="#ffffff" opacity="0.5957697755783681"/>
<circle cx="107.0" cy="739.4" r="1.6" fill="#ffffff" opacity="0.589396530174918"/>
<circle cx="68.0" cy="1056.8" r="2.1" fill="#ffffff" opacity="0.5226471350427846"/>
<circle cx="514.5" cy="1054.6" r="2.7" fill="#ffffff" opacity="0.5803957786955367"/>
<circle cx="455.2" cy="542.7" r="4.7" fill="#ffffff" opacity="0.550404546922658"/>
<circle cx="638.3" cy="401.9" r="2.5" fill="#ffffff" opacity="0.7932461299727265"/>
<circle cx="415.1" cy="562.0" r="4.5" fill="#ffffff" opacity="0.3954943095842729"/>
<circle cx="214.6" cy="899.6" r="2.4" fill="#ffffff" opacity="0.2697574341528791"/>
<circle cx="524.9" cy="905.2" r="3.2" fill="#ffffff" opacity="0.3609593088438683"/>
<circle cx="641.2" cy="267.4" r="3.4" fill="#ffffff" opacity="0.6541640745454297"/>
<circle cx="478.4" cy="320.6" r="3.6" fill="#ffffff" opacity="0.6921356550963149"/>
<circle cx="280.1" cy="1024.7" r="2.4" fill="#ffffff" opacity="0.33163253598998443"/>
<circle cx="635.6" cy="197.7" r="2.0" fill="#ffffff" opacity="0.3911330665603504"/>
<circle cx="461.4" cy="654.8" r="3.2" fill="#ffffff" opacity="0.7595913018220999"/>
<circle cx="93.0" cy="178.9" r="3.7" fill="#ffffff" opacity="0.7633749721120793"/>
<circle cx="600.5" cy="417.2" r="3.4" fill="#ffffff" opacity="0.3343279233157497"/>
<circle cx="56.6" cy="1207.0" r="1.9" fill="#ffffff" opacity="0.5651752337471232"/>
<circle cx="492.2" cy="1008.0" r="4.3" fill="#ffffff" opacity="0.6292413096092566"/>
<circle cx="236.8" cy="696.6" r="3.5" fill="#ffffff" opacity="0.4114379648907269"/>
<circle cx="599.6" cy="410.1" r="2.7" fill="#ffffff" opacity="0.37940703450294855"/>
<circle cx="391.1" cy="828.6" r="4.4" fill="#ffffff" opacity="0.4685952314025534"/>
<circle cx="447.7" cy="755.5" r="1.8" fill="#ffffff" opacity="0.8330854092037211"/>
<circle cx="683.6" cy="1104.9" r="3.0" fill="#ffffff" opacity="0.7404580461742194"/>
<circle cx="179.4" cy="693.4" r="3.3" fill="#ffffff" opacity="0.6839749971125615"/>
<circle cx="87.7" cy="734.3" r="4.3" fill="#ffffff" opacity="0.5511097787618309"/>
<circle cx="551.5" cy="276.8" r="3.7" fill="#ffffff" opacity="0.7500773719850867"/>
<circle cx="327.1" cy="890.5" r="2.6" fill="#ffffff" opacity="0.4046965072439084"/>
<circle cx="331.9" cy="474.6" r="4.3" fill="#ffffff" opacity="0.30022842470816247"/>
<circle cx="695.3" cy="1015.7" r="2.1" fill="#ffffff" opacity="0.6517595218473169"/>
<circle cx="589.2" cy="492.0" r="1.7" fill="#ffffff" opacity="0.576585920184552"/>
<circle cx="240.8" cy="670.8" r="3.8" fill="#ffffff" opacity="0.7977950739138426"/>
<circle cx="463.6" cy="458.6" r="4.0" fill="#ffffff" opacity="0.8303478816309524"/>
<circle cx="662.1" cy="1207.8" r="3.8" fill="#ffffff" opacity="0.2781962221079123"/>
<circle cx="244.7" cy="248.5" r="2.3" fill="#ffffff" opacity="0.27553209783988714"/>
<circle cx="299.8" cy="441.0" r="1.7" fill="#ffffff" opacity="0.5636434296630557"/>
<circle cx="312.3" cy="1128.4" r="3.6" fill="#ffffff" opacity="0.2795120050964567"/>
<circle cx="222.4" cy="1117.7" r="3.4" fill="#ffffff" opacity="0.2741867728454366"/>
<circle cx="193.1" cy="121.4" r="2.2" fill="#ffffff" opacity="0.2737031441995582"/>
<circle cx="512.4" cy="1045.7" r="2.4" fill="#ffffff" opacity="0.6548449450058329"/>
<circle cx="469.9" cy="1118.5" r="4.0" fill="#ffffff" opacity="0.6143685676562793"/>
<circle cx="163.7" cy="672.2" r="1.7" fill="#ffffff" opacity="0.29163905397723844"/>
<circle cx="89.0" cy="866.9" r="2.5" fill="#ffffff" opacity="0.4875769913171582"/>
<circle cx="488.6" cy="286.4" r="4.4" fill="#ffffff" opacity="0.3296585196231011"/>
<circle cx="632.3" cy="555.1" r="1.7" fill="#ffffff" opacity="0.7578629916440025"/>
<circle cx="390.5" cy="792.1" r="2.1" fill="#ffffff" opacity="0.601312256902899"/>
<circle cx="404.3" cy="734.4" r="4.7" fill="#ffffff" opacity="0.7576917966052432"/>
<circle cx="415.6" cy="527.2" r="1.8" fill="#ffffff" opacity="0.6642630770255902"/>
<circle cx="648.2" cy="379.5" r="2.7" fill="#ffffff" opacity="0.2897243073118532"/>
<g filter="url(#paper)"><rect x="42" y="42" width="666" height="1166" rx="54" ry="54" fill="none" stroke="#1E1B2E" stroke-width="8" opacity="0.95"/>
<rect x="60" y="60" width="630" height="1130" rx="46" ry="46" fill="none" stroke="#2EC4B6" stroke-width="3" opacity="0.35"/>

  <g opacity="0.42">
    <circle cx="375.0" cy="560" r="285" fill="none" stroke="#2EC4B6" stroke-width="4.2" opacity="0.42"/>
    <circle cx="375.0" cy="560" r="233.7" fill="none" stroke="#2EC4B6" stroke-width="2.2" opacity="0.23"/>
    <line x1="642.0" y1="560.0" x2="674.0" y2="560.0" stroke="#2EC4B6" stroke-width="3.2" opacity="0.23" stroke-linecap="round"/><line x1="606.2" y1="693.5" x2="633.9" y2="709.5" stroke="#2EC4B6" stroke-width="3.2" opacity="0.23" stroke-linecap="round"/><line x1="508.5" y1="791.2" x2="524.5" y2="818.9" stroke="#2EC4B6" stroke-width="3.2" opacity="0.23" stroke-linecap="round"/><line x1="375.0" y1="827.0" x2="375.0" y2="859.0" stroke="#2EC4B6" stroke-width="3.2" opacity="0.23" stroke-linecap="round"/><line x1="241.5" y1="791.2" x2="225.5" y2="818.9" stroke="#2EC4B6" stroke-width="3.2" opacity="0.23" stroke-linecap="round"/><line x1="143.8" y1="693.5" x2="116.1" y2="709.5" stroke="#2EC4B6" stroke-width="3.2" opacity="0.23" stroke-linecap="round"/><line x1="108.0" y1="560.0" x2="76.0" y2="560.0" stroke="#2EC4B6" stroke-width="3.2" opacity="0.23" stroke-linecap="round"/><line x1="143.8" y1="426.5" x2="116.1" y2="410.5" stroke="#2EC4B6" stroke-width="3.2" opacity="0.23" stroke-linecap="round"/><line x1="241.5" y1="328.8" x2="225.5" y2="301.1" stroke="#2EC4B6" stroke-width="3.2" opacity="0.23" stroke-linecap="round"/><line x1="375.0" y1="293.0" x2="375.0" y2="261.0" stroke="#2EC4B6" stroke-width="3.2" opacity="0.23" stroke-linecap="round"/><line x1="508.5" y1="328.8" x2="524.5" y2="301.1" stroke="#2EC4B6" stroke-width="3.2" opacity="0.23" stroke-linecap="round"/><line x1="606.2" y1="426.5" x2="633.9" y2="410.5" stroke="#2EC4B6" stroke-width="3.2" opacity="0.23" stroke-linecap="round"/>
    <circle cx="659.9" cy="565.8" r="3.4" fill="#2EC4B6" opacity="0.25"/><circle cx="649.6" cy="636.1" r="3.7" fill="#2EC4B6" opacity="0.39"/><circle cx="620.6" cy="704.5" r="3.0" fill="#2EC4B6" opacity="0.39"/><circle cx="571.7" cy="766.3" r="3.2" fill="#2EC4B6" opacity="0.32"/><circle cx="525.8" cy="801.8" r="3.4" fill="#2EC4B6" opacity="0.33"/><circle cx="444.2" cy="836.5" r="2.8" fill="#2EC4B6" opacity="0.22"/><circle cx="380.2" cy="845.0" r="4.0" fill="#2EC4B6" opacity="0.43"/><circle cx="299.6" cy="834.8" r="2.9" fill="#2EC4B6" opacity="0.22"/><circle cx="232.3" cy="806.7" r="3.5" fill="#2EC4B6" opacity="0.44"/><circle cx="169.0" cy="756.9" r="2.7" fill="#2EC4B6" opacity="0.29"/><circle cx="131.6" cy="708.3" r="3.3" fill="#2EC4B6" opacity="0.26"/><circle cx="102.4" cy="643.2" r="3.5" fill="#2EC4B6" opacity="0.22"/><circle cx="90.1" cy="554.4" r="3.0" fill="#2EC4B6" opacity="0.30"/><circle cx="100.6" cy="483.2" r="2.7" fill="#2EC4B6" opacity="0.26"/><circle cx="127.1" cy="419.3" r="2.8" fill="#2EC4B6" opacity="0.45"/><circle cx="177.2" cy="354.8" r="3.0" fill="#2EC4B6" opacity="0.40"/><circle cx="228.8" cy="315.4" r="3.5" fill="#2EC4B6" opacity="0.35"/><circle cx="304.0" cy="284.0" r="3.9" fill="#2EC4B6" opacity="0.38"/><circle cx="376.4" cy="275.0" r="2.9" fill="#2EC4B6" opacity="0.33"/><circle cx="440.2" cy="282.6" r="2.8" fill="#2EC4B6" opacity="0.20"/><circle cx="521.3" cy="315.4" r="3.5" fill="#2EC4B6" opacity="0.33"/><circle cx="577.5" cy="359.5" r="3.2" fill="#2EC4B6" opacity="0.27"/><circle cx="625.4" cy="423.8" r="3.0" fill="#2EC4B6" opacity="0.25"/><circle cx="651.4" cy="490.3" r="3.8" fill="#2EC4B6" opacity="0.43"/>
  </g>

<g><g transform="translate(50,54)"><path d="M 21.6 140.4 Q 75.6 36.0 165.6 68.4 Q 93.6 79.2 72.0 126.0" fill="none" stroke="#2EC4B6" stroke-width="6" opacity="0.55" stroke-linecap="round"/></g><g transform="translate(700,54) scale(-1,1)"><path d="M 21.6 140.4 Q 75.6 36.0 165.6 68.4 Q 93.6 79.2 72.0 126.0" fill="none" stroke="#2EC4B6" stroke-width="6" opacity="0.55" stroke-linecap="round"/></g><g transform="translate(50,1196) scale(1,-1)"><path d="M 21.6 140.4 Q 75.6 36.0 165.6 68.4 Q 93.6 79.2 72.0 126.0" fill="none" stroke="#2EC4B6" stroke-width="6" opacity="0.55" stroke-linecap="round"/></g><g transform="translate(700,1196) scale(-1,-1)"><path d="M 21.6 140.4 Q 75.6 36.0 165.6 68.4 Q 93.6 79.2 72.0 126.0" fill="none" stroke="#2EC4B6" stroke-width="6" opacity="0.55" stroke-linecap="round"/></g></g></g>
<rect x="42" y="60" width="666" height="92" rx="30" fill="#ffffffcc" stroke="#1E1B2E" stroke-width="4" opacity="0.95"/>
<text x="375.0" y="122" font-family="ui-sans-serif, system-ui, -apple-system, Segoe UI, Roboto, Helvetica, Arial" font-size="30" font-weight="800" text-anchor="middle" fill="#1E1B2E" opacity="0.95" letter-spacing="1">MINOR ARCANA • PENTACLES</text>
<rect x="76" y="170" width="598" height="760" rx="52" fill="#ffffff" opacity="0.15"/>
<g><circle cx="293.2" cy="909.4" r="3.1" fill="#2EC4B6" opacity="0.07"/><circle cx="546.7" cy="409.2" r="2.8" fill="#2EC4B6" opacity="0.07"/><circle cx="547.5" cy="837.8" r="2.0" fill="#2EC4B6" opacity="0.07"/><circle cx="251.5" cy="735.0" r="2.6" fill="#2EC4B6" opacity="0.07"/><circle cx="180.8" cy="894.1" r="2.8" fill="#2EC4B6" opacity="0.07"/><circle cx="334.0" cy="893.6" r="2.9" fill="#2EC4B6" opacity="0.07"/><circle cx="522.5" cy="323.1" r="2.0" fill="#2EC4B6" opacity="0.07"/><circle cx="407.0" cy="515.7" r="2.5" fill="#2EC4B6" opacity="0.07"/><circle cx="415.3" cy="799.0" r="3.0" fill="#2EC4B6" opacity="0.07"/><circle cx="167.4" cy="885.7" r="2.4" fill="#2EC4B6" opacity="0.07"/><circle cx="57.5" cy="812.2" r="2.6" fill="#2EC4B6" opacity="0.07"/><circle cx="202.8" cy="424.3" r="2.9" fill="#2EC4B6" opacity="0.07"/><circle cx="396.7" cy="467.5" r="3.2" fill="#2EC4B6" opacity="0.07"/><circle cx="439.9" cy="834.5" r="2.4" fill="#2EC4B6" opacity="0.07"/><circle cx="293.8" cy="310.1" r="2.1" fill="#2EC4B6" opacity="0.07"/><circle cx="386.3" cy="222.3" r="2.9" fill="#2EC4B6" opacity="0.07"/><circle cx="285.0" cy="906.2" r="1.5" fill="#2EC4B6" opacity="0.07"/><circle cx="102.3" cy="490.4" r="2.2" fill="#2EC4B6" opacity="0.07"/><circle cx="230.1" cy="461.7" r="3.1" fill="#2EC4B6" opacity="0.07"/><circle cx="479.7" cy="390.6" r="2.7" fill="#2EC4B6" opacity="0.07"/><circle cx="507.2" cy="743.6" r="2.5" fill="#2EC4B6" opacity="0.07"/><circle cx="252.7" cy="490.9" r="2.6" fill="#2EC4B6" opacity="0.07"/><circle cx="273.2" cy="749.1" r="2.9" fill="#2EC4B6" opacity="0.07"/><circle cx="616.3" cy="356.5" r="2.4" fill="#2EC4B6" opacity="0.07"/><circle cx="509.0" cy="778.4" r="1.6" fill="#2EC4B6" opacity="0.07"/><circle cx="492.4" cy="558.7" r="2.1" fill="#2EC4B6" opacity="0.07"/><circle cx="382.3" cy="267.7" r="2.0" fill="#2EC4B6" opacity="0.07"/><circle cx="660.0" cy="577.3" r="2.2" fill="#2EC4B6" opacity="0.07"/><circle cx="341.1" cy="728.3" r="2.6" fill="#2EC4B6" opacity="0.07"/><circle cx="682.2" cy="599.4" r="2.8" fill="#2EC4B6" opacity="0.07"/><circle cx="188.2" cy="574.5" r="2.4" fill="#2EC4B6" opacity="0.07"/><circle cx="542.2" cy="820.5" r="1.6" fill="#2EC4B6" opacity="0.07"/><circle cx="278.7" cy="755.3" r="2.2" fill="#2EC4B6" opacity="0.07"/><circle cx="146.6" cy="679.7" r="3.0" fill="#2EC4B6" opacity="0.07"/><circle cx="91.0" cy="638.1" r="1.9" fill="#2EC4B6" opacity="0.07"/><circle cx="216.8" cy="353.2" r="2.4" fill="#2EC4B6" opacity="0.07"/><circle cx="654.2" cy="254.8" r="3.1" fill="#2EC4B6" opacity="0.07"/><circle cx="225.7" cy="326.8" r="2.9" fill="#2EC4B6" opacity="0.07"/><circle cx="369.5" cy="221.0" r="1.8" fill="#2EC4B6" opacity="0.07"/><circle cx="175.5" cy="468.3" r="1.7" fill="#2EC4B6" opacity="0.07"/><circle cx="503.7" cy="484.9" r="3.1" fill="#2EC4B6" opacity="0.07"/><circle cx="580.2" cy="596.2" r="2.1" fill="#2EC4B6" opacity="0.07"/><circle cx="216.6" cy="794.2" r="1.9" fill="#2EC4B6" opacity="0.07"/><circle cx="89.9" cy="784.9" r="2.0" fill="#2EC4B6" opacity="0.07"/><circle cx="591.3" cy="339.1" r="1.7" fill="#2EC4B6" opacity="0.07"/><circle cx="600.2" cy="867.6" r="2.0" fill="#2EC4B6" opacity="0.07"/><circle cx="599.8" cy="238.2" r="1.9" fill="#2EC4B6" opacity="0.07"/><circle cx="199.5" cy="835.3" r="2.6" fill="#2EC4B6" opacity="0.07"/><circle cx="354.8" cy="351.5" r="2.2" fill="#2EC4B6" opacity="0.07"/><circle cx="540.0" cy="861.2" r="2.5" fill="#2EC4B6" opacity="0.07"/><circle cx="681.1" cy="307.8" r="3.0" fill="#2EC4B6" opacity="0.07"/><circle cx="87.4" cy="595.5" r="1.5" fill="#2EC4B6" opacity="0.07"/><circle cx="411.0" cy="860.5" r="1.5" fill="#2EC4B6" opacity="0.07"/><circle cx="672.0" cy="666.1" r="2.1" fill="#2EC4B6" opacity="0.07"/><circle cx="489.9" cy="483.5" r="1.8" fill="#2EC4B6" opacity="0.07"/><circle cx="442.9" cy="261.2" r="3.0" fill="#2EC4B6" opacity="0.07"/><circle cx="454.0" cy="359.3" r="1.9" fill="#2EC4B6" opacity="0.07"/><circle cx="508.8" cy="721.6" r="2.7" fill="#2EC4B6" opacity="0.07"/><circle cx="245.6" cy="845.3" r="2.8" fill="#2EC4B6" opacity="0.07"/><circle cx="329.3" cy="335.9" r="2.2" fill="#2EC4B6" opacity="0.07"/><circle cx="585.9" cy="853.7" r="1.7" fill="#2EC4B6" opacity="0.07"/><circle cx="657.3" cy="209.8" r="2.8" fill="#2EC4B6" opacity="0.07"/><circle cx="103.9" cy="247.6" r="2.8" fill="#2EC4B6" opacity="0.07"/><circle cx="191.7" cy="239.7" r="1.9" fill="#2EC4B6" opacity="0.07"/><circle cx="372.3" cy="772.5" r="3.1" fill="#2EC4B6" opacity="0.07"/><circle cx="496.6" cy="710.3" r="2.8" fill="#2EC4B6" opacity="0.07"/><circle cx="201.5" cy="489.4" r="2.2" fill="#2EC4B6" opacity="0.07"/><circle cx="642.6" cy="542.7" r="2.8" fill="#2EC4B6" opacity="0.07"/><circle cx="86.6" cy="405.9" r="1.8" fill="#2EC4B6" opacity="0.07"/><circle cx="607.6" cy="882.1" r="1.6" fill="#2EC4B6" opacity="0.07"/><circle cx="109.6" cy="764.9" r="2.6" fill="#2EC4B6" opacity="0.07"/><circle cx="322.5" cy="832.7" r="1.6" fill="#2EC4B6" opacity="0.07"/><circle cx="449.4" cy="801.7" r="2.5" fill="#2EC4B6" opacity="0.07"/><circle cx="139.5" cy="758.6" r="2.4" fill="#2EC4B6" opacity="0.07"/><circle cx="661.8" cy="405.8" r="3.0" fill="#2EC4B6" opacity="0.07"/><circle cx="105.7" cy="212.3" r="2.2" fill="#2EC4B6" opacity="0.07"/><circle cx="319.1" cy="361.2" r="1.9" fill="#2EC4B6" opacity="0.07"/><circle cx="611.0" cy="682.1" r="2.2" fill="#2EC4B6" opacity="0.07"/><circle cx="293.2" cy="701.6" r="1.5" fill="#2EC4B6" opacity="0.07"/><circle cx="379.4" cy="635.4" r="2.3" fill="#2EC4B6" opacity="0.07"/><circle cx="294.5" cy="734.8" r="1.8" fill="#2EC4B6" opacity="0.07"/><circle cx="117.9" cy="628.2" r="1.6" fill="#2EC4B6" opacity="0.07"/><circle cx="236.6" cy="574.2" r="2.2" fill="#2EC4B6" opacity="0.07"/><circle cx="606.4" cy="877.3" r="2.7" fill="#2EC4B6" opacity="0.07"/><circle cx="496.6" cy="768.7" r="1.9" fill="#2EC4B6" opacity="0.07"/><circle cx="180.7" cy="314.8" r="1.5" fill="#2EC4B6" opacity="0.07"/><circle cx="93.9" cy="234.7" r="2.8" fill="#2EC4B6" opacity="0.07"/><circle cx="213.3" cy="393.0" r="1.8" fill="#2EC4B6" opacity="0.07"/><circle cx="404.9" cy="234.2" r="2.6" fill="#2EC4B6" opacity="0.07"/><circle cx="283.7" cy="248.4" r="2.5" fill="#2EC4B6" opacity="0.07"/><circle cx="613.5" cy="902.8" r="2.2" fill="#2EC4B6" opacity="0.07"/><circle cx="209.3" cy="476.3" r="2.2" fill="#2EC4B6" opacity="0.07"/><circle cx="583.5" cy="891.0" r="1.9" fill="#2EC4B6" opacity="0.07"/><circle cx="257.4" cy="199.1" r="2.1" fill="#2EC4B6" opacity="0.07"/><circle cx="400.1" cy="891.8" r="1.5" fill="#2EC4B6" opacity="0.07"/><circle cx="446.0" cy="637.3" r="1.5" fill="#2EC4B6" opacity="0.07"/><circle cx="259.3" cy="861.1" r="3.2" fill="#2EC4B6" opacity="0.07"/><circle cx="74.8" cy="696.6" r="1.6" fill="#2EC4B6" opacity="0.07"/><circle cx="448.1" cy="201.5" r="2.1" fill="#2EC4B6" opacity="0.07"/><circle cx="387.9" cy="543.9" r="2.3" fill="#2EC4B6" opacity="0.07"/><circle cx="665.0" cy="240.0" r="2.1" fill="#2EC4B6" opacity="0.07"/><circle cx="532.3" cy="551.2" r="1.8" fill="#2EC4B6" opacity="0.07"/><circle cx="533.5" cy="715.3" r="2.5" fill="#2EC4B6" opacity="0.07"/><circle cx="493.6" cy="885.5" r="2.8" fill="#2EC4B6" opacity="0.07"/><circle cx="136.5" cy="666.8" r="2.9" fill="#2EC4B6" opacity="0.07"/><circle cx="561.9" cy="691.6" r="1.7" fill="#2EC4B6" opacity="0.07"/><circle cx="155.9" cy="577.1" r="2.4" fill="#2EC4B6" opacity="0.07"/><circle cx="595.2" cy="335.8" r="2.4" fill="#2EC4B6" opacity="0.07"/><circle cx="478.3" cy="666.6" r="1.7" fill="#2EC4B6" opacity="0.07"/><circle cx="104.1" cy="851.3" r="2.5" fill="#2EC4B6" opacity="0.07"/></g><g><g opacity="0.55">
    <g>
      <circle cx="387.8111565358526" cy="410.3911398146207" r="44.8" fill="#ffffff" opacity="0.75" stroke="#1E1B2E" stroke-width="7"/>
      <circle cx="387.8111565358526" cy="410.3911398146207" r="33.0" fill="none" stroke="#2EC4B6" stroke-width="6" opacity="0.45"/>
      <polygon points="387.81,368.39 398.02,396.35 427.76,397.41 404.32,415.76 412.50,444.37 387.81,427.75 363.12,444.37 371.30,415.76 347.87,397.41 377.61,396.35" fill="none" stroke="#1E1B2E" stroke-width="8" stroke-linejoin="round" opacity="0.95"/>
      <circle cx="387.8111565358526" cy="410.3911398146207" r="5.0" fill="#2EC4B6" opacity="0.55"/>
      <path d="M 361.2 430.0 Q 387.8111565358526 453.8 414.4 430.0" fill="none" stroke="#2EC4B6" stroke-width="7" opacity="0.35" stroke-linecap="round"/>
    </g>
    </g><g opacity="0.55">
    <g>
      <circle cx="388.9404992563307" cy="829.5367807342765" r="44.8" fill="#ffffff" opacity="0.75" stroke="#1E1B2E" stroke-width="7"/>
      <circle cx="388.9404992563307" cy="829.5367807342765" r="33.0" fill="none" stroke="#2EC4B6" stroke-width="6" opacity="0.45"/>
      <polygon points="388.94,787.54 399.14,815.49 428.88,816.56 405.45,834.90 413.63,863.52 388.94,846.90 364.25,863.52 372.43,834.90 349.00,816.56 378.74,815.49" fill="none" stroke="#1E1B2E" stroke-width="8" stroke-linejoin="round" opacity="0.95"/>
      <circle cx="388.9404992563307" cy="829.5367807342765" r="5.0" fill="#2EC4B6" opacity="0.55"/>
      <path d="M 362.3 849.1 Q 388.9404992563307 872.9 415.5 849.1" fill="none" stroke="#2EC4B6" stroke-width="7" opacity="0.35" stroke-linecap="round"/>
    </g>
    </g></g><g opacity="0.9"><g opacity='0.9'><circle cx="165.0" cy="330" r="14" fill="none" stroke="#2EC4B6" stroke-width="4" opacity="0.30"/><circle cx="151.0" cy="330" r="12.9" fill="#2EC4B6" opacity="0.16"/><circle cx="235.0" cy="330" r="14" fill="none" stroke="#2EC4B6" stroke-width="4" opacity="0.30"/><circle cx="225.7" cy="330" r="12.9" fill="#2EC4B6" opacity="0.13"/><circle cx="305.0" cy="330" r="14" fill="none" stroke="#2EC4B6" stroke-width="4" opacity="0.30"/><circle cx="300.3" cy="330" r="12.9" fill="#2EC4B6" opacity="0.09"/><circle cx="375.0" cy="330" r="14" fill="none" stroke="#2EC4B6" stroke-width="4" opacity="0.30"/><circle cx="375.0" cy="330" r="12.9" fill="#2EC4B6" opacity="0.06"/><circle cx="445.0" cy="330" r="14" fill="none" stroke="#2EC4B6" stroke-width="4" opacity="0.30"/><circle cx="449.7" cy="330" r="12.9" fill="#2EC4B6" opacity="0.09"/><circle cx="515.0" cy="330" r="14" fill="none" stroke="#2EC4B6" stroke-width="4" opacity="0.30"/><circle cx="524.3" cy="330" r="12.9" fill="#2EC4B6" opacity="0.13"/><circle cx="585.0" cy="330" r="14" fill="none" stroke="#2EC4B6" stroke-width="4" opacity="0.30"/><circle cx="599.0" cy="330" r="12.9" fill="#2EC4B6" opacity="0.16"/></g></g>
        <g filter="url(#glow)">
          <circle cx="375.0" cy="630" r="170" fill="#ffffff" opacity="0.40" stroke="#2EC4B6" stroke-width="7"/>
          
    <g>
      <circle cx="375.0" cy="630" r="115.2" fill="#ffffff" opacity="0.75" stroke="#1E1B2E" stroke-width="7"/>
      <circle cx="375.0" cy="630" r="85.0" fill="none" stroke="#2EC4B6" stroke-width="6" opacity="0.45"/>
      <polygon points="375.00,522.00 401.24,593.89 477.71,596.63 417.46,643.79 438.48,717.37 375.00,674.64 311.52,717.37 332.54,643.79 272.29,596.63 348.76,593.89" fill="none" stroke="#1E1B2E" stroke-width="8" stroke-linejoin="round" opacity="0.95"/>
      <circle cx="375.0" cy="630" r="13.0" fill="#2EC4B6" opacity="0.55"/>
      <path d="M 306.6 680.4 Q 375.0 741.6 443.4 680.4" fill="none" stroke="#2EC4B6" stroke-width="7" opacity="0.35" stroke-linecap="round"/>
    </g>
    
        </g>
        <line x1="605.0" y1="260.0" x2="140.4" y2="638.1" stroke="#ffffff" stroke-width="2.2" opacity="0.20"/>
<line x1="140.4" y1="638.1" x2="393.6" y2="651.7" stroke="#ffffff" stroke-width="2.2" opacity="0.11"/>
<line x1="393.6" y1="651.7" x2="440.2" y2="291.1" stroke="#ffffff" stroke-width="2.2" opacity="0.10"/>
<line x1="440.2" y1="291.1" x2="257.7" y2="247.7" stroke="#ffffff" stroke-width="2.2" opacity="0.18"/>
<line x1="257.7" y1="247.7" x2="323.1" y2="638.6" stroke="#ffffff" stroke-width="2.2" opacity="0.11"/>
<line x1="323.1" y1="638.6" x2="323.8" y2="518.0" stroke="#ffffff" stroke-width="2.2" opacity="0.11"/>
<circle cx="140.4" cy="638.1" r="4.2" fill="#ffffff" opacity="0.5667161921314559"/>
<circle cx="154.5" cy="304.5" r="2.4" fill="#ffffff" opacity="0.3939445630626259"/>
<circle cx="440.2" cy="291.1" r="2.5" fill="#ffffff" opacity="0.6879705670367502"/>
<circle cx="466.9" cy="408.7" r="3.5" fill="#ffffff" opacity="0.76562205097871"/>
<circle cx="323.8" cy="518.0" r="3.9" fill="#ffffff" opacity="0.7487590956450346"/>
<circle cx="141.8" cy="586.1" r="3.3" fill="#ffffff" opacity="0.6798394210766385"/>
<circle cx="269.3" cy="463.1" r="4.7" fill="#ffffff" opacity="0.7687003768267745"/>
<circle cx="257.7" cy="247.7" r="3.5" fill="#ffffff" opacity="0.35513788553099146"/>
<circle cx="535.2" cy="283.4" r="2.7" fill="#ffffff" opacity="0.47350423552904775"/>
<circle cx="323.1" cy="638.6" r="3.7" fill="#ffffff" opacity="0.743951969767587"/>
<circle cx="605.0" cy="260.0" r="3.2" fill="#ffffff" opacity="0.8373763801849116"/>
<circle cx="393.6" cy="651.7" r="4.4" fill="#ffffff" opacity="0.8433055848613148"/>
<circle cx="226.8" cy="636.6" r="2.1" fill="#ffffff" opacity="0.4617732091510096"/>
<circle cx="128.1" cy="633.4" r="3.2" fill="#ffffff" opacity="0.29485850473366715"/>
<rect x="42" y="1030" width="666" height="160" rx="30" fill="#ffffffd9" stroke="#1E1B2E" stroke-width="4" opacity="0.95"/>
<text x="375.0" y="1104" font-family="ui-sans-serif, system-ui, -apple-system, Segoe UI, Roboto, Helvetica, Arial" font-size="46" font-weight="900" text-anchor="middle" fill="#1E1B2E" opacity="0.98">2 of Pentacles</text>
<text x="375.0" y="1152" font-family="ui-sans-serif, system-ui, -apple-system, Segoe UI, Roboto, Helvetica, Arial" font-size="28" font-weight="700" text-anchor="middle" fill="#1E1B2E" opacity="0.7">Choices</text>

    <g opacity="0.55">
      <circle cx="127" cy="1176" r="14" fill="#2EC4B6"/>
      <circle cx="623" cy="1176" r="14" fill="#2EC4B6"/>
      <path d="M 162 1176 L 588 1176" stroke="#2EC4B6" stroke-width="4" opacity="0.45" stroke-linecap="round"/>
    </g>
    
</svg>
