<svg xmlns="http://www.w3.org/2000/svg" width="750" height="1250" viewBox="0 0 750 1250">
  <title>3 of Pentacles</title>


  <defs>
    <linearGradient id="g" x1="0" y1="0" x2="1" y2="1">
      <stop offset="0%" stop-color="#FFF0F3"/>
      <stop offset="100%" stop-color="#E6FFF5"/>
    </linearGradient>

    <!-- paper texture -->
    <filter id="paper" x="-20%" y="-20%" width="140%" height="140%">
      <feTurbulence type="fractalNoise" baseFrequency="0.013" numOctaves="3" seed="2349" result="noise"/>
      <feColorMatrix in="noise" type="matrix"
        values="1 0 0 0 0
                0 1 0 0 0
                0 0 1 0 0
                0 0 0 0.25 0" result="noiseAlpha"/>
      <feComposite in="noiseAlpha" in2="SourceGraphic" operator="over"/>
    </filter>

    <!-- soft glow -->
    <filter id="glow" x="-30%" y="-30%" width="160%" height="160%">
      <feGaussianBlur stdDeviation="10" result="blur"/>
      <feColorMatrix type="matrix" values="
        1 0 0 0 0
        0 1 0 0 0
        0 0 1 0 0
        0 0 0 0.32 0" result="blurAlpha"/>
      <feMerge>
        <feMergeNode in="blurAlpha"/>
        <feMergeNode in="SourceGraphic"/>
      </feMerge>
    </filter>
  </defs>

<rect x="0" y="0" width="750" height="1250" rx="58" ry="58" fill="url(#g)" stroke="none" stroke-width="0" opacity="1"/>
<rect x="0" y="0" width="750" height="1250" fill="#ffffff" opacity="0.08"/>
<line x1="673.1" y1="164.3" x2="238.5" y2="122.0" stroke="#ffffff" stroke-width="2.2" opacity="0.14"/>
<line x1="238.5" y1="122.0" x2="414.9" y2="346.1" stroke="#ffffff" stroke-width="2.2" opacity="0.09"/>
<line x1="414.9" y1="346.1" x2="584.5" y2="1168.8" stroke="#ffffff" stroke-width="2.2" opacity="0.21"/>
<line x1="584.5" y1="1168.8" x2="64.3" y2="602.1" stroke="#ffffff" stroke-width="2.2" opacity="0.14"/>
<line x1="64.3" y1="602.1" x2="426.3" y2="329.0" stroke="#ffffff" stroke-width="2.2" opacity="0.08"/>
<line x1="426.3" y1="329.0" x2="293.0" y2="596.0" stroke="#ffffff" stroke-width="2.2" opacity="0.12"/>
<line x1="293.0" y1="596.0" x2="207.7" y2="242.5" stroke="#ffffff" stroke-width="2.2" opacity="0.14"/>
<line x1="207.7" y1="242.5" x2="343.5" y2="772.5" stroke="#ffffff" stroke-width="2.2" opacity="0.11"/>
<line x1="343.5" y1="772.5" x2="166.6" y2="339.7" stroke="#ffffff" stroke-width="2.2" opacity="0.21"/>
<line x1="166.6" y1="339.7" x2="196.1" y2="1009.7" stroke="#ffffff" stroke-width="2.2" opacity="0.11"/>
<line x1="196.1" y1="1009.7" x2="330.2" y2="870.4" stroke="#ffffff" stroke-width="2.2" opacity="0.21"/>
<line x1="330.2" y1="870.4" x2="157.9" y2="689.2" stroke="#ffffff" stroke-width="2.2" opacity="0.21"/>
<line x1="157.9" y1="689.2" x2="683.1" y2="218.4" stroke="#ffffff" stroke-width="2.2" opacity="0.17"/>
<line x1="683.1" y1="218.4" x2="490.2" y2="375.6" stroke="#ffffff" stroke-width="2.2" opacity="0.12"/>
<line x1="490.2" y1="375.6" x2="335.3" y2="850.2" stroke="#ffffff" stroke-width="2.2" opacity="0.13"/>
<line x1="335.3" y1="850.2" x2="347.6" y2="1147.6" stroke="#ffffff" stroke-width="2.2" opacity="0.15"/>
<line x1="347.6" y1="1147.6" x2="400.2" y2="793.7" stroke="#ffffff" stroke-width="2.2" opacity="0.14"/>
<line x1="400.2" y1="793.7" x2="89.6" y2="1143.1" stroke="#ffffff" stroke-width="2.2" opacity="0.11"/>
<circle cx="51.1" cy="1107.8" r="4.3" fill="#ffffff" opacity="0.5280161000457406"/>
<circle cx="142.5" cy="1193.7" r="3.7" fill="#ffffff" opacity="0.5234381896617782"/>
<circle cx="584.5" cy="1168.8" r="3.5" fill="#ffffff" opacity="0.8189256988606387"/>
<circle cx="166.6" cy="339.7" r="4.2" fill="#ffffff" opacity="0.7356454930257268"/>
<circle cx="97.4" cy="184.4" r="4.1" fill="#ffffff" opacity="0.35089148607768306"/>
<circle cx="673.1" cy="164.3" r="2.1" fill="#ffffff" opacity="0.44750275484996194"/>
<circle cx="188.9" cy="729.8" r="4.2" fill="#ffffff" opacity="0.520150735919231"/>
<circle cx="578.5" cy="866.0" r="4.5" fill="#ffffff" opacity="0.2873556923403822"/>
<circle cx="551.8" cy="970.4" r="4.8" fill="#ffffff" opacity="0.32679492032852775"/>
<circle cx="79.8" cy="775.8" r="1.7" fill="#ffffff" opacity="0.5848207129198404"/>
<circle cx="225.5" cy="746.3" r="4.7" fill="#ffffff" opacity="0.7462262871027356"/>
<circle cx="335.3" cy="850.2" r="4.2" fill="#ffffff" opacity="0.5789173241607786"/>
<circle cx="513.8" cy="1113.8" r="2.3" fill="#ffffff" opacity="0.4059884724925233"/>
<circle cx="220.3" cy="324.7" r="1.6" fill="#ffffff" opacity="0.5574001376408229"/>
<circle cx="510.7" cy="484.3" r="2.7" fill="#ffffff" opacity="0.4324169304974138"/>
<circle cx="343.5" cy="772.5" r="3.0" fill="#ffffff" opacity="0.6001776576795377"/>
<circle cx="426.3" cy="329.0" r="2.2" fill="#ffffff" opacity="0.6695445895589532"/>
<circle cx="683.1" cy="218.4" r="2.2" fill="#ffffff" opacity="0.5351884733081216"/>
<circle cx="707.2" cy="1048.3" r="4.0" fill="#ffffff" opacity="0.2522087490165687"/>
<circle cx="421.0" cy="550.8" r="2.1" fill="#ffffff" opacity="0.6833037958061801"/>
<circle cx="163.5" cy="469.4" r="3.0" fill="#ffffff" opacity="0.2838624473724882"/>
<circle cx="400.2" cy="793.7" r="3.4" fill="#ffffff" opacity="0.4755636769148527"/>
<circle cx="347.6" cy="1147.6" r="3.4" fill="#ffffff" opacity="0.8150296082146187"/>
<circle cx="584.6" cy="54.3" r="2.1" fill="#ffffff" opacity="0.4599264019756686"/>
<circle cx="89.6" cy="1143.1" r="3.3" fill="#ffffff" opacity="0.7360014155818471"/>
<circle cx="64.3" cy="602.1" r="1.9" fill="#ffffff" opacity="0.38085547914430096"/>
<circle cx="179.6" cy="375.0" r="1.7" fill="#ffffff" opacity="0.5576425215917704"/>
<circle cx="153.4" cy="1170.9" r="3.2" fill="#ffffff" opacity="0.43241248870962257"/>
<circle cx="356.1" cy="965.3" r="2.3" fill="#ffffff" opacity="0.6312076571740023"/>
<circle cx="445.1" cy="864.2" r="3.9" fill="#ffffff" opacity="0.84879734296786"/>
<circle cx="196.1" cy="1009.7" r="1.7" fill="#ffffff" opacity="0.5238682592636694"/>
<circle cx="587.8" cy="575.0" r="4.7" fill="#ffffff" opacity="0.7645414674123471"/>
<circle cx="451.1" cy="1000.6" r="1.9" fill="#ffffff" opacity="0.6486662453857424"/>
<circle cx="263.9" cy="676.1" r="4.2" fill="#ffffff" opacity="0.32167444123244504"/>
<circle cx="69.0" cy="493.4" r="3.0" fill="#ffffff" opacity="0.8345250213960622"/>
<circle cx="324.3" cy="321.0" r="4.3" fill="#ffffff" opacity="0.4476143926622531"/>
<circle cx="332.7" cy="283.3" r="2.6" fill="#ffffff" opacity="0.5751203954198616"/>
<circle cx="575.4" cy="579.4" r="2.8" fill="#ffffff" opacity="0.6277845483286844"/>
<circle cx="207.7" cy="242.5" r="2.8" fill="#ffffff" opacity="0.7379375621443394"/>
<circle cx="157.9" cy="689.2" r="4.7" fill="#ffffff" opacity="0.5461011858085365"/>
<circle cx="645.9" cy="385.6" r="4.8" fill="#ffffff" opacity="0.6604438652107703"/>
<circle cx="293.0" cy="596.0" r="1.7" fill="#ffffff" opacity="0.5609733761435363"/>
<circle cx="118.1" cy="520.4" r="4.4" fill="#ffffff" opacity="0.5107369196212792"/>
<circle cx="238.5" cy="122.0" r="3.4" fill="#ffffff" opacity="0.2982061250674895"/>
<circle cx="175.6" cy="758.6" r="3.1" fill="#ffffff" opacity="0.36835425345880607"/>
<circle cx="349.7" cy="425.2" r="4.3" fill="#ffffff" opacity="0.41767829261856604"/>
<circle cx="490.2" cy="375.6" r="3.4" fill="#ffffff" opacity="0.7839716232504697"/>
<circle cx="330.2" cy="870.4" r="2.5" fill="#ffffff" opacity="0.5527667094054319"/>
<circle cx="620.6" cy="65.2" r="4.4" fill="#ffffff" opacity="0.4193339513133968"/>
<circle cx="414.9" cy="346.1" r="1.9" fill="#ffffff" opacity="0.2854929077622468"/>
<g filter="url(#paper)"><rect x="42" y="42" width="666" height="1166" rx="54" ry="54" fill="none" stroke="#1E1B2E" stroke-width="8" opacity="0.95"/>
<rect x="60" y="60" width="630" height="1130" rx="46" ry="46" fill="none" stroke="#2EC4B6" stroke-width="3" opacity="0.35"/>

  <g opacity="0.42">
    <circle cx="375.0" cy="560" r="285" fill="none" stroke="#2EC4B6" stroke-width="4.2" opacity="0.42"/>
    <circle cx="375.0" cy="560" r="233.7" fill="none" stroke="#2EC4B6" stroke-width="2.2" opacity="0.23"/>
    <line x1="642.0" y1="560.0" x2="674.0" y2="560.0" stroke="#2EC4B6" stroke-width="3.2" opacity="0.23" stroke-linecap="round"/><line x1="606.2" y1="693.5" x2="633.9" y2="709.5" stroke="#2EC4B6" stroke-width="3.2" opacity="0.23" stroke-linecap="round"/><line x1="508.5" y1="791.2" x2="524.5" y2="818.9" stroke="#2EC4B6" stroke-width="3.2" opacity="0.23" stroke-linecap="round"/><line x1="375.0" y1="827.0" x2="375.0" y2="859.0" stroke="#2EC4B6" stroke-width="3.2" opacity="0.23" stroke-linecap="round"/><line x1="241.5" y1="791.2" x2="225.5" y2="818.9" stroke="#2EC4B6" stroke-width="3.2" opacity="0.23" stroke-linecap="round"/><line x1="143.8" y1="693.5" x2="116.1" y2="709.5" stroke="#2EC4B6" stroke-width="3.2" opacity="0.23" stroke-linecap="round"/><line x1="108.0" y1="560.0" x2="76.0" y2="560.0" stroke="#2EC4B6" stroke-width="3.2" opacity="0.23" stroke-linecap="round"/><line x1="143.8" y1="426.5" x2="116.1" y2="410.5" stroke="#2EC4B6" stroke-width="3.2" opacity="0.23" stroke-linecap="round"/><line x1="241.5" y1="328.8" x2="225.5" y2="301.1" stroke="#2EC4B6" stroke-width="3.2" opacity="0.23" stroke-linecap="round"/><line x1="375.0" y1="293.0" x2="375.0" y2="261.0" stroke="#2EC4B6" stroke-width="3.2" opacity="0.23" stroke-linecap="round"/><line x1="508.5" y1="328.8" x2="524.5" y2="301.1" stroke="#2EC4B6" stroke-width="3.2" opacity="0.23" stroke-linecap="round"/><line x1="606.2" y1="426.5" x2="633.9" y2="410.5" stroke="#2EC4B6" stroke-width="3.2" opacity="0.23" stroke-linecap="round"/>
    <circle cx="659.9" cy="566.0" r="3.1" fill="#2EC4B6" opacity="0.34"/><circle cx="649.6" cy="636.4" r="3.9" fill="#2EC4B6" opacity="0.23"/><circle cx="620.0" cy="705.7" r="3.1" fill="#2EC4B6" opacity="0.22"/><circle cx="574.5" cy="763.5" r="3.0" fill="#2EC4B6" opacity="0.25"/><circle cx="512.0" cy="809.9" r="2.7" fill="#2EC4B6" opacity="0.28"/><circle cx="440.9" cy="837.3" r="3.6" fill="#2EC4B6" opacity="0.43"/><circle cx="378.1" cy="845.0" r="3.9" fill="#2EC4B6" opacity="0.36"/><circle cx="294.0" cy="833.2" r="3.2" fill="#2EC4B6" opacity="0.39"/><circle cx="227.4" cy="803.8" r="3.4" fill="#2EC4B6" opacity="0.21"/><circle cx="172.6" cy="760.7" r="3.3" fill="#2EC4B6" opacity="0.24"/><circle cx="125.4" cy="697.6" r="3.6" fill="#2EC4B6" opacity="0.36"/><circle cx="98.0" cy="627.0" r="3.6" fill="#2EC4B6" opacity="0.19"/><circle cx="90.2" cy="569.5" r="2.7" fill="#2EC4B6" opacity="0.42"/><circle cx="102.4" cy="476.7" r="3.1" fill="#2EC4B6" opacity="0.43"/><circle cx="125.4" cy="422.4" r="3.3" fill="#2EC4B6" opacity="0.26"/><circle cx="173.7" cy="358.3" r="4.0" fill="#2EC4B6" opacity="0.22"/><circle cx="240.7" cy="308.6" r="3.1" fill="#2EC4B6" opacity="0.31"/><circle cx="298.2" cy="285.5" r="4.0" fill="#2EC4B6" opacity="0.32"/><circle cx="380.1" cy="275.0" r="3.3" fill="#2EC4B6" opacity="0.34"/><circle cx="452.3" cy="285.7" r="3.2" fill="#2EC4B6" opacity="0.30"/><circle cx="525.9" cy="318.2" r="3.9" fill="#2EC4B6" opacity="0.39"/><circle cx="570.8" cy="352.9" r="3.0" fill="#2EC4B6" opacity="0.34"/><circle cx="623.3" cy="420.0" r="3.5" fill="#2EC4B6" opacity="0.23"/><circle cx="648.6" cy="480.1" r="3.9" fill="#2EC4B6" opacity="0.21"/>
  </g>

<g><g transform="translate(50,54)"><path d="M 32.4 126.0 C 63.0 54.0, 111.6 32.4, 158.4 39.6" fill="none" stroke="#2EC4B6" stroke-width="6" opacity="0.55" stroke-linecap="round"/></g><g transform="translate(700,54) scale(-1,1)"><path d="M 32.4 126.0 C 63.0 54.0, 111.6 32.4, 158.4 39.6" fill="none" stroke="#2EC4B6" stroke-width="6" opacity="0.55" stroke-linecap="round"/></g><g transform="translate(50,1196) scale(1,-1)"><path d="M 32.4 126.0 C 63.0 54.0, 111.6 32.4, 158.4 39.6" fill="none" stroke="#2EC4B6" stroke-width="6" opacity="0.55" stroke-linecap="round"/></g><g transform="translate(700,1196) scale(-1,-1)"><path d="M 32.4 126.0 C 63.0 54.0, 111.6 32.4, 158.4 39.6" fill="none" stroke="#2EC4B6" stroke-width="6" opacity="0.55" stroke-linecap="round"/></g></g></g>
<rect x="42" y="60" width="666" height="92" rx="30" fill="#ffffffcc" stroke="#1E1B2E" stroke-width="4" opacity="0.95"/>
<text x="375.0" y="122" font-family="ui-sans-serif, system-ui, -apple-system, Segoe UI, Roboto, Helvetica, Arial" font-size="30" font-weight="800" text-anchor="middle" fill="#1E1B2E" opacity="0.95" letter-spacing="1">MINOR ARCANA • PENTACLES</text>
<rect x="76" y="170" width="598" height="760" rx="52" fill="#ffffff" opacity="0.15"/>
<g><circle cx="606.7" cy="278.7" r="2.9" fill="#2EC4B6" opacity="0.07"/><circle cx="407.9" cy="449.1" r="2.9" fill="#2EC4B6" opacity="0.07"/><circle cx="162.8" cy="739.3" r="2.2" fill="#2EC4B6" opacity="0.07"/><circle cx="255.5" cy="680.4" r="1.8" fill="#2EC4B6" opacity="0.07"/><circle cx="655.0" cy="411.4" r="1.7" fill="#2EC4B6" opacity="0.07"/><circle cx="374.0" cy="644.5" r="3.2" fill="#2EC4B6" opacity="0.07"/><circle cx="626.1" cy="544.8" r="2.8" fill="#2EC4B6" opacity="0.07"/><circle cx="584.3" cy="197.4" r="2.8" fill="#2EC4B6" opacity="0.07"/><circle cx="322.7" cy="192.4" r="2.0" fill="#2EC4B6" opacity="0.07"/><circle cx="468.0" cy="767.3" r="2.0" fill="#2EC4B6" opacity="0.07"/><circle cx="514.2" cy="541.2" r="2.5" fill="#2EC4B6" opacity="0.07"/><circle cx="579.8" cy="228.4" r="1.6" fill="#2EC4B6" opacity="0.07"/><circle cx="393.1" cy="702.5" r="2.4" fill="#2EC4B6" opacity="0.07"/><circle cx="656.4" cy="830.2" r="2.2" fill="#2EC4B6" opacity="0.07"/><circle cx="74.8" cy="657.1" r="2.4" fill="#2EC4B6" opacity="0.07"/><circle cx="448.6" cy="449.5" r="1.6" fill="#2EC4B6" opacity="0.07"/><circle cx="178.6" cy="656.8" r="2.8" fill="#2EC4B6" opacity="0.07"/><circle cx="244.8" cy="430.4" r="2.5" fill="#2EC4B6" opacity="0.07"/><circle cx="535.1" cy="673.9" r="2.9" fill="#2EC4B6" opacity="0.07"/><circle cx="494.3" cy="805.8" r="1.9" fill="#2EC4B6" opacity="0.07"/><circle cx="373.6" cy="278.8" r="2.4" fill="#2EC4B6" opacity="0.07"/><circle cx="476.2" cy="525.2" r="2.3" fill="#2EC4B6" opacity="0.07"/><circle cx="137.8" cy="837.3" r="2.2" fill="#2EC4B6" opacity="0.07"/><circle cx="66.6" cy="708.1" r="1.5" fill="#2EC4B6" opacity="0.07"/><circle cx="526.8" cy="463.3" r="2.2" fill="#2EC4B6" opacity="0.07"/><circle cx="157.1" cy="526.1" r="2.8" fill="#2EC4B6" opacity="0.07"/><circle cx="310.7" cy="235.0" r="2.0" fill="#2EC4B6" opacity="0.07"/><circle cx="417.4" cy="682.1" r="2.3" fill="#2EC4B6" opacity="0.07"/><circle cx="208.4" cy="676.5" r="2.3" fill="#2EC4B6" opacity="0.07"/><circle cx="69.4" cy="632.5" r="3.0" fill="#2EC4B6" opacity="0.07"/><circle cx="141.5" cy="644.8" r="1.7" fill="#2EC4B6" opacity="0.07"/><circle cx="424.9" cy="546.7" r="2.0" fill="#2EC4B6" opacity="0.07"/><circle cx="642.5" cy="256.1" r="3.0" fill="#2EC4B6" opacity="0.07"/><circle cx="188.2" cy="830.3" r="2.9" fill="#2EC4B6" opacity="0.07"/><circle cx="179.9" cy="653.7" r="3.0" fill="#2EC4B6" opacity="0.07"/><circle cx="455.8" cy="468.0" r="3.0" fill="#2EC4B6" opacity="0.07"/><circle cx="74.6" cy="621.0" r="2.3" fill="#2EC4B6" opacity="0.07"/><circle cx="576.0" cy="877.3" r="2.7" fill="#2EC4B6" opacity="0.07"/><circle cx="177.0" cy="197.7" r="2.5" fill="#2EC4B6" opacity="0.07"/><circle cx="505.6" cy="223.6" r="2.1" fill="#2EC4B6" opacity="0.07"/><circle cx="388.9" cy="588.5" r="2.2" fill="#2EC4B6" opacity="0.07"/><circle cx="254.0" cy="815.1" r="3.1" fill="#2EC4B6" opacity="0.07"/><circle cx="649.3" cy="325.3" r="2.9" fill="#2EC4B6" opacity="0.07"/><circle cx="650.1" cy="325.3" r="2.4" fill="#2EC4B6" opacity="0.07"/><circle cx="674.4" cy="214.4" r="3.0" fill="#2EC4B6" opacity="0.07"/><circle cx="570.8" cy="807.0" r="2.1" fill="#2EC4B6" opacity="0.07"/><circle cx="189.4" cy="906.5" r="2.4" fill="#2EC4B6" opacity="0.07"/><circle cx="410.7" cy="565.1" r="1.9" fill="#2EC4B6" opacity="0.07"/><circle cx="279.5" cy="887.5" r="2.8" fill="#2EC4B6" opacity="0.07"/><circle cx="698.4" cy="668.5" r="2.2" fill="#2EC4B6" opacity="0.07"/><circle cx="657.8" cy="253.1" r="2.0" fill="#2EC4B6" opacity="0.07"/><circle cx="235.1" cy="556.3" r="2.4" fill="#2EC4B6" opacity="0.07"/><circle cx="421.7" cy="454.0" r="1.7" fill="#2EC4B6" opacity="0.07"/><circle cx="487.5" cy="292.9" r="2.0" fill="#2EC4B6" opacity="0.07"/><circle cx="392.1" cy="300.9" r="2.1" fill="#2EC4B6" opacity="0.07"/><circle cx="123.8" cy="633.0" r="2.2" fill="#2EC4B6" opacity="0.07"/><circle cx="445.7" cy="218.1" r="2.7" fill="#2EC4B6" opacity="0.07"/><circle cx="542.5" cy="517.6" r="1.5" fill="#2EC4B6" opacity="0.07"/><circle cx="331.6" cy="656.4" r="2.7" fill="#2EC4B6" opacity="0.07"/><circle cx="336.5" cy="791.7" r="2.6" fill="#2EC4B6" opacity="0.07"/><circle cx="71.3" cy="746.6" r="3.0" fill="#2EC4B6" opacity="0.07"/><circle cx="533.7" cy="646.8" r="1.7" fill="#2EC4B6" opacity="0.07"/><circle cx="558.0" cy="564.7" r="2.8" fill="#2EC4B6" opacity="0.07"/><circle cx="250.1" cy="684.9" r="1.7" fill="#2EC4B6" opacity="0.07"/><circle cx="357.2" cy="757.7" r="2.9" fill="#2EC4B6" opacity="0.07"/><circle cx="221.8" cy="513.2" r="1.8" fill="#2EC4B6" opacity="0.07"/><circle cx="672.4" cy="823.3" r="2.1" fill="#2EC4B6" opacity="0.07"/><circle cx="130.5" cy="839.2" r="1.5" fill="#2EC4B6" opacity="0.07"/><circle cx="183.6" cy="334.7" r="1.9" fill="#2EC4B6" opacity="0.07"/><circle cx="680.5" cy="844.8" r="1.8" fill="#2EC4B6" opacity="0.07"/><circle cx="621.1" cy="282.3" r="1.8" fill="#2EC4B6" opacity="0.07"/><circle cx="258.1" cy="483.7" r="2.8" fill="#2EC4B6" opacity="0.07"/><circle cx="237.6" cy="453.7" r="2.1" fill="#2EC4B6" opacity="0.07"/><circle cx="209.2" cy="401.7" r="2.7" fill="#2EC4B6" opacity="0.07"/><circle cx="391.1" cy="569.6" r="2.0" fill="#2EC4B6" opacity="0.07"/><circle cx="99.3" cy="752.2" r="2.1" fill="#2EC4B6" opacity="0.07"/><circle cx="129.7" cy="909.0" r="2.8" fill="#2EC4B6" opacity="0.07"/><circle cx="93.6" cy="411.7" r="3.1" fill="#2EC4B6" opacity="0.07"/><circle cx="298.5" cy="604.4" r="3.1" fill="#2EC4B6" opacity="0.07"/><circle cx="433.6" cy="490.9" r="2.7" fill="#2EC4B6" opacity="0.07"/><circle cx="297.0" cy="434.1" r="2.4" fill="#2EC4B6" opacity="0.07"/><circle cx="554.4" cy="847.4" r="2.8" fill="#2EC4B6" opacity="0.07"/><circle cx="639.9" cy="323.3" r="2.1" fill="#2EC4B6" opacity="0.07"/><circle cx="570.9" cy="686.5" r="1.9" fill="#2EC4B6" opacity="0.07"/><circle cx="635.5" cy="569.3" r="2.3" fill="#2EC4B6" opacity="0.07"/><circle cx="566.5" cy="481.4" r="1.5" fill="#2EC4B6" opacity="0.07"/><circle cx="309.8" cy="548.9" r="2.5" fill="#2EC4B6" opacity="0.07"/><circle cx="642.3" cy="476.0" r="2.6" fill="#2EC4B6" opacity="0.07"/><circle cx="195.3" cy="403.6" r="3.0" fill="#2EC4B6" opacity="0.07"/><circle cx="229.6" cy="898.1" r="1.8" fill="#2EC4B6" opacity="0.07"/><circle cx="364.0" cy="723.5" r="1.9" fill="#2EC4B6" opacity="0.07"/><circle cx="435.3" cy="556.7" r="3.1" fill="#2EC4B6" opacity="0.07"/><circle cx="144.5" cy="869.0" r="2.7" fill="#2EC4B6" opacity="0.07"/><circle cx="585.1" cy="313.9" r="2.6" fill="#2EC4B6" opacity="0.07"/><circle cx="597.0" cy="748.5" r="3.1" fill="#2EC4B6" opacity="0.07"/><circle cx="689.0" cy="540.9" r="2.9" fill="#2EC4B6" opacity="0.07"/><circle cx="60.0" cy="603.0" r="3.1" fill="#2EC4B6" opacity="0.07"/><circle cx="534.7" cy="201.1" r="2.9" fill="#2EC4B6" opacity="0.07"/><circle cx="701.3" cy="842.4" r="2.3" fill="#2EC4B6" opacity="0.07"/><circle cx="466.7" cy="309.7" r="3.0" fill="#2EC4B6" opacity="0.07"/><circle cx="599.2" cy="309.8" r="1.8" fill="#2EC4B6" opacity="0.07"/><circle cx="695.4" cy="273.4" r="2.8" fill="#2EC4B6" opacity="0.07"/><circle cx="429.9" cy="570.5" r="2.7" fill="#2EC4B6" opacity="0.07"/><circle cx="618.8" cy="374.1" r="2.9" fill="#2EC4B6" opacity="0.07"/><circle cx="107.9" cy="378.6" r="1.5" fill="#2EC4B6" opacity="0.07"/><circle cx="551.4" cy="520.6" r="2.4" fill="#2EC4B6" opacity="0.07"/><circle cx="484.4" cy="469.8" r="1.6" fill="#2EC4B6" opacity="0.07"/><circle cx="633.3" cy="724.7" r="2.2" fill="#2EC4B6" opacity="0.07"/><circle cx="53.3" cy="846.7" r="3.1" fill="#2EC4B6" opacity="0.07"/><circle cx="683.2" cy="744.2" r="1.8" fill="#2EC4B6" opacity="0.07"/></g><g><g opacity="0.55">
    <g>
      <circle cx="396.2913256952792" cy="411.0821227129245" r="44.8" fill="#ffffff" opacity="0.75" stroke="#1E1B2E" stroke-width="7"/>
      <circle cx="396.2913256952792" cy="411.0821227129245" r="33.0" fill="none" stroke="#2EC4B6" stroke-width="6" opacity="0.45"/>
      <polygon points="396.29,369.08 406.50,397.04 436.24,398.10 412.80,416.45 420.98,445.06 396.29,428.44 371.60,445.06 379.78,416.45 356.35,398.10 386.09,397.04" fill="none" stroke="#1E1B2E" stroke-width="8" stroke-linejoin="round" opacity="0.95"/>
      <circle cx="396.2913256952792" cy="411.0821227129245" r="5.0" fill="#2EC4B6" opacity="0.55"/>
      <path d="M 369.7 430.7 Q 396.2913256952792 454.5 422.9 430.7" fill="none" stroke="#2EC4B6" stroke-width="7" opacity="0.35" stroke-linecap="round"/>
    </g>
    </g><g opacity="0.55">
    <g>
      <circle cx="561.8891558603743" cy="715.7728741439698" r="44.8" fill="#ffffff" opacity="0.75" stroke="#1E1B2E" stroke-width="7"/>
      <circle cx="561.8891558603743" cy="715.7728741439698" r="33.0" fill="none" stroke="#2EC4B6" stroke-width="6" opacity="0.45"/>
      <polygon points="561.89,673.77 572.09,701.73 601.83,702.79 578.40,721.14 586.58,749.75 561.89,733.13 537.20,749.75 545.38,721.14 521.94,702.79 551.69,701.73" fill="none" stroke="#1E1B2E" stroke-width="8" stroke-linejoin="round" opacity="0.95"/>
      <circle cx="561.8891558603743" cy="715.7728741439698" r="5.0" fill="#2EC4B6" opacity="0.55"/>
      <path d="M 535.3 735.4 Q 561.8891558603743 759.2 588.5 735.4" fill="none" stroke="#2EC4B6" stroke-width="7" opacity="0.35" stroke-linecap="round"/>
    </g>
    </g><g opacity="0.55">
    <g>
      <circle cx="196.66109946670522" cy="730.8838877230393" r="44.8" fill="#ffffff" opacity="0.75" stroke="#1E1B2E" stroke-width="7"/>
      <circle cx="196.66109946670522" cy="730.8838877230393" r="33.0" fill="none" stroke="#2EC4B6" stroke-width="6" opacity="0.45"/>
      <polygon points="196.66,688.88 206.87,716.84 236.61,717.91 213.17,736.25 221.35,764.86 196.66,748.24 171.97,764.86 180.15,736.25 156.72,717.91 186.46,716.84" fill="none" stroke="#1E1B2E" stroke-width="8" stroke-linejoin="round" opacity="0.95"/>
      <circle cx="196.66109946670522" cy="730.8838877230393" r="5.0" fill="#2EC4B6" opacity="0.55"/>
      <path d="M 170.1 750.5 Q 196.66109946670522 774.3 223.3 750.5" fill="none" stroke="#2EC4B6" stroke-width="7" opacity="0.35" stroke-linecap="round"/>
    </g>
    </g></g>
        <g opacity="0.55" filter="url(#glow)">
          <polygon points="255.00,350.00 271.46,397.35 321.57,398.37 281.63,428.65 296.14,476.63 255.00,448.00 213.86,476.63 228.37,428.65 188.43,398.37 238.54,397.35" fill="#ffffff"/>
          <polygon points="495.00,350.00 511.46,397.35 561.57,398.37 521.63,428.65 536.14,476.63 495.00,448.00 453.86,476.63 468.37,428.65 428.43,398.37 478.54,397.35" fill="#ffffff"/>
          <polygon points="375.00,405.00 394.98,462.49 455.84,463.73 407.34,500.51 424.96,558.77 375.00,524.00 325.04,558.77 342.66,500.51 294.16,463.73 355.02,462.49" fill="#2EC4B6" opacity="0.35"/>
        </g>
        
        <g filter="url(#glow)">
          <circle cx="375.0" cy="630" r="170" fill="#ffffff" opacity="0.40" stroke="#2EC4B6" stroke-width="7"/>
          
    <g>
      <circle cx="375.0" cy="630" r="115.2" fill="#ffffff" opacity="0.75" stroke="#1E1B2E" stroke-width="7"/>
      <circle cx="375.0" cy="630" r="85.0" fill="none" stroke="#2EC4B6" stroke-width="6" opacity="0.45"/>
      <polygon points="375.00,522.00 401.24,593.89 477.71,596.63 417.46,643.79 438.48,717.37 375.00,674.64 311.52,717.37 332.54,643.79 272.29,596.63 348.76,593.89" fill="none" stroke="#1E1B2E" stroke-width="8" stroke-linejoin="round" opacity="0.95"/>
      <circle cx="375.0" cy="630" r="13.0" fill="#2EC4B6" opacity="0.55"/>
      <path d="M 306.6 680.4 Q 375.0 741.6 443.4 680.4" fill="none" stroke="#2EC4B6" stroke-width="7" opacity="0.35" stroke-linecap="round"/>
    </g>
    
        </g>
        <line x1="615.3" y1="665.2" x2="341.8" y2="396.6" stroke="#ffffff" stroke-width="2.2" opacity="0.12"/>
<line x1="341.8" y1="396.6" x2="438.2" y2="235.6" stroke="#ffffff" stroke-width="2.2" opacity="0.14"/>
<line x1="438.2" y1="235.6" x2="568.1" y2="322.9" stroke="#ffffff" stroke-width="2.2" opacity="0.15"/>
<line x1="568.1" y1="322.9" x2="487.2" y2="674.9" stroke="#ffffff" stroke-width="2.2" opacity="0.17"/>
<line x1="487.2" y1="674.9" x2="343.7" y2="373.6" stroke="#ffffff" stroke-width="2.2" opacity="0.17"/>
<line x1="343.7" y1="373.6" x2="386.7" y2="314.2" stroke="#ffffff" stroke-width="2.2" opacity="0.17"/>
<circle cx="591.3" cy="288.2" r="4.2" fill="#ffffff" opacity="0.3204597153266538"/>
<circle cx="568.1" cy="322.9" r="3.1" fill="#ffffff" opacity="0.2876091391410325"/>
<circle cx="186.0" cy="519.8" r="3.8" fill="#ffffff" opacity="0.779975936561303"/>
<circle cx="438.2" cy="235.6" r="3.0" fill="#ffffff" opacity="0.36939333953172715"/>
<circle cx="281.5" cy="615.7" r="2.6" fill="#ffffff" opacity="0.6200670301752943"/>
<circle cx="356.0" cy="278.9" r="2.2" fill="#ffffff" opacity="0.6661421350695462"/>
<circle cx="615.3" cy="665.2" r="4.4" fill="#ffffff" opacity="0.571643540098648"/>
<circle cx="430.9" cy="368.1" r="1.7" fill="#ffffff" opacity="0.7641740028686055"/>
<circle cx="343.7" cy="373.6" r="2.4" fill="#ffffff" opacity="0.7149066605101049"/>
<circle cx="238.9" cy="659.8" r="4.0" fill="#ffffff" opacity="0.5729701078837671"/>
<circle cx="386.7" cy="314.2" r="1.8" fill="#ffffff" opacity="0.6648091941052994"/>
<circle cx="272.4" cy="518.5" r="4.2" fill="#ffffff" opacity="0.28877948673019405"/>
<circle cx="341.8" cy="396.6" r="4.2" fill="#ffffff" opacity="0.8295849647218919"/>
<circle cx="487.2" cy="674.9" r="4.1" fill="#ffffff" opacity="0.31171062859774934"/>
<rect x="42" y="1030" width="666" height="160" rx="30" fill="#ffffffd9" stroke="#1E1B2E" stroke-width="4" opacity="0.95"/>
<text x="375.0" y="1104" font-family="ui-sans-serif, system-ui, -apple-system, Segoe UI, Roboto, Helvetica, Arial" font-size="46" font-weight="900" text-anchor="middle" fill="#1E1B2E" opacity="0.98">3 of Pentacles</text>
<text x="375.0" y="1152" font-family="ui-sans-serif, system-ui, -apple-system, Segoe UI, Roboto, Helvetica, Arial" font-size="28" font-weight="700" text-anchor="middle" fill="#1E1B2E" opacity="0.7">Growth</text>

    <g opacity="0.55">
      <circle cx="127" cy="1176" r="14" fill="#2EC4B6"/>
      <circle cx="623" cy="1176" r="14" fill="#2EC4B6"/>
      <path d="M 162 1176 L 588 1176" stroke="#2EC4B6" stroke-width="4" opacity="0.45" stroke-linecap="round"/>
    </g>
    
</svg>
