<svg xmlns="http://www.w3.org/2000/svg" width="750" height="1250" viewBox="0 0 750 1250">
  <title>4 of Pentacles</title>


  <defs>
    <linearGradient id="g" x1="0" y1="0" x2="1" y2="1">
      <stop offset="0%" stop-color="#E6E9FF"/>
      <stop offset="100%" stop-color="#F9E7FF"/>
    </linearGradient>

    <!-- paper texture -->
    <filter id="paper" x="-20%" y="-20%" width="140%" height="140%">
      <feTurbulence type="fractalNoise" baseFrequency="0.016" numOctaves="3" seed="8927" result="noise"/>
      <feColorMatrix in="noise" type="matrix"
        values="1 0 0 0 0
                0 1 0 0 0
                0 0 1 0 0
                0 0 0 0.25 0" result="noiseAlpha"/>
      <feComposite in="noiseAlpha" in2="SourceGraphic" operator="over"/>
    </filter>

    <!-- soft glow -->
    <filter id="glow" x="-30%" y="-30%" width="160%" height="160%">
      <feGaussianBlur stdDeviation="10" result="blur"/>
      <feColorMatrix type="matrix" values="
        1 0 0 0 0
        0 1 0 0 0
        0 0 1 0 0
        0 0 0 0.32 0" result="blurAlpha"/>
      <feMerge>
        <feMergeNode in="blurAlpha"/>
        <feMergeNode in="SourceGraphic"/>
      </feMerge>
    </filter>
  </defs>

<rect x="0" y="0" width="750" height="1250" rx="58" ry="58" fill="url(#g)" stroke="none" stroke-width="0" opacity="1"/>
<rect x="0" y="0" width="750" height="1250" fill="#ffffff" opacity="0.08"/>
<line x1="192.8" y1="234.5" x2="186.5" y2="1099.2" stroke="#ffffff" stroke-width="2.2" opacity="0.09"/>
<line x1="186.5" y1="1099.2" x2="149.2" y2="859.4" stroke="#ffffff" stroke-width="2.2" opacity="0.19"/>
<line x1="149.2" y1="859.4" x2="102.7" y2="624.5" stroke="#ffffff" stroke-width="2.2" opacity="0.18"/>
<line x1="102.7" y1="624.5" x2="149.5" y2="1001.9" stroke="#ffffff" stroke-width="2.2" opacity="0.16"/>
<line x1="149.5" y1="1001.9" x2="582.0" y2="869.3" stroke="#ffffff" stroke-width="2.2" opacity="0.22"/>
<line x1="582.0" y1="869.3" x2="52.5" y2="492.4" stroke="#ffffff" stroke-width="2.2" opacity="0.17"/>
<line x1="52.5" y1="492.4" x2="646.1" y2="676.8" stroke="#ffffff" stroke-width="2.2" opacity="0.20"/>
<line x1="646.1" y1="676.8" x2="509.9" y2="883.4" stroke="#ffffff" stroke-width="2.2" opacity="0.16"/>
<line x1="509.9" y1="883.4" x2="640.7" y2="1180.8" stroke="#ffffff" stroke-width="2.2" opacity="0.13"/>
<line x1="640.7" y1="1180.8" x2="179.3" y2="400.4" stroke="#ffffff" stroke-width="2.2" opacity="0.18"/>
<line x1="179.3" y1="400.4" x2="551.4" y2="97.8" stroke="#ffffff" stroke-width="2.2" opacity="0.15"/>
<line x1="551.4" y1="97.8" x2="585.2" y2="1172.1" stroke="#ffffff" stroke-width="2.2" opacity="0.16"/>
<line x1="585.2" y1="1172.1" x2="657.5" y2="1172.6" stroke="#ffffff" stroke-width="2.2" opacity="0.16"/>
<line x1="657.5" y1="1172.6" x2="343.7" y2="719.6" stroke="#ffffff" stroke-width="2.2" opacity="0.21"/>
<line x1="343.7" y1="719.6" x2="274.7" y2="583.9" stroke="#ffffff" stroke-width="2.2" opacity="0.19"/>
<line x1="274.7" y1="583.9" x2="388.5" y2="972.5" stroke="#ffffff" stroke-width="2.2" opacity="0.19"/>
<line x1="388.5" y1="972.5" x2="56.3" y2="1004.1" stroke="#ffffff" stroke-width="2.2" opacity="0.19"/>
<line x1="56.3" y1="1004.1" x2="248.7" y2="249.3" stroke="#ffffff" stroke-width="2.2" opacity="0.21"/>
<circle cx="248.7" cy="249.3" r="1.8" fill="#ffffff" opacity="0.3489770874897933"/>
<circle cx="186.0" cy="907.4" r="2.3" fill="#ffffff" opacity="0.6443604092395203"/>
<circle cx="646.1" cy="676.8" r="2.7" fill="#ffffff" opacity="0.2930216681333174"/>
<circle cx="179.3" cy="400.4" r="4.3" fill="#ffffff" opacity="0.7271360667517259"/>
<circle cx="85.6" cy="820.7" r="1.8" fill="#ffffff" opacity="0.7913298562337405"/>
<circle cx="248.2" cy="95.1" r="4.5" fill="#ffffff" opacity="0.5005137203496046"/>
<circle cx="112.1" cy="896.2" r="4.1" fill="#ffffff" opacity="0.8018322933846214"/>
<circle cx="58.3" cy="269.9" r="2.3" fill="#ffffff" opacity="0.35013632507215053"/>
<circle cx="102.7" cy="624.5" r="3.5" fill="#ffffff" opacity="0.770925855891873"/>
<circle cx="149.5" cy="1001.9" r="2.1" fill="#ffffff" opacity="0.40991505894021674"/>
<circle cx="210.6" cy="800.3" r="2.5" fill="#ffffff" opacity="0.6879988580078524"/>
<circle cx="418.1" cy="765.0" r="3.3" fill="#ffffff" opacity="0.2583286922997079"/>
<circle cx="535.5" cy="285.4" r="4.3" fill="#ffffff" opacity="0.25386180523187835"/>
<circle cx="192.8" cy="234.5" r="2.2" fill="#ffffff" opacity="0.609534751932151"/>
<circle cx="551.4" cy="97.8" r="4.8" fill="#ffffff" opacity="0.2748279411638407"/>
<circle cx="657.5" cy="1172.6" r="3.2" fill="#ffffff" opacity="0.6760829970155451"/>
<circle cx="640.7" cy="1180.8" r="3.7" fill="#ffffff" opacity="0.7404679347779738"/>
<circle cx="343.7" cy="719.6" r="2.3" fill="#ffffff" opacity="0.8220572623912231"/>
<circle cx="582.0" cy="869.3" r="1.7" fill="#ffffff" opacity="0.2522807814453007"/>
<circle cx="146.4" cy="142.7" r="3.7" fill="#ffffff" opacity="0.4372648298631173"/>
<circle cx="210.3" cy="1171.4" r="3.4" fill="#ffffff" opacity="0.8325091998422723"/>
<circle cx="564.4" cy="98.7" r="4.1" fill="#ffffff" opacity="0.5419439380613273"/>
<circle cx="509.9" cy="883.4" r="4.1" fill="#ffffff" opacity="0.7622841005586999"/>
<circle cx="320.4" cy="478.6" r="2.9" fill="#ffffff" opacity="0.2843602858709801"/>
<circle cx="186.5" cy="1099.2" r="3.7" fill="#ffffff" opacity="0.2939713056658163"/>
<circle cx="393.9" cy="912.1" r="2.1" fill="#ffffff" opacity="0.676921103448316"/>
<circle cx="585.2" cy="1172.1" r="2.7" fill="#ffffff" opacity="0.3523528126056058"/>
<circle cx="274.7" cy="583.9" r="2.7" fill="#ffffff" opacity="0.739031180864195"/>
<circle cx="632.1" cy="93.0" r="3.1" fill="#ffffff" opacity="0.5924804757016504"/>
<circle cx="126.6" cy="249.1" r="2.0" fill="#ffffff" opacity="0.4940588731194321"/>
<circle cx="171.0" cy="1072.3" r="4.7" fill="#ffffff" opacity="0.678563871443663"/>
<circle cx="208.1" cy="729.5" r="4.6" fill="#ffffff" opacity="0.6754834531667182"/>
<circle cx="581.0" cy="262.4" r="2.9" fill="#ffffff" opacity="0.3238830267520838"/>
<circle cx="466.2" cy="404.7" r="2.8" fill="#ffffff" opacity="0.8095082032472021"/>
<circle cx="449.4" cy="854.6" r="1.8" fill="#ffffff" opacity="0.3924024335337647"/>
<circle cx="628.0" cy="947.2" r="4.6" fill="#ffffff" opacity="0.36164227402602156"/>
<circle cx="52.5" cy="492.4" r="3.1" fill="#ffffff" opacity="0.41420484893798193"/>
<circle cx="447.5" cy="532.1" r="3.8" fill="#ffffff" opacity="0.7708114873623213"/>
<circle cx="222.0" cy="137.4" r="3.9" fill="#ffffff" opacity="0.7444950182156269"/>
<circle cx="673.0" cy="1107.8" r="4.7" fill="#ffffff" opacity="0.5164871864785081"/>
<circle cx="111.2" cy="814.9" r="4.6" fill="#ffffff" opacity="0.3917061645827915"/>
<circle cx="472.6" cy="408.1" r="3.3" fill="#ffffff" opacity="0.6626375504072948"/>
<circle cx="388.5" cy="972.5" r="2.7" fill="#ffffff" opacity="0.3127447666541199"/>
<circle cx="597.8" cy="1047.3" r="1.9" fill="#ffffff" opacity="0.612325846584608"/>
<circle cx="182.1" cy="354.6" r="3.7" fill="#ffffff" opacity="0.7022195251521212"/>
<circle cx="56.3" cy="1004.1" r="4.5" fill="#ffffff" opacity="0.7092749328590963"/>
<circle cx="646.2" cy="234.9" r="3.9" fill="#ffffff" opacity="0.38764396679861945"/>
<circle cx="258.2" cy="176.4" r="2.3" fill="#ffffff" opacity="0.7455260552077354"/>
<circle cx="149.2" cy="859.4" r="1.7" fill="#ffffff" opacity="0.45997982261986625"/>
<circle cx="590.3" cy="599.3" r="4.4" fill="#ffffff" opacity="0.3875553957941773"/>
<g filter="url(#paper)"><rect x="42" y="42" width="666" height="1166" rx="54" ry="54" fill="none" stroke="#1E1B2E" stroke-width="8" opacity="0.95"/>
<rect x="60" y="60" width="630" height="1130" rx="46" ry="46" fill="none" stroke="#2EC4B6" stroke-width="3" opacity="0.35"/>

  <g opacity="0.42">
    <circle cx="375.0" cy="560" r="285" fill="none" stroke="#2EC4B6" stroke-width="4.2" opacity="0.42"/>
    <circle cx="375.0" cy="560" r="233.7" fill="none" stroke="#2EC4B6" stroke-width="2.2" opacity="0.23"/>
    <line x1="642.0" y1="560.0" x2="674.0" y2="560.0" stroke="#2EC4B6" stroke-width="3.2" opacity="0.23" stroke-linecap="round"/><line x1="606.2" y1="693.5" x2="633.9" y2="709.5" stroke="#2EC4B6" stroke-width="3.2" opacity="0.23" stroke-linecap="round"/><line x1="508.5" y1="791.2" x2="524.5" y2="818.9" stroke="#2EC4B6" stroke-width="3.2" opacity="0.23" stroke-linecap="round"/><line x1="375.0" y1="827.0" x2="375.0" y2="859.0" stroke="#2EC4B6" stroke-width="3.2" opacity="0.23" stroke-linecap="round"/><line x1="241.5" y1="791.2" x2="225.5" y2="818.9" stroke="#2EC4B6" stroke-width="3.2" opacity="0.23" stroke-linecap="round"/><line x1="143.8" y1="693.5" x2="116.1" y2="709.5" stroke="#2EC4B6" stroke-width="3.2" opacity="0.23" stroke-linecap="round"/><line x1="108.0" y1="560.0" x2="76.0" y2="560.0" stroke="#2EC4B6" stroke-width="3.2" opacity="0.23" stroke-linecap="round"/><line x1="143.8" y1="426.5" x2="116.1" y2="410.5" stroke="#2EC4B6" stroke-width="3.2" opacity="0.23" stroke-linecap="round"/><line x1="241.5" y1="328.8" x2="225.5" y2="301.1" stroke="#2EC4B6" stroke-width="3.2" opacity="0.23" stroke-linecap="round"/><line x1="375.0" y1="293.0" x2="375.0" y2="261.0" stroke="#2EC4B6" stroke-width="3.2" opacity="0.23" stroke-linecap="round"/><line x1="508.5" y1="328.8" x2="524.5" y2="301.1" stroke="#2EC4B6" stroke-width="3.2" opacity="0.23" stroke-linecap="round"/><line x1="606.2" y1="426.5" x2="633.9" y2="410.5" stroke="#2EC4B6" stroke-width="3.2" opacity="0.23" stroke-linecap="round"/>
    <circle cx="660.0" cy="561.9" r="4.0" fill="#2EC4B6" opacity="0.37"/><circle cx="652.3" cy="625.8" r="3.5" fill="#2EC4B6" opacity="0.27"/><circle cx="618.5" cy="708.0" r="3.8" fill="#2EC4B6" opacity="0.38"/><circle cx="574.0" cy="764.0" r="3.6" fill="#2EC4B6" opacity="0.29"/><circle cx="525.8" cy="801.8" r="3.2" fill="#2EC4B6" opacity="0.19"/><circle cx="445.6" cy="836.1" r="3.7" fill="#2EC4B6" opacity="0.40"/><circle cx="368.3" cy="844.9" r="3.4" fill="#2EC4B6" opacity="0.29"/><circle cx="292.6" cy="832.8" r="2.9" fill="#2EC4B6" opacity="0.41"/><circle cx="227.6" cy="803.9" r="4.0" fill="#2EC4B6" opacity="0.23"/><circle cx="177.9" cy="765.8" r="3.1" fill="#2EC4B6" opacity="0.30"/><circle cx="128.6" cy="703.2" r="2.6" fill="#2EC4B6" opacity="0.40"/><circle cx="101.8" cy="641.2" r="4.0" fill="#2EC4B6" opacity="0.40"/><circle cx="90.0" cy="556.2" r="2.9" fill="#2EC4B6" opacity="0.34"/><circle cx="98.1" cy="492.4" r="3.9" fill="#2EC4B6" opacity="0.28"/><circle cx="130.1" cy="414.3" r="3.3" fill="#2EC4B6" opacity="0.40"/><circle cx="170.8" cy="361.2" r="3.5" fill="#2EC4B6" opacity="0.39"/><circle cx="224.3" cy="318.1" r="4.0" fill="#2EC4B6" opacity="0.26"/><circle cx="293.5" cy="286.9" r="2.8" fill="#2EC4B6" opacity="0.31"/><circle cx="382.7" cy="275.1" r="3.6" fill="#2EC4B6" opacity="0.25"/><circle cx="443.7" cy="283.4" r="3.7" fill="#2EC4B6" opacity="0.33"/><circle cx="508.9" cy="308.4" r="2.9" fill="#2EC4B6" opacity="0.36"/><circle cx="576.9" cy="358.8" r="3.0" fill="#2EC4B6" opacity="0.36"/><circle cx="623.3" cy="420.0" r="3.8" fill="#2EC4B6" opacity="0.22"/><circle cx="649.5" cy="483.4" r="3.2" fill="#2EC4B6" opacity="0.42"/>
  </g>

<g><g transform="translate(50,54)"><path d="M 32.4 126.0 C 63.0 54.0, 111.6 32.4, 158.4 39.6" fill="none" stroke="#2EC4B6" stroke-width="6" opacity="0.55" stroke-linecap="round"/></g><g transform="translate(700,54) scale(-1,1)"><path d="M 32.4 126.0 C 63.0 54.0, 111.6 32.4, 158.4 39.6" fill="none" stroke="#2EC4B6" stroke-width="6" opacity="0.55" stroke-linecap="round"/></g><g transform="translate(50,1196) scale(1,-1)"><path d="M 32.4 126.0 C 63.0 54.0, 111.6 32.4, 158.4 39.6" fill="none" stroke="#2EC4B6" stroke-width="6" opacity="0.55" stroke-linecap="round"/></g><g transform="translate(700,1196) scale(-1,-1)"><path d="M 32.4 126.0 C 63.0 54.0, 111.6 32.4, 158.4 39.6" fill="none" stroke="#2EC4B6" stroke-width="6" opacity="0.55" stroke-linecap="round"/></g></g></g>
<rect x="42" y="60" width="666" height="92" rx="30" fill="#ffffffcc" stroke="#1E1B2E" stroke-width="4" opacity="0.95"/>
<text x="375.0" y="122" font-family="ui-sans-serif, system-ui, -apple-system, Segoe UI, Roboto, Helvetica, Arial" font-size="30" font-weight="800" text-anchor="middle" fill="#1E1B2E" opacity="0.95" letter-spacing="1">MINOR ARCANA • PENTACLES</text>
<rect x="76" y="170" width="598" height="760" rx="52" fill="#ffffff" opacity="0.15"/>
<g><circle cx="129.2" cy="435.4" r="2.3" fill="#2EC4B6" opacity="0.07"/><circle cx="102.3" cy="678.5" r="2.8" fill="#2EC4B6" opacity="0.07"/><circle cx="129.6" cy="238.9" r="2.7" fill="#2EC4B6" opacity="0.07"/><circle cx="49.1" cy="215.8" r="2.0" fill="#2EC4B6" opacity="0.07"/><circle cx="423.0" cy="400.7" r="2.8" fill="#2EC4B6" opacity="0.07"/><circle cx="213.6" cy="420.0" r="3.2" fill="#2EC4B6" opacity="0.07"/><circle cx="562.1" cy="818.2" r="2.1" fill="#2EC4B6" opacity="0.07"/><circle cx="117.8" cy="883.0" r="1.9" fill="#2EC4B6" opacity="0.07"/><circle cx="352.3" cy="277.2" r="2.0" fill="#2EC4B6" opacity="0.07"/><circle cx="212.0" cy="410.3" r="2.5" fill="#2EC4B6" opacity="0.07"/><circle cx="255.3" cy="349.9" r="2.0" fill="#2EC4B6" opacity="0.07"/><circle cx="210.9" cy="479.4" r="2.2" fill="#2EC4B6" opacity="0.07"/><circle cx="497.7" cy="581.8" r="2.9" fill="#2EC4B6" opacity="0.07"/><circle cx="142.1" cy="459.4" r="2.3" fill="#2EC4B6" opacity="0.07"/><circle cx="148.8" cy="490.1" r="1.7" fill="#2EC4B6" opacity="0.07"/><circle cx="445.9" cy="575.8" r="1.6" fill="#2EC4B6" opacity="0.07"/><circle cx="282.3" cy="778.2" r="2.2" fill="#2EC4B6" opacity="0.07"/><circle cx="439.8" cy="526.8" r="2.4" fill="#2EC4B6" opacity="0.07"/><circle cx="192.5" cy="880.3" r="2.4" fill="#2EC4B6" opacity="0.07"/><circle cx="51.5" cy="382.4" r="2.9" fill="#2EC4B6" opacity="0.07"/><circle cx="411.5" cy="716.2" r="1.7" fill="#2EC4B6" opacity="0.07"/><circle cx="283.3" cy="546.4" r="2.5" fill="#2EC4B6" opacity="0.07"/><circle cx="228.6" cy="882.3" r="2.0" fill="#2EC4B6" opacity="0.07"/><circle cx="563.9" cy="329.4" r="2.6" fill="#2EC4B6" opacity="0.07"/><circle cx="65.8" cy="250.5" r="3.0" fill="#2EC4B6" opacity="0.07"/><circle cx="227.0" cy="708.4" r="1.7" fill="#2EC4B6" opacity="0.07"/><circle cx="500.5" cy="643.4" r="1.5" fill="#2EC4B6" opacity="0.07"/><circle cx="79.7" cy="653.4" r="2.6" fill="#2EC4B6" opacity="0.07"/><circle cx="387.2" cy="845.8" r="2.7" fill="#2EC4B6" opacity="0.07"/><circle cx="647.2" cy="865.6" r="2.6" fill="#2EC4B6" opacity="0.07"/><circle cx="699.7" cy="502.9" r="1.9" fill="#2EC4B6" opacity="0.07"/><circle cx="225.7" cy="711.2" r="2.8" fill="#2EC4B6" opacity="0.07"/><circle cx="44.8" cy="378.4" r="1.9" fill="#2EC4B6" opacity="0.07"/><circle cx="600.6" cy="617.1" r="2.6" fill="#2EC4B6" opacity="0.07"/><circle cx="511.4" cy="638.6" r="1.5" fill="#2EC4B6" opacity="0.07"/><circle cx="403.9" cy="704.4" r="2.2" fill="#2EC4B6" opacity="0.07"/><circle cx="263.1" cy="617.2" r="2.2" fill="#2EC4B6" opacity="0.07"/><circle cx="416.4" cy="565.4" r="2.8" fill="#2EC4B6" opacity="0.07"/><circle cx="221.5" cy="249.0" r="2.4" fill="#2EC4B6" opacity="0.07"/><circle cx="79.9" cy="434.6" r="2.7" fill="#2EC4B6" opacity="0.07"/><circle cx="435.8" cy="863.0" r="1.7" fill="#2EC4B6" opacity="0.07"/><circle cx="466.5" cy="765.1" r="3.0" fill="#2EC4B6" opacity="0.07"/><circle cx="360.4" cy="523.4" r="1.8" fill="#2EC4B6" opacity="0.07"/><circle cx="659.6" cy="562.4" r="2.3" fill="#2EC4B6" opacity="0.07"/><circle cx="428.9" cy="458.4" r="2.4" fill="#2EC4B6" opacity="0.07"/><circle cx="694.5" cy="797.0" r="1.8" fill="#2EC4B6" opacity="0.07"/><circle cx="619.4" cy="801.8" r="3.1" fill="#2EC4B6" opacity="0.07"/><circle cx="345.9" cy="396.3" r="3.1" fill="#2EC4B6" opacity="0.07"/><circle cx="461.5" cy="841.0" r="2.4" fill="#2EC4B6" opacity="0.07"/><circle cx="444.3" cy="291.9" r="2.5" fill="#2EC4B6" opacity="0.07"/><circle cx="620.1" cy="714.0" r="2.5" fill="#2EC4B6" opacity="0.07"/><circle cx="90.6" cy="302.8" r="2.3" fill="#2EC4B6" opacity="0.07"/><circle cx="543.7" cy="748.9" r="1.7" fill="#2EC4B6" opacity="0.07"/><circle cx="606.9" cy="889.1" r="2.5" fill="#2EC4B6" opacity="0.07"/><circle cx="76.0" cy="656.2" r="1.8" fill="#2EC4B6" opacity="0.07"/><circle cx="415.0" cy="194.0" r="3.1" fill="#2EC4B6" opacity="0.07"/><circle cx="569.8" cy="443.3" r="1.8" fill="#2EC4B6" opacity="0.07"/><circle cx="583.9" cy="194.7" r="3.0" fill="#2EC4B6" opacity="0.07"/><circle cx="234.8" cy="482.6" r="1.6" fill="#2EC4B6" opacity="0.07"/><circle cx="455.0" cy="534.0" r="2.5" fill="#2EC4B6" opacity="0.07"/><circle cx="433.8" cy="647.5" r="2.1" fill="#2EC4B6" opacity="0.07"/><circle cx="667.8" cy="772.0" r="2.2" fill="#2EC4B6" opacity="0.07"/><circle cx="381.2" cy="476.8" r="3.0" fill="#2EC4B6" opacity="0.07"/><circle cx="496.1" cy="803.2" r="2.2" fill="#2EC4B6" opacity="0.07"/><circle cx="84.9" cy="289.4" r="1.7" fill="#2EC4B6" opacity="0.07"/><circle cx="675.3" cy="420.9" r="1.7" fill="#2EC4B6" opacity="0.07"/><circle cx="443.9" cy="473.4" r="1.7" fill="#2EC4B6" opacity="0.07"/><circle cx="549.5" cy="366.1" r="2.8" fill="#2EC4B6" opacity="0.07"/><circle cx="396.7" cy="330.5" r="2.4" fill="#2EC4B6" opacity="0.07"/><circle cx="169.2" cy="816.8" r="2.5" fill="#2EC4B6" opacity="0.07"/><circle cx="235.6" cy="774.1" r="2.6" fill="#2EC4B6" opacity="0.07"/><circle cx="477.0" cy="888.5" r="2.5" fill="#2EC4B6" opacity="0.07"/><circle cx="181.8" cy="369.1" r="3.1" fill="#2EC4B6" opacity="0.07"/><circle cx="316.8" cy="346.4" r="3.0" fill="#2EC4B6" opacity="0.07"/><circle cx="497.7" cy="511.9" r="2.2" fill="#2EC4B6" opacity="0.07"/><circle cx="341.2" cy="632.0" r="1.5" fill="#2EC4B6" opacity="0.07"/><circle cx="362.0" cy="907.4" r="1.8" fill="#2EC4B6" opacity="0.07"/><circle cx="365.5" cy="395.2" r="2.8" fill="#2EC4B6" opacity="0.07"/><circle cx="115.7" cy="404.6" r="2.8" fill="#2EC4B6" opacity="0.07"/><circle cx="226.1" cy="225.3" r="2.3" fill="#2EC4B6" opacity="0.07"/><circle cx="301.6" cy="708.9" r="3.0" fill="#2EC4B6" opacity="0.07"/><circle cx="378.1" cy="254.7" r="1.7" fill="#2EC4B6" opacity="0.07"/><circle cx="357.2" cy="357.9" r="3.2" fill="#2EC4B6" opacity="0.07"/><circle cx="626.9" cy="303.4" r="1.7" fill="#2EC4B6" opacity="0.07"/><circle cx="146.4" cy="841.1" r="2.8" fill="#2EC4B6" opacity="0.07"/><circle cx="671.7" cy="700.3" r="3.1" fill="#2EC4B6" opacity="0.07"/><circle cx="678.5" cy="526.5" r="2.4" fill="#2EC4B6" opacity="0.07"/><circle cx="155.1" cy="535.1" r="1.6" fill="#2EC4B6" opacity="0.07"/><circle cx="603.2" cy="820.1" r="2.3" fill="#2EC4B6" opacity="0.07"/><circle cx="255.5" cy="808.8" r="1.8" fill="#2EC4B6" opacity="0.07"/><circle cx="505.0" cy="434.0" r="1.9" fill="#2EC4B6" opacity="0.07"/><circle cx="115.5" cy="876.7" r="2.5" fill="#2EC4B6" opacity="0.07"/><circle cx="331.0" cy="502.5" r="3.0" fill="#2EC4B6" opacity="0.07"/><circle cx="561.2" cy="703.2" r="2.6" fill="#2EC4B6" opacity="0.07"/><circle cx="112.4" cy="248.0" r="2.0" fill="#2EC4B6" opacity="0.07"/><circle cx="313.3" cy="732.4" r="1.8" fill="#2EC4B6" opacity="0.07"/><circle cx="148.8" cy="845.1" r="2.8" fill="#2EC4B6" opacity="0.07"/><circle cx="579.3" cy="473.0" r="1.8" fill="#2EC4B6" opacity="0.07"/><circle cx="359.2" cy="238.1" r="1.7" fill="#2EC4B6" opacity="0.07"/><circle cx="260.0" cy="325.3" r="2.4" fill="#2EC4B6" opacity="0.07"/><circle cx="130.5" cy="190.2" r="2.1" fill="#2EC4B6" opacity="0.07"/><circle cx="583.8" cy="711.3" r="2.8" fill="#2EC4B6" opacity="0.07"/><circle cx="655.3" cy="408.0" r="2.9" fill="#2EC4B6" opacity="0.07"/><circle cx="402.7" cy="680.9" r="3.1" fill="#2EC4B6" opacity="0.07"/><circle cx="282.3" cy="558.8" r="2.7" fill="#2EC4B6" opacity="0.07"/><circle cx="222.3" cy="566.4" r="2.4" fill="#2EC4B6" opacity="0.07"/><circle cx="412.9" cy="369.6" r="3.1" fill="#2EC4B6" opacity="0.07"/><circle cx="111.7" cy="284.8" r="2.5" fill="#2EC4B6" opacity="0.07"/><circle cx="191.5" cy="666.7" r="2.9" fill="#2EC4B6" opacity="0.07"/><circle cx="269.9" cy="390.7" r="1.9" fill="#2EC4B6" opacity="0.07"/></g><g><g opacity="0.55">
    <g>
      <circle cx="355.4932731151181" cy="410.9079446601602" r="44.8" fill="#ffffff" opacity="0.75" stroke="#1E1B2E" stroke-width="7"/>
      <circle cx="355.4932731151181" cy="410.9079446601602" r="33.0" fill="none" stroke="#2EC4B6" stroke-width="6" opacity="0.45"/>
      <polygon points="355.49,368.91 365.70,396.86 395.44,397.93 372.00,416.27 380.18,444.89 355.49,428.27 330.81,444.89 338.98,416.27 315.55,397.93 345.29,396.86" fill="none" stroke="#1E1B2E" stroke-width="8" stroke-linejoin="round" opacity="0.95"/>
      <circle cx="355.4932731151181" cy="410.9079446601602" r="5.0" fill="#2EC4B6" opacity="0.55"/>
      <path d="M 328.9 430.5 Q 355.4932731151181 454.3 382.1 430.5" fill="none" stroke="#2EC4B6" stroke-width="7" opacity="0.35" stroke-linecap="round"/>
    </g>
    </g><g opacity="0.55">
    <g>
      <circle cx="584.1488205245058" cy="601.1116206833925" r="44.8" fill="#ffffff" opacity="0.75" stroke="#1E1B2E" stroke-width="7"/>
      <circle cx="584.1488205245058" cy="601.1116206833925" r="33.0" fill="none" stroke="#2EC4B6" stroke-width="6" opacity="0.45"/>
      <polygon points="584.15,559.11 594.35,587.07 624.09,588.13 600.66,606.48 608.84,635.09 584.15,618.47 559.46,635.09 567.64,606.48 544.20,588.13 573.94,587.07" fill="none" stroke="#1E1B2E" stroke-width="8" stroke-linejoin="round" opacity="0.95"/>
      <circle cx="584.1488205245058" cy="601.1116206833925" r="5.0" fill="#2EC4B6" opacity="0.55"/>
      <path d="M 557.5 620.7 Q 584.1488205245058 644.5 610.7 620.7" fill="none" stroke="#2EC4B6" stroke-width="7" opacity="0.35" stroke-linecap="round"/>
    </g>
    </g><g opacity="0.55">
    <g>
      <circle cx="371.06617764633035" cy="829.963151628303" r="44.8" fill="#ffffff" opacity="0.75" stroke="#1E1B2E" stroke-width="7"/>
      <circle cx="371.06617764633035" cy="829.963151628303" r="33.0" fill="none" stroke="#2EC4B6" stroke-width="6" opacity="0.45"/>
      <polygon points="371.07,787.96 381.27,815.92 411.01,816.98 387.58,835.33 395.75,863.94 371.07,847.32 346.38,863.94 354.56,835.33 331.12,816.98 360.86,815.92" fill="none" stroke="#1E1B2E" stroke-width="8" stroke-linejoin="round" opacity="0.95"/>
      <circle cx="371.06617764633035" cy="829.963151628303" r="5.0" fill="#2EC4B6" opacity="0.55"/>
      <path d="M 344.5 849.6 Q 371.06617764633035 873.4 397.7 849.6" fill="none" stroke="#2EC4B6" stroke-width="7" opacity="0.35" stroke-linecap="round"/>
    </g>
    </g><g opacity="0.55">
    <g>
      <circle cx="165.2612013001663" cy="630.4707363614332" r="44.8" fill="#ffffff" opacity="0.75" stroke="#1E1B2E" stroke-width="7"/>
      <circle cx="165.2612013001663" cy="630.4707363614332" r="33.0" fill="none" stroke="#2EC4B6" stroke-width="6" opacity="0.45"/>
      <polygon points="165.26,588.47 175.47,616.43 205.21,617.49 181.77,635.84 189.95,664.45 165.26,647.83 140.57,664.45 148.75,635.84 125.32,617.49 155.06,616.43" fill="none" stroke="#1E1B2E" stroke-width="8" stroke-linejoin="round" opacity="0.95"/>
      <circle cx="165.2612013001663" cy="630.4707363614332" r="5.0" fill="#2EC4B6" opacity="0.55"/>
      <path d="M 138.7 650.1 Q 165.2612013001663 673.9 191.9 650.1" fill="none" stroke="#2EC4B6" stroke-width="7" opacity="0.35" stroke-linecap="round"/>
    </g>
    </g></g>
  <g opacity="0.22">
    <circle cx="375.0" cy="560" r="270" fill="none" stroke="#2EC4B6" stroke-width="4.2" opacity="0.22"/>
    <circle cx="375.0" cy="560" r="221.4" fill="none" stroke="#2EC4B6" stroke-width="2.2" opacity="0.12"/>
    <line x1="627.0" y1="560.0" x2="659.0" y2="560.0" stroke="#2EC4B6" stroke-width="3.2" opacity="0.12" stroke-linecap="round"/><line x1="593.2" y1="686.0" x2="621.0" y2="702.0" stroke="#2EC4B6" stroke-width="3.2" opacity="0.12" stroke-linecap="round"/><line x1="501.0" y1="778.2" x2="517.0" y2="806.0" stroke="#2EC4B6" stroke-width="3.2" opacity="0.12" stroke-linecap="round"/><line x1="375.0" y1="812.0" x2="375.0" y2="844.0" stroke="#2EC4B6" stroke-width="3.2" opacity="0.12" stroke-linecap="round"/><line x1="249.0" y1="778.2" x2="233.0" y2="806.0" stroke="#2EC4B6" stroke-width="3.2" opacity="0.12" stroke-linecap="round"/><line x1="156.8" y1="686.0" x2="129.0" y2="702.0" stroke="#2EC4B6" stroke-width="3.2" opacity="0.12" stroke-linecap="round"/><line x1="123.0" y1="560.0" x2="91.0" y2="560.0" stroke="#2EC4B6" stroke-width="3.2" opacity="0.12" stroke-linecap="round"/><line x1="156.8" y1="434.0" x2="129.0" y2="418.0" stroke="#2EC4B6" stroke-width="3.2" opacity="0.12" stroke-linecap="round"/><line x1="249.0" y1="341.8" x2="233.0" y2="314.0" stroke="#2EC4B6" stroke-width="3.2" opacity="0.12" stroke-linecap="round"/><line x1="375.0" y1="308.0" x2="375.0" y2="276.0" stroke="#2EC4B6" stroke-width="3.2" opacity="0.12" stroke-linecap="round"/><line x1="501.0" y1="341.8" x2="517.0" y2="314.0" stroke="#2EC4B6" stroke-width="3.2" opacity="0.12" stroke-linecap="round"/><line x1="593.2" y1="434.0" x2="621.0" y2="418.0" stroke="#2EC4B6" stroke-width="3.2" opacity="0.12" stroke-linecap="round"/>
    <circle cx="644.9" cy="551.3" r="2.7" fill="#2EC4B6" opacity="0.25"/><circle cx="635.0" cy="632.6" r="3.7" fill="#2EC4B6" opacity="0.44"/><circle cx="605.2" cy="701.1" r="3.7" fill="#2EC4B6" opacity="0.37"/><circle cx="568.7" cy="748.1" r="3.6" fill="#2EC4B6" opacity="0.30"/><circle cx="509.6" cy="794.0" r="3.4" fill="#2EC4B6" opacity="0.38"/><circle cx="441.0" cy="821.8" r="3.4" fill="#2EC4B6" opacity="0.44"/><circle cx="365.7" cy="829.8" r="2.9" fill="#2EC4B6" opacity="0.25"/><circle cx="302.1" cy="820.0" r="3.8" fill="#2EC4B6" opacity="0.29"/><circle cx="239.7" cy="793.7" r="3.7" fill="#2EC4B6" opacity="0.37"/><circle cx="184.1" cy="751.0" r="3.5" fill="#2EC4B6" opacity="0.28"/><circle cx="141.8" cy="696.0" r="2.8" fill="#2EC4B6" opacity="0.40"/><circle cx="112.6" cy="623.8" r="3.9" fill="#2EC4B6" opacity="0.42"/><circle cx="105.1" cy="551.1" r="2.6" fill="#2EC4B6" opacity="0.42"/><circle cx="112.2" cy="498.1" r="3.1" fill="#2EC4B6" opacity="0.36"/><circle cx="142.1" cy="423.4" r="3.0" fill="#2EC4B6" opacity="0.19"/><circle cx="177.7" cy="375.7" r="3.4" fill="#2EC4B6" opacity="0.24"/><circle cx="246.8" cy="322.4" r="3.8" fill="#2EC4B6" opacity="0.28"/><circle cx="298.3" cy="301.1" r="3.7" fill="#2EC4B6" opacity="0.22"/><circle cx="369.1" cy="290.1" r="3.7" fill="#2EC4B6" opacity="0.38"/><circle cx="436.2" cy="297.0" r="3.0" fill="#2EC4B6" opacity="0.22"/><circle cx="512.4" cy="327.6" r="3.4" fill="#2EC4B6" opacity="0.26"/><circle cx="567.9" cy="371.1" r="3.6" fill="#2EC4B6" opacity="0.43"/><circle cx="610.6" cy="428.2" r="3.4" fill="#2EC4B6" opacity="0.34"/><circle cx="637.3" cy="496.1" r="3.0" fill="#2EC4B6" opacity="0.23"/>
  </g>

        <g filter="url(#glow)">
          <circle cx="375.0" cy="630" r="170" fill="#ffffff" opacity="0.40" stroke="#2EC4B6" stroke-width="7"/>
          
    <g>
      <circle cx="375.0" cy="630" r="115.2" fill="#ffffff" opacity="0.75" stroke="#1E1B2E" stroke-width="7"/>
      <circle cx="375.0" cy="630" r="85.0" fill="none" stroke="#2EC4B6" stroke-width="6" opacity="0.45"/>
      <polygon points="375.00,522.00 401.24,593.89 477.71,596.63 417.46,643.79 438.48,717.37 375.00,674.64 311.52,717.37 332.54,643.79 272.29,596.63 348.76,593.89" fill="none" stroke="#1E1B2E" stroke-width="8" stroke-linejoin="round" opacity="0.95"/>
      <circle cx="375.0" cy="630" r="13.0" fill="#2EC4B6" opacity="0.55"/>
      <path d="M 306.6 680.4 Q 375.0 741.6 443.4 680.4" fill="none" stroke="#2EC4B6" stroke-width="7" opacity="0.35" stroke-linecap="round"/>
    </g>
    
        </g>
        <line x1="203.0" y1="318.4" x2="242.8" y2="351.7" stroke="#ffffff" stroke-width="2.2" opacity="0.13"/>
<line x1="242.8" y1="351.7" x2="238.3" y2="641.9" stroke="#ffffff" stroke-width="2.2" opacity="0.12"/>
<line x1="238.3" y1="641.9" x2="422.0" y2="239.7" stroke="#ffffff" stroke-width="2.2" opacity="0.21"/>
<line x1="422.0" y1="239.7" x2="465.6" y2="467.3" stroke="#ffffff" stroke-width="2.2" opacity="0.19"/>
<line x1="465.6" y1="467.3" x2="182.2" y2="405.8" stroke="#ffffff" stroke-width="2.2" opacity="0.14"/>
<line x1="182.2" y1="405.8" x2="563.4" y2="253.7" stroke="#ffffff" stroke-width="2.2" opacity="0.16"/>
<circle cx="563.4" cy="253.7" r="3.6" fill="#ffffff" opacity="0.719045387823424"/>
<circle cx="238.3" cy="641.9" r="3.2" fill="#ffffff" opacity="0.25290109899396845"/>
<circle cx="524.4" cy="351.9" r="4.0" fill="#ffffff" opacity="0.5623457683227455"/>
<circle cx="196.8" cy="629.4" r="3.1" fill="#ffffff" opacity="0.7222088083367191"/>
<circle cx="242.8" cy="351.7" r="2.4" fill="#ffffff" opacity="0.5110325249241339"/>
<circle cx="540.4" cy="338.1" r="4.6" fill="#ffffff" opacity="0.6015627916386614"/>
<circle cx="183.6" cy="553.1" r="4.2" fill="#ffffff" opacity="0.268223097484462"/>
<circle cx="548.6" cy="597.1" r="4.5" fill="#ffffff" opacity="0.31912290313199576"/>
<circle cx="206.5" cy="497.5" r="3.6" fill="#ffffff" opacity="0.4274122917500869"/>
<circle cx="182.2" cy="405.8" r="2.9" fill="#ffffff" opacity="0.8429460785409698"/>
<circle cx="241.2" cy="433.1" r="2.5" fill="#ffffff" opacity="0.2897871803182754"/>
<circle cx="422.0" cy="239.7" r="3.8" fill="#ffffff" opacity="0.48577297849639567"/>
<circle cx="465.6" cy="467.3" r="3.4" fill="#ffffff" opacity="0.5908189781260649"/>
<circle cx="203.0" cy="318.4" r="3.4" fill="#ffffff" opacity="0.6241671278946881"/>
<rect x="42" y="1030" width="666" height="160" rx="30" fill="#ffffffd9" stroke="#1E1B2E" stroke-width="4" opacity="0.95"/>
<text x="375.0" y="1104" font-family="ui-sans-serif, system-ui, -apple-system, Segoe UI, Roboto, Helvetica, Arial" font-size="46" font-weight="900" text-anchor="middle" fill="#1E1B2E" opacity="0.98">4 of Pentacles</text>
<text x="375.0" y="1152" font-family="ui-sans-serif, system-ui, -apple-system, Segoe UI, Roboto, Helvetica, Arial" font-size="28" font-weight="700" text-anchor="middle" fill="#1E1B2E" opacity="0.7">Rest</text>

    <g opacity="0.55">
      <circle cx="127" cy="1176" r="14" fill="#2EC4B6"/>
      <circle cx="623" cy="1176" r="14" fill="#2EC4B6"/>
      <path d="M 162 1176 L 588 1176" stroke="#2EC4B6" stroke-width="4" opacity="0.45" stroke-linecap="round"/>
    </g>
    
</svg>
