<svg xmlns="http://www.w3.org/2000/svg" width="750" height="1250" viewBox="0 0 750 1250">
  <title>5 of Pentacles</title>


  <defs>
    <linearGradient id="g" x1="0" y1="0" x2="1" y2="1">
      <stop offset="0%" stop-color="#FFF7E8"/>
      <stop offset="100%" stop-color="#E8F7FF"/>
    </linearGradient>

    <!-- paper texture -->
    <filter id="paper" x="-20%" y="-20%" width="140%" height="140%">
      <feTurbulence type="fractalNoise" baseFrequency="0.016" numOctaves="3" seed="730" result="noise"/>
      <feColorMatrix in="noise" type="matrix"
        values="1 0 0 0 0
                0 1 0 0 0
                0 0 1 0 0
                0 0 0 0.25 0" result="noiseAlpha"/>
      <feComposite in="noiseAlpha" in2="SourceGraphic" operator="over"/>
    </filter>

    <!-- soft glow -->
    <filter id="glow" x="-30%" y="-30%" width="160%" height="160%">
      <feGaussianBlur stdDeviation="10" result="blur"/>
      <feColorMatrix type="matrix" values="
        1 0 0 0 0
        0 1 0 0 0
        0 0 1 0 0
        0 0 0 0.32 0" result="blurAlpha"/>
      <feMerge>
        <feMergeNode in="blurAlpha"/>
        <feMergeNode in="SourceGraphic"/>
      </feMerge>
    </filter>
  </defs>

<rect x="0" y="0" width="750" height="1250" rx="58" ry="58" fill="url(#g)" stroke="none" stroke-width="0" opacity="1"/>
<rect x="0" y="0" width="750" height="1250" fill="#ffffff" opacity="0.08"/>
<line x1="640.9" y1="465.8" x2="43.2" y2="1108.2" stroke="#ffffff" stroke-width="2.2" opacity="0.11"/>
<line x1="43.2" y1="1108.2" x2="381.7" y2="301.3" stroke="#ffffff" stroke-width="2.2" opacity="0.16"/>
<line x1="381.7" y1="301.3" x2="627.9" y2="348.7" stroke="#ffffff" stroke-width="2.2" opacity="0.13"/>
<line x1="627.9" y1="348.7" x2="476.9" y2="732.4" stroke="#ffffff" stroke-width="2.2" opacity="0.13"/>
<line x1="476.9" y1="732.4" x2="274.0" y2="950.9" stroke="#ffffff" stroke-width="2.2" opacity="0.19"/>
<line x1="274.0" y1="950.9" x2="231.3" y2="1048.4" stroke="#ffffff" stroke-width="2.2" opacity="0.08"/>
<line x1="231.3" y1="1048.4" x2="335.0" y2="822.7" stroke="#ffffff" stroke-width="2.2" opacity="0.19"/>
<line x1="335.0" y1="822.7" x2="528.1" y2="305.8" stroke="#ffffff" stroke-width="2.2" opacity="0.20"/>
<line x1="528.1" y1="305.8" x2="417.2" y2="305.3" stroke="#ffffff" stroke-width="2.2" opacity="0.10"/>
<line x1="417.2" y1="305.3" x2="273.8" y2="375.3" stroke="#ffffff" stroke-width="2.2" opacity="0.10"/>
<line x1="273.8" y1="375.3" x2="427.1" y2="541.2" stroke="#ffffff" stroke-width="2.2" opacity="0.16"/>
<line x1="427.1" y1="541.2" x2="553.9" y2="44.3" stroke="#ffffff" stroke-width="2.2" opacity="0.09"/>
<line x1="553.9" y1="44.3" x2="687.2" y2="99.6" stroke="#ffffff" stroke-width="2.2" opacity="0.15"/>
<line x1="687.2" y1="99.6" x2="287.2" y2="476.6" stroke="#ffffff" stroke-width="2.2" opacity="0.15"/>
<line x1="287.2" y1="476.6" x2="406.1" y2="485.1" stroke="#ffffff" stroke-width="2.2" opacity="0.17"/>
<line x1="406.1" y1="485.1" x2="158.4" y2="685.2" stroke="#ffffff" stroke-width="2.2" opacity="0.17"/>
<line x1="158.4" y1="685.2" x2="278.4" y2="836.5" stroke="#ffffff" stroke-width="2.2" opacity="0.12"/>
<line x1="278.4" y1="836.5" x2="301.5" y2="492.2" stroke="#ffffff" stroke-width="2.2" opacity="0.12"/>
<circle cx="360.2" cy="618.2" r="4.2" fill="#ffffff" opacity="0.6363124910357785"/>
<circle cx="668.9" cy="708.4" r="2.7" fill="#ffffff" opacity="0.8229719668646047"/>
<circle cx="639.4" cy="947.6" r="3.5" fill="#ffffff" opacity="0.33396141091802156"/>
<circle cx="113.0" cy="354.0" r="2.4" fill="#ffffff" opacity="0.47199749706868205"/>
<circle cx="208.8" cy="784.3" r="1.9" fill="#ffffff" opacity="0.6641829899939955"/>
<circle cx="476.9" cy="732.4" r="4.6" fill="#ffffff" opacity="0.41940436588947483"/>
<circle cx="94.6" cy="414.0" r="2.6" fill="#ffffff" opacity="0.4070936676319441"/>
<circle cx="273.8" cy="375.3" r="3.2" fill="#ffffff" opacity="0.6097634134447192"/>
<circle cx="406.1" cy="485.1" r="3.5" fill="#ffffff" opacity="0.7319775663953948"/>
<circle cx="670.1" cy="246.9" r="3.7" fill="#ffffff" opacity="0.5066770383791531"/>
<circle cx="271.2" cy="767.0" r="4.3" fill="#ffffff" opacity="0.5872452524039531"/>
<circle cx="418.7" cy="192.6" r="2.2" fill="#ffffff" opacity="0.5839223583695259"/>
<circle cx="185.9" cy="243.0" r="4.8" fill="#ffffff" opacity="0.8256694686156015"/>
<circle cx="640.9" cy="465.8" r="2.3" fill="#ffffff" opacity="0.5624524136192797"/>
<circle cx="633.2" cy="167.5" r="4.3" fill="#ffffff" opacity="0.33183832677858316"/>
<circle cx="287.2" cy="476.6" r="2.4" fill="#ffffff" opacity="0.2576601562916908"/>
<circle cx="146.3" cy="239.5" r="4.0" fill="#ffffff" opacity="0.7133904425389662"/>
<circle cx="553.9" cy="44.3" r="2.7" fill="#ffffff" opacity="0.619609951912143"/>
<circle cx="312.5" cy="882.3" r="3.3" fill="#ffffff" opacity="0.5505105588218667"/>
<circle cx="528.1" cy="305.8" r="2.7" fill="#ffffff" opacity="0.6379344235220611"/>
<circle cx="417.2" cy="305.3" r="2.9" fill="#ffffff" opacity="0.39183369805913804"/>
<circle cx="627.9" cy="348.7" r="4.6" fill="#ffffff" opacity="0.6171623300374309"/>
<circle cx="435.9" cy="133.5" r="3.1" fill="#ffffff" opacity="0.6634341067887188"/>
<circle cx="59.3" cy="833.9" r="1.8" fill="#ffffff" opacity="0.6997916785529008"/>
<circle cx="255.3" cy="609.8" r="1.8" fill="#ffffff" opacity="0.3066914544853223"/>
<circle cx="231.3" cy="1048.4" r="2.6" fill="#ffffff" opacity="0.7132885174798973"/>
<circle cx="369.3" cy="400.2" r="2.3" fill="#ffffff" opacity="0.5732428650693321"/>
<circle cx="248.3" cy="1122.0" r="2.8" fill="#ffffff" opacity="0.7007183939552732"/>
<circle cx="509.8" cy="376.8" r="1.7" fill="#ffffff" opacity="0.392497133973739"/>
<circle cx="498.0" cy="350.1" r="4.7" fill="#ffffff" opacity="0.4749571409457223"/>
<circle cx="158.4" cy="685.2" r="4.5" fill="#ffffff" opacity="0.528720421725261"/>
<circle cx="531.1" cy="696.6" r="4.7" fill="#ffffff" opacity="0.28339754707758985"/>
<circle cx="427.1" cy="541.2" r="4.0" fill="#ffffff" opacity="0.710426214604942"/>
<circle cx="116.5" cy="560.1" r="1.9" fill="#ffffff" opacity="0.39151876285902365"/>
<circle cx="301.5" cy="492.2" r="3.8" fill="#ffffff" opacity="0.313342131935233"/>
<circle cx="687.2" cy="99.6" r="4.2" fill="#ffffff" opacity="0.47941035206586424"/>
<circle cx="510.6" cy="396.4" r="2.2" fill="#ffffff" opacity="0.6255623341592683"/>
<circle cx="278.4" cy="836.5" r="2.5" fill="#ffffff" opacity="0.4294760597572369"/>
<circle cx="504.7" cy="670.1" r="3.6" fill="#ffffff" opacity="0.3815860447088142"/>
<circle cx="274.0" cy="950.9" r="4.6" fill="#ffffff" opacity="0.5935954579846479"/>
<circle cx="335.0" cy="822.7" r="2.7" fill="#ffffff" opacity="0.31624956036920054"/>
<circle cx="531.9" cy="873.6" r="3.3" fill="#ffffff" opacity="0.3975830812532885"/>
<circle cx="684.2" cy="106.7" r="2.6" fill="#ffffff" opacity="0.7830521841999957"/>
<circle cx="154.0" cy="534.8" r="3.8" fill="#ffffff" opacity="0.4553760863384907"/>
<circle cx="62.5" cy="443.6" r="4.4" fill="#ffffff" opacity="0.3150586661583892"/>
<circle cx="43.2" cy="1108.2" r="2.1" fill="#ffffff" opacity="0.46487267655791165"/>
<circle cx="381.7" cy="301.3" r="3.1" fill="#ffffff" opacity="0.616223789018747"/>
<circle cx="400.2" cy="1132.4" r="3.3" fill="#ffffff" opacity="0.670931061356846"/>
<circle cx="324.7" cy="203.2" r="3.7" fill="#ffffff" opacity="0.2553361644298645"/>
<circle cx="376.2" cy="67.4" r="2.9" fill="#ffffff" opacity="0.63602592382009"/>
<g filter="url(#paper)"><rect x="42" y="42" width="666" height="1166" rx="54" ry="54" fill="none" stroke="#1E1B2E" stroke-width="8" opacity="0.95"/>
<rect x="60" y="60" width="630" height="1130" rx="46" ry="46" fill="none" stroke="#2EC4B6" stroke-width="3" opacity="0.35"/>

  <g opacity="0.42">
    <circle cx="375.0" cy="560" r="285" fill="none" stroke="#2EC4B6" stroke-width="4.2" opacity="0.42"/>
    <circle cx="375.0" cy="560" r="233.7" fill="none" stroke="#2EC4B6" stroke-width="2.2" opacity="0.23"/>
    <line x1="642.0" y1="560.0" x2="674.0" y2="560.0" stroke="#2EC4B6" stroke-width="3.2" opacity="0.23" stroke-linecap="round"/><line x1="606.2" y1="693.5" x2="633.9" y2="709.5" stroke="#2EC4B6" stroke-width="3.2" opacity="0.23" stroke-linecap="round"/><line x1="508.5" y1="791.2" x2="524.5" y2="818.9" stroke="#2EC4B6" stroke-width="3.2" opacity="0.23" stroke-linecap="round"/><line x1="375.0" y1="827.0" x2="375.0" y2="859.0" stroke="#2EC4B6" stroke-width="3.2" opacity="0.23" stroke-linecap="round"/><line x1="241.5" y1="791.2" x2="225.5" y2="818.9" stroke="#2EC4B6" stroke-width="3.2" opacity="0.23" stroke-linecap="round"/><line x1="143.8" y1="693.5" x2="116.1" y2="709.5" stroke="#2EC4B6" stroke-width="3.2" opacity="0.23" stroke-linecap="round"/><line x1="108.0" y1="560.0" x2="76.0" y2="560.0" stroke="#2EC4B6" stroke-width="3.2" opacity="0.23" stroke-linecap="round"/><line x1="143.8" y1="426.5" x2="116.1" y2="410.5" stroke="#2EC4B6" stroke-width="3.2" opacity="0.23" stroke-linecap="round"/><line x1="241.5" y1="328.8" x2="225.5" y2="301.1" stroke="#2EC4B6" stroke-width="3.2" opacity="0.23" stroke-linecap="round"/><line x1="375.0" y1="293.0" x2="375.0" y2="261.0" stroke="#2EC4B6" stroke-width="3.2" opacity="0.23" stroke-linecap="round"/><line x1="508.5" y1="328.8" x2="524.5" y2="301.1" stroke="#2EC4B6" stroke-width="3.2" opacity="0.23" stroke-linecap="round"/><line x1="606.2" y1="426.5" x2="633.9" y2="410.5" stroke="#2EC4B6" stroke-width="3.2" opacity="0.23" stroke-linecap="round"/>
    <circle cx="660.0" cy="556.8" r="2.6" fill="#2EC4B6" opacity="0.27"/><circle cx="651.8" cy="628.0" r="3.7" fill="#2EC4B6" opacity="0.42"/><circle cx="618.5" cy="708.1" r="3.2" fill="#2EC4B6" opacity="0.18"/><circle cx="574.7" cy="763.3" r="2.7" fill="#2EC4B6" opacity="0.20"/><circle cx="509.6" cy="811.2" r="3.0" fill="#2EC4B6" opacity="0.25"/><circle cx="446.5" cy="835.9" r="3.0" fill="#2EC4B6" opacity="0.20"/><circle cx="367.5" cy="844.9" r="2.7" fill="#2EC4B6" opacity="0.45"/><circle cx="304.0" cy="836.0" r="3.0" fill="#2EC4B6" opacity="0.27"/><circle cx="231.1" cy="806.0" r="3.2" fill="#2EC4B6" opacity="0.30"/><circle cx="171.0" cy="759.0" r="3.0" fill="#2EC4B6" opacity="0.30"/><circle cx="128.3" cy="702.7" r="2.9" fill="#2EC4B6" opacity="0.29"/><circle cx="97.9" cy="626.5" r="4.0" fill="#2EC4B6" opacity="0.42"/><circle cx="90.2" cy="550.4" r="3.8" fill="#2EC4B6" opacity="0.34"/><circle cx="98.5" cy="490.7" r="3.3" fill="#2EC4B6" opacity="0.18"/><circle cx="129.0" cy="416.0" r="3.4" fill="#2EC4B6" opacity="0.29"/><circle cx="175.2" cy="356.8" r="3.5" fill="#2EC4B6" opacity="0.25"/><circle cx="238.8" cy="309.7" r="2.7" fill="#2EC4B6" opacity="0.28"/><circle cx="309.2" cy="282.7" r="3.8" fill="#2EC4B6" opacity="0.27"/><circle cx="369.1" cy="275.1" r="3.7" fill="#2EC4B6" opacity="0.32"/><circle cx="446.2" cy="284.0" r="2.7" fill="#2EC4B6" opacity="0.35"/><circle cx="510.2" cy="309.1" r="3.2" fill="#2EC4B6" opacity="0.39"/><circle cx="579.4" cy="361.4" r="2.6" fill="#2EC4B6" opacity="0.30"/><circle cx="620.6" cy="415.4" r="4.0" fill="#2EC4B6" opacity="0.39"/><circle cx="647.6" cy="476.9" r="3.8" fill="#2EC4B6" opacity="0.23"/>
  </g>

<g><g transform="translate(50,54)"><path d="M 18.0 140.4 C 39.6 63.0, 99.0 28.8, 154.8 46.8 C 126.0 86.4, 72.0 111.6, 39.6 129.6" fill="none" stroke="#2EC4B6" stroke-width="6" opacity="0.55" stroke-linecap="round"/></g><g transform="translate(700,54) scale(-1,1)"><path d="M 18.0 140.4 C 39.6 63.0, 99.0 28.8, 154.8 46.8 C 126.0 86.4, 72.0 111.6, 39.6 129.6" fill="none" stroke="#2EC4B6" stroke-width="6" opacity="0.55" stroke-linecap="round"/></g><g transform="translate(50,1196) scale(1,-1)"><path d="M 18.0 140.4 C 39.6 63.0, 99.0 28.8, 154.8 46.8 C 126.0 86.4, 72.0 111.6, 39.6 129.6" fill="none" stroke="#2EC4B6" stroke-width="6" opacity="0.55" stroke-linecap="round"/></g><g transform="translate(700,1196) scale(-1,-1)"><path d="M 18.0 140.4 C 39.6 63.0, 99.0 28.8, 154.8 46.8 C 126.0 86.4, 72.0 111.6, 39.6 129.6" fill="none" stroke="#2EC4B6" stroke-width="6" opacity="0.55" stroke-linecap="round"/></g></g></g>
<rect x="42" y="60" width="666" height="92" rx="30" fill="#ffffffcc" stroke="#1E1B2E" stroke-width="4" opacity="0.95"/>
<text x="375.0" y="122" font-family="ui-sans-serif, system-ui, -apple-system, Segoe UI, Roboto, Helvetica, Arial" font-size="30" font-weight="800" text-anchor="middle" fill="#1E1B2E" opacity="0.95" letter-spacing="1">MINOR ARCANA • PENTACLES</text>
<rect x="76" y="170" width="598" height="760" rx="52" fill="#ffffff" opacity="0.15"/>
<g><circle cx="65.2" cy="737.6" r="1.9" fill="#2EC4B6" opacity="0.07"/><circle cx="48.8" cy="716.9" r="2.5" fill="#2EC4B6" opacity="0.07"/><circle cx="560.4" cy="225.9" r="2.5" fill="#2EC4B6" opacity="0.07"/><circle cx="639.5" cy="502.8" r="2.3" fill="#2EC4B6" opacity="0.07"/><circle cx="161.8" cy="807.0" r="2.5" fill="#2EC4B6" opacity="0.07"/><circle cx="612.7" cy="867.2" r="2.3" fill="#2EC4B6" opacity="0.07"/><circle cx="486.3" cy="904.1" r="2.4" fill="#2EC4B6" opacity="0.07"/><circle cx="321.0" cy="240.6" r="2.0" fill="#2EC4B6" opacity="0.07"/><circle cx="394.7" cy="625.1" r="1.5" fill="#2EC4B6" opacity="0.07"/><circle cx="345.7" cy="643.2" r="2.4" fill="#2EC4B6" opacity="0.07"/><circle cx="274.7" cy="678.0" r="1.6" fill="#2EC4B6" opacity="0.07"/><circle cx="507.4" cy="212.0" r="1.8" fill="#2EC4B6" opacity="0.07"/><circle cx="488.2" cy="561.4" r="2.9" fill="#2EC4B6" opacity="0.07"/><circle cx="609.9" cy="854.6" r="3.1" fill="#2EC4B6" opacity="0.07"/><circle cx="566.3" cy="242.5" r="2.8" fill="#2EC4B6" opacity="0.07"/><circle cx="547.8" cy="278.9" r="1.6" fill="#2EC4B6" opacity="0.07"/><circle cx="466.2" cy="648.9" r="1.8" fill="#2EC4B6" opacity="0.07"/><circle cx="182.8" cy="731.3" r="1.5" fill="#2EC4B6" opacity="0.07"/><circle cx="548.7" cy="423.0" r="2.3" fill="#2EC4B6" opacity="0.07"/><circle cx="301.7" cy="346.1" r="2.0" fill="#2EC4B6" opacity="0.07"/><circle cx="388.8" cy="686.8" r="2.6" fill="#2EC4B6" opacity="0.07"/><circle cx="249.8" cy="359.2" r="3.0" fill="#2EC4B6" opacity="0.07"/><circle cx="538.4" cy="652.6" r="2.0" fill="#2EC4B6" opacity="0.07"/><circle cx="371.6" cy="358.8" r="2.9" fill="#2EC4B6" opacity="0.07"/><circle cx="423.7" cy="605.7" r="2.9" fill="#2EC4B6" opacity="0.07"/><circle cx="325.9" cy="593.3" r="3.1" fill="#2EC4B6" opacity="0.07"/><circle cx="599.6" cy="445.9" r="1.9" fill="#2EC4B6" opacity="0.07"/><circle cx="604.0" cy="425.9" r="1.9" fill="#2EC4B6" opacity="0.07"/><circle cx="277.4" cy="358.6" r="3.0" fill="#2EC4B6" opacity="0.07"/><circle cx="103.6" cy="789.1" r="2.2" fill="#2EC4B6" opacity="0.07"/><circle cx="420.2" cy="321.7" r="2.0" fill="#2EC4B6" opacity="0.07"/><circle cx="623.4" cy="842.5" r="3.0" fill="#2EC4B6" opacity="0.07"/><circle cx="254.6" cy="264.0" r="2.8" fill="#2EC4B6" opacity="0.07"/><circle cx="175.8" cy="541.2" r="1.6" fill="#2EC4B6" opacity="0.07"/><circle cx="431.6" cy="880.3" r="1.8" fill="#2EC4B6" opacity="0.07"/><circle cx="350.2" cy="499.0" r="1.7" fill="#2EC4B6" opacity="0.07"/><circle cx="98.1" cy="580.6" r="2.4" fill="#2EC4B6" opacity="0.07"/><circle cx="346.4" cy="317.1" r="3.0" fill="#2EC4B6" opacity="0.07"/><circle cx="414.7" cy="749.9" r="1.5" fill="#2EC4B6" opacity="0.07"/><circle cx="434.3" cy="694.6" r="3.1" fill="#2EC4B6" opacity="0.07"/><circle cx="69.8" cy="693.6" r="3.0" fill="#2EC4B6" opacity="0.07"/><circle cx="49.1" cy="411.8" r="3.1" fill="#2EC4B6" opacity="0.07"/><circle cx="690.2" cy="397.8" r="1.8" fill="#2EC4B6" opacity="0.07"/><circle cx="599.2" cy="399.3" r="1.6" fill="#2EC4B6" opacity="0.07"/><circle cx="90.4" cy="195.3" r="2.0" fill="#2EC4B6" opacity="0.07"/><circle cx="338.6" cy="228.2" r="2.3" fill="#2EC4B6" opacity="0.07"/><circle cx="701.2" cy="230.5" r="3.2" fill="#2EC4B6" opacity="0.07"/><circle cx="529.0" cy="884.2" r="1.6" fill="#2EC4B6" opacity="0.07"/><circle cx="448.9" cy="807.0" r="2.9" fill="#2EC4B6" opacity="0.07"/><circle cx="596.6" cy="246.0" r="1.9" fill="#2EC4B6" opacity="0.07"/><circle cx="153.0" cy="612.8" r="1.8" fill="#2EC4B6" opacity="0.07"/><circle cx="166.5" cy="288.4" r="2.6" fill="#2EC4B6" opacity="0.07"/><circle cx="393.3" cy="864.4" r="3.1" fill="#2EC4B6" opacity="0.07"/><circle cx="501.0" cy="311.1" r="1.9" fill="#2EC4B6" opacity="0.07"/><circle cx="247.3" cy="719.9" r="1.9" fill="#2EC4B6" opacity="0.07"/><circle cx="606.7" cy="601.6" r="2.8" fill="#2EC4B6" opacity="0.07"/><circle cx="422.4" cy="559.8" r="2.3" fill="#2EC4B6" opacity="0.07"/><circle cx="278.1" cy="502.5" r="1.6" fill="#2EC4B6" opacity="0.07"/><circle cx="409.0" cy="452.4" r="3.1" fill="#2EC4B6" opacity="0.07"/><circle cx="190.6" cy="389.0" r="2.1" fill="#2EC4B6" opacity="0.07"/><circle cx="77.2" cy="438.3" r="2.2" fill="#2EC4B6" opacity="0.07"/><circle cx="546.1" cy="683.0" r="3.0" fill="#2EC4B6" opacity="0.07"/><circle cx="595.4" cy="873.7" r="2.6" fill="#2EC4B6" opacity="0.07"/><circle cx="42.4" cy="767.2" r="3.2" fill="#2EC4B6" opacity="0.07"/><circle cx="154.0" cy="558.0" r="2.8" fill="#2EC4B6" opacity="0.07"/><circle cx="430.6" cy="838.0" r="2.7" fill="#2EC4B6" opacity="0.07"/><circle cx="472.3" cy="193.7" r="2.5" fill="#2EC4B6" opacity="0.07"/><circle cx="179.6" cy="257.3" r="2.9" fill="#2EC4B6" opacity="0.07"/><circle cx="154.3" cy="370.7" r="3.0" fill="#2EC4B6" opacity="0.07"/><circle cx="322.6" cy="248.1" r="1.5" fill="#2EC4B6" opacity="0.07"/><circle cx="597.2" cy="368.6" r="3.0" fill="#2EC4B6" opacity="0.07"/><circle cx="677.2" cy="303.5" r="2.3" fill="#2EC4B6" opacity="0.07"/><circle cx="444.4" cy="315.1" r="2.8" fill="#2EC4B6" opacity="0.07"/><circle cx="506.9" cy="908.6" r="2.6" fill="#2EC4B6" opacity="0.07"/><circle cx="405.4" cy="438.0" r="1.8" fill="#2EC4B6" opacity="0.07"/><circle cx="430.1" cy="544.9" r="2.7" fill="#2EC4B6" opacity="0.07"/><circle cx="206.8" cy="509.2" r="1.6" fill="#2EC4B6" opacity="0.07"/><circle cx="193.2" cy="659.4" r="2.4" fill="#2EC4B6" opacity="0.07"/><circle cx="310.7" cy="584.0" r="2.8" fill="#2EC4B6" opacity="0.07"/><circle cx="462.4" cy="815.6" r="2.3" fill="#2EC4B6" opacity="0.07"/><circle cx="577.2" cy="556.5" r="2.9" fill="#2EC4B6" opacity="0.07"/><circle cx="71.1" cy="355.2" r="1.6" fill="#2EC4B6" opacity="0.07"/><circle cx="635.7" cy="645.7" r="1.9" fill="#2EC4B6" opacity="0.07"/><circle cx="341.3" cy="536.3" r="3.0" fill="#2EC4B6" opacity="0.07"/><circle cx="189.7" cy="295.1" r="1.5" fill="#2EC4B6" opacity="0.07"/><circle cx="266.1" cy="714.3" r="2.4" fill="#2EC4B6" opacity="0.07"/><circle cx="137.0" cy="386.9" r="1.9" fill="#2EC4B6" opacity="0.07"/><circle cx="280.9" cy="410.6" r="1.6" fill="#2EC4B6" opacity="0.07"/><circle cx="234.7" cy="561.2" r="3.0" fill="#2EC4B6" opacity="0.07"/><circle cx="45.2" cy="370.8" r="3.1" fill="#2EC4B6" opacity="0.07"/><circle cx="350.6" cy="198.2" r="1.6" fill="#2EC4B6" opacity="0.07"/><circle cx="400.2" cy="846.0" r="2.5" fill="#2EC4B6" opacity="0.07"/><circle cx="502.3" cy="574.0" r="2.6" fill="#2EC4B6" opacity="0.07"/><circle cx="574.8" cy="714.5" r="2.4" fill="#2EC4B6" opacity="0.07"/><circle cx="328.4" cy="404.4" r="2.7" fill="#2EC4B6" opacity="0.07"/><circle cx="351.1" cy="655.6" r="2.2" fill="#2EC4B6" opacity="0.07"/><circle cx="410.4" cy="209.9" r="2.9" fill="#2EC4B6" opacity="0.07"/><circle cx="527.2" cy="318.5" r="2.0" fill="#2EC4B6" opacity="0.07"/><circle cx="176.9" cy="251.0" r="2.4" fill="#2EC4B6" opacity="0.07"/><circle cx="120.9" cy="377.7" r="2.2" fill="#2EC4B6" opacity="0.07"/><circle cx="509.1" cy="468.9" r="2.1" fill="#2EC4B6" opacity="0.07"/><circle cx="153.2" cy="431.6" r="3.1" fill="#2EC4B6" opacity="0.07"/><circle cx="552.5" cy="323.9" r="3.1" fill="#2EC4B6" opacity="0.07"/><circle cx="678.6" cy="253.6" r="1.6" fill="#2EC4B6" opacity="0.07"/><circle cx="401.2" cy="643.6" r="2.2" fill="#2EC4B6" opacity="0.07"/><circle cx="317.1" cy="768.9" r="1.7" fill="#2EC4B6" opacity="0.07"/><circle cx="349.4" cy="545.4" r="3.0" fill="#2EC4B6" opacity="0.07"/><circle cx="129.4" cy="215.9" r="2.5" fill="#2EC4B6" opacity="0.07"/><circle cx="379.9" cy="481.5" r="1.6" fill="#2EC4B6" opacity="0.07"/><circle cx="80.5" cy="660.8" r="1.5" fill="#2EC4B6" opacity="0.07"/></g><g><g opacity="0.55">
    <g>
      <circle cx="391.8937412974564" cy="410.68062319752954" r="44.8" fill="#ffffff" opacity="0.75" stroke="#1E1B2E" stroke-width="7"/>
      <circle cx="391.8937412974564" cy="410.68062319752954" r="33.0" fill="none" stroke="#2EC4B6" stroke-width="6" opacity="0.45"/>
      <polygon points="391.89,368.68 402.10,396.64 431.84,397.70 408.40,416.05 416.58,444.66 391.89,428.04 367.21,444.66 375.38,416.05 351.95,397.70 381.69,396.64" fill="none" stroke="#1E1B2E" stroke-width="8" stroke-linejoin="round" opacity="0.95"/>
      <circle cx="391.8937412974564" cy="410.68062319752954" r="5.0" fill="#2EC4B6" opacity="0.55"/>
      <path d="M 365.3 430.3 Q 391.8937412974564 454.1 418.5 430.3" fill="none" stroke="#2EC4B6" stroke-width="7" opacity="0.35" stroke-linecap="round"/>
    </g>
    </g><g opacity="0.55">
    <g>
      <circle cx="569.0882629549519" cy="539.8143018791417" r="44.8" fill="#ffffff" opacity="0.75" stroke="#1E1B2E" stroke-width="7"/>
      <circle cx="569.0882629549519" cy="539.8143018791417" r="33.0" fill="none" stroke="#2EC4B6" stroke-width="6" opacity="0.45"/>
      <polygon points="569.09,497.81 579.29,525.77 609.03,526.84 585.60,545.18 593.78,573.79 569.09,557.17 544.40,573.79 552.58,545.18 529.14,526.84 558.88,525.77" fill="none" stroke="#1E1B2E" stroke-width="8" stroke-linejoin="round" opacity="0.95"/>
      <circle cx="569.0882629549519" cy="539.8143018791417" r="5.0" fill="#2EC4B6" opacity="0.55"/>
      <path d="M 542.5 559.4 Q 569.0882629549519 583.2 595.7 559.4" fill="none" stroke="#2EC4B6" stroke-width="7" opacity="0.35" stroke-linecap="round"/>
    </g>
    </g><g opacity="0.55">
    <g>
      <circle cx="488.06855619527903" cy="796.9618648181438" r="44.8" fill="#ffffff" opacity="0.75" stroke="#1E1B2E" stroke-width="7"/>
      <circle cx="488.06855619527903" cy="796.9618648181438" r="33.0" fill="none" stroke="#2EC4B6" stroke-width="6" opacity="0.45"/>
      <polygon points="488.07,754.96 498.27,782.92 528.01,783.98 504.58,802.33 512.76,830.94 488.07,814.32 463.38,830.94 471.56,802.33 448.12,783.98 477.86,782.92" fill="none" stroke="#1E1B2E" stroke-width="8" stroke-linejoin="round" opacity="0.95"/>
      <circle cx="488.06855619527903" cy="796.9618648181438" r="5.0" fill="#2EC4B6" opacity="0.55"/>
      <path d="M 461.5 816.6 Q 488.06855619527903 840.4 514.7 816.6" fill="none" stroke="#2EC4B6" stroke-width="7" opacity="0.35" stroke-linecap="round"/>
    </g>
    </g><g opacity="0.55">
    <g>
      <circle cx="266.4121096230861" cy="799.7461266995518" r="44.8" fill="#ffffff" opacity="0.75" stroke="#1E1B2E" stroke-width="7"/>
      <circle cx="266.4121096230861" cy="799.7461266995518" r="33.0" fill="none" stroke="#2EC4B6" stroke-width="6" opacity="0.45"/>
      <polygon points="266.41,757.75 276.62,785.70 306.36,786.77 282.92,805.11 291.10,833.72 266.41,817.11 241.73,833.72 249.90,805.11 226.47,786.77 256.21,785.70" fill="none" stroke="#1E1B2E" stroke-width="8" stroke-linejoin="round" opacity="0.95"/>
      <circle cx="266.4121096230861" cy="799.7461266995518" r="5.0" fill="#2EC4B6" opacity="0.55"/>
      <path d="M 239.8 819.3 Q 266.4121096230861 843.1 293.0 819.3" fill="none" stroke="#2EC4B6" stroke-width="7" opacity="0.35" stroke-linecap="round"/>
    </g>
    </g><g opacity="0.55">
    <g>
      <circle cx="181.26968168222146" cy="538.9533235444402" r="44.8" fill="#ffffff" opacity="0.75" stroke="#1E1B2E" stroke-width="7"/>
      <circle cx="181.26968168222146" cy="538.9533235444402" r="33.0" fill="none" stroke="#2EC4B6" stroke-width="6" opacity="0.45"/>
      <polygon points="181.27,496.95 191.47,524.91 221.21,525.97 197.78,544.32 205.96,572.93 181.27,556.31 156.58,572.93 164.76,544.32 141.33,525.97 171.07,524.91" fill="none" stroke="#1E1B2E" stroke-width="8" stroke-linejoin="round" opacity="0.95"/>
      <circle cx="181.26968168222146" cy="538.9533235444402" r="5.0" fill="#2EC4B6" opacity="0.55"/>
      <path d="M 154.7 558.6 Q 181.26968168222146 582.4 207.9 558.6" fill="none" stroke="#2EC4B6" stroke-width="7" opacity="0.35" stroke-linecap="round"/>
    </g>
    </g></g><path d="M 175.0 740 Q 375.0 680 575.0 740" fill="none" stroke="#2EC4B6" stroke-width="10" opacity="0.25" stroke-linecap="round"/>
        <g filter="url(#glow)">
          <circle cx="375.0" cy="630" r="170" fill="#ffffff" opacity="0.40" stroke="#2EC4B6" stroke-width="7"/>
          
    <g>
      <circle cx="375.0" cy="630" r="115.2" fill="#ffffff" opacity="0.75" stroke="#1E1B2E" stroke-width="7"/>
      <circle cx="375.0" cy="630" r="85.0" fill="none" stroke="#2EC4B6" stroke-width="6" opacity="0.45"/>
      <polygon points="375.00,522.00 401.24,593.89 477.71,596.63 417.46,643.79 438.48,717.37 375.00,674.64 311.52,717.37 332.54,643.79 272.29,596.63 348.76,593.89" fill="none" stroke="#1E1B2E" stroke-width="8" stroke-linejoin="round" opacity="0.95"/>
      <circle cx="375.0" cy="630" r="13.0" fill="#2EC4B6" opacity="0.55"/>
      <path d="M 306.6 680.4 Q 375.0 741.6 443.4 680.4" fill="none" stroke="#2EC4B6" stroke-width="7" opacity="0.35" stroke-linecap="round"/>
    </g>
    
        </g>
        <line x1="241.3" y1="677.9" x2="195.7" y2="678.1" stroke="#ffffff" stroke-width="2.2" opacity="0.18"/>
<line x1="195.7" y1="678.1" x2="345.4" y2="354.8" stroke="#ffffff" stroke-width="2.2" opacity="0.17"/>
<line x1="345.4" y1="354.8" x2="211.4" y2="528.5" stroke="#ffffff" stroke-width="2.2" opacity="0.18"/>
<line x1="211.4" y1="528.5" x2="333.8" y2="678.3" stroke="#ffffff" stroke-width="2.2" opacity="0.19"/>
<line x1="333.8" y1="678.3" x2="227.2" y2="326.3" stroke="#ffffff" stroke-width="2.2" opacity="0.10"/>
<line x1="227.2" y1="326.3" x2="235.7" y2="664.8" stroke="#ffffff" stroke-width="2.2" opacity="0.19"/>
<circle cx="227.2" cy="326.3" r="2.4" fill="#ffffff" opacity="0.5871964530374969"/>
<circle cx="235.7" cy="664.8" r="1.6" fill="#ffffff" opacity="0.6893174675705496"/>
<circle cx="241.3" cy="677.9" r="2.2" fill="#ffffff" opacity="0.6890314887708722"/>
<circle cx="204.0" cy="640.2" r="2.0" fill="#ffffff" opacity="0.3437762028525392"/>
<circle cx="211.4" cy="528.5" r="4.3" fill="#ffffff" opacity="0.6665295102532652"/>
<circle cx="362.0" cy="464.4" r="1.7" fill="#ffffff" opacity="0.38914006328655004"/>
<circle cx="333.8" cy="678.3" r="3.4" fill="#ffffff" opacity="0.7561551837566797"/>
<circle cx="298.1" cy="282.9" r="3.4" fill="#ffffff" opacity="0.6876150068353304"/>
<circle cx="331.3" cy="335.9" r="1.7" fill="#ffffff" opacity="0.33650948130735736"/>
<circle cx="449.2" cy="413.0" r="2.6" fill="#ffffff" opacity="0.45583125881578257"/>
<circle cx="195.7" cy="678.1" r="3.8" fill="#ffffff" opacity="0.4227426466553603"/>
<circle cx="537.1" cy="607.8" r="4.7" fill="#ffffff" opacity="0.7592454594042354"/>
<circle cx="345.4" cy="354.8" r="3.5" fill="#ffffff" opacity="0.7389387461927706"/>
<circle cx="265.2" cy="654.9" r="2.3" fill="#ffffff" opacity="0.6490494151793307"/>
<rect x="42" y="1030" width="666" height="160" rx="30" fill="#ffffffd9" stroke="#1E1B2E" stroke-width="4" opacity="0.95"/>
<text x="375.0" y="1104" font-family="ui-sans-serif, system-ui, -apple-system, Segoe UI, Roboto, Helvetica, Arial" font-size="46" font-weight="900" text-anchor="middle" fill="#1E1B2E" opacity="0.98">5 of Pentacles</text>
<text x="375.0" y="1152" font-family="ui-sans-serif, system-ui, -apple-system, Segoe UI, Roboto, Helvetica, Arial" font-size="28" font-weight="700" text-anchor="middle" fill="#1E1B2E" opacity="0.7">Learning</text>

    <g opacity="0.55">
      <circle cx="127" cy="1176" r="14" fill="#2EC4B6"/>
      <circle cx="623" cy="1176" r="14" fill="#2EC4B6"/>
      <path d="M 162 1176 L 588 1176" stroke="#2EC4B6" stroke-width="4" opacity="0.45" stroke-linecap="round"/>
    </g>
    
</svg>
