<svg xmlns="http://www.w3.org/2000/svg" width="750" height="1250" viewBox="0 0 750 1250">
  <title>6 of Pentacles</title>


  <defs>
    <linearGradient id="g" x1="0" y1="0" x2="1" y2="1">
      <stop offset="0%" stop-color="#E6E9FF"/>
      <stop offset="100%" stop-color="#F9E7FF"/>
    </linearGradient>

    <!-- paper texture -->
    <filter id="paper" x="-20%" y="-20%" width="140%" height="140%">
      <feTurbulence type="fractalNoise" baseFrequency="0.013" numOctaves="3" seed="8468" result="noise"/>
      <feColorMatrix in="noise" type="matrix"
        values="1 0 0 0 0
                0 1 0 0 0
                0 0 1 0 0
                0 0 0 0.25 0" result="noiseAlpha"/>
      <feComposite in="noiseAlpha" in2="SourceGraphic" operator="over"/>
    </filter>

    <!-- soft glow -->
    <filter id="glow" x="-30%" y="-30%" width="160%" height="160%">
      <feGaussianBlur stdDeviation="10" result="blur"/>
      <feColorMatrix type="matrix" values="
        1 0 0 0 0
        0 1 0 0 0
        0 0 1 0 0
        0 0 0 0.32 0" result="blurAlpha"/>
      <feMerge>
        <feMergeNode in="blurAlpha"/>
        <feMergeNode in="SourceGraphic"/>
      </feMerge>
    </filter>
  </defs>

<rect x="0" y="0" width="750" height="1250" rx="58" ry="58" fill="url(#g)" stroke="none" stroke-width="0" opacity="1"/>
<rect x="0" y="0" width="750" height="1250" fill="#ffffff" opacity="0.08"/>
<line x1="588.4" y1="416.2" x2="200.4" y2="680.9" stroke="#ffffff" stroke-width="2.2" opacity="0.10"/>
<line x1="200.4" y1="680.9" x2="661.7" y2="79.0" stroke="#ffffff" stroke-width="2.2" opacity="0.21"/>
<line x1="661.7" y1="79.0" x2="170.4" y2="1195.6" stroke="#ffffff" stroke-width="2.2" opacity="0.17"/>
<line x1="170.4" y1="1195.6" x2="244.6" y2="902.4" stroke="#ffffff" stroke-width="2.2" opacity="0.12"/>
<line x1="244.6" y1="902.4" x2="334.9" y2="134.6" stroke="#ffffff" stroke-width="2.2" opacity="0.09"/>
<line x1="334.9" y1="134.6" x2="473.3" y2="162.9" stroke="#ffffff" stroke-width="2.2" opacity="0.09"/>
<line x1="473.3" y1="162.9" x2="360.3" y2="907.4" stroke="#ffffff" stroke-width="2.2" opacity="0.19"/>
<line x1="360.3" y1="907.4" x2="391.9" y2="414.4" stroke="#ffffff" stroke-width="2.2" opacity="0.09"/>
<line x1="391.9" y1="414.4" x2="383.8" y2="105.6" stroke="#ffffff" stroke-width="2.2" opacity="0.08"/>
<line x1="383.8" y1="105.6" x2="632.9" y2="1116.1" stroke="#ffffff" stroke-width="2.2" opacity="0.10"/>
<line x1="632.9" y1="1116.1" x2="251.3" y2="554.6" stroke="#ffffff" stroke-width="2.2" opacity="0.11"/>
<line x1="251.3" y1="554.6" x2="304.5" y2="1079.0" stroke="#ffffff" stroke-width="2.2" opacity="0.22"/>
<line x1="304.5" y1="1079.0" x2="184.3" y2="131.1" stroke="#ffffff" stroke-width="2.2" opacity="0.11"/>
<line x1="184.3" y1="131.1" x2="338.1" y2="96.0" stroke="#ffffff" stroke-width="2.2" opacity="0.19"/>
<line x1="338.1" y1="96.0" x2="182.4" y2="1020.2" stroke="#ffffff" stroke-width="2.2" opacity="0.10"/>
<line x1="182.4" y1="1020.2" x2="367.4" y2="856.7" stroke="#ffffff" stroke-width="2.2" opacity="0.18"/>
<line x1="367.4" y1="856.7" x2="108.7" y2="836.1" stroke="#ffffff" stroke-width="2.2" opacity="0.11"/>
<line x1="108.7" y1="836.1" x2="515.1" y2="967.2" stroke="#ffffff" stroke-width="2.2" opacity="0.09"/>
<circle cx="638.9" cy="1034.8" r="4.1" fill="#ffffff" opacity="0.4577268406516494"/>
<circle cx="360.3" cy="907.4" r="2.7" fill="#ffffff" opacity="0.3279119567248267"/>
<circle cx="257.4" cy="604.0" r="1.6" fill="#ffffff" opacity="0.5498518464466149"/>
<circle cx="98.8" cy="1071.8" r="2.3" fill="#ffffff" opacity="0.825664026677294"/>
<circle cx="412.2" cy="600.2" r="3.6" fill="#ffffff" opacity="0.52084929703673"/>
<circle cx="388.8" cy="332.8" r="3.6" fill="#ffffff" opacity="0.29489505862226784"/>
<circle cx="357.3" cy="972.8" r="4.6" fill="#ffffff" opacity="0.2681663731465498"/>
<circle cx="629.5" cy="1187.6" r="1.9" fill="#ffffff" opacity="0.29889551542503057"/>
<circle cx="387.0" cy="54.0" r="2.1" fill="#ffffff" opacity="0.27729165678550505"/>
<circle cx="182.4" cy="1020.2" r="4.0" fill="#ffffff" opacity="0.5254415968441115"/>
<circle cx="661.7" cy="79.0" r="3.3" fill="#ffffff" opacity="0.7218275478382453"/>
<circle cx="577.8" cy="466.0" r="4.6" fill="#ffffff" opacity="0.8102346436182795"/>
<circle cx="334.9" cy="134.6" r="3.4" fill="#ffffff" opacity="0.31664062226090084"/>
<circle cx="464.2" cy="1188.2" r="2.5" fill="#ffffff" opacity="0.543176711767096"/>
<circle cx="393.1" cy="368.7" r="2.8" fill="#ffffff" opacity="0.3967673590345827"/>
<circle cx="338.1" cy="96.0" r="2.7" fill="#ffffff" opacity="0.31833354013448467"/>
<circle cx="236.3" cy="915.2" r="4.8" fill="#ffffff" opacity="0.4840582962526794"/>
<circle cx="350.3" cy="339.2" r="3.6" fill="#ffffff" opacity="0.3819241360914444"/>
<circle cx="406.1" cy="45.4" r="2.4" fill="#ffffff" opacity="0.782262856746874"/>
<circle cx="200.4" cy="680.9" r="3.0" fill="#ffffff" opacity="0.7566448133579369"/>
<circle cx="244.6" cy="902.4" r="4.6" fill="#ffffff" opacity="0.8053757016119094"/>
<circle cx="149.4" cy="295.0" r="3.8" fill="#ffffff" opacity="0.31894950293570573"/>
<circle cx="157.3" cy="468.4" r="4.4" fill="#ffffff" opacity="0.620808628232998"/>
<circle cx="632.9" cy="1116.1" r="1.6" fill="#ffffff" opacity="0.3604556805288557"/>
<circle cx="251.3" cy="554.6" r="3.6" fill="#ffffff" opacity="0.5613613799314456"/>
<circle cx="704.0" cy="804.7" r="1.6" fill="#ffffff" opacity="0.31397038340993355"/>
<circle cx="473.3" cy="162.9" r="2.3" fill="#ffffff" opacity="0.6918150529284777"/>
<circle cx="268.4" cy="924.7" r="2.3" fill="#ffffff" opacity="0.5941046088834181"/>
<circle cx="126.7" cy="430.3" r="3.8" fill="#ffffff" opacity="0.4816699598829852"/>
<circle cx="367.4" cy="856.7" r="3.8" fill="#ffffff" opacity="0.5009478948437016"/>
<circle cx="446.2" cy="1023.3" r="4.1" fill="#ffffff" opacity="0.6129683610971222"/>
<circle cx="515.1" cy="967.2" r="3.5" fill="#ffffff" opacity="0.5864475289844939"/>
<circle cx="88.2" cy="781.0" r="1.8" fill="#ffffff" opacity="0.42667425456051766"/>
<circle cx="394.3" cy="511.4" r="4.0" fill="#ffffff" opacity="0.7339537353761533"/>
<circle cx="170.4" cy="1195.6" r="3.5" fill="#ffffff" opacity="0.4778157667597138"/>
<circle cx="304.5" cy="1079.0" r="4.3" fill="#ffffff" opacity="0.7868247272899688"/>
<circle cx="383.8" cy="105.6" r="1.6" fill="#ffffff" opacity="0.6212842044272807"/>
<circle cx="524.1" cy="534.7" r="4.7" fill="#ffffff" opacity="0.50362649875489"/>
<circle cx="604.5" cy="1008.3" r="3.2" fill="#ffffff" opacity="0.8226486959706333"/>
<circle cx="519.9" cy="52.8" r="3.0" fill="#ffffff" opacity="0.6723288853455456"/>
<circle cx="407.1" cy="854.1" r="1.8" fill="#ffffff" opacity="0.5022960417280777"/>
<circle cx="391.9" cy="414.4" r="3.9" fill="#ffffff" opacity="0.3332321900168296"/>
<circle cx="545.0" cy="1014.4" r="3.2" fill="#ffffff" opacity="0.601691503512549"/>
<circle cx="142.7" cy="641.7" r="2.6" fill="#ffffff" opacity="0.8228557486158128"/>
<circle cx="184.3" cy="131.1" r="2.8" fill="#ffffff" opacity="0.3395734632229799"/>
<circle cx="77.4" cy="724.9" r="4.8" fill="#ffffff" opacity="0.8187268019538312"/>
<circle cx="588.4" cy="416.2" r="3.8" fill="#ffffff" opacity="0.7503533504958472"/>
<circle cx="534.5" cy="487.7" r="1.9" fill="#ffffff" opacity="0.4341146482020902"/>
<circle cx="302.3" cy="569.8" r="4.8" fill="#ffffff" opacity="0.7485779524891258"/>
<circle cx="108.7" cy="836.1" r="3.8" fill="#ffffff" opacity="0.74780711265797"/>
<g filter="url(#paper)"><rect x="42" y="42" width="666" height="1166" rx="54" ry="54" fill="none" stroke="#1E1B2E" stroke-width="8" opacity="0.95"/>
<rect x="60" y="60" width="630" height="1130" rx="46" ry="46" fill="none" stroke="#2EC4B6" stroke-width="3" opacity="0.35"/>

  <g opacity="0.42">
    <circle cx="375.0" cy="560" r="285" fill="none" stroke="#2EC4B6" stroke-width="4.2" opacity="0.42"/>
    <circle cx="375.0" cy="560" r="233.7" fill="none" stroke="#2EC4B6" stroke-width="2.2" opacity="0.23"/>
    <line x1="642.0" y1="560.0" x2="674.0" y2="560.0" stroke="#2EC4B6" stroke-width="3.2" opacity="0.23" stroke-linecap="round"/><line x1="606.2" y1="693.5" x2="633.9" y2="709.5" stroke="#2EC4B6" stroke-width="3.2" opacity="0.23" stroke-linecap="round"/><line x1="508.5" y1="791.2" x2="524.5" y2="818.9" stroke="#2EC4B6" stroke-width="3.2" opacity="0.23" stroke-linecap="round"/><line x1="375.0" y1="827.0" x2="375.0" y2="859.0" stroke="#2EC4B6" stroke-width="3.2" opacity="0.23" stroke-linecap="round"/><line x1="241.5" y1="791.2" x2="225.5" y2="818.9" stroke="#2EC4B6" stroke-width="3.2" opacity="0.23" stroke-linecap="round"/><line x1="143.8" y1="693.5" x2="116.1" y2="709.5" stroke="#2EC4B6" stroke-width="3.2" opacity="0.23" stroke-linecap="round"/><line x1="108.0" y1="560.0" x2="76.0" y2="560.0" stroke="#2EC4B6" stroke-width="3.2" opacity="0.23" stroke-linecap="round"/><line x1="143.8" y1="426.5" x2="116.1" y2="410.5" stroke="#2EC4B6" stroke-width="3.2" opacity="0.23" stroke-linecap="round"/><line x1="241.5" y1="328.8" x2="225.5" y2="301.1" stroke="#2EC4B6" stroke-width="3.2" opacity="0.23" stroke-linecap="round"/><line x1="375.0" y1="293.0" x2="375.0" y2="261.0" stroke="#2EC4B6" stroke-width="3.2" opacity="0.23" stroke-linecap="round"/><line x1="508.5" y1="328.8" x2="524.5" y2="301.1" stroke="#2EC4B6" stroke-width="3.2" opacity="0.23" stroke-linecap="round"/><line x1="606.2" y1="426.5" x2="633.9" y2="410.5" stroke="#2EC4B6" stroke-width="3.2" opacity="0.23" stroke-linecap="round"/>
    <circle cx="660.0" cy="556.3" r="3.8" fill="#2EC4B6" opacity="0.32"/><circle cx="649.3" cy="637.4" r="3.2" fill="#2EC4B6" opacity="0.27"/><circle cx="619.6" cy="706.3" r="3.1" fill="#2EC4B6" opacity="0.37"/><circle cx="582.5" cy="755.4" r="3.3" fill="#2EC4B6" opacity="0.35"/><circle cx="518.2" cy="806.4" r="3.5" fill="#2EC4B6" opacity="0.44"/><circle cx="446.7" cy="835.8" r="3.1" fill="#2EC4B6" opacity="0.29"/><circle cx="381.1" cy="844.9" r="3.1" fill="#2EC4B6" opacity="0.44"/><circle cx="299.5" cy="834.8" r="3.1" fill="#2EC4B6" opacity="0.32"/><circle cx="224.7" cy="802.1" r="3.6" fill="#2EC4B6" opacity="0.31"/><circle cx="174.9" cy="763.0" r="3.1" fill="#2EC4B6" opacity="0.25"/><circle cx="130.4" cy="706.2" r="3.7" fill="#2EC4B6" opacity="0.27"/><circle cx="97.6" cy="625.3" r="3.0" fill="#2EC4B6" opacity="0.21"/><circle cx="90.0" cy="554.9" r="2.9" fill="#2EC4B6" opacity="0.19"/><circle cx="102.3" cy="477.2" r="4.0" fill="#2EC4B6" opacity="0.29"/><circle cx="126.0" cy="421.3" r="2.7" fill="#2EC4B6" opacity="0.20"/><circle cx="172.4" cy="359.6" r="3.6" fill="#2EC4B6" opacity="0.19"/><circle cx="230.5" cy="314.3" r="3.5" fill="#2EC4B6" opacity="0.27"/><circle cx="298.1" cy="285.6" r="3.4" fill="#2EC4B6" opacity="0.32"/><circle cx="369.0" cy="275.1" r="3.7" fill="#2EC4B6" opacity="0.42"/><circle cx="439.3" cy="282.4" r="2.6" fill="#2EC4B6" opacity="0.40"/><circle cx="515.3" cy="311.9" r="2.8" fill="#2EC4B6" opacity="0.33"/><circle cx="577.5" cy="359.5" r="2.9" fill="#2EC4B6" opacity="0.34"/><circle cx="621.4" cy="416.8" r="3.4" fill="#2EC4B6" opacity="0.34"/><circle cx="652.1" cy="493.4" r="2.9" fill="#2EC4B6" opacity="0.22"/>
  </g>

<g><g transform="translate(50,54)"><path d="M 18.0 117.0 C 45.0 45.0, 99.0 27.0, 153.0 54.0" fill="none" stroke="#2EC4B6" stroke-width="6" opacity="0.55" stroke-linecap="round"/></g><g transform="translate(700,54) scale(-1,1)"><path d="M 18.0 117.0 C 45.0 45.0, 99.0 27.0, 153.0 54.0" fill="none" stroke="#2EC4B6" stroke-width="6" opacity="0.55" stroke-linecap="round"/></g><g transform="translate(50,1196) scale(1,-1)"><path d="M 18.0 117.0 C 45.0 45.0, 99.0 27.0, 153.0 54.0" fill="none" stroke="#2EC4B6" stroke-width="6" opacity="0.55" stroke-linecap="round"/></g><g transform="translate(700,1196) scale(-1,-1)"><path d="M 18.0 117.0 C 45.0 45.0, 99.0 27.0, 153.0 54.0" fill="none" stroke="#2EC4B6" stroke-width="6" opacity="0.55" stroke-linecap="round"/></g></g></g>
<rect x="42" y="60" width="666" height="92" rx="30" fill="#ffffffcc" stroke="#1E1B2E" stroke-width="4" opacity="0.95"/>
<text x="375.0" y="122" font-family="ui-sans-serif, system-ui, -apple-system, Segoe UI, Roboto, Helvetica, Arial" font-size="30" font-weight="800" text-anchor="middle" fill="#1E1B2E" opacity="0.95" letter-spacing="1">MINOR ARCANA • PENTACLES</text>
<rect x="76" y="170" width="598" height="760" rx="52" fill="#ffffff" opacity="0.15"/>
<g><circle cx="231.6" cy="491.0" r="2.0" fill="#2EC4B6" opacity="0.07"/><circle cx="383.5" cy="548.8" r="2.3" fill="#2EC4B6" opacity="0.07"/><circle cx="74.7" cy="776.9" r="2.6" fill="#2EC4B6" opacity="0.07"/><circle cx="495.2" cy="223.3" r="2.9" fill="#2EC4B6" opacity="0.07"/><circle cx="245.7" cy="853.5" r="2.9" fill="#2EC4B6" opacity="0.07"/><circle cx="691.6" cy="480.4" r="1.8" fill="#2EC4B6" opacity="0.07"/><circle cx="676.1" cy="675.0" r="2.1" fill="#2EC4B6" opacity="0.07"/><circle cx="149.3" cy="271.4" r="2.7" fill="#2EC4B6" opacity="0.07"/><circle cx="183.0" cy="302.2" r="1.7" fill="#2EC4B6" opacity="0.07"/><circle cx="551.3" cy="393.6" r="2.4" fill="#2EC4B6" opacity="0.07"/><circle cx="44.0" cy="200.9" r="2.9" fill="#2EC4B6" opacity="0.07"/><circle cx="368.2" cy="850.6" r="1.9" fill="#2EC4B6" opacity="0.07"/><circle cx="581.2" cy="632.1" r="2.3" fill="#2EC4B6" opacity="0.07"/><circle cx="267.2" cy="561.7" r="3.0" fill="#2EC4B6" opacity="0.07"/><circle cx="327.5" cy="793.0" r="2.7" fill="#2EC4B6" opacity="0.07"/><circle cx="367.8" cy="655.6" r="3.1" fill="#2EC4B6" opacity="0.07"/><circle cx="52.5" cy="399.9" r="1.8" fill="#2EC4B6" opacity="0.07"/><circle cx="502.0" cy="697.4" r="1.7" fill="#2EC4B6" opacity="0.07"/><circle cx="184.3" cy="701.5" r="2.6" fill="#2EC4B6" opacity="0.07"/><circle cx="590.0" cy="625.0" r="2.7" fill="#2EC4B6" opacity="0.07"/><circle cx="463.9" cy="353.5" r="3.0" fill="#2EC4B6" opacity="0.07"/><circle cx="333.0" cy="499.9" r="2.8" fill="#2EC4B6" opacity="0.07"/><circle cx="87.5" cy="627.3" r="2.1" fill="#2EC4B6" opacity="0.07"/><circle cx="623.9" cy="721.6" r="1.8" fill="#2EC4B6" opacity="0.07"/><circle cx="648.8" cy="622.5" r="2.6" fill="#2EC4B6" opacity="0.07"/><circle cx="657.1" cy="465.4" r="2.9" fill="#2EC4B6" opacity="0.07"/><circle cx="209.9" cy="701.5" r="1.7" fill="#2EC4B6" opacity="0.07"/><circle cx="316.4" cy="498.4" r="3.1" fill="#2EC4B6" opacity="0.07"/><circle cx="533.0" cy="869.7" r="2.4" fill="#2EC4B6" opacity="0.07"/><circle cx="190.9" cy="736.6" r="2.9" fill="#2EC4B6" opacity="0.07"/><circle cx="176.6" cy="589.2" r="3.1" fill="#2EC4B6" opacity="0.07"/><circle cx="651.6" cy="463.3" r="2.3" fill="#2EC4B6" opacity="0.07"/><circle cx="492.4" cy="382.3" r="3.0" fill="#2EC4B6" opacity="0.07"/><circle cx="481.5" cy="309.5" r="2.2" fill="#2EC4B6" opacity="0.07"/><circle cx="257.3" cy="344.3" r="2.9" fill="#2EC4B6" opacity="0.07"/><circle cx="680.5" cy="211.9" r="2.5" fill="#2EC4B6" opacity="0.07"/><circle cx="299.8" cy="590.1" r="2.0" fill="#2EC4B6" opacity="0.07"/><circle cx="480.5" cy="650.3" r="2.2" fill="#2EC4B6" opacity="0.07"/><circle cx="137.0" cy="303.8" r="2.6" fill="#2EC4B6" opacity="0.07"/><circle cx="557.6" cy="401.2" r="2.0" fill="#2EC4B6" opacity="0.07"/><circle cx="646.4" cy="599.9" r="2.7" fill="#2EC4B6" opacity="0.07"/><circle cx="663.7" cy="310.5" r="2.7" fill="#2EC4B6" opacity="0.07"/><circle cx="478.8" cy="673.6" r="2.4" fill="#2EC4B6" opacity="0.07"/><circle cx="705.4" cy="786.9" r="2.6" fill="#2EC4B6" opacity="0.07"/><circle cx="613.4" cy="790.6" r="1.9" fill="#2EC4B6" opacity="0.07"/><circle cx="177.5" cy="847.6" r="1.8" fill="#2EC4B6" opacity="0.07"/><circle cx="355.6" cy="492.2" r="1.7" fill="#2EC4B6" opacity="0.07"/><circle cx="537.2" cy="462.6" r="1.9" fill="#2EC4B6" opacity="0.07"/><circle cx="220.2" cy="448.0" r="2.1" fill="#2EC4B6" opacity="0.07"/><circle cx="231.5" cy="700.5" r="2.1" fill="#2EC4B6" opacity="0.07"/><circle cx="211.4" cy="773.2" r="2.2" fill="#2EC4B6" opacity="0.07"/><circle cx="494.0" cy="299.3" r="2.2" fill="#2EC4B6" opacity="0.07"/><circle cx="153.1" cy="634.2" r="1.8" fill="#2EC4B6" opacity="0.07"/><circle cx="270.9" cy="554.1" r="3.2" fill="#2EC4B6" opacity="0.07"/><circle cx="257.8" cy="472.0" r="3.1" fill="#2EC4B6" opacity="0.07"/><circle cx="519.0" cy="809.7" r="1.6" fill="#2EC4B6" opacity="0.07"/><circle cx="370.3" cy="364.3" r="2.5" fill="#2EC4B6" opacity="0.07"/><circle cx="242.0" cy="669.5" r="2.2" fill="#2EC4B6" opacity="0.07"/><circle cx="374.2" cy="590.0" r="2.3" fill="#2EC4B6" opacity="0.07"/><circle cx="115.8" cy="799.6" r="2.4" fill="#2EC4B6" opacity="0.07"/><circle cx="384.9" cy="285.2" r="2.7" fill="#2EC4B6" opacity="0.07"/><circle cx="626.1" cy="545.9" r="2.3" fill="#2EC4B6" opacity="0.07"/><circle cx="208.5" cy="373.0" r="2.7" fill="#2EC4B6" opacity="0.07"/><circle cx="654.0" cy="742.9" r="2.0" fill="#2EC4B6" opacity="0.07"/><circle cx="531.4" cy="679.9" r="2.1" fill="#2EC4B6" opacity="0.07"/><circle cx="73.1" cy="345.0" r="2.7" fill="#2EC4B6" opacity="0.07"/><circle cx="409.3" cy="887.6" r="3.2" fill="#2EC4B6" opacity="0.07"/><circle cx="67.6" cy="485.1" r="2.4" fill="#2EC4B6" opacity="0.07"/><circle cx="220.6" cy="583.0" r="1.8" fill="#2EC4B6" opacity="0.07"/><circle cx="503.7" cy="629.8" r="3.1" fill="#2EC4B6" opacity="0.07"/><circle cx="264.6" cy="311.9" r="2.1" fill="#2EC4B6" opacity="0.07"/><circle cx="620.0" cy="379.8" r="2.4" fill="#2EC4B6" opacity="0.07"/><circle cx="398.5" cy="483.2" r="1.8" fill="#2EC4B6" opacity="0.07"/><circle cx="660.5" cy="409.5" r="1.6" fill="#2EC4B6" opacity="0.07"/><circle cx="501.7" cy="382.3" r="2.0" fill="#2EC4B6" opacity="0.07"/><circle cx="438.8" cy="456.2" r="2.1" fill="#2EC4B6" opacity="0.07"/><circle cx="222.6" cy="305.1" r="2.8" fill="#2EC4B6" opacity="0.07"/><circle cx="585.4" cy="221.1" r="2.6" fill="#2EC4B6" opacity="0.07"/><circle cx="680.8" cy="342.3" r="3.2" fill="#2EC4B6" opacity="0.07"/><circle cx="144.0" cy="569.0" r="1.9" fill="#2EC4B6" opacity="0.07"/><circle cx="524.3" cy="192.5" r="1.7" fill="#2EC4B6" opacity="0.07"/><circle cx="691.9" cy="584.3" r="1.7" fill="#2EC4B6" opacity="0.07"/><circle cx="173.1" cy="868.4" r="2.8" fill="#2EC4B6" opacity="0.07"/><circle cx="636.9" cy="507.4" r="1.9" fill="#2EC4B6" opacity="0.07"/><circle cx="660.4" cy="299.7" r="3.1" fill="#2EC4B6" opacity="0.07"/><circle cx="459.3" cy="292.6" r="1.6" fill="#2EC4B6" opacity="0.07"/><circle cx="503.0" cy="255.5" r="2.3" fill="#2EC4B6" opacity="0.07"/><circle cx="449.8" cy="491.0" r="2.5" fill="#2EC4B6" opacity="0.07"/><circle cx="214.2" cy="447.2" r="2.9" fill="#2EC4B6" opacity="0.07"/><circle cx="538.5" cy="882.6" r="1.9" fill="#2EC4B6" opacity="0.07"/><circle cx="258.3" cy="789.9" r="1.7" fill="#2EC4B6" opacity="0.07"/><circle cx="360.2" cy="712.1" r="2.1" fill="#2EC4B6" opacity="0.07"/><circle cx="337.7" cy="594.5" r="3.1" fill="#2EC4B6" opacity="0.07"/><circle cx="151.1" cy="384.0" r="2.5" fill="#2EC4B6" opacity="0.07"/><circle cx="458.2" cy="657.3" r="2.9" fill="#2EC4B6" opacity="0.07"/><circle cx="582.1" cy="643.9" r="3.0" fill="#2EC4B6" opacity="0.07"/><circle cx="185.6" cy="684.4" r="1.7" fill="#2EC4B6" opacity="0.07"/><circle cx="276.0" cy="272.9" r="2.3" fill="#2EC4B6" opacity="0.07"/><circle cx="469.9" cy="220.7" r="3.1" fill="#2EC4B6" opacity="0.07"/><circle cx="274.8" cy="907.8" r="3.1" fill="#2EC4B6" opacity="0.07"/><circle cx="652.9" cy="274.7" r="2.2" fill="#2EC4B6" opacity="0.07"/><circle cx="411.7" cy="364.4" r="1.9" fill="#2EC4B6" opacity="0.07"/><circle cx="316.6" cy="872.6" r="3.1" fill="#2EC4B6" opacity="0.07"/><circle cx="213.4" cy="682.9" r="2.4" fill="#2EC4B6" opacity="0.07"/><circle cx="108.3" cy="250.8" r="1.6" fill="#2EC4B6" opacity="0.07"/><circle cx="296.0" cy="366.7" r="2.2" fill="#2EC4B6" opacity="0.07"/><circle cx="255.0" cy="422.3" r="1.7" fill="#2EC4B6" opacity="0.07"/><circle cx="614.5" cy="857.1" r="1.9" fill="#2EC4B6" opacity="0.07"/><circle cx="693.7" cy="803.2" r="1.8" fill="#2EC4B6" opacity="0.07"/><circle cx="547.9" cy="364.6" r="2.5" fill="#2EC4B6" opacity="0.07"/></g><g><g opacity="0.55">
    <g>
      <circle cx="384.13326145358945" cy="410.1987046388408" r="44.8" fill="#ffffff" opacity="0.75" stroke="#1E1B2E" stroke-width="7"/>
      <circle cx="384.13326145358945" cy="410.1987046388408" r="33.0" fill="none" stroke="#2EC4B6" stroke-width="6" opacity="0.45"/>
      <polygon points="384.13,368.20 394.34,396.15 424.08,397.22 400.64,415.56 408.82,444.18 384.13,427.56 359.45,444.18 367.62,415.56 344.19,397.22 373.93,396.15" fill="none" stroke="#1E1B2E" stroke-width="8" stroke-linejoin="round" opacity="0.95"/>
      <circle cx="384.13326145358945" cy="410.1987046388408" r="5.0" fill="#2EC4B6" opacity="0.55"/>
      <path d="M 357.5 429.8 Q 384.13326145358945 453.6 410.7 429.8" fill="none" stroke="#2EC4B6" stroke-width="7" opacity="0.35" stroke-linecap="round"/>
    </g>
    </g><g opacity="0.55">
    <g>
      <circle cx="566.4857933260058" cy="533.7840446650957" r="44.8" fill="#ffffff" opacity="0.75" stroke="#1E1B2E" stroke-width="7"/>
      <circle cx="566.4857933260058" cy="533.7840446650957" r="33.0" fill="none" stroke="#2EC4B6" stroke-width="6" opacity="0.45"/>
      <polygon points="566.49,491.78 576.69,519.74 606.43,520.81 583.00,539.15 591.17,567.76 566.49,551.14 541.80,567.76 549.98,539.15 526.54,520.81 556.28,519.74" fill="none" stroke="#1E1B2E" stroke-width="8" stroke-linejoin="round" opacity="0.95"/>
      <circle cx="566.4857933260058" cy="533.7840446650957" r="5.0" fill="#2EC4B6" opacity="0.55"/>
      <path d="M 539.9 553.4 Q 566.4857933260058 577.2 593.1 553.4" fill="none" stroke="#2EC4B6" stroke-width="7" opacity="0.35" stroke-linecap="round"/>
    </g>
    </g><g opacity="0.55">
    <g>
      <circle cx="564.2051511522645" cy="711.1120781095939" r="44.8" fill="#ffffff" opacity="0.75" stroke="#1E1B2E" stroke-width="7"/>
      <circle cx="564.2051511522645" cy="711.1120781095939" r="33.0" fill="none" stroke="#2EC4B6" stroke-width="6" opacity="0.45"/>
      <polygon points="564.21,669.11 574.41,697.07 604.15,698.13 580.72,716.48 588.89,745.09 564.21,728.47 539.52,745.09 547.69,716.48 524.26,698.13 554.00,697.07" fill="none" stroke="#1E1B2E" stroke-width="8" stroke-linejoin="round" opacity="0.95"/>
      <circle cx="564.2051511522645" cy="711.1120781095939" r="5.0" fill="#2EC4B6" opacity="0.55"/>
      <path d="M 537.6 730.7 Q 564.2051511522645 754.5 590.8 730.7" fill="none" stroke="#2EC4B6" stroke-width="7" opacity="0.35" stroke-linecap="round"/>
    </g>
    </g><g opacity="0.55">
    <g>
      <circle cx="353.1517947544035" cy="828.860374239697" r="44.8" fill="#ffffff" opacity="0.75" stroke="#1E1B2E" stroke-width="7"/>
      <circle cx="353.1517947544035" cy="828.860374239697" r="33.0" fill="none" stroke="#2EC4B6" stroke-width="6" opacity="0.45"/>
      <polygon points="353.15,786.86 363.36,814.82 393.10,815.88 369.66,834.22 377.84,862.84 353.15,846.22 328.46,862.84 336.64,834.22 313.21,815.88 342.95,814.82" fill="none" stroke="#1E1B2E" stroke-width="8" stroke-linejoin="round" opacity="0.95"/>
      <circle cx="353.1517947544035" cy="828.860374239697" r="5.0" fill="#2EC4B6" opacity="0.55"/>
      <path d="M 326.6 848.5 Q 353.1517947544035 872.3 379.8 848.5" fill="none" stroke="#2EC4B6" stroke-width="7" opacity="0.35" stroke-linecap="round"/>
    </g>
    </g><g opacity="0.55">
    <g>
      <circle cx="197.17356988009234" cy="731.7038976527211" r="44.8" fill="#ffffff" opacity="0.75" stroke="#1E1B2E" stroke-width="7"/>
      <circle cx="197.17356988009234" cy="731.7038976527211" r="33.0" fill="none" stroke="#2EC4B6" stroke-width="6" opacity="0.45"/>
      <polygon points="197.17,689.70 207.38,717.66 237.12,718.73 213.68,737.07 221.86,765.68 197.17,749.06 172.49,765.68 180.66,737.07 157.23,718.73 186.97,717.66" fill="none" stroke="#1E1B2E" stroke-width="8" stroke-linejoin="round" opacity="0.95"/>
      <circle cx="197.17356988009234" cy="731.7038976527211" r="5.0" fill="#2EC4B6" opacity="0.55"/>
      <path d="M 170.6 751.3 Q 197.17356988009234 775.1 223.8 751.3" fill="none" stroke="#2EC4B6" stroke-width="7" opacity="0.35" stroke-linecap="round"/>
    </g>
    </g><g opacity="0.55">
    <g>
      <circle cx="202.39721519111777" cy="500.3827826932147" r="44.8" fill="#ffffff" opacity="0.75" stroke="#1E1B2E" stroke-width="7"/>
      <circle cx="202.39721519111777" cy="500.3827826932147" r="33.0" fill="none" stroke="#2EC4B6" stroke-width="6" opacity="0.45"/>
      <polygon points="202.40,458.38 212.60,486.34 242.34,487.40 218.91,505.75 227.08,534.36 202.40,517.74 177.71,534.36 185.89,505.75 162.45,487.40 192.19,486.34" fill="none" stroke="#1E1B2E" stroke-width="8" stroke-linejoin="round" opacity="0.95"/>
      <circle cx="202.39721519111777" cy="500.3827826932147" r="5.0" fill="#2EC4B6" opacity="0.55"/>
      <path d="M 175.8 520.0 Q 202.39721519111777 543.8 229.0 520.0" fill="none" stroke="#2EC4B6" stroke-width="7" opacity="0.35" stroke-linecap="round"/>
    </g>
    </g></g><line x1="507.0" y1="306.0" x2="443.7" y2="559.2" stroke="#ffffff" stroke-width="2.2" opacity="0.09"/>
<line x1="443.7" y1="559.2" x2="173.1" y2="270.0" stroke="#ffffff" stroke-width="2.2" opacity="0.09"/>
<line x1="173.1" y1="270.0" x2="598.3" y2="534.9" stroke="#ffffff" stroke-width="2.2" opacity="0.09"/>
<line x1="598.3" y1="534.9" x2="545.2" y2="352.2" stroke="#ffffff" stroke-width="2.2" opacity="0.17"/>
<line x1="545.2" y1="352.2" x2="228.9" y2="556.5" stroke="#ffffff" stroke-width="2.2" opacity="0.13"/>
<line x1="228.9" y1="556.5" x2="486.0" y2="522.6" stroke="#ffffff" stroke-width="2.2" opacity="0.11"/>
<line x1="486.0" y1="522.6" x2="133.1" y2="432.9" stroke="#ffffff" stroke-width="2.2" opacity="0.18"/>
<circle cx="507.0" cy="306.0" r="4.1" fill="#ffffff" opacity="0.35185337781494325"/>
<circle cx="436.8" cy="437.8" r="4.4" fill="#ffffff" opacity="0.5683343335699181"/>
<circle cx="228.9" cy="556.5" r="4.4" fill="#ffffff" opacity="0.3571268035448818"/>
<circle cx="440.3" cy="491.1" r="2.6" fill="#ffffff" opacity="0.700915243065206"/>
<circle cx="545.2" cy="352.2" r="2.3" fill="#ffffff" opacity="0.5128303023339345"/>
<circle cx="173.1" cy="270.0" r="2.0" fill="#ffffff" opacity="0.28125486538249284"/>
<circle cx="340.5" cy="406.3" r="2.8" fill="#ffffff" opacity="0.6306749893354258"/>
<circle cx="314.9" cy="518.1" r="2.9" fill="#ffffff" opacity="0.8330885615335643"/>
<circle cx="247.3" cy="317.2" r="1.7" fill="#ffffff" opacity="0.8245548760238498"/>
<circle cx="192.8" cy="334.8" r="4.1" fill="#ffffff" opacity="0.2945737747426521"/>
<circle cx="574.9" cy="405.4" r="1.9" fill="#ffffff" opacity="0.755510560091955"/>
<circle cx="589.6" cy="316.2" r="4.5" fill="#ffffff" opacity="0.48296476920462433"/>
<circle cx="598.3" cy="534.9" r="4.2" fill="#ffffff" opacity="0.6702724550191939"/>
<circle cx="156.5" cy="432.7" r="3.5" fill="#ffffff" opacity="0.7187153139506617"/>
<circle cx="443.7" cy="559.2" r="2.4" fill="#ffffff" opacity="0.26221208710129085"/>
<circle cx="133.1" cy="432.9" r="2.8" fill="#ffffff" opacity="0.39605411506083676"/>
<circle cx="486.0" cy="522.6" r="2.4" fill="#ffffff" opacity="0.3423718109065831"/>
<circle cx="565.7" cy="298.2" r="2.2" fill="#ffffff" opacity="0.5657609268275008"/>
        <g filter="url(#glow)">
          <circle cx="375.0" cy="630" r="170" fill="#ffffff" opacity="0.40" stroke="#2EC4B6" stroke-width="7"/>
          
    <g>
      <circle cx="375.0" cy="630" r="115.2" fill="#ffffff" opacity="0.75" stroke="#1E1B2E" stroke-width="7"/>
      <circle cx="375.0" cy="630" r="85.0" fill="none" stroke="#2EC4B6" stroke-width="6" opacity="0.45"/>
      <polygon points="375.00,522.00 401.24,593.89 477.71,596.63 417.46,643.79 438.48,717.37 375.00,674.64 311.52,717.37 332.54,643.79 272.29,596.63 348.76,593.89" fill="none" stroke="#1E1B2E" stroke-width="8" stroke-linejoin="round" opacity="0.95"/>
      <circle cx="375.0" cy="630" r="13.0" fill="#2EC4B6" opacity="0.55"/>
      <path d="M 306.6 680.4 Q 375.0 741.6 443.4 680.4" fill="none" stroke="#2EC4B6" stroke-width="7" opacity="0.35" stroke-linecap="round"/>
    </g>
    
        </g>
        <line x1="229.0" y1="299.3" x2="214.7" y2="255.9" stroke="#ffffff" stroke-width="2.2" opacity="0.19"/>
<line x1="214.7" y1="255.9" x2="384.8" y2="541.4" stroke="#ffffff" stroke-width="2.2" opacity="0.11"/>
<line x1="384.8" y1="541.4" x2="297.7" y2="303.2" stroke="#ffffff" stroke-width="2.2" opacity="0.12"/>
<line x1="297.7" y1="303.2" x2="573.9" y2="468.8" stroke="#ffffff" stroke-width="2.2" opacity="0.21"/>
<line x1="573.9" y1="468.8" x2="413.9" y2="668.0" stroke="#ffffff" stroke-width="2.2" opacity="0.13"/>
<line x1="413.9" y1="668.0" x2="537.2" y2="236.2" stroke="#ffffff" stroke-width="2.2" opacity="0.16"/>
<circle cx="229.0" cy="299.3" r="3.7" fill="#ffffff" opacity="0.4279472149309719"/>
<circle cx="214.7" cy="255.9" r="3.6" fill="#ffffff" opacity="0.426812131093003"/>
<circle cx="564.2" cy="675.3" r="2.0" fill="#ffffff" opacity="0.8008672217764119"/>
<circle cx="385.0" cy="420.3" r="3.7" fill="#ffffff" opacity="0.26572943327196974"/>
<circle cx="131.1" cy="276.0" r="3.4" fill="#ffffff" opacity="0.3882525139024461"/>
<circle cx="597.9" cy="421.7" r="1.8" fill="#ffffff" opacity="0.4947336787084448"/>
<circle cx="297.7" cy="303.2" r="2.8" fill="#ffffff" opacity="0.6786999285701294"/>
<circle cx="413.9" cy="668.0" r="1.7" fill="#ffffff" opacity="0.42876403201953034"/>
<circle cx="139.9" cy="459.8" r="3.6" fill="#ffffff" opacity="0.3207644626553513"/>
<circle cx="277.7" cy="353.6" r="3.4" fill="#ffffff" opacity="0.47615091194442644"/>
<circle cx="384.8" cy="541.4" r="3.9" fill="#ffffff" opacity="0.6383369553813321"/>
<circle cx="573.9" cy="468.8" r="3.6" fill="#ffffff" opacity="0.716282401210556"/>
<circle cx="537.2" cy="236.2" r="4.1" fill="#ffffff" opacity="0.6636275613278846"/>
<circle cx="598.3" cy="339.4" r="4.4" fill="#ffffff" opacity="0.6929686475429082"/>
<rect x="42" y="1030" width="666" height="160" rx="30" fill="#ffffffd9" stroke="#1E1B2E" stroke-width="4" opacity="0.95"/>
<text x="375.0" y="1104" font-family="ui-sans-serif, system-ui, -apple-system, Segoe UI, Roboto, Helvetica, Arial" font-size="46" font-weight="900" text-anchor="middle" fill="#1E1B2E" opacity="0.98">6 of Pentacles</text>
<text x="375.0" y="1152" font-family="ui-sans-serif, system-ui, -apple-system, Segoe UI, Roboto, Helvetica, Arial" font-size="28" font-weight="700" text-anchor="middle" fill="#1E1B2E" opacity="0.7">Support</text>

    <g opacity="0.55">
      <circle cx="127" cy="1176" r="14" fill="#2EC4B6"/>
      <circle cx="623" cy="1176" r="14" fill="#2EC4B6"/>
      <path d="M 162 1176 L 588 1176" stroke="#2EC4B6" stroke-width="4" opacity="0.45" stroke-linecap="round"/>
    </g>
    
</svg>
