<svg xmlns="http://www.w3.org/2000/svg" width="750" height="1250" viewBox="0 0 750 1250">
  <title>7 of Pentacles</title>


  <defs>
    <linearGradient id="g" x1="0" y1="0" x2="1" y2="1">
      <stop offset="0%" stop-color="#E9FFF2"/>
      <stop offset="100%" stop-color="#FFF1FF"/>
    </linearGradient>

    <!-- paper texture -->
    <filter id="paper" x="-20%" y="-20%" width="140%" height="140%">
      <feTurbulence type="fractalNoise" baseFrequency="0.018" numOctaves="3" seed="6948" result="noise"/>
      <feColorMatrix in="noise" type="matrix"
        values="1 0 0 0 0
                0 1 0 0 0
                0 0 1 0 0
                0 0 0 0.25 0" result="noiseAlpha"/>
      <feComposite in="noiseAlpha" in2="SourceGraphic" operator="over"/>
    </filter>

    <!-- soft glow -->
    <filter id="glow" x="-30%" y="-30%" width="160%" height="160%">
      <feGaussianBlur stdDeviation="10" result="blur"/>
      <feColorMatrix type="matrix" values="
        1 0 0 0 0
        0 1 0 0 0
        0 0 1 0 0
        0 0 0 0.32 0" result="blurAlpha"/>
      <feMerge>
        <feMergeNode in="blurAlpha"/>
        <feMergeNode in="SourceGraphic"/>
      </feMerge>
    </filter>
  </defs>

<rect x="0" y="0" width="750" height="1250" rx="58" ry="58" fill="url(#g)" stroke="none" stroke-width="0" opacity="1"/>
<rect x="0" y="0" width="750" height="1250" fill="#ffffff" opacity="0.08"/>
<line x1="173.3" y1="168.7" x2="676.2" y2="680.9" stroke="#ffffff" stroke-width="2.2" opacity="0.18"/>
<line x1="676.2" y1="680.9" x2="74.6" y2="83.4" stroke="#ffffff" stroke-width="2.2" opacity="0.19"/>
<line x1="74.6" y1="83.4" x2="214.6" y2="496.2" stroke="#ffffff" stroke-width="2.2" opacity="0.15"/>
<line x1="214.6" y1="496.2" x2="471.4" y2="379.0" stroke="#ffffff" stroke-width="2.2" opacity="0.08"/>
<line x1="471.4" y1="379.0" x2="378.4" y2="1133.4" stroke="#ffffff" stroke-width="2.2" opacity="0.16"/>
<line x1="378.4" y1="1133.4" x2="210.1" y2="749.1" stroke="#ffffff" stroke-width="2.2" opacity="0.18"/>
<line x1="210.1" y1="749.1" x2="352.2" y2="1185.3" stroke="#ffffff" stroke-width="2.2" opacity="0.19"/>
<line x1="352.2" y1="1185.3" x2="694.5" y2="244.9" stroke="#ffffff" stroke-width="2.2" opacity="0.11"/>
<line x1="694.5" y1="244.9" x2="394.5" y2="1198.9" stroke="#ffffff" stroke-width="2.2" opacity="0.22"/>
<line x1="394.5" y1="1198.9" x2="296.2" y2="276.5" stroke="#ffffff" stroke-width="2.2" opacity="0.17"/>
<line x1="296.2" y1="276.5" x2="632.5" y2="200.4" stroke="#ffffff" stroke-width="2.2" opacity="0.15"/>
<line x1="632.5" y1="200.4" x2="222.7" y2="1043.5" stroke="#ffffff" stroke-width="2.2" opacity="0.13"/>
<line x1="222.7" y1="1043.5" x2="218.2" y2="605.1" stroke="#ffffff" stroke-width="2.2" opacity="0.10"/>
<line x1="218.2" y1="605.1" x2="133.0" y2="940.9" stroke="#ffffff" stroke-width="2.2" opacity="0.14"/>
<line x1="133.0" y1="940.9" x2="452.5" y2="963.7" stroke="#ffffff" stroke-width="2.2" opacity="0.18"/>
<line x1="452.5" y1="963.7" x2="408.9" y2="922.2" stroke="#ffffff" stroke-width="2.2" opacity="0.21"/>
<line x1="408.9" y1="922.2" x2="600.0" y2="111.8" stroke="#ffffff" stroke-width="2.2" opacity="0.16"/>
<line x1="600.0" y1="111.8" x2="51.3" y2="496.7" stroke="#ffffff" stroke-width="2.2" opacity="0.21"/>
<circle cx="228.1" cy="308.4" r="2.5" fill="#ffffff" opacity="0.5762632133750041"/>
<circle cx="324.9" cy="589.6" r="4.3" fill="#ffffff" opacity="0.5751893238597923"/>
<circle cx="676.2" cy="680.9" r="4.8" fill="#ffffff" opacity="0.38074128167083765"/>
<circle cx="51.3" cy="496.7" r="4.2" fill="#ffffff" opacity="0.6336822820612316"/>
<circle cx="210.1" cy="749.1" r="2.6" fill="#ffffff" opacity="0.373630185741502"/>
<circle cx="296.2" cy="276.5" r="3.5" fill="#ffffff" opacity="0.6857301891076041"/>
<circle cx="680.1" cy="283.2" r="2.7" fill="#ffffff" opacity="0.5908494062147247"/>
<circle cx="365.3" cy="42.8" r="4.6" fill="#ffffff" opacity="0.5108574156162975"/>
<circle cx="422.3" cy="351.2" r="3.4" fill="#ffffff" opacity="0.5675926421955497"/>
<circle cx="556.2" cy="1149.4" r="2.7" fill="#ffffff" opacity="0.6011795877995841"/>
<circle cx="394.5" cy="1198.9" r="2.1" fill="#ffffff" opacity="0.2784026656726521"/>
<circle cx="264.8" cy="216.3" r="4.5" fill="#ffffff" opacity="0.3752882659308212"/>
<circle cx="655.9" cy="778.3" r="3.1" fill="#ffffff" opacity="0.3093312002868939"/>
<circle cx="352.2" cy="1185.3" r="3.7" fill="#ffffff" opacity="0.7892304301112734"/>
<circle cx="235.9" cy="796.3" r="2.7" fill="#ffffff" opacity="0.7248199389896823"/>
<circle cx="705.6" cy="255.7" r="4.0" fill="#ffffff" opacity="0.32395787170088275"/>
<circle cx="269.1" cy="738.4" r="2.6" fill="#ffffff" opacity="0.5173601778606436"/>
<circle cx="519.7" cy="894.4" r="3.8" fill="#ffffff" opacity="0.2680514449036351"/>
<circle cx="133.0" cy="940.9" r="2.1" fill="#ffffff" opacity="0.33390179373121337"/>
<circle cx="636.7" cy="193.4" r="4.7" fill="#ffffff" opacity="0.36380261278806625"/>
<circle cx="558.9" cy="1193.0" r="2.8" fill="#ffffff" opacity="0.5380175920974252"/>
<circle cx="694.5" cy="244.9" r="1.8" fill="#ffffff" opacity="0.6867463016505713"/>
<circle cx="475.8" cy="194.9" r="3.6" fill="#ffffff" opacity="0.43465524640040365"/>
<circle cx="607.7" cy="136.3" r="3.3" fill="#ffffff" opacity="0.6052379720838971"/>
<circle cx="339.3" cy="641.0" r="2.2" fill="#ffffff" opacity="0.6478079335633499"/>
<circle cx="66.2" cy="327.4" r="3.3" fill="#ffffff" opacity="0.6131159763701292"/>
<circle cx="600.0" cy="111.8" r="1.8" fill="#ffffff" opacity="0.5800801055429976"/>
<circle cx="59.3" cy="600.5" r="2.8" fill="#ffffff" opacity="0.28984364958943576"/>
<circle cx="214.6" cy="496.2" r="3.3" fill="#ffffff" opacity="0.5287803447209527"/>
<circle cx="471.4" cy="379.0" r="2.4" fill="#ffffff" opacity="0.41318702325444434"/>
<circle cx="312.5" cy="1144.2" r="3.9" fill="#ffffff" opacity="0.6852411242124852"/>
<circle cx="375.9" cy="1036.5" r="1.7" fill="#ffffff" opacity="0.5327817941044658"/>
<circle cx="277.3" cy="323.6" r="3.4" fill="#ffffff" opacity="0.3393597293159556"/>
<circle cx="272.0" cy="798.4" r="1.8" fill="#ffffff" opacity="0.3379404047914284"/>
<circle cx="452.5" cy="963.7" r="1.8" fill="#ffffff" opacity="0.4152606428085527"/>
<circle cx="478.3" cy="659.4" r="3.2" fill="#ffffff" opacity="0.7096366095935344"/>
<circle cx="80.0" cy="62.4" r="4.5" fill="#ffffff" opacity="0.8132769933765995"/>
<circle cx="222.7" cy="1043.5" r="4.6" fill="#ffffff" opacity="0.32004321198801133"/>
<circle cx="173.3" cy="168.7" r="2.1" fill="#ffffff" opacity="0.8216189993169463"/>
<circle cx="218.2" cy="605.1" r="3.0" fill="#ffffff" opacity="0.7509689788399423"/>
<circle cx="534.9" cy="916.6" r="3.5" fill="#ffffff" opacity="0.4833703750301454"/>
<circle cx="632.5" cy="200.4" r="3.5" fill="#ffffff" opacity="0.4513147625236452"/>
<circle cx="232.2" cy="1029.3" r="4.0" fill="#ffffff" opacity="0.6870697753474526"/>
<circle cx="571.3" cy="218.3" r="3.8" fill="#ffffff" opacity="0.3993436964339901"/>
<circle cx="408.9" cy="922.2" r="4.8" fill="#ffffff" opacity="0.34136183214312465"/>
<circle cx="551.9" cy="302.6" r="3.2" fill="#ffffff" opacity="0.7684585915294208"/>
<circle cx="74.6" cy="83.4" r="3.1" fill="#ffffff" opacity="0.6125076341304067"/>
<circle cx="238.1" cy="1086.7" r="1.9" fill="#ffffff" opacity="0.29328285384881364"/>
<circle cx="194.7" cy="993.4" r="2.0" fill="#ffffff" opacity="0.5439885942635683"/>
<circle cx="378.4" cy="1133.4" r="4.5" fill="#ffffff" opacity="0.7717965871798065"/>
<g filter="url(#paper)"><rect x="42" y="42" width="666" height="1166" rx="54" ry="54" fill="none" stroke="#1E1B2E" stroke-width="8" opacity="0.95"/>
<rect x="60" y="60" width="630" height="1130" rx="46" ry="46" fill="none" stroke="#2EC4B6" stroke-width="3" opacity="0.35"/>

  <g opacity="0.42">
    <circle cx="375.0" cy="560" r="285" fill="none" stroke="#2EC4B6" stroke-width="4.2" opacity="0.42"/>
    <circle cx="375.0" cy="560" r="233.7" fill="none" stroke="#2EC4B6" stroke-width="2.2" opacity="0.23"/>
    <line x1="642.0" y1="560.0" x2="674.0" y2="560.0" stroke="#2EC4B6" stroke-width="3.2" opacity="0.23" stroke-linecap="round"/><line x1="606.2" y1="693.5" x2="633.9" y2="709.5" stroke="#2EC4B6" stroke-width="3.2" opacity="0.23" stroke-linecap="round"/><line x1="508.5" y1="791.2" x2="524.5" y2="818.9" stroke="#2EC4B6" stroke-width="3.2" opacity="0.23" stroke-linecap="round"/><line x1="375.0" y1="827.0" x2="375.0" y2="859.0" stroke="#2EC4B6" stroke-width="3.2" opacity="0.23" stroke-linecap="round"/><line x1="241.5" y1="791.2" x2="225.5" y2="818.9" stroke="#2EC4B6" stroke-width="3.2" opacity="0.23" stroke-linecap="round"/><line x1="143.8" y1="693.5" x2="116.1" y2="709.5" stroke="#2EC4B6" stroke-width="3.2" opacity="0.23" stroke-linecap="round"/><line x1="108.0" y1="560.0" x2="76.0" y2="560.0" stroke="#2EC4B6" stroke-width="3.2" opacity="0.23" stroke-linecap="round"/><line x1="143.8" y1="426.5" x2="116.1" y2="410.5" stroke="#2EC4B6" stroke-width="3.2" opacity="0.23" stroke-linecap="round"/><line x1="241.5" y1="328.8" x2="225.5" y2="301.1" stroke="#2EC4B6" stroke-width="3.2" opacity="0.23" stroke-linecap="round"/><line x1="375.0" y1="293.0" x2="375.0" y2="261.0" stroke="#2EC4B6" stroke-width="3.2" opacity="0.23" stroke-linecap="round"/><line x1="508.5" y1="328.8" x2="524.5" y2="301.1" stroke="#2EC4B6" stroke-width="3.2" opacity="0.23" stroke-linecap="round"/><line x1="606.2" y1="426.5" x2="633.9" y2="410.5" stroke="#2EC4B6" stroke-width="3.2" opacity="0.23" stroke-linecap="round"/>
    <circle cx="659.8" cy="550.7" r="3.7" fill="#2EC4B6" opacity="0.22"/><circle cx="647.6" cy="643.2" r="3.0" fill="#2EC4B6" opacity="0.31"/><circle cx="618.2" cy="708.6" r="3.7" fill="#2EC4B6" opacity="0.26"/><circle cx="579.8" cy="758.2" r="3.9" fill="#2EC4B6" opacity="0.32"/><circle cx="518.3" cy="806.4" r="3.3" fill="#2EC4B6" opacity="0.33"/><circle cx="450.7" cy="834.8" r="2.7" fill="#2EC4B6" opacity="0.29"/><circle cx="380.6" cy="844.9" r="3.7" fill="#2EC4B6" opacity="0.26"/><circle cx="300.2" cy="835.0" r="2.8" fill="#2EC4B6" opacity="0.32"/><circle cx="224.9" cy="802.2" r="3.7" fill="#2EC4B6" opacity="0.27"/><circle cx="167.6" cy="755.5" r="2.7" fill="#2EC4B6" opacity="0.26"/><circle cx="131.5" cy="708.0" r="3.2" fill="#2EC4B6" opacity="0.25"/><circle cx="100.0" cy="634.8" r="3.2" fill="#2EC4B6" opacity="0.35"/><circle cx="90.0" cy="560.4" r="3.5" fill="#2EC4B6" opacity="0.18"/><circle cx="102.1" cy="477.9" r="3.6" fill="#2EC4B6" opacity="0.33"/><circle cx="129.6" cy="415.1" r="3.8" fill="#2EC4B6" opacity="0.30"/><circle cx="169.2" cy="362.9" r="3.1" fill="#2EC4B6" opacity="0.20"/><circle cx="231.3" cy="313.9" r="3.5" fill="#2EC4B6" opacity="0.23"/><circle cx="297.9" cy="285.6" r="4.0" fill="#2EC4B6" opacity="0.37"/><circle cx="372.2" cy="275.0" r="2.7" fill="#2EC4B6" opacity="0.38"/><circle cx="443.0" cy="283.2" r="2.7" fill="#2EC4B6" opacity="0.19"/><circle cx="509.8" cy="308.9" r="3.7" fill="#2EC4B6" opacity="0.31"/><circle cx="569.4" cy="351.6" r="3.2" fill="#2EC4B6" opacity="0.36"/><circle cx="617.9" cy="411.0" r="3.2" fill="#2EC4B6" opacity="0.19"/><circle cx="648.2" cy="478.7" r="3.9" fill="#2EC4B6" opacity="0.34"/>
  </g>

<g><g transform="translate(50,54)"><path d="M 21.6 140.4 Q 75.6 36.0 165.6 68.4 Q 93.6 79.2 72.0 126.0" fill="none" stroke="#2EC4B6" stroke-width="6" opacity="0.55" stroke-linecap="round"/></g><g transform="translate(700,54) scale(-1,1)"><path d="M 21.6 140.4 Q 75.6 36.0 165.6 68.4 Q 93.6 79.2 72.0 126.0" fill="none" stroke="#2EC4B6" stroke-width="6" opacity="0.55" stroke-linecap="round"/></g><g transform="translate(50,1196) scale(1,-1)"><path d="M 21.6 140.4 Q 75.6 36.0 165.6 68.4 Q 93.6 79.2 72.0 126.0" fill="none" stroke="#2EC4B6" stroke-width="6" opacity="0.55" stroke-linecap="round"/></g><g transform="translate(700,1196) scale(-1,-1)"><path d="M 21.6 140.4 Q 75.6 36.0 165.6 68.4 Q 93.6 79.2 72.0 126.0" fill="none" stroke="#2EC4B6" stroke-width="6" opacity="0.55" stroke-linecap="round"/></g></g></g>
<rect x="42" y="60" width="666" height="92" rx="30" fill="#ffffffcc" stroke="#1E1B2E" stroke-width="4" opacity="0.95"/>
<text x="375.0" y="122" font-family="ui-sans-serif, system-ui, -apple-system, Segoe UI, Roboto, Helvetica, Arial" font-size="30" font-weight="800" text-anchor="middle" fill="#1E1B2E" opacity="0.95" letter-spacing="1">MINOR ARCANA • PENTACLES</text>
<rect x="76" y="170" width="598" height="760" rx="52" fill="#ffffff" opacity="0.15"/>
<g><circle cx="114.8" cy="708.3" r="2.0" fill="#2EC4B6" opacity="0.07"/><circle cx="275.5" cy="814.2" r="1.6" fill="#2EC4B6" opacity="0.07"/><circle cx="614.9" cy="650.1" r="2.5" fill="#2EC4B6" opacity="0.07"/><circle cx="216.9" cy="315.3" r="2.4" fill="#2EC4B6" opacity="0.07"/><circle cx="400.6" cy="693.6" r="2.0" fill="#2EC4B6" opacity="0.07"/><circle cx="543.6" cy="271.6" r="3.2" fill="#2EC4B6" opacity="0.07"/><circle cx="453.4" cy="368.4" r="1.7" fill="#2EC4B6" opacity="0.07"/><circle cx="520.3" cy="333.9" r="2.0" fill="#2EC4B6" opacity="0.07"/><circle cx="508.1" cy="402.6" r="2.1" fill="#2EC4B6" opacity="0.07"/><circle cx="354.5" cy="619.6" r="2.2" fill="#2EC4B6" opacity="0.07"/><circle cx="575.8" cy="231.5" r="2.2" fill="#2EC4B6" opacity="0.07"/><circle cx="379.5" cy="304.3" r="1.9" fill="#2EC4B6" opacity="0.07"/><circle cx="172.0" cy="231.4" r="2.2" fill="#2EC4B6" opacity="0.07"/><circle cx="87.5" cy="650.9" r="3.1" fill="#2EC4B6" opacity="0.07"/><circle cx="523.8" cy="293.2" r="2.2" fill="#2EC4B6" opacity="0.07"/><circle cx="444.9" cy="745.3" r="2.5" fill="#2EC4B6" opacity="0.07"/><circle cx="599.2" cy="756.0" r="2.2" fill="#2EC4B6" opacity="0.07"/><circle cx="490.8" cy="857.1" r="2.9" fill="#2EC4B6" opacity="0.07"/><circle cx="404.9" cy="479.8" r="2.9" fill="#2EC4B6" opacity="0.07"/><circle cx="669.6" cy="786.7" r="2.6" fill="#2EC4B6" opacity="0.07"/><circle cx="486.9" cy="802.3" r="3.1" fill="#2EC4B6" opacity="0.07"/><circle cx="569.6" cy="897.6" r="2.3" fill="#2EC4B6" opacity="0.07"/><circle cx="598.3" cy="207.0" r="1.8" fill="#2EC4B6" opacity="0.07"/><circle cx="118.3" cy="627.7" r="1.7" fill="#2EC4B6" opacity="0.07"/><circle cx="535.6" cy="832.7" r="2.9" fill="#2EC4B6" opacity="0.07"/><circle cx="110.9" cy="611.9" r="3.1" fill="#2EC4B6" opacity="0.07"/><circle cx="667.6" cy="879.8" r="3.1" fill="#2EC4B6" opacity="0.07"/><circle cx="226.7" cy="425.7" r="3.0" fill="#2EC4B6" opacity="0.07"/><circle cx="495.5" cy="649.4" r="3.0" fill="#2EC4B6" opacity="0.07"/><circle cx="221.8" cy="692.5" r="2.3" fill="#2EC4B6" opacity="0.07"/><circle cx="263.4" cy="585.4" r="3.2" fill="#2EC4B6" opacity="0.07"/><circle cx="196.6" cy="393.3" r="2.4" fill="#2EC4B6" opacity="0.07"/><circle cx="499.6" cy="496.2" r="2.9" fill="#2EC4B6" opacity="0.07"/><circle cx="647.4" cy="507.9" r="3.1" fill="#2EC4B6" opacity="0.07"/><circle cx="580.8" cy="763.3" r="2.4" fill="#2EC4B6" opacity="0.07"/><circle cx="117.9" cy="578.7" r="2.3" fill="#2EC4B6" opacity="0.07"/><circle cx="489.7" cy="458.3" r="2.2" fill="#2EC4B6" opacity="0.07"/><circle cx="153.8" cy="547.2" r="2.3" fill="#2EC4B6" opacity="0.07"/><circle cx="275.0" cy="666.0" r="2.5" fill="#2EC4B6" opacity="0.07"/><circle cx="156.9" cy="343.3" r="2.1" fill="#2EC4B6" opacity="0.07"/><circle cx="172.5" cy="857.2" r="3.1" fill="#2EC4B6" opacity="0.07"/><circle cx="355.5" cy="358.8" r="1.9" fill="#2EC4B6" opacity="0.07"/><circle cx="533.1" cy="804.1" r="2.6" fill="#2EC4B6" opacity="0.07"/><circle cx="469.0" cy="601.1" r="2.8" fill="#2EC4B6" opacity="0.07"/><circle cx="604.8" cy="897.3" r="1.9" fill="#2EC4B6" opacity="0.07"/><circle cx="193.4" cy="568.3" r="2.5" fill="#2EC4B6" opacity="0.07"/><circle cx="364.8" cy="892.1" r="3.0" fill="#2EC4B6" opacity="0.07"/><circle cx="414.6" cy="513.0" r="2.6" fill="#2EC4B6" opacity="0.07"/><circle cx="452.9" cy="412.3" r="2.6" fill="#2EC4B6" opacity="0.07"/><circle cx="303.5" cy="291.8" r="1.6" fill="#2EC4B6" opacity="0.07"/><circle cx="102.3" cy="580.5" r="2.3" fill="#2EC4B6" opacity="0.07"/><circle cx="477.1" cy="406.1" r="2.9" fill="#2EC4B6" opacity="0.07"/><circle cx="357.7" cy="568.8" r="2.7" fill="#2EC4B6" opacity="0.07"/><circle cx="122.9" cy="673.1" r="2.7" fill="#2EC4B6" opacity="0.07"/><circle cx="497.4" cy="400.3" r="1.7" fill="#2EC4B6" opacity="0.07"/><circle cx="337.1" cy="228.2" r="1.6" fill="#2EC4B6" opacity="0.07"/><circle cx="206.1" cy="882.1" r="1.7" fill="#2EC4B6" opacity="0.07"/><circle cx="460.6" cy="690.3" r="2.4" fill="#2EC4B6" opacity="0.07"/><circle cx="404.7" cy="292.3" r="2.8" fill="#2EC4B6" opacity="0.07"/><circle cx="517.5" cy="445.1" r="3.0" fill="#2EC4B6" opacity="0.07"/><circle cx="284.7" cy="828.7" r="2.2" fill="#2EC4B6" opacity="0.07"/><circle cx="492.5" cy="747.1" r="2.9" fill="#2EC4B6" opacity="0.07"/><circle cx="143.8" cy="396.8" r="3.1" fill="#2EC4B6" opacity="0.07"/><circle cx="60.1" cy="393.8" r="2.8" fill="#2EC4B6" opacity="0.07"/><circle cx="262.1" cy="878.1" r="2.4" fill="#2EC4B6" opacity="0.07"/><circle cx="115.9" cy="252.5" r="2.4" fill="#2EC4B6" opacity="0.07"/><circle cx="390.2" cy="901.0" r="2.3" fill="#2EC4B6" opacity="0.07"/><circle cx="81.3" cy="674.0" r="2.8" fill="#2EC4B6" opacity="0.07"/><circle cx="520.7" cy="589.2" r="2.4" fill="#2EC4B6" opacity="0.07"/><circle cx="166.7" cy="475.7" r="2.4" fill="#2EC4B6" opacity="0.07"/><circle cx="609.9" cy="235.0" r="2.4" fill="#2EC4B6" opacity="0.07"/><circle cx="60.0" cy="390.5" r="2.9" fill="#2EC4B6" opacity="0.07"/><circle cx="222.8" cy="661.4" r="1.6" fill="#2EC4B6" opacity="0.07"/><circle cx="374.8" cy="708.6" r="2.9" fill="#2EC4B6" opacity="0.07"/><circle cx="342.1" cy="670.8" r="2.7" fill="#2EC4B6" opacity="0.07"/><circle cx="585.4" cy="509.9" r="2.6" fill="#2EC4B6" opacity="0.07"/><circle cx="172.1" cy="740.7" r="2.8" fill="#2EC4B6" opacity="0.07"/><circle cx="495.8" cy="436.0" r="2.8" fill="#2EC4B6" opacity="0.07"/><circle cx="232.3" cy="511.2" r="2.5" fill="#2EC4B6" opacity="0.07"/><circle cx="206.8" cy="566.0" r="1.6" fill="#2EC4B6" opacity="0.07"/><circle cx="288.7" cy="683.4" r="2.3" fill="#2EC4B6" opacity="0.07"/><circle cx="136.5" cy="797.3" r="1.7" fill="#2EC4B6" opacity="0.07"/><circle cx="358.7" cy="420.0" r="2.4" fill="#2EC4B6" opacity="0.07"/><circle cx="76.1" cy="511.6" r="1.8" fill="#2EC4B6" opacity="0.07"/><circle cx="287.8" cy="526.4" r="2.5" fill="#2EC4B6" opacity="0.07"/><circle cx="80.6" cy="382.4" r="2.8" fill="#2EC4B6" opacity="0.07"/><circle cx="288.8" cy="684.6" r="2.6" fill="#2EC4B6" opacity="0.07"/><circle cx="558.3" cy="559.3" r="2.8" fill="#2EC4B6" opacity="0.07"/><circle cx="320.8" cy="837.1" r="3.1" fill="#2EC4B6" opacity="0.07"/><circle cx="206.1" cy="512.6" r="1.8" fill="#2EC4B6" opacity="0.07"/><circle cx="93.5" cy="390.6" r="3.1" fill="#2EC4B6" opacity="0.07"/><circle cx="694.3" cy="504.7" r="2.8" fill="#2EC4B6" opacity="0.07"/><circle cx="622.2" cy="576.2" r="2.3" fill="#2EC4B6" opacity="0.07"/><circle cx="264.8" cy="465.8" r="2.8" fill="#2EC4B6" opacity="0.07"/><circle cx="658.9" cy="674.5" r="2.5" fill="#2EC4B6" opacity="0.07"/><circle cx="274.2" cy="463.5" r="2.2" fill="#2EC4B6" opacity="0.07"/><circle cx="623.1" cy="328.1" r="2.3" fill="#2EC4B6" opacity="0.07"/><circle cx="492.3" cy="657.2" r="2.2" fill="#2EC4B6" opacity="0.07"/><circle cx="175.2" cy="884.8" r="2.7" fill="#2EC4B6" opacity="0.07"/><circle cx="242.5" cy="909.4" r="2.2" fill="#2EC4B6" opacity="0.07"/><circle cx="168.9" cy="762.7" r="1.7" fill="#2EC4B6" opacity="0.07"/><circle cx="474.4" cy="372.3" r="3.0" fill="#2EC4B6" opacity="0.07"/><circle cx="667.1" cy="853.4" r="2.9" fill="#2EC4B6" opacity="0.07"/><circle cx="435.8" cy="360.1" r="1.9" fill="#2EC4B6" opacity="0.07"/><circle cx="575.0" cy="513.7" r="2.4" fill="#2EC4B6" opacity="0.07"/><circle cx="139.3" cy="614.9" r="2.2" fill="#2EC4B6" opacity="0.07"/><circle cx="495.8" cy="260.7" r="2.5" fill="#2EC4B6" opacity="0.07"/><circle cx="113.7" cy="759.6" r="2.1" fill="#2EC4B6" opacity="0.07"/><circle cx="386.0" cy="716.0" r="2.7" fill="#2EC4B6" opacity="0.07"/><circle cx="268.9" cy="735.8" r="1.5" fill="#2EC4B6" opacity="0.07"/></g><g><g opacity="0.55">
    <g>
      <circle cx="358.36357780115463" cy="400.55415526326806" r="44.8" fill="#ffffff" opacity="0.75" stroke="#1E1B2E" stroke-width="7"/>
      <circle cx="358.36357780115463" cy="400.55415526326806" r="33.0" fill="none" stroke="#2EC4B6" stroke-width="6" opacity="0.45"/>
      <polygon points="358.36,358.55 368.57,386.51 398.31,387.58 374.87,405.92 383.05,434.53 358.36,417.91 333.68,434.53 341.85,405.92 318.42,387.58 348.16,386.51" fill="none" stroke="#1E1B2E" stroke-width="8" stroke-linejoin="round" opacity="0.95"/>
      <circle cx="358.36357780115463" cy="400.55415526326806" r="5.0" fill="#2EC4B6" opacity="0.55"/>
      <path d="M 331.8 420.2 Q 358.36357780115463 444.0 385.0 420.2" fill="none" stroke="#2EC4B6" stroke-width="7" opacity="0.35" stroke-linecap="round"/>
    </g>
    </g><g opacity="0.55">
    <g>
      <circle cx="581.2804342377176" cy="508.7612572602734" r="44.8" fill="#ffffff" opacity="0.75" stroke="#1E1B2E" stroke-width="7"/>
      <circle cx="581.2804342377176" cy="508.7612572602734" r="33.0" fill="none" stroke="#2EC4B6" stroke-width="6" opacity="0.45"/>
      <polygon points="581.28,466.76 591.48,494.72 621.22,495.78 597.79,514.13 605.97,542.74 581.28,526.12 556.59,542.74 564.77,514.13 541.34,495.78 571.08,494.72" fill="none" stroke="#1E1B2E" stroke-width="8" stroke-linejoin="round" opacity="0.95"/>
      <circle cx="581.2804342377176" cy="508.7612572602734" r="5.0" fill="#2EC4B6" opacity="0.55"/>
      <path d="M 554.7 528.4 Q 581.2804342377176 552.2 607.9 528.4" fill="none" stroke="#2EC4B6" stroke-width="7" opacity="0.35" stroke-linecap="round"/>
    </g>
    </g><g opacity="0.55">
    <g>
      <circle cx="613.1788459216755" cy="725.9660276401155" r="44.8" fill="#ffffff" opacity="0.75" stroke="#1E1B2E" stroke-width="7"/>
      <circle cx="613.1788459216755" cy="725.9660276401155" r="33.0" fill="none" stroke="#2EC4B6" stroke-width="6" opacity="0.45"/>
      <polygon points="613.18,683.97 623.38,711.92 653.12,712.99 629.69,731.33 637.87,759.94 613.18,743.33 588.49,759.94 596.67,731.33 573.23,712.99 602.97,711.92" fill="none" stroke="#1E1B2E" stroke-width="8" stroke-linejoin="round" opacity="0.95"/>
      <circle cx="613.1788459216755" cy="725.9660276401155" r="5.0" fill="#2EC4B6" opacity="0.55"/>
      <path d="M 586.6 745.6 Q 613.1788459216755 769.4 639.8 745.6" fill="none" stroke="#2EC4B6" stroke-width="7" opacity="0.35" stroke-linecap="round"/>
    </g>
    </g><g opacity="0.55">
    <g>
      <circle cx="481.6725088930433" cy="876.0994821897291" r="44.8" fill="#ffffff" opacity="0.75" stroke="#1E1B2E" stroke-width="7"/>
      <circle cx="481.6725088930433" cy="876.0994821897291" r="33.0" fill="none" stroke="#2EC4B6" stroke-width="6" opacity="0.45"/>
      <polygon points="481.67,834.10 491.88,862.05 521.62,863.12 498.18,881.46 506.36,910.08 481.67,893.46 456.99,910.08 465.16,881.46 441.73,863.12 471.47,862.05" fill="none" stroke="#1E1B2E" stroke-width="8" stroke-linejoin="round" opacity="0.95"/>
      <circle cx="481.6725088930433" cy="876.0994821897291" r="5.0" fill="#2EC4B6" opacity="0.55"/>
      <path d="M 455.1 895.7 Q 481.6725088930433 919.5 508.3 895.7" fill="none" stroke="#2EC4B6" stroke-width="7" opacity="0.35" stroke-linecap="round"/>
    </g>
    </g><g opacity="0.55">
    <g>
      <circle cx="251.45578011372191" cy="867.3403453864261" r="44.8" fill="#ffffff" opacity="0.75" stroke="#1E1B2E" stroke-width="7"/>
      <circle cx="251.45578011372191" cy="867.3403453864261" r="33.0" fill="none" stroke="#2EC4B6" stroke-width="6" opacity="0.45"/>
      <polygon points="251.46,825.34 261.66,853.30 291.40,854.36 267.97,872.70 276.14,901.32 251.46,884.70 226.77,901.32 234.95,872.70 211.51,854.36 241.25,853.30" fill="none" stroke="#1E1B2E" stroke-width="8" stroke-linejoin="round" opacity="0.95"/>
      <circle cx="251.45578011372191" cy="867.3403453864261" r="5.0" fill="#2EC4B6" opacity="0.55"/>
      <path d="M 224.9 886.9 Q 251.45578011372191 910.7 278.1 886.9" fill="none" stroke="#2EC4B6" stroke-width="7" opacity="0.35" stroke-linecap="round"/>
    </g>
    </g><g opacity="0.55">
    <g>
      <circle cx="128.0553957886756" cy="688.9661705959459" r="44.8" fill="#ffffff" opacity="0.75" stroke="#1E1B2E" stroke-width="7"/>
      <circle cx="128.0553957886756" cy="688.9661705959459" r="33.0" fill="none" stroke="#2EC4B6" stroke-width="6" opacity="0.45"/>
      <polygon points="128.06,646.97 138.26,674.92 168.00,675.99 144.57,694.33 152.74,722.94 128.06,706.33 103.37,722.94 111.55,694.33 88.11,675.99 117.85,674.92" fill="none" stroke="#1E1B2E" stroke-width="8" stroke-linejoin="round" opacity="0.95"/>
      <circle cx="128.0553957886756" cy="688.9661705959459" r="5.0" fill="#2EC4B6" opacity="0.55"/>
      <path d="M 101.5 708.6 Q 128.0553957886756 732.4 154.7 708.6" fill="none" stroke="#2EC4B6" stroke-width="7" opacity="0.35" stroke-linecap="round"/>
    </g>
    </g><g opacity="0.55">
    <g>
      <circle cx="173.7541905903591" cy="501.67561159722084" r="44.8" fill="#ffffff" opacity="0.75" stroke="#1E1B2E" stroke-width="7"/>
      <circle cx="173.7541905903591" cy="501.67561159722084" r="33.0" fill="none" stroke="#2EC4B6" stroke-width="6" opacity="0.45"/>
      <polygon points="173.75,459.68 183.96,487.63 213.70,488.70 190.26,507.04 198.44,535.65 173.75,519.04 149.07,535.65 157.24,507.04 133.81,488.70 163.55,487.63" fill="none" stroke="#1E1B2E" stroke-width="8" stroke-linejoin="round" opacity="0.95"/>
      <circle cx="173.7541905903591" cy="501.67561159722084" r="5.0" fill="#2EC4B6" opacity="0.55"/>
      <path d="M 147.2 521.3 Q 173.7541905903591 545.1 200.4 521.3" fill="none" stroke="#2EC4B6" stroke-width="7" opacity="0.35" stroke-linecap="round"/>
    </g>
    </g></g><path d="M 328.5 486.2 Q 412.8 564.7 426.5 412.5 Q 423.9 649.3 433.3 567.2 Q 395.6 537.8 250.8 764.4 Q 349.6 585.3 366.3 537.9 Q 425.8 647.9 267.0 661.3 Q 389.9 629.6 303.9 564.8 Q 396.3 583.3 373.4 766.9 " fill="none" stroke="#2EC4B6" stroke-width="5.5" opacity="0.45" stroke-linecap="round" stroke-linejoin="round"/>
        <g filter="url(#glow)">
          <circle cx="375.0" cy="630" r="170" fill="#ffffff" opacity="0.40" stroke="#2EC4B6" stroke-width="7"/>
          
    <g>
      <circle cx="375.0" cy="630" r="115.2" fill="#ffffff" opacity="0.75" stroke="#1E1B2E" stroke-width="7"/>
      <circle cx="375.0" cy="630" r="85.0" fill="none" stroke="#2EC4B6" stroke-width="6" opacity="0.45"/>
      <polygon points="375.00,522.00 401.24,593.89 477.71,596.63 417.46,643.79 438.48,717.37 375.00,674.64 311.52,717.37 332.54,643.79 272.29,596.63 348.76,593.89" fill="none" stroke="#1E1B2E" stroke-width="8" stroke-linejoin="round" opacity="0.95"/>
      <circle cx="375.0" cy="630" r="13.0" fill="#2EC4B6" opacity="0.55"/>
      <path d="M 306.6 680.4 Q 375.0 741.6 443.4 680.4" fill="none" stroke="#2EC4B6" stroke-width="7" opacity="0.35" stroke-linecap="round"/>
    </g>
    
        </g>
        <line x1="588.2" y1="286.2" x2="181.7" y2="238.2" stroke="#ffffff" stroke-width="2.2" opacity="0.08"/>
<line x1="181.7" y1="238.2" x2="562.5" y2="556.7" stroke="#ffffff" stroke-width="2.2" opacity="0.11"/>
<line x1="562.5" y1="556.7" x2="177.8" y2="506.2" stroke="#ffffff" stroke-width="2.2" opacity="0.19"/>
<line x1="177.8" y1="506.2" x2="572.9" y2="539.7" stroke="#ffffff" stroke-width="2.2" opacity="0.12"/>
<line x1="572.9" y1="539.7" x2="133.8" y2="505.4" stroke="#ffffff" stroke-width="2.2" opacity="0.19"/>
<line x1="133.8" y1="505.4" x2="307.3" y2="324.4" stroke="#ffffff" stroke-width="2.2" opacity="0.16"/>
<circle cx="133.8" cy="505.4" r="1.8" fill="#ffffff" opacity="0.6454834770882807"/>
<circle cx="212.4" cy="498.5" r="1.9" fill="#ffffff" opacity="0.46319891089891896"/>
<circle cx="443.8" cy="531.9" r="1.9" fill="#ffffff" opacity="0.5614955887166535"/>
<circle cx="588.2" cy="286.2" r="2.0" fill="#ffffff" opacity="0.36447003587450266"/>
<circle cx="307.3" cy="324.4" r="3.7" fill="#ffffff" opacity="0.7383356431703685"/>
<circle cx="181.7" cy="238.2" r="3.5" fill="#ffffff" opacity="0.29422685167791635"/>
<circle cx="177.8" cy="506.2" r="2.2" fill="#ffffff" opacity="0.4501932219642547"/>
<circle cx="562.5" cy="556.7" r="4.6" fill="#ffffff" opacity="0.7010782463904456"/>
<circle cx="132.7" cy="506.7" r="2.9" fill="#ffffff" opacity="0.378579226331351"/>
<circle cx="464.5" cy="455.4" r="2.1" fill="#ffffff" opacity="0.6287311880571602"/>
<circle cx="438.3" cy="596.8" r="1.8" fill="#ffffff" opacity="0.4321021752206073"/>
<circle cx="581.8" cy="500.3" r="1.7" fill="#ffffff" opacity="0.6281007217757277"/>
<circle cx="537.0" cy="432.1" r="2.8" fill="#ffffff" opacity="0.7221813020174135"/>
<circle cx="572.9" cy="539.7" r="4.7" fill="#ffffff" opacity="0.6102984850909169"/>
<rect x="42" y="1030" width="666" height="160" rx="30" fill="#ffffffd9" stroke="#1E1B2E" stroke-width="4" opacity="0.95"/>
<text x="375.0" y="1104" font-family="ui-sans-serif, system-ui, -apple-system, Segoe UI, Roboto, Helvetica, Arial" font-size="46" font-weight="900" text-anchor="middle" fill="#1E1B2E" opacity="0.98">7 of Pentacles</text>
<text x="375.0" y="1152" font-family="ui-sans-serif, system-ui, -apple-system, Segoe UI, Roboto, Helvetica, Arial" font-size="28" font-weight="700" text-anchor="middle" fill="#1E1B2E" opacity="0.7">Trust</text>

    <g opacity="0.55">
      <circle cx="127" cy="1176" r="14" fill="#2EC4B6"/>
      <circle cx="623" cy="1176" r="14" fill="#2EC4B6"/>
      <path d="M 162 1176 L 588 1176" stroke="#2EC4B6" stroke-width="4" opacity="0.45" stroke-linecap="round"/>
    </g>
    
</svg>
