<svg xmlns="http://www.w3.org/2000/svg" width="750" height="1250" viewBox="0 0 750 1250">
  <title>8 of Pentacles</title>


  <defs>
    <linearGradient id="g" x1="0" y1="0" x2="1" y2="1">
      <stop offset="0%" stop-color="#E6F0FF"/>
      <stop offset="100%" stop-color="#FFF0F6"/>
    </linearGradient>

    <!-- paper texture -->
    <filter id="paper" x="-20%" y="-20%" width="140%" height="140%">
      <feTurbulence type="fractalNoise" baseFrequency="0.017" numOctaves="3" seed="4076" result="noise"/>
      <feColorMatrix in="noise" type="matrix"
        values="1 0 0 0 0
                0 1 0 0 0
                0 0 1 0 0
                0 0 0 0.25 0" result="noiseAlpha"/>
      <feComposite in="noiseAlpha" in2="SourceGraphic" operator="over"/>
    </filter>

    <!-- soft glow -->
    <filter id="glow" x="-30%" y="-30%" width="160%" height="160%">
      <feGaussianBlur stdDeviation="10" result="blur"/>
      <feColorMatrix type="matrix" values="
        1 0 0 0 0
        0 1 0 0 0
        0 0 1 0 0
        0 0 0 0.32 0" result="blurAlpha"/>
      <feMerge>
        <feMergeNode in="blurAlpha"/>
        <feMergeNode in="SourceGraphic"/>
      </feMerge>
    </filter>
  </defs>

<rect x="0" y="0" width="750" height="1250" rx="58" ry="58" fill="url(#g)" stroke="none" stroke-width="0" opacity="1"/>
<rect x="0" y="0" width="750" height="1250" fill="#ffffff" opacity="0.08"/>
<line x1="644.5" y1="379.0" x2="271.0" y2="242.9" stroke="#ffffff" stroke-width="2.2" opacity="0.22"/>
<line x1="271.0" y1="242.9" x2="348.7" y2="969.4" stroke="#ffffff" stroke-width="2.2" opacity="0.17"/>
<line x1="348.7" y1="969.4" x2="694.5" y2="547.8" stroke="#ffffff" stroke-width="2.2" opacity="0.21"/>
<line x1="694.5" y1="547.8" x2="516.4" y2="879.1" stroke="#ffffff" stroke-width="2.2" opacity="0.17"/>
<line x1="516.4" y1="879.1" x2="449.6" y2="249.6" stroke="#ffffff" stroke-width="2.2" opacity="0.20"/>
<line x1="449.6" y1="249.6" x2="572.5" y2="788.1" stroke="#ffffff" stroke-width="2.2" opacity="0.14"/>
<line x1="572.5" y1="788.1" x2="266.8" y2="463.0" stroke="#ffffff" stroke-width="2.2" opacity="0.13"/>
<line x1="266.8" y1="463.0" x2="499.2" y2="221.2" stroke="#ffffff" stroke-width="2.2" opacity="0.08"/>
<line x1="499.2" y1="221.2" x2="315.3" y2="986.7" stroke="#ffffff" stroke-width="2.2" opacity="0.16"/>
<line x1="315.3" y1="986.7" x2="198.5" y2="553.1" stroke="#ffffff" stroke-width="2.2" opacity="0.14"/>
<line x1="198.5" y1="553.1" x2="545.6" y2="443.3" stroke="#ffffff" stroke-width="2.2" opacity="0.09"/>
<line x1="545.6" y1="443.3" x2="48.6" y2="202.1" stroke="#ffffff" stroke-width="2.2" opacity="0.13"/>
<line x1="48.6" y1="202.1" x2="229.9" y2="299.4" stroke="#ffffff" stroke-width="2.2" opacity="0.14"/>
<line x1="229.9" y1="299.4" x2="352.3" y2="394.3" stroke="#ffffff" stroke-width="2.2" opacity="0.13"/>
<line x1="352.3" y1="394.3" x2="115.9" y2="475.6" stroke="#ffffff" stroke-width="2.2" opacity="0.19"/>
<line x1="115.9" y1="475.6" x2="411.5" y2="997.1" stroke="#ffffff" stroke-width="2.2" opacity="0.21"/>
<line x1="411.5" y1="997.1" x2="184.3" y2="809.9" stroke="#ffffff" stroke-width="2.2" opacity="0.09"/>
<line x1="184.3" y1="809.9" x2="384.2" y2="335.0" stroke="#ffffff" stroke-width="2.2" opacity="0.10"/>
<circle cx="266.8" cy="463.0" r="1.6" fill="#ffffff" opacity="0.3012792882534663"/>
<circle cx="133.9" cy="382.6" r="4.2" fill="#ffffff" opacity="0.25580584824184815"/>
<circle cx="361.1" cy="346.2" r="1.7" fill="#ffffff" opacity="0.28568809847592636"/>
<circle cx="693.7" cy="299.2" r="4.3" fill="#ffffff" opacity="0.5094889614240417"/>
<circle cx="121.1" cy="975.3" r="4.1" fill="#ffffff" opacity="0.25495737690441433"/>
<circle cx="153.1" cy="751.7" r="1.9" fill="#ffffff" opacity="0.40320834993360904"/>
<circle cx="419.4" cy="798.3" r="3.8" fill="#ffffff" opacity="0.5893831767112552"/>
<circle cx="511.6" cy="819.6" r="4.0" fill="#ffffff" opacity="0.5699238608051256"/>
<circle cx="561.3" cy="946.7" r="4.1" fill="#ffffff" opacity="0.7908253908438422"/>
<circle cx="115.9" cy="475.6" r="4.4" fill="#ffffff" opacity="0.8142275965341084"/>
<circle cx="234.3" cy="595.7" r="3.3" fill="#ffffff" opacity="0.32721698522910025"/>
<circle cx="229.7" cy="181.2" r="1.9" fill="#ffffff" opacity="0.32482166053284905"/>
<circle cx="545.6" cy="443.3" r="4.5" fill="#ffffff" opacity="0.3696139098759911"/>
<circle cx="77.0" cy="349.6" r="3.0" fill="#ffffff" opacity="0.26027387808822366"/>
<circle cx="384.2" cy="335.0" r="3.4" fill="#ffffff" opacity="0.34439333886575607"/>
<circle cx="605.8" cy="734.7" r="3.6" fill="#ffffff" opacity="0.7664098448378033"/>
<circle cx="488.3" cy="543.3" r="3.5" fill="#ffffff" opacity="0.38562313755748023"/>
<circle cx="271.0" cy="242.9" r="3.9" fill="#ffffff" opacity="0.38425944496048603"/>
<circle cx="605.2" cy="525.7" r="3.0" fill="#ffffff" opacity="0.7904160270185523"/>
<circle cx="694.5" cy="547.8" r="2.4" fill="#ffffff" opacity="0.60245514172403"/>
<circle cx="376.3" cy="664.2" r="3.0" fill="#ffffff" opacity="0.6843927287299038"/>
<circle cx="641.5" cy="901.6" r="3.9" fill="#ffffff" opacity="0.7981561502106945"/>
<circle cx="426.7" cy="121.4" r="2.2" fill="#ffffff" opacity="0.30633578382366133"/>
<circle cx="449.2" cy="809.6" r="4.5" fill="#ffffff" opacity="0.4902987236821187"/>
<circle cx="348.7" cy="969.4" r="3.0" fill="#ffffff" opacity="0.3728050835231986"/>
<circle cx="184.3" cy="809.9" r="4.6" fill="#ffffff" opacity="0.8484856034402499"/>
<circle cx="644.5" cy="379.0" r="3.1" fill="#ffffff" opacity="0.8086256640755237"/>
<circle cx="516.4" cy="879.1" r="2.2" fill="#ffffff" opacity="0.49471946733705563"/>
<circle cx="198.5" cy="553.1" r="2.3" fill="#ffffff" opacity="0.3660112831564996"/>
<circle cx="451.5" cy="595.0" r="2.9" fill="#ffffff" opacity="0.5849833151892685"/>
<circle cx="80.5" cy="407.5" r="3.3" fill="#ffffff" opacity="0.6110068950463129"/>
<circle cx="345.8" cy="574.9" r="4.7" fill="#ffffff" opacity="0.2997525470294528"/>
<circle cx="229.9" cy="299.4" r="2.1" fill="#ffffff" opacity="0.8299424616770491"/>
<circle cx="48.6" cy="202.1" r="4.2" fill="#ffffff" opacity="0.8325310746219907"/>
<circle cx="449.6" cy="249.6" r="3.2" fill="#ffffff" opacity="0.2770386605704251"/>
<circle cx="371.8" cy="364.2" r="2.3" fill="#ffffff" opacity="0.7915346633967653"/>
<circle cx="209.5" cy="870.9" r="2.9" fill="#ffffff" opacity="0.5099249730883141"/>
<circle cx="580.8" cy="182.0" r="2.6" fill="#ffffff" opacity="0.8391278521941563"/>
<circle cx="499.2" cy="221.2" r="2.8" fill="#ffffff" opacity="0.32009639200858264"/>
<circle cx="411.5" cy="997.1" r="3.9" fill="#ffffff" opacity="0.28137435645869074"/>
<circle cx="315.3" cy="986.7" r="3.3" fill="#ffffff" opacity="0.6537317560392797"/>
<circle cx="254.5" cy="64.2" r="4.5" fill="#ffffff" opacity="0.6136341486864891"/>
<circle cx="188.3" cy="471.1" r="1.7" fill="#ffffff" opacity="0.5453697554608647"/>
<circle cx="352.3" cy="394.3" r="2.3" fill="#ffffff" opacity="0.32374025310994625"/>
<circle cx="403.7" cy="550.3" r="2.0" fill="#ffffff" opacity="0.6019251877881179"/>
<circle cx="280.5" cy="909.6" r="4.2" fill="#ffffff" opacity="0.37154877201340564"/>
<circle cx="194.8" cy="317.9" r="4.5" fill="#ffffff" opacity="0.7599522171830239"/>
<circle cx="572.5" cy="788.1" r="4.3" fill="#ffffff" opacity="0.78883778119174"/>
<circle cx="476.6" cy="818.8" r="3.4" fill="#ffffff" opacity="0.4072320909323715"/>
<circle cx="156.7" cy="677.3" r="4.1" fill="#ffffff" opacity="0.695432408103253"/>
<g filter="url(#paper)"><rect x="42" y="42" width="666" height="1166" rx="54" ry="54" fill="none" stroke="#1E1B2E" stroke-width="8" opacity="0.95"/>
<rect x="60" y="60" width="630" height="1130" rx="46" ry="46" fill="none" stroke="#2EC4B6" stroke-width="3" opacity="0.35"/>

  <g opacity="0.42">
    <circle cx="375.0" cy="560" r="285" fill="none" stroke="#2EC4B6" stroke-width="4.2" opacity="0.42"/>
    <circle cx="375.0" cy="560" r="233.7" fill="none" stroke="#2EC4B6" stroke-width="2.2" opacity="0.23"/>
    <line x1="642.0" y1="560.0" x2="674.0" y2="560.0" stroke="#2EC4B6" stroke-width="3.2" opacity="0.23" stroke-linecap="round"/><line x1="606.2" y1="693.5" x2="633.9" y2="709.5" stroke="#2EC4B6" stroke-width="3.2" opacity="0.23" stroke-linecap="round"/><line x1="508.5" y1="791.2" x2="524.5" y2="818.9" stroke="#2EC4B6" stroke-width="3.2" opacity="0.23" stroke-linecap="round"/><line x1="375.0" y1="827.0" x2="375.0" y2="859.0" stroke="#2EC4B6" stroke-width="3.2" opacity="0.23" stroke-linecap="round"/><line x1="241.5" y1="791.2" x2="225.5" y2="818.9" stroke="#2EC4B6" stroke-width="3.2" opacity="0.23" stroke-linecap="round"/><line x1="143.8" y1="693.5" x2="116.1" y2="709.5" stroke="#2EC4B6" stroke-width="3.2" opacity="0.23" stroke-linecap="round"/><line x1="108.0" y1="560.0" x2="76.0" y2="560.0" stroke="#2EC4B6" stroke-width="3.2" opacity="0.23" stroke-linecap="round"/><line x1="143.8" y1="426.5" x2="116.1" y2="410.5" stroke="#2EC4B6" stroke-width="3.2" opacity="0.23" stroke-linecap="round"/><line x1="241.5" y1="328.8" x2="225.5" y2="301.1" stroke="#2EC4B6" stroke-width="3.2" opacity="0.23" stroke-linecap="round"/><line x1="375.0" y1="293.0" x2="375.0" y2="261.0" stroke="#2EC4B6" stroke-width="3.2" opacity="0.23" stroke-linecap="round"/><line x1="508.5" y1="328.8" x2="524.5" y2="301.1" stroke="#2EC4B6" stroke-width="3.2" opacity="0.23" stroke-linecap="round"/><line x1="606.2" y1="426.5" x2="633.9" y2="410.5" stroke="#2EC4B6" stroke-width="3.2" opacity="0.23" stroke-linecap="round"/>
    <circle cx="660.0" cy="562.9" r="2.7" fill="#2EC4B6" opacity="0.24"/><circle cx="651.1" cy="630.6" r="3.2" fill="#2EC4B6" opacity="0.44"/><circle cx="626.3" cy="694.4" r="3.0" fill="#2EC4B6" opacity="0.19"/><circle cx="573.9" cy="764.1" r="2.9" fill="#2EC4B6" opacity="0.42"/><circle cx="515.0" cy="808.2" r="3.2" fill="#2EC4B6" opacity="0.36"/><circle cx="453.1" cy="834.1" r="3.3" fill="#2EC4B6" opacity="0.42"/><circle cx="366.9" cy="844.9" r="3.4" fill="#2EC4B6" opacity="0.29"/><circle cx="310.2" cy="837.5" r="3.4" fill="#2EC4B6" opacity="0.23"/><circle cx="228.7" cy="804.6" r="3.3" fill="#2EC4B6" opacity="0.21"/><circle cx="170.9" cy="758.9" r="3.9" fill="#2EC4B6" opacity="0.31"/><circle cx="126.1" cy="698.8" r="2.7" fill="#2EC4B6" opacity="0.20"/><circle cx="99.2" cy="631.7" r="3.0" fill="#2EC4B6" opacity="0.36"/><circle cx="90.0" cy="562.6" r="3.9" fill="#2EC4B6" opacity="0.39"/><circle cx="100.1" cy="484.9" r="3.0" fill="#2EC4B6" opacity="0.39"/><circle cx="130.6" cy="413.5" r="2.9" fill="#2EC4B6" opacity="0.39"/><circle cx="174.4" cy="357.5" r="3.0" fill="#2EC4B6" opacity="0.32"/><circle cx="232.8" cy="313.0" r="3.9" fill="#2EC4B6" opacity="0.22"/><circle cx="296.7" cy="286.0" r="2.8" fill="#2EC4B6" opacity="0.34"/><circle cx="367.7" cy="275.1" r="3.6" fill="#2EC4B6" opacity="0.30"/><circle cx="446.5" cy="284.1" r="3.8" fill="#2EC4B6" opacity="0.24"/><circle cx="516.0" cy="312.3" r="2.8" fill="#2EC4B6" opacity="0.43"/><circle cx="579.7" cy="361.7" r="4.0" fill="#2EC4B6" opacity="0.37"/><circle cx="619.0" cy="412.8" r="3.3" fill="#2EC4B6" opacity="0.21"/><circle cx="652.3" cy="494.1" r="3.4" fill="#2EC4B6" opacity="0.24"/>
  </g>

<g><g transform="translate(50,54)"><path d="M 18.0 117.0 C 45.0 45.0, 99.0 27.0, 153.0 54.0" fill="none" stroke="#2EC4B6" stroke-width="6" opacity="0.55" stroke-linecap="round"/></g><g transform="translate(700,54) scale(-1,1)"><path d="M 18.0 117.0 C 45.0 45.0, 99.0 27.0, 153.0 54.0" fill="none" stroke="#2EC4B6" stroke-width="6" opacity="0.55" stroke-linecap="round"/></g><g transform="translate(50,1196) scale(1,-1)"><path d="M 18.0 117.0 C 45.0 45.0, 99.0 27.0, 153.0 54.0" fill="none" stroke="#2EC4B6" stroke-width="6" opacity="0.55" stroke-linecap="round"/></g><g transform="translate(700,1196) scale(-1,-1)"><path d="M 18.0 117.0 C 45.0 45.0, 99.0 27.0, 153.0 54.0" fill="none" stroke="#2EC4B6" stroke-width="6" opacity="0.55" stroke-linecap="round"/></g></g></g>
<rect x="42" y="60" width="666" height="92" rx="30" fill="#ffffffcc" stroke="#1E1B2E" stroke-width="4" opacity="0.95"/>
<text x="375.0" y="122" font-family="ui-sans-serif, system-ui, -apple-system, Segoe UI, Roboto, Helvetica, Arial" font-size="30" font-weight="800" text-anchor="middle" fill="#1E1B2E" opacity="0.95" letter-spacing="1">MINOR ARCANA • PENTACLES</text>
<rect x="76" y="170" width="598" height="760" rx="52" fill="#ffffff" opacity="0.15"/>
<g><circle cx="315.8" cy="648.3" r="2.7" fill="#2EC4B6" opacity="0.07"/><circle cx="236.0" cy="207.5" r="2.8" fill="#2EC4B6" opacity="0.07"/><circle cx="652.8" cy="224.7" r="2.7" fill="#2EC4B6" opacity="0.07"/><circle cx="509.6" cy="262.5" r="3.0" fill="#2EC4B6" opacity="0.07"/><circle cx="528.3" cy="691.8" r="2.3" fill="#2EC4B6" opacity="0.07"/><circle cx="496.1" cy="894.9" r="2.1" fill="#2EC4B6" opacity="0.07"/><circle cx="82.8" cy="442.0" r="3.0" fill="#2EC4B6" opacity="0.07"/><circle cx="544.8" cy="732.0" r="1.7" fill="#2EC4B6" opacity="0.07"/><circle cx="388.1" cy="363.7" r="1.8" fill="#2EC4B6" opacity="0.07"/><circle cx="479.5" cy="221.7" r="2.2" fill="#2EC4B6" opacity="0.07"/><circle cx="44.6" cy="665.6" r="2.7" fill="#2EC4B6" opacity="0.07"/><circle cx="365.7" cy="551.5" r="2.6" fill="#2EC4B6" opacity="0.07"/><circle cx="569.1" cy="527.6" r="2.0" fill="#2EC4B6" opacity="0.07"/><circle cx="67.7" cy="718.5" r="2.5" fill="#2EC4B6" opacity="0.07"/><circle cx="552.2" cy="472.8" r="1.8" fill="#2EC4B6" opacity="0.07"/><circle cx="673.8" cy="530.2" r="3.0" fill="#2EC4B6" opacity="0.07"/><circle cx="90.8" cy="625.8" r="1.5" fill="#2EC4B6" opacity="0.07"/><circle cx="115.9" cy="575.3" r="2.3" fill="#2EC4B6" opacity="0.07"/><circle cx="304.6" cy="863.7" r="1.6" fill="#2EC4B6" opacity="0.07"/><circle cx="515.7" cy="327.6" r="2.1" fill="#2EC4B6" opacity="0.07"/><circle cx="651.5" cy="677.2" r="2.9" fill="#2EC4B6" opacity="0.07"/><circle cx="162.6" cy="719.7" r="2.4" fill="#2EC4B6" opacity="0.07"/><circle cx="257.4" cy="636.9" r="2.5" fill="#2EC4B6" opacity="0.07"/><circle cx="328.1" cy="409.9" r="2.0" fill="#2EC4B6" opacity="0.07"/><circle cx="447.2" cy="769.4" r="2.7" fill="#2EC4B6" opacity="0.07"/><circle cx="304.0" cy="215.7" r="1.6" fill="#2EC4B6" opacity="0.07"/><circle cx="334.1" cy="897.0" r="2.8" fill="#2EC4B6" opacity="0.07"/><circle cx="250.5" cy="498.6" r="3.2" fill="#2EC4B6" opacity="0.07"/><circle cx="514.9" cy="644.4" r="1.6" fill="#2EC4B6" opacity="0.07"/><circle cx="677.0" cy="795.5" r="3.0" fill="#2EC4B6" opacity="0.07"/><circle cx="295.0" cy="860.2" r="2.6" fill="#2EC4B6" opacity="0.07"/><circle cx="306.4" cy="322.8" r="2.0" fill="#2EC4B6" opacity="0.07"/><circle cx="611.3" cy="516.0" r="1.8" fill="#2EC4B6" opacity="0.07"/><circle cx="286.6" cy="876.7" r="2.7" fill="#2EC4B6" opacity="0.07"/><circle cx="219.1" cy="236.3" r="3.0" fill="#2EC4B6" opacity="0.07"/><circle cx="326.4" cy="678.4" r="2.0" fill="#2EC4B6" opacity="0.07"/><circle cx="488.9" cy="675.9" r="2.4" fill="#2EC4B6" opacity="0.07"/><circle cx="106.3" cy="473.6" r="2.2" fill="#2EC4B6" opacity="0.07"/><circle cx="258.3" cy="466.8" r="2.4" fill="#2EC4B6" opacity="0.07"/><circle cx="282.4" cy="510.8" r="2.6" fill="#2EC4B6" opacity="0.07"/><circle cx="272.0" cy="262.6" r="3.1" fill="#2EC4B6" opacity="0.07"/><circle cx="600.4" cy="254.4" r="2.2" fill="#2EC4B6" opacity="0.07"/><circle cx="144.8" cy="234.6" r="2.1" fill="#2EC4B6" opacity="0.07"/><circle cx="695.4" cy="436.2" r="2.6" fill="#2EC4B6" opacity="0.07"/><circle cx="216.1" cy="395.6" r="2.9" fill="#2EC4B6" opacity="0.07"/><circle cx="447.1" cy="764.3" r="1.9" fill="#2EC4B6" opacity="0.07"/><circle cx="494.1" cy="432.6" r="1.7" fill="#2EC4B6" opacity="0.07"/><circle cx="149.0" cy="570.6" r="1.7" fill="#2EC4B6" opacity="0.07"/><circle cx="392.0" cy="196.6" r="2.2" fill="#2EC4B6" opacity="0.07"/><circle cx="113.5" cy="831.6" r="1.6" fill="#2EC4B6" opacity="0.07"/><circle cx="413.8" cy="762.8" r="2.4" fill="#2EC4B6" opacity="0.07"/><circle cx="360.8" cy="446.8" r="1.8" fill="#2EC4B6" opacity="0.07"/><circle cx="401.4" cy="601.4" r="2.0" fill="#2EC4B6" opacity="0.07"/><circle cx="667.0" cy="842.1" r="2.1" fill="#2EC4B6" opacity="0.07"/><circle cx="434.0" cy="853.1" r="1.7" fill="#2EC4B6" opacity="0.07"/><circle cx="200.8" cy="418.8" r="3.1" fill="#2EC4B6" opacity="0.07"/><circle cx="415.4" cy="622.7" r="2.8" fill="#2EC4B6" opacity="0.07"/><circle cx="406.8" cy="884.9" r="2.1" fill="#2EC4B6" opacity="0.07"/><circle cx="85.3" cy="193.8" r="1.8" fill="#2EC4B6" opacity="0.07"/><circle cx="319.5" cy="896.2" r="2.1" fill="#2EC4B6" opacity="0.07"/><circle cx="506.0" cy="414.1" r="1.7" fill="#2EC4B6" opacity="0.07"/><circle cx="306.2" cy="773.3" r="2.9" fill="#2EC4B6" opacity="0.07"/><circle cx="210.7" cy="830.8" r="2.5" fill="#2EC4B6" opacity="0.07"/><circle cx="85.3" cy="254.8" r="1.7" fill="#2EC4B6" opacity="0.07"/><circle cx="621.4" cy="823.9" r="2.7" fill="#2EC4B6" opacity="0.07"/><circle cx="293.1" cy="813.9" r="3.0" fill="#2EC4B6" opacity="0.07"/><circle cx="616.7" cy="366.3" r="2.1" fill="#2EC4B6" opacity="0.07"/><circle cx="319.8" cy="206.6" r="2.7" fill="#2EC4B6" opacity="0.07"/><circle cx="403.3" cy="546.4" r="2.3" fill="#2EC4B6" opacity="0.07"/><circle cx="49.4" cy="368.6" r="2.9" fill="#2EC4B6" opacity="0.07"/><circle cx="62.1" cy="797.5" r="3.1" fill="#2EC4B6" opacity="0.07"/><circle cx="638.5" cy="630.0" r="2.9" fill="#2EC4B6" opacity="0.07"/><circle cx="382.3" cy="785.1" r="2.3" fill="#2EC4B6" opacity="0.07"/><circle cx="398.9" cy="509.7" r="2.9" fill="#2EC4B6" opacity="0.07"/><circle cx="49.2" cy="683.4" r="2.8" fill="#2EC4B6" opacity="0.07"/><circle cx="692.8" cy="528.2" r="2.2" fill="#2EC4B6" opacity="0.07"/><circle cx="169.4" cy="506.0" r="1.7" fill="#2EC4B6" opacity="0.07"/><circle cx="331.7" cy="444.5" r="2.4" fill="#2EC4B6" opacity="0.07"/><circle cx="214.8" cy="705.8" r="2.1" fill="#2EC4B6" opacity="0.07"/><circle cx="607.1" cy="240.7" r="2.0" fill="#2EC4B6" opacity="0.07"/><circle cx="459.1" cy="436.8" r="2.2" fill="#2EC4B6" opacity="0.07"/><circle cx="240.9" cy="547.2" r="2.7" fill="#2EC4B6" opacity="0.07"/><circle cx="211.2" cy="897.0" r="2.6" fill="#2EC4B6" opacity="0.07"/><circle cx="346.6" cy="344.9" r="2.5" fill="#2EC4B6" opacity="0.07"/><circle cx="332.1" cy="395.3" r="2.6" fill="#2EC4B6" opacity="0.07"/><circle cx="107.5" cy="739.9" r="2.7" fill="#2EC4B6" opacity="0.07"/><circle cx="529.1" cy="575.5" r="2.6" fill="#2EC4B6" opacity="0.07"/><circle cx="222.8" cy="500.8" r="2.5" fill="#2EC4B6" opacity="0.07"/><circle cx="476.4" cy="612.9" r="2.9" fill="#2EC4B6" opacity="0.07"/><circle cx="207.8" cy="425.0" r="2.2" fill="#2EC4B6" opacity="0.07"/><circle cx="43.5" cy="420.4" r="2.5" fill="#2EC4B6" opacity="0.07"/><circle cx="42.6" cy="638.8" r="2.5" fill="#2EC4B6" opacity="0.07"/><circle cx="453.5" cy="586.3" r="2.9" fill="#2EC4B6" opacity="0.07"/><circle cx="250.4" cy="777.6" r="2.7" fill="#2EC4B6" opacity="0.07"/><circle cx="208.9" cy="417.4" r="2.0" fill="#2EC4B6" opacity="0.07"/><circle cx="585.5" cy="596.6" r="2.0" fill="#2EC4B6" opacity="0.07"/><circle cx="547.7" cy="569.7" r="1.6" fill="#2EC4B6" opacity="0.07"/><circle cx="519.0" cy="468.7" r="1.8" fill="#2EC4B6" opacity="0.07"/><circle cx="411.0" cy="356.1" r="3.0" fill="#2EC4B6" opacity="0.07"/><circle cx="73.8" cy="309.3" r="2.3" fill="#2EC4B6" opacity="0.07"/><circle cx="694.9" cy="794.9" r="2.1" fill="#2EC4B6" opacity="0.07"/><circle cx="260.6" cy="877.9" r="1.8" fill="#2EC4B6" opacity="0.07"/><circle cx="401.0" cy="836.0" r="2.9" fill="#2EC4B6" opacity="0.07"/><circle cx="274.8" cy="715.8" r="2.0" fill="#2EC4B6" opacity="0.07"/><circle cx="704.2" cy="790.1" r="1.8" fill="#2EC4B6" opacity="0.07"/><circle cx="202.4" cy="639.7" r="1.8" fill="#2EC4B6" opacity="0.07"/><circle cx="447.3" cy="821.0" r="2.4" fill="#2EC4B6" opacity="0.07"/><circle cx="565.1" cy="261.7" r="2.3" fill="#2EC4B6" opacity="0.07"/><circle cx="183.8" cy="769.1" r="2.2" fill="#2EC4B6" opacity="0.07"/><circle cx="539.7" cy="505.1" r="2.1" fill="#2EC4B6" opacity="0.07"/></g><g><g opacity="0.55">
    <g>
      <circle cx="393.72092016677516" cy="400.7019311183714" r="44.8" fill="#ffffff" opacity="0.75" stroke="#1E1B2E" stroke-width="7"/>
      <circle cx="393.72092016677516" cy="400.7019311183714" r="33.0" fill="none" stroke="#2EC4B6" stroke-width="6" opacity="0.45"/>
      <polygon points="393.72,358.70 403.92,386.66 433.67,387.72 410.23,406.07 418.41,434.68 393.72,418.06 369.03,434.68 377.21,406.07 353.78,387.72 383.52,386.66" fill="none" stroke="#1E1B2E" stroke-width="8" stroke-linejoin="round" opacity="0.95"/>
      <circle cx="393.72092016677516" cy="400.7019311183714" r="5.0" fill="#2EC4B6" opacity="0.55"/>
      <path d="M 367.1 420.3 Q 393.72092016677516 444.1 420.3 420.3" fill="none" stroke="#2EC4B6" stroke-width="7" opacity="0.35" stroke-linecap="round"/>
    </g>
    </g><g opacity="0.55">
    <g>
      <circle cx="536.2195460347757" cy="458.92865736500187" r="44.8" fill="#ffffff" opacity="0.75" stroke="#1E1B2E" stroke-width="7"/>
      <circle cx="536.2195460347757" cy="458.92865736500187" r="33.0" fill="none" stroke="#2EC4B6" stroke-width="6" opacity="0.45"/>
      <polygon points="536.22,416.93 546.42,444.88 576.16,445.95 552.73,464.29 560.91,492.91 536.22,476.29 511.53,492.91 519.71,464.29 496.28,445.95 526.02,444.88" fill="none" stroke="#1E1B2E" stroke-width="8" stroke-linejoin="round" opacity="0.95"/>
      <circle cx="536.2195460347757" cy="458.92865736500187" r="5.0" fill="#2EC4B6" opacity="0.55"/>
      <path d="M 509.6 478.5 Q 536.2195460347757 502.3 562.8 478.5" fill="none" stroke="#2EC4B6" stroke-width="7" opacity="0.35" stroke-linecap="round"/>
    </g>
    </g><g opacity="0.55">
    <g>
      <circle cx="624.9028658370534" cy="656.9683316818102" r="44.8" fill="#ffffff" opacity="0.75" stroke="#1E1B2E" stroke-width="7"/>
      <circle cx="624.9028658370534" cy="656.9683316818102" r="33.0" fill="none" stroke="#2EC4B6" stroke-width="6" opacity="0.45"/>
      <polygon points="624.90,614.97 635.11,642.92 664.85,643.99 641.41,662.33 649.59,690.95 624.90,674.33 600.22,690.95 608.39,662.33 584.96,643.99 614.70,642.92" fill="none" stroke="#1E1B2E" stroke-width="8" stroke-linejoin="round" opacity="0.95"/>
      <circle cx="624.9028658370534" cy="656.9683316818102" r="5.0" fill="#2EC4B6" opacity="0.55"/>
      <path d="M 598.3 676.6 Q 624.9028658370534 700.4 651.5 676.6" fill="none" stroke="#2EC4B6" stroke-width="7" opacity="0.35" stroke-linecap="round"/>
    </g>
    </g><g opacity="0.55">
    <g>
      <circle cx="541.3111470436255" cy="836.6563751095407" r="44.8" fill="#ffffff" opacity="0.75" stroke="#1E1B2E" stroke-width="7"/>
      <circle cx="541.3111470436255" cy="836.6563751095407" r="33.0" fill="none" stroke="#2EC4B6" stroke-width="6" opacity="0.45"/>
      <polygon points="541.31,794.66 551.52,822.61 581.26,823.68 557.82,842.02 566.00,870.64 541.31,854.02 516.62,870.64 524.80,842.02 501.37,823.68 531.11,822.61" fill="none" stroke="#1E1B2E" stroke-width="8" stroke-linejoin="round" opacity="0.95"/>
      <circle cx="541.3111470436255" cy="836.6563751095407" r="5.0" fill="#2EC4B6" opacity="0.55"/>
      <path d="M 514.7 856.3 Q 541.3111470436255 880.1 567.9 856.3" fill="none" stroke="#2EC4B6" stroke-width="7" opacity="0.35" stroke-linecap="round"/>
    </g>
    </g><g opacity="0.55">
    <g>
      <circle cx="361.47374070074204" cy="899.6338124320687" r="44.8" fill="#ffffff" opacity="0.75" stroke="#1E1B2E" stroke-width="7"/>
      <circle cx="361.47374070074204" cy="899.6338124320687" r="33.0" fill="none" stroke="#2EC4B6" stroke-width="6" opacity="0.45"/>
      <polygon points="361.47,857.63 371.68,885.59 401.42,886.66 377.98,905.00 386.16,933.61 361.47,916.99 336.79,933.61 344.96,905.00 321.53,886.66 351.27,885.59" fill="none" stroke="#1E1B2E" stroke-width="8" stroke-linejoin="round" opacity="0.95"/>
      <circle cx="361.47374070074204" cy="899.6338124320687" r="5.0" fill="#2EC4B6" opacity="0.55"/>
      <path d="M 334.9 919.2 Q 361.47374070074204 943.0 388.1 919.2" fill="none" stroke="#2EC4B6" stroke-width="7" opacity="0.35" stroke-linecap="round"/>
    </g>
    </g><g opacity="0.55">
    <g>
      <circle cx="192.01470465314856" cy="820.3419551573409" r="44.8" fill="#ffffff" opacity="0.75" stroke="#1E1B2E" stroke-width="7"/>
      <circle cx="192.01470465314856" cy="820.3419551573409" r="33.0" fill="none" stroke="#2EC4B6" stroke-width="6" opacity="0.45"/>
      <polygon points="192.01,778.34 202.22,806.30 231.96,807.36 208.53,825.71 216.70,854.32 192.01,837.70 167.33,854.32 175.50,825.71 152.07,807.36 181.81,806.30" fill="none" stroke="#1E1B2E" stroke-width="8" stroke-linejoin="round" opacity="0.95"/>
      <circle cx="192.01470465314856" cy="820.3419551573409" r="5.0" fill="#2EC4B6" opacity="0.55"/>
      <path d="M 165.4 839.9 Q 192.01470465314856 863.7 218.6 839.9" fill="none" stroke="#2EC4B6" stroke-width="7" opacity="0.35" stroke-linecap="round"/>
    </g>
    </g><g opacity="0.55">
    <g>
      <circle cx="125.17654551418022" cy="640.6063005811587" r="44.8" fill="#ffffff" opacity="0.75" stroke="#1E1B2E" stroke-width="7"/>
      <circle cx="125.17654551418022" cy="640.6063005811587" r="33.0" fill="none" stroke="#2EC4B6" stroke-width="6" opacity="0.45"/>
      <polygon points="125.18,598.61 135.38,626.56 165.12,627.63 141.69,645.97 149.86,674.59 125.18,657.97 100.49,674.59 108.67,645.97 85.23,627.63 114.97,626.56" fill="none" stroke="#1E1B2E" stroke-width="8" stroke-linejoin="round" opacity="0.95"/>
      <circle cx="125.17654551418022" cy="640.6063005811587" r="5.0" fill="#2EC4B6" opacity="0.55"/>
      <path d="M 98.6 660.2 Q 125.17654551418022 684.0 151.8 660.2" fill="none" stroke="#2EC4B6" stroke-width="7" opacity="0.35" stroke-linecap="round"/>
    </g>
    </g><g opacity="0.55">
    <g>
      <circle cx="186.4176173743834" cy="485.8760073504012" r="44.8" fill="#ffffff" opacity="0.75" stroke="#1E1B2E" stroke-width="7"/>
      <circle cx="186.4176173743834" cy="485.8760073504012" r="33.0" fill="none" stroke="#2EC4B6" stroke-width="6" opacity="0.45"/>
      <polygon points="186.42,443.88 196.62,471.83 226.36,472.90 202.93,491.24 211.10,519.85 186.42,503.24 161.73,519.85 169.91,491.24 146.47,472.90 176.21,471.83" fill="none" stroke="#1E1B2E" stroke-width="8" stroke-linejoin="round" opacity="0.95"/>
      <circle cx="186.4176173743834" cy="485.8760073504012" r="5.0" fill="#2EC4B6" opacity="0.55"/>
      <path d="M 159.8 505.5 Q 186.4176173743834 529.3 213.0 505.5" fill="none" stroke="#2EC4B6" stroke-width="7" opacity="0.35" stroke-linecap="round"/>
    </g>
    </g></g><g opacity="0.18"><g><circle cx="563.9" cy="775.2" r="2.4" fill="#2EC4B6" opacity="0.07"/><circle cx="46.0" cy="651.4" r="2.2" fill="#2EC4B6" opacity="0.07"/><circle cx="650.8" cy="821.9" r="2.5" fill="#2EC4B6" opacity="0.07"/><circle cx="352.7" cy="333.0" r="2.9" fill="#2EC4B6" opacity="0.07"/><circle cx="621.0" cy="478.0" r="1.7" fill="#2EC4B6" opacity="0.07"/><circle cx="697.7" cy="418.0" r="1.5" fill="#2EC4B6" opacity="0.07"/><circle cx="198.7" cy="403.6" r="2.3" fill="#2EC4B6" opacity="0.07"/><circle cx="124.6" cy="381.6" r="2.3" fill="#2EC4B6" opacity="0.07"/><circle cx="92.4" cy="215.2" r="3.0" fill="#2EC4B6" opacity="0.07"/><circle cx="457.3" cy="644.4" r="2.1" fill="#2EC4B6" opacity="0.07"/><circle cx="525.8" cy="453.2" r="2.8" fill="#2EC4B6" opacity="0.07"/><circle cx="384.6" cy="390.4" r="1.7" fill="#2EC4B6" opacity="0.07"/><circle cx="440.9" cy="430.0" r="1.5" fill="#2EC4B6" opacity="0.07"/><circle cx="284.3" cy="237.3" r="1.8" fill="#2EC4B6" opacity="0.07"/><circle cx="161.7" cy="473.1" r="2.3" fill="#2EC4B6" opacity="0.07"/><circle cx="455.1" cy="618.8" r="1.7" fill="#2EC4B6" opacity="0.07"/><circle cx="591.6" cy="352.0" r="2.8" fill="#2EC4B6" opacity="0.07"/><circle cx="556.3" cy="563.7" r="3.1" fill="#2EC4B6" opacity="0.07"/><circle cx="295.2" cy="824.3" r="1.6" fill="#2EC4B6" opacity="0.07"/><circle cx="253.9" cy="867.1" r="2.2" fill="#2EC4B6" opacity="0.07"/><circle cx="481.0" cy="905.3" r="2.6" fill="#2EC4B6" opacity="0.07"/><circle cx="161.9" cy="696.7" r="2.5" fill="#2EC4B6" opacity="0.07"/><circle cx="277.7" cy="603.5" r="2.5" fill="#2EC4B6" opacity="0.07"/><circle cx="100.0" cy="558.9" r="2.6" fill="#2EC4B6" opacity="0.07"/><circle cx="61.4" cy="512.4" r="2.3" fill="#2EC4B6" opacity="0.07"/><circle cx="422.1" cy="410.5" r="2.3" fill="#2EC4B6" opacity="0.07"/><circle cx="298.3" cy="378.2" r="2.9" fill="#2EC4B6" opacity="0.07"/><circle cx="123.3" cy="362.5" r="1.5" fill="#2EC4B6" opacity="0.07"/><circle cx="78.5" cy="596.3" r="2.3" fill="#2EC4B6" opacity="0.07"/><circle cx="259.4" cy="676.4" r="2.6" fill="#2EC4B6" opacity="0.07"/><circle cx="396.2" cy="692.7" r="2.7" fill="#2EC4B6" opacity="0.07"/><circle cx="420.1" cy="716.5" r="2.4" fill="#2EC4B6" opacity="0.07"/><circle cx="509.3" cy="465.4" r="2.8" fill="#2EC4B6" opacity="0.07"/><circle cx="394.6" cy="809.6" r="2.9" fill="#2EC4B6" opacity="0.07"/><circle cx="518.8" cy="540.8" r="1.8" fill="#2EC4B6" opacity="0.07"/><circle cx="157.1" cy="540.6" r="2.1" fill="#2EC4B6" opacity="0.07"/><circle cx="466.6" cy="898.9" r="1.6" fill="#2EC4B6" opacity="0.07"/><circle cx="521.3" cy="612.3" r="2.9" fill="#2EC4B6" opacity="0.07"/><circle cx="353.6" cy="199.3" r="2.3" fill="#2EC4B6" opacity="0.07"/><circle cx="221.9" cy="658.3" r="2.7" fill="#2EC4B6" opacity="0.07"/><circle cx="443.2" cy="268.0" r="2.1" fill="#2EC4B6" opacity="0.07"/><circle cx="586.1" cy="490.7" r="1.6" fill="#2EC4B6" opacity="0.07"/><circle cx="493.1" cy="673.1" r="1.6" fill="#2EC4B6" opacity="0.07"/><circle cx="513.3" cy="599.7" r="2.0" fill="#2EC4B6" opacity="0.07"/><circle cx="625.0" cy="743.9" r="1.8" fill="#2EC4B6" opacity="0.07"/><circle cx="654.3" cy="760.6" r="2.3" fill="#2EC4B6" opacity="0.07"/><circle cx="157.6" cy="792.6" r="3.2" fill="#2EC4B6" opacity="0.07"/><circle cx="537.3" cy="878.3" r="2.7" fill="#2EC4B6" opacity="0.07"/><circle cx="59.1" cy="880.6" r="3.1" fill="#2EC4B6" opacity="0.07"/><circle cx="316.7" cy="502.7" r="2.0" fill="#2EC4B6" opacity="0.07"/><circle cx="497.2" cy="513.1" r="1.7" fill="#2EC4B6" opacity="0.07"/><circle cx="50.4" cy="840.5" r="2.6" fill="#2EC4B6" opacity="0.07"/><circle cx="133.4" cy="405.7" r="1.5" fill="#2EC4B6" opacity="0.07"/><circle cx="603.5" cy="546.5" r="2.3" fill="#2EC4B6" opacity="0.07"/><circle cx="329.7" cy="191.4" r="2.7" fill="#2EC4B6" opacity="0.07"/><circle cx="408.5" cy="809.1" r="2.2" fill="#2EC4B6" opacity="0.07"/><circle cx="230.8" cy="358.8" r="2.2" fill="#2EC4B6" opacity="0.07"/><circle cx="398.1" cy="334.8" r="3.0" fill="#2EC4B6" opacity="0.07"/><circle cx="192.5" cy="851.4" r="2.9" fill="#2EC4B6" opacity="0.07"/><circle cx="509.2" cy="611.1" r="2.2" fill="#2EC4B6" opacity="0.07"/><circle cx="677.7" cy="329.5" r="2.8" fill="#2EC4B6" opacity="0.07"/><circle cx="210.5" cy="820.8" r="3.2" fill="#2EC4B6" opacity="0.07"/><circle cx="463.4" cy="664.9" r="3.2" fill="#2EC4B6" opacity="0.07"/><circle cx="251.0" cy="261.6" r="2.7" fill="#2EC4B6" opacity="0.07"/><circle cx="505.0" cy="783.7" r="2.0" fill="#2EC4B6" opacity="0.07"/><circle cx="368.8" cy="863.7" r="2.0" fill="#2EC4B6" opacity="0.07"/><circle cx="574.9" cy="437.6" r="2.2" fill="#2EC4B6" opacity="0.07"/><circle cx="109.5" cy="426.1" r="1.8" fill="#2EC4B6" opacity="0.07"/><circle cx="595.9" cy="663.1" r="1.8" fill="#2EC4B6" opacity="0.07"/><circle cx="396.9" cy="852.2" r="1.6" fill="#2EC4B6" opacity="0.07"/><circle cx="163.7" cy="773.4" r="1.5" fill="#2EC4B6" opacity="0.07"/><circle cx="78.0" cy="400.0" r="2.5" fill="#2EC4B6" opacity="0.07"/><circle cx="282.9" cy="864.1" r="2.1" fill="#2EC4B6" opacity="0.07"/><circle cx="443.3" cy="473.2" r="2.8" fill="#2EC4B6" opacity="0.07"/><circle cx="594.8" cy="309.9" r="3.0" fill="#2EC4B6" opacity="0.07"/><circle cx="362.0" cy="337.8" r="1.8" fill="#2EC4B6" opacity="0.07"/><circle cx="549.5" cy="296.6" r="1.6" fill="#2EC4B6" opacity="0.07"/><circle cx="651.1" cy="766.2" r="2.6" fill="#2EC4B6" opacity="0.07"/><circle cx="415.0" cy="342.3" r="2.3" fill="#2EC4B6" opacity="0.07"/><circle cx="565.5" cy="257.9" r="1.6" fill="#2EC4B6" opacity="0.07"/><circle cx="492.0" cy="309.1" r="1.6" fill="#2EC4B6" opacity="0.07"/><circle cx="283.7" cy="245.7" r="2.2" fill="#2EC4B6" opacity="0.07"/><circle cx="691.2" cy="470.0" r="1.9" fill="#2EC4B6" opacity="0.07"/><circle cx="649.7" cy="252.9" r="2.4" fill="#2EC4B6" opacity="0.07"/><circle cx="531.2" cy="755.3" r="2.9" fill="#2EC4B6" opacity="0.07"/><circle cx="89.9" cy="313.4" r="2.0" fill="#2EC4B6" opacity="0.07"/><circle cx="675.2" cy="712.3" r="1.9" fill="#2EC4B6" opacity="0.07"/><circle cx="568.9" cy="256.0" r="2.7" fill="#2EC4B6" opacity="0.07"/><circle cx="238.2" cy="535.7" r="3.0" fill="#2EC4B6" opacity="0.07"/><circle cx="622.8" cy="222.6" r="2.3" fill="#2EC4B6" opacity="0.07"/><circle cx="468.5" cy="434.4" r="2.1" fill="#2EC4B6" opacity="0.07"/><circle cx="682.1" cy="609.7" r="3.2" fill="#2EC4B6" opacity="0.07"/><circle cx="133.2" cy="272.3" r="2.8" fill="#2EC4B6" opacity="0.07"/><circle cx="205.7" cy="559.2" r="2.8" fill="#2EC4B6" opacity="0.07"/><circle cx="295.4" cy="570.5" r="2.7" fill="#2EC4B6" opacity="0.07"/><circle cx="342.8" cy="620.2" r="2.4" fill="#2EC4B6" opacity="0.07"/><circle cx="538.8" cy="191.5" r="2.1" fill="#2EC4B6" opacity="0.07"/><circle cx="515.8" cy="766.8" r="2.0" fill="#2EC4B6" opacity="0.07"/><circle cx="369.1" cy="235.0" r="1.9" fill="#2EC4B6" opacity="0.07"/><circle cx="49.0" cy="476.2" r="1.6" fill="#2EC4B6" opacity="0.07"/><circle cx="445.2" cy="421.2" r="2.9" fill="#2EC4B6" opacity="0.07"/><circle cx="105.7" cy="762.3" r="1.8" fill="#2EC4B6" opacity="0.07"/><circle cx="607.6" cy="333.7" r="2.4" fill="#2EC4B6" opacity="0.07"/><circle cx="591.4" cy="696.9" r="2.8" fill="#2EC4B6" opacity="0.07"/><circle cx="349.5" cy="469.9" r="2.0" fill="#2EC4B6" opacity="0.07"/><circle cx="75.7" cy="421.1" r="1.6" fill="#2EC4B6" opacity="0.07"/><circle cx="453.8" cy="628.7" r="1.6" fill="#2EC4B6" opacity="0.07"/><circle cx="224.7" cy="464.7" r="3.1" fill="#2EC4B6" opacity="0.07"/><circle cx="299.6" cy="260.7" r="2.8" fill="#2EC4B6" opacity="0.07"/><circle cx="581.5" cy="632.2" r="1.8" fill="#2EC4B6" opacity="0.07"/></g></g>
        <g filter="url(#glow)">
          <circle cx="375.0" cy="630" r="170" fill="#ffffff" opacity="0.40" stroke="#2EC4B6" stroke-width="7"/>
          
    <g>
      <circle cx="375.0" cy="630" r="115.2" fill="#ffffff" opacity="0.75" stroke="#1E1B2E" stroke-width="7"/>
      <circle cx="375.0" cy="630" r="85.0" fill="none" stroke="#2EC4B6" stroke-width="6" opacity="0.45"/>
      <polygon points="375.00,522.00 401.24,593.89 477.71,596.63 417.46,643.79 438.48,717.37 375.00,674.64 311.52,717.37 332.54,643.79 272.29,596.63 348.76,593.89" fill="none" stroke="#1E1B2E" stroke-width="8" stroke-linejoin="round" opacity="0.95"/>
      <circle cx="375.0" cy="630" r="13.0" fill="#2EC4B6" opacity="0.55"/>
      <path d="M 306.6 680.4 Q 375.0 741.6 443.4 680.4" fill="none" stroke="#2EC4B6" stroke-width="7" opacity="0.35" stroke-linecap="round"/>
    </g>
    
        </g>
        <line x1="368.2" y1="569.3" x2="612.6" y2="510.2" stroke="#ffffff" stroke-width="2.2" opacity="0.13"/>
<line x1="612.6" y1="510.2" x2="199.8" y2="612.1" stroke="#ffffff" stroke-width="2.2" opacity="0.08"/>
<line x1="199.8" y1="612.1" x2="591.5" y2="412.0" stroke="#ffffff" stroke-width="2.2" opacity="0.21"/>
<line x1="591.5" y1="412.0" x2="584.3" y2="578.9" stroke="#ffffff" stroke-width="2.2" opacity="0.12"/>
<line x1="584.3" y1="578.9" x2="523.6" y2="345.1" stroke="#ffffff" stroke-width="2.2" opacity="0.16"/>
<line x1="523.6" y1="345.1" x2="543.0" y2="392.0" stroke="#ffffff" stroke-width="2.2" opacity="0.16"/>
<circle cx="361.2" cy="578.1" r="3.7" fill="#ffffff" opacity="0.7610322553097727"/>
<circle cx="543.0" cy="392.0" r="4.7" fill="#ffffff" opacity="0.7470307557951286"/>
<circle cx="199.8" cy="612.1" r="2.0" fill="#ffffff" opacity="0.47833216534595413"/>
<circle cx="368.2" cy="569.3" r="3.1" fill="#ffffff" opacity="0.8393729203922226"/>
<circle cx="591.5" cy="412.0" r="3.2" fill="#ffffff" opacity="0.7034558345358806"/>
<circle cx="545.3" cy="259.5" r="2.2" fill="#ffffff" opacity="0.4522278783960607"/>
<circle cx="200.0" cy="455.5" r="4.1" fill="#ffffff" opacity="0.652473819590112"/>
<circle cx="452.8" cy="392.9" r="4.0" fill="#ffffff" opacity="0.3015092388977978"/>
<circle cx="142.2" cy="450.5" r="4.0" fill="#ffffff" opacity="0.36563183105770797"/>
<circle cx="523.6" cy="345.1" r="3.4" fill="#ffffff" opacity="0.262928957477752"/>
<circle cx="612.6" cy="510.2" r="2.8" fill="#ffffff" opacity="0.5117634178471027"/>
<circle cx="584.3" cy="578.9" r="3.1" fill="#ffffff" opacity="0.4017649206939312"/>
<circle cx="134.0" cy="652.5" r="2.7" fill="#ffffff" opacity="0.6300602616062043"/>
<circle cx="376.2" cy="676.3" r="2.0" fill="#ffffff" opacity="0.6850918149423568"/>
<rect x="42" y="1030" width="666" height="160" rx="30" fill="#ffffffd9" stroke="#1E1B2E" stroke-width="4" opacity="0.95"/>
<text x="375.0" y="1104" font-family="ui-sans-serif, system-ui, -apple-system, Segoe UI, Roboto, Helvetica, Arial" font-size="46" font-weight="900" text-anchor="middle" fill="#1E1B2E" opacity="0.98">8 of Pentacles</text>
<text x="375.0" y="1152" font-family="ui-sans-serif, system-ui, -apple-system, Segoe UI, Roboto, Helvetica, Arial" font-size="28" font-weight="700" text-anchor="middle" fill="#1E1B2E" opacity="0.7">Motion</text>

    <g opacity="0.55">
      <circle cx="127" cy="1176" r="14" fill="#2EC4B6"/>
      <circle cx="623" cy="1176" r="14" fill="#2EC4B6"/>
      <path d="M 162 1176 L 588 1176" stroke="#2EC4B6" stroke-width="4" opacity="0.45" stroke-linecap="round"/>
    </g>
    
</svg>
