<svg xmlns="http://www.w3.org/2000/svg" width="750" height="1250" viewBox="0 0 750 1250">
  <title>9 of Pentacles</title>


  <defs>
    <linearGradient id="g" x1="0" y1="0" x2="1" y2="1">
      <stop offset="0%" stop-color="#F5FFE6"/>
      <stop offset="100%" stop-color="#E6E9FF"/>
    </linearGradient>

    <!-- paper texture -->
    <filter id="paper" x="-20%" y="-20%" width="140%" height="140%">
      <feTurbulence type="fractalNoise" baseFrequency="0.014" numOctaves="3" seed="6098" result="noise"/>
      <feColorMatrix in="noise" type="matrix"
        values="1 0 0 0 0
                0 1 0 0 0
                0 0 1 0 0
                0 0 0 0.25 0" result="noiseAlpha"/>
      <feComposite in="noiseAlpha" in2="SourceGraphic" operator="over"/>
    </filter>

    <!-- soft glow -->
    <filter id="glow" x="-30%" y="-30%" width="160%" height="160%">
      <feGaussianBlur stdDeviation="10" result="blur"/>
      <feColorMatrix type="matrix" values="
        1 0 0 0 0
        0 1 0 0 0
        0 0 1 0 0
        0 0 0 0.32 0" result="blurAlpha"/>
      <feMerge>
        <feMergeNode in="blurAlpha"/>
        <feMergeNode in="SourceGraphic"/>
      </feMerge>
    </filter>
  </defs>

<rect x="0" y="0" width="750" height="1250" rx="58" ry="58" fill="url(#g)" stroke="none" stroke-width="0" opacity="1"/>
<rect x="0" y="0" width="750" height="1250" fill="#ffffff" opacity="0.08"/>
<line x1="109.8" y1="861.8" x2="575.4" y2="69.5" stroke="#ffffff" stroke-width="2.2" opacity="0.09"/>
<line x1="575.4" y1="69.5" x2="653.2" y2="1165.8" stroke="#ffffff" stroke-width="2.2" opacity="0.12"/>
<line x1="653.2" y1="1165.8" x2="420.2" y2="687.4" stroke="#ffffff" stroke-width="2.2" opacity="0.21"/>
<line x1="420.2" y1="687.4" x2="366.5" y2="615.2" stroke="#ffffff" stroke-width="2.2" opacity="0.11"/>
<line x1="366.5" y1="615.2" x2="646.6" y2="841.2" stroke="#ffffff" stroke-width="2.2" opacity="0.14"/>
<line x1="646.6" y1="841.2" x2="178.6" y2="285.7" stroke="#ffffff" stroke-width="2.2" opacity="0.20"/>
<line x1="178.6" y1="285.7" x2="202.6" y2="819.6" stroke="#ffffff" stroke-width="2.2" opacity="0.09"/>
<line x1="202.6" y1="819.6" x2="474.7" y2="124.0" stroke="#ffffff" stroke-width="2.2" opacity="0.21"/>
<line x1="474.7" y1="124.0" x2="233.5" y2="770.0" stroke="#ffffff" stroke-width="2.2" opacity="0.19"/>
<line x1="233.5" y1="770.0" x2="547.4" y2="1056.8" stroke="#ffffff" stroke-width="2.2" opacity="0.16"/>
<line x1="547.4" y1="1056.8" x2="159.8" y2="477.8" stroke="#ffffff" stroke-width="2.2" opacity="0.08"/>
<line x1="159.8" y1="477.8" x2="549.7" y2="650.9" stroke="#ffffff" stroke-width="2.2" opacity="0.09"/>
<line x1="549.7" y1="650.9" x2="68.4" y2="249.8" stroke="#ffffff" stroke-width="2.2" opacity="0.13"/>
<line x1="68.4" y1="249.8" x2="614.4" y2="508.0" stroke="#ffffff" stroke-width="2.2" opacity="0.11"/>
<line x1="614.4" y1="508.0" x2="122.0" y2="748.7" stroke="#ffffff" stroke-width="2.2" opacity="0.17"/>
<line x1="122.0" y1="748.7" x2="64.7" y2="1006.4" stroke="#ffffff" stroke-width="2.2" opacity="0.13"/>
<line x1="64.7" y1="1006.4" x2="625.2" y2="1059.5" stroke="#ffffff" stroke-width="2.2" opacity="0.11"/>
<line x1="625.2" y1="1059.5" x2="241.9" y2="641.2" stroke="#ffffff" stroke-width="2.2" opacity="0.20"/>
<circle cx="366.5" cy="615.2" r="4.4" fill="#ffffff" opacity="0.28813475094270263"/>
<circle cx="194.4" cy="1130.5" r="2.5" fill="#ffffff" opacity="0.3979315667419906"/>
<circle cx="413.8" cy="449.3" r="4.7" fill="#ffffff" opacity="0.5071299711897082"/>
<circle cx="420.2" cy="687.4" r="4.6" fill="#ffffff" opacity="0.7568436115572452"/>
<circle cx="573.0" cy="458.9" r="2.8" fill="#ffffff" opacity="0.8266521593673801"/>
<circle cx="68.4" cy="249.8" r="4.4" fill="#ffffff" opacity="0.6312648321637"/>
<circle cx="549.7" cy="650.9" r="4.8" fill="#ffffff" opacity="0.41450657811537567"/>
<circle cx="504.8" cy="873.9" r="3.3" fill="#ffffff" opacity="0.3184953544425415"/>
<circle cx="547.4" cy="1056.8" r="4.6" fill="#ffffff" opacity="0.46493297968397485"/>
<circle cx="64.7" cy="1006.4" r="4.5" fill="#ffffff" opacity="0.4673368231431144"/>
<circle cx="444.0" cy="498.3" r="4.4" fill="#ffffff" opacity="0.8426404840731241"/>
<circle cx="601.3" cy="714.8" r="3.5" fill="#ffffff" opacity="0.6114324579295651"/>
<circle cx="352.7" cy="260.5" r="3.6" fill="#ffffff" opacity="0.6018198027496834"/>
<circle cx="625.2" cy="1059.5" r="4.1" fill="#ffffff" opacity="0.3469219963337332"/>
<circle cx="374.0" cy="863.2" r="2.2" fill="#ffffff" opacity="0.8361469337196474"/>
<circle cx="646.6" cy="841.2" r="3.6" fill="#ffffff" opacity="0.43845963290727386"/>
<circle cx="639.8" cy="414.8" r="3.0" fill="#ffffff" opacity="0.6642401925027723"/>
<circle cx="665.8" cy="1127.4" r="3.2" fill="#ffffff" opacity="0.3475288236426087"/>
<circle cx="186.0" cy="717.0" r="3.9" fill="#ffffff" opacity="0.5198825118729326"/>
<circle cx="653.2" cy="1165.8" r="4.7" fill="#ffffff" opacity="0.2753538012915257"/>
<circle cx="135.4" cy="719.1" r="2.2" fill="#ffffff" opacity="0.3639612124890158"/>
<circle cx="122.0" cy="748.7" r="2.8" fill="#ffffff" opacity="0.4794281751279598"/>
<circle cx="614.4" cy="508.0" r="2.7" fill="#ffffff" opacity="0.37336400526460245"/>
<circle cx="233.4" cy="852.0" r="4.2" fill="#ffffff" opacity="0.352354262681188"/>
<circle cx="292.5" cy="352.9" r="2.9" fill="#ffffff" opacity="0.5457937550587291"/>
<circle cx="153.6" cy="505.1" r="2.8" fill="#ffffff" opacity="0.6018784317752771"/>
<circle cx="705.3" cy="1056.9" r="3.5" fill="#ffffff" opacity="0.7892651061645168"/>
<circle cx="241.9" cy="641.2" r="3.1" fill="#ffffff" opacity="0.5252062561916722"/>
<circle cx="409.6" cy="800.2" r="3.0" fill="#ffffff" opacity="0.6010599342144625"/>
<circle cx="562.4" cy="521.8" r="2.6" fill="#ffffff" opacity="0.5917638057626917"/>
<circle cx="202.6" cy="819.6" r="3.2" fill="#ffffff" opacity="0.6235447589691674"/>
<circle cx="320.6" cy="186.2" r="3.0" fill="#ffffff" opacity="0.32224341549390273"/>
<circle cx="128.8" cy="589.6" r="4.4" fill="#ffffff" opacity="0.46554715421625803"/>
<circle cx="691.2" cy="748.2" r="4.7" fill="#ffffff" opacity="0.7745232805782485"/>
<circle cx="619.2" cy="934.8" r="4.6" fill="#ffffff" opacity="0.4267851453485813"/>
<circle cx="560.0" cy="658.0" r="3.4" fill="#ffffff" opacity="0.3354503807809684"/>
<circle cx="159.8" cy="477.8" r="2.9" fill="#ffffff" opacity="0.8294645613488821"/>
<circle cx="162.6" cy="780.6" r="4.6" fill="#ffffff" opacity="0.39980671781440236"/>
<circle cx="179.9" cy="1174.4" r="4.4" fill="#ffffff" opacity="0.5682511773840959"/>
<circle cx="474.7" cy="124.0" r="2.4" fill="#ffffff" opacity="0.805847373157171"/>
<circle cx="178.6" cy="285.7" r="2.0" fill="#ffffff" opacity="0.3152100425361059"/>
<circle cx="233.5" cy="770.0" r="2.9" fill="#ffffff" opacity="0.6558960844547852"/>
<circle cx="592.1" cy="432.7" r="3.1" fill="#ffffff" opacity="0.6695966732065199"/>
<circle cx="669.8" cy="843.8" r="3.2" fill="#ffffff" opacity="0.8161695453204892"/>
<circle cx="495.2" cy="508.4" r="3.8" fill="#ffffff" opacity="0.6658999744731606"/>
<circle cx="444.0" cy="143.7" r="1.7" fill="#ffffff" opacity="0.3640633639855729"/>
<circle cx="575.4" cy="69.5" r="2.5" fill="#ffffff" opacity="0.31498000576094076"/>
<circle cx="109.8" cy="861.8" r="2.7" fill="#ffffff" opacity="0.7757239530506563"/>
<circle cx="293.6" cy="905.2" r="2.7" fill="#ffffff" opacity="0.5241870456420796"/>
<circle cx="186.1" cy="1203.2" r="4.2" fill="#ffffff" opacity="0.65886555461628"/>
<g filter="url(#paper)"><rect x="42" y="42" width="666" height="1166" rx="54" ry="54" fill="none" stroke="#1E1B2E" stroke-width="8" opacity="0.95"/>
<rect x="60" y="60" width="630" height="1130" rx="46" ry="46" fill="none" stroke="#2EC4B6" stroke-width="3" opacity="0.35"/>

  <g opacity="0.42">
    <circle cx="375.0" cy="560" r="285" fill="none" stroke="#2EC4B6" stroke-width="4.2" opacity="0.42"/>
    <circle cx="375.0" cy="560" r="233.7" fill="none" stroke="#2EC4B6" stroke-width="2.2" opacity="0.23"/>
    <line x1="642.0" y1="560.0" x2="674.0" y2="560.0" stroke="#2EC4B6" stroke-width="3.2" opacity="0.23" stroke-linecap="round"/><line x1="606.2" y1="693.5" x2="633.9" y2="709.5" stroke="#2EC4B6" stroke-width="3.2" opacity="0.23" stroke-linecap="round"/><line x1="508.5" y1="791.2" x2="524.5" y2="818.9" stroke="#2EC4B6" stroke-width="3.2" opacity="0.23" stroke-linecap="round"/><line x1="375.0" y1="827.0" x2="375.0" y2="859.0" stroke="#2EC4B6" stroke-width="3.2" opacity="0.23" stroke-linecap="round"/><line x1="241.5" y1="791.2" x2="225.5" y2="818.9" stroke="#2EC4B6" stroke-width="3.2" opacity="0.23" stroke-linecap="round"/><line x1="143.8" y1="693.5" x2="116.1" y2="709.5" stroke="#2EC4B6" stroke-width="3.2" opacity="0.23" stroke-linecap="round"/><line x1="108.0" y1="560.0" x2="76.0" y2="560.0" stroke="#2EC4B6" stroke-width="3.2" opacity="0.23" stroke-linecap="round"/><line x1="143.8" y1="426.5" x2="116.1" y2="410.5" stroke="#2EC4B6" stroke-width="3.2" opacity="0.23" stroke-linecap="round"/><line x1="241.5" y1="328.8" x2="225.5" y2="301.1" stroke="#2EC4B6" stroke-width="3.2" opacity="0.23" stroke-linecap="round"/><line x1="375.0" y1="293.0" x2="375.0" y2="261.0" stroke="#2EC4B6" stroke-width="3.2" opacity="0.23" stroke-linecap="round"/><line x1="508.5" y1="328.8" x2="524.5" y2="301.1" stroke="#2EC4B6" stroke-width="3.2" opacity="0.23" stroke-linecap="round"/><line x1="606.2" y1="426.5" x2="633.9" y2="410.5" stroke="#2EC4B6" stroke-width="3.2" opacity="0.23" stroke-linecap="round"/>
    <circle cx="660.0" cy="556.1" r="3.5" fill="#2EC4B6" opacity="0.29"/><circle cx="649.2" cy="637.5" r="3.2" fill="#2EC4B6" opacity="0.38"/><circle cx="617.1" cy="710.4" r="3.3" fill="#2EC4B6" opacity="0.25"/><circle cx="580.0" cy="758.0" r="3.9" fill="#2EC4B6" opacity="0.33"/><circle cx="513.3" cy="809.2" r="3.3" fill="#2EC4B6" opacity="0.38"/><circle cx="444.2" cy="836.5" r="2.6" fill="#2EC4B6" opacity="0.30"/><circle cx="381.3" cy="844.9" r="3.2" fill="#2EC4B6" opacity="0.36"/><circle cx="300.7" cy="835.2" r="3.9" fill="#2EC4B6" opacity="0.23"/><circle cx="228.2" cy="804.3" r="3.8" fill="#2EC4B6" opacity="0.42"/><circle cx="170.9" cy="758.9" r="2.8" fill="#2EC4B6" opacity="0.20"/><circle cx="129.8" cy="705.3" r="3.2" fill="#2EC4B6" opacity="0.18"/><circle cx="99.3" cy="632.4" r="3.6" fill="#2EC4B6" opacity="0.28"/><circle cx="90.1" cy="568.9" r="3.1" fill="#2EC4B6" opacity="0.35"/><circle cx="98.3" cy="491.9" r="3.8" fill="#2EC4B6" opacity="0.43"/><circle cx="129.4" cy="415.4" r="3.1" fill="#2EC4B6" opacity="0.25"/><circle cx="178.3" cy="353.8" r="3.7" fill="#2EC4B6" opacity="0.39"/><circle cx="233.9" cy="312.4" r="3.2" fill="#2EC4B6" opacity="0.23"/><circle cx="304.6" cy="283.8" r="3.0" fill="#2EC4B6" opacity="0.41"/><circle cx="370.6" cy="275.0" r="2.8" fill="#2EC4B6" opacity="0.29"/><circle cx="449.6" cy="284.9" r="3.7" fill="#2EC4B6" opacity="0.39"/><circle cx="514.9" cy="311.7" r="3.5" fill="#2EC4B6" opacity="0.40"/><circle cx="571.2" cy="353.2" r="3.6" fill="#2EC4B6" opacity="0.36"/><circle cx="622.8" cy="419.2" r="3.4" fill="#2EC4B6" opacity="0.38"/><circle cx="651.3" cy="490.1" r="3.9" fill="#2EC4B6" opacity="0.29"/>
  </g>

<g><g transform="translate(50,54)"><path d="M 14.4 117.0 C 54.0 14.4, 126.0 14.4, 165.6 117.0" fill="none" stroke="#2EC4B6" stroke-width="6" opacity="0.55" stroke-linecap="round"/></g><g transform="translate(700,54) scale(-1,1)"><path d="M 14.4 117.0 C 54.0 14.4, 126.0 14.4, 165.6 117.0" fill="none" stroke="#2EC4B6" stroke-width="6" opacity="0.55" stroke-linecap="round"/></g><g transform="translate(50,1196) scale(1,-1)"><path d="M 14.4 117.0 C 54.0 14.4, 126.0 14.4, 165.6 117.0" fill="none" stroke="#2EC4B6" stroke-width="6" opacity="0.55" stroke-linecap="round"/></g><g transform="translate(700,1196) scale(-1,-1)"><path d="M 14.4 117.0 C 54.0 14.4, 126.0 14.4, 165.6 117.0" fill="none" stroke="#2EC4B6" stroke-width="6" opacity="0.55" stroke-linecap="round"/></g></g></g>
<rect x="42" y="60" width="666" height="92" rx="30" fill="#ffffffcc" stroke="#1E1B2E" stroke-width="4" opacity="0.95"/>
<text x="375.0" y="122" font-family="ui-sans-serif, system-ui, -apple-system, Segoe UI, Roboto, Helvetica, Arial" font-size="30" font-weight="800" text-anchor="middle" fill="#1E1B2E" opacity="0.95" letter-spacing="1">MINOR ARCANA • PENTACLES</text>
<rect x="76" y="170" width="598" height="760" rx="52" fill="#ffffff" opacity="0.15"/>
<g><circle cx="101.7" cy="242.4" r="2.4" fill="#2EC4B6" opacity="0.07"/><circle cx="371.5" cy="900.3" r="2.3" fill="#2EC4B6" opacity="0.07"/><circle cx="303.4" cy="268.3" r="2.4" fill="#2EC4B6" opacity="0.07"/><circle cx="256.3" cy="764.3" r="2.9" fill="#2EC4B6" opacity="0.07"/><circle cx="228.1" cy="427.1" r="2.4" fill="#2EC4B6" opacity="0.07"/><circle cx="589.3" cy="814.2" r="2.6" fill="#2EC4B6" opacity="0.07"/><circle cx="467.1" cy="335.4" r="1.9" fill="#2EC4B6" opacity="0.07"/><circle cx="452.6" cy="664.5" r="3.0" fill="#2EC4B6" opacity="0.07"/><circle cx="444.8" cy="695.7" r="3.2" fill="#2EC4B6" opacity="0.07"/><circle cx="84.6" cy="563.7" r="2.4" fill="#2EC4B6" opacity="0.07"/><circle cx="627.3" cy="419.8" r="1.9" fill="#2EC4B6" opacity="0.07"/><circle cx="621.1" cy="469.2" r="2.1" fill="#2EC4B6" opacity="0.07"/><circle cx="153.3" cy="232.9" r="2.6" fill="#2EC4B6" opacity="0.07"/><circle cx="649.3" cy="218.8" r="2.4" fill="#2EC4B6" opacity="0.07"/><circle cx="44.3" cy="648.8" r="2.6" fill="#2EC4B6" opacity="0.07"/><circle cx="572.9" cy="309.7" r="2.6" fill="#2EC4B6" opacity="0.07"/><circle cx="295.4" cy="642.2" r="2.7" fill="#2EC4B6" opacity="0.07"/><circle cx="106.2" cy="375.0" r="2.1" fill="#2EC4B6" opacity="0.07"/><circle cx="116.8" cy="747.3" r="2.2" fill="#2EC4B6" opacity="0.07"/><circle cx="530.7" cy="209.0" r="1.6" fill="#2EC4B6" opacity="0.07"/><circle cx="672.9" cy="658.2" r="2.6" fill="#2EC4B6" opacity="0.07"/><circle cx="290.6" cy="240.7" r="2.6" fill="#2EC4B6" opacity="0.07"/><circle cx="175.5" cy="276.4" r="2.9" fill="#2EC4B6" opacity="0.07"/><circle cx="693.0" cy="605.9" r="2.2" fill="#2EC4B6" opacity="0.07"/><circle cx="405.5" cy="398.7" r="3.1" fill="#2EC4B6" opacity="0.07"/><circle cx="202.7" cy="456.2" r="2.9" fill="#2EC4B6" opacity="0.07"/><circle cx="690.8" cy="293.2" r="2.0" fill="#2EC4B6" opacity="0.07"/><circle cx="198.0" cy="598.7" r="2.0" fill="#2EC4B6" opacity="0.07"/><circle cx="95.2" cy="832.2" r="1.6" fill="#2EC4B6" opacity="0.07"/><circle cx="443.4" cy="291.2" r="1.8" fill="#2EC4B6" opacity="0.07"/><circle cx="333.4" cy="196.2" r="1.8" fill="#2EC4B6" opacity="0.07"/><circle cx="117.6" cy="806.9" r="1.8" fill="#2EC4B6" opacity="0.07"/><circle cx="260.6" cy="544.4" r="2.2" fill="#2EC4B6" opacity="0.07"/><circle cx="675.3" cy="691.5" r="2.6" fill="#2EC4B6" opacity="0.07"/><circle cx="577.7" cy="238.8" r="1.6" fill="#2EC4B6" opacity="0.07"/><circle cx="433.0" cy="609.4" r="2.5" fill="#2EC4B6" opacity="0.07"/><circle cx="270.5" cy="454.5" r="1.6" fill="#2EC4B6" opacity="0.07"/><circle cx="625.6" cy="219.0" r="3.2" fill="#2EC4B6" opacity="0.07"/><circle cx="241.8" cy="225.4" r="2.8" fill="#2EC4B6" opacity="0.07"/><circle cx="536.1" cy="765.2" r="2.4" fill="#2EC4B6" opacity="0.07"/><circle cx="692.4" cy="895.3" r="2.4" fill="#2EC4B6" opacity="0.07"/><circle cx="392.0" cy="630.3" r="3.1" fill="#2EC4B6" opacity="0.07"/><circle cx="576.8" cy="783.1" r="2.0" fill="#2EC4B6" opacity="0.07"/><circle cx="515.7" cy="636.4" r="1.6" fill="#2EC4B6" opacity="0.07"/><circle cx="606.6" cy="858.3" r="2.4" fill="#2EC4B6" opacity="0.07"/><circle cx="86.7" cy="488.9" r="3.1" fill="#2EC4B6" opacity="0.07"/><circle cx="212.2" cy="593.2" r="2.9" fill="#2EC4B6" opacity="0.07"/><circle cx="605.4" cy="341.3" r="2.2" fill="#2EC4B6" opacity="0.07"/><circle cx="348.0" cy="303.2" r="2.4" fill="#2EC4B6" opacity="0.07"/><circle cx="184.1" cy="532.7" r="2.4" fill="#2EC4B6" opacity="0.07"/><circle cx="204.2" cy="273.7" r="1.6" fill="#2EC4B6" opacity="0.07"/><circle cx="323.4" cy="419.5" r="2.3" fill="#2EC4B6" opacity="0.07"/><circle cx="78.0" cy="359.1" r="2.6" fill="#2EC4B6" opacity="0.07"/><circle cx="158.6" cy="265.9" r="2.7" fill="#2EC4B6" opacity="0.07"/><circle cx="302.8" cy="801.3" r="1.6" fill="#2EC4B6" opacity="0.07"/><circle cx="320.6" cy="688.9" r="1.8" fill="#2EC4B6" opacity="0.07"/><circle cx="563.7" cy="666.5" r="1.7" fill="#2EC4B6" opacity="0.07"/><circle cx="73.8" cy="722.5" r="3.0" fill="#2EC4B6" opacity="0.07"/><circle cx="573.6" cy="541.6" r="1.6" fill="#2EC4B6" opacity="0.07"/><circle cx="644.9" cy="841.9" r="2.6" fill="#2EC4B6" opacity="0.07"/><circle cx="267.2" cy="659.0" r="2.1" fill="#2EC4B6" opacity="0.07"/><circle cx="207.5" cy="697.0" r="3.1" fill="#2EC4B6" opacity="0.07"/><circle cx="369.0" cy="480.9" r="1.9" fill="#2EC4B6" opacity="0.07"/><circle cx="533.4" cy="874.2" r="2.7" fill="#2EC4B6" opacity="0.07"/><circle cx="235.1" cy="695.9" r="3.1" fill="#2EC4B6" opacity="0.07"/><circle cx="397.0" cy="875.7" r="3.1" fill="#2EC4B6" opacity="0.07"/><circle cx="660.5" cy="766.9" r="1.5" fill="#2EC4B6" opacity="0.07"/><circle cx="342.9" cy="857.3" r="1.7" fill="#2EC4B6" opacity="0.07"/><circle cx="48.4" cy="460.7" r="2.7" fill="#2EC4B6" opacity="0.07"/><circle cx="171.0" cy="799.9" r="2.5" fill="#2EC4B6" opacity="0.07"/><circle cx="173.6" cy="509.9" r="2.3" fill="#2EC4B6" opacity="0.07"/><circle cx="151.9" cy="286.6" r="3.2" fill="#2EC4B6" opacity="0.07"/><circle cx="545.6" cy="882.8" r="2.4" fill="#2EC4B6" opacity="0.07"/><circle cx="308.9" cy="702.4" r="1.5" fill="#2EC4B6" opacity="0.07"/><circle cx="508.4" cy="876.3" r="2.3" fill="#2EC4B6" opacity="0.07"/><circle cx="493.4" cy="734.4" r="2.9" fill="#2EC4B6" opacity="0.07"/><circle cx="575.9" cy="781.0" r="2.5" fill="#2EC4B6" opacity="0.07"/><circle cx="542.1" cy="301.8" r="2.4" fill="#2EC4B6" opacity="0.07"/><circle cx="543.3" cy="347.8" r="2.7" fill="#2EC4B6" opacity="0.07"/><circle cx="102.1" cy="618.1" r="2.9" fill="#2EC4B6" opacity="0.07"/><circle cx="404.1" cy="832.8" r="1.9" fill="#2EC4B6" opacity="0.07"/><circle cx="612.5" cy="419.5" r="2.9" fill="#2EC4B6" opacity="0.07"/><circle cx="364.7" cy="638.8" r="2.7" fill="#2EC4B6" opacity="0.07"/><circle cx="622.7" cy="674.5" r="2.4" fill="#2EC4B6" opacity="0.07"/><circle cx="706.7" cy="290.9" r="2.1" fill="#2EC4B6" opacity="0.07"/><circle cx="535.3" cy="787.3" r="1.9" fill="#2EC4B6" opacity="0.07"/><circle cx="311.2" cy="326.7" r="2.9" fill="#2EC4B6" opacity="0.07"/><circle cx="695.9" cy="810.4" r="1.9" fill="#2EC4B6" opacity="0.07"/><circle cx="526.4" cy="676.9" r="2.5" fill="#2EC4B6" opacity="0.07"/><circle cx="387.8" cy="542.9" r="2.1" fill="#2EC4B6" opacity="0.07"/><circle cx="332.3" cy="327.3" r="2.0" fill="#2EC4B6" opacity="0.07"/><circle cx="659.1" cy="218.2" r="2.1" fill="#2EC4B6" opacity="0.07"/><circle cx="546.2" cy="839.3" r="2.9" fill="#2EC4B6" opacity="0.07"/><circle cx="521.5" cy="837.3" r="2.1" fill="#2EC4B6" opacity="0.07"/><circle cx="413.4" cy="488.0" r="2.9" fill="#2EC4B6" opacity="0.07"/><circle cx="44.2" cy="761.7" r="2.7" fill="#2EC4B6" opacity="0.07"/><circle cx="48.8" cy="694.8" r="2.3" fill="#2EC4B6" opacity="0.07"/><circle cx="476.1" cy="581.6" r="1.6" fill="#2EC4B6" opacity="0.07"/><circle cx="334.0" cy="891.6" r="2.6" fill="#2EC4B6" opacity="0.07"/><circle cx="55.6" cy="511.5" r="2.3" fill="#2EC4B6" opacity="0.07"/><circle cx="487.4" cy="576.7" r="1.7" fill="#2EC4B6" opacity="0.07"/><circle cx="288.3" cy="886.9" r="2.7" fill="#2EC4B6" opacity="0.07"/><circle cx="457.3" cy="655.0" r="2.8" fill="#2EC4B6" opacity="0.07"/><circle cx="355.1" cy="565.7" r="2.3" fill="#2EC4B6" opacity="0.07"/><circle cx="366.9" cy="897.4" r="3.2" fill="#2EC4B6" opacity="0.07"/><circle cx="152.3" cy="305.8" r="3.0" fill="#2EC4B6" opacity="0.07"/><circle cx="580.1" cy="355.4" r="2.0" fill="#2EC4B6" opacity="0.07"/><circle cx="448.8" cy="481.3" r="2.9" fill="#2EC4B6" opacity="0.07"/><circle cx="386.6" cy="427.7" r="2.7" fill="#2EC4B6" opacity="0.07"/><circle cx="316.0" cy="279.7" r="2.4" fill="#2EC4B6" opacity="0.07"/></g><g><g opacity="0.55">
    <g>
      <circle cx="383.77475161848963" cy="400.1540399885685" r="44.8" fill="#ffffff" opacity="0.75" stroke="#1E1B2E" stroke-width="7"/>
      <circle cx="383.77475161848963" cy="400.1540399885685" r="33.0" fill="none" stroke="#2EC4B6" stroke-width="6" opacity="0.45"/>
      <polygon points="383.77,358.15 393.98,386.11 423.72,387.18 400.29,405.52 408.46,434.13 383.77,417.51 359.09,434.13 367.26,405.52 343.83,387.18 373.57,386.11" fill="none" stroke="#1E1B2E" stroke-width="8" stroke-linejoin="round" opacity="0.95"/>
      <circle cx="383.77475161848963" cy="400.1540399885685" r="5.0" fill="#2EC4B6" opacity="0.55"/>
      <path d="M 357.2 419.8 Q 383.77475161848963 443.6 410.4 419.8" fill="none" stroke="#2EC4B6" stroke-width="7" opacity="0.35" stroke-linecap="round"/>
    </g>
    </g><g opacity="0.55">
    <g>
      <circle cx="545.8151066354474" cy="467.45630839407033" r="44.8" fill="#ffffff" opacity="0.75" stroke="#1E1B2E" stroke-width="7"/>
      <circle cx="545.8151066354474" cy="467.45630839407033" r="33.0" fill="none" stroke="#2EC4B6" stroke-width="6" opacity="0.45"/>
      <polygon points="545.82,425.46 556.02,453.41 585.76,454.48 562.33,472.82 570.50,501.44 545.82,484.82 521.13,501.44 529.30,472.82 505.87,454.48 535.61,453.41" fill="none" stroke="#1E1B2E" stroke-width="8" stroke-linejoin="round" opacity="0.95"/>
      <circle cx="545.8151066354474" cy="467.45630839407033" r="5.0" fill="#2EC4B6" opacity="0.55"/>
      <path d="M 519.2 487.1 Q 545.8151066354474 510.9 572.4 487.1" fill="none" stroke="#2EC4B6" stroke-width="7" opacity="0.35" stroke-linecap="round"/>
    </g>
    </g><g opacity="0.55">
    <g>
      <circle cx="617.6225556966016" cy="589.714881875794" r="44.8" fill="#ffffff" opacity="0.75" stroke="#1E1B2E" stroke-width="7"/>
      <circle cx="617.6225556966016" cy="589.714881875794" r="33.0" fill="none" stroke="#2EC4B6" stroke-width="6" opacity="0.45"/>
      <polygon points="617.62,547.71 627.83,575.67 657.57,576.74 634.13,595.08 642.31,623.69 617.62,607.07 592.94,623.69 601.11,595.08 577.68,576.74 607.42,575.67" fill="none" stroke="#1E1B2E" stroke-width="8" stroke-linejoin="round" opacity="0.95"/>
      <circle cx="617.6225556966016" cy="589.714881875794" r="5.0" fill="#2EC4B6" opacity="0.55"/>
      <path d="M 591.0 609.3 Q 617.6225556966016 633.1 644.2 609.3" fill="none" stroke="#2EC4B6" stroke-width="7" opacity="0.35" stroke-linecap="round"/>
    </g>
    </g><g opacity="0.55">
    <g>
      <circle cx="580.3734018061696" cy="792.5544311151416" r="44.8" fill="#ffffff" opacity="0.75" stroke="#1E1B2E" stroke-width="7"/>
      <circle cx="580.3734018061696" cy="792.5544311151416" r="33.0" fill="none" stroke="#2EC4B6" stroke-width="6" opacity="0.45"/>
      <polygon points="580.37,750.55 590.58,778.51 620.32,779.58 596.88,797.92 605.06,826.53 580.37,809.91 555.69,826.53 563.86,797.92 540.43,779.58 570.17,778.51" fill="none" stroke="#1E1B2E" stroke-width="8" stroke-linejoin="round" opacity="0.95"/>
      <circle cx="580.3734018061696" cy="792.5544311151416" r="5.0" fill="#2EC4B6" opacity="0.55"/>
      <path d="M 553.8 812.2 Q 580.3734018061696 836.0 607.0 812.2" fill="none" stroke="#2EC4B6" stroke-width="7" opacity="0.35" stroke-linecap="round"/>
    </g>
    </g><g opacity="0.55">
    <g>
      <circle cx="479.050401749053" cy="877.3180896802115" r="44.8" fill="#ffffff" opacity="0.75" stroke="#1E1B2E" stroke-width="7"/>
      <circle cx="479.050401749053" cy="877.3180896802115" r="33.0" fill="none" stroke="#2EC4B6" stroke-width="6" opacity="0.45"/>
      <polygon points="479.05,835.32 489.25,863.27 518.99,864.34 495.56,882.68 503.74,911.30 479.05,894.68 454.36,911.30 462.54,882.68 439.11,864.34 468.85,863.27" fill="none" stroke="#1E1B2E" stroke-width="8" stroke-linejoin="round" opacity="0.95"/>
      <circle cx="479.050401749053" cy="877.3180896802115" r="5.0" fill="#2EC4B6" opacity="0.55"/>
      <path d="M 452.5 896.9 Q 479.050401749053 920.7 505.7 896.9" fill="none" stroke="#2EC4B6" stroke-width="7" opacity="0.35" stroke-linecap="round"/>
    </g>
    </g><g opacity="0.55">
    <g>
      <circle cx="301.7832890389671" cy="889.0383091390344" r="44.8" fill="#ffffff" opacity="0.75" stroke="#1E1B2E" stroke-width="7"/>
      <circle cx="301.7832890389671" cy="889.0383091390344" r="33.0" fill="none" stroke="#2EC4B6" stroke-width="6" opacity="0.45"/>
      <polygon points="301.78,847.04 311.99,874.99 341.73,876.06 318.29,894.40 326.47,923.02 301.78,906.40 277.10,923.02 285.27,894.40 261.84,876.06 291.58,874.99" fill="none" stroke="#1E1B2E" stroke-width="8" stroke-linejoin="round" opacity="0.95"/>
      <circle cx="301.7832890389671" cy="889.0383091390344" r="5.0" fill="#2EC4B6" opacity="0.55"/>
      <path d="M 275.2 908.6 Q 301.7832890389671 932.4 328.4 908.6" fill="none" stroke="#2EC4B6" stroke-width="7" opacity="0.35" stroke-linecap="round"/>
    </g>
    </g><g opacity="0.55">
    <g>
      <circle cx="162.966900576361" cy="782.4460824215092" r="44.8" fill="#ffffff" opacity="0.75" stroke="#1E1B2E" stroke-width="7"/>
      <circle cx="162.966900576361" cy="782.4460824215092" r="33.0" fill="none" stroke="#2EC4B6" stroke-width="6" opacity="0.45"/>
      <polygon points="162.97,740.45 173.17,768.40 202.91,769.47 179.48,787.81 187.65,816.42 162.97,799.81 138.28,816.42 146.46,787.81 123.02,769.47 152.76,768.40" fill="none" stroke="#1E1B2E" stroke-width="8" stroke-linejoin="round" opacity="0.95"/>
      <circle cx="162.966900576361" cy="782.4460824215092" r="5.0" fill="#2EC4B6" opacity="0.55"/>
      <path d="M 136.4 802.0 Q 162.966900576361 825.8 189.6 802.0" fill="none" stroke="#2EC4B6" stroke-width="7" opacity="0.35" stroke-linecap="round"/>
    </g>
    </g><g opacity="0.55">
    <g>
      <circle cx="127.63253017054524" cy="613.8152674436609" r="44.8" fill="#ffffff" opacity="0.75" stroke="#1E1B2E" stroke-width="7"/>
      <circle cx="127.63253017054524" cy="613.8152674436609" r="33.0" fill="none" stroke="#2EC4B6" stroke-width="6" opacity="0.45"/>
      <polygon points="127.63,571.82 137.84,599.77 167.58,600.84 144.14,619.18 152.32,647.79 127.63,631.18 102.95,647.79 111.12,619.18 87.69,600.84 117.43,599.77" fill="none" stroke="#1E1B2E" stroke-width="8" stroke-linejoin="round" opacity="0.95"/>
      <circle cx="127.63253017054524" cy="613.8152674436609" r="5.0" fill="#2EC4B6" opacity="0.55"/>
      <path d="M 101.0 633.4 Q 127.63253017054524 657.2 154.2 633.4" fill="none" stroke="#2EC4B6" stroke-width="7" opacity="0.35" stroke-linecap="round"/>
    </g>
    </g><g opacity="0.55">
    <g>
      <circle cx="215.88844973102914" cy="457.1697259997675" r="44.8" fill="#ffffff" opacity="0.75" stroke="#1E1B2E" stroke-width="7"/>
      <circle cx="215.88844973102914" cy="457.1697259997675" r="33.0" fill="none" stroke="#2EC4B6" stroke-width="6" opacity="0.45"/>
      <polygon points="215.89,415.17 226.09,443.13 255.83,444.19 232.40,462.53 240.58,491.15 215.89,474.53 191.20,491.15 199.38,462.53 175.94,444.19 205.68,443.13" fill="none" stroke="#1E1B2E" stroke-width="8" stroke-linejoin="round" opacity="0.95"/>
      <circle cx="215.88844973102914" cy="457.1697259997675" r="5.0" fill="#2EC4B6" opacity="0.55"/>
      <path d="M 189.3 476.8 Q 215.88844973102914 500.6 242.5 476.8" fill="none" stroke="#2EC4B6" stroke-width="7" opacity="0.35" stroke-linecap="round"/>
    </g>
    </g></g><circle cx="375.0" cy="520" r="260" fill="#2EC4B6" opacity="0.10"/>
        <g filter="url(#glow)">
          <circle cx="375.0" cy="630" r="170" fill="#ffffff" opacity="0.40" stroke="#2EC4B6" stroke-width="7"/>
          
    <g>
      <circle cx="375.0" cy="630" r="115.2" fill="#ffffff" opacity="0.75" stroke="#1E1B2E" stroke-width="7"/>
      <circle cx="375.0" cy="630" r="85.0" fill="none" stroke="#2EC4B6" stroke-width="6" opacity="0.45"/>
      <polygon points="375.00,522.00 401.24,593.89 477.71,596.63 417.46,643.79 438.48,717.37 375.00,674.64 311.52,717.37 332.54,643.79 272.29,596.63 348.76,593.89" fill="none" stroke="#1E1B2E" stroke-width="8" stroke-linejoin="round" opacity="0.95"/>
      <circle cx="375.0" cy="630" r="13.0" fill="#2EC4B6" opacity="0.55"/>
      <path d="M 306.6 680.4 Q 375.0 741.6 443.4 680.4" fill="none" stroke="#2EC4B6" stroke-width="7" opacity="0.35" stroke-linecap="round"/>
    </g>
    
        </g>
        <line x1="225.2" y1="400.5" x2="211.9" y2="455.7" stroke="#ffffff" stroke-width="2.2" opacity="0.10"/>
<line x1="211.9" y1="455.7" x2="304.6" y2="591.8" stroke="#ffffff" stroke-width="2.2" opacity="0.14"/>
<line x1="304.6" y1="591.8" x2="390.0" y2="509.7" stroke="#ffffff" stroke-width="2.2" opacity="0.18"/>
<line x1="390.0" y1="509.7" x2="539.1" y2="688.8" stroke="#ffffff" stroke-width="2.2" opacity="0.22"/>
<line x1="539.1" y1="688.8" x2="524.4" y2="664.2" stroke="#ffffff" stroke-width="2.2" opacity="0.12"/>
<line x1="524.4" y1="664.2" x2="248.7" y2="662.5" stroke="#ffffff" stroke-width="2.2" opacity="0.10"/>
<circle cx="269.2" cy="621.9" r="4.5" fill="#ffffff" opacity="0.5228610158652056"/>
<circle cx="539.1" cy="688.8" r="3.9" fill="#ffffff" opacity="0.2786101248773404"/>
<circle cx="225.2" cy="400.5" r="2.3" fill="#ffffff" opacity="0.6402373857801004"/>
<circle cx="211.9" cy="571.5" r="2.5" fill="#ffffff" opacity="0.637345366805355"/>
<circle cx="471.4" cy="275.3" r="1.8" fill="#ffffff" opacity="0.3404702462165995"/>
<circle cx="274.8" cy="253.8" r="4.7" fill="#ffffff" opacity="0.399390064815617"/>
<circle cx="611.0" cy="640.2" r="3.4" fill="#ffffff" opacity="0.2910207666204522"/>
<circle cx="524.4" cy="664.2" r="4.0" fill="#ffffff" opacity="0.6699858677406879"/>
<circle cx="211.9" cy="455.7" r="2.5" fill="#ffffff" opacity="0.752560506707551"/>
<circle cx="295.0" cy="646.1" r="3.3" fill="#ffffff" opacity="0.6246637183228585"/>
<circle cx="304.6" cy="591.8" r="2.1" fill="#ffffff" opacity="0.4965948880479608"/>
<circle cx="285.0" cy="638.5" r="1.8" fill="#ffffff" opacity="0.4382814424254723"/>
<circle cx="390.0" cy="509.7" r="4.7" fill="#ffffff" opacity="0.7532398631904178"/>
<circle cx="248.7" cy="662.5" r="2.9" fill="#ffffff" opacity="0.8309574319952325"/>
<rect x="42" y="1030" width="666" height="160" rx="30" fill="#ffffffd9" stroke="#1E1B2E" stroke-width="4" opacity="0.95"/>
<text x="375.0" y="1104" font-family="ui-sans-serif, system-ui, -apple-system, Segoe UI, Roboto, Helvetica, Arial" font-size="46" font-weight="900" text-anchor="middle" fill="#1E1B2E" opacity="0.98">9 of Pentacles</text>
<text x="375.0" y="1152" font-family="ui-sans-serif, system-ui, -apple-system, Segoe UI, Roboto, Helvetica, Arial" font-size="28" font-weight="700" text-anchor="middle" fill="#1E1B2E" opacity="0.7">Resilience</text>

    <g opacity="0.55">
      <circle cx="127" cy="1176" r="14" fill="#2EC4B6"/>
      <circle cx="623" cy="1176" r="14" fill="#2EC4B6"/>
      <path d="M 162 1176 L 588 1176" stroke="#2EC4B6" stroke-width="4" opacity="0.45" stroke-linecap="round"/>
    </g>
    
</svg>
