<svg xmlns="http://www.w3.org/2000/svg" width="750" height="1250" viewBox="0 0 750 1250">
  <title>Page of Pentacles</title>


  <defs>
    <linearGradient id="g" x1="0" y1="0" x2="1" y2="1">
      <stop offset="0%" stop-color="#FFF3E2"/>
      <stop offset="100%" stop-color="#E4F2FF"/>
    </linearGradient>

    <!-- paper texture -->
    <filter id="paper" x="-20%" y="-20%" width="140%" height="140%">
      <feTurbulence type="fractalNoise" baseFrequency="0.014" numOctaves="3" seed="9996" result="noise"/>
      <feColorMatrix in="noise" type="matrix"
        values="1 0 0 0 0
                0 1 0 0 0
                0 0 1 0 0
                0 0 0 0.25 0" result="noiseAlpha"/>
      <feComposite in="noiseAlpha" in2="SourceGraphic" operator="over"/>
    </filter>

    <!-- soft glow -->
    <filter id="glow" x="-30%" y="-30%" width="160%" height="160%">
      <feGaussianBlur stdDeviation="10" result="blur"/>
      <feColorMatrix type="matrix" values="
        1 0 0 0 0
        0 1 0 0 0
        0 0 1 0 0
        0 0 0 0.32 0" result="blurAlpha"/>
      <feMerge>
        <feMergeNode in="blurAlpha"/>
        <feMergeNode in="SourceGraphic"/>
      </feMerge>
    </filter>
  </defs>

<rect x="0" y="0" width="750" height="1250" rx="58" ry="58" fill="url(#g)" stroke="none" stroke-width="0" opacity="1"/>
<rect x="0" y="0" width="750" height="1250" fill="#ffffff" opacity="0.08"/>
<line x1="43.1" y1="416.4" x2="239.1" y2="342.3" stroke="#ffffff" stroke-width="2.2" opacity="0.16"/>
<line x1="239.1" y1="342.3" x2="667.9" y2="851.6" stroke="#ffffff" stroke-width="2.2" opacity="0.08"/>
<line x1="667.9" y1="851.6" x2="658.3" y2="160.5" stroke="#ffffff" stroke-width="2.2" opacity="0.18"/>
<line x1="658.3" y1="160.5" x2="519.5" y2="345.8" stroke="#ffffff" stroke-width="2.2" opacity="0.10"/>
<line x1="519.5" y1="345.8" x2="532.7" y2="766.4" stroke="#ffffff" stroke-width="2.2" opacity="0.17"/>
<line x1="532.7" y1="766.4" x2="555.4" y2="1089.6" stroke="#ffffff" stroke-width="2.2" opacity="0.14"/>
<line x1="555.4" y1="1089.6" x2="263.3" y2="51.4" stroke="#ffffff" stroke-width="2.2" opacity="0.13"/>
<line x1="263.3" y1="51.4" x2="165.8" y2="148.0" stroke="#ffffff" stroke-width="2.2" opacity="0.18"/>
<line x1="165.8" y1="148.0" x2="159.6" y2="488.9" stroke="#ffffff" stroke-width="2.2" opacity="0.20"/>
<line x1="159.6" y1="488.9" x2="464.5" y2="580.3" stroke="#ffffff" stroke-width="2.2" opacity="0.15"/>
<line x1="464.5" y1="580.3" x2="145.5" y2="273.1" stroke="#ffffff" stroke-width="2.2" opacity="0.16"/>
<line x1="145.5" y1="273.1" x2="196.0" y2="234.8" stroke="#ffffff" stroke-width="2.2" opacity="0.15"/>
<line x1="196.0" y1="234.8" x2="179.2" y2="222.3" stroke="#ffffff" stroke-width="2.2" opacity="0.09"/>
<line x1="179.2" y1="222.3" x2="216.6" y2="548.4" stroke="#ffffff" stroke-width="2.2" opacity="0.19"/>
<line x1="216.6" y1="548.4" x2="336.2" y2="1111.3" stroke="#ffffff" stroke-width="2.2" opacity="0.21"/>
<line x1="336.2" y1="1111.3" x2="266.2" y2="622.1" stroke="#ffffff" stroke-width="2.2" opacity="0.20"/>
<line x1="266.2" y1="622.1" x2="123.7" y2="422.2" stroke="#ffffff" stroke-width="2.2" opacity="0.13"/>
<line x1="123.7" y1="422.2" x2="667.2" y2="1115.4" stroke="#ffffff" stroke-width="2.2" opacity="0.09"/>
<circle cx="658.3" cy="160.5" r="2.5" fill="#ffffff" opacity="0.7838687722194917"/>
<circle cx="239.1" cy="342.3" r="3.1" fill="#ffffff" opacity="0.5886575356556243"/>
<circle cx="667.9" cy="851.6" r="3.7" fill="#ffffff" opacity="0.48534536192936184"/>
<circle cx="94.7" cy="1109.6" r="3.4" fill="#ffffff" opacity="0.35080428964854454"/>
<circle cx="60.5" cy="924.2" r="2.9" fill="#ffffff" opacity="0.7476910715997032"/>
<circle cx="524.7" cy="89.3" r="2.5" fill="#ffffff" opacity="0.6650223497162643"/>
<circle cx="282.6" cy="979.8" r="3.8" fill="#ffffff" opacity="0.3064368943795463"/>
<circle cx="503.6" cy="635.7" r="4.0" fill="#ffffff" opacity="0.46692298137006905"/>
<circle cx="179.2" cy="222.3" r="2.9" fill="#ffffff" opacity="0.5609309343515609"/>
<circle cx="336.2" cy="1111.3" r="2.4" fill="#ffffff" opacity="0.3621271493832671"/>
<circle cx="421.8" cy="1159.2" r="4.4" fill="#ffffff" opacity="0.3607069251117691"/>
<circle cx="175.0" cy="629.6" r="2.0" fill="#ffffff" opacity="0.6180208124041984"/>
<circle cx="555.4" cy="110.4" r="3.9" fill="#ffffff" opacity="0.4447318764483788"/>
<circle cx="522.1" cy="769.9" r="2.5" fill="#ffffff" opacity="0.39751254897307764"/>
<circle cx="117.0" cy="725.7" r="3.6" fill="#ffffff" opacity="0.8039225718954381"/>
<circle cx="496.0" cy="772.8" r="4.6" fill="#ffffff" opacity="0.6974682154056258"/>
<circle cx="573.9" cy="451.7" r="3.2" fill="#ffffff" opacity="0.8162805221469527"/>
<circle cx="266.2" cy="622.1" r="3.8" fill="#ffffff" opacity="0.7676422569321867"/>
<circle cx="654.9" cy="663.8" r="2.2" fill="#ffffff" opacity="0.41281036830767226"/>
<circle cx="438.0" cy="421.3" r="4.1" fill="#ffffff" opacity="0.6759339289616266"/>
<circle cx="165.8" cy="148.0" r="2.1" fill="#ffffff" opacity="0.2819503798022584"/>
<circle cx="196.0" cy="234.8" r="2.4" fill="#ffffff" opacity="0.4638574176725838"/>
<circle cx="177.8" cy="59.6" r="3.0" fill="#ffffff" opacity="0.2852806317807708"/>
<circle cx="519.5" cy="345.8" r="1.7" fill="#ffffff" opacity="0.6551623528829964"/>
<circle cx="667.2" cy="1115.4" r="2.5" fill="#ffffff" opacity="0.5162142766270166"/>
<circle cx="145.9" cy="1175.7" r="1.6" fill="#ffffff" opacity="0.409153532256475"/>
<circle cx="199.7" cy="665.9" r="2.0" fill="#ffffff" opacity="0.5491916624757225"/>
<circle cx="145.5" cy="273.1" r="3.4" fill="#ffffff" opacity="0.6253338964611133"/>
<circle cx="276.3" cy="524.7" r="1.7" fill="#ffffff" opacity="0.5419487846848274"/>
<circle cx="447.5" cy="369.0" r="4.4" fill="#ffffff" opacity="0.37809770569065726"/>
<circle cx="216.6" cy="548.4" r="3.8" fill="#ffffff" opacity="0.43892318220943594"/>
<circle cx="591.8" cy="1030.6" r="3.6" fill="#ffffff" opacity="0.594359091819495"/>
<circle cx="159.6" cy="488.9" r="4.6" fill="#ffffff" opacity="0.7664487504392575"/>
<circle cx="327.0" cy="474.7" r="4.3" fill="#ffffff" opacity="0.3814618783266168"/>
<circle cx="581.1" cy="742.0" r="3.2" fill="#ffffff" opacity="0.5292647115592141"/>
<circle cx="43.1" cy="416.4" r="2.2" fill="#ffffff" opacity="0.41604819468200804"/>
<circle cx="699.6" cy="592.5" r="4.6" fill="#ffffff" opacity="0.8208206009776828"/>
<circle cx="496.0" cy="914.6" r="3.5" fill="#ffffff" opacity="0.3793918737539977"/>
<circle cx="123.7" cy="422.2" r="2.0" fill="#ffffff" opacity="0.7737236281968293"/>
<circle cx="555.4" cy="1089.6" r="2.0" fill="#ffffff" opacity="0.6996488601344513"/>
<circle cx="464.5" cy="580.3" r="2.3" fill="#ffffff" opacity="0.6868291616986445"/>
<circle cx="263.3" cy="51.4" r="2.4" fill="#ffffff" opacity="0.49011307628413825"/>
<circle cx="300.4" cy="937.6" r="1.8" fill="#ffffff" opacity="0.6487467208912922"/>
<circle cx="278.4" cy="217.4" r="3.3" fill="#ffffff" opacity="0.4114715565168525"/>
<circle cx="410.9" cy="987.8" r="4.1" fill="#ffffff" opacity="0.818037047116458"/>
<circle cx="478.0" cy="533.6" r="2.5" fill="#ffffff" opacity="0.7496864192016218"/>
<circle cx="532.7" cy="766.4" r="3.2" fill="#ffffff" opacity="0.47079621335840816"/>
<circle cx="151.6" cy="363.0" r="4.1" fill="#ffffff" opacity="0.38363003659816386"/>
<circle cx="159.2" cy="425.0" r="3.1" fill="#ffffff" opacity="0.727883128177623"/>
<circle cx="639.4" cy="1015.2" r="3.4" fill="#ffffff" opacity="0.6960107781084673"/>
<g filter="url(#paper)"><rect x="42" y="42" width="666" height="1166" rx="54" ry="54" fill="none" stroke="#1E1B2E" stroke-width="8" opacity="0.95"/>
<rect x="60" y="60" width="630" height="1130" rx="46" ry="46" fill="none" stroke="#2EC4B6" stroke-width="3" opacity="0.35"/>

  <g opacity="0.42">
    <circle cx="375.0" cy="560" r="285" fill="none" stroke="#2EC4B6" stroke-width="4.2" opacity="0.42"/>
    <circle cx="375.0" cy="560" r="233.7" fill="none" stroke="#2EC4B6" stroke-width="2.2" opacity="0.23"/>
    <line x1="642.0" y1="560.0" x2="674.0" y2="560.0" stroke="#2EC4B6" stroke-width="3.2" opacity="0.23" stroke-linecap="round"/><line x1="606.2" y1="693.5" x2="633.9" y2="709.5" stroke="#2EC4B6" stroke-width="3.2" opacity="0.23" stroke-linecap="round"/><line x1="508.5" y1="791.2" x2="524.5" y2="818.9" stroke="#2EC4B6" stroke-width="3.2" opacity="0.23" stroke-linecap="round"/><line x1="375.0" y1="827.0" x2="375.0" y2="859.0" stroke="#2EC4B6" stroke-width="3.2" opacity="0.23" stroke-linecap="round"/><line x1="241.5" y1="791.2" x2="225.5" y2="818.9" stroke="#2EC4B6" stroke-width="3.2" opacity="0.23" stroke-linecap="round"/><line x1="143.8" y1="693.5" x2="116.1" y2="709.5" stroke="#2EC4B6" stroke-width="3.2" opacity="0.23" stroke-linecap="round"/><line x1="108.0" y1="560.0" x2="76.0" y2="560.0" stroke="#2EC4B6" stroke-width="3.2" opacity="0.23" stroke-linecap="round"/><line x1="143.8" y1="426.5" x2="116.1" y2="410.5" stroke="#2EC4B6" stroke-width="3.2" opacity="0.23" stroke-linecap="round"/><line x1="241.5" y1="328.8" x2="225.5" y2="301.1" stroke="#2EC4B6" stroke-width="3.2" opacity="0.23" stroke-linecap="round"/><line x1="375.0" y1="293.0" x2="375.0" y2="261.0" stroke="#2EC4B6" stroke-width="3.2" opacity="0.23" stroke-linecap="round"/><line x1="508.5" y1="328.8" x2="524.5" y2="301.1" stroke="#2EC4B6" stroke-width="3.2" opacity="0.23" stroke-linecap="round"/><line x1="606.2" y1="426.5" x2="633.9" y2="410.5" stroke="#2EC4B6" stroke-width="3.2" opacity="0.23" stroke-linecap="round"/>
    <circle cx="660.0" cy="557.2" r="2.6" fill="#2EC4B6" opacity="0.30"/><circle cx="651.0" cy="631.1" r="2.6" fill="#2EC4B6" opacity="0.38"/><circle cx="623.8" cy="699.1" r="3.9" fill="#2EC4B6" opacity="0.32"/><circle cx="581.8" cy="756.1" r="3.2" fill="#2EC4B6" opacity="0.42"/><circle cx="515.1" cy="808.2" r="2.9" fill="#2EC4B6" opacity="0.27"/><circle cx="454.7" cy="833.6" r="3.1" fill="#2EC4B6" opacity="0.19"/><circle cx="376.8" cy="845.0" r="3.9" fill="#2EC4B6" opacity="0.35"/><circle cx="307.3" cy="836.8" r="2.7" fill="#2EC4B6" opacity="0.26"/><circle cx="231.9" cy="806.5" r="3.3" fill="#2EC4B6" opacity="0.37"/><circle cx="173.4" cy="761.4" r="2.9" fill="#2EC4B6" opacity="0.40"/><circle cx="124.8" cy="696.4" r="3.5" fill="#2EC4B6" opacity="0.27"/><circle cx="101.2" cy="639.1" r="3.3" fill="#2EC4B6" opacity="0.28"/><circle cx="90.1" cy="567.5" r="3.0" fill="#2EC4B6" opacity="0.40"/><circle cx="100.2" cy="484.5" r="3.6" fill="#2EC4B6" opacity="0.41"/><circle cx="132.2" cy="410.8" r="3.8" fill="#2EC4B6" opacity="0.41"/><circle cx="177.5" cy="354.5" r="3.0" fill="#2EC4B6" opacity="0.40"/><circle cx="230.0" cy="314.6" r="3.7" fill="#2EC4B6" opacity="0.40"/><circle cx="303.9" cy="284.0" r="3.8" fill="#2EC4B6" opacity="0.42"/><circle cx="379.7" cy="275.0" r="3.7" fill="#2EC4B6" opacity="0.37"/><circle cx="454.4" cy="286.3" r="3.7" fill="#2EC4B6" opacity="0.36"/><circle cx="516.3" cy="312.5" r="3.4" fill="#2EC4B6" opacity="0.30"/><circle cx="578.1" cy="360.1" r="3.1" fill="#2EC4B6" opacity="0.35"/><circle cx="625.9" cy="424.8" r="3.2" fill="#2EC4B6" opacity="0.34"/><circle cx="648.1" cy="478.4" r="2.8" fill="#2EC4B6" opacity="0.23"/>
  </g>

<g><g transform="translate(50,54)"><path d="M 18.0 140.4 C 39.6 63.0, 99.0 28.8, 154.8 46.8 C 126.0 86.4, 72.0 111.6, 39.6 129.6" fill="none" stroke="#2EC4B6" stroke-width="6" opacity="0.55" stroke-linecap="round"/></g><g transform="translate(700,54) scale(-1,1)"><path d="M 18.0 140.4 C 39.6 63.0, 99.0 28.8, 154.8 46.8 C 126.0 86.4, 72.0 111.6, 39.6 129.6" fill="none" stroke="#2EC4B6" stroke-width="6" opacity="0.55" stroke-linecap="round"/></g><g transform="translate(50,1196) scale(1,-1)"><path d="M 18.0 140.4 C 39.6 63.0, 99.0 28.8, 154.8 46.8 C 126.0 86.4, 72.0 111.6, 39.6 129.6" fill="none" stroke="#2EC4B6" stroke-width="6" opacity="0.55" stroke-linecap="round"/></g><g transform="translate(700,1196) scale(-1,-1)"><path d="M 18.0 140.4 C 39.6 63.0, 99.0 28.8, 154.8 46.8 C 126.0 86.4, 72.0 111.6, 39.6 129.6" fill="none" stroke="#2EC4B6" stroke-width="6" opacity="0.55" stroke-linecap="round"/></g></g></g>
<rect x="42" y="60" width="666" height="92" rx="30" fill="#ffffffcc" stroke="#1E1B2E" stroke-width="4" opacity="0.95"/>
<text x="375.0" y="122" font-family="ui-sans-serif, system-ui, -apple-system, Segoe UI, Roboto, Helvetica, Arial" font-size="30" font-weight="800" text-anchor="middle" fill="#1E1B2E" opacity="0.95" letter-spacing="1">MINOR ARCANA • PENTACLES</text>
<rect x="76" y="170" width="598" height="760" rx="52" fill="#ffffff" opacity="0.15"/>
<g><circle cx="299.6" cy="849.6" r="2.4" fill="#2EC4B6" opacity="0.07"/><circle cx="326.7" cy="263.0" r="1.9" fill="#2EC4B6" opacity="0.07"/><circle cx="448.2" cy="337.8" r="2.4" fill="#2EC4B6" opacity="0.07"/><circle cx="703.2" cy="866.4" r="1.7" fill="#2EC4B6" opacity="0.07"/><circle cx="430.5" cy="905.3" r="1.7" fill="#2EC4B6" opacity="0.07"/><circle cx="336.2" cy="606.9" r="2.2" fill="#2EC4B6" opacity="0.07"/><circle cx="270.0" cy="517.7" r="1.5" fill="#2EC4B6" opacity="0.07"/><circle cx="109.4" cy="261.4" r="1.9" fill="#2EC4B6" opacity="0.07"/><circle cx="184.4" cy="613.2" r="1.6" fill="#2EC4B6" opacity="0.07"/><circle cx="262.5" cy="505.1" r="2.7" fill="#2EC4B6" opacity="0.07"/><circle cx="686.0" cy="524.6" r="1.7" fill="#2EC4B6" opacity="0.07"/><circle cx="695.7" cy="257.2" r="1.6" fill="#2EC4B6" opacity="0.07"/><circle cx="497.5" cy="556.1" r="2.7" fill="#2EC4B6" opacity="0.07"/><circle cx="665.4" cy="526.3" r="1.6" fill="#2EC4B6" opacity="0.07"/><circle cx="428.3" cy="291.7" r="2.6" fill="#2EC4B6" opacity="0.07"/><circle cx="47.6" cy="628.2" r="1.7" fill="#2EC4B6" opacity="0.07"/><circle cx="242.3" cy="871.2" r="2.0" fill="#2EC4B6" opacity="0.07"/><circle cx="589.9" cy="263.4" r="2.8" fill="#2EC4B6" opacity="0.07"/><circle cx="571.9" cy="902.1" r="1.7" fill="#2EC4B6" opacity="0.07"/><circle cx="218.9" cy="427.1" r="2.2" fill="#2EC4B6" opacity="0.07"/><circle cx="296.5" cy="518.8" r="2.6" fill="#2EC4B6" opacity="0.07"/><circle cx="640.1" cy="763.1" r="2.9" fill="#2EC4B6" opacity="0.07"/><circle cx="597.9" cy="216.7" r="2.1" fill="#2EC4B6" opacity="0.07"/><circle cx="153.3" cy="890.5" r="1.9" fill="#2EC4B6" opacity="0.07"/><circle cx="538.9" cy="199.8" r="2.5" fill="#2EC4B6" opacity="0.07"/><circle cx="256.7" cy="779.0" r="3.1" fill="#2EC4B6" opacity="0.07"/><circle cx="633.4" cy="190.8" r="2.2" fill="#2EC4B6" opacity="0.07"/><circle cx="390.6" cy="862.2" r="1.6" fill="#2EC4B6" opacity="0.07"/><circle cx="337.5" cy="452.3" r="2.8" fill="#2EC4B6" opacity="0.07"/><circle cx="136.2" cy="872.6" r="2.0" fill="#2EC4B6" opacity="0.07"/><circle cx="620.5" cy="753.7" r="2.4" fill="#2EC4B6" opacity="0.07"/><circle cx="571.2" cy="348.2" r="1.7" fill="#2EC4B6" opacity="0.07"/><circle cx="283.5" cy="760.4" r="1.8" fill="#2EC4B6" opacity="0.07"/><circle cx="173.7" cy="575.9" r="2.7" fill="#2EC4B6" opacity="0.07"/><circle cx="390.8" cy="516.8" r="2.8" fill="#2EC4B6" opacity="0.07"/><circle cx="112.7" cy="814.2" r="3.0" fill="#2EC4B6" opacity="0.07"/><circle cx="362.3" cy="555.4" r="2.3" fill="#2EC4B6" opacity="0.07"/><circle cx="300.8" cy="306.6" r="2.2" fill="#2EC4B6" opacity="0.07"/><circle cx="416.8" cy="623.7" r="1.9" fill="#2EC4B6" opacity="0.07"/><circle cx="495.1" cy="886.7" r="2.8" fill="#2EC4B6" opacity="0.07"/><circle cx="176.6" cy="902.9" r="2.2" fill="#2EC4B6" opacity="0.07"/><circle cx="211.5" cy="791.1" r="3.1" fill="#2EC4B6" opacity="0.07"/><circle cx="405.5" cy="633.2" r="1.5" fill="#2EC4B6" opacity="0.07"/><circle cx="214.4" cy="687.1" r="2.0" fill="#2EC4B6" opacity="0.07"/><circle cx="193.8" cy="209.8" r="1.6" fill="#2EC4B6" opacity="0.07"/><circle cx="160.8" cy="894.3" r="2.2" fill="#2EC4B6" opacity="0.07"/><circle cx="528.5" cy="537.9" r="1.9" fill="#2EC4B6" opacity="0.07"/><circle cx="48.0" cy="539.6" r="2.2" fill="#2EC4B6" opacity="0.07"/><circle cx="104.1" cy="411.6" r="1.8" fill="#2EC4B6" opacity="0.07"/><circle cx="602.7" cy="522.6" r="2.6" fill="#2EC4B6" opacity="0.07"/><circle cx="402.7" cy="870.2" r="3.0" fill="#2EC4B6" opacity="0.07"/><circle cx="613.2" cy="274.6" r="1.7" fill="#2EC4B6" opacity="0.07"/><circle cx="334.8" cy="296.5" r="2.6" fill="#2EC4B6" opacity="0.07"/><circle cx="539.9" cy="704.5" r="2.8" fill="#2EC4B6" opacity="0.07"/><circle cx="237.1" cy="364.4" r="2.9" fill="#2EC4B6" opacity="0.07"/><circle cx="628.2" cy="226.6" r="1.9" fill="#2EC4B6" opacity="0.07"/><circle cx="458.7" cy="780.8" r="3.0" fill="#2EC4B6" opacity="0.07"/><circle cx="460.7" cy="497.8" r="1.7" fill="#2EC4B6" opacity="0.07"/><circle cx="393.9" cy="228.7" r="1.6" fill="#2EC4B6" opacity="0.07"/><circle cx="135.6" cy="504.9" r="2.6" fill="#2EC4B6" opacity="0.07"/><circle cx="555.7" cy="543.7" r="2.6" fill="#2EC4B6" opacity="0.07"/><circle cx="672.4" cy="883.5" r="1.8" fill="#2EC4B6" opacity="0.07"/><circle cx="673.2" cy="247.9" r="1.5" fill="#2EC4B6" opacity="0.07"/><circle cx="391.2" cy="449.2" r="1.7" fill="#2EC4B6" opacity="0.07"/><circle cx="467.6" cy="494.1" r="2.9" fill="#2EC4B6" opacity="0.07"/><circle cx="198.5" cy="455.4" r="3.2" fill="#2EC4B6" opacity="0.07"/><circle cx="77.7" cy="640.4" r="2.7" fill="#2EC4B6" opacity="0.07"/><circle cx="424.0" cy="466.5" r="3.0" fill="#2EC4B6" opacity="0.07"/><circle cx="388.1" cy="480.7" r="1.5" fill="#2EC4B6" opacity="0.07"/><circle cx="703.1" cy="745.5" r="2.7" fill="#2EC4B6" opacity="0.07"/><circle cx="86.8" cy="523.1" r="2.3" fill="#2EC4B6" opacity="0.07"/><circle cx="671.1" cy="600.8" r="1.6" fill="#2EC4B6" opacity="0.07"/><circle cx="574.2" cy="879.5" r="3.0" fill="#2EC4B6" opacity="0.07"/><circle cx="219.9" cy="259.8" r="2.3" fill="#2EC4B6" opacity="0.07"/><circle cx="606.7" cy="797.9" r="1.8" fill="#2EC4B6" opacity="0.07"/><circle cx="341.2" cy="353.2" r="2.1" fill="#2EC4B6" opacity="0.07"/><circle cx="269.5" cy="720.6" r="2.5" fill="#2EC4B6" opacity="0.07"/><circle cx="239.7" cy="478.9" r="1.7" fill="#2EC4B6" opacity="0.07"/><circle cx="518.2" cy="906.9" r="1.9" fill="#2EC4B6" opacity="0.07"/><circle cx="142.7" cy="778.0" r="2.4" fill="#2EC4B6" opacity="0.07"/><circle cx="442.8" cy="572.9" r="2.0" fill="#2EC4B6" opacity="0.07"/><circle cx="649.8" cy="389.2" r="2.8" fill="#2EC4B6" opacity="0.07"/><circle cx="507.5" cy="554.3" r="2.9" fill="#2EC4B6" opacity="0.07"/><circle cx="275.4" cy="205.4" r="1.9" fill="#2EC4B6" opacity="0.07"/><circle cx="396.2" cy="446.5" r="1.7" fill="#2EC4B6" opacity="0.07"/><circle cx="65.1" cy="696.8" r="2.3" fill="#2EC4B6" opacity="0.07"/><circle cx="145.4" cy="433.3" r="2.5" fill="#2EC4B6" opacity="0.07"/><circle cx="418.9" cy="894.4" r="1.9" fill="#2EC4B6" opacity="0.07"/><circle cx="707.0" cy="259.5" r="2.0" fill="#2EC4B6" opacity="0.07"/><circle cx="305.0" cy="824.3" r="2.7" fill="#2EC4B6" opacity="0.07"/><circle cx="90.8" cy="693.5" r="1.8" fill="#2EC4B6" opacity="0.07"/><circle cx="45.4" cy="485.5" r="2.6" fill="#2EC4B6" opacity="0.07"/><circle cx="113.6" cy="461.7" r="1.8" fill="#2EC4B6" opacity="0.07"/><circle cx="267.5" cy="252.7" r="3.1" fill="#2EC4B6" opacity="0.07"/><circle cx="365.9" cy="337.3" r="1.5" fill="#2EC4B6" opacity="0.07"/><circle cx="122.9" cy="474.3" r="1.9" fill="#2EC4B6" opacity="0.07"/><circle cx="74.6" cy="629.6" r="2.8" fill="#2EC4B6" opacity="0.07"/><circle cx="197.8" cy="313.8" r="2.5" fill="#2EC4B6" opacity="0.07"/><circle cx="47.6" cy="824.8" r="1.5" fill="#2EC4B6" opacity="0.07"/><circle cx="384.7" cy="685.3" r="1.7" fill="#2EC4B6" opacity="0.07"/><circle cx="149.7" cy="870.6" r="1.6" fill="#2EC4B6" opacity="0.07"/><circle cx="277.3" cy="403.2" r="2.4" fill="#2EC4B6" opacity="0.07"/><circle cx="591.9" cy="434.4" r="2.1" fill="#2EC4B6" opacity="0.07"/><circle cx="672.9" cy="349.1" r="3.0" fill="#2EC4B6" opacity="0.07"/><circle cx="643.4" cy="227.3" r="1.6" fill="#2EC4B6" opacity="0.07"/><circle cx="451.8" cy="522.3" r="3.0" fill="#2EC4B6" opacity="0.07"/><circle cx="495.2" cy="420.5" r="1.8" fill="#2EC4B6" opacity="0.07"/><circle cx="558.9" cy="859.4" r="2.3" fill="#2EC4B6" opacity="0.07"/><circle cx="605.4" cy="755.5" r="3.1" fill="#2EC4B6" opacity="0.07"/><circle cx="127.7" cy="394.8" r="3.1" fill="#2EC4B6" opacity="0.07"/></g>
        <g opacity="0.95">
          <circle cx="375.0" cy="500" r="88" fill="#ffffff" opacity="0.62" stroke="#1E1B2E" stroke-width="7"/>
          <circle cx="347.0" cy="482" r="10" fill="#1E1B2E" opacity="0.9"/>
          <circle cx="403.0" cy="482" r="10" fill="#1E1B2E" opacity="0.9"/>
          <path d="M 340.0 518 Q 375.0 540 410.0 518" fill="none" stroke="#1E1B2E" stroke-width="8" stroke-linecap="round"/>
          <rect x="235.0" y="570" width="280" height="330" rx="75" fill="#ffffff" opacity="0.50" stroke="#1E1B2E" stroke-width="7"/>
          <path d="M 265.0 680 Q 375.0 760 485.0 680" fill="none" stroke="#2EC4B6" stroke-width="10" opacity="0.35" stroke-linecap="round"/>
        </g>
        
        <g filter="url(#glow)">
          <circle cx="205.0" cy="720" r="85" fill="#ffffff" opacity="0.50" stroke="#1E1B2E" stroke-width="6"/>
          
    <g>
      <circle cx="205.0" cy="720" r="72.0" fill="#ffffff" opacity="0.75" stroke="#1E1B2E" stroke-width="7"/>
      <circle cx="205.0" cy="720" r="53.1" fill="none" stroke="#2EC4B6" stroke-width="6" opacity="0.45"/>
      <polygon points="205.00,652.50 221.40,697.43 269.20,699.14 231.53,728.62 244.68,774.61 205.00,747.90 165.32,774.61 178.47,728.62 140.80,699.14 188.60,697.43" fill="none" stroke="#1E1B2E" stroke-width="8" stroke-linejoin="round" opacity="0.95"/>
      <circle cx="205.0" cy="720" r="8.1" fill="#2EC4B6" opacity="0.55"/>
      <path d="M 162.2 751.5 Q 205.0 789.8 247.8 751.5" fill="none" stroke="#2EC4B6" stroke-width="7" opacity="0.35" stroke-linecap="round"/>
    </g>
    
        </g>
        <g filter="url(#glow)">
    <g>
      <circle cx="565.0" cy="680" r="112.0" fill="#ffffff" opacity="0.75" stroke="#1E1B2E" stroke-width="7"/>
      <circle cx="565.0" cy="680" r="82.6" fill="none" stroke="#2EC4B6" stroke-width="6" opacity="0.45"/>
      <polygon points="565.00,575.00 590.51,644.89 664.86,647.55 606.28,693.41 626.72,764.95 565.00,723.40 503.28,764.95 523.72,693.41 465.14,647.55 539.49,644.89" fill="none" stroke="#1E1B2E" stroke-width="8" stroke-linejoin="round" opacity="0.95"/>
      <circle cx="565.0" cy="680" r="12.6" fill="#2EC4B6" opacity="0.55"/>
      <path d="M 498.5 729.0 Q 565.0 788.5 631.5 729.0" fill="none" stroke="#2EC4B6" stroke-width="7" opacity="0.35" stroke-linecap="round"/>
    </g>
    </g><line x1="521.5" y1="418.0" x2="181.5" y2="359.8" stroke="#ffffff" stroke-width="2.2" opacity="0.15"/>
<line x1="181.5" y1="359.8" x2="510.6" y2="291.0" stroke="#ffffff" stroke-width="2.2" opacity="0.12"/>
<line x1="510.6" y1="291.0" x2="139.0" y2="642.8" stroke="#ffffff" stroke-width="2.2" opacity="0.18"/>
<line x1="139.0" y1="642.8" x2="320.7" y2="624.4" stroke="#ffffff" stroke-width="2.2" opacity="0.12"/>
<line x1="320.7" y1="624.4" x2="534.6" y2="341.0" stroke="#ffffff" stroke-width="2.2" opacity="0.08"/>
<line x1="534.6" y1="341.0" x2="194.1" y2="545.8" stroke="#ffffff" stroke-width="2.2" opacity="0.11"/>
<circle cx="194.1" cy="545.8" r="4.3" fill="#ffffff" opacity="0.6208059994053756"/>
<circle cx="518.8" cy="363.3" r="4.7" fill="#ffffff" opacity="0.320527721755449"/>
<circle cx="521.5" cy="418.0" r="2.3" fill="#ffffff" opacity="0.8204256782624288"/>
<circle cx="139.0" cy="642.8" r="3.8" fill="#ffffff" opacity="0.8131271614045787"/>
<circle cx="181.5" cy="359.8" r="3.1" fill="#ffffff" opacity="0.8330894868260783"/>
<circle cx="497.4" cy="296.4" r="3.5" fill="#ffffff" opacity="0.47172475998109953"/>
<circle cx="303.3" cy="374.6" r="4.4" fill="#ffffff" opacity="0.7837584186196132"/>
<circle cx="320.7" cy="624.4" r="4.6" fill="#ffffff" opacity="0.5402117074567243"/>
<circle cx="534.6" cy="341.0" r="2.8" fill="#ffffff" opacity="0.40099570081301616"/>
<circle cx="454.7" cy="253.6" r="3.0" fill="#ffffff" opacity="0.5523580170363223"/>
<circle cx="219.7" cy="501.4" r="3.0" fill="#ffffff" opacity="0.5823265710003218"/>
<circle cx="216.9" cy="386.5" r="3.9" fill="#ffffff" opacity="0.35159547013429066"/>
<circle cx="168.3" cy="531.9" r="1.8" fill="#ffffff" opacity="0.3705214999265182"/>
<circle cx="510.6" cy="291.0" r="3.3" fill="#ffffff" opacity="0.6266384078441527"/>
<rect x="42" y="1030" width="666" height="160" rx="30" fill="#ffffffd9" stroke="#1E1B2E" stroke-width="4" opacity="0.95"/>
<text x="375.0" y="1104" font-family="ui-sans-serif, system-ui, -apple-system, Segoe UI, Roboto, Helvetica, Arial" font-size="46" font-weight="900" text-anchor="middle" fill="#1E1B2E" opacity="0.98">Page of Pentacles</text>
<text x="375.0" y="1152" font-family="ui-sans-serif, system-ui, -apple-system, Segoe UI, Roboto, Helvetica, Arial" font-size="28" font-weight="700" text-anchor="middle" fill="#1E1B2E" opacity="0.7">Curious</text>

    <g opacity="0.55">
      <circle cx="127" cy="1176" r="14" fill="#2EC4B6"/>
      <circle cx="623" cy="1176" r="14" fill="#2EC4B6"/>
      <path d="M 162 1176 L 588 1176" stroke="#2EC4B6" stroke-width="4" opacity="0.45" stroke-linecap="round"/>
    </g>
    
</svg>
