<svg xmlns="http://www.w3.org/2000/svg" width="750" height="1250" viewBox="0 0 750 1250">
  <title>Knight of Pentacles</title>


  <defs>
    <linearGradient id="g" x1="0" y1="0" x2="1" y2="1">
      <stop offset="0%" stop-color="#F1F7FF"/>
      <stop offset="100%" stop-color="#FFF0D6"/>
    </linearGradient>

    <!-- paper texture -->
    <filter id="paper" x="-20%" y="-20%" width="140%" height="140%">
      <feTurbulence type="fractalNoise" baseFrequency="0.014" numOctaves="3" seed="4183" result="noise"/>
      <feColorMatrix in="noise" type="matrix"
        values="1 0 0 0 0
                0 1 0 0 0
                0 0 1 0 0
                0 0 0 0.25 0" result="noiseAlpha"/>
      <feComposite in="noiseAlpha" in2="SourceGraphic" operator="over"/>
    </filter>

    <!-- soft glow -->
    <filter id="glow" x="-30%" y="-30%" width="160%" height="160%">
      <feGaussianBlur stdDeviation="10" result="blur"/>
      <feColorMatrix type="matrix" values="
        1 0 0 0 0
        0 1 0 0 0
        0 0 1 0 0
        0 0 0 0.32 0" result="blurAlpha"/>
      <feMerge>
        <feMergeNode in="blurAlpha"/>
        <feMergeNode in="SourceGraphic"/>
      </feMerge>
    </filter>
  </defs>

<rect x="0" y="0" width="750" height="1250" rx="58" ry="58" fill="url(#g)" stroke="none" stroke-width="0" opacity="1"/>
<rect x="0" y="0" width="750" height="1250" fill="#ffffff" opacity="0.08"/>
<line x1="153.0" y1="339.2" x2="697.7" y2="1093.0" stroke="#ffffff" stroke-width="2.2" opacity="0.17"/>
<line x1="697.7" y1="1093.0" x2="93.8" y2="291.8" stroke="#ffffff" stroke-width="2.2" opacity="0.09"/>
<line x1="93.8" y1="291.8" x2="140.9" y2="677.7" stroke="#ffffff" stroke-width="2.2" opacity="0.16"/>
<line x1="140.9" y1="677.7" x2="208.4" y2="1123.7" stroke="#ffffff" stroke-width="2.2" opacity="0.15"/>
<line x1="208.4" y1="1123.7" x2="173.7" y2="826.8" stroke="#ffffff" stroke-width="2.2" opacity="0.13"/>
<line x1="173.7" y1="826.8" x2="122.6" y2="1142.7" stroke="#ffffff" stroke-width="2.2" opacity="0.20"/>
<line x1="122.6" y1="1142.7" x2="367.8" y2="295.5" stroke="#ffffff" stroke-width="2.2" opacity="0.11"/>
<line x1="367.8" y1="295.5" x2="416.0" y2="1176.3" stroke="#ffffff" stroke-width="2.2" opacity="0.20"/>
<line x1="416.0" y1="1176.3" x2="396.5" y2="82.7" stroke="#ffffff" stroke-width="2.2" opacity="0.19"/>
<line x1="396.5" y1="82.7" x2="583.4" y2="487.8" stroke="#ffffff" stroke-width="2.2" opacity="0.09"/>
<line x1="583.4" y1="487.8" x2="509.8" y2="776.9" stroke="#ffffff" stroke-width="2.2" opacity="0.10"/>
<line x1="509.8" y1="776.9" x2="478.2" y2="300.7" stroke="#ffffff" stroke-width="2.2" opacity="0.13"/>
<line x1="478.2" y1="300.7" x2="490.3" y2="660.4" stroke="#ffffff" stroke-width="2.2" opacity="0.20"/>
<line x1="490.3" y1="660.4" x2="177.8" y2="941.6" stroke="#ffffff" stroke-width="2.2" opacity="0.09"/>
<line x1="177.8" y1="941.6" x2="461.3" y2="1021.8" stroke="#ffffff" stroke-width="2.2" opacity="0.20"/>
<line x1="461.3" y1="1021.8" x2="445.3" y2="921.5" stroke="#ffffff" stroke-width="2.2" opacity="0.14"/>
<line x1="445.3" y1="921.5" x2="369.5" y2="281.1" stroke="#ffffff" stroke-width="2.2" opacity="0.21"/>
<line x1="369.5" y1="281.1" x2="701.9" y2="1140.1" stroke="#ffffff" stroke-width="2.2" opacity="0.11"/>
<circle cx="64.9" cy="968.1" r="2.0" fill="#ffffff" opacity="0.28773993661627045"/>
<circle cx="163.4" cy="782.8" r="3.1" fill="#ffffff" opacity="0.3776884286838732"/>
<circle cx="173.7" cy="826.8" r="4.0" fill="#ffffff" opacity="0.538860325113343"/>
<circle cx="575.7" cy="354.3" r="4.0" fill="#ffffff" opacity="0.6712706334770583"/>
<circle cx="583.4" cy="487.8" r="3.1" fill="#ffffff" opacity="0.7925640565800723"/>
<circle cx="574.5" cy="413.7" r="4.2" fill="#ffffff" opacity="0.4427616909670067"/>
<circle cx="357.9" cy="120.1" r="4.8" fill="#ffffff" opacity="0.6274518436116994"/>
<circle cx="193.3" cy="1046.6" r="3.8" fill="#ffffff" opacity="0.5006865861781629"/>
<circle cx="316.1" cy="277.6" r="3.0" fill="#ffffff" opacity="0.8481177975637088"/>
<circle cx="701.9" cy="1140.1" r="2.9" fill="#ffffff" opacity="0.3073095218015792"/>
<circle cx="576.8" cy="224.2" r="2.7" fill="#ffffff" opacity="0.4127095856409811"/>
<circle cx="461.3" cy="1021.8" r="2.3" fill="#ffffff" opacity="0.6025296198038023"/>
<circle cx="227.8" cy="659.0" r="3.3" fill="#ffffff" opacity="0.33280157177914466"/>
<circle cx="367.8" cy="295.5" r="3.5" fill="#ffffff" opacity="0.6119940275509121"/>
<circle cx="122.6" cy="1142.7" r="1.7" fill="#ffffff" opacity="0.4707879698722838"/>
<circle cx="298.8" cy="1165.6" r="3.8" fill="#ffffff" opacity="0.5317724961443424"/>
<circle cx="388.0" cy="649.7" r="3.4" fill="#ffffff" opacity="0.5055274924444738"/>
<circle cx="317.5" cy="154.7" r="2.6" fill="#ffffff" opacity="0.5429130453586937"/>
<circle cx="369.5" cy="281.1" r="3.0" fill="#ffffff" opacity="0.3304059890589578"/>
<circle cx="382.0" cy="1077.3" r="3.0" fill="#ffffff" opacity="0.3507724801905417"/>
<circle cx="153.0" cy="339.2" r="3.1" fill="#ffffff" opacity="0.25356815899192314"/>
<circle cx="478.2" cy="300.7" r="3.4" fill="#ffffff" opacity="0.5884841228736886"/>
<circle cx="510.4" cy="382.5" r="2.6" fill="#ffffff" opacity="0.7258219237307624"/>
<circle cx="529.3" cy="623.8" r="4.2" fill="#ffffff" opacity="0.43941431844186973"/>
<circle cx="172.7" cy="236.2" r="4.7" fill="#ffffff" opacity="0.6325480746845986"/>
<circle cx="490.3" cy="660.4" r="2.3" fill="#ffffff" opacity="0.2657190955963359"/>
<circle cx="370.8" cy="962.2" r="3.5" fill="#ffffff" opacity="0.7544062849896834"/>
<circle cx="410.6" cy="292.2" r="1.9" fill="#ffffff" opacity="0.72926193182154"/>
<circle cx="509.8" cy="776.9" r="2.8" fill="#ffffff" opacity="0.4337401260773981"/>
<circle cx="177.8" cy="941.6" r="3.7" fill="#ffffff" opacity="0.3357812878154354"/>
<circle cx="578.7" cy="767.2" r="4.1" fill="#ffffff" opacity="0.6456610502779048"/>
<circle cx="697.7" cy="1093.0" r="3.3" fill="#ffffff" opacity="0.2993086149323775"/>
<circle cx="93.4" cy="139.1" r="1.8" fill="#ffffff" opacity="0.3462392825415504"/>
<circle cx="79.0" cy="259.6" r="4.5" fill="#ffffff" opacity="0.2960470323804872"/>
<circle cx="140.9" cy="677.7" r="2.3" fill="#ffffff" opacity="0.7274113255232395"/>
<circle cx="416.0" cy="1176.3" r="3.2" fill="#ffffff" opacity="0.728965268527064"/>
<circle cx="176.1" cy="119.0" r="2.6" fill="#ffffff" opacity="0.7610382875023736"/>
<circle cx="580.3" cy="1072.8" r="3.5" fill="#ffffff" opacity="0.7549047551057044"/>
<circle cx="578.5" cy="1069.9" r="4.2" fill="#ffffff" opacity="0.47241863546748236"/>
<circle cx="59.1" cy="733.1" r="3.2" fill="#ffffff" opacity="0.6717668386379083"/>
<circle cx="212.6" cy="757.2" r="2.7" fill="#ffffff" opacity="0.30000297919119634"/>
<circle cx="232.4" cy="173.0" r="2.9" fill="#ffffff" opacity="0.7090841022745663"/>
<circle cx="208.4" cy="1123.7" r="2.5" fill="#ffffff" opacity="0.5236120673718136"/>
<circle cx="637.5" cy="1169.9" r="3.6" fill="#ffffff" opacity="0.5615877266404004"/>
<circle cx="105.7" cy="1134.6" r="2.2" fill="#ffffff" opacity="0.5012739806055174"/>
<circle cx="445.3" cy="921.5" r="1.8" fill="#ffffff" opacity="0.7433766381350775"/>
<circle cx="93.8" cy="291.8" r="2.5" fill="#ffffff" opacity="0.4127344037020546"/>
<circle cx="391.5" cy="92.4" r="2.0" fill="#ffffff" opacity="0.3925443537863368"/>
<circle cx="396.5" cy="82.7" r="3.7" fill="#ffffff" opacity="0.47764514765946975"/>
<circle cx="128.6" cy="192.1" r="3.9" fill="#ffffff" opacity="0.6760064797956538"/>
<g filter="url(#paper)"><rect x="42" y="42" width="666" height="1166" rx="54" ry="54" fill="none" stroke="#1E1B2E" stroke-width="8" opacity="0.95"/>
<rect x="60" y="60" width="630" height="1130" rx="46" ry="46" fill="none" stroke="#2EC4B6" stroke-width="3" opacity="0.35"/>

  <g opacity="0.42">
    <circle cx="375.0" cy="560" r="285" fill="none" stroke="#2EC4B6" stroke-width="4.2" opacity="0.42"/>
    <circle cx="375.0" cy="560" r="233.7" fill="none" stroke="#2EC4B6" stroke-width="2.2" opacity="0.23"/>
    <line x1="642.0" y1="560.0" x2="674.0" y2="560.0" stroke="#2EC4B6" stroke-width="3.2" opacity="0.23" stroke-linecap="round"/><line x1="606.2" y1="693.5" x2="633.9" y2="709.5" stroke="#2EC4B6" stroke-width="3.2" opacity="0.23" stroke-linecap="round"/><line x1="508.5" y1="791.2" x2="524.5" y2="818.9" stroke="#2EC4B6" stroke-width="3.2" opacity="0.23" stroke-linecap="round"/><line x1="375.0" y1="827.0" x2="375.0" y2="859.0" stroke="#2EC4B6" stroke-width="3.2" opacity="0.23" stroke-linecap="round"/><line x1="241.5" y1="791.2" x2="225.5" y2="818.9" stroke="#2EC4B6" stroke-width="3.2" opacity="0.23" stroke-linecap="round"/><line x1="143.8" y1="693.5" x2="116.1" y2="709.5" stroke="#2EC4B6" stroke-width="3.2" opacity="0.23" stroke-linecap="round"/><line x1="108.0" y1="560.0" x2="76.0" y2="560.0" stroke="#2EC4B6" stroke-width="3.2" opacity="0.23" stroke-linecap="round"/><line x1="143.8" y1="426.5" x2="116.1" y2="410.5" stroke="#2EC4B6" stroke-width="3.2" opacity="0.23" stroke-linecap="round"/><line x1="241.5" y1="328.8" x2="225.5" y2="301.1" stroke="#2EC4B6" stroke-width="3.2" opacity="0.23" stroke-linecap="round"/><line x1="375.0" y1="293.0" x2="375.0" y2="261.0" stroke="#2EC4B6" stroke-width="3.2" opacity="0.23" stroke-linecap="round"/><line x1="508.5" y1="328.8" x2="524.5" y2="301.1" stroke="#2EC4B6" stroke-width="3.2" opacity="0.23" stroke-linecap="round"/><line x1="606.2" y1="426.5" x2="633.9" y2="410.5" stroke="#2EC4B6" stroke-width="3.2" opacity="0.23" stroke-linecap="round"/>
    <circle cx="659.9" cy="551.8" r="2.8" fill="#2EC4B6" opacity="0.21"/><circle cx="650.8" cy="631.9" r="3.5" fill="#2EC4B6" opacity="0.27"/><circle cx="620.6" cy="704.6" r="3.1" fill="#2EC4B6" opacity="0.42"/><circle cx="575.4" cy="762.7" r="3.9" fill="#2EC4B6" opacity="0.25"/><circle cx="520.9" cy="804.8" r="4.0" fill="#2EC4B6" opacity="0.19"/><circle cx="453.0" cy="834.1" r="3.1" fill="#2EC4B6" opacity="0.25"/><circle cx="378.2" cy="845.0" r="2.9" fill="#2EC4B6" opacity="0.31"/><circle cx="294.3" cy="833.3" r="3.1" fill="#2EC4B6" opacity="0.24"/><circle cx="224.9" cy="802.3" r="3.7" fill="#2EC4B6" opacity="0.44"/><circle cx="170.5" cy="758.5" r="3.6" fill="#2EC4B6" opacity="0.41"/><circle cx="130.5" cy="706.4" r="3.4" fill="#2EC4B6" opacity="0.37"/><circle cx="100.4" cy="636.4" r="3.9" fill="#2EC4B6" opacity="0.39"/><circle cx="90.1" cy="567.9" r="3.0" fill="#2EC4B6" opacity="0.43"/><circle cx="99.5" cy="486.9" r="3.9" fill="#2EC4B6" opacity="0.28"/><circle cx="130.4" cy="413.7" r="3.2" fill="#2EC4B6" opacity="0.24"/><circle cx="169.7" cy="362.3" r="2.7" fill="#2EC4B6" opacity="0.30"/><circle cx="237.0" cy="310.6" r="2.9" fill="#2EC4B6" opacity="0.30"/><circle cx="310.6" cy="282.4" r="3.8" fill="#2EC4B6" opacity="0.39"/><circle cx="369.6" cy="275.1" r="2.7" fill="#2EC4B6" opacity="0.41"/><circle cx="450.1" cy="285.1" r="3.8" fill="#2EC4B6" opacity="0.36"/><circle cx="525.0" cy="317.7" r="3.2" fill="#2EC4B6" opacity="0.31"/><circle cx="569.7" cy="351.9" r="3.0" fill="#2EC4B6" opacity="0.44"/><circle cx="620.5" cy="415.2" r="3.9" fill="#2EC4B6" opacity="0.31"/><circle cx="652.3" cy="494.2" r="3.4" fill="#2EC4B6" opacity="0.36"/>
  </g>

<g><g transform="translate(50,54)"><path d="M 21.6 126.0 Q 50.4 54.0 99.0 39.6 Q 144.0 28.8 162.0 72.0" fill="none" stroke="#2EC4B6" stroke-width="6" opacity="0.55" stroke-linecap="round"/></g><g transform="translate(700,54) scale(-1,1)"><path d="M 21.6 126.0 Q 50.4 54.0 99.0 39.6 Q 144.0 28.8 162.0 72.0" fill="none" stroke="#2EC4B6" stroke-width="6" opacity="0.55" stroke-linecap="round"/></g><g transform="translate(50,1196) scale(1,-1)"><path d="M 21.6 126.0 Q 50.4 54.0 99.0 39.6 Q 144.0 28.8 162.0 72.0" fill="none" stroke="#2EC4B6" stroke-width="6" opacity="0.55" stroke-linecap="round"/></g><g transform="translate(700,1196) scale(-1,-1)"><path d="M 21.6 126.0 Q 50.4 54.0 99.0 39.6 Q 144.0 28.8 162.0 72.0" fill="none" stroke="#2EC4B6" stroke-width="6" opacity="0.55" stroke-linecap="round"/></g></g></g>
<rect x="42" y="60" width="666" height="92" rx="30" fill="#ffffffcc" stroke="#1E1B2E" stroke-width="4" opacity="0.95"/>
<text x="375.0" y="122" font-family="ui-sans-serif, system-ui, -apple-system, Segoe UI, Roboto, Helvetica, Arial" font-size="30" font-weight="800" text-anchor="middle" fill="#1E1B2E" opacity="0.95" letter-spacing="1">MINOR ARCANA • PENTACLES</text>
<rect x="76" y="170" width="598" height="760" rx="52" fill="#ffffff" opacity="0.15"/>
<g><circle cx="74.6" cy="385.2" r="2.2" fill="#2EC4B6" opacity="0.07"/><circle cx="603.2" cy="507.7" r="3.2" fill="#2EC4B6" opacity="0.07"/><circle cx="364.9" cy="527.9" r="1.6" fill="#2EC4B6" opacity="0.07"/><circle cx="488.3" cy="745.6" r="3.0" fill="#2EC4B6" opacity="0.07"/><circle cx="383.6" cy="310.7" r="3.2" fill="#2EC4B6" opacity="0.07"/><circle cx="678.2" cy="749.6" r="2.6" fill="#2EC4B6" opacity="0.07"/><circle cx="227.1" cy="794.8" r="1.5" fill="#2EC4B6" opacity="0.07"/><circle cx="130.4" cy="273.4" r="2.2" fill="#2EC4B6" opacity="0.07"/><circle cx="183.8" cy="886.8" r="1.9" fill="#2EC4B6" opacity="0.07"/><circle cx="231.9" cy="403.4" r="1.6" fill="#2EC4B6" opacity="0.07"/><circle cx="223.3" cy="510.1" r="1.7" fill="#2EC4B6" opacity="0.07"/><circle cx="83.2" cy="536.4" r="1.7" fill="#2EC4B6" opacity="0.07"/><circle cx="409.0" cy="865.4" r="1.7" fill="#2EC4B6" opacity="0.07"/><circle cx="263.5" cy="737.2" r="1.7" fill="#2EC4B6" opacity="0.07"/><circle cx="185.4" cy="472.4" r="1.9" fill="#2EC4B6" opacity="0.07"/><circle cx="356.0" cy="734.2" r="1.5" fill="#2EC4B6" opacity="0.07"/><circle cx="191.4" cy="350.2" r="2.5" fill="#2EC4B6" opacity="0.07"/><circle cx="185.7" cy="337.4" r="3.2" fill="#2EC4B6" opacity="0.07"/><circle cx="68.1" cy="226.9" r="3.0" fill="#2EC4B6" opacity="0.07"/><circle cx="681.9" cy="678.6" r="1.7" fill="#2EC4B6" opacity="0.07"/><circle cx="325.2" cy="215.6" r="3.1" fill="#2EC4B6" opacity="0.07"/><circle cx="363.8" cy="828.9" r="2.9" fill="#2EC4B6" opacity="0.07"/><circle cx="514.1" cy="390.1" r="2.6" fill="#2EC4B6" opacity="0.07"/><circle cx="648.3" cy="290.8" r="2.5" fill="#2EC4B6" opacity="0.07"/><circle cx="256.9" cy="632.1" r="3.0" fill="#2EC4B6" opacity="0.07"/><circle cx="305.7" cy="644.1" r="1.9" fill="#2EC4B6" opacity="0.07"/><circle cx="46.2" cy="454.4" r="2.7" fill="#2EC4B6" opacity="0.07"/><circle cx="580.9" cy="870.2" r="2.4" fill="#2EC4B6" opacity="0.07"/><circle cx="282.7" cy="648.8" r="2.5" fill="#2EC4B6" opacity="0.07"/><circle cx="252.3" cy="264.5" r="2.7" fill="#2EC4B6" opacity="0.07"/><circle cx="603.9" cy="556.3" r="2.9" fill="#2EC4B6" opacity="0.07"/><circle cx="261.0" cy="469.8" r="2.9" fill="#2EC4B6" opacity="0.07"/><circle cx="654.2" cy="585.0" r="2.5" fill="#2EC4B6" opacity="0.07"/><circle cx="574.6" cy="488.4" r="2.8" fill="#2EC4B6" opacity="0.07"/><circle cx="49.9" cy="305.0" r="2.4" fill="#2EC4B6" opacity="0.07"/><circle cx="555.4" cy="811.1" r="2.2" fill="#2EC4B6" opacity="0.07"/><circle cx="178.1" cy="702.6" r="2.3" fill="#2EC4B6" opacity="0.07"/><circle cx="493.6" cy="898.4" r="1.9" fill="#2EC4B6" opacity="0.07"/><circle cx="586.7" cy="584.3" r="1.8" fill="#2EC4B6" opacity="0.07"/><circle cx="540.0" cy="446.6" r="3.0" fill="#2EC4B6" opacity="0.07"/><circle cx="530.9" cy="728.5" r="2.0" fill="#2EC4B6" opacity="0.07"/><circle cx="398.8" cy="886.3" r="2.5" fill="#2EC4B6" opacity="0.07"/><circle cx="155.3" cy="373.2" r="2.2" fill="#2EC4B6" opacity="0.07"/><circle cx="198.1" cy="906.1" r="3.1" fill="#2EC4B6" opacity="0.07"/><circle cx="331.3" cy="352.3" r="2.2" fill="#2EC4B6" opacity="0.07"/><circle cx="581.1" cy="844.6" r="2.5" fill="#2EC4B6" opacity="0.07"/><circle cx="427.4" cy="397.8" r="2.2" fill="#2EC4B6" opacity="0.07"/><circle cx="404.4" cy="603.9" r="1.6" fill="#2EC4B6" opacity="0.07"/><circle cx="535.1" cy="643.5" r="2.0" fill="#2EC4B6" opacity="0.07"/><circle cx="110.9" cy="711.7" r="1.8" fill="#2EC4B6" opacity="0.07"/><circle cx="360.9" cy="209.0" r="2.1" fill="#2EC4B6" opacity="0.07"/><circle cx="133.9" cy="782.7" r="2.5" fill="#2EC4B6" opacity="0.07"/><circle cx="133.5" cy="253.1" r="2.5" fill="#2EC4B6" opacity="0.07"/><circle cx="216.9" cy="198.0" r="2.8" fill="#2EC4B6" opacity="0.07"/><circle cx="168.5" cy="866.0" r="3.0" fill="#2EC4B6" opacity="0.07"/><circle cx="110.9" cy="349.0" r="1.7" fill="#2EC4B6" opacity="0.07"/><circle cx="414.0" cy="881.6" r="2.3" fill="#2EC4B6" opacity="0.07"/><circle cx="575.6" cy="660.6" r="2.9" fill="#2EC4B6" opacity="0.07"/><circle cx="645.5" cy="457.0" r="3.0" fill="#2EC4B6" opacity="0.07"/><circle cx="519.9" cy="320.2" r="1.7" fill="#2EC4B6" opacity="0.07"/><circle cx="168.5" cy="239.1" r="1.6" fill="#2EC4B6" opacity="0.07"/><circle cx="339.2" cy="359.7" r="2.0" fill="#2EC4B6" opacity="0.07"/><circle cx="377.2" cy="663.8" r="1.9" fill="#2EC4B6" opacity="0.07"/><circle cx="466.9" cy="494.1" r="1.9" fill="#2EC4B6" opacity="0.07"/><circle cx="233.2" cy="848.5" r="2.4" fill="#2EC4B6" opacity="0.07"/><circle cx="341.1" cy="663.9" r="2.8" fill="#2EC4B6" opacity="0.07"/><circle cx="471.4" cy="906.6" r="2.9" fill="#2EC4B6" opacity="0.07"/><circle cx="597.7" cy="493.6" r="1.9" fill="#2EC4B6" opacity="0.07"/><circle cx="354.5" cy="475.3" r="2.7" fill="#2EC4B6" opacity="0.07"/><circle cx="92.4" cy="384.6" r="2.3" fill="#2EC4B6" opacity="0.07"/><circle cx="254.4" cy="531.1" r="2.9" fill="#2EC4B6" opacity="0.07"/><circle cx="524.4" cy="444.3" r="3.1" fill="#2EC4B6" opacity="0.07"/><circle cx="588.2" cy="246.3" r="2.4" fill="#2EC4B6" opacity="0.07"/><circle cx="663.0" cy="652.1" r="2.4" fill="#2EC4B6" opacity="0.07"/><circle cx="362.6" cy="503.7" r="1.8" fill="#2EC4B6" opacity="0.07"/><circle cx="241.4" cy="674.6" r="2.5" fill="#2EC4B6" opacity="0.07"/><circle cx="471.9" cy="596.7" r="2.9" fill="#2EC4B6" opacity="0.07"/><circle cx="181.9" cy="645.7" r="2.7" fill="#2EC4B6" opacity="0.07"/><circle cx="289.3" cy="422.3" r="2.5" fill="#2EC4B6" opacity="0.07"/><circle cx="350.3" cy="236.5" r="2.7" fill="#2EC4B6" opacity="0.07"/><circle cx="99.5" cy="657.1" r="2.9" fill="#2EC4B6" opacity="0.07"/><circle cx="493.9" cy="654.6" r="3.1" fill="#2EC4B6" opacity="0.07"/><circle cx="251.2" cy="818.7" r="1.8" fill="#2EC4B6" opacity="0.07"/><circle cx="291.2" cy="711.1" r="2.9" fill="#2EC4B6" opacity="0.07"/><circle cx="114.9" cy="553.7" r="2.7" fill="#2EC4B6" opacity="0.07"/><circle cx="684.1" cy="432.2" r="1.6" fill="#2EC4B6" opacity="0.07"/><circle cx="523.0" cy="698.1" r="3.1" fill="#2EC4B6" opacity="0.07"/><circle cx="635.7" cy="755.6" r="2.3" fill="#2EC4B6" opacity="0.07"/><circle cx="214.2" cy="898.5" r="3.1" fill="#2EC4B6" opacity="0.07"/><circle cx="389.9" cy="839.2" r="2.9" fill="#2EC4B6" opacity="0.07"/><circle cx="163.0" cy="389.5" r="2.7" fill="#2EC4B6" opacity="0.07"/><circle cx="478.1" cy="731.3" r="1.5" fill="#2EC4B6" opacity="0.07"/><circle cx="707.7" cy="793.2" r="3.1" fill="#2EC4B6" opacity="0.07"/><circle cx="155.1" cy="853.7" r="2.8" fill="#2EC4B6" opacity="0.07"/><circle cx="175.7" cy="701.9" r="1.5" fill="#2EC4B6" opacity="0.07"/><circle cx="649.7" cy="806.4" r="2.4" fill="#2EC4B6" opacity="0.07"/><circle cx="591.7" cy="851.7" r="2.9" fill="#2EC4B6" opacity="0.07"/><circle cx="355.7" cy="651.1" r="2.5" fill="#2EC4B6" opacity="0.07"/><circle cx="95.2" cy="229.6" r="2.6" fill="#2EC4B6" opacity="0.07"/><circle cx="219.7" cy="794.8" r="2.8" fill="#2EC4B6" opacity="0.07"/><circle cx="234.6" cy="374.1" r="2.0" fill="#2EC4B6" opacity="0.07"/><circle cx="205.9" cy="889.3" r="1.5" fill="#2EC4B6" opacity="0.07"/><circle cx="622.7" cy="401.9" r="2.8" fill="#2EC4B6" opacity="0.07"/><circle cx="193.8" cy="298.9" r="2.4" fill="#2EC4B6" opacity="0.07"/><circle cx="305.9" cy="471.4" r="1.9" fill="#2EC4B6" opacity="0.07"/><circle cx="540.1" cy="258.9" r="2.5" fill="#2EC4B6" opacity="0.07"/><circle cx="469.1" cy="903.8" r="3.0" fill="#2EC4B6" opacity="0.07"/><circle cx="299.5" cy="823.6" r="3.0" fill="#2EC4B6" opacity="0.07"/><circle cx="599.7" cy="277.3" r="2.8" fill="#2EC4B6" opacity="0.07"/><circle cx="570.9" cy="615.6" r="2.3" fill="#2EC4B6" opacity="0.07"/></g>
        <g opacity="0.95">
          <circle cx="375.0" cy="500" r="88" fill="#ffffff" opacity="0.62" stroke="#1E1B2E" stroke-width="7"/>
          <circle cx="347.0" cy="482" r="10" fill="#1E1B2E" opacity="0.9"/>
          <circle cx="403.0" cy="482" r="10" fill="#1E1B2E" opacity="0.9"/>
          <path d="M 340.0 518 Q 375.0 540 410.0 518" fill="none" stroke="#1E1B2E" stroke-width="8" stroke-linecap="round"/>
          <rect x="235.0" y="570" width="280" height="330" rx="75" fill="#ffffff" opacity="0.50" stroke="#1E1B2E" stroke-width="7"/>
          <path d="M 265.0 680 Q 375.0 760 485.0 680" fill="none" stroke="#2EC4B6" stroke-width="10" opacity="0.35" stroke-linecap="round"/>
        </g>
        
        <g filter="url(#glow)">
          <circle cx="205.0" cy="720" r="85" fill="#ffffff" opacity="0.50" stroke="#1E1B2E" stroke-width="6"/>
          
    <g>
      <circle cx="205.0" cy="720" r="72.0" fill="#ffffff" opacity="0.75" stroke="#1E1B2E" stroke-width="7"/>
      <circle cx="205.0" cy="720" r="53.1" fill="none" stroke="#2EC4B6" stroke-width="6" opacity="0.45"/>
      <polygon points="205.00,652.50 221.40,697.43 269.20,699.14 231.53,728.62 244.68,774.61 205.00,747.90 165.32,774.61 178.47,728.62 140.80,699.14 188.60,697.43" fill="none" stroke="#1E1B2E" stroke-width="8" stroke-linejoin="round" opacity="0.95"/>
      <circle cx="205.0" cy="720" r="8.1" fill="#2EC4B6" opacity="0.55"/>
      <path d="M 162.2 751.5 Q 205.0 789.8 247.8 751.5" fill="none" stroke="#2EC4B6" stroke-width="7" opacity="0.35" stroke-linecap="round"/>
    </g>
    
        </g>
        <g filter="url(#glow)">
    <g>
      <circle cx="565.0" cy="680" r="112.0" fill="#ffffff" opacity="0.75" stroke="#1E1B2E" stroke-width="7"/>
      <circle cx="565.0" cy="680" r="82.6" fill="none" stroke="#2EC4B6" stroke-width="6" opacity="0.45"/>
      <polygon points="565.00,575.00 590.51,644.89 664.86,647.55 606.28,693.41 626.72,764.95 565.00,723.40 503.28,764.95 523.72,693.41 465.14,647.55 539.49,644.89" fill="none" stroke="#1E1B2E" stroke-width="8" stroke-linejoin="round" opacity="0.95"/>
      <circle cx="565.0" cy="680" r="12.6" fill="#2EC4B6" opacity="0.55"/>
      <path d="M 498.5 729.0 Q 565.0 788.5 631.5 729.0" fill="none" stroke="#2EC4B6" stroke-width="7" opacity="0.35" stroke-linecap="round"/>
    </g>
    </g><line x1="322.0" y1="621.8" x2="259.8" y2="594.2" stroke="#ffffff" stroke-width="2.2" opacity="0.18"/>
<line x1="259.8" y1="594.2" x2="399.3" y2="469.1" stroke="#ffffff" stroke-width="2.2" opacity="0.15"/>
<line x1="399.3" y1="469.1" x2="270.3" y2="586.5" stroke="#ffffff" stroke-width="2.2" opacity="0.19"/>
<line x1="270.3" y1="586.5" x2="218.3" y2="394.0" stroke="#ffffff" stroke-width="2.2" opacity="0.20"/>
<line x1="218.3" y1="394.0" x2="177.6" y2="663.3" stroke="#ffffff" stroke-width="2.2" opacity="0.09"/>
<line x1="177.6" y1="663.3" x2="411.8" y2="235.0" stroke="#ffffff" stroke-width="2.2" opacity="0.16"/>
<circle cx="303.1" cy="589.0" r="2.6" fill="#ffffff" opacity="0.34380515008268586"/>
<circle cx="270.3" cy="586.5" r="3.3" fill="#ffffff" opacity="0.29621895847843477"/>
<circle cx="218.3" cy="394.0" r="1.9" fill="#ffffff" opacity="0.46300349265115837"/>
<circle cx="504.1" cy="268.7" r="2.2" fill="#ffffff" opacity="0.42383994069727143"/>
<circle cx="599.0" cy="262.7" r="4.6" fill="#ffffff" opacity="0.4329551584858409"/>
<circle cx="259.8" cy="594.2" r="3.7" fill="#ffffff" opacity="0.3664575636048101"/>
<circle cx="206.6" cy="634.1" r="3.1" fill="#ffffff" opacity="0.6710533942857082"/>
<circle cx="322.0" cy="621.8" r="2.6" fill="#ffffff" opacity="0.4373401554484478"/>
<circle cx="399.3" cy="469.1" r="3.3" fill="#ffffff" opacity="0.409502410220925"/>
<circle cx="228.3" cy="500.1" r="1.7" fill="#ffffff" opacity="0.4765046885749199"/>
<circle cx="411.8" cy="235.0" r="1.7" fill="#ffffff" opacity="0.49663932120135434"/>
<circle cx="351.4" cy="398.9" r="2.7" fill="#ffffff" opacity="0.4186104980088914"/>
<circle cx="577.1" cy="282.1" r="3.4" fill="#ffffff" opacity="0.7407409076057041"/>
<circle cx="177.6" cy="663.3" r="2.3" fill="#ffffff" opacity="0.7469964902983406"/>
<rect x="42" y="1030" width="666" height="160" rx="30" fill="#ffffffd9" stroke="#1E1B2E" stroke-width="4" opacity="0.95"/>
<text x="375.0" y="1104" font-family="ui-sans-serif, system-ui, -apple-system, Segoe UI, Roboto, Helvetica, Arial" font-size="46" font-weight="900" text-anchor="middle" fill="#1E1B2E" opacity="0.98">Knight of Pentacles</text>
<text x="375.0" y="1152" font-family="ui-sans-serif, system-ui, -apple-system, Segoe UI, Roboto, Helvetica, Arial" font-size="28" font-weight="700" text-anchor="middle" fill="#1E1B2E" opacity="0.7">Bold</text>

    <g opacity="0.55">
      <circle cx="127" cy="1176" r="14" fill="#2EC4B6"/>
      <circle cx="623" cy="1176" r="14" fill="#2EC4B6"/>
      <path d="M 162 1176 L 588 1176" stroke="#2EC4B6" stroke-width="4" opacity="0.45" stroke-linecap="round"/>
    </g>
    
</svg>
