<svg xmlns="http://www.w3.org/2000/svg" width="750" height="1250" viewBox="0 0 750 1250">
  <title>Queen of Pentacles</title>


  <defs>
    <linearGradient id="g" x1="0" y1="0" x2="1" y2="1">
      <stop offset="0%" stop-color="#EAF7FF"/>
      <stop offset="100%" stop-color="#F3E6FF"/>
    </linearGradient>

    <!-- paper texture -->
    <filter id="paper" x="-20%" y="-20%" width="140%" height="140%">
      <feTurbulence type="fractalNoise" baseFrequency="0.016" numOctaves="3" seed="2374" result="noise"/>
      <feColorMatrix in="noise" type="matrix"
        values="1 0 0 0 0
                0 1 0 0 0
                0 0 1 0 0
                0 0 0 0.25 0" result="noiseAlpha"/>
      <feComposite in="noiseAlpha" in2="SourceGraphic" operator="over"/>
    </filter>

    <!-- soft glow -->
    <filter id="glow" x="-30%" y="-30%" width="160%" height="160%">
      <feGaussianBlur stdDeviation="10" result="blur"/>
      <feColorMatrix type="matrix" values="
        1 0 0 0 0
        0 1 0 0 0
        0 0 1 0 0
        0 0 0 0.32 0" result="blurAlpha"/>
      <feMerge>
        <feMergeNode in="blurAlpha"/>
        <feMergeNode in="SourceGraphic"/>
      </feMerge>
    </filter>
  </defs>

<rect x="0" y="0" width="750" height="1250" rx="58" ry="58" fill="url(#g)" stroke="none" stroke-width="0" opacity="1"/>
<rect x="0" y="0" width="750" height="1250" fill="#ffffff" opacity="0.08"/>
<line x1="314.9" y1="719.5" x2="62.9" y2="819.3" stroke="#ffffff" stroke-width="2.2" opacity="0.08"/>
<line x1="62.9" y1="819.3" x2="220.1" y2="1072.6" stroke="#ffffff" stroke-width="2.2" opacity="0.11"/>
<line x1="220.1" y1="1072.6" x2="272.9" y2="842.2" stroke="#ffffff" stroke-width="2.2" opacity="0.10"/>
<line x1="272.9" y1="842.2" x2="533.5" y2="225.7" stroke="#ffffff" stroke-width="2.2" opacity="0.21"/>
<line x1="533.5" y1="225.7" x2="546.7" y2="339.6" stroke="#ffffff" stroke-width="2.2" opacity="0.20"/>
<line x1="546.7" y1="339.6" x2="509.9" y2="891.9" stroke="#ffffff" stroke-width="2.2" opacity="0.19"/>
<line x1="509.9" y1="891.9" x2="401.0" y2="888.4" stroke="#ffffff" stroke-width="2.2" opacity="0.10"/>
<line x1="401.0" y1="888.4" x2="356.4" y2="128.1" stroke="#ffffff" stroke-width="2.2" opacity="0.10"/>
<line x1="356.4" y1="128.1" x2="592.7" y2="928.5" stroke="#ffffff" stroke-width="2.2" opacity="0.09"/>
<line x1="592.7" y1="928.5" x2="622.7" y2="1168.6" stroke="#ffffff" stroke-width="2.2" opacity="0.13"/>
<line x1="622.7" y1="1168.6" x2="83.6" y2="1087.8" stroke="#ffffff" stroke-width="2.2" opacity="0.12"/>
<line x1="83.6" y1="1087.8" x2="588.6" y2="898.5" stroke="#ffffff" stroke-width="2.2" opacity="0.20"/>
<line x1="588.6" y1="898.5" x2="678.8" y2="88.3" stroke="#ffffff" stroke-width="2.2" opacity="0.18"/>
<line x1="678.8" y1="88.3" x2="658.8" y2="1086.7" stroke="#ffffff" stroke-width="2.2" opacity="0.17"/>
<line x1="658.8" y1="1086.7" x2="126.8" y2="425.0" stroke="#ffffff" stroke-width="2.2" opacity="0.18"/>
<line x1="126.8" y1="425.0" x2="453.1" y2="531.7" stroke="#ffffff" stroke-width="2.2" opacity="0.16"/>
<line x1="453.1" y1="531.7" x2="96.9" y2="499.1" stroke="#ffffff" stroke-width="2.2" opacity="0.21"/>
<line x1="96.9" y1="499.1" x2="459.0" y2="329.1" stroke="#ffffff" stroke-width="2.2" opacity="0.12"/>
<circle cx="62.9" cy="819.3" r="2.5" fill="#ffffff" opacity="0.844946926516599"/>
<circle cx="335.3" cy="271.6" r="3.9" fill="#ffffff" opacity="0.3070032025575573"/>
<circle cx="430.2" cy="1106.8" r="3.1" fill="#ffffff" opacity="0.6266013062441934"/>
<circle cx="105.8" cy="1099.5" r="2.2" fill="#ffffff" opacity="0.30250836094405903"/>
<circle cx="126.8" cy="425.0" r="2.6" fill="#ffffff" opacity="0.4009807916168607"/>
<circle cx="185.0" cy="321.3" r="2.7" fill="#ffffff" opacity="0.6026569476691823"/>
<circle cx="401.3" cy="490.0" r="2.2" fill="#ffffff" opacity="0.5329102087869173"/>
<circle cx="467.3" cy="1029.7" r="3.0" fill="#ffffff" opacity="0.5065655019877898"/>
<circle cx="240.7" cy="1086.2" r="4.3" fill="#ffffff" opacity="0.8444453537290937"/>
<circle cx="622.7" cy="1168.6" r="3.0" fill="#ffffff" opacity="0.6604686647934933"/>
<circle cx="669.8" cy="532.6" r="3.1" fill="#ffffff" opacity="0.43101699621161793"/>
<circle cx="394.0" cy="290.2" r="2.2" fill="#ffffff" opacity="0.6687378812513727"/>
<circle cx="533.5" cy="225.7" r="4.2" fill="#ffffff" opacity="0.6664137407587525"/>
<circle cx="356.4" cy="128.1" r="4.4" fill="#ffffff" opacity="0.8156304203794199"/>
<circle cx="361.6" cy="739.5" r="2.8" fill="#ffffff" opacity="0.25959338904880247"/>
<circle cx="314.9" cy="719.5" r="3.1" fill="#ffffff" opacity="0.43010096840948453"/>
<circle cx="343.3" cy="453.2" r="1.6" fill="#ffffff" opacity="0.7940093179950202"/>
<circle cx="467.6" cy="452.3" r="2.6" fill="#ffffff" opacity="0.5454719668394006"/>
<circle cx="96.9" cy="499.1" r="3.6" fill="#ffffff" opacity="0.609479883143933"/>
<circle cx="585.9" cy="1189.7" r="1.9" fill="#ffffff" opacity="0.842051931327748"/>
<circle cx="592.7" cy="928.5" r="3.2" fill="#ffffff" opacity="0.674533390458508"/>
<circle cx="272.9" cy="842.2" r="2.6" fill="#ffffff" opacity="0.45300696317646305"/>
<circle cx="658.8" cy="1086.7" r="3.4" fill="#ffffff" opacity="0.30231324882631955"/>
<circle cx="343.6" cy="1000.6" r="3.7" fill="#ffffff" opacity="0.594132864949321"/>
<circle cx="442.7" cy="610.4" r="2.1" fill="#ffffff" opacity="0.28080564031154603"/>
<circle cx="538.5" cy="508.2" r="3.8" fill="#ffffff" opacity="0.5914397036985359"/>
<circle cx="220.1" cy="1072.6" r="1.7" fill="#ffffff" opacity="0.4045623144994125"/>
<circle cx="401.0" cy="888.4" r="3.0" fill="#ffffff" opacity="0.5529543146891402"/>
<circle cx="64.8" cy="330.0" r="2.1" fill="#ffffff" opacity="0.5379748765531813"/>
<circle cx="588.6" cy="898.5" r="2.9" fill="#ffffff" opacity="0.5548635470888099"/>
<circle cx="447.3" cy="391.4" r="4.2" fill="#ffffff" opacity="0.760317114987116"/>
<circle cx="318.0" cy="267.4" r="4.1" fill="#ffffff" opacity="0.3707031446127243"/>
<circle cx="546.7" cy="339.6" r="4.6" fill="#ffffff" opacity="0.32823448853646314"/>
<circle cx="194.9" cy="377.1" r="4.8" fill="#ffffff" opacity="0.4669454356528512"/>
<circle cx="707.2" cy="359.5" r="1.8" fill="#ffffff" opacity="0.6511928597114107"/>
<circle cx="187.9" cy="354.4" r="2.9" fill="#ffffff" opacity="0.6861718698892949"/>
<circle cx="678.8" cy="88.3" r="3.7" fill="#ffffff" opacity="0.3425889745386077"/>
<circle cx="83.6" cy="1087.8" r="3.4" fill="#ffffff" opacity="0.7228484736117728"/>
<circle cx="459.0" cy="329.1" r="2.7" fill="#ffffff" opacity="0.5919708382737254"/>
<circle cx="120.7" cy="264.7" r="3.0" fill="#ffffff" opacity="0.6968894964298995"/>
<circle cx="93.5" cy="704.7" r="2.8" fill="#ffffff" opacity="0.6836637252628537"/>
<circle cx="50.5" cy="267.9" r="2.3" fill="#ffffff" opacity="0.8075003052277848"/>
<circle cx="509.9" cy="891.9" r="1.9" fill="#ffffff" opacity="0.3369759483111205"/>
<circle cx="453.1" cy="531.7" r="3.6" fill="#ffffff" opacity="0.6347684671209202"/>
<circle cx="80.6" cy="879.7" r="4.6" fill="#ffffff" opacity="0.5109374515782362"/>
<circle cx="302.8" cy="731.7" r="2.7" fill="#ffffff" opacity="0.4005570350313982"/>
<circle cx="693.2" cy="1019.1" r="2.1" fill="#ffffff" opacity="0.3805149249646783"/>
<circle cx="57.5" cy="230.2" r="1.7" fill="#ffffff" opacity="0.42449700991145506"/>
<circle cx="364.4" cy="50.8" r="2.2" fill="#ffffff" opacity="0.41224132421831294"/>
<circle cx="333.2" cy="1170.9" r="3.2" fill="#ffffff" opacity="0.6637141714269563"/>
<g filter="url(#paper)"><rect x="42" y="42" width="666" height="1166" rx="54" ry="54" fill="none" stroke="#1E1B2E" stroke-width="8" opacity="0.95"/>
<rect x="60" y="60" width="630" height="1130" rx="46" ry="46" fill="none" stroke="#2EC4B6" stroke-width="3" opacity="0.35"/>

  <g opacity="0.42">
    <circle cx="375.0" cy="560" r="285" fill="none" stroke="#2EC4B6" stroke-width="4.2" opacity="0.42"/>
    <circle cx="375.0" cy="560" r="233.7" fill="none" stroke="#2EC4B6" stroke-width="2.2" opacity="0.23"/>
    <line x1="642.0" y1="560.0" x2="674.0" y2="560.0" stroke="#2EC4B6" stroke-width="3.2" opacity="0.23" stroke-linecap="round"/><line x1="606.2" y1="693.5" x2="633.9" y2="709.5" stroke="#2EC4B6" stroke-width="3.2" opacity="0.23" stroke-linecap="round"/><line x1="508.5" y1="791.2" x2="524.5" y2="818.9" stroke="#2EC4B6" stroke-width="3.2" opacity="0.23" stroke-linecap="round"/><line x1="375.0" y1="827.0" x2="375.0" y2="859.0" stroke="#2EC4B6" stroke-width="3.2" opacity="0.23" stroke-linecap="round"/><line x1="241.5" y1="791.2" x2="225.5" y2="818.9" stroke="#2EC4B6" stroke-width="3.2" opacity="0.23" stroke-linecap="round"/><line x1="143.8" y1="693.5" x2="116.1" y2="709.5" stroke="#2EC4B6" stroke-width="3.2" opacity="0.23" stroke-linecap="round"/><line x1="108.0" y1="560.0" x2="76.0" y2="560.0" stroke="#2EC4B6" stroke-width="3.2" opacity="0.23" stroke-linecap="round"/><line x1="143.8" y1="426.5" x2="116.1" y2="410.5" stroke="#2EC4B6" stroke-width="3.2" opacity="0.23" stroke-linecap="round"/><line x1="241.5" y1="328.8" x2="225.5" y2="301.1" stroke="#2EC4B6" stroke-width="3.2" opacity="0.23" stroke-linecap="round"/><line x1="375.0" y1="293.0" x2="375.0" y2="261.0" stroke="#2EC4B6" stroke-width="3.2" opacity="0.23" stroke-linecap="round"/><line x1="508.5" y1="328.8" x2="524.5" y2="301.1" stroke="#2EC4B6" stroke-width="3.2" opacity="0.23" stroke-linecap="round"/><line x1="606.2" y1="426.5" x2="633.9" y2="410.5" stroke="#2EC4B6" stroke-width="3.2" opacity="0.23" stroke-linecap="round"/>
    <circle cx="660.0" cy="556.1" r="3.8" fill="#2EC4B6" opacity="0.24"/><circle cx="648.8" cy="639.0" r="3.6" fill="#2EC4B6" opacity="0.36"/><circle cx="625.6" cy="695.8" r="2.8" fill="#2EC4B6" opacity="0.21"/><circle cx="570.8" cy="767.1" r="2.9" fill="#2EC4B6" opacity="0.33"/><circle cx="525.8" cy="801.8" r="3.7" fill="#2EC4B6" opacity="0.33"/><circle cx="440.2" cy="837.4" r="3.3" fill="#2EC4B6" opacity="0.23"/><circle cx="371.0" cy="845.0" r="2.7" fill="#2EC4B6" opacity="0.22"/><circle cx="299.6" cy="834.8" r="3.5" fill="#2EC4B6" opacity="0.19"/><circle cx="224.4" cy="802.0" r="3.5" fill="#2EC4B6" opacity="0.34"/><circle cx="178.9" cy="766.8" r="3.8" fill="#2EC4B6" opacity="0.39"/><circle cx="127.8" cy="701.8" r="3.3" fill="#2EC4B6" opacity="0.34"/><circle cx="100.1" cy="635.3" r="2.9" fill="#2EC4B6" opacity="0.42"/><circle cx="90.1" cy="551.3" r="2.9" fill="#2EC4B6" opacity="0.28"/><circle cx="102.4" cy="476.9" r="3.7" fill="#2EC4B6" opacity="0.34"/><circle cx="132.5" cy="410.3" r="3.2" fill="#2EC4B6" opacity="0.38"/><circle cx="176.2" cy="355.8" r="2.7" fill="#2EC4B6" opacity="0.25"/><circle cx="237.1" cy="310.6" r="3.1" fill="#2EC4B6" opacity="0.28"/><circle cx="293.5" cy="286.9" r="3.5" fill="#2EC4B6" opacity="0.41"/><circle cx="369.6" cy="275.1" r="3.7" fill="#2EC4B6" opacity="0.32"/><circle cx="446.9" cy="284.2" r="3.5" fill="#2EC4B6" opacity="0.21"/><circle cx="512.0" cy="310.1" r="3.7" fill="#2EC4B6" opacity="0.34"/><circle cx="578.9" cy="360.8" r="3.2" fill="#2EC4B6" opacity="0.34"/><circle cx="625.7" cy="424.4" r="3.5" fill="#2EC4B6" opacity="0.44"/><circle cx="647.7" cy="477.1" r="3.8" fill="#2EC4B6" opacity="0.30"/>
  </g>

<g><g transform="translate(50,54)"><path d="M 21.6 140.4 Q 75.6 36.0 165.6 68.4 Q 93.6 79.2 72.0 126.0" fill="none" stroke="#2EC4B6" stroke-width="6" opacity="0.55" stroke-linecap="round"/></g><g transform="translate(700,54) scale(-1,1)"><path d="M 21.6 140.4 Q 75.6 36.0 165.6 68.4 Q 93.6 79.2 72.0 126.0" fill="none" stroke="#2EC4B6" stroke-width="6" opacity="0.55" stroke-linecap="round"/></g><g transform="translate(50,1196) scale(1,-1)"><path d="M 21.6 140.4 Q 75.6 36.0 165.6 68.4 Q 93.6 79.2 72.0 126.0" fill="none" stroke="#2EC4B6" stroke-width="6" opacity="0.55" stroke-linecap="round"/></g><g transform="translate(700,1196) scale(-1,-1)"><path d="M 21.6 140.4 Q 75.6 36.0 165.6 68.4 Q 93.6 79.2 72.0 126.0" fill="none" stroke="#2EC4B6" stroke-width="6" opacity="0.55" stroke-linecap="round"/></g></g></g>
<rect x="42" y="60" width="666" height="92" rx="30" fill="#ffffffcc" stroke="#1E1B2E" stroke-width="4" opacity="0.95"/>
<text x="375.0" y="122" font-family="ui-sans-serif, system-ui, -apple-system, Segoe UI, Roboto, Helvetica, Arial" font-size="30" font-weight="800" text-anchor="middle" fill="#1E1B2E" opacity="0.95" letter-spacing="1">MINOR ARCANA • PENTACLES</text>
<rect x="76" y="170" width="598" height="760" rx="52" fill="#ffffff" opacity="0.15"/>
<g><circle cx="432.9" cy="259.6" r="2.6" fill="#2EC4B6" opacity="0.07"/><circle cx="378.6" cy="281.7" r="1.7" fill="#2EC4B6" opacity="0.07"/><circle cx="616.9" cy="651.4" r="2.3" fill="#2EC4B6" opacity="0.07"/><circle cx="506.8" cy="530.4" r="2.9" fill="#2EC4B6" opacity="0.07"/><circle cx="591.6" cy="274.3" r="1.9" fill="#2EC4B6" opacity="0.07"/><circle cx="404.1" cy="693.4" r="2.7" fill="#2EC4B6" opacity="0.07"/><circle cx="545.1" cy="544.4" r="1.7" fill="#2EC4B6" opacity="0.07"/><circle cx="296.0" cy="850.8" r="3.1" fill="#2EC4B6" opacity="0.07"/><circle cx="151.7" cy="470.2" r="2.9" fill="#2EC4B6" opacity="0.07"/><circle cx="252.7" cy="856.5" r="2.0" fill="#2EC4B6" opacity="0.07"/><circle cx="668.7" cy="849.9" r="1.7" fill="#2EC4B6" opacity="0.07"/><circle cx="584.7" cy="697.0" r="2.4" fill="#2EC4B6" opacity="0.07"/><circle cx="494.0" cy="850.8" r="2.8" fill="#2EC4B6" opacity="0.07"/><circle cx="629.5" cy="612.0" r="3.0" fill="#2EC4B6" opacity="0.07"/><circle cx="204.4" cy="564.9" r="2.5" fill="#2EC4B6" opacity="0.07"/><circle cx="590.8" cy="781.9" r="2.1" fill="#2EC4B6" opacity="0.07"/><circle cx="504.7" cy="447.3" r="1.7" fill="#2EC4B6" opacity="0.07"/><circle cx="482.5" cy="633.8" r="2.0" fill="#2EC4B6" opacity="0.07"/><circle cx="95.2" cy="717.4" r="2.1" fill="#2EC4B6" opacity="0.07"/><circle cx="347.9" cy="290.1" r="3.0" fill="#2EC4B6" opacity="0.07"/><circle cx="358.5" cy="645.6" r="1.7" fill="#2EC4B6" opacity="0.07"/><circle cx="269.9" cy="780.1" r="2.5" fill="#2EC4B6" opacity="0.07"/><circle cx="662.7" cy="262.3" r="2.1" fill="#2EC4B6" opacity="0.07"/><circle cx="524.1" cy="335.9" r="1.9" fill="#2EC4B6" opacity="0.07"/><circle cx="488.4" cy="556.9" r="1.5" fill="#2EC4B6" opacity="0.07"/><circle cx="222.2" cy="686.5" r="3.1" fill="#2EC4B6" opacity="0.07"/><circle cx="616.3" cy="258.4" r="2.2" fill="#2EC4B6" opacity="0.07"/><circle cx="192.9" cy="636.2" r="3.1" fill="#2EC4B6" opacity="0.07"/><circle cx="58.1" cy="716.2" r="2.3" fill="#2EC4B6" opacity="0.07"/><circle cx="684.9" cy="218.9" r="2.0" fill="#2EC4B6" opacity="0.07"/><circle cx="71.6" cy="369.7" r="1.8" fill="#2EC4B6" opacity="0.07"/><circle cx="445.5" cy="862.7" r="2.4" fill="#2EC4B6" opacity="0.07"/><circle cx="105.5" cy="274.8" r="2.4" fill="#2EC4B6" opacity="0.07"/><circle cx="542.0" cy="409.4" r="2.5" fill="#2EC4B6" opacity="0.07"/><circle cx="641.2" cy="546.4" r="1.9" fill="#2EC4B6" opacity="0.07"/><circle cx="216.6" cy="647.8" r="2.7" fill="#2EC4B6" opacity="0.07"/><circle cx="320.9" cy="457.4" r="1.6" fill="#2EC4B6" opacity="0.07"/><circle cx="577.7" cy="801.9" r="2.4" fill="#2EC4B6" opacity="0.07"/><circle cx="552.0" cy="796.5" r="2.2" fill="#2EC4B6" opacity="0.07"/><circle cx="451.0" cy="744.0" r="2.1" fill="#2EC4B6" opacity="0.07"/><circle cx="237.9" cy="268.5" r="3.1" fill="#2EC4B6" opacity="0.07"/><circle cx="516.6" cy="404.6" r="2.4" fill="#2EC4B6" opacity="0.07"/><circle cx="380.0" cy="800.4" r="1.6" fill="#2EC4B6" opacity="0.07"/><circle cx="442.7" cy="776.1" r="2.2" fill="#2EC4B6" opacity="0.07"/><circle cx="91.0" cy="264.7" r="3.0" fill="#2EC4B6" opacity="0.07"/><circle cx="201.1" cy="678.9" r="2.8" fill="#2EC4B6" opacity="0.07"/><circle cx="612.2" cy="857.4" r="2.6" fill="#2EC4B6" opacity="0.07"/><circle cx="179.6" cy="395.6" r="1.6" fill="#2EC4B6" opacity="0.07"/><circle cx="206.8" cy="277.0" r="2.3" fill="#2EC4B6" opacity="0.07"/><circle cx="468.8" cy="580.3" r="2.7" fill="#2EC4B6" opacity="0.07"/><circle cx="661.2" cy="210.1" r="3.0" fill="#2EC4B6" opacity="0.07"/><circle cx="50.5" cy="816.2" r="1.6" fill="#2EC4B6" opacity="0.07"/><circle cx="132.3" cy="535.4" r="1.6" fill="#2EC4B6" opacity="0.07"/><circle cx="530.2" cy="604.9" r="2.4" fill="#2EC4B6" opacity="0.07"/><circle cx="89.2" cy="891.7" r="3.1" fill="#2EC4B6" opacity="0.07"/><circle cx="423.4" cy="559.9" r="1.7" fill="#2EC4B6" opacity="0.07"/><circle cx="473.8" cy="566.7" r="3.2" fill="#2EC4B6" opacity="0.07"/><circle cx="596.1" cy="378.9" r="2.8" fill="#2EC4B6" opacity="0.07"/><circle cx="421.1" cy="320.8" r="2.6" fill="#2EC4B6" opacity="0.07"/><circle cx="544.1" cy="283.6" r="1.6" fill="#2EC4B6" opacity="0.07"/><circle cx="702.2" cy="840.0" r="3.0" fill="#2EC4B6" opacity="0.07"/><circle cx="345.5" cy="489.0" r="2.8" fill="#2EC4B6" opacity="0.07"/><circle cx="117.7" cy="700.0" r="2.9" fill="#2EC4B6" opacity="0.07"/><circle cx="69.6" cy="415.3" r="1.7" fill="#2EC4B6" opacity="0.07"/><circle cx="515.2" cy="504.6" r="1.9" fill="#2EC4B6" opacity="0.07"/><circle cx="281.5" cy="812.4" r="2.0" fill="#2EC4B6" opacity="0.07"/><circle cx="696.9" cy="799.0" r="2.3" fill="#2EC4B6" opacity="0.07"/><circle cx="224.8" cy="444.9" r="2.7" fill="#2EC4B6" opacity="0.07"/><circle cx="324.4" cy="754.2" r="2.9" fill="#2EC4B6" opacity="0.07"/><circle cx="705.6" cy="898.8" r="2.1" fill="#2EC4B6" opacity="0.07"/><circle cx="465.5" cy="469.9" r="2.5" fill="#2EC4B6" opacity="0.07"/><circle cx="514.0" cy="284.1" r="1.6" fill="#2EC4B6" opacity="0.07"/><circle cx="388.7" cy="472.6" r="1.5" fill="#2EC4B6" opacity="0.07"/><circle cx="119.9" cy="516.5" r="1.7" fill="#2EC4B6" opacity="0.07"/><circle cx="683.2" cy="706.3" r="1.9" fill="#2EC4B6" opacity="0.07"/><circle cx="327.8" cy="424.7" r="2.0" fill="#2EC4B6" opacity="0.07"/><circle cx="113.2" cy="305.1" r="1.6" fill="#2EC4B6" opacity="0.07"/><circle cx="505.2" cy="295.2" r="2.2" fill="#2EC4B6" opacity="0.07"/><circle cx="101.9" cy="250.1" r="2.5" fill="#2EC4B6" opacity="0.07"/><circle cx="487.3" cy="394.0" r="1.5" fill="#2EC4B6" opacity="0.07"/><circle cx="430.1" cy="486.9" r="3.1" fill="#2EC4B6" opacity="0.07"/><circle cx="297.8" cy="413.3" r="1.9" fill="#2EC4B6" opacity="0.07"/><circle cx="51.8" cy="428.0" r="2.4" fill="#2EC4B6" opacity="0.07"/><circle cx="300.2" cy="533.0" r="2.6" fill="#2EC4B6" opacity="0.07"/><circle cx="446.5" cy="726.4" r="2.4" fill="#2EC4B6" opacity="0.07"/><circle cx="477.3" cy="521.4" r="1.8" fill="#2EC4B6" opacity="0.07"/><circle cx="513.7" cy="527.6" r="2.3" fill="#2EC4B6" opacity="0.07"/><circle cx="632.3" cy="212.9" r="2.5" fill="#2EC4B6" opacity="0.07"/><circle cx="69.2" cy="368.3" r="3.2" fill="#2EC4B6" opacity="0.07"/><circle cx="174.7" cy="296.8" r="2.4" fill="#2EC4B6" opacity="0.07"/><circle cx="588.6" cy="759.5" r="3.2" fill="#2EC4B6" opacity="0.07"/><circle cx="132.6" cy="520.8" r="2.2" fill="#2EC4B6" opacity="0.07"/><circle cx="140.7" cy="501.2" r="3.1" fill="#2EC4B6" opacity="0.07"/><circle cx="62.3" cy="521.2" r="2.2" fill="#2EC4B6" opacity="0.07"/><circle cx="112.7" cy="383.1" r="2.9" fill="#2EC4B6" opacity="0.07"/><circle cx="268.6" cy="687.9" r="3.1" fill="#2EC4B6" opacity="0.07"/><circle cx="678.5" cy="328.3" r="2.5" fill="#2EC4B6" opacity="0.07"/><circle cx="97.8" cy="236.6" r="2.5" fill="#2EC4B6" opacity="0.07"/><circle cx="260.4" cy="420.9" r="2.6" fill="#2EC4B6" opacity="0.07"/><circle cx="171.8" cy="661.0" r="2.7" fill="#2EC4B6" opacity="0.07"/><circle cx="691.1" cy="311.5" r="1.7" fill="#2EC4B6" opacity="0.07"/><circle cx="59.8" cy="262.3" r="2.0" fill="#2EC4B6" opacity="0.07"/><circle cx="135.2" cy="478.0" r="1.6" fill="#2EC4B6" opacity="0.07"/><circle cx="135.6" cy="648.6" r="3.1" fill="#2EC4B6" opacity="0.07"/><circle cx="259.0" cy="199.2" r="3.0" fill="#2EC4B6" opacity="0.07"/><circle cx="638.3" cy="800.2" r="2.8" fill="#2EC4B6" opacity="0.07"/><circle cx="344.4" cy="583.9" r="2.3" fill="#2EC4B6" opacity="0.07"/><circle cx="629.3" cy="842.9" r="3.0" fill="#2EC4B6" opacity="0.07"/><circle cx="594.1" cy="219.5" r="2.5" fill="#2EC4B6" opacity="0.07"/><circle cx="153.8" cy="479.7" r="3.1" fill="#2EC4B6" opacity="0.07"/></g><path d="M 255.0 320 Q 375.0 260 495.0 320 L 475.0 370 L 275.0 370 Z" fill="#ffffff" opacity="0.55" stroke="#2EC4B6" stroke-width="6"/>
        <g opacity="0.95">
          <circle cx="375.0" cy="500" r="88" fill="#ffffff" opacity="0.62" stroke="#1E1B2E" stroke-width="7"/>
          <circle cx="347.0" cy="482" r="10" fill="#1E1B2E" opacity="0.9"/>
          <circle cx="403.0" cy="482" r="10" fill="#1E1B2E" opacity="0.9"/>
          <path d="M 340.0 518 Q 375.0 540 410.0 518" fill="none" stroke="#1E1B2E" stroke-width="8" stroke-linecap="round"/>
          <rect x="235.0" y="570" width="280" height="330" rx="75" fill="#ffffff" opacity="0.50" stroke="#1E1B2E" stroke-width="7"/>
          <path d="M 265.0 680 Q 375.0 760 485.0 680" fill="none" stroke="#2EC4B6" stroke-width="10" opacity="0.35" stroke-linecap="round"/>
        </g>
        
        <g filter="url(#glow)">
          <circle cx="205.0" cy="720" r="85" fill="#ffffff" opacity="0.50" stroke="#1E1B2E" stroke-width="6"/>
          
    <g>
      <circle cx="205.0" cy="720" r="72.0" fill="#ffffff" opacity="0.75" stroke="#1E1B2E" stroke-width="7"/>
      <circle cx="205.0" cy="720" r="53.1" fill="none" stroke="#2EC4B6" stroke-width="6" opacity="0.45"/>
      <polygon points="205.00,652.50 221.40,697.43 269.20,699.14 231.53,728.62 244.68,774.61 205.00,747.90 165.32,774.61 178.47,728.62 140.80,699.14 188.60,697.43" fill="none" stroke="#1E1B2E" stroke-width="8" stroke-linejoin="round" opacity="0.95"/>
      <circle cx="205.0" cy="720" r="8.1" fill="#2EC4B6" opacity="0.55"/>
      <path d="M 162.2 751.5 Q 205.0 789.8 247.8 751.5" fill="none" stroke="#2EC4B6" stroke-width="7" opacity="0.35" stroke-linecap="round"/>
    </g>
    
        </g>
        <g filter="url(#glow)">
    <g>
      <circle cx="565.0" cy="680" r="112.0" fill="#ffffff" opacity="0.75" stroke="#1E1B2E" stroke-width="7"/>
      <circle cx="565.0" cy="680" r="82.6" fill="none" stroke="#2EC4B6" stroke-width="6" opacity="0.45"/>
      <polygon points="565.00,575.00 590.51,644.89 664.86,647.55 606.28,693.41 626.72,764.95 565.00,723.40 503.28,764.95 523.72,693.41 465.14,647.55 539.49,644.89" fill="none" stroke="#1E1B2E" stroke-width="8" stroke-linejoin="round" opacity="0.95"/>
      <circle cx="565.0" cy="680" r="12.6" fill="#2EC4B6" opacity="0.55"/>
      <path d="M 498.5 729.0 Q 565.0 788.5 631.5 729.0" fill="none" stroke="#2EC4B6" stroke-width="7" opacity="0.35" stroke-linecap="round"/>
    </g>
    </g><line x1="152.8" y1="634.0" x2="144.7" y2="466.2" stroke="#ffffff" stroke-width="2.2" opacity="0.16"/>
<line x1="144.7" y1="466.2" x2="180.1" y2="270.7" stroke="#ffffff" stroke-width="2.2" opacity="0.16"/>
<line x1="180.1" y1="270.7" x2="199.3" y2="459.6" stroke="#ffffff" stroke-width="2.2" opacity="0.13"/>
<line x1="199.3" y1="459.6" x2="373.5" y2="482.6" stroke="#ffffff" stroke-width="2.2" opacity="0.15"/>
<line x1="373.5" y1="482.6" x2="561.2" y2="496.6" stroke="#ffffff" stroke-width="2.2" opacity="0.14"/>
<line x1="561.2" y1="496.6" x2="446.6" y2="442.7" stroke="#ffffff" stroke-width="2.2" opacity="0.18"/>
<circle cx="446.6" cy="442.7" r="3.6" fill="#ffffff" opacity="0.7030088839377432"/>
<circle cx="434.2" cy="627.3" r="2.3" fill="#ffffff" opacity="0.6816797311033018"/>
<circle cx="469.0" cy="535.1" r="3.7" fill="#ffffff" opacity="0.8297052595529769"/>
<circle cx="152.8" cy="634.0" r="3.9" fill="#ffffff" opacity="0.49086308581325455"/>
<circle cx="315.9" cy="582.7" r="3.3" fill="#ffffff" opacity="0.2533077356239613"/>
<circle cx="144.7" cy="466.2" r="4.0" fill="#ffffff" opacity="0.25228203631122614"/>
<circle cx="563.6" cy="230.8" r="3.9" fill="#ffffff" opacity="0.5692117726144927"/>
<circle cx="180.1" cy="270.7" r="4.3" fill="#ffffff" opacity="0.2560088164575355"/>
<circle cx="165.8" cy="270.8" r="3.1" fill="#ffffff" opacity="0.5945411350663214"/>
<circle cx="373.5" cy="482.6" r="3.6" fill="#ffffff" opacity="0.7594102378635188"/>
<circle cx="316.5" cy="249.4" r="3.9" fill="#ffffff" opacity="0.6515639625634032"/>
<circle cx="561.2" cy="496.6" r="4.0" fill="#ffffff" opacity="0.6578706063162141"/>
<circle cx="199.3" cy="459.6" r="3.7" fill="#ffffff" opacity="0.7603017874291966"/>
<circle cx="372.6" cy="557.1" r="4.8" fill="#ffffff" opacity="0.7486437592413538"/>
<rect x="42" y="1030" width="666" height="160" rx="30" fill="#ffffffd9" stroke="#1E1B2E" stroke-width="4" opacity="0.95"/>
<text x="375.0" y="1104" font-family="ui-sans-serif, system-ui, -apple-system, Segoe UI, Roboto, Helvetica, Arial" font-size="46" font-weight="900" text-anchor="middle" fill="#1E1B2E" opacity="0.98">Queen of Pentacles</text>
<text x="375.0" y="1152" font-family="ui-sans-serif, system-ui, -apple-system, Segoe UI, Roboto, Helvetica, Arial" font-size="28" font-weight="700" text-anchor="middle" fill="#1E1B2E" opacity="0.7">Warm</text>

    <g opacity="0.55">
      <circle cx="127" cy="1176" r="14" fill="#2EC4B6"/>
      <circle cx="623" cy="1176" r="14" fill="#2EC4B6"/>
      <path d="M 162 1176 L 588 1176" stroke="#2EC4B6" stroke-width="4" opacity="0.45" stroke-linecap="round"/>
    </g>
    
</svg>
