<svg xmlns="http://www.w3.org/2000/svg" width="750" height="1250" viewBox="0 0 750 1250">
  <title>King of Pentacles</title>


  <defs>
    <linearGradient id="g" x1="0" y1="0" x2="1" y2="1">
      <stop offset="0%" stop-color="#FFF7E8"/>
      <stop offset="100%" stop-color="#E8F7FF"/>
    </linearGradient>

    <!-- paper texture -->
    <filter id="paper" x="-20%" y="-20%" width="140%" height="140%">
      <feTurbulence type="fractalNoise" baseFrequency="0.015" numOctaves="3" seed="6438" result="noise"/>
      <feColorMatrix in="noise" type="matrix"
        values="1 0 0 0 0
                0 1 0 0 0
                0 0 1 0 0
                0 0 0 0.25 0" result="noiseAlpha"/>
      <feComposite in="noiseAlpha" in2="SourceGraphic" operator="over"/>
    </filter>

    <!-- soft glow -->
    <filter id="glow" x="-30%" y="-30%" width="160%" height="160%">
      <feGaussianBlur stdDeviation="10" result="blur"/>
      <feColorMatrix type="matrix" values="
        1 0 0 0 0
        0 1 0 0 0
        0 0 1 0 0
        0 0 0 0.32 0" result="blurAlpha"/>
      <feMerge>
        <feMergeNode in="blurAlpha"/>
        <feMergeNode in="SourceGraphic"/>
      </feMerge>
    </filter>
  </defs>

<rect x="0" y="0" width="750" height="1250" rx="58" ry="58" fill="url(#g)" stroke="none" stroke-width="0" opacity="1"/>
<rect x="0" y="0" width="750" height="1250" fill="#ffffff" opacity="0.08"/>
<line x1="61.0" y1="448.7" x2="51.5" y2="97.8" stroke="#ffffff" stroke-width="2.2" opacity="0.18"/>
<line x1="51.5" y1="97.8" x2="126.9" y2="1162.5" stroke="#ffffff" stroke-width="2.2" opacity="0.14"/>
<line x1="126.9" y1="1162.5" x2="256.7" y2="214.7" stroke="#ffffff" stroke-width="2.2" opacity="0.13"/>
<line x1="256.7" y1="214.7" x2="688.9" y2="749.9" stroke="#ffffff" stroke-width="2.2" opacity="0.16"/>
<line x1="688.9" y1="749.9" x2="318.2" y2="500.5" stroke="#ffffff" stroke-width="2.2" opacity="0.15"/>
<line x1="318.2" y1="500.5" x2="198.0" y2="79.3" stroke="#ffffff" stroke-width="2.2" opacity="0.18"/>
<line x1="198.0" y1="79.3" x2="471.6" y2="719.8" stroke="#ffffff" stroke-width="2.2" opacity="0.13"/>
<line x1="471.6" y1="719.8" x2="661.3" y2="855.9" stroke="#ffffff" stroke-width="2.2" opacity="0.09"/>
<line x1="661.3" y1="855.9" x2="448.4" y2="651.8" stroke="#ffffff" stroke-width="2.2" opacity="0.18"/>
<line x1="448.4" y1="651.8" x2="342.6" y2="321.0" stroke="#ffffff" stroke-width="2.2" opacity="0.22"/>
<line x1="342.6" y1="321.0" x2="454.2" y2="820.1" stroke="#ffffff" stroke-width="2.2" opacity="0.15"/>
<line x1="454.2" y1="820.1" x2="573.4" y2="890.1" stroke="#ffffff" stroke-width="2.2" opacity="0.09"/>
<line x1="573.4" y1="890.1" x2="668.6" y2="117.8" stroke="#ffffff" stroke-width="2.2" opacity="0.12"/>
<line x1="668.6" y1="117.8" x2="157.7" y2="51.7" stroke="#ffffff" stroke-width="2.2" opacity="0.20"/>
<line x1="157.7" y1="51.7" x2="372.3" y2="797.0" stroke="#ffffff" stroke-width="2.2" opacity="0.19"/>
<line x1="372.3" y1="797.0" x2="129.2" y2="1203.3" stroke="#ffffff" stroke-width="2.2" opacity="0.13"/>
<line x1="129.2" y1="1203.3" x2="283.3" y2="761.6" stroke="#ffffff" stroke-width="2.2" opacity="0.15"/>
<line x1="283.3" y1="761.6" x2="579.5" y2="410.1" stroke="#ffffff" stroke-width="2.2" opacity="0.15"/>
<circle cx="275.7" cy="947.4" r="1.9" fill="#ffffff" opacity="0.5995687852934712"/>
<circle cx="693.4" cy="403.1" r="3.3" fill="#ffffff" opacity="0.7238172850309862"/>
<circle cx="288.0" cy="679.7" r="2.8" fill="#ffffff" opacity="0.837024755776891"/>
<circle cx="508.3" cy="918.3" r="3.9" fill="#ffffff" opacity="0.6607473681496177"/>
<circle cx="208.7" cy="373.9" r="4.7" fill="#ffffff" opacity="0.5702772719720594"/>
<circle cx="342.6" cy="321.0" r="3.3" fill="#ffffff" opacity="0.4594501568181181"/>
<circle cx="556.0" cy="1009.8" r="3.0" fill="#ffffff" opacity="0.844981117805882"/>
<circle cx="126.9" cy="1162.5" r="4.5" fill="#ffffff" opacity="0.46219621386648113"/>
<circle cx="77.6" cy="797.8" r="2.9" fill="#ffffff" opacity="0.501586482193807"/>
<circle cx="198.0" cy="79.3" r="1.7" fill="#ffffff" opacity="0.47297798345648"/>
<circle cx="454.2" cy="820.1" r="2.7" fill="#ffffff" opacity="0.4204292287290735"/>
<circle cx="432.5" cy="510.3" r="2.2" fill="#ffffff" opacity="0.6808483520392914"/>
<circle cx="366.9" cy="169.7" r="2.7" fill="#ffffff" opacity="0.6025474282163281"/>
<circle cx="580.0" cy="880.0" r="4.3" fill="#ffffff" opacity="0.5319078942835913"/>
<circle cx="69.7" cy="1138.9" r="4.2" fill="#ffffff" opacity="0.3737912262285414"/>
<circle cx="51.5" cy="97.8" r="2.0" fill="#ffffff" opacity="0.4554246881790388"/>
<circle cx="688.9" cy="749.9" r="4.5" fill="#ffffff" opacity="0.6593026422135033"/>
<circle cx="527.3" cy="1017.5" r="4.4" fill="#ffffff" opacity="0.27752681256838263"/>
<circle cx="318.2" cy="500.5" r="3.5" fill="#ffffff" opacity="0.7874644988338746"/>
<circle cx="61.0" cy="448.7" r="3.3" fill="#ffffff" opacity="0.35040572862834485"/>
<circle cx="573.4" cy="890.1" r="3.5" fill="#ffffff" opacity="0.6139990244765366"/>
<circle cx="432.0" cy="283.1" r="3.6" fill="#ffffff" opacity="0.8070453961585201"/>
<circle cx="477.5" cy="183.3" r="2.0" fill="#ffffff" opacity="0.5643269280878777"/>
<circle cx="471.6" cy="719.8" r="1.9" fill="#ffffff" opacity="0.44352265027748605"/>
<circle cx="548.9" cy="460.9" r="1.6" fill="#ffffff" opacity="0.3803602729348338"/>
<circle cx="372.3" cy="797.0" r="2.2" fill="#ffffff" opacity="0.3083813845430633"/>
<circle cx="659.5" cy="1107.9" r="3.9" fill="#ffffff" opacity="0.6743184638099076"/>
<circle cx="608.9" cy="1136.1" r="3.0" fill="#ffffff" opacity="0.49973469829659867"/>
<circle cx="573.5" cy="1053.3" r="4.5" fill="#ffffff" opacity="0.48172060502484015"/>
<circle cx="72.9" cy="1182.2" r="4.1" fill="#ffffff" opacity="0.602269953433251"/>
<circle cx="290.2" cy="438.5" r="3.9" fill="#ffffff" opacity="0.7023862698237906"/>
<circle cx="476.7" cy="411.6" r="3.3" fill="#ffffff" opacity="0.7031335128029279"/>
<circle cx="138.1" cy="557.3" r="3.7" fill="#ffffff" opacity="0.8178001453556646"/>
<circle cx="113.2" cy="1055.1" r="1.7" fill="#ffffff" opacity="0.5782985566785992"/>
<circle cx="169.4" cy="710.3" r="4.8" fill="#ffffff" opacity="0.8100440258141978"/>
<circle cx="283.3" cy="761.6" r="4.1" fill="#ffffff" opacity="0.6680928497836791"/>
<circle cx="476.9" cy="1067.7" r="3.5" fill="#ffffff" opacity="0.5998220378710981"/>
<circle cx="668.6" cy="117.8" r="3.0" fill="#ffffff" opacity="0.7978760041028372"/>
<circle cx="256.7" cy="214.7" r="4.1" fill="#ffffff" opacity="0.4630346795955079"/>
<circle cx="275.1" cy="101.4" r="1.7" fill="#ffffff" opacity="0.6608896789269734"/>
<circle cx="129.2" cy="1203.3" r="4.7" fill="#ffffff" opacity="0.7842511328102181"/>
<circle cx="547.4" cy="580.4" r="3.0" fill="#ffffff" opacity="0.6923668151846424"/>
<circle cx="656.2" cy="48.6" r="3.4" fill="#ffffff" opacity="0.4096900740568046"/>
<circle cx="579.5" cy="410.1" r="2.7" fill="#ffffff" opacity="0.3869066949807539"/>
<circle cx="448.4" cy="651.8" r="3.9" fill="#ffffff" opacity="0.3792205777176928"/>
<circle cx="628.5" cy="1013.2" r="3.0" fill="#ffffff" opacity="0.6752508219927118"/>
<circle cx="364.0" cy="943.1" r="2.6" fill="#ffffff" opacity="0.8442592825811619"/>
<circle cx="661.3" cy="855.9" r="3.7" fill="#ffffff" opacity="0.5440466419533525"/>
<circle cx="301.7" cy="911.8" r="1.8" fill="#ffffff" opacity="0.30601789666584445"/>
<circle cx="157.7" cy="51.7" r="2.3" fill="#ffffff" opacity="0.7919617749747329"/>
<g filter="url(#paper)"><rect x="42" y="42" width="666" height="1166" rx="54" ry="54" fill="none" stroke="#1E1B2E" stroke-width="8" opacity="0.95"/>
<rect x="60" y="60" width="630" height="1130" rx="46" ry="46" fill="none" stroke="#2EC4B6" stroke-width="3" opacity="0.35"/>

  <g opacity="0.42">
    <circle cx="375.0" cy="560" r="285" fill="none" stroke="#2EC4B6" stroke-width="4.2" opacity="0.42"/>
    <circle cx="375.0" cy="560" r="233.7" fill="none" stroke="#2EC4B6" stroke-width="2.2" opacity="0.23"/>
    <line x1="642.0" y1="560.0" x2="674.0" y2="560.0" stroke="#2EC4B6" stroke-width="3.2" opacity="0.23" stroke-linecap="round"/><line x1="606.2" y1="693.5" x2="633.9" y2="709.5" stroke="#2EC4B6" stroke-width="3.2" opacity="0.23" stroke-linecap="round"/><line x1="508.5" y1="791.2" x2="524.5" y2="818.9" stroke="#2EC4B6" stroke-width="3.2" opacity="0.23" stroke-linecap="round"/><line x1="375.0" y1="827.0" x2="375.0" y2="859.0" stroke="#2EC4B6" stroke-width="3.2" opacity="0.23" stroke-linecap="round"/><line x1="241.5" y1="791.2" x2="225.5" y2="818.9" stroke="#2EC4B6" stroke-width="3.2" opacity="0.23" stroke-linecap="round"/><line x1="143.8" y1="693.5" x2="116.1" y2="709.5" stroke="#2EC4B6" stroke-width="3.2" opacity="0.23" stroke-linecap="round"/><line x1="108.0" y1="560.0" x2="76.0" y2="560.0" stroke="#2EC4B6" stroke-width="3.2" opacity="0.23" stroke-linecap="round"/><line x1="143.8" y1="426.5" x2="116.1" y2="410.5" stroke="#2EC4B6" stroke-width="3.2" opacity="0.23" stroke-linecap="round"/><line x1="241.5" y1="328.8" x2="225.5" y2="301.1" stroke="#2EC4B6" stroke-width="3.2" opacity="0.23" stroke-linecap="round"/><line x1="375.0" y1="293.0" x2="375.0" y2="261.0" stroke="#2EC4B6" stroke-width="3.2" opacity="0.23" stroke-linecap="round"/><line x1="508.5" y1="328.8" x2="524.5" y2="301.1" stroke="#2EC4B6" stroke-width="3.2" opacity="0.23" stroke-linecap="round"/><line x1="606.2" y1="426.5" x2="633.9" y2="410.5" stroke="#2EC4B6" stroke-width="3.2" opacity="0.23" stroke-linecap="round"/>
    <circle cx="659.9" cy="568.6" r="2.6" fill="#2EC4B6" opacity="0.25"/><circle cx="651.0" cy="631.2" r="3.9" fill="#2EC4B6" opacity="0.36"/><circle cx="620.7" cy="704.4" r="3.1" fill="#2EC4B6" opacity="0.36"/><circle cx="574.1" cy="763.9" r="3.3" fill="#2EC4B6" opacity="0.22"/><circle cx="520.2" cy="805.2" r="3.4" fill="#2EC4B6" opacity="0.43"/><circle cx="457.6" cy="832.8" r="3.1" fill="#2EC4B6" opacity="0.40"/><circle cx="371.7" cy="845.0" r="2.8" fill="#2EC4B6" opacity="0.19"/><circle cx="299.1" cy="834.7" r="3.5" fill="#2EC4B6" opacity="0.24"/><circle cx="231.0" cy="806.0" r="3.7" fill="#2EC4B6" opacity="0.44"/><circle cx="172.1" cy="760.1" r="3.6" fill="#2EC4B6" opacity="0.33"/><circle cx="126.5" cy="699.5" r="3.8" fill="#2EC4B6" opacity="0.31"/><circle cx="101.9" cy="641.4" r="3.8" fill="#2EC4B6" opacity="0.32"/><circle cx="90.1" cy="569.1" r="3.6" fill="#2EC4B6" opacity="0.27"/><circle cx="99.4" cy="487.6" r="2.8" fill="#2EC4B6" opacity="0.32"/><circle cx="132.3" cy="410.7" r="3.0" fill="#2EC4B6" opacity="0.22"/><circle cx="168.7" cy="363.3" r="3.5" fill="#2EC4B6" opacity="0.23"/><circle cx="231.5" cy="313.8" r="3.1" fill="#2EC4B6" opacity="0.39"/><circle cx="309.7" cy="282.6" r="3.6" fill="#2EC4B6" opacity="0.36"/><circle cx="372.5" cy="275.0" r="3.7" fill="#2EC4B6" opacity="0.34"/><circle cx="440.0" cy="282.5" r="3.5" fill="#2EC4B6" opacity="0.37"/><circle cx="519.8" cy="314.5" r="3.0" fill="#2EC4B6" opacity="0.37"/><circle cx="571.9" cy="354.0" r="3.3" fill="#2EC4B6" opacity="0.43"/><circle cx="625.8" cy="424.6" r="2.8" fill="#2EC4B6" opacity="0.39"/><circle cx="647.6" cy="476.9" r="3.0" fill="#2EC4B6" opacity="0.43"/>
  </g>

<g><g transform="translate(50,54)"><path d="M 21.6 140.4 Q 75.6 36.0 165.6 68.4 Q 93.6 79.2 72.0 126.0" fill="none" stroke="#2EC4B6" stroke-width="6" opacity="0.55" stroke-linecap="round"/></g><g transform="translate(700,54) scale(-1,1)"><path d="M 21.6 140.4 Q 75.6 36.0 165.6 68.4 Q 93.6 79.2 72.0 126.0" fill="none" stroke="#2EC4B6" stroke-width="6" opacity="0.55" stroke-linecap="round"/></g><g transform="translate(50,1196) scale(1,-1)"><path d="M 21.6 140.4 Q 75.6 36.0 165.6 68.4 Q 93.6 79.2 72.0 126.0" fill="none" stroke="#2EC4B6" stroke-width="6" opacity="0.55" stroke-linecap="round"/></g><g transform="translate(700,1196) scale(-1,-1)"><path d="M 21.6 140.4 Q 75.6 36.0 165.6 68.4 Q 93.6 79.2 72.0 126.0" fill="none" stroke="#2EC4B6" stroke-width="6" opacity="0.55" stroke-linecap="round"/></g></g></g>
<rect x="42" y="60" width="666" height="92" rx="30" fill="#ffffffcc" stroke="#1E1B2E" stroke-width="4" opacity="0.95"/>
<text x="375.0" y="122" font-family="ui-sans-serif, system-ui, -apple-system, Segoe UI, Roboto, Helvetica, Arial" font-size="30" font-weight="800" text-anchor="middle" fill="#1E1B2E" opacity="0.95" letter-spacing="1">MINOR ARCANA • PENTACLES</text>
<rect x="76" y="170" width="598" height="760" rx="52" fill="#ffffff" opacity="0.15"/>
<g><circle cx="665.0" cy="275.6" r="1.6" fill="#2EC4B6" opacity="0.07"/><circle cx="608.2" cy="623.6" r="2.5" fill="#2EC4B6" opacity="0.07"/><circle cx="453.0" cy="580.6" r="2.3" fill="#2EC4B6" opacity="0.07"/><circle cx="697.2" cy="294.3" r="1.9" fill="#2EC4B6" opacity="0.07"/><circle cx="122.6" cy="546.7" r="2.6" fill="#2EC4B6" opacity="0.07"/><circle cx="618.8" cy="558.8" r="1.8" fill="#2EC4B6" opacity="0.07"/><circle cx="287.3" cy="259.7" r="2.2" fill="#2EC4B6" opacity="0.07"/><circle cx="258.1" cy="825.6" r="3.0" fill="#2EC4B6" opacity="0.07"/><circle cx="496.1" cy="289.9" r="1.6" fill="#2EC4B6" opacity="0.07"/><circle cx="360.5" cy="196.8" r="3.0" fill="#2EC4B6" opacity="0.07"/><circle cx="147.7" cy="569.9" r="2.0" fill="#2EC4B6" opacity="0.07"/><circle cx="522.7" cy="213.1" r="1.7" fill="#2EC4B6" opacity="0.07"/><circle cx="572.5" cy="806.3" r="1.6" fill="#2EC4B6" opacity="0.07"/><circle cx="578.3" cy="256.0" r="1.9" fill="#2EC4B6" opacity="0.07"/><circle cx="113.4" cy="763.5" r="1.7" fill="#2EC4B6" opacity="0.07"/><circle cx="564.7" cy="249.8" r="1.6" fill="#2EC4B6" opacity="0.07"/><circle cx="515.4" cy="424.6" r="3.1" fill="#2EC4B6" opacity="0.07"/><circle cx="228.6" cy="386.0" r="2.5" fill="#2EC4B6" opacity="0.07"/><circle cx="303.9" cy="358.4" r="2.9" fill="#2EC4B6" opacity="0.07"/><circle cx="627.1" cy="862.0" r="1.9" fill="#2EC4B6" opacity="0.07"/><circle cx="555.6" cy="841.2" r="2.9" fill="#2EC4B6" opacity="0.07"/><circle cx="46.1" cy="786.1" r="2.9" fill="#2EC4B6" opacity="0.07"/><circle cx="459.6" cy="563.1" r="1.7" fill="#2EC4B6" opacity="0.07"/><circle cx="670.5" cy="798.2" r="2.8" fill="#2EC4B6" opacity="0.07"/><circle cx="505.7" cy="230.6" r="3.0" fill="#2EC4B6" opacity="0.07"/><circle cx="464.2" cy="868.8" r="1.6" fill="#2EC4B6" opacity="0.07"/><circle cx="160.8" cy="668.1" r="2.9" fill="#2EC4B6" opacity="0.07"/><circle cx="419.1" cy="392.3" r="2.4" fill="#2EC4B6" opacity="0.07"/><circle cx="245.4" cy="858.2" r="1.9" fill="#2EC4B6" opacity="0.07"/><circle cx="349.9" cy="517.4" r="2.1" fill="#2EC4B6" opacity="0.07"/><circle cx="296.8" cy="487.9" r="2.0" fill="#2EC4B6" opacity="0.07"/><circle cx="202.0" cy="701.2" r="2.5" fill="#2EC4B6" opacity="0.07"/><circle cx="628.5" cy="902.1" r="1.7" fill="#2EC4B6" opacity="0.07"/><circle cx="104.3" cy="455.9" r="2.2" fill="#2EC4B6" opacity="0.07"/><circle cx="256.2" cy="811.1" r="1.9" fill="#2EC4B6" opacity="0.07"/><circle cx="91.9" cy="677.0" r="2.3" fill="#2EC4B6" opacity="0.07"/><circle cx="409.3" cy="380.3" r="3.0" fill="#2EC4B6" opacity="0.07"/><circle cx="452.6" cy="304.9" r="2.1" fill="#2EC4B6" opacity="0.07"/><circle cx="423.5" cy="362.7" r="1.6" fill="#2EC4B6" opacity="0.07"/><circle cx="642.8" cy="758.3" r="2.7" fill="#2EC4B6" opacity="0.07"/><circle cx="635.0" cy="838.5" r="1.8" fill="#2EC4B6" opacity="0.07"/><circle cx="262.4" cy="300.9" r="3.1" fill="#2EC4B6" opacity="0.07"/><circle cx="519.3" cy="876.4" r="2.0" fill="#2EC4B6" opacity="0.07"/><circle cx="582.7" cy="631.9" r="3.1" fill="#2EC4B6" opacity="0.07"/><circle cx="78.5" cy="190.8" r="2.8" fill="#2EC4B6" opacity="0.07"/><circle cx="689.8" cy="205.8" r="2.7" fill="#2EC4B6" opacity="0.07"/><circle cx="531.3" cy="451.0" r="3.1" fill="#2EC4B6" opacity="0.07"/><circle cx="639.0" cy="597.9" r="2.2" fill="#2EC4B6" opacity="0.07"/><circle cx="328.8" cy="604.1" r="3.1" fill="#2EC4B6" opacity="0.07"/><circle cx="221.6" cy="844.0" r="3.0" fill="#2EC4B6" opacity="0.07"/><circle cx="110.1" cy="627.8" r="2.5" fill="#2EC4B6" opacity="0.07"/><circle cx="581.4" cy="646.3" r="2.4" fill="#2EC4B6" opacity="0.07"/><circle cx="507.2" cy="507.1" r="3.0" fill="#2EC4B6" opacity="0.07"/><circle cx="502.7" cy="313.1" r="1.7" fill="#2EC4B6" opacity="0.07"/><circle cx="354.1" cy="717.7" r="2.2" fill="#2EC4B6" opacity="0.07"/><circle cx="608.3" cy="217.4" r="2.1" fill="#2EC4B6" opacity="0.07"/><circle cx="704.9" cy="349.1" r="1.8" fill="#2EC4B6" opacity="0.07"/><circle cx="335.5" cy="309.2" r="2.2" fill="#2EC4B6" opacity="0.07"/><circle cx="201.2" cy="521.7" r="2.1" fill="#2EC4B6" opacity="0.07"/><circle cx="666.8" cy="283.8" r="2.2" fill="#2EC4B6" opacity="0.07"/><circle cx="169.2" cy="260.7" r="2.3" fill="#2EC4B6" opacity="0.07"/><circle cx="528.7" cy="748.5" r="3.1" fill="#2EC4B6" opacity="0.07"/><circle cx="183.0" cy="892.2" r="1.5" fill="#2EC4B6" opacity="0.07"/><circle cx="307.1" cy="675.5" r="2.6" fill="#2EC4B6" opacity="0.07"/><circle cx="235.5" cy="760.7" r="1.5" fill="#2EC4B6" opacity="0.07"/><circle cx="255.4" cy="621.0" r="2.0" fill="#2EC4B6" opacity="0.07"/><circle cx="232.9" cy="462.0" r="2.5" fill="#2EC4B6" opacity="0.07"/><circle cx="92.1" cy="693.1" r="3.1" fill="#2EC4B6" opacity="0.07"/><circle cx="656.1" cy="229.1" r="2.0" fill="#2EC4B6" opacity="0.07"/><circle cx="45.6" cy="236.3" r="2.3" fill="#2EC4B6" opacity="0.07"/><circle cx="325.5" cy="253.7" r="3.2" fill="#2EC4B6" opacity="0.07"/><circle cx="395.5" cy="596.9" r="1.9" fill="#2EC4B6" opacity="0.07"/><circle cx="103.1" cy="592.9" r="2.8" fill="#2EC4B6" opacity="0.07"/><circle cx="669.4" cy="718.5" r="2.2" fill="#2EC4B6" opacity="0.07"/><circle cx="150.3" cy="600.9" r="3.1" fill="#2EC4B6" opacity="0.07"/><circle cx="200.2" cy="303.7" r="1.5" fill="#2EC4B6" opacity="0.07"/><circle cx="442.8" cy="729.2" r="2.2" fill="#2EC4B6" opacity="0.07"/><circle cx="600.4" cy="323.6" r="1.9" fill="#2EC4B6" opacity="0.07"/><circle cx="657.0" cy="848.7" r="2.4" fill="#2EC4B6" opacity="0.07"/><circle cx="152.3" cy="867.7" r="1.9" fill="#2EC4B6" opacity="0.07"/><circle cx="139.7" cy="510.9" r="2.2" fill="#2EC4B6" opacity="0.07"/><circle cx="270.1" cy="698.9" r="1.8" fill="#2EC4B6" opacity="0.07"/><circle cx="245.5" cy="499.2" r="3.0" fill="#2EC4B6" opacity="0.07"/><circle cx="104.6" cy="837.7" r="1.7" fill="#2EC4B6" opacity="0.07"/><circle cx="586.6" cy="685.5" r="2.0" fill="#2EC4B6" opacity="0.07"/><circle cx="292.9" cy="346.2" r="2.3" fill="#2EC4B6" opacity="0.07"/><circle cx="242.1" cy="853.9" r="1.9" fill="#2EC4B6" opacity="0.07"/><circle cx="423.3" cy="356.7" r="2.3" fill="#2EC4B6" opacity="0.07"/><circle cx="237.5" cy="807.1" r="3.0" fill="#2EC4B6" opacity="0.07"/><circle cx="304.7" cy="442.5" r="2.7" fill="#2EC4B6" opacity="0.07"/><circle cx="502.4" cy="784.5" r="1.8" fill="#2EC4B6" opacity="0.07"/><circle cx="421.4" cy="648.3" r="2.5" fill="#2EC4B6" opacity="0.07"/><circle cx="178.6" cy="465.9" r="1.8" fill="#2EC4B6" opacity="0.07"/><circle cx="269.5" cy="661.5" r="2.1" fill="#2EC4B6" opacity="0.07"/><circle cx="402.0" cy="894.7" r="2.9" fill="#2EC4B6" opacity="0.07"/><circle cx="469.9" cy="660.3" r="2.5" fill="#2EC4B6" opacity="0.07"/><circle cx="587.7" cy="378.5" r="2.7" fill="#2EC4B6" opacity="0.07"/><circle cx="320.9" cy="533.1" r="2.8" fill="#2EC4B6" opacity="0.07"/><circle cx="359.8" cy="414.0" r="3.0" fill="#2EC4B6" opacity="0.07"/><circle cx="277.0" cy="436.6" r="2.5" fill="#2EC4B6" opacity="0.07"/><circle cx="353.9" cy="353.3" r="2.8" fill="#2EC4B6" opacity="0.07"/><circle cx="516.4" cy="742.3" r="1.5" fill="#2EC4B6" opacity="0.07"/><circle cx="653.2" cy="623.3" r="2.9" fill="#2EC4B6" opacity="0.07"/><circle cx="228.2" cy="392.4" r="3.1" fill="#2EC4B6" opacity="0.07"/><circle cx="468.7" cy="543.9" r="3.2" fill="#2EC4B6" opacity="0.07"/><circle cx="171.2" cy="302.1" r="1.6" fill="#2EC4B6" opacity="0.07"/><circle cx="628.9" cy="330.0" r="2.9" fill="#2EC4B6" opacity="0.07"/><circle cx="657.2" cy="394.4" r="3.0" fill="#2EC4B6" opacity="0.07"/><circle cx="295.7" cy="588.9" r="2.6" fill="#2EC4B6" opacity="0.07"/><circle cx="252.6" cy="689.5" r="2.3" fill="#2EC4B6" opacity="0.07"/></g><path d="M 255.0 320 Q 375.0 260 495.0 320 L 475.0 370 L 275.0 370 Z" fill="#ffffff" opacity="0.55" stroke="#2EC4B6" stroke-width="6"/>
        <g opacity="0.95">
          <circle cx="375.0" cy="500" r="88" fill="#ffffff" opacity="0.62" stroke="#1E1B2E" stroke-width="7"/>
          <circle cx="347.0" cy="482" r="10" fill="#1E1B2E" opacity="0.9"/>
          <circle cx="403.0" cy="482" r="10" fill="#1E1B2E" opacity="0.9"/>
          <path d="M 340.0 518 Q 375.0 540 410.0 518" fill="none" stroke="#1E1B2E" stroke-width="8" stroke-linecap="round"/>
          <rect x="235.0" y="570" width="280" height="330" rx="75" fill="#ffffff" opacity="0.50" stroke="#1E1B2E" stroke-width="7"/>
          <path d="M 265.0 680 Q 375.0 760 485.0 680" fill="none" stroke="#2EC4B6" stroke-width="10" opacity="0.35" stroke-linecap="round"/>
        </g>
        
        <g filter="url(#glow)">
          <circle cx="205.0" cy="720" r="85" fill="#ffffff" opacity="0.50" stroke="#1E1B2E" stroke-width="6"/>
          
    <g>
      <circle cx="205.0" cy="720" r="72.0" fill="#ffffff" opacity="0.75" stroke="#1E1B2E" stroke-width="7"/>
      <circle cx="205.0" cy="720" r="53.1" fill="none" stroke="#2EC4B6" stroke-width="6" opacity="0.45"/>
      <polygon points="205.00,652.50 221.40,697.43 269.20,699.14 231.53,728.62 244.68,774.61 205.00,747.90 165.32,774.61 178.47,728.62 140.80,699.14 188.60,697.43" fill="none" stroke="#1E1B2E" stroke-width="8" stroke-linejoin="round" opacity="0.95"/>
      <circle cx="205.0" cy="720" r="8.1" fill="#2EC4B6" opacity="0.55"/>
      <path d="M 162.2 751.5 Q 205.0 789.8 247.8 751.5" fill="none" stroke="#2EC4B6" stroke-width="7" opacity="0.35" stroke-linecap="round"/>
    </g>
    
        </g>
        <g filter="url(#glow)">
    <g>
      <circle cx="565.0" cy="680" r="112.0" fill="#ffffff" opacity="0.75" stroke="#1E1B2E" stroke-width="7"/>
      <circle cx="565.0" cy="680" r="82.6" fill="none" stroke="#2EC4B6" stroke-width="6" opacity="0.45"/>
      <polygon points="565.00,575.00 590.51,644.89 664.86,647.55 606.28,693.41 626.72,764.95 565.00,723.40 503.28,764.95 523.72,693.41 465.14,647.55 539.49,644.89" fill="none" stroke="#1E1B2E" stroke-width="8" stroke-linejoin="round" opacity="0.95"/>
      <circle cx="565.0" cy="680" r="12.6" fill="#2EC4B6" opacity="0.55"/>
      <path d="M 498.5 729.0 Q 565.0 788.5 631.5 729.0" fill="none" stroke="#2EC4B6" stroke-width="7" opacity="0.35" stroke-linecap="round"/>
    </g>
    </g><line x1="387.8" y1="290.8" x2="526.1" y2="322.8" stroke="#ffffff" stroke-width="2.2" opacity="0.19"/>
<line x1="526.1" y1="322.8" x2="297.5" y2="244.0" stroke="#ffffff" stroke-width="2.2" opacity="0.17"/>
<line x1="297.5" y1="244.0" x2="342.1" y2="518.0" stroke="#ffffff" stroke-width="2.2" opacity="0.19"/>
<line x1="342.1" y1="518.0" x2="177.1" y2="399.4" stroke="#ffffff" stroke-width="2.2" opacity="0.13"/>
<line x1="177.1" y1="399.4" x2="259.5" y2="465.4" stroke="#ffffff" stroke-width="2.2" opacity="0.15"/>
<line x1="259.5" y1="465.4" x2="514.6" y2="404.2" stroke="#ffffff" stroke-width="2.2" opacity="0.16"/>
<circle cx="387.8" cy="290.8" r="2.0" fill="#ffffff" opacity="0.736461102756429"/>
<circle cx="347.0" cy="466.5" r="1.7" fill="#ffffff" opacity="0.8038125652246783"/>
<circle cx="514.6" cy="404.2" r="3.3" fill="#ffffff" opacity="0.5792158611571891"/>
<circle cx="501.5" cy="556.3" r="4.3" fill="#ffffff" opacity="0.4958237416713758"/>
<circle cx="237.0" cy="255.9" r="2.9" fill="#ffffff" opacity="0.3213547635638924"/>
<circle cx="342.1" cy="518.0" r="4.4" fill="#ffffff" opacity="0.40002971052399305"/>
<circle cx="297.5" cy="244.0" r="2.9" fill="#ffffff" opacity="0.7441384391452206"/>
<circle cx="199.4" cy="431.6" r="4.4" fill="#ffffff" opacity="0.6084724275817892"/>
<circle cx="346.2" cy="414.5" r="1.9" fill="#ffffff" opacity="0.7097057704310483"/>
<circle cx="179.0" cy="317.6" r="4.4" fill="#ffffff" opacity="0.3745044401922221"/>
<circle cx="177.1" cy="399.4" r="2.2" fill="#ffffff" opacity="0.2936442706103777"/>
<circle cx="259.5" cy="465.4" r="4.3" fill="#ffffff" opacity="0.7504608142796229"/>
<circle cx="208.2" cy="277.0" r="2.0" fill="#ffffff" opacity="0.6249185852191599"/>
<circle cx="526.1" cy="322.8" r="4.2" fill="#ffffff" opacity="0.6729906790274063"/>
<rect x="42" y="1030" width="666" height="160" rx="30" fill="#ffffffd9" stroke="#1E1B2E" stroke-width="4" opacity="0.95"/>
<text x="375.0" y="1104" font-family="ui-sans-serif, system-ui, -apple-system, Segoe UI, Roboto, Helvetica, Arial" font-size="46" font-weight="900" text-anchor="middle" fill="#1E1B2E" opacity="0.98">King of Pentacles</text>
<text x="375.0" y="1152" font-family="ui-sans-serif, system-ui, -apple-system, Segoe UI, Roboto, Helvetica, Arial" font-size="28" font-weight="700" text-anchor="middle" fill="#1E1B2E" opacity="0.7">Calm</text>

    <g opacity="0.55">
      <circle cx="127" cy="1176" r="14" fill="#2EC4B6"/>
      <circle cx="623" cy="1176" r="14" fill="#2EC4B6"/>
      <path d="M 162 1176 L 588 1176" stroke="#2EC4B6" stroke-width="4" opacity="0.45" stroke-linecap="round"/>
    </g>
    
</svg>
